# Blender 5.0.0
# www.blender.org
mtllib rock trees SKINNY.mtl
o EA04_Trees_Tire_01d
v -31.404291 4.360646 0.357217
v -31.899189 4.387407 0.785423
v -32.200863 4.554207 0.400789
v -31.419203 4.400473 0.001519
v -31.771221 0.044781 -0.563936
v -32.616447 0.051067 -0.040466
v -32.082485 0.058297 0.804929
v -31.308079 0.074536 0.395579
v -32.326950 0.044254 -0.495091
v -32.562698 0.047471 0.482803
v -32.023266 4.533401 0.107301
v -31.305840 0.063848 -0.293028
v -32.453186 1.936698 0.601565
v -31.454258 1.624137 0.145118
v -32.197269 1.708491 0.022052
v -31.566475 0.072794 0.728914
v -30.577900 4.465681 3.173621
v -30.008413 4.428058 -0.296676
v -32.143543 4.428058 -1.651864
v -32.274734 4.624593 0.321567
v -33.887642 4.428058 -1.013368
v -32.083450 8.979323 -1.613379
v -33.495491 4.428058 2.535084
v -34.625126 4.428058 0.766036
v -34.891876 13.203763 0.537797
v -33.408394 9.073699 3.147695
v -31.933664 4.428058 3.720577
v -31.904167 6.810174 3.727316
v -30.930737 19.260189 2.225911
v -32.900940 19.258543 -0.392322
v -30.937000 5.821625 2.827602
v -32.132832 19.258539 2.582559
v -32.023308 7.911684 3.333381
v -33.216927 10.176246 2.591132
v -30.047630 6.042614 0.238533
v -34.184078 12.665155 0.878882
v -33.314610 11.988326 -0.647804
v -31.667755 19.258539 -0.735739
v -32.099396 9.661458 -1.245876
v -30.708899 19.258543 0.015881
vn 0.4616 0.0176 0.8869
vn 0.0123 0.0601 0.9981
vn -0.2344 -0.0049 0.9721
vn -0.8691 0.0193 0.4943
vn -0.9500 0.1105 0.2920
vn -0.4400 0.1939 -0.8768
vn -0.1267 -0.0496 -0.9907
vn 0.2446 0.1619 -0.9560
vn -0.5024 0.2975 -0.8119
vn 0.1191 0.3296 -0.9366
vn -0.1734 0.0601 -0.9830
vn 0.2064 0.0359 -0.9778
vn 0.6169 0.0141 -0.7869
vn -0.8436 -0.4955 -0.2069
vn -0.8786 -0.4740 0.0589
vn -0.8562 -0.4597 -0.2358
vn -0.6799 0.0053 -0.7333
vn -0.6661 0.0552 -0.7438
vn -0.3387 0.0714 -0.9382
vn -0.1100 -0.0463 0.9929
vn 0.3743 -0.0073 0.9273
vn -0.2332 0.0001 0.9724
vn 0.8535 0.4867 0.1860
vn 0.8600 0.4833 0.1636
vn 0.8595 0.4564 0.2304
vn 0.8757 0.4626 0.1387
vn 0.8401 0.5368 0.0780
vn 0.3818 0.0647 0.9220
vn 0.8642 0.0277 0.5023
vn -0.4286 0.1661 0.8881
vn -0.0004 1.0000 0.0002
vn -0.0013 1.0000 0.0003
vn -0.0003 1.0000 -0.0009
vn -0.0098 -0.9951 0.0985
vn -0.0555 -0.9981 0.0258
vn 0.0070 -0.9998 0.0197
vn -0.8193 0.1744 -0.5462
vn -0.9840 0.1158 0.1355
vn 0.7677 0.0535 0.6386
vn -0.8314 -0.4991 -0.2443
vn -0.8430 -0.4758 -0.2509
vn 0.0001 1.0000 -0.0006
vn 0.9994 0.0204 0.0292
vn -0.0131 -0.9991 -0.0395
vn 0.0577 -0.9967 -0.0567
vn 0.1032 0.0070 -0.9946
vn 0.8603 0.4574 0.2250
vn 0.0664 -0.9956 0.0663
vn -0.9231 -0.0380 -0.3826
vn 0.0817 -0.9966 -0.0089
vn -0.8320 -0.0458 0.5529
vn -0.7514 -0.0544 0.6576
vn -0.8761 -0.0299 0.4811
vn -0.5405 0.0653 0.8388
vn -0.0000 1.0000 -0.0000
vn -0.5250 0.0683 -0.8483
vn 0.9687 0.0202 0.2474
vn 0.9285 0.0647 0.3656
vn 0.9752 0.0136 -0.2211
vn 0.9677 0.0019 -0.2522
vn -0.8680 -0.3713 -0.3298
vn 0.9985 0.0496 -0.0220
vn -0.8304 -0.4966 -0.2528
vn 0.6055 0.0169 -0.7957
vn -0.8428 -0.0116 0.5382
vn 0.5359 0.0001 -0.8443
vn -0.9498 0.1661 -0.2651
vn -0.6156 0.0565 -0.7860
vn -0.1746 -0.0099 -0.9846
vn 0.3082 0.3375 -0.8894
vn -0.8871 0.0598 -0.4576
vn -0.5460 0.0607 0.8356
vn -0.0518 -0.9983 -0.0248
vn 0.9956 0.0942 0.0018
vt 0.296108 0.079359
vt 0.296108 0.425069
vt 0.296108 0.078198
vt 0.296108 0.077330
vt 0.296108 0.228705
vt 0.296108 0.210420
vt 0.296108 0.426115
vt 0.296108 0.203661
vt 0.296108 0.077073
vt 0.296108 0.077115
vt 0.937420 0.183556
vt 0.937420 0.449582
vt 0.937420 0.449582
vt 0.937420 0.248056
vt 0.937420 0.083243
vt 0.937420 0.048695
vt 0.937420 0.450184
vt 0.937420 0.256916
vt 0.937420 0.048695
vt 0.937420 0.050416
vt 0.937420 0.157677
vt 0.937420 0.261233
vt 0.937420 0.135053
vt 0.937420 0.077118
vt 0.937420 0.449628
vt 0.937420 0.057686
vt 0.937420 0.266817
vt 0.937420 0.197825
vt 0.296108 0.422924
vt 0.296108 0.079499
vt 0.296108 0.077618
vt 0.296108 0.436766
vt 0.296108 0.078642
vt 0.296108 0.438433
s 1
usemtl LPNPTrees
f 16/1/1 2/2/2 7/3/3
f 10/4/4 7/3/3 13/5/5
f 15/6/6 4/7/7 14/8/8
f 9/9/9 15/6/6 5/10/10
f 39/11/11 38/12/12 40/13/13
f 37/14/14 39/11/15 35/15/16
f 21/16/17 25/17/18 22/18/19
f 27/19/20 17/20/21 28/21/22
f 26/22/23 18/19/24 25/17/25
f 17/20/26 18/19/24 28/21/27
f 33/23/28 31/24/29 32/12/30
f 30/13/31 32/12/32 29/25/33
f 19/16/34 18/19/35 20/26/36
f 32/12/30 30/13/37 36/27/38
f 32/12/30 31/24/29 29/25/39
f 34/28/40 35/15/16 33/23/41
f 30/13/31 29/25/33 40/13/42
f 29/25/39 31/24/29 35/15/43
f 34/28/40 37/14/14 35/15/16
f 27/19/44 23/19/45 20/26/36
f 22/18/19 19/16/46 21/16/17
f 18/19/24 22/18/47 25/17/25
f 19/16/34 20/26/36 21/16/48
f 25/17/18 21/16/17 24/19/49
f 20/26/36 23/19/45 24/19/50
f 27/19/20 26/22/51 23/19/52
f 25/17/53 23/19/52 26/22/51
f 26/22/51 27/19/20 28/21/22
f 33/23/28 32/12/30 34/28/54
f 40/13/42 38/12/55 30/13/31
f 38/12/12 37/14/56 30/13/37
f 38/12/12 39/11/11 37/14/56
f 1/29/57 8/30/58 14/8/59 4/7/60
f 30/13/37 37/14/56 36/27/38
f 33/23/41 35/15/16 31/24/61
f 29/25/39 35/15/43 40/13/62
f 37/14/14 34/28/40 36/27/63
f 35/15/43 39/11/64 40/13/62
f 23/19/52 25/17/53 24/19/65
f 24/19/50 21/16/48 20/26/36
f 18/19/24 26/22/23 28/21/27
f 19/16/46 22/18/19 18/19/66
f 34/28/54 32/12/30 36/27/38
f 6/31/67 13/5/5 15/6/6 9/9/9
f 6/31/67 10/4/4 13/5/5
f 15/6/6 11/32/68 4/7/69
f 14/8/8 12/33/70 5/10/10 15/6/6
f 3/34/71 11/32/68 15/6/6 13/5/5
f 2/2/2 3/34/72 13/5/5 7/3/3
f 8/30/58 1/29/57 2/2/2 16/1/1
f 17/20/73 27/19/44 20/26/36 18/19/35
f 12/33/74 14/8/59 8/30/58
