# Blender 5.0.0
# www.blender.org
mtllib rock trees THICK.mtl
o EA04_Trees_Stoolids_01b
v 10.218124 4.732038 -0.597671
v 8.868833 3.936650 -0.323934
v 8.798624 7.712313 -1.287732
v 9.732737 3.936650 -0.750265
v 9.261463 5.066612 -3.268035
v 9.967066 5.083039 -3.300028
v 9.544526 4.780446 -3.201693
v 9.174377 13.147048 -2.253703
v 8.675299 13.153777 -1.385886
v 8.959395 13.464822 -1.682014
v 8.192814 5.072462 -2.527651
v 7.872705 4.775702 -1.979217
v 7.598131 5.050779 -1.582055
v 8.548175 13.155036 -0.472057
v 8.855721 13.187275 0.214869
v 8.677529 13.468122 -0.261626
v 7.549729 4.776926 0.026715
v 7.631385 5.037884 0.226447
v 7.353197 5.054312 -0.217728
v 10.600165 13.187660 0.964604
v 10.273417 13.462710 0.888891
v 9.813803 13.180402 0.897417
v 11.487218 13.182157 0.552091
v 11.940091 13.166320 -0.110493
v 11.802370 13.459294 0.147529
v 10.265946 4.772399 0.625542
v 10.603123 5.079207 0.542721
v 9.767263 5.059274 0.762980
v 11.939314 5.081396 -1.104999
v 11.455055 5.086812 -0.156198
v 11.529491 4.773015 -0.568485
v 12.079075 13.166609 -1.377578
v 11.752678 13.152639 -1.996012
v 11.855963 13.462897 -1.608508
v 11.676989 5.079521 -2.280718
v 12.002233 5.080929 -1.648547
v 11.788193 4.773163 -1.870259
v 9.833392 13.146917 -2.688106
v 10.166157 13.463830 -2.554965
v 10.530146 13.152468 -2.728526
v 9.259698 4.247598 -1.702278
v 9.732744 4.233056 -1.007313
v 9.435979 3.936650 -1.264033
v 8.512389 7.400225 -2.063807
v 8.625803 7.712313 -1.716472
v 8.866447 3.936650 -1.566705
v 8.823148 4.254208 -1.932552
v 7.129605 7.302208 -2.062685
v 6.791421 7.418202 -1.686765
v 7.725121 7.712313 -1.740079
v 7.681042 4.253927 -1.892000
v 7.650227 3.936650 -1.518109
v 7.129627 4.269747 -1.494298
v 7.218288 3.936650 -0.555334
v 7.065240 4.260815 -0.198800
v 6.937000 4.269109 -0.986092
v 6.586483 7.418770 -1.183327
v 6.681685 7.408577 -0.391400
v 6.738287 7.712313 -0.802275
v 7.674551 4.260380 0.582343
v 8.210708 3.936650 0.698617
v 8.479046 4.242893 0.956067
v 7.268686 7.409018 0.406907
v 8.056889 7.391081 0.813910
v 7.711141 7.712313 0.478456
v 8.077362 7.390922 0.810584
v 8.833212 7.379734 0.426227
v 8.623011 7.712313 0.006091
v 9.238871 4.230005 0.543251
v 8.499794 4.243064 0.958826
v 8.981413 3.936650 0.622496
v 9.038114 7.379045 0.124457
v 9.380069 7.381885 -1.098290
v 9.052809 7.712313 -0.918744
v 9.439775 4.230621 0.238570
v 9.530806 3.936650 -0.388159
v 9.730016 4.232643 -0.997488
v 8.931404 7.400294 -1.821851
v 9.028725 7.712313 -1.424575
v 9.375237 7.381416 -1.107640
v 11.233098 5.295184 -0.179898
v 10.914373 4.980291 -0.612934
v 10.839768 5.306055 -1.157491
v 10.237485 4.980291 -1.295006
v 10.368281 5.305958 -1.635062
v 10.585002 9.294659 -1.862725
v 10.415702 9.597485 -1.626435
v 9.423750 9.597485 -2.004703
v 9.528986 9.294659 -2.265423
v 8.548635 5.300070 -1.851228
v 9.692244 5.306832 -1.796463
v 8.917970 4.980291 -1.665870
v 8.777613 9.291270 -2.226748
v 7.943487 9.298557 -1.656944
v 8.324966 9.597485 -1.907226
v 8.113173 4.980291 -1.447634
v 7.834177 5.294849 -1.624779
v 7.425490 9.166237 -0.735832
v 7.622692 9.275038 -0.168566
v 7.735515 9.597485 -0.669257
v 7.450704 5.294849 -0.587332
v 7.794629 4.980291 -0.585846
v 7.565467 5.284218 0.286561
v 8.921577 9.597485 1.365198
v 8.552227 9.274106 1.391886
v 9.159202 9.273391 1.694890
v 9.236863 5.282451 2.023449
v 8.605072 5.285224 1.776322
v 8.996589 4.980292 1.766596
v 10.784971 9.272334 1.484091
v 11.175753 9.284754 1.086718
v 10.818804 9.597485 1.137012
v 11.196540 5.295320 1.264466
v 10.843148 5.283443 1.695483
v 10.884323 4.980291 1.364189
v 11.313507 9.284830 -0.351488
v 11.009866 9.294191 -1.360634
v 11.012015 9.597485 -0.905773
v 11.191536 11.133759 0.186826
v 11.705130 11.133871 -0.431351
v 10.955484 9.122189 -0.174588
v 11.490373 9.122189 -0.784270
v 11.656832 7.110332 -0.906330
v 11.134373 7.110600 -0.138229
v 11.868895 11.134807 -1.296569
v 11.618618 11.135291 -1.963890
v 11.612915 9.122189 -1.305264
v 11.403536 9.122189 -1.995291
v 11.463459 7.109090 -2.087930
v 11.733079 7.109669 -1.415257
v 9.678516 11.135387 0.341520
v 10.459613 11.134406 0.468974
v 9.576625 9.122189 -0.079183
v 10.362700 9.122189 0.047681
v 10.408519 7.109957 0.283051
v 9.578629 7.109087 0.304398
v 8.614713 11.136841 -1.028331
v 8.834585 11.136816 -0.338578
v 8.577529 9.122189 -1.388423
v 8.761786 9.122189 -0.719377
v 8.179008 7.107404 -0.398181
v 7.951159 7.107439 -0.948967
v 10.683044 11.135406 -2.698361
v 9.987108 11.135407 -2.767303
v 10.648291 9.122189 -2.698407
v 9.960673 9.122189 -2.825402
v 9.626282 7.108962 -3.028987
v 10.325432 7.108965 -2.965052
v 9.427728 11.135349 -2.485265
v 8.796724 11.135974 -1.708357
v 9.473302 9.122189 -2.628854
v 8.772963 9.122189 -1.910097
v 8.201279 7.108444 -1.818495
v 8.872774 7.109032 -2.634980
v 7.608691 5.826843 -0.426164
v 7.630444 5.814449 -0.170621
v 7.919386 5.832037 -0.058900
v 8.019176 5.873892 -0.640451
v 8.342160 5.878283 -0.290210
v 8.301697 5.889689 -0.530725
v 8.427147 3.559937 -0.378302
v 8.101711 3.358679 -0.185105
v 8.117165 3.516864 -0.733075
v 8.385340 3.609503 -0.621302
v 7.832577 3.264519 -0.297504
v 7.805338 3.320963 -0.552646
v 8.496017 2.593246 -1.058502
v 8.582238 2.473507 -0.836671
v 8.737073 2.665348 -0.648751
v 8.563814 2.889603 -1.097712
v 8.714995 3.109066 -0.912613
v 8.797836 2.987942 -0.688601
v 9.517147 5.915574 -0.584202
v 9.420155 5.953314 -1.045107
v 9.905362 6.342562 -1.185457
v 9.932890 6.177424 -0.704283
v 10.103120 -0.000000 -0.823205
v 10.099414 -0.000000 -2.284296
v 8.681608 -0.000000 -2.199373
v 8.709485 -0.000000 -0.755034
v 9.732242 6.007603 -0.512056
v 10.445370 -0.000000 -1.577087
v 9.403027 -0.000000 -2.606086
v 8.338835 -0.000000 -1.453064
v 10.008308 6.326682 -0.993133
v 9.713944 6.224357 -1.235403
v 9.403842 -0.000000 -0.435454
v 8.407297 2.933952 -0.434626
v 8.139935 2.876611 -0.803201
v 8.603780 3.188633 -0.558593
v 8.330363 3.121053 -0.924137
v 8.539515 3.272601 -0.784306
v 8.196840 2.788521 -0.563265
v 9.501364 3.021281 -0.922981
v 9.376121 3.201331 -1.273756
v 9.253219 2.850878 -1.621068
v 9.507945 2.550497 -0.953218
v 9.210082 2.445971 -1.612751
v 9.345629 2.256672 -1.292609
v 8.918286 1.097174 -0.896524
v 9.259313 3.422200 -0.866613
v 9.109426 2.257677 -0.969595
v 8.881691 1.012296 -2.094980
v 9.208571 3.359171 -1.647286
v 9.072966 2.183023 -1.934996
v 10.017536 0.958997 -2.214832
v 9.913143 3.330651 -1.813785
v 9.944987 2.145258 -2.082713
v 9.970592 1.066983 -1.013936
v 9.858227 3.395852 -1.028453
v 9.878117 2.228643 -1.123141
v 9.566300 3.423258 -0.737330
v 9.446500 1.099668 -0.655874
v 9.500171 2.259276 -0.795162
v 10.054125 3.356967 -1.463649
v 10.272812 1.007941 -1.640632
v 10.125703 2.181102 -1.639349
v 9.614678 3.325897 -1.927811
v 9.479407 0.955519 -2.459842
v 9.558228 2.140183 -2.250758
v 9.110485 3.382243 -1.414209
v 8.643456 1.068581 -1.540119
v 8.915350 2.220170 -1.562106
vn -0.0000 1.0000 -0.0000
vn -0.5928 -0.1894 0.7828
vn -0.6069 -0.1555 0.7795
vn -0.6041 -0.1623 0.7802
vn -0.1714 -0.0778 -0.9821
vn 0.2031 -0.0965 -0.9744
vn 0.1325 -0.1066 -0.9854
vn -0.0589 -0.0987 -0.9934
vn 0.3831 -0.2286 0.8950
vn 0.3660 -0.2179 0.9047
vn 0.3663 -0.2181 0.9046
vn -0.7955 -0.0645 0.6025
vn 0.5621 -0.0101 -0.8270
vn 0.6038 -0.0217 -0.7968
vn 0.6049 -0.0220 -0.7960
vn 0.5118 0.1046 0.8527
vn 0.5078 0.1035 0.8552
vn 0.5742 0.1212 0.8097
vn -0.9678 0.0286 -0.2500
vn -0.9710 0.0219 -0.2380
vn -0.9817 -0.0043 -0.1904
vn -0.0000 -1.0000 -0.0000
vn 0.0060 -1.0000 0.0066
vn 0.0112 -0.9999 -0.0096
vn 0.0309 -0.9994 0.0140
vn 0.9830 0.0876 0.1615
vn 0.9842 0.1200 0.1300
vn 0.9832 0.0914 0.1579
vn 0.9908 0.1171 0.0683
vn 0.9924 0.0803 0.0928
vn 0.9882 0.1075 -0.1087
vn 0.9982 -0.0048 0.0604
vn -0.9505 0.2281 -0.2109
vn -0.9415 0.2315 -0.2449
vn -0.9377 0.2328 -0.2580
vn -0.0063 -0.0461 -0.9989
vn -0.0250 -0.0565 -0.9981
vn -0.0354 -0.0623 -0.9974
vn 0.5913 0.0618 -0.8041
vn 0.5972 0.0577 -0.8000
vn 0.5522 0.0882 -0.8291
vn 0.0137 0.0479 0.9988
vn 0.0021 -0.0415 -0.9991
vn -0.9378 -0.0194 -0.3466
vn -0.9236 -0.1235 -0.3630
vn -0.8388 0.0574 0.5415
vn -0.9236 0.0393 0.3813
vn -0.9185 0.0407 0.3933
vn -0.6822 0.0128 -0.7311
vn 0.3554 -0.0725 -0.9319
vn 0.1640 0.0694 0.9840
vn 0.0035 -0.9998 0.0196
vn 0.8245 0.1259 0.5517
vn 0.9193 0.0878 0.3837
vn 0.9046 0.1263 0.4072
vn -0.5068 0.0153 -0.8619
vn -0.4605 0.0299 -0.8872
vn -0.4648 0.0285 -0.8850
vn -0.0072 -1.0000 -0.0032
vn -0.0141 -0.9998 0.0117
vn -0.0001 -0.9998 -0.0186
vn 0.7359 -0.0720 -0.6733
vn 0.9782 -0.1231 0.1674
vn 0.9796 -0.0431 0.1961
vn 0.9800 -0.0353 0.1956
vn 0.9778 -0.1236 0.1693
vn -0.0010 1.0000 -0.0025
vn 0.0021 1.0000 -0.0003
vn 0.0012 1.0000 0.0002
vn -0.4207 0.0926 -0.9025
vn -0.4709 0.1527 -0.8689
vn -0.4824 0.1545 -0.8622
vn -0.4212 0.0978 -0.9017
vn 0.0028 1.0000 0.0002
vn 0.0018 1.0000 0.0007
vn -0.9424 0.1502 -0.2989
vn -0.9431 0.1453 -0.2990
vn 0.4833 0.0142 -0.8754
vn 0.6440 -0.0018 -0.7650
vn 0.6444 -0.0047 -0.7647
vn -0.6177 -0.1276 0.7760
vn 0.9834 -0.1159 0.1396
vn -0.0006 1.0000 0.0020
vn 0.3971 -0.0620 0.9157
vn 0.3976 -0.0602 0.9156
vn -0.4078 0.2462 0.8793
vn -0.4070 0.2464 0.8796
vn -0.3203 0.2669 0.9089
vn -0.5060 0.2189 0.8343
vn -0.0377 -0.2609 -0.9646
vn -0.8316 0.0683 -0.5511
vn -0.8338 0.1013 -0.5427
vn -0.8259 0.3000 -0.4773
vn -0.8104 0.1508 -0.5662
vn -0.8435 -0.0736 -0.5321
vn -0.8170 0.1224 -0.5635
vn -0.9266 -0.0400 0.3740
vn -0.9268 -0.0441 0.3731
vn -0.9095 0.1054 0.4022
vn -0.8419 -0.1363 0.5222
vn -0.0855 0.1688 0.9819
vn 0.7915 -0.1777 0.5847
vn 0.7939 -0.1723 0.5831
vn 0.8193 -0.1104 0.5626
vn 0.2552 -0.0195 0.9667
vn 0.1764 0.1211 0.9768
vn 0.1689 0.1338 0.9765
vn 0.8294 -0.3622 0.4254
vn 0.8454 0.2838 -0.4526
vn 0.8544 -0.2780 -0.4390
vn -0.0556 0.4358 -0.8983
vn 0.7812 -0.3159 -0.5384
vn -0.2125 0.7888 -0.5767
vn -0.3499 0.8576 -0.3769
vn -0.1370 0.7681 -0.6255
vn -0.4509 -0.6619 -0.5988
vn -0.8337 -0.5367 0.1301
vn -0.9359 0.3324 0.1168
vn -0.4355 -0.0978 0.8949
vn -0.3996 -0.3589 0.8435
vn -0.4322 -0.1369 0.8913
vn -0.4115 0.4081 0.8149
vn 0.2620 0.8201 0.5088
vn 0.3962 0.8161 0.4206
vn 0.4365 0.8126 0.3863
vn 0.4784 -0.0080 0.8781
vn 0.4759 0.0357 0.8788
vn 0.4788 -0.1886 0.8574
vn 0.5797 0.7670 0.2751
vn 0.7278 0.6833 0.0575
vn 0.7125 0.6887 0.1342
vn 0.9573 -0.1822 0.2245
vn 0.8311 0.1730 -0.5285
vn 0.7940 0.3682 -0.4837
vn 0.8327 0.1557 -0.5314
vn 0.9296 -0.1420 -0.3401
vn 0.8543 -0.3861 -0.3480
vn 0.9306 -0.1364 -0.3397
vn -0.1478 -0.6005 -0.7859
vn 0.0452 -0.4614 -0.8860
vn -0.0401 -0.5270 -0.8489
vn -0.3477 -0.0463 -0.9365
vn -0.5637 0.0282 -0.8255
vn -0.8120 0.5566 0.1755
vn -0.6631 0.6850 0.3018
vn -0.7236 0.6410 0.2561
vn -0.6729 -0.7361 -0.0736
vn -0.6359 -0.7708 -0.0380
vn -0.4994 -0.8344 0.2330
vn -0.3853 0.5039 0.7731
vn -0.3275 -0.4471 0.8324
vn 0.5788 0.5662 0.5869
vn 0.6767 -0.4994 0.5411
vn 0.8839 0.3872 -0.2624
vn -0.4504 -0.6342 -0.6285
vn 0.3396 0.6213 0.7062
vn 0.8256 0.0771 0.5589
vn 0.8584 0.1009 0.5030
vn 0.8297 0.0799 0.5525
vn 0.9231 0.1034 -0.3703
vn 0.8995 0.1501 -0.4103
vn 0.9220 0.1058 -0.3725
vn -0.4022 0.7128 -0.5746
vn -0.1784 -0.6107 0.7715
vn 0.0348 0.1681 0.9852
vn 0.0408 0.1691 0.9848
vn 0.5532 -0.5611 0.6158
vn -0.8663 0.3467 0.3597
vn -0.8257 0.3696 0.4261
vn -0.8609 0.3500 0.3691
vn -0.8338 0.5321 -0.1471
vn 0.8526 0.5196 0.0550
vn 0.7287 -0.6729 0.1271
vn 0.3637 -0.6997 -0.6149
vn 0.1223 -0.7456 -0.6550
vn 0.3321 -0.6970 -0.6355
vn 0.1823 -0.7354 -0.6526
vn -0.0245 -0.7588 -0.6508
vn -0.5483 -0.8031 -0.2331
vn -0.9847 -0.1062 0.1381
vn 0.0851 0.1123 -0.9900
vn 0.0209 0.1360 -0.9905
vn 0.0720 0.1172 -0.9905
vn -0.4403 -0.0126 0.8977
vn 0.2595 0.8211 0.5084
vn 0.4707 0.0988 0.8767
vn 0.4218 0.6325 -0.6496
vn 0.8368 0.0721 -0.5427
vn -0.0226 0.6917 -0.7218
vn 0.0676 -0.6821 0.7281
vn 0.7091 -0.5777 0.4042
vn 0.7041 0.7090 -0.0402
vn 0.7413 -0.6667 -0.0774
vn 0.9425 -0.0451 -0.3311
vn -0.2138 -0.6402 -0.7379
vn -0.0563 0.6612 -0.7481
vn 0.0885 0.6787 -0.7290
vn 0.1207 0.6807 -0.7226
vn -0.7248 0.6021 -0.3349
vn -0.9774 0.0201 0.2102
vn 0.7427 0.0400 0.6684
vn 0.5587 0.6858 -0.4663
vn 0.2611 0.6803 -0.6848
vn 0.1436 -0.7135 0.6858
vn 0.4983 -0.7130 -0.4934
vn 0.3546 -0.7310 -0.5830
vn 0.3306 -0.7319 -0.5958
vn -0.4118 0.7041 0.5785
vn 0.3548 0.7040 -0.6152
vn -0.5676 0.7047 0.4257
vn -0.7602 0.2004 -0.6180
vn -0.7696 0.2008 -0.6061
vn -0.4555 -0.8496 0.2659
vn -0.5920 0.7266 0.3486
vn -0.2513 -0.0764 -0.9649
vn 0.1771 -0.7256 -0.6650
vn -0.3775 0.8717 -0.3125
vn -0.6615 -0.1382 -0.7371
vn -0.4046 0.0748 0.9114
vn -0.7719 -0.6225 -0.1292
vn 0.7028 -0.7112 0.0137
vn -0.5379 -0.7291 0.4232
vn 0.6616 0.7472 0.0629
vn -0.6543 -0.7165 -0.2418
vn 0.0845 0.7316 0.6764
vn 0.7641 -0.1990 0.6137
vn 0.7629 -0.1988 0.6152
vn 0.7746 -0.0754 0.6280
vn 0.7765 -0.0650 0.6268
vn 0.9092 -0.0887 -0.4068
vn 0.9263 -0.0978 -0.3640
vn 0.9268 -0.0981 -0.3625
vn 0.9450 -0.0262 -0.3260
vn 0.9450 -0.0220 -0.3263
vn -0.1187 -0.2393 0.9637
vn -0.1392 -0.2158 0.9665
vn -0.1369 -0.2184 0.9662
vn -0.1119 -0.0193 0.9935
vn -0.1132 -0.0243 0.9933
vn -0.9464 -0.0616 0.3169
vn -0.9422 -0.0729 0.3270
vn -0.9415 0.1558 0.2988
vn -0.9432 0.1462 0.2983
vn 0.0204 0.0137 -0.9997
vn 0.0816 0.0130 -0.9966
vn 0.0794 0.0130 -0.9968
vn 0.1383 0.0500 -0.9891
vn 0.1380 0.0551 -0.9889
vn -0.7838 0.0291 -0.6204
vn -0.7897 0.0253 -0.6130
vn -0.7407 0.1229 -0.6605
vn -0.7400 0.1297 -0.6600
vn -0.5213 0.1606 -0.8381
vn -0.3588 -0.0743 0.9305
vn 0.5615 -0.0512 0.8259
vn 0.5326 -0.0476 0.8450
vn 0.5386 -0.0537 0.8409
vn 0.5609 -0.0492 0.8265
vn 0.1424 -0.7693 0.6229
vn 0.0518 -0.7202 0.6918
vn 0.0651 -0.7281 0.6824
vn -0.0837 -0.6132 0.7855
vn -0.1290 -0.5630 0.8163
vn -0.0792 -0.6180 0.7822
vn 0.9858 0.0425 -0.1624
vn 0.1063 0.5802 -0.8075
vn 0.1253 0.5629 -0.8170
vn 0.0429 0.6343 -0.7719
vn -0.3994 0.7210 -0.5662
vn -0.6050 0.0418 -0.7951
vn -0.5895 0.0362 -0.8070
vn -0.5872 0.0354 -0.8087
vn -0.5644 0.0510 -0.8239
vn -0.5644 0.0509 -0.8239
vn -0.5232 0.0424 -0.8511
vn -0.5175 0.0379 -0.8548
vn 0.1057 0.8960 0.4312
vn 0.8179 0.5753 0.0011
vn 0.7259 0.6838 0.0744
vn 0.8172 0.5764 0.0018
vn -0.4822 0.0103 -0.8760
vn -0.7410 -0.6668 -0.0797
vn -0.7461 -0.6614 -0.0765
vn -0.8055 -0.5915 -0.0358
vn 0.3640 0.0510 -0.9300
vn -0.9930 -0.0825 0.0841
vn 0.4962 -0.0111 0.8681
vn 0.9126 0.0959 -0.3973
vn 0.9140 0.1001 -0.3931
vn 0.9083 0.0835 -0.4100
vn 0.9204 -0.0300 0.3899
vn 0.9377 -0.0522 0.3434
vn 0.9245 -0.0349 0.3796
vn 0.8973 0.1174 -0.4255
vn 0.9035 0.1128 -0.4135
vn 0.9040 0.1124 -0.4124
vn -0.4090 0.1937 0.8917
vn -0.4092 0.1604 0.8983
vn -0.4092 0.1626 0.8979
vn -0.8997 0.1815 -0.3971
vn -0.9030 0.1657 -0.3964
vn -0.8986 0.1862 -0.3972
vn 0.8940 0.1816 0.4096
vn 0.8971 0.1495 0.4157
vn 0.8974 0.1467 0.4162
vn -0.8875 0.2186 -0.4057
vn -0.8903 0.2106 -0.4037
vn -0.8902 0.2110 -0.4038
vn -0.9686 0.0782 0.2359
vn -0.9604 0.0973 0.2610
vn -0.9625 0.0927 0.2550
vn -0.4999 0.1834 -0.8464
vn -0.4912 0.1776 -0.8528
vn -0.5005 0.1838 -0.8460
vn -0.5553 0.2368 -0.7972
vn -0.5619 0.2334 -0.7936
vn -0.5945 0.2162 -0.7745
vn 0.6920 -0.0806 0.7174
vn 0.7117 -0.1031 0.6949
vn 0.6944 -0.0833 0.7148
vn 0.5155 0.1803 0.8377
vn 0.5608 0.1394 0.8162
vn 0.5603 0.1398 0.8164
vn 0.4148 0.1031 -0.9041
vn 0.4096 0.1150 -0.9050
vn 0.4092 0.1160 -0.9050
vn 0.3140 0.2140 -0.9250
vn 0.3212 0.2150 -0.9223
vn 0.2636 0.2065 -0.9423
vn -0.8970 0.2265 0.3797
vn -0.8743 0.2511 0.4153
vn -0.8987 0.2246 0.3768
vn -0.5517 -0.8038 -0.2224
vn -0.5551 -0.8022 -0.2198
vn 0.8896 0.4509 -0.0729
vn 0.1880 0.5022 -0.8441
vn 0.4531 -0.0086 0.8914
vn 0.4357 -0.0091 0.9001
vn 0.3427 -0.0120 0.9394
vn -0.4230 -0.8507 -0.3120
vn 0.6433 0.0167 0.7655
vn 0.6412 0.0214 0.7671
vn 0.9138 0.1093 -0.3913
vn 0.9145 0.1098 -0.3894
vn 0.9046 0.0455 0.4237
vn 0.9040 0.0571 0.4236
vn -0.5169 0.2227 -0.8265
vn -0.5161 0.2186 -0.8282
vn 0.3881 0.1712 -0.9056
vn 0.3860 0.1767 -0.9054
vn -0.9395 0.1519 0.3072
vn -0.9363 0.1599 0.3126
vn -0.3729 -0.0464 0.9267
vn -0.3766 -0.0436 0.9254
vn -0.4055 0.0569 0.9123
vn -0.4049 0.0482 0.9131
vn -0.8942 0.2015 -0.3999
vn -0.8943 0.2014 -0.3995
vn -0.3492 -0.0643 0.9348
vt 0.568238 0.620033
vt 0.568238 0.620033
vt 0.568238 0.682592
vt 0.568238 0.682545
vt 0.568238 0.747539
vt 0.568238 0.638383
vt 0.568238 0.638235
vt 0.568238 0.878031
vt 0.568238 0.878031
vt 0.568238 0.682405
vt 0.568238 0.682363
vt 0.568238 0.747539
vt 0.568238 0.747539
vt 0.564332 0.530847
vt 0.564332 0.530851
vt 0.564332 0.630439
vt 0.564332 0.630443
vt 0.564332 0.521247
vt 0.568238 0.683507
vt 0.568238 0.683500
vt 0.568238 0.895370
vt 0.568238 0.959810
vt 0.568238 0.959737
vt 0.568238 0.683529
vt 0.568238 0.683507
vt 0.564332 0.640688
vt 0.568238 0.969285
vt 0.568238 0.895370
vt 0.568238 0.959813
vt 0.568238 0.959806
vt 0.564332 0.531708
vt 0.564332 0.631318
vt 0.564332 0.531708
vt 0.564332 0.640688
vt 0.568238 0.878621
vt 0.568238 0.878625
vt 0.568238 0.638828
vt 0.568238 0.638828
vt 0.568238 0.960592
vt 0.568238 0.960510
vt 0.564332 0.640688
vt 0.568238 0.897554
vt 0.568238 0.897554
vt 0.568238 0.897554
vt 0.564332 0.534220
vt 0.564332 0.630653
vt 0.564332 0.630651
vt 0.568238 0.959771
vt 0.568238 0.959702
vt 0.564332 0.531411
vt 0.564332 0.531411
vt 0.564332 0.630998
vt 0.564332 0.630997
vt 0.564332 0.531120
vt 0.564332 0.630643
vt 0.568238 0.897554
vt 0.568238 0.645954
vt 0.568238 0.878647
vt 0.568238 0.878647
vt 0.564332 0.640688
vt 0.564332 0.630163
vt 0.564332 0.530540
vt 0.564332 0.530544
vt 0.564332 0.630159
vt 0.568238 0.639450
vt 0.568238 0.639431
vt 0.568238 0.879266
vt 0.568238 0.879241
vt 0.568238 0.638104
vt 0.568238 0.878220
vt 0.568238 0.877980
vt 0.568238 0.638235
vt 0.568238 0.879374
vt 0.568238 0.879350
vt 0.568238 0.639558
vt 0.568238 0.639532
vt 0.564332 0.640688
vt 0.564332 0.531776
vt 0.564332 0.631400
vt 0.564332 0.631398
vt 0.564332 0.531779
vt 0.568238 0.683679
vt 0.568238 0.683684
vt 0.568238 0.620033
vt 0.568238 0.620033
vt 0.568238 0.969285
vt 0.568238 0.638249
vt 0.568238 0.877988
vt 0.568238 0.878004
vt 0.568238 0.620033
vt 0.568238 0.821454
vt 0.568238 0.821454
vt 0.568238 0.673623
vt 0.568238 0.673623
vt 0.568238 0.821454
vt 0.568238 0.673623
vt 0.564332 0.531119
vt 0.564332 0.630851
vt 0.564332 0.630640
vt 0.568238 0.821454
vt 0.568238 0.682974
vt 0.568238 0.747539
vt 0.568238 0.683001
vt 0.568238 0.673623
vt 0.568238 0.960888
vt 0.568238 0.960592
vt 0.568238 0.960144
vt 0.568238 0.960065
vt 0.310341 0.249303
vt 0.310341 0.399361
vt 0.310341 0.398295
vt 0.310341 0.243745
vt 0.310341 0.237788
vt 0.310341 0.261257
vt 0.310341 0.222810
vt 0.310341 0.199499
vt 0.310341 0.205862
vt 0.310341 0.194663
vt 0.310341 0.184909
vt 0.310341 0.214431
vt 0.310341 0.402163
vt 0.310341 0.264145
vt 0.310341 0.402855
vt 0.310341 0.234056
vt 0.310341 0.242683
vt 0.310341 0.230767
vt 0.310341 0.218963
vt 0.310341 0.231620
vt 0.310341 0.214489
vt 0.310341 0.194323
vt 0.310341 0.201751
vt 0.310341 0.219667
vt 0.310341 0.247128
vt 0.310341 0.258695
vt 0.310341 0.223864
vt 0.310341 0.222712
vt 0.310341 0.399046
vt 0.310341 0.401897
vt 0.310341 0.278902
vt 0.310341 0.278594
vt 0.310341 0.456298
vt 0.310341 0.454825
vt 0.310341 0.443571
vt 0.310341 0.277189
vt 0.310341 0.074582
vt 0.310341 0.134516
vt 0.310341 0.136815
vt 0.310341 0.138004
vt 0.310341 0.137198
vt 0.310341 0.273826
vt 0.310341 0.428871
vt 0.310341 0.274564
vt 0.310341 0.138156
vt 0.310341 0.136743
vt 0.310341 0.134875
vt 0.310341 0.273773
vt 0.310341 0.424366
vt 0.310341 0.133707
vt 0.310341 0.277048
vt 0.310341 0.448256
vt 0.310341 0.430858
vt 0.310341 0.275062
vt 0.310341 0.278593
vt 0.310341 0.204706
vt 0.310341 0.207137
vt 0.310341 0.208691
vt 0.310341 0.209131
vt 0.310341 0.204375
vt 0.310341 0.206966
vt 0.310341 0.203267
vt 0.310341 0.203302
s 1
usemtl LPNPTrees
f 100/1/1 104/2/1 112/2/1 118/1/1
f 22/3/2 15/4/2 138/5/3 131/5/4
f 93/6/5 89/7/6 85/8/7 91/9/8
f 23/10/9 20/11/9 132/12/10 119/13/11
f 63/14/12 58/15/12 55/16/12 60/17/12
f 65/18/1 68/18/1 3/18/1
f 40/19/13 33/20/13 126/5/14 143/5/15
f 74/18/1 79/18/1 3/18/1
f 124/21/16 135/21/17 27/22/18 30/23/18
f 150/5/19 137/5/20 14/24/21 9/25/21
f 61/26/22 2/26/22 71/26/22
f 1/27/23 37/27/24 31/27/25
f 123/28/26 29/29/27 36/30/27 130/21/28
f 73/31/29 77/32/30 42/32/31 80/33/31
f 4/26/1 43/34/1 76/34/1
f 113/35/32 81/36/32 116/37/32 111/38/32
f 13/39/33 19/40/33 142/21/34 153/21/35
f 2/26/22 4/26/22 76/41/22 71/26/22
f 84/42/22 82/43/22 115/42/22 109/44/22
f 50/18/1 3/18/1 45/18/1
f 50/18/1 59/18/1 65/18/1 3/18/1
f 48/45/36 47/46/37 51/47/38
f 3/18/1 68/18/1 74/18/1
f 148/21/39 129/21/40 35/48/41 6/49/41
f 66/50/42 64/51/42 62/52/42 70/53/42
f 3/18/1 79/18/1 45/18/1
f 48/45/36 44/54/43 47/55/37
f 109/44/22 102/43/22 92/42/22 84/56/22
f 98/57/44 97/58/44 101/59/44
f 2/26/22 61/26/22 54/60/22 52/60/22
f 56/61/45 57/62/45 49/63/45 53/64/45
f 87/1/1 100/1/1 118/1/1
f 105/65/46 99/66/47 103/67/48 108/68/46
f 97/58/49 98/57/49 94/69/49 90/70/49
f 85/71/7 89/72/6 86/7/50
f 107/73/51 114/74/51 110/75/51 106/76/51
f 26/27/52 1/27/23 31/27/25
f 46/26/22 43/77/22 4/26/22 2/26/22
f 92/42/22 102/43/22 96/42/22
f 46/26/22 2/26/22 52/26/22
f 67/78/53 69/79/53 75/80/54 72/81/55
f 38/82/56 144/5/57 149/5/58 8/83/56
f 95/84/1 87/85/1 88/2/1
f 12/27/59 1/27/23 26/27/52 17/86/60
f 12/27/59 7/27/61 37/27/24 1/27/23
f 117/87/62 83/88/62 85/89/62 86/7/62
f 87/2/1 95/90/1 100/2/1
f 120/13/63 122/91/64 127/92/65 125/5/66
f 10/93/67 16/93/68 39/94/69
f 146/95/70 147/21/71 154/21/72 151/95/73
f 21/96/74 25/93/75 39/93/69 16/93/68
f 144/5/57 146/95/70 151/95/73 149/5/58
f 153/21/35 142/21/34 139/91/76 152/95/77
f 78/97/78 41/98/78 47/99/78 44/54/78
f 145/92/79 128/95/80 129/21/40 148/21/39
f 131/5/4 138/5/3 140/91/81 133/100/81
f 24/101/82 120/102/63 125/5/66 32/103/82
f 122/91/64 123/28/26 130/21/28 127/95/65
f 143/5/15 126/5/14 128/95/80 145/92/79
f 39/93/69 25/93/75 34/104/83
f 119/13/11 132/12/10 134/100/84 121/91/85
f 121/91/85 134/100/84 135/21/17 124/21/16
f 136/21/86 141/21/87 18/105/88 28/106/88
f 133/100/89 140/91/89 141/21/87 136/21/86
f 152/95/77 139/91/76 137/5/20 150/5/19
f 5/107/90 6/49/90 7/27/90
f 8/83/91 9/25/92 10/93/93
f 11/108/94 12/27/95 13/39/96
f 14/24/97 15/4/98 16/93/99
f 17/86/100 18/105/100 19/40/100
f 20/11/101 21/96/101 22/3/101
f 23/10/102 24/101/103 25/93/104
f 26/27/105 27/22/106 28/106/107
f 29/29/108 30/23/108 31/27/108
f 32/103/109 33/20/109 34/104/109
f 35/48/110 36/30/110 37/27/110
f 38/82/111 39/93/111 40/19/111
f 41/98/112 42/32/112 43/77/112
f 48/45/113 49/63/114 50/18/115
f 51/47/116 52/60/116 53/64/116
f 54/60/117 55/16/117 56/61/117
f 57/62/118 58/15/118 59/18/118
f 60/17/119 61/26/120 62/52/121
f 63/14/122 64/51/122 65/18/122
f 66/50/123 67/78/124 68/18/125
f 69/79/126 70/53/127 71/26/128
f 72/81/129 73/31/130 74/18/131
f 75/80/54 76/34/132 77/32/30
f 78/97/133 79/18/134 80/33/135
f 81/36/136 82/43/137 83/88/138
f 90/70/139 91/9/140 92/42/141
f 93/6/5 94/69/142 95/84/143
f 98/57/144 99/66/145 100/2/146
f 101/59/147 102/43/148 103/67/149
f 104/2/150 105/65/150 106/76/150
f 107/73/151 108/68/151 109/44/151
f 110/75/152 111/38/152 112/2/152
f 113/35/153 114/74/153 115/42/153
f 116/37/154 117/87/154 118/1/154
f 11/108/155 5/107/155 7/27/155 12/27/155
f 25/93/156 21/96/156 20/11/156 23/10/156
f 124/21/157 30/23/158 29/29/158 123/28/159
f 130/21/160 36/30/161 35/48/161 129/21/162
f 38/82/163 8/83/163 10/93/163 39/94/163
f 28/106/164 18/105/164 17/86/164 26/27/164
f 136/21/165 28/106/107 27/22/106 135/21/166
f 30/23/167 27/22/167 26/27/167 31/27/167
f 142/21/168 19/40/169 18/105/169 141/21/170
f 16/93/171 10/93/171 9/25/171 14/24/171
f 34/104/172 25/93/172 24/101/172 32/103/172
f 36/30/173 29/29/173 31/27/173 37/27/173
f 6/49/174 35/48/174 37/27/174 7/27/174
f 47/99/175 41/98/176 43/77/176 46/26/177
f 46/26/177 52/26/178 51/47/178 47/46/175
f 56/61/179 53/64/179 52/60/179 54/60/179
f 57/62/180 56/61/180 55/16/180 58/15/180
f 148/21/181 6/49/182 5/107/182 147/21/183
f 63/14/184 60/17/119 62/52/121 64/51/184
f 68/18/125 65/18/185 64/51/185 66/50/123
f 66/50/186 70/53/127 69/79/126 67/78/186
f 78/97/187 44/54/187 45/18/187 79/18/187
f 80/33/135 42/32/188 41/98/188 78/97/133
f 50/18/115 45/18/189 44/54/189 48/45/113
f 70/53/190 62/52/190 61/26/190 71/26/190
f 67/78/124 72/81/129 74/18/131 68/18/125
f 75/80/191 69/79/191 71/26/191 76/41/191
f 79/18/192 74/18/131 73/31/130 80/33/192
f 42/32/193 77/32/193 76/34/193 43/34/193
f 116/37/194 81/36/136 83/88/138 117/87/194
f 97/58/195 90/70/139 92/42/141 96/42/195
f 95/84/196 88/2/197 89/7/198 93/6/196
f 94/69/199 98/57/199 100/2/199 95/90/199
f 98/57/200 101/59/200 103/67/48 99/66/47
f 110/75/201 114/74/201 113/35/201 111/38/201
f 117/87/202 86/7/202 87/1/202 118/1/202
f 86/7/203 89/72/198 88/2/197 87/85/203
f 114/74/204 107/73/204 109/44/204 115/42/204
f 82/43/205 84/42/206 85/89/207 83/88/205
f 21/96/208 16/93/208 15/4/208 22/3/208
f 39/93/209 34/104/209 33/20/209 40/19/209
f 58/15/210 63/14/210 65/18/210 59/18/210
f 154/21/211 11/108/94 13/39/96 153/21/212
f 77/32/30 73/31/29 72/81/55 75/80/54
f 108/68/213 103/67/149 102/43/148 109/44/213
f 99/66/145 105/65/214 104/2/214 100/1/146
f 90/70/215 94/69/142 93/6/5 91/9/8
f 84/56/206 92/42/216 91/9/216 85/8/207
f 49/63/114 57/62/217 59/18/217 50/18/115
f 53/64/218 49/63/218 48/45/218 51/47/218
f 105/65/219 108/68/219 107/73/219 106/76/219
f 12/27/220 17/86/220 19/40/220 13/39/220
f 81/36/221 113/35/221 115/42/221 82/43/221
f 60/17/222 55/16/222 54/60/222 61/26/222
f 118/1/223 112/2/223 111/38/223 116/37/223
f 96/42/224 102/43/148 101/59/147 97/58/224
f 112/2/225 104/2/225 106/76/225 110/75/225
f 23/10/102 119/13/226 120/102/227 24/101/103
f 119/13/226 121/91/228 122/91/229 120/13/227
f 121/91/228 124/21/157 123/28/159 122/91/229
f 32/103/230 125/5/231 126/5/232 33/20/230
f 125/5/231 127/92/233 128/95/234 126/5/232
f 127/95/233 130/21/160 129/21/162 128/95/234
f 22/3/235 131/5/236 132/12/237 20/11/235
f 131/5/236 133/100/238 134/100/239 132/12/237
f 133/100/238 136/21/165 135/21/166 134/100/239
f 14/24/97 137/5/240 138/5/241 15/4/98
f 137/5/240 139/91/242 140/91/243 138/5/241
f 139/91/242 142/21/168 141/21/170 140/91/243
f 40/19/244 143/5/245 144/5/246 38/82/244
f 143/5/245 145/92/247 146/95/248 144/5/246
f 145/92/247 148/21/181 147/21/183 146/95/248
f 8/83/91 149/5/249 150/5/250 9/25/92
f 149/5/249 151/95/251 152/95/252 150/5/250
f 151/95/251 154/21/211 153/21/212 152/95/252
f 147/21/71 5/107/253 11/108/253 154/21/72
f 162/109/254 157/110/254 156/111/254 165/112/254
f 190/113/255 161/114/256 162/109/257 188/115/258
f 197/116/259 169/117/260 168/118/261 199/119/259
f 188/115/262 162/109/263 165/112/263 193/120/264
f 159/121/265 161/114/265 164/122/265 160/123/265
f 191/124/266 192/125/267 171/126/268 170/127/268
f 195/128/269 196/129/269 170/127/269 171/126/269
f 196/129/270 198/130/270 167/131/271 170/127/272
f 191/124/273 189/132/274 166/133/275 163/134/276
f 195/128/277 171/126/277 172/135/277 194/136/277
f 190/113/278 172/135/279 171/126/279 192/125/280
f 163/134/276 166/133/275 155/137/281 158/138/281
f 189/132/282 193/120/283 165/112/284 166/133/284
f 158/138/285 160/123/285 164/122/285 163/134/285
f 156/111/286 155/137/286 166/133/286 165/112/286
f 161/114/256 159/121/287 157/110/287 162/109/257
f 215/139/288 207/140/289 175/141/290 185/142/290
f 215/139/291 185/142/292 176/143/292 210/144/293
f 182/145/294 178/145/294 206/146/295 216/147/296
f 187/145/297 213/148/298 200/149/299 180/145/297
f 221/150/300 174/151/301 204/152/302
f 177/145/303 182/145/303 216/147/304 209/153/305
f 184/145/306 222/154/307 203/155/308 179/145/306
f 174/151/309 221/150/310 201/156/311 173/157/309
f 219/158/312 183/145/313 179/145/313 203/155/314
f 218/159/315 204/152/316 174/151/317 186/160/317
f 210/144/318 176/143/319 181/161/319 212/162/320
f 187/145/321 177/145/321 209/153/322 213/148/323
f 178/145/324 183/145/324 219/158/325 206/146/326
f 207/163/327 218/159/328 186/160/329 175/141/329
f 222/154/330 184/145/331 180/145/331 200/149/332
f 167/131/333 168/118/334 193/120/283 189/132/282
f 161/114/335 190/113/278 192/125/280 164/122/335
f 170/127/272 167/131/271 189/132/274 191/124/273
f 163/134/336 164/122/336 192/125/267 191/124/266
f 169/117/260 188/115/262 193/120/264 168/118/261
f 172/135/337 190/113/255 188/115/258 169/117/338
f 194/136/339 172/135/337 169/117/338 197/116/339
f 167/131/333 198/130/340 199/119/340 168/118/334
f 210/144/318 212/162/320 214/164/341 211/165/342
f 211/165/342 214/164/341 213/148/323 209/153/322
f 216/147/296 206/146/295 208/166/343 217/167/344
f 217/167/344 208/166/343 207/140/289 215/139/288
f 215/139/291 210/144/293 211/165/345 217/167/346
f 217/167/346 211/165/345 209/153/305 216/147/304
f 219/158/312 203/155/314 205/168/347 220/169/348
f 220/169/348 205/168/347 204/152/316 218/159/315
f 206/146/326 219/158/325 220/169/349 208/166/350
f 208/166/350 220/169/349 218/159/328 207/163/327
f 222/154/330 200/149/332 202/170/351 223/171/352
f 223/171/352 202/170/351 201/156/311 221/150/310
f 212/162/353 201/156/354 202/170/355 214/164/356
f 214/164/356 202/170/355 200/149/299 213/148/298
f 221/150/300 204/152/302 205/168/357 223/171/358
f 223/171/358 205/168/357 203/155/308 222/154/307
f 212/162/353 181/161/359 173/157/359 201/156/354
