# Blender 5.0.0
# www.blender.org
mtllib rock trees SMALL THICK.mtl
o EA04_Bush_Stoolids_01a
v 4.283502 1.972827 -20.964792
v 4.429384 5.726942 -20.420567
v 4.866479 6.931318 -20.380966
v 4.602084 2.147112 -19.992840
v 5.708149 2.428963 -19.564793
v 5.522912 5.842801 -19.409033
v 5.519555 6.931314 -19.299522
v 6.294844 2.488090 -19.553370
v 6.588483 6.931315 -19.494041
v 6.503526 2.452387 -20.158422
v 5.915087 2.206481 -21.184992
v 6.929881 2.386321 -20.453775
v 7.276599 6.931318 -20.724438
v 6.769327 6.931316 -22.026453
v 6.746630 2.237067 -21.150745
v 6.025459 1.955751 -22.119377
v 6.012515 6.931317 -22.274803
v 5.191388 1.887161 -22.274111
v 4.673552 6.931314 -21.376421
v 5.227588 2.015423 -21.685905
v 4.551697 2.263902 -21.576225
v 4.206975 4.216568 -21.249111
v 3.767574 2.331579 -21.287821
v 3.251192 4.232597 -20.652075
v 3.450409 2.441022 -20.372446
v 3.328980 2.463982 -19.856485
v 3.418325 4.232597 -19.651760
v 3.763543 2.450118 -19.549618
v 4.779028 2.354631 -20.250769
v 4.211721 2.424465 -19.401060
v 4.718942 3.979331 -19.127922
v 5.332076 4.145225 -19.502998
v 5.373358 4.232597 -19.854458
v 4.775321 2.366510 -19.570974
v 5.544993 2.257272 -20.187920
v 5.671492 4.128242 -20.203018
v 5.387959 4.232597 -20.594028
v 5.646982 2.230637 -20.873291
v 4.703827 4.232596 -20.889015
v 5.167879 2.280443 -20.826588
v 4.899087 4.138636 -21.269827
v 7.311407 1.231187 -21.728500
v 6.320277 1.314039 -21.981184
v 6.816461 3.524156 -21.473707
v 6.088862 3.524156 -21.703808
v 5.365587 1.448027 -21.277500
v 5.176805 3.070904 -21.648134
v 5.242931 3.524156 -21.578981
v 5.041144 1.476134 -20.788544
v 4.833523 3.641352 -20.572588
v 5.099210 3.524156 -20.725504
v 5.439751 1.459161 -20.287794
v 6.621766 1.342261 -20.233526
v 5.460217 1.427754 -19.769535
v 5.782609 3.524156 -19.142260
v 6.661308 3.524156 -19.095583
v 6.146686 1.356802 -19.550200
v 7.351030 1.223069 -19.639025
v 7.273599 3.524156 -19.410061
v 7.474165 3.524156 -20.157661
v 7.929141 1.190463 -20.259836
v 7.344712 3.524156 -20.905848
v 7.413355 1.251437 -20.544901
v 5.238585 -0.208336 -20.694534
v 5.138100 -0.208336 -20.764894
v 5.129599 -0.208336 -20.937647
v 5.431664 -0.208336 -20.858639
v 5.336890 -0.208336 -21.106503
v 5.424293 -0.208336 -21.032669
v 4.866440 0.722274 -20.752951
v 4.656805 0.643843 -20.597300
v 4.917683 0.701031 -20.543230
v 4.929819 0.724993 -20.704922
v 4.634415 0.609646 -20.427660
v 4.736187 0.628551 -20.377449
v 4.800924 1.635216 -20.449148
v 4.705325 1.664678 -20.499912
v 4.716385 1.603772 -20.659937
v 4.896398 1.544489 -20.542271
v 4.902816 1.471794 -20.696861
v 4.835957 1.507416 -20.743299
v 5.145538 2.374860 -20.984032
v 5.182792 2.227556 -21.000109
v 5.228938 2.158520 -20.940351
v 5.260850 2.294403 -20.817131
v 5.168984 2.503902 -20.854885
v 5.251739 2.428795 -20.781837
v 6.853804 -0.208336 -20.376873
v 6.890446 -0.208336 -20.294649
v 6.805101 -0.208336 -20.186153
v 6.617221 -0.208336 -20.358734
v 6.556335 -0.208336 -20.171112
v 6.531538 -0.208336 -20.249437
v 6.776825 0.537155 -20.188019
v 6.981126 0.552220 -20.192675
v 6.840676 0.543527 -20.325396
v 6.764794 0.532185 -20.235422
v 7.070998 0.559021 -20.283165
v 7.030478 0.557956 -20.351242
v 6.676922 1.274324 -20.334202
v 6.700822 1.306586 -20.268677
v 6.647406 1.237014 -20.179413
v 6.613879 1.176856 -20.316256
v 6.570766 1.100312 -20.228622
v 6.575476 1.131171 -20.180386
v 6.030978 1.655075 -20.165319
v 6.049862 1.543482 -20.172728
v 6.071692 1.497019 -20.220078
v 6.061666 1.604203 -20.304527
v 6.032224 1.761572 -20.250618
v 6.037398 1.702337 -20.325104
v 5.549021 -0.208336 -20.288858
v 5.516364 -0.208336 -20.372744
v 5.606811 -0.208336 -20.477024
v 5.786201 -0.208336 -20.295633
v 5.856012 -0.208336 -20.480122
v 5.877026 -0.208336 -20.400698
v 5.859999 0.519389 -20.473804
v 5.655709 0.534454 -20.478949
v 5.789635 0.525761 -20.339647
v 5.869743 0.514420 -20.425879
v 5.561603 0.541255 -20.392872
v 5.598813 0.540190 -20.322929
v 5.987485 1.526941 -20.473804
v 5.783195 1.542006 -20.478949
v 5.917121 1.533314 -20.339647
v 5.997230 1.521972 -20.425879
v 5.689089 1.548807 -20.392870
v 5.726299 1.547742 -20.322929
v 5.829111 0.926761 -20.322929
v 5.791900 0.927826 -20.392872
v 6.100041 0.900991 -20.425879
v 6.019933 0.912333 -20.339647
v 5.886007 0.921025 -20.478949
v 6.090297 0.905960 -20.473804
v 4.767971 1.305583 -20.450590
v 4.714009 1.282308 -20.491737
v 4.709444 1.280339 -20.592770
v 4.871657 1.350303 -20.546564
v 4.820762 1.328352 -20.691523
v 4.867698 1.348596 -20.648342
v 4.352578 1.719136 -20.484755
v 4.258167 1.628462 -20.393724
v 4.385016 1.719597 -20.362103
v 4.385983 1.735276 -20.456665
v 4.254064 1.604913 -20.294514
v 4.304338 1.638637 -20.265148
v 4.105941 2.194224 -20.307079
v 4.047780 2.187903 -20.336769
v 4.067825 2.157757 -20.430355
v 4.178226 2.167615 -20.361540
v 4.198510 2.130064 -20.451950
v 4.154356 2.133707 -20.479109
v 4.119688 2.671241 -20.619898
v 4.173813 2.600765 -20.629299
v 4.214583 2.574380 -20.594353
v 4.200248 2.654742 -20.522287
v 4.102391 2.745969 -20.544369
v 4.164227 2.724803 -20.501648
vn -0.9820 0.0111 -0.1884
vn -0.7721 -0.0203 0.6352
vn -0.9341 0.1348 0.3305
vn 0.9519 -0.1195 0.2823
vn 0.8640 -0.0470 0.5013
vn 0.7612 -0.1093 0.6392
vn -0.8679 0.2174 0.4467
vn -0.7116 0.0579 0.7002
vn -0.8547 -0.0546 0.5162
vn 0.1527 -0.9783 0.1404
vn 0.0831 -0.9814 0.1731
vn 0.0981 -0.9909 0.0923
vn 0.8982 -0.0998 -0.4282
vn 0.9964 -0.0620 0.0583
vn 0.0919 -0.9743 0.2057
vn 0.0267 -0.9747 0.2218
vn 0.0147 -0.9755 0.2195
vn 0.4805 -0.0677 -0.8744
vn -0.3989 0.0043 -0.9170
vn -0.0986 0.0280 -0.9947
vn 0.0489 -0.9673 0.2489
vn 0.1347 -0.9706 0.1996
vn 0.0937 -0.9739 0.2066
vn 0.1633 -0.9764 0.1416
vn -0.0000 1.0000 -0.0000
vn 0.1136 -0.0414 0.9927
vn -0.0148 -0.0464 0.9988
vn 0.0045 -0.0419 0.9991
vn -0.8802 0.1710 -0.4428
vn 0.1714 -0.9752 0.1403
vn 0.9420 -0.0666 0.3288
vn 0.1782 -0.0980 0.9791
vn 0.1414 -0.0613 0.9881
vn 0.6960 -0.0606 -0.7155
vn 0.1116 0.0858 -0.9900
vn -0.6389 0.0197 -0.7690
vn -0.2956 0.1481 -0.9438
vn -0.0885 -0.1247 0.9882
vn -0.7885 -0.0051 0.6150
vn -0.4315 -0.0319 0.9016
vn -0.0676 -0.9959 0.0605
vn -0.0655 -0.9972 0.0355
vn -0.0542 -0.9980 0.0317
vn 0.4525 -0.2311 0.8613
vn 0.1511 -0.1568 0.9760
vn -0.0952 -0.9944 0.0464
vn -0.1070 -0.9941 0.0168
vn -0.0767 -0.9966 0.0307
vn -0.0136 0.9707 0.2397
vn 0.3783 0.9245 0.0468
vn 0.2024 0.9627 0.1796
vn 0.8861 -0.1278 0.4456
vn 0.8957 0.0322 -0.4435
vn 0.9981 0.0540 -0.0286
vn -0.1206 -0.9923 0.0281
vn -0.0947 -0.9931 0.0692
vn -0.0986 -0.9939 0.0489
vn 0.0874 0.9956 -0.0330
vn 0.0946 0.9767 -0.1925
vn 0.0411 0.9971 -0.0633
vn -0.0656 -0.9945 0.0814
vn -0.9253 0.0317 -0.3778
vn -0.9535 -0.1471 -0.2632
vn -0.9237 -0.0907 0.3722
vn -0.0650 -0.9942 0.0855
vn -0.0012 1.0000 -0.0073
vn 0.0223 0.9969 -0.0752
vn 0.7292 -0.1485 0.6680
vn -0.0177 0.9880 0.1535
vn 0.0736 0.9944 0.0764
vn 0.4306 0.1614 -0.8880
vn 0.8015 0.1831 -0.5693
vn 0.0032 0.0924 -0.9957
vn 0.0770 0.1413 -0.9870
vn 0.5749 0.0583 -0.8161
vn -0.7606 -0.2282 0.6078
vn -0.8604 -0.0871 0.5021
vn -0.9325 -0.2218 0.2851
vn -0.6554 0.0404 -0.7542
vn -0.1439 0.1697 -0.9749
vn -0.0971 -0.9949 0.0260
vn -0.0921 -0.9957 -0.0113
vn -0.0625 -0.9979 0.0159
vn 0.3664 0.9275 -0.0743
vn 0.0285 0.9995 -0.0123
vn 0.2380 0.9712 -0.0075
vn -0.1216 -0.2212 0.9676
vn -0.4623 -0.1435 0.8750
vn -0.1082 -0.9940 -0.0161
vn -0.0977 -0.9941 -0.0468
vn -0.0936 -0.9943 -0.0510
vn 0.4858 -0.1175 0.8661
vn 0.9885 0.0851 0.1252
vn 0.7279 0.0242 0.6853
vn -0.1153 -0.9923 -0.0451
vn -0.1172 -0.9931 0.0034
vn -0.1089 -0.9939 -0.0155
vn -0.1002 -0.9945 0.0300
vn -0.7179 -0.2333 -0.6559
vn -0.8789 -0.1662 -0.4471
vn 0.6211 0.0909 -0.7784
vn -0.1020 -0.9942 0.0337
vn 0.0507 0.9987 0.0085
vn -0.7774 -0.1358 0.6142
vn -0.9013 0.1908 -0.3889
vn -0.9519 0.0049 -0.3064
vn 0.1716 -0.1542 0.9730
vn 0.9159 0.1237 -0.3818
vn 0.9549 0.1722 -0.2419
vn 0.9806 0.1889 0.0518
vn 0.2591 0.3228 -0.9103
vn -0.5496 -0.0440 -0.8342
vn -0.8674 0.1313 -0.4800
vn -0.5468 -0.0470 -0.8360
vn -0.5810 -0.0148 -0.8138
vn -0.8784 -0.1352 -0.4583
vn 0.8557 -0.1044 0.5069
vn 0.6618 0.0601 0.7473
vn 0.8471 0.1486 0.5103
vn 0.8104 -0.2091 0.5472
vn 0.6858 -0.0333 0.7270
vn -0.5959 -0.0118 -0.8030
vn -0.6269 -0.0227 -0.7788
vn -0.9633 -0.2094 -0.1676
vn -0.9544 0.2503 -0.1625
vn -0.3776 0.2909 0.8791
vn -0.3963 -0.2269 0.8896
vn -0.4050 -0.2224 0.8869
vn 0.5726 0.2742 -0.7727
vn 0.5000 -0.1705 -0.8491
vn 0.8781 0.3117 -0.3630
vn 0.3577 -0.4616 -0.8118
vn 0.4479 -0.2726 -0.8515
vn 0.3589 -0.4621 -0.8110
vn 0.9092 -0.3744 0.1821
vn 0.9839 -0.1408 0.1104
vn -0.8896 0.3945 -0.2302
vn -0.8896 0.3935 -0.2317
vn -0.3650 0.3204 0.8741
vn -0.2736 0.4990 0.8222
vn -0.2733 0.4989 0.8225
vn 0.8817 0.3819 0.2770
vn 0.5489 0.5207 -0.6539
vn 0.7536 0.5339 -0.3834
vn -0.4692 -0.5465 0.6937
vn -0.8689 -0.4947 0.0201
vn 0.6447 0.1015 0.7576
vn -0.3466 -0.0615 0.9360
vn 0.7253 -0.1285 0.6764
vn -0.6314 -0.0247 -0.7751
vn -0.4799 -0.5477 0.6853
vn -0.8663 -0.4977 0.0426
vn -0.0226 -0.0658 0.9976
vn 0.3504 0.2709 0.8966
vn -0.0250 -0.0704 0.9972
vn 0.0082 -0.0133 0.9999
vn 0.4590 0.0457 0.8873
vn -0.3508 -0.2494 -0.9026
vn -0.1388 0.0160 -0.9902
vn -0.4230 0.0083 -0.9061
vn -0.2643 -0.3450 -0.9006
vn -0.1389 -0.0987 -0.9854
vn 0.0261 -0.0006 0.9997
vn 0.0548 0.0046 0.9985
vn 0.7070 0.0625 0.7045
vn 0.5428 0.4722 0.6946
vn 0.6534 0.5572 -0.5124
vn 0.8540 0.1022 -0.5102
vn 0.8551 0.1122 -0.5062
vn -0.9676 -0.0351 0.2500
vn -0.7959 -0.4721 0.3791
vn -0.9686 0.0033 0.2484
vn -0.5491 -0.7080 0.4441
vn -0.6975 -0.5718 0.4320
vn -0.5496 -0.7088 0.4422
vn -0.4590 -0.5735 -0.6785
vn -0.6414 -0.3903 -0.6606
vn 0.4066 0.5696 0.7143
vn 0.4061 0.5684 0.7156
vn 0.6276 0.5828 -0.5163
vn 0.4673 0.7078 -0.5298
vn 0.4672 0.7075 -0.5302
vn -0.5106 0.1880 -0.8390
vn -0.7657 0.0162 -0.6430
vn -0.9155 0.2826 0.2864
vn -0.9145 0.2826 0.2895
vn 0.8934 -0.1932 -0.4055
vn 0.7678 -0.1742 0.6166
vn -0.0850 0.0666 -0.9942
vn -0.1766 -0.2436 -0.9537
vn 0.0604 0.0048 0.9982
vn -0.7618 0.2512 -0.5972
vn 0.8962 -0.1933 -0.3994
vn 0.7740 -0.1739 0.6088
vn 0.3756 -0.0789 0.9234
vn 0.0677 0.0089 0.9977
vn 0.0564 0.0505 0.9971
vn 0.4279 0.0456 0.9027
vn 0.0154 -0.0067 -0.9999
vn 0.0046 0.0028 -1.0000
vn -0.4009 0.0211 -0.9159
vn -0.4024 0.1316 -0.9060
vn 0.0858 -0.0194 0.9961
vn 0.4880 -0.0955 0.8676
vn 0.3932 0.0651 0.9171
vn 0.0884 0.0146 0.9960
vn 0.9573 -0.1935 -0.2147
vn 0.9626 -0.1671 -0.2130
vn 0.9703 0.1607 -0.1806
vn 0.0249 -0.0042 -0.9997
vn -0.2697 0.0459 -0.9619
vn -0.4011 -0.0664 -0.9136
vn 0.0255 0.0042 -0.9997
vn -0.8671 0.1809 0.4641
vn -0.8716 0.1519 0.4660
vn -0.8744 -0.1448 0.4630
vn 0.7176 -0.1313 0.6839
vn 0.7351 0.1217 0.6669
vn -0.6625 0.1418 -0.7355
vn -0.6751 -0.1118 -0.7292
vn -0.7169 0.0349 -0.6963
vn -0.6818 0.1826 -0.7084
vn -0.9079 0.0725 0.4129
vn -0.8579 0.2865 0.4266
vn -0.8669 0.2589 0.4260
vn 0.7462 0.0335 0.6648
vn 0.7120 -0.1927 0.6752
vn 0.9391 -0.2491 -0.2367
vn 0.9348 -0.2652 -0.2363
vn -0.4873 -0.2581 -0.8342
vn -0.8485 -0.2230 -0.4800
vn -0.4834 -0.2597 -0.8360
vn -0.5276 -0.2436 -0.8138
vn -0.7531 -0.4720 -0.4583
vn 0.8271 0.2430 0.5069
vn 0.5839 0.3173 0.7473
vn 0.7190 0.4719 0.5103
vn 0.8270 0.1289 0.5472
vn 0.6429 0.2410 0.7270
vn -0.5425 -0.2468 -0.8030
vn -0.5666 -0.2691 -0.7788
vn -0.8016 -0.5738 -0.1676
vn -0.9755 -0.1482 -0.1625
vn -0.4619 0.1176 0.8791
vn -0.2740 -0.3653 0.8896
vn -0.2838 -0.3646 0.8869
vn 0.4171 0.4786 -0.7727
vn 0.5266 0.0415 -0.8491
vn 0.6829 0.6340 -0.3630
vn 0.5112 -0.2822 -0.8118
vn 0.5192 -0.0729 -0.8515
vn 0.5126 -0.2821 -0.8110
vn 0.9831 0.0163 0.1821
vn 0.9592 0.2603 0.1104
vn -0.9731 0.0099 -0.2302
vn -0.9727 0.0090 -0.2317
vn -0.4620 0.1496 0.8741
vn -0.4489 0.3499 0.8222
vn -0.4485 0.3498 0.8225
vn 0.6584 0.6998 0.2770
vn 0.2978 0.6955 -0.6539
vn 0.4805 0.7887 -0.3834
vn -0.2144 -0.6876 0.6937
vn -0.6019 -0.7983 0.0201
vn 0.5518 0.3485 0.7577
vn 0.7168 0.1693 0.6764
vn -0.5700 -0.2727 -0.7751
vn -0.2237 -0.6930 0.6853
vn -0.5984 -0.8001 0.0426
vn 0.9720 -0.0008 -0.2348
vt 0.177951 0.131208
vt 0.177951 0.142646
vt 0.177951 0.377584
vt 0.177951 0.158345
vt 0.177951 0.456625
vt 0.177951 0.162681
vt 0.177951 0.456625
vt 0.177951 0.385188
vt 0.177951 0.161144
vt 0.177951 0.165024
vt 0.177951 0.148550
vt 0.177951 0.146543
vt 0.177951 0.130088
vt 0.177951 0.125586
vt 0.177951 0.134004
vt 0.177951 0.456625
vt 0.177951 0.150311
vt 0.177951 0.154753
vt 0.177951 0.278461
vt 0.177951 0.160848
vt 0.177951 0.279513
vt 0.177951 0.162532
vt 0.177951 0.161935
vt 0.177951 0.163442
vt 0.177951 0.157045
vt 0.177951 0.262891
vt 0.177951 0.156265
vt 0.177951 0.273779
vt 0.177951 0.272664
vt 0.177951 0.149876
vt 0.177951 0.148128
vt 0.177951 0.151396
vt 0.177951 0.273346
vt 0.177951 0.087973
vt 0.177951 0.233019
vt 0.177951 0.095436
vt 0.177951 0.240711
vt 0.177951 0.097497
vt 0.177951 0.203273
vt 0.177951 0.096766
vt 0.177951 0.098611
vt 0.177951 0.090780
vt 0.177951 0.089825
vt 0.177951 0.082003
vt 0.177951 0.079863
vt 0.177951 0.083865
vt 0.177951 0.082536
vt 0.936841 0.698625
vt 0.936744 0.698891
vt 0.936749 0.698877
vt 0.936849 0.698604
vt 0.936737 0.698910
vt 0.940412 0.699057
vt 0.940428 0.699391
vt 0.940411 0.699023
vt 0.940413 0.699081
vt 0.940427 0.699369
vt 0.936861 0.698572
vt 0.936733 0.698922
vt 0.938562 0.699285
vt 0.938563 0.699285
vt 0.938654 0.698672
vt 0.938653 0.698672
vt 0.938654 0.698672
vt 0.938563 0.699285
vt 0.940426 0.699352
vt 0.940410 0.699008
vt 0.936866 0.698559
vt 0.938650 0.698672
vt 0.938561 0.699285
vt 0.940429 0.699404
s 1
usemtl LPNPTrees
f 1/1/1 4/2/2 2/3/3
f 12/4/4 9/5/5 10/6/6
f 3/7/7 6/8/8 7/5/9
f 5/9/10 10/6/11 8/10/12
f 12/4/4 15/11/13 13/7/14
f 11/12/15 15/11/16 12/4/17
f 16/13/18 18/14/19 17/7/20
f 16/13/21 20/15/22 18/14/23
f 11/12/15 20/15/22 16/13/21
f 11/12/15 1/1/24 20/15/22
f 19/16/25 14/5/25 17/7/25
f 6/8/26 5/9/27 8/10/28
f 6/8/8 2/3/3 4/2/2
f 19/16/29 2/3/3 3/7/7
f 4/2/30 11/12/15 5/9/10
f 9/5/5 8/10/31 10/6/6
f 7/5/32 6/8/26 9/5/33
f 3/7/25 9/5/25 19/16/25
f 6/8/26 8/10/28 9/5/33
f 11/12/15 10/6/11 5/9/10
f 13/7/14 9/5/5 12/4/4
f 10/6/11 11/12/15 12/4/17
f 14/5/34 15/11/13 16/13/18
f 13/7/25 19/16/25 9/5/25
f 1/1/1 19/16/29 18/14/19
f 15/11/16 11/12/15 16/13/21
f 14/5/34 16/13/18 17/7/20
f 19/16/29 17/7/20 18/14/19
f 20/15/22 1/1/24 18/14/23
f 19/16/29 1/1/1 2/3/3
f 21/17/35 23/18/36 22/19/37
f 30/20/38 27/21/39 28/22/40
f 25/23/41 28/22/42 26/24/43
f 30/20/38 34/25/44 31/26/45
f 29/27/46 34/25/47 30/20/48
f 32/28/49 36/29/50 33/21/51
f 35/30/52 38/31/53 36/29/54
f 35/30/55 40/32/56 38/31/57
f 29/27/46 40/32/56 35/30/55
f 37/21/58 41/33/59 39/21/60
f 29/27/46 21/17/61 40/32/56
f 39/21/60 33/21/51 37/21/58
f 24/21/62 25/23/63 26/24/64
f 24/21/62 22/19/37 23/18/36
f 23/18/65 29/27/46 25/23/41
f 27/21/39 26/24/64 28/22/40
f 24/21/66 39/21/60 22/19/67
f 24/21/62 26/24/64 27/21/39
f 29/27/46 28/22/42 25/23/41
f 31/26/45 27/21/39 30/20/38
f 28/22/42 29/27/46 30/20/48
f 32/28/68 34/25/44 35/30/52
f 31/26/69 39/21/60 27/21/70
f 31/26/69 32/28/49 33/21/51
f 21/17/35 41/33/71 38/31/53
f 34/25/47 29/27/46 35/30/55
f 33/21/51 36/29/50 37/21/58
f 32/28/68 35/30/52 36/29/54
f 37/21/72 38/31/53 41/33/71
f 40/32/56 21/17/61 38/31/57
f 41/33/71 21/17/35 22/19/37
f 39/21/60 41/33/59 22/19/67
f 43/34/73 45/35/74 44/35/75
f 54/36/76 50/37/77 52/38/78
f 45/35/74 47/39/79 48/35/80
f 46/40/81 52/38/82 49/41/83
f 50/37/84 55/35/85 51/35/86
f 54/36/76 57/42/87 55/35/88
f 53/43/89 57/42/90 54/36/91
f 58/44/92 61/45/93 59/35/94
f 58/44/95 63/46/96 61/45/97
f 53/43/89 63/46/96 58/44/95
f 53/43/89 42/47/98 63/46/96
f 62/35/25 56/35/25 60/35/25
f 47/39/79 46/40/99 49/41/100
f 62/35/101 43/34/73 44/35/75
f 43/34/102 53/43/89 46/40/81
f 48/35/103 44/35/25 45/35/25
f 50/37/77 49/41/104 52/38/78
f 48/35/105 47/39/79 50/37/106
f 44/35/25 51/35/86 62/35/25
f 47/39/79 49/41/100 50/37/106
f 48/35/103 50/37/84 51/35/86
f 53/43/89 52/38/82 46/40/81
f 55/35/88 50/37/77 54/36/76
f 52/38/82 53/43/89 54/36/91
f 56/35/107 57/42/87 58/44/92
f 51/35/86 56/35/25 62/35/25
f 42/47/108 62/35/109 61/45/93
f 57/42/90 53/43/89 58/44/95
f 56/35/25 59/35/25 60/35/25
f 56/35/107 58/44/92 59/35/94
f 60/35/110 61/45/93 62/35/109
f 63/46/96 42/47/98 61/45/97
f 62/35/101 42/47/111 43/34/73
f 83/48/112 78/49/113 82/50/114
f 81/51/115 71/52/116 78/49/113
f 79/53/117 75/54/118 72/55/119
f 85/56/120 76/57/121 79/53/117
f 70/58/122 66/59/123 71/52/116
f 78/49/113 74/60/124 77/61/125
f 76/57/126 74/60/127 75/54/128
f 70/58/129 80/62/130 73/63/131
f 84/64/132 81/51/133 83/48/134
f 84/64/135 79/53/117 80/62/136
f 72/55/119 80/62/136 79/53/117
f 82/50/137 77/61/125 86/65/138
f 77/61/139 87/66/140 86/65/141
f 67/67/142 73/63/131 72/55/119
f 68/68/143 73/63/131 69/69/144
f 65/70/145 75/54/128 74/60/127
f 71/52/116 65/70/146 74/60/124
f 72/55/119 64/71/147 67/67/142
f 6/8/8 4/2/2 5/9/148
f 6/8/8 3/7/7 2/3/3
f 4/2/30 1/1/24 11/12/15
f 3/7/25 7/5/25 9/5/25
f 14/5/34 13/7/14 15/11/13
f 13/7/25 14/5/25 19/16/25
f 24/21/62 23/18/36 25/23/63
f 23/18/65 21/17/61 29/27/46
f 24/21/66 27/21/70 39/21/60
f 32/28/68 31/26/45 34/25/44
f 31/26/69 33/21/51 39/21/60
f 37/21/72 36/29/54 38/31/53
f 47/39/79 43/34/73 46/40/99
f 47/39/79 45/35/74 43/34/73
f 43/34/102 42/47/98 53/43/89
f 44/35/25 48/35/103 51/35/86
f 56/35/107 55/35/88 57/42/87
f 51/35/86 55/35/85 56/35/25
f 60/35/110 59/35/94 61/45/93
f 83/48/112 81/51/115 78/49/113
f 81/51/115 70/58/122 71/52/116
f 79/53/117 76/57/121 75/54/118
f 85/56/120 87/66/149 76/57/121
f 70/58/122 68/68/150 66/59/123
f 78/49/113 71/52/116 74/60/124
f 76/57/126 77/61/139 74/60/127
f 70/58/129 81/51/133 80/62/130
f 84/64/132 80/62/130 81/51/133
f 84/64/135 85/56/120 79/53/117
f 72/55/119 73/63/131 80/62/136
f 82/50/137 78/49/113 77/61/125
f 77/61/139 76/57/126 87/66/140
f 67/67/142 69/69/144 73/63/131
f 68/68/143 70/58/129 73/63/131
f 65/70/145 64/71/151 75/54/128
f 71/52/116 66/59/152 65/70/146
f 72/55/119 75/54/118 64/71/147
f 107/48/153 102/49/154 106/50/155
f 105/51/156 95/52/157 102/49/154
f 103/53/158 99/54/159 96/55/160
f 109/56/161 100/57/162 103/53/158
f 94/58/163 90/59/164 95/52/157
f 102/49/154 98/60/165 101/61/166
f 100/57/167 98/60/168 99/54/169
f 94/58/170 104/62/171 97/63/172
f 108/64/173 105/51/174 107/48/175
f 108/64/176 103/53/158 104/62/177
f 96/55/160 104/62/177 103/53/158
f 106/50/178 101/61/166 110/65/179
f 101/61/180 111/66/181 110/65/182
f 91/67/183 97/63/184 96/55/160
f 92/68/185 97/63/172 93/69/186
f 89/70/187 99/54/169 98/60/168
f 95/52/157 89/70/188 98/60/165
f 96/55/160 88/71/189 91/67/183
f 107/48/153 105/51/156 102/49/154
f 105/51/156 94/58/163 95/52/157
f 103/53/158 100/57/162 99/54/159
f 109/56/161 111/66/190 100/57/162
f 94/58/163 92/68/191 90/59/164
f 102/49/154 95/52/157 98/60/165
f 100/57/167 101/61/180 98/60/168
f 94/58/170 105/51/174 104/62/171
f 108/64/173 104/62/171 105/51/174
f 108/64/176 109/56/161 103/53/158
f 96/55/160 97/63/184 104/62/177
f 106/50/178 102/49/154 101/61/166
f 101/61/180 100/57/167 111/66/181
f 91/67/183 93/69/192 97/63/184
f 92/68/185 94/58/170 97/63/172
f 89/70/187 88/71/193 99/54/169
f 95/52/157 90/59/194 89/70/188
f 96/55/160 99/54/159 88/71/189
f 120/55/195 123/54/196 112/71/197 115/67/198
f 118/58/199 116/68/200 114/59/201 119/52/202
f 130/54/203 133/55/204 126/55/205 129/54/206
f 132/63/207 135/58/208 124/58/209 127/63/209
f 135/58/210 134/52/211 125/52/212 124/58/213
f 131/60/214 130/54/215 129/54/216 128/60/216
f 133/55/204 132/63/217 127/63/218 126/55/205
f 134/52/211 131/60/219 128/60/220 125/52/212
f 119/52/202 114/59/201 113/70/221 122/60/222
f 123/54/196 120/55/195 133/55/204 130/54/203
f 113/70/223 112/71/223 123/54/224 122/60/225
f 115/67/198 117/69/226 121/63/227 120/55/195
f 121/63/228 118/58/229 135/58/208 132/63/207
f 122/60/225 123/54/224 130/54/215 131/60/214
f 119/52/202 122/60/222 131/60/219 134/52/211
f 120/55/195 121/63/227 132/63/217 133/55/204
f 118/58/199 119/52/202 134/52/211 135/58/210
f 155/48/230 150/49/231 154/50/232
f 153/51/233 143/52/234 150/49/231
f 151/53/235 147/54/236 144/55/237
f 157/56/238 148/57/239 151/53/235
f 142/58/240 138/59/241 143/52/234
f 150/49/231 146/60/242 149/61/243
f 148/57/244 146/60/245 147/54/246
f 142/58/247 152/62/248 145/63/249
f 156/64/250 153/51/251 155/48/252
f 156/64/253 151/53/235 152/62/254
f 144/55/237 152/62/254 151/53/235
f 154/50/255 149/61/243 158/65/256
f 149/61/257 159/66/258 158/65/259
f 139/67/260 145/63/249 144/55/237
f 140/68/261 145/63/249 141/69/262
f 137/70/263 147/54/246 146/60/245
f 143/52/234 137/70/264 146/60/242
f 144/55/237 136/71/265 139/67/260
f 155/48/230 153/51/233 150/49/231
f 153/51/233 142/58/240 143/52/234
f 151/53/235 148/57/239 147/54/236
f 157/56/238 159/66/266 148/57/239
f 142/58/240 140/68/267 138/59/241
f 150/49/231 143/52/234 146/60/242
f 148/57/244 149/61/257 146/60/245
f 142/58/247 153/51/251 152/62/248
f 156/64/250 152/62/248 153/51/251
f 156/64/253 157/56/238 151/53/235
f 144/55/237 145/63/249 152/62/254
f 154/50/255 150/49/231 149/61/243
f 149/61/257 148/57/244 159/66/258
f 139/67/260 141/69/262 145/63/249
f 140/68/261 142/58/247 145/63/249
f 137/70/263 136/71/268 147/54/246
f 143/52/234 138/59/269 137/70/264
f 144/55/237 147/54/236 136/71/265
f 116/68/270 118/58/229 121/63/228 117/69/270
