# Blender 5.0.0
# www.blender.org
mtllib rock trees SMALL ROCK PILE.mtl
o EA04_Rocks_Cuboids_01b
v 65.526764 2.237996 -0.593532
v 62.655022 2.782541 -0.531634
v 62.512890 2.312063 -3.744859
v 59.178719 2.978672 -3.221304
v 59.722416 3.140237 -0.462691
v 62.149193 2.620976 -3.279247
v 65.581711 5.381838 -4.250023
v 62.707588 3.859759 1.370531
v 60.865944 3.710981 0.090358
v 64.376839 3.237840 2.703637
v 63.873680 3.260115 -0.181869
v 65.650642 2.171937 -4.082816
v 63.833607 0.998931 -7.183206
v 61.109344 0.654796 -6.859486
v 61.112450 1.408502 -3.787908
v 63.904484 0.985781 -4.144862
v 64.056602 6.279724 -2.230150
v 62.452545 1.608964 -5.487400
v 60.972881 3.213108 -1.902220
v 61.145950 0.647241 -3.835612
v 62.546844 5.845520 -0.148345
v 58.923584 1.305768 -3.288538
v 63.894272 0.403167 -7.184865
v 60.992702 1.421652 -6.823331
v 62.408592 2.378121 -0.247081
v 65.619728 5.530395 -0.761270
v 62.556530 1.190564 -0.305100
v 62.186905 1.112326 -3.298483
v 63.901863 0.395613 -4.159759
v 62.463196 5.696964 -3.653874
v 61.418480 3.688706 2.964193
v 59.315186 1.384006 -0.288477
v 58.897198 -0.434991 -0.191178
v 62.436028 -0.434991 -0.101475
v 58.685444 -0.434992 -3.371289
v 62.224277 -0.434992 -3.281586
v 63.668613 1.132196 -1.773576
v 58.109287 3.327605 -1.735358
v 59.900982 3.446162 -0.632728
v 61.481922 2.916724 0.637231
v 63.599747 2.662010 -1.879148
v 59.375561 3.274627 -3.104692
v 61.198891 1.256951 0.960424
v 62.555317 3.105299 -0.686699
v 57.617249 1.492151 -1.732830
v 62.062191 2.933764 -3.147844
v 60.504353 1.111366 -4.617098
v 64.402641 5.699632 0.930231
v 60.486813 -0.397575 2.839986
v 63.497658 -0.397575 2.719568
v 60.530277 -0.397576 -0.167791
v 63.541122 -0.397576 -0.288209
v 61.602982 4.042997 2.826993
v 64.348297 3.594553 2.592900
v 63.725788 1.355859 -7.061681
v 63.825081 3.622875 -0.066359
v 61.311298 -0.397576 -6.914978
v 61.216244 -0.397576 -3.910927
v 64.000725 -0.397576 -7.181480
v 63.905666 -0.397576 -4.177429
v 62.571629 0.496955 -2.711759
v 61.071392 1.820811 -6.721863
v 59.896107 0.780538 -5.179769
v 61.207504 1.805653 -3.892946
v 65.050415 0.312311 -5.788832
v 63.811810 1.340701 -4.229310
v 65.455246 -0.397576 -0.467759
v 65.722389 -0.397576 -3.977376
v 62.314568 -0.397576 -0.337059
v 62.581707 -0.397576 -3.846677
v 64.307060 2.190330 -5.552361
v 65.527672 6.147941 -0.894341
v 62.676823 6.471150 -0.278890
v 65.470230 5.995574 -4.153590
v 62.575401 6.318783 -3.553817
v 64.088348 2.313250 0.947383
v 60.946621 2.428640 -1.703323
v 59.814655 4.025449 1.799121
v 61.034573 4.071318 0.180130
v 63.160576 3.322129 3.953271
v 64.303719 5.423201 -5.574437
v 60.885345 5.959132 -1.498552
v 66.640747 5.372752 -2.641473
v 60.528286 2.616087 -4.489232
v 66.765152 2.167897 -2.346939
v 65.358856 3.186485 1.273540
v 62.535065 0.511013 -8.339834
v 62.205082 3.363579 -1.410342
v 63.708099 1.474642 -0.231407
v 63.942665 1.465825 2.722647
v 60.956985 1.701464 2.924992
v 60.696228 1.710282 -0.024279
v 62.569294 1.161113 -2.679928
v 59.819668 1.627382 -5.110755
v 65.059044 0.840789 -5.784319
v 62.398472 1.185582 -8.331318
v 60.876648 -0.385016 1.116240
v 57.285156 -0.376955 -1.821139
v 63.340736 2.946249 -1.901560
v 63.616268 -0.388619 -1.666951
v 60.487801 -0.389601 -4.578299
v 61.478268 3.221060 0.318509
v 58.492680 3.562586 -1.794129
v 60.575596 2.913417 -4.166867
v 62.007671 -0.341790 4.015226
v 59.306725 -0.329853 1.349626
v 65.161613 3.511840 1.284086
v 64.706917 -0.343823 1.129191
v 62.070183 -0.341340 -1.378205
v 63.216743 3.657323 3.678155
v 60.151596 4.320002 1.743649
v 62.257999 3.707515 -1.136926
v 60.138657 -0.371213 -5.300337
v 62.742218 -0.378044 -8.244860
v 62.558647 1.508844 -2.929904
v 62.576572 -0.378370 -2.855123
v 64.966980 -0.382580 -5.780854
v 60.067909 1.984032 -5.138647
v 62.366161 1.535875 -8.057673
v 64.829025 1.152235 -5.753891
v 66.754395 -0.311873 -2.119746
v 63.863667 -0.306777 0.828947
v 64.269440 5.990349 -5.279493
v 64.335175 -0.311201 -5.465217
v 61.121033 -0.302489 -1.873087
v 66.399948 5.932111 -2.656847
v 64.396225 6.264304 0.634920
v 61.198307 6.513238 -1.548980
v 65.046150 1.457320 1.204889
v 62.591412 1.531773 4.015723
v 59.543591 1.900951 1.600084
v 62.137974 1.548346 -1.403752
vn 0.7938 -0.0151 -0.6080
vn 0.7845 -0.0129 -0.6200
vn 0.8384 -0.0140 -0.5449
vn 0.8492 -0.0189 -0.5278
vn 0.8123 0.0056 0.5832
vn 0.7802 0.0007 0.6256
vn 0.8268 0.0351 0.5613
vn 0.8496 0.0415 0.5257
vn 0.7279 -0.0335 0.6849
vn 0.6820 -0.0374 0.7304
vn 0.7431 -0.0057 0.6691
vn 0.8015 0.0283 0.5974
vn 0.7414 0.0267 0.6705
vn 0.7566 0.0479 0.6522
vn 0.6943 0.0400 0.7185
vn 0.6688 0.0152 0.7432
vn 0.6678 0.5451 0.5069
vn 0.7191 0.5494 0.4256
vn 0.6725 0.5457 0.4999
vn 0.6163 0.5369 0.5761
vn -0.7547 -0.0006 -0.6561
vn -0.7051 -0.0048 -0.7090
vn -0.6947 -0.0109 -0.7192
vn -0.7474 -0.0084 -0.6643
vn -0.7986 -0.0057 -0.6018
vn -0.7992 0.0043 -0.6010
vn -0.7629 0.0077 -0.6465
vn -0.7159 0.0015 -0.6982
vn -0.6403 -0.0095 0.7681
vn -0.5643 0.0150 0.8254
vn -0.5395 0.0256 0.8416
vn -0.6069 0.0002 0.7948
vn 0.6666 0.0012 -0.7454
vn 0.6076 0.0151 -0.7941
vn 0.6072 0.0415 -0.7934
vn 0.6582 0.0231 -0.7524
vn -0.6909 0.1215 -0.7127
vn -0.7121 0.1417 -0.6876
vn -0.6486 0.1033 -0.7541
vn -0.6217 0.0791 -0.7793
vn -0.4757 0.6514 -0.5911
vn -0.5439 0.6520 -0.5282
vn -0.4796 0.6516 -0.5878
vn -0.4072 0.6456 -0.6461
vn -0.3766 0.6668 0.6430
vn -0.3743 0.6657 0.6456
vn -0.4145 0.6844 0.5999
vn -0.5851 0.1830 0.7900
vn -0.5268 0.2004 0.8260
vn -0.5127 0.2243 0.8287
vn -0.5626 0.2084 0.8000
vn 0.7713 -0.0294 0.6358
vn -0.3350 0.6456 0.6862
vn -0.7997 0.0128 -0.6003
vn 0.7062 0.0047 -0.7080
vn 0.7227 -0.0136 -0.6911
vn 0.5474 0.5085 -0.6646
vn 0.4872 0.5414 -0.6853
vn 0.5520 0.5058 -0.6629
vn 0.6097 0.4699 -0.6383
vn 0.8116 0.2792 -0.5132
vn 0.7317 -0.0116 -0.6815
vn 0.7291 -0.0119 -0.6843
vn 0.7759 -0.0389 0.6297
vn 0.8205 -0.0330 0.5707
vn 0.8167 -0.0182 0.5768
vn 0.7756 -0.0221 0.6308
vn 0.6714 0.3065 -0.6747
vn 0.1574 0.9873 -0.0205
vn 0.1522 0.9882 0.0154
vn 0.1398 0.9900 -0.0170
vn 0.1454 0.9880 -0.0525
vn 0.1506 0.9848 -0.0868
vn 0.1623 0.9851 -0.0562
vn 0.1734 0.9845 -0.0267
vn 0.1697 0.9855 0.0090
vn 0.1652 0.9850 0.0500
vn 0.7961 -0.1803 0.5777
vn 0.7376 -0.1808 0.6506
vn 0.7209 -0.1826 0.6685
vn 0.7902 -0.1817 0.5853
vn -0.6124 0.1033 0.7837
vn -0.5747 0.1351 0.8071
vn -0.5355 0.1392 0.8330
vn -0.6218 0.5309 -0.5757
vn -0.6757 0.5475 -0.4936
vn -0.6273 0.5327 -0.5680
vn -0.5676 0.5113 -0.6453
vn -0.7737 0.1007 -0.6255
vn -0.7122 0.0640 -0.6990
vn -0.6824 0.0622 -0.7283
vn -0.7467 0.0962 -0.6582
vn -0.8033 0.1291 -0.5814
vn -0.8179 0.1300 -0.5605
vn 0.7516 -0.1790 0.6348
vn 0.6872 -0.1774 0.7044
vn 0.6709 -0.1800 0.7194
vn 0.8014 -0.1791 0.5706
vn 0.7322 0.3398 0.5902
vn 0.7948 0.3372 0.5045
vn 0.7430 0.3397 0.5767
vn 0.6740 0.3391 0.6563
vn 0.6573 -0.0520 -0.7519
vn 0.7124 -0.0735 -0.6979
vn 0.7297 -0.0763 -0.6795
vn 0.6667 -0.0534 -0.7434
vn 0.5950 -0.0297 -0.8032
vn 0.5942 -0.0288 -0.8038
vn 0.6074 0.3819 -0.6965
vn 0.5459 0.4014 -0.7354
vn 0.6116 0.3805 -0.6937
vn 0.6699 0.3585 -0.6501
vn 0.8585 -0.0234 -0.5123
vn 0.7344 -0.0113 -0.6786
vn 0.8031 0.0354 0.5947
vn 0.8080 0.0547 0.5867
vn 0.7139 0.0574 -0.6979
vn 0.6972 0.0758 -0.7129
vn 0.7623 0.0388 -0.6461
vn 0.7799 0.0232 -0.6254
vn 0.6401 0.4808 -0.5992
vn 0.5718 0.4836 -0.6627
vn 0.6337 0.4813 -0.6057
vn 0.6976 0.4746 -0.5367
vn 0.6424 0.0931 -0.7607
vn 0.6391 0.1053 -0.7619
vn -0.7828 -0.0806 -0.6170
vn -0.7664 -0.1113 -0.6326
vn -0.8143 -0.0847 -0.5743
vn -0.8192 -0.0608 -0.5703
vn -0.7105 -0.1372 -0.6901
vn -0.6957 -0.1608 -0.7001
vn -0.7482 -0.1415 -0.6483
vn -0.8069 -0.1165 -0.5790
vn -0.7285 -0.1070 -0.6766
vn -0.6824 -0.1094 0.7227
vn -0.6777 -0.0809 0.7308
vn -0.7267 -0.0990 0.6798
vn -0.7409 -0.1295 0.6590
vn -0.5550 0.4148 0.7210
vn -0.4843 0.4205 0.7672
vn -0.5666 0.4135 0.7127
vn -0.6320 0.4044 0.6611
vn -0.6161 -0.0865 0.7829
vn -0.6162 -0.0593 0.7853
vn 0.7363 -0.0254 0.6762
vn 0.7284 -0.0426 0.6838
vn 0.7365 0.4024 0.5437
vn 0.7707 0.4126 0.4855
vn 0.7335 0.4015 0.5484
vn 0.6960 0.3895 0.6033
vn 0.1028 0.9935 -0.0484
vn 0.1114 0.9912 -0.0715
vn 0.0926 0.9918 -0.0877
vn 0.0815 0.9943 -0.0686
vn 0.0698 0.9964 -0.0485
vn 0.0902 0.9955 -0.0285
vn 0.1110 0.9938 -0.0078
vn 0.1228 0.9921 -0.0257
vn 0.1379 0.9893 -0.0487
vn 0.1729 0.9849 -0.0015
vn 0.1619 0.9866 -0.0184
vn 0.1551 0.9879 -0.0022
vn 0.1677 0.9857 0.0150
vn 0.1796 0.9833 0.0310
vn 0.1840 0.9828 0.0159
vn 0.1887 0.9820 -0.0005
vn 0.1781 0.9839 -0.0177
vn 0.1683 0.9852 -0.0337
vn 0.1239 0.9879 -0.0933
vn 0.1167 0.9858 -0.1207
vn 0.1220 0.9809 -0.1512
vn 0.1288 0.9841 -0.1227
vn 0.1347 0.9861 -0.0971
vn 0.1310 0.9891 -0.0668
vn 0.1267 0.9914 -0.0324
vn 0.1189 0.9909 -0.0628
vn 0.1115 0.9896 -0.0913
vn -0.7558 -0.1642 0.6339
vn -0.6155 -0.1129 0.7800
vn -0.6124 0.1911 0.7671
vn -0.6444 0.1625 0.7472
vn -0.6689 -0.0249 0.7430
vn -0.7095 -0.0335 0.7039
vn -0.5144 0.3408 0.7869
vn -0.4311 0.3433 0.8344
vn -0.5154 0.3408 0.7863
vn -0.5938 0.3352 0.7315
vn -0.5971 0.0578 -0.8001
vn -0.7398 0.1480 -0.6564
vn -0.7504 0.1606 -0.6412
vn 0.7967 0.0077 -0.6044
vn 0.6468 0.0759 -0.7589
vn -0.6907 0.3786 -0.6161
vn -0.7525 0.3780 -0.5393
vn -0.7041 0.3788 -0.6006
vn -0.6364 0.3764 -0.6733
vn 0.5958 -0.0305 -0.8026
vn 0.6580 -0.1818 0.7307
vn -0.7483 -0.0421 0.6620
vn -0.5902 0.0037 0.8073
vn 0.8268 0.2814 0.4870
vn 0.8597 0.2957 0.4165
vn 0.8278 0.2819 0.4851
vn 0.7900 0.2660 0.5525
vn -0.7859 0.1279 -0.6049
vn 0.7498 -0.0796 -0.6569
vn 0.7978 0.0156 0.6027
vn 0.6481 -0.0040 0.7615
vn 0.7376 -0.0308 -0.6745
vn 0.6762 -0.0208 -0.7364
vn 0.6074 -0.0104 -0.7943
vn 0.7186 -0.0631 0.6926
vn 0.7748 -0.0555 0.6298
vn 0.8241 -0.0478 0.5644
vn -0.7611 0.1736 -0.6250
vn -0.6533 0.0605 -0.7546
vn -0.7137 0.2867 -0.6391
vn -0.7620 0.2997 -0.5741
vn -0.7203 0.2885 -0.6308
vn -0.6676 0.2738 -0.6924
vn -0.3605 0.5589 0.7468
vn -0.3571 0.5593 0.7481
vn -0.4198 0.5514 0.7209
vn -0.5661 0.1057 0.8175
vn -0.6280 0.0670 0.7754
vn -0.6827 0.0670 0.7276
vn -0.5026 0.1424 0.8527
vn -0.2961 0.5642 0.7707
vn -0.6703 0.1381 0.7291
vn -0.6134 0.1558 0.7742
vn -0.5408 0.1758 0.8226
vn -0.7307 0.0667 0.6795
vt 0.276474 0.702444
vt 0.276474 0.573752
vt 0.276474 0.574116
vt 0.276474 0.702606
vt 0.276474 0.567796
vt 0.276474 0.699796
vt 0.276474 0.696779
vt 0.276474 0.801822
vt 0.276474 0.805462
vt 0.276474 0.802026
vt 0.276474 0.707706
vt 0.276474 0.705273
vt 0.276474 0.705006
vt 0.276474 0.707577
vt 0.276474 0.705541
vt 0.276474 0.704862
vt 0.276474 0.704554
vt 0.276474 0.704245
vt 0.276474 0.696826
vt 0.276474 0.701707
vt 0.276474 0.801999
vt 0.276474 0.801650
vt 0.276474 0.692152
vt 0.276474 0.561117
vt 0.276474 0.572093
vt 0.276474 0.694178
vt 0.276474 0.561010
vt 0.276474 0.555161
vt 0.276474 0.715293
vt 0.276474 0.715361
vt 0.276474 0.713108
vt 0.276474 0.713024
vt 0.276474 0.715406
vt 0.276474 0.713050
vt 0.276474 0.712980
vt 0.276474 0.712250
vt 0.276474 0.712356
vt 0.276474 0.712462
vt 0.276474 0.713121
vt 0.276474 0.712368
vt 0.276474 0.712502
vt 0.276474 0.713238
vt 0.276474 0.715669
vt 0.276474 0.715612
vt 0.276474 0.713005
vt 0.276474 0.712234
vt 0.276474 0.550606
vt 0.276474 0.712929
vt 0.276474 0.715223
vt 0.276474 0.549145
vt 0.276474 0.551690
vt 0.276474 0.810095
vt 0.276474 0.817786
vt 0.276474 0.768989
vt 0.276474 0.755601
vt 0.276474 0.549355
vt 0.276474 0.586624
vt 0.276474 0.611113
vt 0.276474 0.618750
vt 0.276474 0.608497
vt 0.276474 0.600682
vt 0.276474 0.567090
vt 0.276474 0.544127
vt 0.276474 0.569705
vt 0.276474 0.605317
vt 0.276474 0.808457
vt 0.276474 0.807672
vt 0.276474 0.979731
vt 0.276474 0.974768
vt 0.276474 0.785914
vt 0.276474 0.974580
vt 0.276474 0.801582
vt 0.276474 0.600362
vt 0.276474 0.571325
vt 0.276474 0.632440
vt 0.276474 0.800052
vt 0.276474 0.785099
vt 0.276474 0.767494
vt 0.276474 0.644050
vt 0.276474 0.636267
vt 0.276474 0.648792
vt 0.276474 0.641993
vt 0.276474 0.806857
vt 0.276474 0.707836
vt 0.276474 0.809397
vt 0.276474 0.754386
vt 0.276474 0.737152
vt 0.276474 0.704807
vt 0.276474 0.721429
vt 0.276474 0.740231
vt 0.276474 0.799439
vt 0.276474 0.715354
vt 0.276474 0.786162
vt 0.276474 0.774552
vt 0.276474 0.696357
vt 0.276474 0.881531
vt 0.276474 0.883335
vt 0.276474 0.880901
vt 0.276474 0.786860
vt 0.276474 0.716568
vt 0.276474 0.739411
vt 0.276474 0.707303
vt 0.276474 0.679897
vt 0.276474 0.663426
vt 0.276474 0.800737
vt 0.276474 0.722829
vt 0.276474 0.537753
vt 0.276474 0.536187
vt 0.276474 0.528391
vt 0.276474 0.530078
vt 0.276474 0.538371
vt 0.276474 0.543037
vt 0.276474 0.698058
vt 0.276474 0.678497
vt 0.276474 0.701829
vt 0.276474 0.701774
vt 0.276474 0.703847
vt 0.276474 0.703937
vt 0.276474 0.704026
vt 0.276474 0.701885
vt 0.276474 0.699744
vt 0.276474 0.699722
vt 0.276474 0.699700
vt 0.276474 0.881561
vt 0.276474 0.715584
vt 0.276474 0.717424
vt 0.276474 0.717622
vt 0.276474 0.717767
vt 0.276474 0.881950
vt 0.276474 0.974539
vt 0.276474 0.973478
vt 0.276474 0.709991
vt 0.276474 0.717377
vt 0.276474 0.717427
vt 0.276474 0.602419
vt 0.276474 0.718061
s 1
usemtl LPNPTrees
f 12/1/1 7/2/2 83/3/3 85/4/4
f 26/5/5 1/6/6 85/4/7 83/3/8
f 1/6/6 76/7/9 122/8/10 67/9/11
f 1/6/6 67/9/11 121/10/12 85/4/7
f 27/11/13 2/12/14 40/13/15 43/14/16
f 2/12/17 41/15/18 99/16/18 44/17/19
f 2/12/17 44/17/19 102/18/20 40/13/20
f 3/19/21 71/20/22 124/21/23 70/9/24
f 3/19/21 70/9/24 125/22/25 77/23/26
f 30/24/27 81/25/28 71/20/22 3/19/21
f 25/26/29 76/7/30 48/27/31 21/28/32
f 28/29/33 47/30/34 84/31/35 6/32/36
f 22/33/37 4/34/38 84/31/39 47/30/40
f 4/34/41 38/35/42 103/36/42 42/37/43
f 4/34/41 42/37/43 104/38/44 84/31/44
f 5/39/45 39/40/46 103/41/47 38/42/47
f 32/43/48 43/44/49 40/45/50 5/39/51
f 26/5/5 48/27/52 76/7/9 1/6/6
f 5/39/45 40/45/53 102/46/53 39/40/46
f 30/24/27 3/19/21 77/23/26 82/47/54
f 28/29/33 6/32/36 41/48/55 37/49/56
f 6/32/57 84/31/58 104/38/58 46/37/59
f 6/32/57 46/37/59 99/36/60 41/48/60
f 7/2/61 74/50/61 126/51/61 83/3/61
f 12/1/1 71/20/62 81/25/63 7/2/2
f 29/52/64 65/53/65 95/54/66 16/55/67
f 7/2/68 81/25/68 123/56/68 74/50/68
f 8/57/69 54/58/70 107/59/71 56/60/72
f 8/57/69 56/60/72 112/61/73 79/62/74
f 8/57/69 79/62/74 111/63/75 53/64/76
f 8/57/69 53/64/76 110/65/77 54/58/70
f 129/66/78 90/67/79 50/68/80 108/69/81
f 91/70/82 49/68/83 105/71/83 130/72/84
f 9/73/85 78/74/86 111/63/86 79/62/87
f 9/73/85 79/62/87 112/61/88 88/75/88
f 9/73/89 88/75/90 132/76/91 92/77/92
f 9/73/89 92/77/92 131/78/93 78/74/94
f 10/79/95 80/80/96 130/72/97 90/67/79
f 10/79/95 90/67/79 129/66/78 86/81/98
f 10/79/99 86/81/100 107/59/100 54/58/101
f 10/79/99 54/58/101 110/65/102 80/80/102
f 11/82/103 86/81/104 129/66/105 89/83/106
f 11/82/103 89/83/106 132/76/107 88/75/108
f 11/82/109 88/75/110 112/61/110 56/60/111
f 11/82/109 56/60/111 107/59/112 86/81/112
f 12/1/1 85/4/4 121/10/113 68/9/113
f 12/1/1 68/9/114 124/21/114 71/20/62
f 27/11/13 37/84/115 41/15/116 2/12/14
f 23/85/117 13/86/118 95/54/119 65/53/120
f 13/86/121 96/87/122 119/88/122 55/89/123
f 13/86/121 55/89/123 120/90/124 95/54/124
f 23/85/117 87/91/125 96/87/126 13/86/118
f 24/92/127 14/93/128 63/94/129 94/95/130
f 14/93/128 87/91/131 114/96/132 57/97/133
f 14/93/128 57/97/133 113/98/134 63/94/129
f 24/92/127 96/87/135 87/91/131 14/93/128
f 20/99/136 15/100/137 94/95/138 63/94/139
f 15/100/140 93/101/141 115/102/141 64/103/142
f 15/100/140 64/103/142 118/104/143 94/95/143
f 20/99/136 61/105/144 93/101/145 15/100/137
f 29/52/64 16/55/67 93/101/146 61/105/147
f 16/55/148 95/54/149 120/90/149 66/106/150
f 16/55/148 66/106/150 115/102/151 93/101/151
f 17/107/152 74/50/153 123/56/154 75/108/155
f 17/107/152 75/108/155 128/109/156 73/110/157
f 17/107/152 73/110/157 127/111/158 72/112/159
f 17/107/152 72/112/159 126/51/160 74/50/153
f 18/113/161 62/114/162 118/104/163 64/103/164
f 18/113/161 64/103/164 115/102/165 66/106/166
f 18/113/161 66/106/166 120/90/167 55/89/168
f 18/113/161 55/89/168 119/88/169 62/114/162
f 19/115/170 46/116/171 104/117/172 42/118/173
f 19/115/170 42/118/173 103/119/174 39/120/175
f 19/115/170 39/120/175 102/121/176 44/122/177
f 19/115/170 44/122/177 99/123/178 46/116/171
f 20/99/136 63/94/139 113/98/179 58/97/179
f 20/99/136 58/97/180 116/124/180 61/105/144
f 32/43/48 5/39/51 38/42/181 45/125/182
f 25/26/29 21/28/32 82/47/183 77/23/184
f 21/28/185 48/27/186 127/111/186 73/110/187
f 21/28/185 73/110/187 128/109/188 82/47/188
f 22/33/37 47/30/40 101/126/189 35/127/189
f 22/33/37 35/127/190 98/128/190 45/125/191
f 23/85/117 65/53/120 117/129/192 59/97/192
f 23/85/117 59/97/193 114/96/193 87/91/125
f 24/92/194 94/95/195 118/104/195 62/114/196
f 24/92/194 62/114/196 119/88/197 96/87/197
f 132/76/107 89/83/106 52/68/198 109/130/198
f 50/68/80 90/67/79 130/72/97 105/71/199
f 25/26/29 77/23/184 125/22/200 69/9/200
f 25/26/29 69/9/201 122/8/201 76/7/30
f 26/5/202 83/3/203 126/51/203 72/112/204
f 26/5/202 72/112/204 127/111/205 48/27/205
f 131/78/93 92/77/92 51/68/206 106/131/206
f 52/68/207 89/83/106 129/66/105 108/69/207
f 27/11/13 34/132/208 100/132/208 37/84/115
f 27/11/13 43/14/16 97/132/209 34/132/209
f 28/29/33 37/49/56 100/133/210 36/134/211
f 28/29/33 36/134/211 101/126/212 47/30/34
f 29/52/64 61/105/147 116/124/213 60/97/214
f 29/52/64 60/97/214 117/129/215 65/53/65
f 22/33/37 45/125/191 38/35/216 4/34/38
f 51/68/217 92/77/92 132/76/91 109/130/217
f 30/24/218 82/47/219 128/109/219 75/108/220
f 30/24/218 75/108/220 123/56/221 81/25/221
f 31/135/222 53/64/223 111/63/224 78/74/224
f 31/135/225 78/74/226 131/78/227 91/70/82
f 31/135/225 91/70/82 130/72/84 80/80/228
f 31/135/222 80/80/229 110/65/229 53/64/223
f 32/43/48 45/125/182 98/136/230 33/136/231
f 32/43/48 33/136/231 97/136/232 43/44/49
f 131/78/227 106/131/233 49/68/233 91/70/82
