# Blender 5.0.0
# www.blender.org
mtllib rock trees SMALL ROCK.mtl
o EA01_Env_Clif_01a
v -95.558800 3.901698 0.248186
v -106.082100 -1.596263 -4.927317
v -101.796158 -1.759995 -4.446643
v -97.170464 -1.706587 -0.139220
v -99.174210 7.544953 -4.539102
v -102.204933 8.828718 -4.328997
v -97.116264 4.541570 -3.908002
v -98.084679 -1.547524 1.317634
v -106.928612 10.266046 -2.524096
v -95.695526 4.055758 -2.920509
v -102.447044 8.191400 0.626900
v -105.345467 9.567775 -4.306841
v -98.736359 6.900889 1.062401
v -98.974480 4.751498 -4.694014
v -103.252426 9.167278 -2.165903
v -105.270615 9.455077 -0.520399
v -107.218224 -1.499642 -1.364857
v -104.015755 8.990804 -0.003094
v -100.837975 8.220098 -1.066605
v -98.248062 1.934066 -4.832704
v -98.206131 4.454318 1.161670
v -96.949471 -1.484944 -3.119088
v -97.986481 6.812962 -0.973082
v -98.150719 0.556234 1.564233
v -106.847496 4.431687 -1.329334
v -100.476364 1.927369 1.514262
v -105.547112 4.322544 -0.352134
v -102.623833 3.121523 1.391274
v -106.174751 3.816079 1.510015
v -106.608406 -1.657506 2.148335
v -108.958206 4.993680 -0.306943
v -108.723289 -1.651058 0.252106
v -97.667885 4.550319 -1.017635
v -103.357841 2.694485 2.667362
v -100.546997 1.591155 2.383295
vn 0.3026 0.9525 0.0333
vn -0.5966 0.0584 0.8004
vn -0.7389 0.1253 0.6621
vn 0.4699 0.8098 0.3515
vn 0.0171 0.1026 -0.9946
vn -0.3647 0.0501 0.9298
vn 0.1131 0.0477 -0.9924
vn 0.2847 0.9150 0.2860
vn 0.2667 0.9484 0.1715
vn 0.4360 0.8916 0.1221
vn 0.0395 0.1032 0.9939
vn 0.3550 0.9345 0.0256
vn -0.9893 -0.0423 -0.1395
vn 0.3959 0.0790 -0.9149
vn 0.9590 -0.2791 0.0504
vn 0.9736 0.1334 0.1854
vn -0.4610 0.1480 0.8750
vn 0.2659 -0.3493 -0.8985
vn -0.0673 -0.0088 -0.9977
vn -0.1252 0.0166 -0.9920
vn -0.0472 0.0519 -0.9975
vn 0.8447 -0.0361 0.5340
vn 0.3237 0.8895 0.3226
vn 0.2286 0.9726 -0.0415
vn 0.2945 0.9493 -0.1103
vn 0.2916 0.9460 0.1416
vn 0.2879 0.9409 0.1784
vn 0.6681 -0.2406 0.7041
vn 0.9612 0.1306 0.2431
vn 0.9198 0.2127 0.3297
vn 0.0134 0.1263 0.9919
vn -0.0633 0.1509 0.9865
vn 0.3433 0.1013 0.9337
vn 0.4412 0.8966 0.0371
vn 0.3905 0.9206 0.0081
vn -0.7280 0.0858 -0.6801
vn 0.9744 -0.2186 -0.0527
vn 0.8294 0.5332 -0.1668
vn 0.6582 -0.1223 -0.7429
vn 0.2671 0.9625 0.0481
vn -0.4536 -0.0906 -0.8866
vn 0.2816 -0.1030 0.9540
vn 0.5790 0.0375 -0.8145
vn -0.0931 0.9683 0.2320
vn 0.3994 0.1475 -0.9048
vn 0.4387 0.8255 0.3550
vn -0.6609 0.1384 0.7376
vn 0.0414 -0.1488 0.9880
vn 0.0971 -0.2508 0.9631
vn -0.3300 0.1351 0.9342
vn 0.2366 0.9664 0.1010
vn 0.1884 0.8936 0.4074
vn -0.9505 0.0612 -0.3048
vn -0.3522 0.0456 0.9348
vn 0.0372 0.0486 0.9981
vn -0.7334 0.0499 -0.6780
vn 0.3133 0.9407 0.1297
vn 0.3625 0.8009 0.4766
vn -0.5302 0.0525 0.8462
vn 0.1922 0.9286 0.3174
vt 0.355288 0.606330
vt 0.355288 0.609590
vt 0.354231 0.606443
vt 0.295318 0.577357
vt 0.294357 0.574091
vt 0.295639 0.573107
vt 0.294089 0.578731
vt 0.299568 0.569595
vt 0.298559 0.570799
vt 0.298559 0.570799
vt 0.332243 0.561686
vt 0.335979 0.566730
vt 0.333385 0.566333
vt 0.295932 0.573084
vt 0.296214 0.578109
vt 0.274269 0.550558
vt 0.273758 0.547068
vt 0.274269 0.540043
vt 0.329319 0.523216
vt 0.326678 0.524007
vt 0.326039 0.521874
vt 0.298151 0.595660
vt 0.297982 0.597919
vt 0.294947 0.597485
vt 0.339711 0.601044
vt 0.340163 0.600088
vt 0.340163 0.602644
vt 0.299747 0.573131
vt 0.356050 0.549857
vt 0.354920 0.548807
vt 0.356050 0.547114
vt 0.300118 0.578346
vt 0.302128 0.579784
vt 0.302128 0.584071
vt 0.278351 0.574652
vt 0.276335 0.574852
vt 0.276505 0.571733
vt 0.281411 0.575866
vt 0.280314 0.580009
vt 0.278660 0.580527
vt 0.279475 0.571874
vt 0.280706 0.574412
vt 0.297817 0.577238
vt 0.296439 0.572874
vt 0.274365 0.578116
vt 0.276556 0.576849
vt 0.335929 0.556758
vt 0.331836 0.564819
vt 0.354181 0.541624
vt 0.355392 0.541451
vt 0.355392 0.543132
vt 0.298021 0.599775
vt 0.294723 0.599343
vt 0.293820 0.596204
vt 0.296825 0.594379
vt 0.325159 0.532238
vt 0.324251 0.527745
vt 0.326118 0.530028
vt 0.324312 0.526286
vt 0.324418 0.523740
vt 0.326017 0.526860
vt 0.325282 0.523301
vt 0.297021 0.572564
vt 0.328463 0.527018
vt 0.326056 0.606261
vt 0.326195 0.602667
vt 0.328304 0.605770
vt 0.328304 0.602371
vt 0.300512 0.585274
vt 0.278806 0.575910
vt 0.302128 0.577727
vt 0.298553 0.569940
vt 0.277916 0.575184
vt 0.293820 0.572265
vt 0.295808 0.570875
vt 0.299554 0.576089
s 1
usemtl Material.001
f 7/1/1 1/2/1 10/3/1
f 16/4/2 25/5/2 27/6/2
f 9/7/3 25/5/3 16/4/3
f 24/8/4 26/9/4 35/10/4
f 14/11/5 12/12/5 6/13/5
f 16/4/6 27/14/6 18/15/6
f 3/16/7 2/17/7 12/18/7
f 11/19/8 13/20/8 19/21/8
f 9/22/9 18/23/9 15/24/9
f 13/25/10 23/26/10 19/27/10
f 21/28/11 26/9/11 24/8/11
f 6/29/12 15/30/12 19/31/12
f 2/32/13 25/33/13 9/34/13
f 7/35/14 14/36/14 5/37/14
f 1/38/15 4/39/15 22/40/15
f 7/35/16 23/41/16 33/42/16
f 11/43/17 27/14/17 28/44/17
f 22/40/18 3/45/18 20/46/18
f 3/47/19 12/12/19 14/11/19
f 20/46/20 3/45/20 14/36/20
f 6/13/21 5/48/21 14/11/21
f 24/49/22 8/50/22 4/51/22
f 18/23/23 11/52/23 19/53/23
f 15/24/24 6/54/24 12/55/24
f 12/55/25 9/22/25 15/24/25
f 9/7/26 16/4/26 18/15/26
f 18/23/27 19/53/27 15/24/27
f 4/56/28 1/57/28 24/58/28
f 33/59/29 23/60/29 21/61/29
f 23/60/30 13/62/30 21/61/30
f 21/28/31 28/63/31 26/9/31
f 13/20/32 11/19/32 28/64/32
f 24/58/33 1/57/33 21/61/33
f 23/65/34 5/66/34 19/67/34
f 5/66/35 6/68/35 19/67/35
f 9/34/36 12/69/36 2/32/36
f 22/40/37 10/70/37 1/38/37
f 7/35/38 5/37/38 23/41/38
f 22/40/39 20/46/39 10/70/39
f 1/38/40 7/35/40 33/42/40
f 25/33/41 32/71/41 31/33/41
f 24/8/42 35/10/42 8/72/42
f 20/46/43 7/73/43 10/70/43
f 25/5/44 29/6/44 27/6/44
f 20/46/45 14/36/45 7/73/45
f 28/63/46 35/10/46 26/9/46
f 29/6/47 32/74/47 30/75/47
f 35/10/48 34/63/48 30/75/48
f 35/10/49 30/75/49 8/72/49
f 34/44/50 29/14/50 30/75/50
f 1/57/51 33/59/51 21/61/51
f 28/44/52 29/14/52 34/44/52
f 2/32/53 17/71/53 25/33/53
f 11/43/54 18/15/54 27/14/54
f 21/28/55 13/76/55 28/63/55
f 25/33/56 17/71/56 32/71/56
f 25/5/57 31/5/57 29/6/57
f 28/63/58 34/63/58 35/10/58
f 29/6/59 31/5/59 32/74/59
f 28/44/60 27/14/60 29/14/60
