<?xml version="1.0" encoding="utf-8"?>
<COLLADA xmlns="http://www.collada.org/2005/11/COLLADASchema" version="1.4.1">
<asset>
	<contributor>
		<author>Anonymous</author>
		<authoring_tool>Collada Exporter for Blender 2.6+, by Juan Linietsky (juan@codenix.com)</authoring_tool>
	</contributor>
	<created>2018-08-13T12:11:52Z</created>
	<modified>2018-08-13T12:11:52Z</modified>
	<unit meter="1.0" name="meter"/>
	<up_axis>Z_UP</up_axis>
</asset>
<library_images>
	<image id="id-image-3" name="bush_leaves_green.png">
		<init_from>bush_leaves_green.png</init_from>
	</image>
</library_images>
<library_effects>
	<effect id="id-fx-2" name="bush_leaves_green-fx">
		<profile_COMMON>
			<newparam sid="id-fx_surf-4">
				<surface type="2D">
					<init_from>id-image-3</init_from>
					<format>A8R8G8B8</format>
				</surface>
			</newparam>
			<newparam sid="id-fx_sampler-5">
				<sampler2D>
					<source>id-fx_surf-4</source>
				</sampler2D>
			</newparam>
			<technique sid="common">
				<blinn>
					<emission>
						<color>  0.0 0.0 0.0 1.0 </color>
					</emission>
					<ambient>
						<color>  0.0 0.0 0.0 1.0 </color>
					</ambient>
					<diffuse>
						<texture texture="id-fx_sampler-5" texcoord="CHANNEL1"/>
					</diffuse>
					<specular>
						<color>  0.5 0.5 0.5 1.0 </color>
					</specular>
					<shininess>
						<float>50</float>
					</shininess>
					<reflective>
						<color>  1.0 1.0 1.0 1.0 </color>
					</reflective>
					<index_of_refraction>
						<float>4.0</float>
					</index_of_refraction>
				</blinn>
				<extra>
					<technique profile="FCOLLADA">
					</technique>
					<technique profile="GOOGLEEARTH">
						<double_sided>0</double_sided>
					</technique>
				</extra>
			</technique>
		</profile_COMMON>
	</effect>
</library_effects>
<library_materials>
	<material id="id-material-6" name="bush_leaves_green">
		<instance_effect url="#id-fx-2"/>
	</material>
</library_materials>
<library_geometries>
	<geometry id="id-mesh-7" name="Plane.010">
		<mesh>
			<source id="id-mesh-7-positions">
				<float_array id="id-mesh-7-positions-array" count="579"> -0.0502370148897171 0.03707653656601906 0.24727097153663635 -0.000601278617978096 -0.01167759858071804 0.2719665467739105 -0.01393207348883152 0.07363054156303406 0.24784554541110992 -0.09655578434467316 0.0832916796207428 0.20241910219192505 -0.1632092446088791 -0.023848757147789 0.2024187445640564 -0.07537912577390671 -0.018285393714904785 0.2480253428220749 -0.03222747892141342 0.18669462203979492 0.2024194449186325 0.01774059422314167 0.07822233438491821 0.24868865311145782 0.029335878789424896 0.18292003870010376 0.20241962373256683 0.06494463980197906 0.06872773915529251 0.24863329529762268 0.11860378086566925 0.15026003122329712 0.20241962373256683 0.08218394219875336 0.04794415086507797 0.24859707057476044 0.15231171250343323 0.10947133600711823 0.2024194449186325 0.0999523475766182 0.00016622617840766907 0.24829809367656708 0.17867326736450195 0.014070197939872742 0.20241910219192505 0.09902200102806091 -0.047795288264751434 0.24884214997291565 0.20578551292419434 -0.08404743671417236 0.2024187445640564 0.06049366295337677 -0.07756678014993668 0.24799245595932007 0.1262151002883911 -0.1498047262430191 0.2024187445640564 -0.0029807649552822113 -0.07912756502628326 0.24704806506633759 -0.0030413083732128143 -0.12954188883304596 0.2024187445640564 -0.0867023915052414 -0.11642677336931229 0.2024187445640564 -0.04578707367181778 -0.06637582927942276 0.24743370711803436 -0.215462327003479 -0.11081110686063766 0.10769768059253693 -0.2901924252510071 -0.14321765303611755 0.07934959977865219 -0.21568214893341064 -0.3005754053592682 0.022849958389997482 -0.15898273885250092 -0.22128193080425262 0.10261626541614532 0.04836916923522949 0.15415655076503754 0.09191907197237015 -0.0369439572095871 0.18050454556941986 0.11595886945724487 -0.0010041524656116962 -0.003027968807145953 0.01787818782031536 -0.23781926929950714 0.0966818630695343 0.08548354357481003 -0.13179278373718262 -0.06338720768690109 0.11067358404397964 -0.14652350544929504 0.058862440288066864 0.09791804850101471 0.22186870872974396 0.14998382329940796 0.05194922909140587 0.07883699238300323 0.2494264394044876 0.08832409232854843 0.12361689656972885 0.08144235610961914 0.07922226935625076 0.2443055510520935 -0.04353165626525879 0.09041032940149307 0.1464458853006363 -0.02595570683479309 0.09109508246183395 0.09753842651844025 -0.11407245695590973 0.08417908102273941 0.16211600601673126 -0.1900511085987091 0.08673602342605591 -0.01130581647157669 -0.14564979076385498 0.10263988375663757 -0.02377650886774063 -0.25015902519226074 0.0788457840681076 -0.07035095989704132 -0.14177481830120087 0.11477814614772797 -0.11052408069372177 -0.22295379638671875 0.10455969721078873 -0.09222932159900665 -0.12457491457462311 0.11580727249383926 -0.18434539437294006 0.21486030519008636 0.10842879116535187 -0.11757519841194153 0.13718131184577942 0.1039755567908287 -0.05071350932121277 0.246981680393219 0.07633889466524124 -0.3269001841545105 0.13605192303657532 0.009742453694343567 0.32604292035102844 0.21961991488933563 0.03964973986148834 0.11155346781015396 0.3505885601043701 0.06507929414510727 0.34919482469558716 -0.05995268374681473 0.0304682906717062 0.23122800886631012 -0.26518264412879944 0.051937032490968704 -0.026963621377944946 -0.338781476020813 -0.025205479934811592 -0.14473697543144226 -0.29431936144828796 0.022582601755857468 -0.2484075278043747 0.2976462244987488 0.06538905203342438 -0.06267407536506653 0.3174865245819092 0.013426167890429497 0.22241830825805664 0.04479233920574188 0.15794683992862701 0.29329541325569153 0.04992152750492096 0.15341214835643768 0.2773616909980774 0.20253843069076538 0.1036170944571495 0.20774218440055847 0.15315572917461395 0.15243946015834808 -0.07160641252994537 -0.09850315749645233 0.1873784065246582 -0.00991683080792427 -0.14527493715286255 0.18375009298324585 0.01944875158369541 0.0175288338214159 0.23294617235660553 0.18061815202236176 -0.13427194952964783 0.13129059970378876 0.14125953614711761 0.02970977872610092 0.2140057235956192 0.11820884793996811 -0.07626108825206757 0.2010243535041809 -0.21625351905822754 -0.04421299695968628 0.09533387422561646 -0.12700100243091583 -0.16868484020233154 0.12755145132541656 -0.11109831184148788 -0.01613989844918251 0.18935120105743408 -0.17903029918670654 0.12327612191438675 0.13332359492778778 -0.10005469620227814 0.07990080118179321 0.1973462849855423 -0.03371388092637062 0.1388649046421051 0.1895609050989151 -0.06789901852607727 0.22106212377548218 0.12867024540901184 0.06567974388599396 0.13330793380737305 0.21368347108364105 0.10407751798629761 0.216685488820076 0.12848427891731262 0.11281269788742065 0.11286397278308868 0.21220967173576355 0.16800211369991302 0.16871288418769836 0.15559962391853333 0.12620767951011658 0.09215366095304489 0.217958465218544 0.10175349563360214 -0.2168976366519928 0.1472824662923813 0.0711652934551239 -0.13290703296661377 0.19144435226917267 -0.019302725791931152 -0.20449702441692352 0.13069650530815125 0.24215012788772583 -0.19299963116645813 0.0920649990439415 -0.3251492381095886 -0.07154420018196106 0.11842331290245056 -0.18511897325515747 -0.24315392971038818 0.1408352553844452 -0.2626449167728424 0.16766487061977386 0.11033138632774353 -0.10455268621444702 0.30379873514175415 0.12925252318382263 0.13163186609745026 0.28948867321014404 0.061264198273420334 0.21654793620109558 0.21808305382728577 0.10338146239519119 0.12963706254959106 -0.3043975234031677 0.14110825955867767 -0.030584990978240967 -0.2665804922580719 0.09531158208847046 0.17243532836437225 -0.033625949174165726 0.21219797432422638 0.2301526963710785 -0.05517573654651642 0.1556372195482254 0.250103235244751 0.06534633040428162 0.1507434844970703 0.18566982448101044 0.0537867546081543 0.20869319140911102 -0.09760360419750214 -0.03827393054962158 0.2289295792579651 -0.06649234890937805 -0.09914642572402954 0.22057902812957764 0.018595144152641296 0.023812957108020782 0.21602487564086914 0.09296388179063797 -0.1558653712272644 0.19337980449199677 0.11471797525882721 -0.012076165527105331 0.23860841989517212 0.06440466642379761 -0.08686499297618866 0.23359522223472595 -0.19505533576011658 0.05929768458008766 0.18076826632022858 -0.17002975940704346 -0.07697240263223648 0.18223831057548523 -0.09870482236146927 0.04329504072666168 0.23390856385231018 -0.10794921964406967 0.17810478806495667 0.18791261315345764 -0.05675506219267845 0.11753193289041519 0.23342430591583252 0.018715478479862213 0.1406315416097641 0.23464223742485046 0.01879742741584778 0.22019405663013458 0.1922321915626526 0.09163923561573029 0.0985887423157692 0.23824164271354675 0.1390978842973709 0.14717251062393188 0.206978440284729 0.1173611506819725 0.06350193172693253 0.2378210425376892 0.1640949547290802 0.08228185027837753 0.21660897135734558 0.1212364137172699 0.04222715273499489 0.23829294741153717 -0.003000795841217041 -0.19665859639644623 0.17815466225147247 0.004826556891202927 -0.11674976348876953 0.2246987223625183 -0.09891584515571594 -0.14600133895874023 0.18633835017681122 0.12152307480573654 -0.22486574947834015 0.13670259714126587 -0.2914058268070221 0.07530032098293304 0.1298699676990509 -0.24245591461658478 -0.11567089706659317 0.13075153529644012 -0.15306338667869568 0.22499653697013855 0.1381557732820511 0.018879376351833344 0.29975658655166626 0.13470637798309326 0.18655656278133392 0.19575633108615875 0.148217111825943 0.2108287513256073 0.10106176137924194 0.16634678840637207 -0.010828115046024323 -0.2765674591064453 0.1301848441362381 -0.13133932650089264 -0.19285628199577332 0.1385827511548996 -0.12689581513404846 -0.1891346424818039 0.11613129824399948 -0.17191758751869202 -0.25379061698913574 0.11133304238319397 -0.028953276574611664 -0.3167731761932373 0.03596370667219162 -0.022813864052295685 -0.2332846075296402 0.09276831150054932 -0.0469101220369339 0.14685723185539246 0.16362585127353668 -0.1321956217288971 0.12764592468738556 0.14369674026966095 -0.00689450278878212 -0.016800228506326675 0.05176427587866783 -0.2530882954597473 -0.05187404155731201 0.08093611150979996 -0.08187404274940491 -0.12447866797447205 0.18830116093158722 -0.15854455530643463 -0.03840493783354759 0.17583417892456055 0.10490177571773529 0.23659628629684448 0.08425239473581314 -0.07185167819261551 0.24886417388916016 0.08964880555868149 0.05448471009731293 0.12232141941785812 0.17663754522800446 0.233986496925354 0.09258359670639038 0.07720240205526352 0.1331271082162857 0.046783447265625 0.17547157406806946 0.1377786099910736 -0.05404181778430939 0.17634841799736023 0.23631222546100616 -0.07940623909235 0.11256532371044159 0.06254232674837112 -0.13102799654006958 0.18996572494506836 0.10765723139047623 -0.20524479448795319 0.09562189877033234 0.010910555720329285 -0.15175071358680725 0.1806081235408783 0.019335493445396423 -0.21560615301132202 0.1034586951136589 -0.0166744664311409 -0.1497960388660431 0.18627583980560303 -0.27315080165863037 0.07995685189962387 0.08214621990919113 -0.17664748430252075 0.04488770663738251 0.1544209122657776 -0.17994290590286255 0.1826886534690857 0.06678216904401779 -0.34763211011886597 -0.06534314155578613 0.03596217930316925 0.15531881153583527 0.35087114572525024 0.11166730523109436 -0.09679323434829712 0.35087114572525024 0.10809291899204254 0.3348459005355835 0.13838370144367218 0.038053713738918304 0.3348458409309387 -0.10477065294981003 0.11415602266788483 0.1527721881866455 -0.2794615924358368 0.03706216812133789 0.02776043862104416 -0.2794615924358368 0.042566750198602676 -0.36965411901474 0.11502596735954285 0.08765514940023422 -0.22769023478031158 0.23773139715194702 0.028374437242746353 0.13729116320610046 -0.16277241706848145 0.14876101911067963 0.1739712953567505 -0.226948082447052 0.11381970345973969 0.30995985865592957 -0.14338018000125885 0.0620233528316021 0.2323358803987503 -0.10028216987848282 0.1430322825908661 -0.12932291626930237 0.04858837276697159 0.17937543988227844 -0.14545637369155884 -0.03030608966946602 0.1756013035774231 0.020455602556467056 0.015351995825767517 0.22677460312843323 -0.04946400597691536 -0.20407840609550476 0.1210334450006485 0.08665188401937485 -0.0934281051158905 0.2070729285478592 -0.023112032562494278 -0.11945532262325287 0.1935698390007019 -0.14343810081481934 0.20867657661437988 0.08363159000873566 -0.22006000578403473 0.06899157911539078 0.11714399605989456 -0.06982415169477463 0.12266494333744049 0.18142752349376678 0.030401721596717834 0.24907097220420837 0.12314813584089279 0.025226566940546036 0.15548962354660034 0.18974393606185913 0.11036353558301926 0.11977517604827881 0.18164566159248352 0.17209269106388092 0.1887994110584259 0.11830776184797287 0.1498422622680664 0.024046476930379868 0.2067377269268036 0.24531453847885132 0.0255194753408432 0.11811432987451553 0.15185882151126862 -0.029356088489294052 0.20520468056201935 0.22905969619750977 -0.05601132661104202 0.1463194638490677 0.13845565915107727 -0.051232531666755676 0.2111845463514328 -0.16242647171020508 -0.16725584864616394 0.13766802847385406 -0.0973978340625763 -0.10079912096261978 0.18360479176044464 -0.20522624254226685 -0.04813070595264435 0.12041546404361725 -0.07688281685113907 -0.28820085525512695 0.05000697821378708 -0.21803805232048035 0.2985303997993469 0.07742464542388916 -0.3160431385040283 0.09002143889665604 0.10073734074831009 0.03444163501262665 0.34745949506759644 0.0690075010061264 0.23321780562400818 0.26038163900375366 0.08868910372257233 0.3075990378856659 0.04072470963001251 0.09015480428934097 0.2971963882446289 -0.0793481096625328 0.06177825480699539 -0.23196285963058472 -0.23275355994701385 0.10102131962776184 -0.26853275299072266 -0.0654631108045578 0.05338404327630997</float_array>
				<technique_common>
				<accessor source="#id-mesh-7-positions-array" count="193" stride="3">
					<param name="X" type="float"/>
					<param name="Y" type="float"/>
					<param name="Z" type="float"/>
				</accessor>
				</technique_common>
			</source>
			<source id="id-mesh-7-normals">
				<float_array id="id-mesh-7-normals-array" count="579"> -0.37824639678001404 0.24909207224845886 0.8915371894836426 -0.06189153715968132 -0.02850428782403469 0.9976500868797302 -0.20807519555091858 0.3099459707736969 0.9276711344718933 -0.4522843062877655 0.2923978269100189 0.8425549864768982 -0.4831080138683319 -0.031281471252441406 0.8749961853027344 -0.4192022383213043 -0.0277718435972929 0.9074373841285706 -0.16965238749980927 0.3658559024333954 0.9150669574737549 0.029755547642707825 0.3324075937271118 0.9426557421684265 0.052888575941324234 0.3970763385295868 0.9162266850471497 0.18866541981697083 0.2850428819656372 0.939756453037262 0.23328348994255066 0.3481856882572174 0.9078951478004456 0.317239910364151 0.16467787325382233 0.9339274168014526 0.3968932032585144 0.22425000369548798 0.8900113105773926 0.3585619628429413 0.08142338693141937 0.9299294948577881 0.4595782458782196 0.11181981861591339 0.8810388445854187 0.3016449511051178 -0.1264687031507492 0.9449751377105713 0.36808374524116516 -0.1350138783454895 0.9199194312095642 0.08218634873628616 -0.4144718647003174 0.9063081741333008 0.16284677386283875 -0.4384899437427521 0.8838465809822083 -0.07501449435949326 -0.5028534531593323 0.861079752445221 -0.09277626872062683 -0.6217840909957886 0.7776421308517456 -0.3075350224971771 -0.47944578528404236 0.8218939900398254 -0.2529984414577484 -0.40781885385513306 0.8772850632667542 -0.3009124994277954 -0.06573686748743057 0.9513534903526306 -0.461104154586792 -0.1660817265510559 0.8716391324996948 -0.17929624021053314 -0.5862300395965576 0.7900326251983643 -0.1428266167640686 -0.4200567603111267 0.8961455225944519 0.09060945361852646 -0.12329477816820145 0.9882198572158813 0.07498397678136826 -0.025605030357837677 0.9968260526657104 0.053529463708400726 0.04586932063102722 0.9974974989891052 -0.38523513078689575 0.03805658221244812 0.922025203704834 0.1671193540096283 0.13824884593486786 0.9761650562286377 0.14554277062416077 -0.021271400153636932 0.9891048669815063 0.221686452627182 0.07461775839328766 0.9722281694412231 0.05230872333049774 0.21085238456726074 0.9761040210723877 -0.04220709949731827 -0.02453688159584999 0.9987792372703552 0.22605060040950775 0.0011597033590078354 0.9740898013114929 -0.1508529931306839 0.08175908774137497 0.9851374626159668 -0.07586901634931564 0.09649952501058578 0.9924314022064209 0.14740440249443054 -0.2934049367904663 0.9445478916168213 0.13101595640182495 0.14743492007255554 0.9803460836410522 0.06106753647327423 -0.5134434103965759 0.8559221029281616 0.17908261716365814 0.08432263880968094 0.9801934957504272 0.032135989516973495 -0.4459669888019562 0.8944364786148071 0.1516769975423813 0.14093448221683502 0.9783013463020325 -0.19290749728679657 0.24887844920158386 0.9490951299667358 0.057496871799230576 -0.10806604474782944 0.9924619197845459 -0.014648884534835815 0.4141972064971924 0.9100314378738403 -0.5637989640235901 0.06869716197252274 0.8230231404304504 0.25067904591560364 0.06601153314113617 0.965788722038269 -0.001037629321217537 0.24756614863872528 0.9688405990600586 0.35163426399230957 -0.03885006159543991 0.9353007674217224 0.23499251902103424 -0.4203619360923767 0.8763695359230042 0.008514664135873318 -0.6964018940925598 0.7175511717796326 -0.004119998775422573 -0.7457808256149292 0.6661275029182434 -0.28019043803215027 0.35233619809150696 0.8929105401039124 -0.06021301820874214 0.5407574772834778 0.8389843702316284 0.4109927713871002 -0.03662221133708954 0.9108859300613403 0.24942778050899506 0.01315347757190466 0.9682912826538086 0.2376781553030014 0.40858179330825806 0.8811914324760437 0.3115024268627167 0.37839898467063904 0.8716391324996948 -0.3482162058353424 -0.32236701250076294 0.8802148699760437 -0.15280617773532867 -0.4592120051383972 0.8750572204589844 -0.07596056908369064 -0.029206212610006332 0.9966734647750854 0.3819391429424286 -0.22812585532665253 0.8955656886100769 0.4122135043144226 -0.08444471657276154 0.9071321487426758 0.364970862865448 -0.2631305754184723 0.8930326104164124 -0.2229071855545044 -0.0014954069629311562 0.9748222231864929 -0.143803209066391 -0.1742606908082962 0.9741203188896179 -0.4936979413032532 -0.1189916655421257 0.861415445804596 -0.27210304141044617 0.09909360110759735 0.9571214914321899 -0.4108401834964752 0.19202245771884918 0.8912320137023926 -0.19174779951572418 0.47071748971939087 0.861171305179596 -0.0631733164191246 0.38422802090644836 0.921048641204834 0.018768884241580963 0.44721823930740356 0.8942228555679321 0.13309122622013092 0.5771355032920837 0.8056886196136475 0.1674245446920395 0.42585527896881104 0.8891262412071228 0.22550126910209656 0.5805841088294983 0.7823114991188049 0.2759178578853607 0.21713919937610626 0.9363078474998474 0.11416974663734436 -0.3025605082511902 0.9462568759918213 0.13135166466236115 -0.395886093378067 0.9088411927223206 -0.12863551080226898 -0.4044923186302185 0.9054231643676758 0.3112277686595917 -0.1349528431892395 0.9406720399856567 0.033753469586372375 0.08783227205276489 0.9955443143844604 0.08893093466758728 0.038636431097984314 0.9952696561813354 -0.05609302222728729 -0.005767998285591602 0.9983825087547302 0.01901303231716156 0.22669148445129395 0.9737541079521179 0.1664174348115921 0.5178380608558655 0.8391064405441284 0.1818903088569641 0.6035035252571106 0.7762992978096008 0.07333597540855408 -0.17853328585624695 0.9811700582504272 -0.07629626989364624 -0.2535783052444458 0.964293360710144 0.5101473927497864 -0.22562333941459656 0.8299203515052795 0.6093630790710449 -0.2605670392513275 0.748802125453949 0.6655781865119934 0.08584856986999512 0.7413556575775146 0.5713370442390442 0.08957182615995407 0.8157902956008911 -0.206488236784935 -0.13870662450790405 0.9685354232788086 -0.17291787266731262 -0.2684713304042816 0.9476302266120911 -0.05249183624982834 -0.04141361638903618 0.9977416396141052 0.2946562170982361 -0.4700460731983185 0.8319650888442993 0.13205358386039734 -0.08566545695066452 0.9875179529190063 0.057466354221105576 -0.2071596384048462 0.9765923023223877 -0.4834742248058319 0.10715048760175705 0.868739902973175 -0.45674002170562744 -0.24805444478988647 0.8542740941047668 -0.22476881742477417 0.03421124815940857 0.9737846255302429 -0.32941678166389465 0.4279610514640808 0.8415784239768982 -0.16461683809757233 0.19504378736019135 0.9668568968772888 -0.010864589363336563 0.24011963605880737 0.9706717133522034 0.02130191959440708 0.5531479716300964 0.8327890634536743 0.0799279734492302 0.14011047780513763 0.9868770241737366 0.38355663418769836 0.41532638669013977 0.8248237371444702 0.13287758827209473 0.06271553784608841 0.9891353845596313 0.4822534918785095 0.22754600644111633 0.8459425568580627 0.13180944323539734 0.0099795525893569 0.9912106394767761 -0.05316324532032013 -0.5319070816040039 0.8451185822486877 -0.06009094417095184 -0.28345590829849243 0.9570909738540649 -0.31223487854003906 -0.4518570601940155 0.8356273174285889 0.299752801656723 -0.5154576301574707 0.8027588725090027 -0.4899136424064636 0.09634693711996078 0.8663899898529053 -0.46598711609840393 -0.2616962194442749 0.8451796174049377 -0.35261085629463196 0.44950711727142334 0.8207037448883057 0.012024292722344398 0.6026185154914856 0.7979064583778381 0.43131810426712036 0.4826502203941345 0.7621997594833374 0.6140934228897095 0.317117840051651 0.7226783037185669 -0.056581318378448486 -0.5526902079582214 0.8314157724380493 -0.335276335477829 -0.4834742248058319 0.808557391166687 -0.24936674535274506 -0.4029664099216461 0.8805505633354187 -0.08606219291687012 -0.22721029818058014 0.9700308442115784 0.18750572204589844 -0.5182042717933655 0.8344065546989441 0.10794396698474884 -0.6086916923522949 0.7860041856765747 -0.17142246663570404 0.08340708911418915 0.981627881526947 -0.22498245537281036 0.20181889832019806 0.9532151222229004 -0.05963316559791565 0.1112094521522522 0.9919736385345459 -0.4458754360675812 -0.12521743774414062 0.886257529258728 -0.06769005209207535 -0.05655079707503319 0.9960936307907104 -0.1577196568250656 0.051149021834135056 0.9861446022987366 0.17081210017204285 0.12863551080226898 0.9768364429473877 -0.1990112066268921 0.1818597912788391 0.9629505276679993 0.01913510635495186 0.0796838253736496 0.9966124296188354 0.3229773938655853 0.17740409076213837 0.9296243190765381 0.13275551795959473 0.0794702023267746 0.9879451990127563 0.1348612904548645 -0.023194067180156708 0.9905697703361511 0.32068848609924316 -0.12265388667583466 0.939176619052887 -0.01580858789384365 -0.09878841787576675 0.9949644207954407 0.18717001378536224 -0.5678884387016296 0.8015075922012329 0.05633717030286789 -0.1659596562385559 0.9844965934753418 0.13803522288799286 -0.6968901753425598 0.7037262916564941 0.12216559052467346 -0.09903256595134735 0.9875484704971313 -0.31208229064941406 0.13187047839164734 0.9408246278762817 -0.1658986210823059 0.16504409909248352 0.9722281694412231 -0.3159581422805786 0.3073519170284271 0.8975799083709717 -0.26715904474258423 -0.11609241366386414 0.9566026926040649 0.07794427126646042 -0.14743492007255554 0.9859614968299866 -0.16531877219676971 -0.13980528712272644 0.9762566089630127 0.16064943373203278 0.07770012319087982 0.9839167594909668 0.1353495866060257 -0.02691732533276081 0.9904171824455261 0.08883938193321228 -0.5088351368904114 0.8562577962875366 0.14664143323898315 -0.6220892667770386 0.7690664529800415 -0.12219610810279846 0.06546220183372498 0.9903256297111511 -0.1899777203798294 0.14694662392139435 0.9707022309303284 0.20508438348770142 -0.5293740630149841 0.8232062458992004 0.23407696187496185 -0.49632251262664795 0.8359630107879639 0.6439100503921509 -0.14410839974880219 0.7513657212257385 0.5824762582778931 -0.19455549120903015 0.7891781330108643 -0.44123661518096924 0.1746574342250824 0.8802148699760437 -0.48014771938323975 -0.060701314359903336 0.8750572204589844 -0.059175390750169754 0.055848874151706696 0.9966734647750854 -0.035401470959186554 -0.5896176099777222 0.8068788647651672 0.10202337801456451 -0.40824609994888306 0.9071321487426758 -0.0795007199048996 -0.4428540766239166 0.8930326104164124 -0.19287697970867157 0.3270668685436249 0.9250770807266235 -0.39371928572654724 0.07583849877119064 0.9160740971565247 -0.32071900367736816 0.39374980330467224 0.861415445804596 -0.006836146116256714 0.4459975063800812 0.8949857950210571 -0.004425183869898319 0.4534745216369629 0.8912320137023926 0.3415936827659607 0.37638476490974426 0.861171305179596 0.3191015422344208 0.33622241020202637 0.886043906211853 0.4113894999027252 0.17636646330356598 0.8942228555679321 0.5630359649658203 0.09118930995464325 0.8213751912117004 0.45640429854393005 0.03308206424117088 0.8891262412071228 0.6565141677856445 0.0036011841148138046 0.7542649507522583 0.3150731027126312 -0.15494246780872345 0.9363078474998474 -0.34504225850105286 -0.34592729806900024 0.8724631667137146 -0.300210565328598 -0.28955960273742676 0.9088411927223206 -0.5648060441017151 -0.09826959669589996 0.8193303942680359 -0.01223792228847742 -0.5842463374137878 0.8114566206932068 -0.07083345949649811 0.2148503065109253 0.9740592837333679 -0.22815637290477753 -0.017944883555173874 0.9734488725662231 -0.0036317026242613792 0.32816553115844727 0.9445784091949463 0.22782067954540253 0.2839442193508148 0.9313638806343079 0.4983672499656677 0.029084138572216034 0.8664510250091553 0.7245399355888367 0.023987548425793648 0.6888027787208557 -0.33036285638809204 -0.32972198724746704 0.8843653798103333 -0.5433515310287476 -0.11813715100288391 0.8311411142349243</float_array>
				<technique_common>
				<accessor source="#id-mesh-7-normals-array" count="193" stride="3">
					<param name="X" type="float"/>
					<param name="Y" type="float"/>
					<param name="Z" type="float"/>
				</accessor>
				</technique_common>
			</source>
			<source id="id-mesh-7-texcoord-0">
				<float_array id="id-mesh-7-texcoord-0-array" count="386"> 0.2183644026517868 0.15244826674461365 0.24515286087989807 0.15787774324417114 0.21506527066230774 0.2144748717546463 0.19231972098350525 0.1471695601940155 0.2099153697490692 0.0 0.22862915694713593 0.08384514600038528 0.17533789575099945 0.2892051935195923 0.21856579184532166 0.23901864886283875 0.18917232751846313 0.3287244439125061 0.23726758360862732 0.28399479389190674 0.22978419065475464 0.40368422865867615 0.24917611479759216 0.28412097692489624 0.25298649072647095 0.40368419885635376 0.2708526849746704 0.2640731930732727 0.2925959825515747 0.3539195656776428 0.2857763469219208 0.2246127724647522 0.3333333134651184 0.30273789167404175 0.2866816818714142 0.16629478335380554 0.3333333134651184 0.17575009167194366 0.27126234769821167 0.10660117864608765 0.29037946462631226 0.06905698776245117 0.262577623128891 0.0 0.25426703691482544 0.07529853284358978 0.8407151103019714 0.4903821349143982 0.825807511806488 0.4303184449672699 0.8731457591056824 0.3718092143535614 0.8751787543296814 0.4493679106235504 0.8671998977661133 0.8025098443031311 0.8389601707458496 0.7846630811691284 0.8804498910903931 0.6504762768745422 0.798930287361145 0.617893636226654 0.8556225299835205 0.5504458546638489 0.8302355408668518 0.6304060816764832 0.9174677133560181 0.8858751058578491 0.8589413166046143 0.8972716927528381 0.9007736444473267 0.7797166705131531 0.9602102041244507 0.7520909905433655 0.9268136620521545 0.7095438838005066 0.9283538460731506 0.6158798336982727 0.960980236530304 0.5923169255256653 0.9034417867660522 0.5443616509437561 0.9183801412582397 0.4754161834716797 0.8863453269004822 0.5251107811927795 0.8891350030899048 0.4657907485961914 0.877211332321167 0.5269266366958618 0.7922870516777039 0.7403610944747925 0.8242412209510803 0.7077827453613281 0.8231501579284668 0.8357963562011719 0.7676249146461487 0.6053812503814697 0.9341617822647095 0.9920334219932556 0.8506824374198914 0.9920334219932556 0.9936065077781677 0.7946381568908691 0.9936065077781677 0.5687540173530579 0.9333186745643616 0.4064706861972809 0.8919248580932617 0.40647071599960327 0.7603330612182617 0.7729393839836121 0.8073399662971497 0.8869296312332153 0.5115084052085876 0.48913654685020447 0.4963270127773285 0.42796987295150757 0.5445345640182495 0.3683862090110779 0.5466047525405884 0.44736915826797485 0.5384793877601624 0.8069959878921509 0.5097212195396423 0.7888215184211731 0.5519726872444153 0.6521705389022827 0.4689561128616333 0.6189895868301392 0.5266896486282349 0.5503032207489014 0.5008363127708435 0.6317318081855774 0.5896704196929932 0.89189213514328 0.5300691723823547 0.9034979939460754 0.5726697444915771 0.7837842702865601 0.6331977248191833 0.7556512951850891 0.5991880297660828 0.7123228311538696 0.6007564663887024 0.6169387698173523 0.6339820027351379 0.5929431915283203 0.5753868818283081 0.5441073179244995 0.590599536895752 0.47389575839042664 0.5579765439033508 0.5245029330253601 0.560817539691925 0.46409356594085693 0.5486748814582825 0.5263521075248718 0.46219104528427124 0.7437059879302979 0.49473196268081665 0.7105293869972229 0.49362075328826904 0.8408937454223633 0.43707603216171265 0.6062474250793457 0.6066709756851196 1.0 0.5216587781906128 1.0 0.6672074794769287 0.7989797592163086 0.6672074794769287 0.5689475536346436 0.6058123707771301 0.40368419885635376 0.5636584162712097 0.40368422865867615 0.42965012788772583 0.776882529258728 0.4775203764438629 0.8929660320281982 0.1730346381664276 0.47980380058288574 0.15785323083400726 0.41863712668418884 0.20606079697608948 0.35905346274375916 0.20813097059726715 0.43803641200065613 0.20000562071800232 0.7976632118225098 0.1712474524974823 0.779488742351532 0.21349892020225525 0.6428377628326416 0.13048233091831207 0.609656810760498 0.18821588158607483 0.5409704446792603 0.16236253082752228 0.6223990321159363 0.25119665265083313 0.8825593590736389 0.1915953904390335 0.8941652178764343 0.23419596254825592 0.774451494216919 0.2947239279747009 0.746318519115448 0.26071426272392273 0.7029900550842285 0.26228269934654236 0.6076059937477112 0.2955082356929779 0.5836104154586792 0.23691309988498688 0.5347745418548584 0.25212574005126953 0.4645630121231079 0.2195027768611908 0.515170156955719 0.22234377264976501 0.4547608196735382 0.21020111441612244 0.5170193314552307 0.12371726334095001 0.7343732118606567 0.15625818073749542 0.7011966109275818 0.15514697134494781 0.8315609693527222 0.09860227257013321 0.5969146490097046 0.2681972086429596 0.9906672239303589 0.18318501114845276 0.9906672239303589 0.3287337124347687 0.7896469831466675 0.3287337124347687 0.5596147775650024 0.2673386037349701 0.39435145258903503 0.2251846343278885 0.3943514823913574 0.0911763459444046 0.7675497531890869 0.13904662430286407 0.8836332559585571 0.5115084052085876 0.48913654685020447 0.4963270127773285 0.42796987295150757 0.5445345640182495 0.3683862090110779 0.5466047525405884 0.44736915826797485 0.5384793877601624 0.8069959878921509 0.5097212195396423 0.7888215184211731 0.5519726872444153 0.6521705389022827 0.4689561128616333 0.6189895868301392 0.5266896486282349 0.5503032207489014 0.5008363127708435 0.6317318081855774 0.5896704196929932 0.89189213514328 0.5300691723823547 0.9034979939460754 0.5726697444915771 0.7837842702865601 0.6331977248191833 0.7556512951850891 0.5991880297660828 0.7123228311538696 0.6007564663887024 0.6169387698173523 0.6339820027351379 0.5929431915283203 0.5753868818283081 0.5441073179244995 0.590599536895752 0.47389575839042664 0.5579765439033508 0.5245029330253601 0.560817539691925 0.46409356594085693 0.5486748814582825 0.5263521075248718 0.46219104528427124 0.7437059879302979 0.49473196268081665 0.7105293869972229 0.49362075328826904 0.8408937454223633 0.43707603216171265 0.6062474250793457 0.6066709756851196 1.0 0.5216587781906128 1.0 0.6672074794769287 0.7989797592163086 0.6672074794769287 0.5689475536346436 0.6058123707771301 0.40368419885635376 0.5636584162712097 0.40368422865867615 0.42965012788772583 0.776882529258728 0.4775203764438629 0.8929660320281982 0.5115084052085876 0.48913654685020447 0.4963270127773285 0.42796987295150757 0.5445345640182495 0.3683862090110779 0.5466047525405884 0.44736915826797485 0.5384793877601624 0.8069959878921509 0.5097212195396423 0.7888215184211731 0.5519726872444153 0.6521705389022827 0.4689561128616333 0.6189895868301392 0.5266896486282349 0.5503032207489014 0.5008363127708435 0.6317318081855774 0.5896704196929932 0.89189213514328 0.5300691723823547 0.9034979939460754 0.5726697444915771 0.7837842702865601 0.6331977248191833 0.7556512951850891 0.5991880297660828 0.7123228311538696 0.6007564663887024 0.6169387698173523 0.6339820027351379 0.5929431915283203 0.5753868818283081 0.5441073179244995 0.590599536895752 0.47389575839042664 0.5579765439033508 0.5245029330253601 0.560817539691925 0.46409356594085693 0.5486748814582825 0.5263521075248718 0.46219104528427124 0.7437059879302979 0.49473196268081665 0.7105293869972229 0.49362075328826904 0.8408937454223633 0.43707603216171265 0.6062474250793457 0.6066709756851196 1.0 0.5216587781906128 1.0 0.6672074794769287 0.7989797592163086 0.6672074794769287 0.5689475536346436 0.6058123707771301 0.40368419885635376 0.5636584162712097 0.40368422865867615 0.42965012788772583 0.776882529258728 0.4775203764438629 0.8929660320281982</float_array>
				<technique_common>
				<accessor source="#id-mesh-7-texcoord-0-array" count="193" stride="2">
					<param name="S" type="float"/>
					<param name="T" type="float"/>
				</accessor>
				</technique_common>
			</source>
			<vertices id="id-mesh-7-vertices">
				<input semantic="POSITION" source="#id-mesh-7-positions"/>
			</vertices>
			<polygons count="187" material="id-trimat-8">
				<input semantic="VERTEX" source="#id-mesh-7-vertices" offset="0"/>
				<input semantic="NORMAL" source="#id-mesh-7-normals" offset="0"/>
				<input semantic="TEXCOORD" source="#id-mesh-7-texcoord-0" offset="0" set="0"/>
				<p> 0 1 2 </p>
				<p> 3 4 5 0 </p>
				<p> 6 2 7 8 </p>
				<p> 8 7 9 10 </p>
				<p> 10 9 11 12 </p>
				<p> 12 11 13 14 </p>
				<p> 14 13 15 16 </p>
				<p> 17 18 16 15 </p>
				<p> 19 20 18 17 </p>
				<p> 21 20 19 22 </p>
				<p> 4 21 22 5 </p>
				<p> 11 1 13 </p>
				<p> 2 1 7 </p>
				<p> 22 19 1 </p>
				<p> 13 1 15 </p>
				<p> 7 1 9 </p>
				<p> 5 22 1 </p>
				<p> 1 17 15 </p>
				<p> 9 1 11 </p>
				<p> 0 5 1 </p>
				<p> 1 19 17 </p>
				<p> 3 0 2 6 </p>
				<p> 23 24 25 26 </p>
				<p> 27 28 29 </p>
				<p> 30 23 31 32 </p>
				<p> 33 34 27 35 </p>
				<p> 36 33 35 37 </p>
				<p> 36 37 38 39 </p>
				<p> 39 38 40 41 </p>
				<p> 41 40 42 43 </p>
				<p> 43 42 44 26 </p>
				<p> 45 30 32 46 </p>
				<p> 47 45 46 28 </p>
				<p> 38 29 40 </p>
				<p> 35 27 29 </p>
				<p> 28 46 29 </p>
				<p> 29 31 44 </p>
				<p> 40 29 42 </p>
				<p> 37 35 29 </p>
				<p> 42 29 44 </p>
				<p> 37 29 38 </p>
				<p> 32 31 29 </p>
				<p> 46 32 29 </p>
				<p> 34 47 28 27 </p>
				<p> 31 23 26 44 </p>
				<p> 48 24 23 30 </p>
				<p> 49 50 34 33 </p>
				<p> 51 49 33 36 </p>
				<p> 51 36 39 52 </p>
				<p> 52 39 41 53 </p>
				<p> 53 41 43 54 </p>
				<p> 54 43 26 25 </p>
				<p> 55 48 30 45 </p>
				<p> 56 55 45 47 </p>
				<p> 50 56 47 34 </p>
				<p> 57 58 59 60 </p>
				<p> 61 62 63 </p>
				<p> 64 57 65 66 </p>
				<p> 67 68 61 69 </p>
				<p> 70 67 69 71 </p>
				<p> 70 71 72 73 </p>
				<p> 73 72 74 75 </p>
				<p> 75 74 76 77 </p>
				<p> 77 76 78 60 </p>
				<p> 79 64 66 80 </p>
				<p> 81 79 80 62 </p>
				<p> 72 63 74 </p>
				<p> 69 61 63 </p>
				<p> 62 80 63 </p>
				<p> 63 65 78 </p>
				<p> 74 63 76 </p>
				<p> 71 69 63 </p>
				<p> 76 63 78 </p>
				<p> 71 63 72 </p>
				<p> 66 65 63 </p>
				<p> 80 66 63 </p>
				<p> 68 81 62 61 </p>
				<p> 65 57 60 78 </p>
				<p> 82 58 57 64 </p>
				<p> 83 84 68 67 </p>
				<p> 85 83 67 70 </p>
				<p> 85 70 73 86 </p>
				<p> 86 73 75 87 </p>
				<p> 87 75 77 88 </p>
				<p> 88 77 60 59 </p>
				<p> 89 82 64 79 </p>
				<p> 90 89 79 81 </p>
				<p> 84 90 81 68 </p>
				<p> 91 92 93 94 </p>
				<p> 95 96 97 </p>
				<p> 98 91 99 100 </p>
				<p> 101 102 95 103 </p>
				<p> 104 101 103 105 </p>
				<p> 104 105 106 107 </p>
				<p> 107 106 108 109 </p>
				<p> 109 108 110 111 </p>
				<p> 111 110 112 94 </p>
				<p> 113 98 100 114 </p>
				<p> 115 113 114 96 </p>
				<p> 106 97 108 </p>
				<p> 103 95 97 </p>
				<p> 96 114 97 </p>
				<p> 97 99 112 </p>
				<p> 108 97 110 </p>
				<p> 105 103 97 </p>
				<p> 110 97 112 </p>
				<p> 105 97 106 </p>
				<p> 100 99 97 </p>
				<p> 114 100 97 </p>
				<p> 102 115 96 95 </p>
				<p> 99 91 94 112 </p>
				<p> 116 92 91 98 </p>
				<p> 117 118 102 101 </p>
				<p> 119 117 101 104 </p>
				<p> 119 104 107 120 </p>
				<p> 120 107 109 121 </p>
				<p> 121 109 111 122 </p>
				<p> 122 111 94 93 </p>
				<p> 123 116 98 113 </p>
				<p> 124 123 113 115 </p>
				<p> 118 124 115 102 </p>
				<p> 125 126 127 128 </p>
				<p> 129 130 131 </p>
				<p> 132 125 133 134 </p>
				<p> 135 136 129 137 </p>
				<p> 138 135 137 139 </p>
				<p> 138 139 140 141 </p>
				<p> 141 140 142 143 </p>
				<p> 143 142 144 145 </p>
				<p> 145 144 146 128 </p>
				<p> 147 132 134 148 </p>
				<p> 149 147 148 130 </p>
				<p> 140 131 142 </p>
				<p> 137 129 131 </p>
				<p> 130 148 131 </p>
				<p> 131 133 146 </p>
				<p> 142 131 144 </p>
				<p> 139 137 131 </p>
				<p> 144 131 146 </p>
				<p> 139 131 140 </p>
				<p> 134 133 131 </p>
				<p> 148 134 131 </p>
				<p> 136 149 130 129 </p>
				<p> 133 125 128 146 </p>
				<p> 150 126 125 132 </p>
				<p> 151 152 136 135 </p>
				<p> 153 151 135 138 </p>
				<p> 153 138 141 154 </p>
				<p> 154 141 143 155 </p>
				<p> 155 143 145 156 </p>
				<p> 156 145 128 127 </p>
				<p> 157 150 132 147 </p>
				<p> 158 157 147 149 </p>
				<p> 152 158 149 136 </p>
				<p> 159 160 161 162 </p>
				<p> 163 164 165 </p>
				<p> 166 159 167 168 </p>
				<p> 169 170 163 171 </p>
				<p> 172 169 171 173 </p>
				<p> 172 173 174 175 </p>
				<p> 175 174 176 177 </p>
				<p> 177 176 178 179 </p>
				<p> 179 178 180 162 </p>
				<p> 181 166 168 182 </p>
				<p> 183 181 182 164 </p>
				<p> 174 165 176 </p>
				<p> 171 163 165 </p>
				<p> 164 182 165 </p>
				<p> 165 167 180 </p>
				<p> 176 165 178 </p>
				<p> 173 171 165 </p>
				<p> 178 165 180 </p>
				<p> 173 165 174 </p>
				<p> 168 167 165 </p>
				<p> 182 168 165 </p>
				<p> 170 183 164 163 </p>
				<p> 167 159 162 180 </p>
				<p> 184 160 159 166 </p>
				<p> 185 186 170 169 </p>
				<p> 187 185 169 172 </p>
				<p> 187 172 175 188 </p>
				<p> 188 175 177 189 </p>
				<p> 189 177 179 190 </p>
				<p> 190 179 162 161 </p>
				<p> 191 184 166 181 </p>
				<p> 192 191 181 183 </p>
				<p> 186 192 183 170 </p>
			</polygons>
		</mesh>
	</geometry>
</library_geometries>
<library_visual_scenes>
	<visual_scene id="id-scene-1" name="scene">
		<node id="bush_green_medium" name="bush_green_medium" type="NODE">
			<matrix sid="transform"> 1.0 0.0 0.0 0.0 0.0 1.0 0.0 0.0 0.0 0.0 1.0 0.0 0.0 0.0 0.0 1.0  </matrix>
			<instance_geometry url="#id-mesh-7">
				<bind_material>
					<technique_common>
						<instance_material symbol="id-trimat-8" target="#id-material-6"/>
					</technique_common>
				</bind_material>
			</instance_geometry>
		</node>
	</visual_scene>
</library_visual_scenes>
<scene>
	<instance_visual_scene url="#id-scene-1" />
</scene>
</COLLADA>
