<?xml version="1.0" encoding="utf-8"?>
<COLLADA xmlns="http://www.collada.org/2005/11/COLLADASchema" version="1.4.1">
<asset>
	<contributor>
		<author>Anonymous</author>
		<authoring_tool>Collada Exporter for Blender 2.6+, by Juan Linietsky (juan@codenix.com)</authoring_tool>
	</contributor>
	<created>2018-08-13T12:12:03Z</created>
	<modified>2018-08-13T12:12:03Z</modified>
	<unit meter="1.0" name="meter"/>
	<up_axis>Z_UP</up_axis>
</asset>
<library_images>
	<image id="id-image-3" name="bush_leaves_green.png">
		<init_from>bush_leaves_green.png</init_from>
	</image>
</library_images>
<library_effects>
	<effect id="id-fx-2" name="bush_leaves_green-fx">
		<profile_COMMON>
			<newparam sid="id-fx_surf-4">
				<surface type="2D">
					<init_from>id-image-3</init_from>
					<format>A8R8G8B8</format>
				</surface>
			</newparam>
			<newparam sid="id-fx_sampler-5">
				<sampler2D>
					<source>id-fx_surf-4</source>
				</sampler2D>
			</newparam>
			<technique sid="common">
				<blinn>
					<emission>
						<color>  0.0 0.0 0.0 1.0 </color>
					</emission>
					<ambient>
						<color>  0.0 0.0 0.0 1.0 </color>
					</ambient>
					<diffuse>
						<texture texture="id-fx_sampler-5" texcoord="CHANNEL1"/>
					</diffuse>
					<specular>
						<color>  0.5 0.5 0.5 1.0 </color>
					</specular>
					<shininess>
						<float>50</float>
					</shininess>
					<reflective>
						<color>  1.0 1.0 1.0 1.0 </color>
					</reflective>
					<index_of_refraction>
						<float>4.0</float>
					</index_of_refraction>
				</blinn>
				<extra>
					<technique profile="FCOLLADA">
					</technique>
					<technique profile="GOOGLEEARTH">
						<double_sided>0</double_sided>
					</technique>
				</extra>
			</technique>
		</profile_COMMON>
	</effect>
</library_effects>
<library_materials>
	<material id="id-material-6" name="bush_leaves_green">
		<instance_effect url="#id-fx-2"/>
	</material>
</library_materials>
<library_geometries>
	<geometry id="id-mesh-7" name="Plane.014">
		<mesh>
			<source id="id-mesh-7-positions">
				<float_array id="id-mesh-7-positions-array" count="639"> -0.0920552909374237 0.029921263456344604 0.2268168330192566 -0.3521040976047516 0.10313250869512558 0.159135639667511 -0.3599310517311096 -0.10629748553037643 0.15102477371692657 -0.14424285292625427 -0.18822699785232544 0.15477675199508667 0.009323148988187313 0.20451462268829346 0.13105927407741547 -0.19852423667907715 0.2773803770542145 0.10616572946310043 -0.3013475239276886 0.335062712430954 0.05494929477572441 -0.49963322281837463 0.15530213713645935 0.03775486722588539 -0.45367375016212463 -0.043541088700294495 0.0768718272447586 0.04646727070212364 0.0629555806517601 0.25266310572624207 0.08227711170911789 0.3186618685722351 0.13892978429794312 -0.12587203085422516 0.2944483160972595 0.130055233836174 -0.17560544610023499 0.07219642400741577 0.17270095646381378 0.23563933372497559 -0.023324158042669296 0.17583107948303223 0.2779291868209839 0.1870907098054886 0.1137344017624855 0.3209521472454071 0.2891273498535156 0.04453456029295921 0.11460955440998077 0.45412200689315796 -0.007586565800011158 -0.07609553635120392 0.38527220487594604 0.03981756046414375 -0.0916985422372818 0.006891176104545593 0.31067168712615967 -0.31213849782943726 -0.08825750648975372 0.2181156426668167 -0.19355544447898865 -0.23756656050682068 0.20273801684379578 0.004251927137374878 -0.1689627468585968 0.23142880201339722 -0.11995995044708252 0.1953272819519043 0.24312852323055267 -0.3059881031513214 0.12678387761116028 0.1960371732711792 -0.41255536675453186 0.11156671494245529 0.07175334542989731 -0.4431783854961395 -0.12746986746788025 0.024391546845436096 -0.2957454323768616 -0.2420317530632019 0.05906622111797333 0.020583251491189003 -0.06431704014539719 0.3404994606971741 0.12005008012056351 -0.2777661681175232 0.23677147924900055 0.2496953010559082 -0.12501762807369232 0.21116739511489868 0.1951114982366562 0.03879445046186447 0.26757174730300903 -0.16699090600013733 -0.09214985370635986 0.27042651176452637 -0.09495463967323303 -0.27415433526039124 0.2137925773859024 -0.0772521123290062 -0.37358513474464417 0.0840437114238739 0.1625169962644577 -0.3974703848361969 0.03650779277086258 0.2742955982685089 -0.2501625418663025 0.07974168658256531 0.05665374547243118 0.04819176718592644 0.3537091910839081 0.16684994101524353 0.25630465149879456 0.24998117983341217 -0.01914670318365097 0.3002518117427826 0.24188736081123352 -0.13088099658489227 0.12515157461166382 0.28078144788742065 0.19202972948551178 -0.08459406346082687 0.283636212348938 0.29370203614234924 0.08267105370759964 0.22700229287147522 0.36231085658073425 0.1567835807800293 0.09725342690944672 0.23668313026428223 0.36239826679229736 0.04971751198172569 0.05176694691181183 0.36265096068382263 0.09295140206813812 0.19155189394950867 0.16467279195785522 0.13488346338272095 0.26886671781539917 0.22309696674346924 0.12898164987564087 0.12572897970676422 0.3512932360172272 0.03627804294228554 0.08669383823871613 0.2560117840766907 0.10614719241857529 -0.030178815126419067 -0.1976862996816635 0.19330133497714996 0.07687673717737198 -0.20776425302028656 0.16878868639469147 -0.01452361885458231 0.008948604576289654 0.05571259930729866 0.28673624992370605 -0.04397806152701378 0.09159369766712189 0.1142369955778122 0.10624858736991882 0.2236517369747162 0.1710459440946579 -0.023653067648410797 0.20831744372844696 -0.24193525314331055 -0.2446930706501007 0.09567268937826157 -0.03993663191795349 -0.326480895280838 0.10231022536754608 -0.1393788605928421 -0.1303076446056366 0.2093055695295334 -0.3379252254962921 -0.027043363079428673 0.0870012491941452 -0.20251363515853882 -0.011973151937127113 0.2078714370727539 -0.1694813072681427 0.10769772529602051 0.2089499831199646 -0.2750195264816284 0.17495355010032654 0.13049732148647308 -0.05213154852390289 0.1690109670162201 0.22569914162158966 -0.07656638324260712 0.27300766110420227 0.10965708643198013 0.016149058938026428 0.1735413819551468 0.21418938040733337 0.030662667006254196 0.2514228820800781 0.11929628252983093 0.047658685594797134 0.16073031723499298 0.22116060554981232 0.259893536567688 -0.20578442513942719 0.09308211505413055 0.1604323834180832 -0.12795546650886536 0.18197932839393616 0.11170579493045807 -0.2903449535369873 0.07418447732925415 0.4024266004562378 -0.06430304795503616 0.036276161670684814 -0.319471538066864 -0.3090382218360901 0.12939277291297913 -0.024674303829669952 -0.40523526072502136 0.12499632686376572 -0.4733369052410126 -0.04211358353495598 0.03884873166680336 -0.3805577754974365 0.242209330201149 0.13245388865470886 -0.10100121796131134 0.3770044445991516 0.0376291386783123 0.045176275074481964 0.32930436730384827 0.04439972713589668 0.35935473442077637 -0.2836134135723114 0.09985805302858353 0.14653487503528595 -0.372925728559494 0.026943311095237732 0.22416554391384125 -0.04371374845504761 0.3026489019393921 0.2991981506347656 -0.07172848284244537 0.21733319759368896 0.3251338005065918 0.08495018631219864 0.20995154976844788 0.24137035012245178 0.06992270797491074 0.2973622977733612 -0.1268850713968277 -0.049756117165088654 0.3278866410255432 -0.0868978500366211 -0.135173037648201 0.29811930656433105 0.02417328953742981 0.030956832692027092 0.3084213137626648 0.1236630380153656 -0.21779361367225647 0.27933603525161743 0.14913295209407806 -0.015699034556746483 0.3424861431121826 0.08326825499534607 -0.11920718103647232 0.31775280833244324 -0.2727816700935364 0.0813698023557663 0.25386369228363037 -0.21928708255290985 -0.09383203834295273 0.2760939300060272 -0.1283179223537445 0.05628407374024391 0.3353969156742096 -0.140334352850914 0.23153620958328247 0.26601704955101013 -0.07378196716308594 0.15279148519039154 0.3346664607524872 0.02432974800467491 0.18282097578048706 0.3365035653114319 0.024436257779598236 0.2862522304058075 0.27253270149230957 0.11913062632083893 0.1281653493642807 0.34193286299705505 0.18082688748836517 0.19132426381111145 0.2947757840156555 0.15256911516189575 0.08255250006914139 0.34129849076271057 0.21332302689552307 0.10696635395288467 0.3093023896217346 0.15760695934295654 0.0548953115940094 0.3420102894306183 -0.0039014024659991264 -0.2556562125682831 0.25129830837249756 0.005816678516566753 -0.15805739164352417 0.3043333888053894 -0.13015271723270416 -0.19117416441440582 0.26322802901268005 0.16078999638557434 -0.3074941039085388 0.19384470582008362 -0.4261409342288971 0.11645704507827759 0.1319652646780014 -0.31344109773635864 -0.1441400945186615 0.19843178987503052 -0.19898276031017303 0.292495459318161 0.19096435606479645 0.024542830884456635 0.3896835744380951 0.18576134741306305 0.24252313375473022 0.254483163356781 0.20614078640937805 0.27407699823379517 0.13138023018836975 0.23348742723464966 -0.014076965861022472 -0.3595377206802368 0.17894111573696136 -0.17506057024002075 -0.24981635808944702 0.208633154630661 0.2891436219215393 0.058230068534612656 0.2224467545747757 0.41302967071533203 0.06872028857469559 0.10744468867778778 0.36057010293006897 0.2633000612258911 0.15181808173656464 0.27006465196609497 0.199102520942688 0.21528716385364532 -0.09308856725692749 -0.12805414199829102 0.2607077956199646 -0.012892087921500206 -0.18885745108127594 0.25599098205566406 0.025283174589276314 0.02278750203549862 0.31994593143463135 0.23480340838432312 -0.1745535433292389 0.18779365718364716 0.18363721668720245 0.038622744381427765 0.29532331228256226 0.15367130935192108 -0.09913941472768784 0.2784475088119507 -0.2811298072338104 -0.05747690424323082 0.14104990661144257 -0.1651015281677246 -0.21929030120372772 0.1829327493906021 -0.1444280445575714 -0.020981863141059875 0.2632724344730377 -0.2327396124601364 0.16025900840759277 0.19043654203414917 -0.13007132709026337 0.10387106984853745 0.27366602420806885 -0.04382825642824173 0.18052439391613007 0.26354503631591797 -0.0882689356803894 0.28738081455230713 0.1843871772289276 0.08538348227739334 0.1733003407716751 0.29490435123443604 0.13530059158802032 0.28169122338294983 0.18414542078971863 0.1466563194990158 0.1467231810092926 0.2929884195327759 0.21840256452560425 0.21932679414749146 0.21939539909362793 0.1640697866678238 0.11979980021715164 0.30046191811561584 0.13227936625480652 -0.2819669842720032 0.2085830718278885 0.09251468628644943 -0.1727791577577591 0.26599350571632385 -0.025093745440244675 -0.2658461332321167 0.18702134490013123 0.31479498744010925 -0.2508995234966278 0.1368003785610199 -0.42269423604011536 -0.09300747513771057 0.17106616497039795 -0.240654855966568 -0.3161000907421112 0.20020169019699097 -0.3947197496891022 0.2202809453010559 0.16054667532444 -0.2054157853126526 0.4227372407913208 0.18514417111873627 0.1711212396621704 0.37633535265922546 0.09675933420658112 0.28151214122772217 0.2835080325603485 0.1515117734670639 0.1685280054807663 -0.3957168459892273 0.20055660605430603 -0.03976072743535042 -0.3465546667575836 0.14102093875408173 0.06178095191717148 -0.29672887921333313 0.11647870391607285 0.0684136301279068 -0.3617760241031647 0.0615665540099144 0.26176145672798157 -0.3280912935733795 -0.0021220373455435038 0.21380668878555298 -0.2654567360877991 0.11012204736471176 -0.16974619030952454 0.10970993340015411 0.09674026072025299 -0.22995483875274658 0.015629049390554428 0.126813143491745 0.0033161563333123922 -0.002220143098384142 0.004117906559258699 -0.19585180282592773 -0.2545149624347687 0.0886896550655365 0.032492946833372116 -0.18003694713115692 0.12020145356655121 -0.11981738358736038 -0.15704479813575745 0.10424476116895676 -0.10687688738107681 0.3175119459629059 0.046739500015974045 -0.2744588255882263 0.17820514738559723 0.09224307537078857 -0.05698802322149277 0.17619797587394714 0.0808570384979248 0.13392947614192963 0.28005391359329224 0.09485287219285965 0.08011498302221298 0.1679210513830185 0.09570948034524918 0.1700557917356491 0.0795772448182106 0.08705781400203705 0.28319302201271057 0.13211177289485931 0.090256467461586 0.17184489965438843 -0.06218583509325981 0.11015160381793976 0.29369717836380005 -0.11206148564815521 0.08038606494665146 0.14748932421207428 -0.1320863664150238 0.12533609569072723 0.23197677731513977 -0.2075861543416977 0.11255320906639099 0.11945753544569016 -0.15273189544677734 0.1266235113143921 -0.32051652669906616 -0.15064387023448944 0.11739329993724823 -0.20459827780723572 -0.09603251516819 0.1118224710226059 -0.31469833850860596 0.021187674254179 0.07725004106760025 -0.24603301286697388 -0.3177679181098938 -0.016897328197956085 -0.2194523811340332 0.44454172253608704 0.01681533083319664 -0.3474142849445343 0.2230468988418579 0.04548051580786705 0.17001479864120483 0.35791558027267456 0.0064656417816877365 0.35755616426467896 0.16809797286987305 0.030666042119264603 0.35996103286743164 -0.13452976942062378 -0.05629199370741844 0.27627578377723694 -0.2491317242383957 -0.0024234107695519924 -0.39802294969558716 -0.18394584953784943 0.04582968354225159 -0.3637861907482147 0.02380911447107792 -0.012744900770485401 0.08264661580324173 0.11474386602640152 0.35186854004859924 0.001022040843963623 0.08444281667470932 0.3893187940120697 0.10839322209358215 0.054976075887680054 0.35462498664855957 0.14577648043632507 0.13225136697292328 0.28888139128685 0.0638113021850586 0.2520524561405182 0.28888097405433655 0.03183522820472717 0.17565223574638367 0.3549696207046509 0.22488239407539368 0.0166294127702713 0.288881778717041 0.09832724928855896 0.015480751171708107 0.35711991786956787 0.19240161776542664 -0.046454206109046936 0.2888820469379425 0.0622066855430603 -0.035749733448028564 0.3567090630531311 0.1166740357875824 -0.1253381222486496 0.2888820469379425 0.028434915468096733 -0.045353002846241 0.3564356565475464 0.05811227858066559 -0.14194893836975098 0.2888818085193634 -0.037265878170728683 -0.04117188975214958 0.35486772656440735 -0.054559361189603806 -0.12553612887859344 0.28888139128685 -0.09418129920959473 -0.015333975665271282 0.3572090268135071 -0.18379710614681244 -0.10775594413280487 0.2961288392543793 -0.10848848521709442 0.045599184930324554 0.35480862855911255 -0.2028435617685318 0.005586036015301943 0.28888097405433655 -0.07467234134674072 0.11711978167295456 0.3497062027454376 -0.12165526300668716 0.13232149183750153 0.28888097405433655 -0.06910622119903564 0.21435092389583588 0.28888097405433655 -0.039564408361911774 0.16210201382637024 0.3517635762691498 0.01081287581473589 0.04455413296818733 0.2854916453361511 0.24579402804374695 -0.008056184276938438 0.19477388262748718 0.23872210085391998 0.1826559156179428 0.1817159652709961 0.03837437927722931 0.2440689206123352 0.2090407758951187 -0.04445657134056091 -0.06659118086099625 0.21518480777740479 0.18385863304138184 -0.10494330525398254 0.17095400393009186 0.28009217977523804 -0.15418511629104614 0.047063056379556656 0.3766949474811554 -0.05156918242573738 0.0018757849466055632 0.32527226209640503 0.12758250534534454 0.038257576525211334</float_array>
				<technique_common>
				<accessor source="#id-mesh-7-positions-array" count="213" stride="3">
					<param name="X" type="float"/>
					<param name="Y" type="float"/>
					<param name="Z" type="float"/>
				</accessor>
				</technique_common>
			</source>
			<source id="id-mesh-7-normals">
				<float_array id="id-mesh-7-normals-array" count="639"> -0.12384410947561264 0.15408796072006226 0.9802545309066772 -0.3646351397037506 0.18793298304080963 0.9119846224784851 -0.36960965394973755 -0.09903256595134735 0.9238868355751038 -0.19565416872501373 -0.15405744314193726 0.9684743881225586 -0.0477309487760067 0.4210638701915741 0.9057588577270508 -0.18878750503063202 0.4382152855396271 0.8787804841995239 -0.3665578067302704 0.44679099321365356 0.8160649538040161 -0.5071566104888916 0.2458876371383667 0.825983464717865 -0.6295357942581177 0.0001831110566854477 0.7769402265548706 0.1116061881184578 0.3150425851345062 0.9424726366996765 0.1105075255036354 0.5355082750320435 0.8372448086738586 -0.17078158259391785 0.5021820664405823 0.8477126359939575 -0.20160527527332306 0.33695486187934875 0.9196447730064392 0.38587602972984314 0.2682882249355316 0.8826563358306885 0.3811761736869812 0.40015870332717896 0.8333994746208191 0.3636280298233032 0.5604419112205505 0.7440717816352844 0.14603106677532196 0.6656697392463684 0.7318033576011658 -0.10751670598983765 0.7370525002479553 0.6671651601791382 -0.27518540620803833 -0.07763908803462982 0.9582201838493347 -0.5708181858062744 -0.2298043817281723 0.7882320880889893 -0.35129857063293457 -0.47972044348716736 0.8039796352386475 -0.12945951521396637 -0.35483869910240173 0.9259010553359985 -0.38370922207832336 0.18012024462223053 0.9056978225708008 -0.5925473570823669 0.11850336939096451 0.7967162132263184 -0.8032776713371277 0.0319223627448082 0.5947141647338867 -0.7598498463630676 -0.28177741169929504 0.5858333110809326 -0.6246833801269531 -0.5925778746604919 0.5085299015045166 0.12479018419981003 -0.33814507722854614 0.9327677488327026 0.2689596116542816 -0.5909604430198669 0.7605212330818176 0.5366374850273132 -0.33622241020202637 0.773918867111206 0.443830668926239 -0.1904354989528656 0.8756370544433594 -0.17783135175704956 -0.4350413382053375 0.8826563358306885 -0.11200293153524399 -0.6366161108016968 0.7629627585411072 -0.02072206884622574 -0.8346201777458191 0.5504013299942017 0.317423015832901 -0.748466432094574 0.5822321176528931 0.6426587700843811 -0.5485091805458069 0.5348368883132935 0.21231727302074432 0.25812554359436035 0.9424726366996765 0.3428144156932831 0.5552842617034912 0.7576830387115479 0.016876734793186188 0.617053747177124 0.7867366671562195 -0.07467879354953766 0.38550981879234314 0.9196447730064392 0.4542374908924103 0.12067018449306488 0.8826563358306885 0.5752739310264587 0.2948088049888611 0.7629627585411072 0.6780602335929871 0.48704490065574646 0.5504013299942017 0.4499649107456207 0.7068697214126587 0.5457014441490173 0.14841151237487793 0.8659016489982605 0.4776451885700226 0.36207160353660583 0.30573442578315735 0.8805505633354187 0.15231788158416748 0.1892758011817932 0.9700308442115784 -0.01748710498213768 0.5508285760879517 0.8344065546989441 0.08618427067995071 0.6121402382850647 0.7860041856765747 0.13708914816379547 -0.13248084485530853 0.981627881526947 0.1512802541255951 -0.2616657018661499 0.9532151222229004 0.02218695729970932 -0.12421033531427383 0.9919736385345459 0.46275216341018677 -0.019257180392742157 0.886257529258728 0.08188115805387497 0.03274635970592499 0.9960936307907104 0.1340678185224533 -0.09756767749786377 0.9861446022987366 -0.1832636445760727 -0.02218695729970932 0.982787549495697 0.1428266167640686 -0.17194128036499023 0.9746696352958679 -0.04290902614593506 -0.06979583203792572 0.9966124296188354 -0.35938596725463867 -0.06488235294818878 0.9309061169624329 -0.1508529931306839 -0.034363843500614166 0.9879451990127563 -0.12100589275360107 0.0638752430677414 0.9905697703361511 -0.26682332158088684 0.21610157191753387 0.939176619052887 0.045686207711696625 0.08899196982383728 0.9949644207954407 -0.001739555038511753 0.5979491472244263 0.8015075922012329 -0.002075258642435074 0.1752678006887436 0.9844965934753418 0.08493301272392273 0.7053437829017639 0.7037262916564941 -0.08542130887508392 0.13205358386039734 0.9875484704971313 0.2557756304740906 -0.2221747487783432 0.9408246278762817 0.10650959610939026 -0.20834986865520477 0.9722281694412231 0.20865504443645477 -0.3802300989627838 0.9010284543037415 0.28998687863349915 0.027466658502817154 0.9566026926040649 -0.01812799461185932 0.2222968190908432 0.9747917056083679 0.2640766501426697 0.1263161152601242 0.9561754465103149 -0.1745048314332962 -0.027466658502817154 0.9842524528503418 -0.12030396610498428 0.06756798177957535 0.9904171824455261 0.07333597540855408 0.5112766027450562 0.8562577962875366 0.053559985011816025 0.6368907690048218 0.7690664529800415 0.09585864096879959 -0.10013122856616974 0.9903256297111511 0.12094485014677048 -0.19168676435947418 0.9739677309989929 0.5425885915756226 -0.22568437457084656 0.809076189994812 0.6727805137634277 -0.2614520788192749 0.6920682191848755 0.7186193466186523 0.09018219262361526 0.6895046830177307 0.6250801086425781 0.09756767749786377 0.774407148361206 -0.13827936351299286 -0.18884854018688202 0.9721976518630981 -0.11661122739315033 -0.3194372355937958 0.940366804599762 -0.058320872485637665 -0.09332560002803802 0.9938963055610657 0.27231666445732117 -0.47968992590904236 0.8341013789176941 0.10016174614429474 -0.10754722356796265 0.9891353845596313 0.0014038514345884323 -0.22800378501415253 0.9736319780349731 -0.5505539178848267 0.1511887013912201 0.8209784030914307 -0.46351513266563416 -0.251564085483551 0.8496047854423523 -0.21594896912574768 0.04931791126728058 0.9751273989677429 -0.36164432764053345 0.4841761589050293 0.7967162132263184 -0.17093417048454285 0.21967223286628723 0.9604785442352295 -0.012817773967981339 0.2685323655605316 0.9631641507148743 0.022858362644910812 0.6089968681335449 0.7928098440170288 0.08896145224571228 0.15698722004890442 0.9835810661315918 0.4196905493736267 0.45606860518455505 0.7847529649734497 0.1496932953596115 0.07077242434024811 0.9861751198768616 0.5292519927024841 0.24872584640979767 0.8111514449119568 0.14804528653621674 0.01156651508063078 0.9888912439346313 -0.07861568033695221 -0.539384126663208 0.8383739590644836 -0.095614492893219 -0.2766502797603607 0.9561754465103149 -0.2682271897792816 -0.47044283151626587 0.8406323194503784 0.2951139807701111 -0.5659047365188599 0.7697988748550415 -0.5889157056808472 0.16513565182685852 0.791131317615509 -0.5411847233772278 -0.24393445253372192 0.8047120571136475 -0.40946683287620544 0.5097811818122864 0.7565843462944031 0.012512588873505592 0.6589861512184143 0.7520371079444885 0.46537676453590393 0.5251625180244446 0.712424099445343 0.6600238084793091 0.3408307135105133 0.669423520565033 -0.06427197903394699 -0.5975829362869263 0.7992187142372131 -0.3101291060447693 -0.5079195499420166 0.8036133646965027 0.600451648235321 -0.058412425220012665 0.7975096702575684 0.6131168603897095 -0.05868709459900856 0.7878047823905945 0.47914060950279236 0.28159427642822266 0.8313242197036743 0.43986326456069946 0.3257851004600525 0.8368480205535889 -0.3482162058353424 -0.32236701250076294 0.8802148699760437 -0.15280617773532867 -0.4592120051383972 0.8750572204589844 -0.07596056908369064 -0.029206212610006332 0.9966734647750854 0.5073091983795166 -0.20166631042957306 0.8378246426582336 0.4122135043144226 -0.08444471657276154 0.9071321487426758 0.364970862865448 -0.2631305754184723 0.8930326104164124 -0.2227545976638794 -0.0016174810007214546 0.9748527407646179 -0.143803209066391 -0.1742606908082962 0.9741203188896179 -0.4936979413032532 -0.1189916655421257 0.861415445804596 -0.2640766501426697 0.08819849044084549 0.9604480266571045 -0.4108401834964752 0.19202245771884918 0.8912320137023926 -0.19174779951572418 0.47071748971939087 0.861171305179596 -0.04269539564847946 0.39139989018440247 0.9192175269126892 0.018768884241580963 0.44721823930740356 0.8942228555679321 0.13275551795959473 0.5777459144592285 0.8053224086761475 0.1674245446920395 0.42585527896881104 0.8891262412071228 0.22550126910209656 0.5805841088294983 0.7823114991188049 0.2759178578853607 0.21713919937610626 0.9363078474998474 0.11416974663734436 -0.3025605082511902 0.9462568759918213 0.13135166466236115 -0.395886093378067 0.9088411927223206 -0.12863551080226898 -0.4044923186302185 0.9054231643676758 0.4764549732208252 -0.1105990782380104 0.8721885085105896 0.031281471252441406 0.07678456604480743 0.9965513944625854 0.08893093466758728 0.038636431097984314 0.9952696561813354 -0.042481765151023865 -0.02456739917397499 0.9987792372703552 0.002288888208568096 0.1591845452785492 0.9872432351112366 0.1659291386604309 0.5150609016418457 0.8409070372581482 0.1818903088569641 0.6035035252571106 0.7762992978096008 0.07333597540855408 -0.17853328585624695 0.9811700582504272 -0.07629626989364624 -0.2535783052444458 0.964293360710144 -0.011780144646763802 -0.47029024362564087 0.8824121952056885 0.0317392498254776 -0.748710572719574 0.6620990633964539 0.6392711997032166 -0.49473556876182556 0.5886715054512024 0.44953763484954834 -0.3751945495605469 0.8106021285057068 0.1429792195558548 0.054475538432598114 0.9882198572158813 0.04464858025312424 0.06546220183372498 0.9968260526657104 -0.029938656836748123 0.0638142004609108 0.9974974989891052 -0.19321268796920776 -0.49559006094932556 0.8467665910720825 -0.08868678659200668 0.1979125291109085 0.9761650562286377 0.05929746478796005 0.1345866322517395 0.9891048669815063 -0.025635547935962677 0.34513381123542786 0.9381694793701172 -0.3095492422580719 0.1669057309627533 0.9360942244529724 0.012390514835715294 -0.047212135046720505 0.9987792372703552 0.13382366299629211 0.335062712430954 0.9326151013374329 -0.1190221905708313 -0.12359996140003204 0.9851374626159668 -0.11322367191314697 -0.0474257618188858 0.9924314022064209 0.460707426071167 0.14160588383674622 0.8761559128761292 -0.10718100517988205 0.16559343039989471 0.9803460836410522 0.6267281174659729 -0.11737418919801712 0.7703176736831665 -0.03353984281420708 0.19510483741760254 0.9801934957504272 0.5247352719306946 -0.13898129761219025 0.8398083448410034 -0.0954313799738884 0.1837519407272339 0.9783013463020325 -0.44895780086517334 -0.18127994239330292 0.8749351501464844 0.11951048672199249 0.026612140238285065 0.9924619197845459 -0.5605639815330505 0.11456648260354996 0.8201239109039307 -0.3084810972213745 -0.7019562125205994 0.6418958306312561 -0.06189153715968132 0.3732413649559021 0.9256569147109985 -0.43171483278274536 0.1675466150045395 0.886288046836853 0.25025177001953125 0.5203710794448853 0.8164311647415161 0.6825769543647766 0.21988585591316223 0.6969206929206848 0.8216803669929504 -0.22830897569656372 0.522171676158905 0.8412427306175232 -0.29612109065055847 0.4523148238658905 -0.6595050096511841 -0.2761009633541107 0.6991180181503296 -0.7752311825752258 0.11185033619403839 0.6216620206832886 0.47361674904823303 0.3086031675338745 0.8248542547225952 -0.01077303383499384 0.0946989357471466 0.9954222440719604 0.4599139392375946 0.10892055928707123 0.8812219500541687 0.5708792209625244 0.37592700123786926 0.729880690574646 0.2228461503982544 0.5982238054275513 0.7697073221206665 0.16983550786972046 0.5060579180717468 0.8455763459205627 0.5240027904510498 0.015259254723787308 0.8515579700469971 0.35972166061401367 -0.18659016489982605 0.9141819477081299 0.44151127338409424 -0.2629474699497223 0.8578447699546814 0.22498245537281036 -0.35218361020088196 0.9084749817848206 0.28336435556411743 -0.4506362974643707 0.8464918732643127 0.021179845556616783 -0.4300668239593506 0.9025238752365112 0.052766501903533936 -0.5656605958938599 0.8229315876960754 -0.07058931142091751 -0.4343089163303375 0.8979766368865967 -0.08062990009784698 -0.5709402561187744 0.8169804811477661 -0.28043457865715027 -0.24945829808712006 0.9268776774406433 -0.3316446542739868 -0.31983399391174316 0.887508749961853 -0.5091097950935364 0.158665731549263 0.8459120392799377 -0.5910214781761169 0.08865626901388168 0.8017517328262329 -0.5281838178634644 0.3418378233909607 0.7772454023361206 -0.6470229029655457 0.4116336703300476 0.6417737603187561 -0.4144108295440674 0.5945310592651367 0.6890164017677307 -0.3567308485507965 0.4862208962440491 0.7976622581481934 0.24445326626300812 -0.158696249127388 0.9565721750259399 0.5814691781997681 -0.16879788041114807 0.7958311438560486 0.5584276914596558 0.16861476004123688 0.8121891021728516 0.30442214012145996 0.1977294236421585 0.9317606091499329 0.15735343098640442 -0.47932371497154236 0.8633991479873657 0.4046449065208435 -0.48792994022369385 0.773400068283081 0.6547746062278748 -0.45576342940330505 0.6029236912727356 0.7877132296562195 -0.18506424129009247 0.5875423550605774 0.8487502932548523 0.10150456428527832 0.5189367532730103</float_array>
				<technique_common>
				<accessor source="#id-mesh-7-normals-array" count="213" stride="3">
					<param name="X" type="float"/>
					<param name="Y" type="float"/>
					<param name="Z" type="float"/>
				</accessor>
				</technique_common>
			</source>
			<source id="id-mesh-7-texcoord-0">
				<float_array id="id-mesh-7-texcoord-0-array" count="426"> 0.7254230380058289 0.20864836871623993 0.7173647284507751 0.40130358934402466 0.6661309003829956 0.3610438108444214 0.6661309003829956 0.20343583822250366 0.7716554403305054 0.21271277964115143 0.7701864242553711 0.3601265549659729 0.7682684063911438 0.5525683164596558 0.7076742649078369 0.6329779624938965 0.6661309003829956 0.5464615225791931 0.7254230380058289 0.20864836871623993 0.7173647284507751 0.40130358934402466 0.6661309003829956 0.3610438108444214 0.6661309003829956 0.20343583822250366 0.7716554403305054 0.21271277964115143 0.7701864242553711 0.3601265549659729 0.7682684063911438 0.5525683164596558 0.7076742649078369 0.6329779624938965 0.6661309003829956 0.5464615225791931 0.3877863585948944 0.2004987597465515 0.37972795963287354 0.39315399527549744 0.3284941613674164 0.35289421677589417 0.3284941613674164 0.19528622925281525 0.43401870131492615 0.204563170671463 0.4325495958328247 0.3519769608974457 0.43063169717788696 0.5444186925888062 0.3700374960899353 0.6248283386230469 0.3284941613674164 0.5383118987083435 0.3877863585948944 0.2004987597465515 0.37972795963287354 0.39315399527549744 0.3284941613674164 0.35289421677589417 0.3284941613674164 0.19528622925281525 0.43401870131492615 0.204563170671463 0.4325495958328247 0.3519769608974457 0.43063169717788696 0.5444186925888062 0.3700374960899353 0.6248283386230469 0.3284941613674164 0.5383118987083435 0.3877863585948944 0.2004987597465515 0.37972795963287354 0.39315399527549744 0.3284941613674164 0.35289421677589417 0.3284941613674164 0.19528622925281525 0.43401870131492615 0.204563170671463 0.4325495958328247 0.3519769608974457 0.43063169717788696 0.5444186925888062 0.3700374960899353 0.6248283386230469 0.3284941613674164 0.5383118987083435 0.5115084052085876 0.48913654685020447 0.4963269829750061 0.42796987295150757 0.5445345640182495 0.3683862090110779 0.5466047525405884 0.44736915826797485 0.5384793877601624 0.8069959878921509 0.5097212195396423 0.7888215184211731 0.5519726872444153 0.6521705389022827 0.4689560830593109 0.6189895868301392 0.5266896486282349 0.5503032207489014 0.5008362531661987 0.6317318081855774 0.5896704196929932 0.89189213514328 0.5300691723823547 0.9034979939460754 0.5726697444915771 0.7837842702865601 0.6331976652145386 0.7556512951850891 0.5991880297660828 0.7123228311538696 0.6007564663887024 0.6169387698173523 0.6339820027351379 0.5929431915283203 0.5753868818283081 0.5441073179244995 0.5905994772911072 0.47389575839042664 0.5579765439033508 0.5245029330253601 0.560817539691925 0.46409356594085693 0.5486748814582825 0.5263521075248718 0.46219101548194885 0.7437059879302979 0.49473193287849426 0.7105293869972229 0.49362072348594666 0.8408937454223633 0.43707603216171265 0.6062474250793457 0.6066709756851196 1.0 0.5216587781906128 1.0 0.6672074794769287 0.7989797592163086 0.6672074794769287 0.5689475536346436 0.6058123707771301 0.40368419885635376 0.5636584162712097 0.40368422865867615 0.42965009808540344 0.776882529258728 0.4775203764438629 0.8929660320281982 0.1730346381664276 0.47980380058288574 0.15785323083400726 0.41863712668418884 0.20606079697608948 0.35905346274375916 0.20813097059726715 0.43803641200065613 0.20000562071800232 0.7976632118225098 0.1712474524974823 0.779488742351532 0.21349892020225525 0.6428377628326416 0.13048233091831207 0.609656810760498 0.18821588158607483 0.5409704446792603 0.16236253082752228 0.6223990321159363 0.25119665265083313 0.8825593590736389 0.1915953904390335 0.8941652178764343 0.23419596254825592 0.774451494216919 0.2947239279747009 0.746318519115448 0.26071426272392273 0.7029900550842285 0.26228269934654236 0.6076059937477112 0.2955082356929779 0.5836104154586792 0.23691309988498688 0.5347745418548584 0.25212574005126953 0.4645630121231079 0.2195027768611908 0.515170156955719 0.22234377264976501 0.4547608196735382 0.21020111441612244 0.5170193314552307 0.12371726334095001 0.7343732118606567 0.15625818073749542 0.7011966109275818 0.15514697134494781 0.8315609693527222 0.09860227257013321 0.5969146490097046 0.2681972086429596 0.9906672239303589 0.18318501114845276 0.9906672239303589 0.3287337124347687 0.7896469831466675 0.3287337124347687 0.5596147775650024 0.2673386037349701 0.39435145258903503 0.2251846343278885 0.3943514823913574 0.0911763459444046 0.7675497531890869 0.13904662430286407 0.8836332559585571 0.5115084052085876 0.48913654685020447 0.4963270127773285 0.42796987295150757 0.5445345640182495 0.3683862090110779 0.5466047525405884 0.44736915826797485 0.5384793877601624 0.8069959878921509 0.5097212195396423 0.7888215184211731 0.5519726872444153 0.6521705389022827 0.4689561128616333 0.6189895868301392 0.5266896486282349 0.5503032207489014 0.5008363127708435 0.6317318081855774 0.5896704196929932 0.89189213514328 0.5300691723823547 0.9034979939460754 0.5726697444915771 0.7837842702865601 0.6331977248191833 0.7556512951850891 0.5991880297660828 0.7123228311538696 0.6007564663887024 0.6169387698173523 0.6339820027351379 0.5929431915283203 0.5753868818283081 0.5441073179244995 0.590599536895752 0.47389575839042664 0.5579765439033508 0.5245029330253601 0.560817539691925 0.46409356594085693 0.5486748814582825 0.5263521075248718 0.46219104528427124 0.7437059879302979 0.49473196268081665 0.7105293869972229 0.49362075328826904 0.8408937454223633 0.43707603216171265 0.6062474250793457 0.6066709756851196 1.0 0.5216587781906128 1.0 0.6672074794769287 0.7989797592163086 0.6672074794769287 0.5689475536346436 0.6058123707771301 0.40368419885635376 0.5636584162712097 0.40368422865867615 0.42965012788772583 0.776882529258728 0.4775203764438629 0.8929660320281982 0.8456787467002869 0.4800131916999817 0.8307711482048035 0.4199495017528534 0.8781094551086426 0.3614402711391449 0.880142331123352 0.4389989674091339 0.8721634745597839 0.7921409606933594 0.843923807144165 0.7742941975593567 0.8854134678840637 0.6401073932647705 0.8038938641548157 0.6075247526168823 0.8605862259864807 0.5400769710540771 0.8351991176605225 0.6200371980667114 0.9224313497543335 0.8755062222480774 0.8639048933982849 0.8869028091430664 0.9057372808456421 0.7693477869033813 0.9651738405227661 0.7417221069335938 0.93177729845047 0.6991750001907349 0.9333174824714661 0.605510950088501 0.9659438133239746 0.5819480419158936 0.9084054231643677 0.5339927673339844 0.9233437180519104 0.4650472402572632 0.8913089036941528 0.5147418975830078 0.8940986394882202 0.4554218053817749 0.8821749687194824 0.5165577530860901 0.7972507476806641 0.7299922108650208 0.8292049169540405 0.6974138617515564 0.8281137943267822 0.8254274725914001 0.7725884914398193 0.595012366771698 0.9391254186630249 0.9816645383834839 0.8556460738182068 0.9816645383834839 0.9985701441764832 0.7842692732810974 0.9985701441764832 0.5583851337432861 0.9382822513580322 0.3961017429828644 0.8968884348869324 0.39610177278518677 0.7652966976165771 0.7625705003738403 0.8123036623001099 0.8765607476234436 0.2183644026517868 0.15244826674461365 0.24515286087989807 0.15787774324417114 0.21506527066230774 0.2144748717546463 0.19231972098350525 0.1471695601940155 0.2099153697490692 0.0 0.22862915694713593 0.08384514600038528 0.17533789575099945 0.2892051935195923 0.21856579184532166 0.23901864886283875 0.18917232751846313 0.3287244439125061 0.23726758360862732 0.28399479389190674 0.22978419065475464 0.40368422865867615 0.24917611479759216 0.28412097692489624 0.25298649072647095 0.40368419885635376 0.2708526849746704 0.2640731930732727 0.2925959825515747 0.3539195656776428 0.2857763469219208 0.2246127724647522 0.3333333134651184 0.30273789167404175 0.2866816818714142 0.16629478335380554 0.3333333134651184 0.17575009167194366 0.27126234769821167 0.10660117864608765 0.29037946462631226 0.06905698776245117 0.262577623128891 0.0 0.25426703691482544 0.07529853284358978 0.7254230380058289 0.2030928134918213 0.7173647284507751 0.3957480490207672 0.6661309003829956 0.35548827052116394 0.6661309003829956 0.19788028299808502 0.7716554403305054 0.2071572244167328 0.7701864242553711 0.35457101464271545 0.7682684063911438 0.5470127463340759 0.7076742649078369 0.6274223923683167 0.6661309003829956 0.5409059524536133</float_array>
				<technique_common>
				<accessor source="#id-mesh-7-texcoord-0-array" count="213" stride="2">
					<param name="S" type="float"/>
					<param name="T" type="float"/>
				</accessor>
				</technique_common>
			</source>
			<vertices id="id-mesh-7-vertices">
				<input semantic="POSITION" source="#id-mesh-7-positions"/>
			</vertices>
			<polygons count="178" material="id-trimat-8">
				<input semantic="VERTEX" source="#id-mesh-7-vertices" offset="0"/>
				<input semantic="NORMAL" source="#id-mesh-7-normals" offset="0"/>
				<input semantic="TEXCOORD" source="#id-mesh-7-texcoord-0" offset="0" set="0"/>
				<p> 0 1 2 3 </p>
				<p> 4 5 1 0 </p>
				<p> 5 6 7 1 </p>
				<p> 1 7 8 2 </p>
				<p> 9 10 11 12 </p>
				<p> 13 14 10 9 </p>
				<p> 14 15 16 10 </p>
				<p> 10 16 17 11 </p>
				<p> 18 19 20 21 </p>
				<p> 22 23 19 18 </p>
				<p> 23 24 25 19 </p>
				<p> 19 25 26 20 </p>
				<p> 27 28 29 30 </p>
				<p> 31 32 28 27 </p>
				<p> 32 33 34 28 </p>
				<p> 28 34 35 29 </p>
				<p> 36 37 38 39 </p>
				<p> 40 41 37 36 </p>
				<p> 41 42 43 37 </p>
				<p> 37 43 44 38 </p>
				<p> 45 46 47 48 </p>
				<p> 49 50 51 </p>
				<p> 52 45 53 54 </p>
				<p> 55 56 49 57 </p>
				<p> 58 55 57 59 </p>
				<p> 58 59 60 61 </p>
				<p> 61 60 62 63 </p>
				<p> 63 62 64 65 </p>
				<p> 65 64 66 48 </p>
				<p> 67 52 54 68 </p>
				<p> 69 67 68 50 </p>
				<p> 60 51 62 </p>
				<p> 57 49 51 </p>
				<p> 50 68 51 </p>
				<p> 51 53 66 </p>
				<p> 62 51 64 </p>
				<p> 59 57 51 </p>
				<p> 64 51 66 </p>
				<p> 59 51 60 </p>
				<p> 54 53 51 </p>
				<p> 68 54 51 </p>
				<p> 56 69 50 49 </p>
				<p> 53 45 48 66 </p>
				<p> 70 46 45 52 </p>
				<p> 71 72 56 55 </p>
				<p> 73 71 55 58 </p>
				<p> 73 58 61 74 </p>
				<p> 74 61 63 75 </p>
				<p> 75 63 65 76 </p>
				<p> 76 65 48 47 </p>
				<p> 77 70 52 67 </p>
				<p> 78 77 67 69 </p>
				<p> 72 78 69 56 </p>
				<p> 79 80 81 82 </p>
				<p> 83 84 85 </p>
				<p> 86 79 87 88 </p>
				<p> 89 90 83 91 </p>
				<p> 92 89 91 93 </p>
				<p> 92 93 94 95 </p>
				<p> 95 94 96 97 </p>
				<p> 97 96 98 99 </p>
				<p> 99 98 100 82 </p>
				<p> 101 86 88 102 </p>
				<p> 103 101 102 84 </p>
				<p> 94 85 96 </p>
				<p> 91 83 85 </p>
				<p> 84 102 85 </p>
				<p> 85 87 100 </p>
				<p> 96 85 98 </p>
				<p> 93 91 85 </p>
				<p> 98 85 100 </p>
				<p> 93 85 94 </p>
				<p> 88 87 85 </p>
				<p> 102 88 85 </p>
				<p> 90 103 84 83 </p>
				<p> 87 79 82 100 </p>
				<p> 104 80 79 86 </p>
				<p> 105 106 90 89 </p>
				<p> 107 105 89 92 </p>
				<p> 107 92 95 108 </p>
				<p> 108 95 97 109 </p>
				<p> 109 97 99 110 </p>
				<p> 110 99 82 81 </p>
				<p> 111 104 86 101 </p>
				<p> 112 111 101 103 </p>
				<p> 106 112 103 90 </p>
				<p> 113 114 115 116 </p>
				<p> 117 118 119 </p>
				<p> 120 113 121 122 </p>
				<p> 123 124 117 125 </p>
				<p> 126 123 125 127 </p>
				<p> 126 127 128 129 </p>
				<p> 129 128 130 131 </p>
				<p> 131 130 132 133 </p>
				<p> 133 132 134 116 </p>
				<p> 135 120 122 136 </p>
				<p> 137 135 136 118 </p>
				<p> 128 119 130 </p>
				<p> 125 117 119 </p>
				<p> 118 136 119 </p>
				<p> 119 121 134 </p>
				<p> 130 119 132 </p>
				<p> 127 125 119 </p>
				<p> 132 119 134 </p>
				<p> 127 119 128 </p>
				<p> 122 121 119 </p>
				<p> 136 122 119 </p>
				<p> 124 137 118 117 </p>
				<p> 121 113 116 134 </p>
				<p> 138 114 113 120 </p>
				<p> 139 140 124 123 </p>
				<p> 141 139 123 126 </p>
				<p> 141 126 129 142 </p>
				<p> 142 129 131 143 </p>
				<p> 143 131 133 144 </p>
				<p> 144 133 116 115 </p>
				<p> 145 138 120 135 </p>
				<p> 146 145 135 137 </p>
				<p> 140 146 137 124 </p>
				<p> 147 148 149 150 </p>
				<p> 151 152 153 </p>
				<p> 154 147 155 156 </p>
				<p> 157 158 151 159 </p>
				<p> 160 157 159 161 </p>
				<p> 160 161 162 163 </p>
				<p> 163 162 164 165 </p>
				<p> 165 164 166 167 </p>
				<p> 167 166 168 150 </p>
				<p> 169 154 156 170 </p>
				<p> 171 169 170 152 </p>
				<p> 162 153 164 </p>
				<p> 159 151 153 </p>
				<p> 152 170 153 </p>
				<p> 153 155 168 </p>
				<p> 164 153 166 </p>
				<p> 161 159 153 </p>
				<p> 166 153 168 </p>
				<p> 161 153 162 </p>
				<p> 156 155 153 </p>
				<p> 170 156 153 </p>
				<p> 158 171 152 151 </p>
				<p> 155 147 150 168 </p>
				<p> 172 148 147 154 </p>
				<p> 173 174 158 157 </p>
				<p> 175 173 157 160 </p>
				<p> 175 160 163 176 </p>
				<p> 176 163 165 177 </p>
				<p> 177 165 167 178 </p>
				<p> 178 167 150 149 </p>
				<p> 179 172 154 169 </p>
				<p> 180 179 169 171 </p>
				<p> 174 180 171 158 </p>
				<p> 181 182 183 </p>
				<p> 184 185 186 181 </p>
				<p> 187 183 188 189 </p>
				<p> 189 188 190 191 </p>
				<p> 191 190 192 193 </p>
				<p> 193 192 194 195 </p>
				<p> 195 194 196 197 </p>
				<p> 198 199 197 196 </p>
				<p> 200 201 199 198 </p>
				<p> 202 201 200 203 </p>
				<p> 185 202 203 186 </p>
				<p> 192 182 194 </p>
				<p> 183 182 188 </p>
				<p> 203 200 182 </p>
				<p> 194 182 196 </p>
				<p> 188 182 190 </p>
				<p> 186 203 182 </p>
				<p> 182 198 196 </p>
				<p> 190 182 192 </p>
				<p> 181 186 182 </p>
				<p> 182 200 198 </p>
				<p> 184 181 183 187 </p>
				<p> 204 205 206 207 </p>
				<p> 208 209 205 204 </p>
				<p> 209 210 211 205 </p>
				<p> 205 211 212 206 </p>
			</polygons>
		</mesh>
	</geometry>
</library_geometries>
<library_visual_scenes>
	<visual_scene id="id-scene-1" name="scene">
		<node id="bush_green_big" name="bush_green_big" type="NODE">
			<matrix sid="transform"> 1.0 0.0 0.0 0.0 0.0 1.0 0.0 0.0 0.0 0.0 1.0 0.0 0.0 0.0 0.0 1.0  </matrix>
			<instance_geometry url="#id-mesh-7">
				<bind_material>
					<technique_common>
						<instance_material symbol="id-trimat-8" target="#id-material-6"/>
					</technique_common>
				</bind_material>
			</instance_geometry>
		</node>
	</visual_scene>
</library_visual_scenes>
<scene>
	<instance_visual_scene url="#id-scene-1" />
</scene>
</COLLADA>
