# Blender 5.0.0
# www.blender.org
mtllib BigBush.mtl
o Bush
v -0.000000 0.544795 0.069247
v 0.189222 0.509387 0.139172
v 0.225776 -0.051068 -0.225776
v 0.000000 -0.051068 -0.319296
v 0.189222 0.884543 0.472527
v 0.319296 -0.051068 0.000000
v -0.189222 0.509387 0.139172
v 0.225776 -0.051068 0.225776
v -0.000000 -0.051068 0.319296
v -0.225776 -0.051068 0.225776
v -0.319296 -0.051068 -0.000000
v -0.225776 -0.051068 -0.225776
v -0.000000 0.905512 0.397005
v 0.267601 0.833920 0.654852
v 0.267601 0.423906 0.307986
v 0.189222 0.338425 0.476800
v -0.000000 0.303017 0.546724
v -0.189222 0.338425 0.476799
v -0.267601 0.423906 0.307986
v 0.169545 1.482037 0.646029
v 0.239772 1.503668 0.814188
v -0.189222 0.884543 0.472527
v -0.000000 1.473077 0.576375
v 0.189222 0.783297 0.837177
v 0.169545 1.525299 0.982347
v -0.000000 0.762328 0.912698
v -0.189222 0.783297 0.837177
v -0.267601 0.833920 0.654852
v 0.169545 2.187448 0.401746
v 0.239772 2.254033 0.557668
v 0.169545 2.320619 0.713591
v -0.169545 1.482037 0.646029
v 0.000000 2.159867 0.337161
v -0.000000 1.534259 1.052001
v 0.000000 2.348200 0.778175
v -0.169545 1.525299 0.982347
v -0.239772 1.503668 0.814188
v 0.281272 2.274599 -0.166924
v 0.413576 2.347234 -0.098476
v 0.453410 2.502541 -0.056546
v 0.377440 2.649544 -0.065697
v -0.169545 2.187448 0.401746
v 0.134000 2.327186 -0.221794
v -0.169545 2.320619 0.713590
v 0.230168 2.702131 -0.120567
v -0.171419 2.274599 -0.166840
v -0.239772 2.254033 0.557668
v 0.516424 2.119547 -0.774794
v 0.028900 2.291169 -0.051370
v 0.413128 2.153334 -0.852166
v 0.638187 2.169472 -0.752894
v 0.707088 2.273864 -0.799296
v -0.276014 2.649544 -0.074346
v 0.032966 2.590473 -0.060919
v 0.682767 2.371571 -0.886817
v -0.309167 2.347234 -0.110140
v 0.056540 2.474189 -0.211232
v 0.388807 2.251041 -0.939687
v -0.124533 2.702131 -0.116220
v -0.352492 2.502541 -0.071828
v 0.097864 2.629496 -0.189015
v 0.579470 2.405358 -0.964189
v -0.352895 2.119547 -0.792834
v -0.019938 2.327186 -0.208714
v 0.784717 1.758752 -0.961971
v 0.765490 1.759721 -0.961003
v 0.652398 1.805559 -0.915164
v 0.649076 1.771348 -0.949376
v 0.616427 1.645812 -1.132960
v 0.860495 1.722440 -1.071578
v -0.508880 2.371571 -0.918879
v -0.540710 2.273864 -0.833801
v 0.013215 2.629496 -0.172920
v 0.845052 1.719005 -1.171001
v -0.476099 2.169472 -0.781592
v -0.243269 2.153334 -0.860943
v 0.618511 1.726600 -0.994124
v -0.211440 2.251041 -0.946022
v 0.457708 2.355433 -0.986089
v 0.631871 1.649247 -1.033536
v 0.672469 1.664821 -1.214405
v -0.399255 2.405358 -0.986989
v 0.767168 1.695139 -1.230163
v -0.498427 1.748853 -0.971870
v -0.494631 1.729634 -0.991089
v 0.856735 1.952637 -0.768086
v 0.370515 1.771443 -0.949280
v 0.415529 1.726600 -0.994124
v -0.276051 2.355433 -0.998232
v 0.641348 1.601820 -1.027558
v 0.663363 1.440183 -1.070869
v 0.778434 1.016199 -1.098389
v 0.807070 1.726600 -0.994124
v 0.936881 1.108108 -1.016155
v -0.645873 1.719005 -1.216083
v -0.669893 1.722440 -1.118377
v -0.621135 1.703431 -1.032372
v 0.923134 1.066667 -1.086941
v -0.491889 1.726600 -0.994123
v -0.421416 1.645812 -1.158332
v -0.000000 1.952637 -0.768086
v 0.856735 1.726600 -0.994124
v 0.306372 1.835343 -0.885380
v 0.065072 1.899934 -0.820790
v -0.000000 1.882480 -0.838243
v 0.483165 1.659033 -1.012228
v 0.659451 1.657699 -1.012585
v -0.470174 1.664821 -1.244336
v 0.664916 1.417827 -1.076859
v 0.645368 1.609226 -1.025574
v 0.857503 1.028597 -1.121004
v 0.732245 1.036735 -1.032345
v 0.811058 1.705671 -0.999731
v 0.877409 1.417827 -1.015482
v -0.563147 1.695139 -1.268258
v -0.538453 1.726600 -0.994123
v -0.284070 1.726600 -0.994123
v -0.271973 1.738743 -0.981981
v -0.445435 1.649247 -1.060624
v -0.000000 2.035372 -0.459314
v 0.856735 2.035372 -0.459314
v 0.914240 1.804794 -0.682729
v 0.914240 1.641243 -0.846281
v -0.175738 1.835343 -0.885380
v 0.548153 1.417827 -1.076859
v 0.483318 1.658880 -1.012269
v 0.901212 0.713075 -0.717956
v 0.828091 0.725729 -0.719526
v 0.856735 1.587556 -1.031380
v 0.973234 0.825354 -0.686082
v 0.877332 1.375809 -1.004454
v -0.730961 1.066667 -1.139122
v -0.750804 1.108108 -1.069797
v -0.655164 1.547200 -1.042193
v 0.961332 0.754342 -0.704103
v -0.528176 1.673118 -1.008454
v -0.856735 1.726600 -0.994123
v -0.351721 1.658880 -1.012269
v -0.376067 1.567674 -1.036708
v -0.470994 1.527557 -1.047457
v -0.528153 1.673111 -1.008456
v -0.585813 1.016199 -1.137960
v -0.856735 1.952637 -0.768086
v -0.856735 2.035372 -0.459314
v -0.000000 1.952637 -0.150542
v 0.856735 1.952637 -0.150542
v 0.914240 1.864658 -0.459314
v 1.000238 1.756235 -0.654694
v 1.000238 1.613207 -0.797722
v 0.732469 1.109055 -0.994124
v 0.415530 1.109055 -0.994124
v 0.483318 1.176774 -1.012269
v 0.548153 1.417827 -1.076859
v -0.662619 1.028597 -1.167356
v 0.784803 0.784890 -0.707893
v 0.929946 0.884515 -0.674450
v 0.914240 1.417827 -0.906145
v 0.878678 1.208722 -0.955687
v 0.890693 1.128644 -0.950111
v -0.699438 1.417827 -1.076859
v -0.636501 1.604627 -1.026806
v -0.391706 1.509086 -1.052406
v -0.482449 1.544466 -1.042926
v -0.483628 1.417827 -1.076859
v -0.545534 1.036735 -1.068155
v -0.856735 1.952637 -0.150542
v -0.914240 1.804793 -0.682729
v -0.914240 1.864657 -0.459314
v 0.410963 1.726600 0.075495
v 0.856735 1.726600 0.075495
v -0.000000 1.883353 -0.081258
v 0.061955 1.899934 -0.097839
v 0.302715 1.835343 -0.033249
v 0.914240 1.804794 -0.235899
v 1.000238 1.808587 -0.459314
v 1.000238 1.417827 -0.850074
v 1.000238 1.417827 -0.781014
v 1.000238 1.190351 -0.686790
v 1.000238 1.096128 -0.459314
v 1.000238 1.027068 -0.459314
v 1.000238 1.079420 -0.654694
v 1.000238 1.222448 -0.797722
v 1.000238 1.756235 -0.263935
v 1.000238 1.739527 -0.459314
v 1.000238 1.645303 -0.686790
v 0.000000 0.883018 -0.768087
v 0.000000 0.953174 -0.838243
v 0.065072 0.935721 -0.820790
v 0.306372 1.000311 -0.885380
v 0.745786 1.077554 -0.962622
v 0.922311 0.727173 -0.297123
v 0.860377 0.696495 -0.295087
v 0.795076 0.717558 -0.303650
v 0.776327 0.913070 -0.798139
v 0.914185 0.852085 -0.322712
v 0.944599 0.791620 -0.308566
v 0.876534 1.171248 -0.952010
v -0.802261 0.754342 -0.761047
v -0.815683 0.825354 -0.744128
v -0.700812 1.337624 -1.055369
v -0.856735 1.417827 -1.076859
v -0.914240 1.641243 -0.846280
v -0.416066 1.417827 -1.076859
v -0.668184 0.725729 -0.764841
v -0.741165 0.713075 -0.769627
v -0.856735 1.726600 0.075495
v -0.288638 1.726600 0.075495
v -0.179396 1.835343 -0.033249
v -0.914240 1.804793 -0.235899
v -1.000238 1.756235 -0.654694
v -1.000238 1.808586 -0.459314
v 0.542895 1.417827 0.158230
v 0.856735 1.417827 0.158230
v 0.478600 1.658880 0.093640
v 0.542895 1.417827 0.158230
v 0.914240 1.641243 -0.072348
v 0.914240 1.194412 -0.846281
v 1.048936 1.633097 -0.674585
v 1.048936 1.417827 -0.763752
v 1.048936 1.202557 -0.674585
v 1.048936 1.113389 -0.459314
v 1.000238 1.190351 -0.231839
v 1.000238 1.417827 -0.137615
v 1.000238 1.645303 -0.231839
v 1.000238 1.613207 -0.120907
v 1.000238 1.417827 -0.068555
v 1.000238 1.222447 -0.120907
v 1.000238 1.079420 -0.263935
v 0.914240 0.970997 -0.459314
v 0.914240 1.030861 -0.682730
v 1.048936 1.722265 -0.459314
v 0.780485 0.883018 -0.768087
v -0.577878 1.109055 -0.994124
v -0.284070 1.109055 -0.994124
v -0.175738 1.000311 -0.885380
v 0.764662 0.778022 -0.317797
v 0.877881 0.986483 -0.785797
v 0.872983 1.125868 -0.945046
v 0.875146 0.882769 -0.563170
v 0.869119 0.895042 -0.675756
v 0.875071 1.136273 -0.946981
v -0.740950 1.040892 -0.925961
v -0.710524 1.128644 -0.999991
v -0.710070 1.131567 -1.000156
v -0.914240 1.417827 -0.906144
v -1.000238 1.613207 -0.797722
v -0.416067 1.417827 -1.076859
v -0.402187 1.365831 -1.062927
v -0.548310 1.159433 -1.007622
v -0.626069 0.784890 -0.749493
v -0.914240 1.641242 -0.072348
v -0.856734 1.417827 0.158230
v -0.421327 1.417827 0.158230
v -0.421327 1.417827 0.158230
v -0.356441 1.658880 0.093640
v -1.000238 1.756235 -0.263934
v -1.000238 1.417827 -0.781013
v -1.000238 1.645303 -0.686790
v -1.000238 1.739527 -0.459314
v -1.000238 1.417827 -0.850074
v -1.000238 1.222448 -0.797722
v -1.000238 1.079419 -0.654694
v -1.000238 1.027068 -0.459314
v -1.000238 1.096128 -0.459314
v -1.000238 1.190351 -0.686790
v 0.410963 1.109055 0.075495
v 0.856735 1.109055 0.075495
v 0.478600 1.176774 0.093640
v 0.914240 1.417827 -0.012484
v 1.071072 1.600759 -0.642247
v 1.071073 1.417827 -0.718020
v 1.071073 1.234895 -0.642247
v 1.071073 1.159122 -0.459314
v 1.048936 1.202557 -0.244044
v 1.048936 1.417827 -0.154876
v 1.048936 1.633098 -0.244044
v 0.914240 1.194412 -0.072348
v 0.914240 1.030861 -0.235899
v 1.071072 1.676532 -0.459314
v 0.778645 0.800282 -0.459314
v -0.625339 0.898346 -0.783415
v -0.312779 1.137793 -1.001824
v 0.901105 0.831725 0.021975
v 0.839171 0.801047 0.024011
v 0.923393 0.896172 0.010532
v 0.773870 0.822109 0.015447
v 0.743455 0.882574 0.001301
v 0.792249 0.868404 -0.713548
v 0.879815 0.942357 -0.733828
v 0.892978 0.956636 -0.003615
v 0.867482 0.867148 -0.328837
v 0.881194 0.872895 -0.459314
v -0.798730 0.727173 -0.352216
v -0.819940 0.791620 -0.365551
v -0.721373 1.109055 -0.994124
v -0.781575 0.873267 -0.731698
v -0.787517 0.883018 -0.768087
v -0.856735 1.109055 -0.994124
v -0.709703 1.131095 -1.000029
v -0.914240 1.194412 -0.846281
v -0.351721 1.176774 -1.012269
v -0.565376 1.078176 -0.998830
v -0.671409 0.717558 -0.347669
v -0.737206 0.696495 -0.344809
v -1.000238 1.613207 -0.120907
v -0.914240 1.417827 -0.012484
v -0.856734 1.109055 0.075495
v -0.288638 1.109055 0.075495
v -0.356441 1.176774 0.093640
v -1.048936 1.202557 -0.674585
v -1.048936 1.417827 -0.763752
v -1.048936 1.633097 -0.674585
v -1.048936 1.722265 -0.459314
v -1.000238 1.079419 -0.263934
v -1.000238 1.222447 -0.120907
v -1.000238 1.417827 -0.068555
v -1.000238 1.645303 -0.231839
v -1.000238 1.417827 -0.137615
v -1.000238 1.190351 -0.231838
v -0.914240 1.030861 -0.682730
v -0.914240 0.970997 -0.459314
v -1.048936 1.113389 -0.459314
v 0.000000 0.883018 -0.150542
v 0.769391 0.883018 -0.150542
v 0.773295 0.909792 -0.123768
v 0.831995 0.956412 -0.077148
v 0.856735 0.943540 -0.090020
v 0.302716 1.000311 -0.033249
v 0.061955 0.935721 -0.097839
v 0.000000 0.952301 -0.081258
v 1.048936 1.568421 -0.609908
v 1.048936 1.417827 -0.672287
v 1.048936 1.267233 -0.609908
v 1.071073 1.234895 -0.276382
v 1.048936 1.204855 -0.459314
v 1.071073 1.417827 -0.200609
v 1.071072 1.600759 -0.276382
v 1.048936 1.630799 -0.459314
v 0.795983 0.854909 -0.663182
v 0.000000 0.800282 -0.459314
v -0.616655 1.009529 -0.894598
v -0.629592 0.883018 -0.768087
v -0.602054 1.098608 -0.983677
v 0.787752 0.948303 0.280847
v 0.836191 0.967929 0.279545
v 0.736680 0.961778 0.275368
v 0.785910 0.814578 -0.512664
v 0.784529 0.835469 -0.327997
v 0.712892 1.000461 0.266318
v 0.796705 0.855903 -0.689872
v 0.869191 0.915041 -0.169031
v 0.853623 1.009161 0.272224
v -0.818671 0.800282 -0.459314
v -0.856734 0.883018 -0.768087
v -0.710897 1.127570 -0.999085
v -0.708702 1.128350 -0.999294
v -0.639881 0.778022 -0.359121
v -0.914240 1.194412 -0.072348
v -0.666640 0.930591 -0.102969
v -0.227465 1.048161 0.014601
v -1.071073 1.234895 -0.642246
v -1.071073 1.417827 -0.718019
v -1.071072 1.600759 -0.642246
v -1.048936 1.633098 -0.244044
v -1.071072 1.676532 -0.459314
v -1.048936 1.202557 -0.244044
v -0.914240 1.030861 -0.235899
v -1.048936 1.417827 -0.154876
v -0.856734 0.800282 -0.459314
v -1.071073 1.159122 -0.459314
v -0.179396 1.000311 -0.033249
v 0.765743 0.947021 -0.010142
v 0.827678 0.977699 -0.012178
v 1.000238 1.417827 -0.655025
v 1.000238 1.556216 -0.597703
v 1.000238 1.279438 -0.597703
v 1.048936 1.267233 -0.308720
v 1.000238 1.222116 -0.459314
v 1.048936 1.417827 -0.246342
v 1.048936 1.568421 -0.308720
v 1.000238 1.613538 -0.459314
v 0.730324 1.041693 0.258997
v 0.794616 0.865059 -0.701064
v 0.829835 1.047845 0.263173
v -0.743791 0.801047 -0.025075
v -0.805315 0.831725 -0.032482
v -0.826524 0.896172 -0.045817
v -0.811703 0.808120 -0.430065
v -0.710714 1.127911 -0.999176
v -0.643257 0.800282 -0.459314
v -0.646465 0.882574 -0.039387
v -0.677993 0.822109 -0.027936
v -0.639491 0.855903 -0.732573
v -0.856734 0.883017 -0.150542
v -0.728317 0.980281 -0.053278
v -1.048936 1.267233 -0.609908
v -1.048936 1.417827 -0.672286
v -1.048936 1.568421 -0.609908
v -1.071072 1.600759 -0.276382
v -1.048936 1.630799 -0.459314
v -1.071073 1.234895 -0.276382
v -1.071073 1.417827 -0.200609
v -1.048936 1.204855 -0.459314
v -0.655664 0.883018 -0.150542
v 0.778763 1.061320 0.257695
v 1.000238 1.556216 -0.320926
v 1.000238 1.417827 -0.263603
v 1.000238 1.279438 -0.320926
v 0.799540 0.856840 -0.670389
v 0.804936 0.861552 -0.687976
v -0.759888 0.969866 0.188057
v -0.814089 0.883017 -0.150542
v -0.776696 1.011642 0.179413
v -0.803173 0.823774 -0.371641
v -0.646636 0.818705 -0.528069
v -0.655193 0.824549 -0.368748
v -0.658993 0.963633 0.191004
v -0.711134 0.949979 0.192858
v -0.630849 0.881821 -0.763620
v -0.644068 0.853057 -0.656270
v -0.794395 0.947087 -0.086473
v -0.729803 0.979663 -0.053897
v -0.722303 0.974261 -0.059299
v -1.000238 1.279438 -0.597703
v -1.000238 1.417827 -0.655025
v -1.000238 1.556216 -0.597703
v -1.048936 1.568421 -0.308720
v -1.000238 1.613538 -0.459314
v -1.048936 1.267233 -0.308720
v -1.048936 1.417827 -0.246342
v -1.000238 1.222116 -0.459314
v -0.751711 1.050837 0.171989
v -0.634009 1.002828 0.183581
v -0.652582 0.858619 -0.677028
v -0.664172 0.872573 -0.729108
v -0.699570 1.064490 0.170135
v -0.667675 0.947021 -0.052722
v -1.000238 1.279438 -0.320926
v -1.000238 1.417827 -0.263603
v -1.000238 1.556216 -0.320926
v -0.794996 0.956636 -0.057269
v -0.650816 1.044604 0.174936
v -0.740939 0.973941 -0.059619
v 0.060695 0.935721 0.177764
v -0.180357 1.000311 0.176850
v 0.301747 1.000311 0.178678
v 0.060463 1.068995 0.238987
v -0.113952 1.115729 0.238325
v -0.356818 1.176774 0.176181
v 0.478208 1.176774 0.179347
v 0.234878 1.115729 0.239648
v -0.241633 1.243411 0.237841
v 0.060116 1.112768 0.330544
v -0.092413 1.153638 0.329966
v -0.421408 1.417827 0.175936
v 0.542798 1.417827 0.179592
v 0.362558 1.243411 0.240132
v 0.212644 1.153638 0.331123
v -0.288367 1.417827 0.237664
v -0.204071 1.265298 0.329543
v 0.060116 1.166682 0.330544
v -0.356818 1.658880 0.176181
v 0.478208 1.658880 0.179347
v 0.409293 1.417827 0.240309
v 0.324303 1.265298 0.331546
v -0.241633 1.592244 0.237841
v -0.244941 1.417827 0.329388
v -0.117470 1.240241 0.329871
v -0.180357 1.835343 0.176850
v 0.301746 1.835343 0.178678
v 0.362558 1.592244 0.240132
v 0.365172 1.417827 0.331701
v 0.237701 1.240241 0.331218
v -0.113952 1.719925 0.238325
v -0.204071 1.570357 0.329543
v -0.191028 1.417827 0.329592
v 0.059919 1.180158 0.382390
v -0.108138 1.249769 0.381753
v 0.060695 1.899934 0.177764
v 0.234878 1.719925 0.239648
v 0.324302 1.570357 0.331546
v 0.311259 1.417827 0.331497
v 0.227976 1.249769 0.383027
v 0.060463 1.766660 0.238987
v -0.092413 1.682016 0.329966
v -0.177749 1.417827 0.381489
v 0.059830 1.215861 0.405958
v -0.082981 1.275015 0.405416
v 0.212644 1.682016 0.331123
v 0.297587 1.417827 0.383291
v 0.202641 1.275015 0.406499
v 0.060115 1.722886 0.330544
v -0.117469 1.595414 0.329871
v -0.142136 1.417827 0.405192
v -0.108138 1.585885 0.381753
v 0.059919 1.251564 0.382390
v -0.057646 1.300261 0.381944
v 0.237701 1.595413 0.331218
v 0.227976 1.585885 0.383027
v 0.261795 1.417827 0.406724
v 0.177484 1.300261 0.382836
v 0.060116 1.668972 0.330544
v -0.082981 1.560639 0.405416
v -0.106343 1.417827 0.381759
v 0.059919 1.655497 0.382390
v -0.047921 1.309790 0.330135
v 0.060116 1.265039 0.330544
v 0.202641 1.560639 0.406499
v 0.226181 1.417827 0.383020
v 0.168152 1.309790 0.330954
v 0.059830 1.619794 0.405958
v -0.057646 1.535393 0.381944
v -0.092672 1.417827 0.329965
v 0.212903 1.417827 0.331124
v 0.177484 1.535393 0.382836
v 0.059919 1.584091 0.382390
v -0.047921 1.525865 0.330135
v 0.168152 1.525865 0.330954
v 0.060116 1.570615 0.330544
v -0.173440 1.000311 -1.491432
v 0.067612 0.935721 -1.490518
v -0.349902 1.176774 -1.492101
v -0.106571 1.115729 -1.552402
v 0.067844 1.068995 -1.551741
v 0.308663 1.000311 -1.489604
v -0.414491 1.417827 -1.492346
v -0.234252 1.243411 -1.552886
v -0.084337 1.153638 -1.643876
v 0.068191 1.112768 -1.643298
v 0.242259 1.115729 -1.551079
v 0.485125 1.176774 -1.488935
v -0.349902 1.658880 -1.492101
v -0.280986 1.417827 -1.553063
v -0.195996 1.265298 -1.644300
v 0.068191 1.166682 -1.643298
v 0.220720 1.153638 -1.642720
v 0.369940 1.243411 -1.550595
v 0.549715 1.417827 -1.488690
v -0.173440 1.835343 -1.491432
v -0.234252 1.592243 -1.552886
v -0.236866 1.417827 -1.644455
v -0.109394 1.240241 -1.643971
v 0.332378 1.265298 -1.642296
v 0.416674 1.417827 -1.550418
v 0.485125 1.658880 -1.488935
v 0.067612 1.899933 -1.490518
v -0.106571 1.719925 -1.552402
v -0.195996 1.570357 -1.644300
v -0.182952 1.417827 -1.644251
v -0.099669 1.249769 -1.695781
v 0.068388 1.180158 -1.695144
v 0.245776 1.240241 -1.642625
v 0.373248 1.417827 -1.642141
v 0.369939 1.592244 -1.550595
v 0.308663 1.835343 -1.489604
v 0.067844 1.766660 -1.551741
v -0.084337 1.682016 -1.643876
v -0.169280 1.417827 -1.696045
v 0.236444 1.249769 -1.694507
v -0.074334 1.275015 -1.719253
v 0.068477 1.215860 -1.718712
v 0.319334 1.417827 -1.642346
v 0.332378 1.570357 -1.642296
v 0.242259 1.719925 -1.551079
v 0.068191 1.722886 -1.643298
v -0.109394 1.595413 -1.643971
v -0.099669 1.585885 -1.695781
v -0.133488 1.417827 -1.719478
v 0.306055 1.417827 -1.694243
v 0.211288 1.275015 -1.718170
v -0.049178 1.300261 -1.695590
v 0.068388 1.251563 -1.695144
v 0.220719 1.682016 -1.642720
v 0.068191 1.668972 -1.643298
v 0.068388 1.655497 -1.695143
v -0.074334 1.560639 -1.719253
v -0.097875 1.417827 -1.695774
v 0.245776 1.595413 -1.642625
v 0.236444 1.585885 -1.694506
v 0.270442 1.417827 -1.717946
v 0.185953 1.300261 -1.694698
v -0.039846 1.309790 -1.643708
v 0.068191 1.265039 -1.643298
v 0.068477 1.619794 -1.718712
v -0.049178 1.535393 -1.695589
v -0.084596 1.417827 -1.643878
v 0.211288 1.560639 -1.718170
v 0.234650 1.417827 -1.694513
v 0.176228 1.309790 -1.642888
v 0.068388 1.584091 -1.695143
v -0.039846 1.525865 -1.643708
v 0.068191 1.570615 -1.643298
v 0.185953 1.535393 -1.694698
v 0.220978 1.417827 -1.642719
v 0.176228 1.525865 -1.642888
vn -0.0000 0.6101 -0.7923
vn 0.6687 0.4667 -0.5789
vn 0.6071 -0.4452 -0.6582
vn -0.0000 -0.4069 -0.9135
vn 0.7273 0.3417 -0.5953
vn 0.8206 -0.5643 -0.0902
vn -0.6687 0.4667 -0.5789
vn 0.5396 -0.7384 0.4044
vn -0.0000 -0.8242 0.5663
vn -0.5396 -0.7384 0.4044
vn -0.8206 -0.5643 -0.0902
vn -0.6071 -0.4452 -0.6582
vn -0.0000 0.5047 -0.8633
vn 0.9986 -0.0127 0.0505
vn 0.9985 0.0546 0.0011
vn 0.6957 -0.4019 0.5954
vn -0.0000 -0.5798 0.8148
vn -0.6957 -0.4019 0.5954
vn -0.9985 0.0546 0.0011
vn 0.7501 -0.0030 -0.6613
vn 0.9974 0.0191 0.0694
vn -0.7273 0.3417 -0.5953
vn -0.0000 -0.0081 -1.0000
vn 0.6796 -0.3031 0.6680
vn 0.6787 0.0562 0.7323
vn -0.0000 -0.4071 0.9134
vn -0.6796 -0.3031 0.6680
vn -0.9986 -0.0127 0.0505
vn 0.7546 -0.5804 -0.3061
vn 0.9806 0.0369 0.1924
vn 0.6044 0.5237 0.6004
vn -0.7501 -0.0030 -0.6613
vn -0.0129 -0.8002 -0.5996
vn -0.0000 0.0756 0.9971
vn -0.0078 0.6579 0.7530
vn -0.6787 0.0562 0.7323
vn -0.9974 0.0191 0.0694
vn 0.0325 -0.9992 0.0248
vn 0.6746 -0.7015 0.2301
vn 0.9527 0.0459 0.3003
vn 0.6138 0.7562 0.2270
vn -0.7719 -0.5268 -0.3557
vn -0.6263 -0.7235 -0.2902
vn -0.6218 0.5288 0.5777
vn -0.0337 0.9992 0.0222
vn -0.0302 -0.9995 0.0130
vn -0.9879 0.0829 0.1310
vn -0.2032 -0.8075 0.5538
vn 0.0283 -0.9221 -0.3859
vn -0.8015 -0.5940 0.0685
vn 0.5970 -0.4775 0.6447
vn 0.9569 0.1408 0.2539
vn -0.6118 0.7733 0.1662
vn 0.0757 0.9837 0.1632
vn 0.7425 0.6163 -0.2624
vn -0.7097 -0.6891 0.1467
vn 0.0081 -0.0091 -0.9999
vn -0.8831 -0.0679 -0.4643
vn 0.0685 0.9973 0.0247
vn -0.9766 0.0846 0.1977
vn -0.6465 0.7115 -0.2754
vn 0.1633 0.7445 -0.6474
vn 0.1371 -0.8050 0.5771
vn 0.6582 -0.7254 -0.2011
vn 0.8053 0.2612 0.5323
vn 0.1924 0.7954 0.5748
vn -0.6253 0.3769 0.6833
vn -0.9194 0.3906 0.0471
vn -0.9149 -0.2030 -0.3489
vn 0.9684 0.1425 0.2047
vn -0.7169 0.6163 -0.3259
vn -0.9754 0.1409 0.1697
vn 0.7044 0.6895 -0.1685
vn 0.8154 0.2193 -0.5357
vn -0.6673 -0.4589 0.5866
vn 0.7900 -0.5973 0.1386
vn -0.3889 0.4377 -0.8106
vn 0.9188 -0.0634 -0.3896
vn -0.4867 0.4703 -0.7362
vn -0.8390 -0.2953 0.4571
vn -0.4473 -0.0304 -0.8938
vn -0.1064 0.7445 -0.6591
vn 0.2414 0.1354 -0.9609
vn 0.5956 0.2112 0.7750
vn 0.8910 0.4349 0.1299
vn 0.5418 0.7279 -0.4203
vn 0.4085 0.8170 -0.4070
vn 0.4042 0.7739 -0.4876
vn 0.5439 0.4755 -0.6915
vn -0.9153 0.0564 -0.3987
vn -0.8020 0.0928 -0.5901
vn -0.4653 -0.5187 -0.7172
vn 0.7130 0.5738 -0.4030
vn 0.9870 0.1444 0.0704
vn -0.7658 0.2193 -0.6045
vn -0.9825 0.1427 0.1197
vn -0.6102 -0.0608 0.7899
vn 0.8168 -0.2013 -0.5407
vn 0.2824 0.4766 -0.8325
vn 0.9451 -0.2003 -0.2581
vn -0.0000 0.8660 -0.5000
vn 0.5418 0.4203 -0.7279
vn 0.2416 0.8934 -0.3788
vn -0.0004 0.9279 -0.3728
vn -0.1410 0.9117 -0.3859
vn 0.4601 0.6286 -0.6270
vn -0.9593 -0.1087 -0.2607
vn 0.5233 -0.0304 -0.8516
vn -0.7028 -0.1214 -0.7009
vn -0.8773 0.4527 -0.1594
vn 0.2389 -0.4653 -0.8523
vn -0.9370 -0.2956 -0.1861
vn 0.8801 0.3063 -0.3627
vn 0.9856 0.0905 0.1429
vn -0.1570 0.1354 -0.9783
vn -0.1706 0.6400 -0.7492
vn -0.4037 0.7726 -0.4900
vn -0.4080 0.8160 -0.4095
vn 0.7890 -0.2884 0.5425
vn -0.0000 1.0000 -0.0000
vn 0.5418 0.8405 -0.0000
vn 0.8175 0.4988 -0.2880
vn 0.8175 0.2880 -0.4988
vn -0.2419 0.8926 -0.3804
vn 0.6621 0.2081 -0.7199
vn 0.5955 0.5362 -0.5983
vn 0.2220 -0.9182 -0.3281
vn -0.4855 -0.8197 -0.3038
vn 0.9854 0.1528 0.0753
vn 0.9905 0.1277 0.0518
vn 0.9878 0.0394 0.1506
vn -0.7667 -0.2013 -0.6096
vn -0.9892 0.1462 -0.0130
vn -0.8104 0.3928 -0.4347
vn 0.8156 -0.5448 -0.1948
vn -0.9552 0.2951 -0.0220
vn -0.5418 0.4203 -0.7279
vn -0.5940 0.5343 -0.6014
vn -0.6601 0.3538 -0.6626
vn 0.8056 0.1586 -0.5709
vn 0.9669 -0.1202 -0.2250
vn 0.5258 -0.5187 -0.6741
vn -0.5418 0.7279 -0.4203
vn -0.5418 0.8405 -0.0000
vn -0.0000 0.8660 0.5000
vn 0.5418 0.7279 0.4203
vn 0.8175 0.5760 -0.0000
vn 0.8461 0.4617 -0.2665
vn 0.8461 0.2665 -0.4617
vn -0.6667 -0.5397 -0.5141
vn 0.4042 -0.7739 -0.4876
vn 0.5955 -0.5361 -0.5982
vn 0.7855 -0.1755 -0.5935
vn -0.1640 -0.4653 -0.8698
vn -0.9539 -0.2870 -0.0874
vn 0.5738 0.7537 0.3206
vn 0.8175 -0.0000 -0.5760
vn 0.9874 0.0444 0.1519
vn 0.5894 0.4248 0.6871
vn -0.7194 0.1583 -0.6764
vn -0.9115 0.4025 -0.0843
vn 0.8512 0.5142 -0.1056
vn 0.7116 -0.1431 -0.6878
vn 0.9500 -0.2917 -0.1112
vn -0.5418 0.7279 0.4203
vn -0.8175 0.4988 -0.2880
vn -0.8175 0.5760 -0.0000
vn 0.4037 0.7725 0.4902
vn 0.5418 0.4203 0.7279
vn -0.1411 0.9121 0.3849
vn 0.0005 0.9279 0.3728
vn 0.2419 0.8925 0.3806
vn 0.8175 0.4988 0.2880
vn 0.8461 0.5331 -0.0000
vn 0.8461 -0.0000 -0.5331
vn 0.7891 -0.0000 -0.6143
vn 0.7891 -0.4344 -0.4344
vn 0.8854 -0.4649 -0.0000
vn 0.8461 -0.5331 -0.0000
vn 0.8461 -0.4617 -0.2665
vn 0.8461 -0.2665 -0.4617
vn 0.8461 0.4617 0.2665
vn 0.8568 0.5156 -0.0000
vn 0.7891 0.4344 -0.4344
vn -0.0000 -0.8660 -0.5000
vn -0.1410 -0.9117 -0.3859
vn -0.0004 -0.9279 -0.3728
vn 0.2416 -0.8934 -0.3788
vn -0.7489 -0.5619 -0.3513
vn 0.7506 -0.6443 0.1465
vn 0.0957 -0.9842 0.1489
vn -0.6102 -0.7891 0.0702
vn -0.7832 -0.4921 -0.3801
vn 0.6633 0.7470 -0.0441
vn 0.9957 0.0632 0.0683
vn 0.8503 0.0075 0.5263
vn -0.7956 -0.5448 -0.2649
vn -0.9897 0.1391 -0.0329
vn -0.8758 -0.1081 -0.4704
vn -0.5418 -0.0000 -0.8405
vn -0.8175 0.2880 -0.4988
vn -0.6694 0.2176 -0.7103
vn 0.5100 -0.8197 -0.2605
vn -0.1927 -0.9182 -0.3461
vn -0.5418 0.4203 0.7279
vn -0.4043 0.7740 0.4873
vn -0.2416 0.8935 0.3786
vn -0.8175 0.4988 0.2880
vn -0.8461 0.4617 -0.2665
vn -0.8461 0.5331 -0.0000
vn 0.5487 -0.2597 0.7947
vn 0.5418 -0.0000 0.8405
vn 0.5938 0.5341 0.6018
vn 0.8670 0.1894 0.4610
vn 0.8175 0.2880 0.4988
vn 0.8175 -0.2880 -0.4988
vn 0.6240 0.5525 -0.5525
vn 0.6240 -0.0000 -0.7814
vn 0.6240 -0.5525 -0.5525
vn 0.6240 -0.7814 -0.0000
vn 0.7891 -0.4344 0.4344
vn 0.7891 -0.0000 0.6143
vn 0.7891 0.4344 0.4344
vn 0.8461 0.2665 0.4617
vn 0.8461 -0.0000 0.5331
vn 0.8461 -0.2665 0.4617
vn 0.8461 -0.4617 0.2665
vn 0.8175 -0.5760 -0.0000
vn 0.8175 -0.4988 -0.2880
vn 0.6240 0.7814 -0.0000
vn -0.6908 -0.6813 -0.2421
vn 0.4194 -0.8791 -0.2267
vn -0.4037 -0.7726 -0.4900
vn -0.2419 -0.8926 -0.3804
vn -0.9896 -0.1361 -0.0473
vn 0.8345 0.4279 0.3472
vn 0.8027 0.2864 0.5231
vn 0.8589 0.5121 0.0095
vn 0.8101 0.5231 0.2649
vn 0.8782 -0.0416 0.4765
vn -0.8731 -0.1955 -0.4465
vn -0.6433 0.4263 0.6359
vn -0.9954 -0.0336 -0.0898
vn -0.8175 -0.0000 -0.5760
vn -0.8461 0.2665 -0.4617
vn -0.7941 -0.1714 -0.5831
vn -0.6601 -0.3538 -0.6626
vn 0.7639 -0.3479 -0.5435
vn 0.9554 -0.2953 -0.0088
vn -0.8175 0.2880 0.4988
vn -0.5418 -0.0000 0.8405
vn -0.3599 -0.1150 0.9259
vn -0.6638 0.3543 0.6587
vn -0.5957 0.5363 0.5979
vn -0.8461 0.4617 0.2665
vn -0.7891 -0.0000 -0.6143
vn -0.7891 0.4344 -0.4344
vn -0.8568 0.5156 -0.0000
vn -0.8461 -0.0000 -0.5331
vn -0.8461 -0.2665 -0.4617
vn -0.8461 -0.4617 -0.2665
vn -0.8461 -0.5331 -0.0000
vn -0.8854 -0.4649 -0.0000
vn -0.7891 -0.4344 -0.4344
vn 0.4037 -0.7725 0.4902
vn 0.5418 -0.4203 0.7279
vn 0.5938 -0.5341 0.6018
vn 0.8175 -0.0000 0.5760
vn 0.9942 0.0762 -0.0762
vn 0.9942 -0.0000 -0.1077
vn 0.9942 -0.0762 -0.0762
vn 0.9942 -0.1077 -0.0000
vn 0.6240 -0.5525 0.5525
vn 0.6240 -0.0000 0.7814
vn 0.6240 0.5525 0.5525
vn 0.8175 -0.2880 0.4988
vn 0.8175 -0.4988 0.2880
vn 0.9942 0.1077 -0.0000
vn -0.7179 -0.6950 -0.0394
vn 0.8120 -0.5010 -0.2993
vn -0.4592 -0.6273 -0.6290
vn 0.7160 -0.5985 0.3595
vn 0.0569 -0.9128 0.4045
vn 0.9875 0.0827 0.1344
vn -0.6392 -0.7276 0.2491
vn -0.9946 -0.0916 -0.0478
vn -0.7458 -0.6659 -0.0190
vn 0.8617 0.3512 0.3662
vn 0.6620 0.7353 -0.1453
vn 0.8719 0.4895 -0.0156
vn 0.9022 0.4280 0.0538
vn -0.7605 -0.6443 0.0807
vn -0.9984 0.0531 -0.0215
vn -0.6794 -0.0484 -0.7322
vn -0.9005 -0.4229 -0.1014
vn -0.7262 -0.5832 -0.3640
vn -0.5418 -0.4203 -0.7279
vn -0.8430 -0.5379 0.0036
vn -0.8175 -0.2880 -0.4988
vn -0.5940 -0.5343 -0.6014
vn 0.8307 0.1026 0.5472
vn 0.6018 -0.7891 0.1229
vn -0.1083 -0.9842 0.1400
vn -0.8461 0.2665 0.4617
vn -0.8175 -0.0000 0.5760
vn -0.5418 -0.4203 0.7279
vn -0.4043 -0.7740 0.4873
vn -0.5957 -0.5363 0.5979
vn -0.6240 -0.5525 -0.5525
vn -0.6240 -0.0000 -0.7814
vn -0.6240 0.5525 -0.5525
vn -0.6240 0.7814 -0.0000
vn -0.8461 -0.4617 0.2665
vn -0.8461 -0.2665 0.4617
vn -0.8461 -0.0000 0.5331
vn -0.7891 0.4344 0.4344
vn -0.7891 -0.0000 0.6143
vn -0.7891 -0.4344 0.4344
vn -0.8175 -0.4988 -0.2880
vn -0.8175 -0.5760 -0.0000
vn -0.6240 -0.7814 -0.0000
vn -0.0000 -0.8660 0.5000
vn -0.7210 -0.5954 0.3545
vn -0.9334 -0.0751 0.3508
vn -0.0917 0.9949 -0.0412
vn 0.9551 0.2251 0.1928
vn 0.2419 -0.8925 0.3806
vn 0.0005 -0.9279 0.3728
vn -0.1411 -0.9121 0.3849
vn 0.7172 -0.4928 0.4928
vn 0.7172 -0.0000 0.6969
vn 0.7172 0.4928 0.4928
vn 0.9942 -0.0762 0.0762
vn 0.7172 0.6969 -0.0000
vn 0.9942 -0.0000 0.1077
vn 0.9942 0.0762 0.0762
vn 0.7172 -0.6969 -0.0000
vn -0.8500 -0.4828 -0.2108
vn -0.0000 -1.0000 -0.0000
vn 0.9652 -0.2227 -0.1372
vn 0.6817 -0.7085 -0.1824
vn 0.8543 -0.5001 0.1416
vn -0.0198 -0.4910 0.8710
vn 0.4578 -0.2854 0.8420
vn -0.5302 -0.3842 0.7558
vn -0.7998 -0.5467 -0.2477
vn -0.8241 -0.5516 0.1287
vn -0.8353 0.0994 0.5407
vn -0.8765 0.4254 0.2252
vn 0.9038 0.4230 -0.0655
vn 0.6936 0.2318 0.6821
vn -0.7262 -0.6860 0.0458
vn -0.5418 -0.7279 -0.4203
vn -0.7431 0.2509 -0.6204
vn -0.9011 0.3755 -0.2167
vn 0.9899 -0.1361 0.0388
vn -0.8175 -0.2880 0.4988
vn 0.7613 -0.2972 0.5763
vn -0.4086 -0.8171 0.4067
vn -0.9942 -0.0762 -0.0762
vn -0.9942 -0.0000 -0.1077
vn -0.9942 0.0762 -0.0762
vn -0.6240 0.5525 0.5525
vn -0.9942 0.1077 -0.0000
vn -0.6240 -0.5525 0.5525
vn -0.8175 -0.4988 0.2880
vn -0.6240 -0.0000 0.7814
vn -0.5418 -0.8405 -0.0000
vn -0.9942 -0.1077 -0.0000
vn -0.2416 -0.8935 0.3786
vn -0.7266 0.6252 -0.2848
vn -0.0411 0.9496 -0.3108
vn 0.7530 -0.0000 0.6581
vn 0.7530 -0.4653 0.4653
vn 0.7530 0.4653 0.4653
vn 0.7172 0.4928 -0.4928
vn 0.7530 0.6581 -0.0000
vn 0.7172 -0.0000 -0.6969
vn 0.7172 -0.4928 -0.4928
vn 0.7530 -0.6581 -0.0000
vn -0.6219 0.6611 0.4197
vn -0.8088 -0.5857 0.0521
vn 0.4288 0.7373 0.5220
vn -0.0917 -0.8962 0.4341
vn -0.7374 -0.5887 0.3312
vn -0.9945 0.0792 0.0691
vn -0.8595 -0.4139 0.3000
vn -0.7809 0.5689 -0.2579
vn 0.7180 -0.6951 0.0357
vn 0.9939 -0.1029 0.0387
vn 0.6073 -0.7219 0.3319
vn 0.8604 0.4149 0.2960
vn -0.5418 -0.7279 0.4203
vn 0.1528 0.9790 -0.1346
vn -0.7172 0.4928 0.4928
vn -0.7172 -0.0000 0.6969
vn -0.7172 -0.4928 0.4928
vn -0.9942 0.0762 0.0762
vn -0.7172 -0.6969 -0.0000
vn -0.9942 -0.0762 0.0762
vn -0.9942 -0.0000 0.1077
vn -0.7172 0.6969 -0.0000
vn 0.7125 -0.5677 0.4123
vn -0.0991 0.8979 0.4289
vn 0.7530 -0.4653 -0.4653
vn 0.7530 -0.0000 -0.6581
vn 0.7530 0.4653 -0.4653
vn -0.8864 -0.1434 -0.4401
vn -0.9580 -0.2789 0.0670
vn -0.5058 -0.2568 0.8235
vn -0.7281 -0.5509 0.4079
vn -0.7353 0.2494 0.6302
vn -0.8648 -0.4745 0.1641
vn 0.8118 -0.5552 -0.1809
vn 0.8164 -0.5427 0.1974
vn 0.4678 -0.3610 0.8067
vn -0.0426 -0.4529 0.8905
vn 0.8120 -0.5643 0.1491
vn 0.8651 -0.4823 -0.1379
vn -0.9309 0.1341 0.3398
vn -0.5521 0.4652 0.6919
vn 0.7533 0.2274 0.6172
vn -0.7530 0.4653 0.4653
vn -0.7530 -0.0000 0.6581
vn -0.7530 -0.4653 0.4653
vn -0.7172 -0.4928 -0.4928
vn -0.7530 -0.6581 -0.0000
vn -0.7172 0.4928 -0.4928
vn -0.7172 -0.0000 -0.6969
vn -0.7530 0.6581 -0.0000
vn -0.4529 0.7563 0.4720
vn 0.7986 0.1104 0.5917
vn 0.9139 -0.1498 -0.3772
vn 0.9451 -0.2907 0.1492
vn 0.0860 0.9102 0.4051
vn 0.7490 0.6127 -0.2522
vn -0.7530 0.4653 -0.4653
vn -0.7530 -0.0000 -0.6581
vn -0.7530 -0.4653 -0.4653
vn -0.6565 0.7241 -0.2114
vn 0.5986 0.6702 0.4388
vn -0.5653 0.3637 0.7404
vn -0.0020 -0.8644 0.5027
vn -0.4342 -0.7487 0.5009
vn 0.4302 -0.7486 0.5045
vn -0.0028 -0.6707 0.7417
vn -0.3381 -0.5808 0.7405
vn -0.7507 -0.4323 0.4996
vn 0.7465 -0.4322 0.5059
vn 0.3325 -0.5808 0.7430
vn -0.5836 -0.3353 0.7395
vn -0.0031 -0.5909 0.8067
vn -0.2985 -0.5117 0.8056
vn -0.8665 -0.0000 0.4991
vn 0.8623 -0.0000 0.5064
vn 0.5780 -0.3353 0.7439
vn 0.2924 -0.5117 0.8078
vn -0.6735 -0.0000 0.7392
vn -0.5148 -0.2955 0.8048
vn -0.0033 -0.4978 0.8673
vn -0.7507 0.4323 0.4996
vn 0.7465 0.4322 0.5059
vn 0.6679 -0.0000 0.7443
vn 0.5087 -0.2955 0.8087
vn -0.5836 0.3353 0.7395
vn -0.5940 -0.0000 0.8045
vn -0.4670 -0.4641 0.7527
vn -0.4342 0.7487 0.5009
vn 0.4302 0.7486 0.5045
vn 0.5780 0.3353 0.7439
vn 0.5879 -0.0000 0.8090
vn 0.4613 -0.4641 0.7562
vn -0.3381 0.5808 0.7405
vn -0.5148 0.2955 0.8048
vn -0.6592 -0.0000 0.7519
vn -0.0021 -0.8394 0.5435
vn -0.5956 -0.5936 0.5412
vn -0.0020 0.8644 0.5027
vn 0.3325 0.5808 0.7430
vn 0.5087 0.2955 0.8087
vn 0.6535 -0.0000 0.7569
vn 0.5915 -0.5936 0.5457
vn -0.0028 0.6707 0.7417
vn -0.2985 0.5118 0.8056
vn -0.8415 -0.0000 0.5403
vn -0.0038 -0.1354 0.9908
vn -0.0995 -0.0957 0.9904
vn 0.2924 0.5118 0.8078
vn 0.8374 -0.0000 0.5467
vn 0.0920 -0.0957 0.9912
vn -0.0031 0.5909 0.8067
vn -0.4670 0.4641 0.7527
vn -0.1391 -0.0000 0.9903
vn -0.5956 0.5936 0.5412
vn -0.0024 0.7788 0.6272
vn 0.5483 0.5507 0.6293
vn 0.4613 0.4641 0.7562
vn 0.5915 0.5936 0.5457
vn 0.1316 -0.0000 0.9913
vn -0.5531 0.5507 0.6252
vn -0.0032 0.5521 0.8338
vn -0.0995 0.0957 0.9904
vn 0.7764 -0.0000 0.6302
vn -0.0021 0.8394 0.5435
vn 0.4858 0.4885 0.7248
vn -0.0027 0.6909 0.7230
vn 0.0920 0.0957 0.9912
vn -0.7812 -0.0000 0.6243
vn -0.4912 0.4885 0.7211
vn -0.0038 0.1354 0.9908
vn 0.5483 -0.5507 0.6293
vn 0.6881 -0.0000 0.7256
vn -0.6936 -0.0000 0.7204
vn -0.5531 -0.5507 0.6252
vn -0.0024 -0.7788 0.6272
vn 0.4858 -0.4885 0.7248
vn -0.4912 -0.4885 0.7211
vn -0.0027 -0.6909 0.7230
vn -0.4303 -0.7486 -0.5044
vn 0.0019 -0.8644 -0.5027
vn -0.7467 -0.4322 -0.5056
vn -0.3325 -0.5808 -0.7430
vn 0.0028 -0.6707 -0.7417
vn 0.4341 -0.7486 -0.5011
vn -0.8625 -0.0000 -0.5060
vn -0.5780 -0.3353 -0.7439
vn -0.2924 -0.5117 -0.8078
vn 0.0031 -0.5909 -0.8067
vn 0.3381 -0.5808 -0.7405
vn 0.7505 -0.4322 -0.4999
vn -0.7467 0.4322 -0.5056
vn -0.6679 -0.0000 -0.7443
vn -0.5087 -0.2955 -0.8087
vn 0.0033 -0.4978 -0.8673
vn 0.2985 -0.5117 -0.8056
vn 0.5836 -0.3353 -0.7395
vn 0.8663 -0.0000 -0.4995
vn -0.4303 0.7486 -0.5044
vn -0.5780 0.3353 -0.7439
vn -0.5879 -0.0000 -0.8090
vn -0.4613 -0.4641 -0.7562
vn 0.5148 -0.2955 -0.8048
vn 0.6735 -0.0000 -0.7392
vn 0.7505 0.4322 -0.4999
vn 0.0019 0.8644 -0.5027
vn -0.3325 0.5808 -0.7430
vn -0.5087 0.2955 -0.8087
vn -0.6535 -0.0000 -0.7569
vn -0.5915 -0.5936 -0.5457
vn 0.0021 -0.8394 -0.5435
vn 0.4670 -0.4641 -0.7527
vn 0.5940 -0.0000 -0.8045
vn 0.5836 0.3353 -0.7395
vn 0.4341 0.7486 -0.5011
vn 0.0028 0.6707 -0.7417
vn -0.2924 0.5118 -0.8078
vn -0.8374 -0.0000 -0.5466
vn 0.5956 -0.5936 -0.5412
vn -0.0920 -0.0957 -0.9912
vn 0.0038 -0.1354 -0.9908
vn 0.6593 -0.0000 -0.7519
vn 0.5148 0.2955 -0.8048
vn 0.3381 0.5808 -0.7405
vn 0.0031 0.5909 -0.8067
vn -0.4613 0.4641 -0.7562
vn -0.5915 0.5936 -0.5457
vn -0.1316 -0.0000 -0.9913
vn 0.8415 -0.0000 -0.5403
vn 0.0995 -0.0957 -0.9904
vn 0.5531 0.5507 -0.6252
vn 0.0024 0.7788 -0.6272
vn 0.2985 0.5117 -0.8056
vn 0.0032 0.5521 -0.8338
vn 0.0021 0.8394 -0.5435
vn -0.0920 0.0957 -0.9912
vn 0.7812 -0.0000 -0.6243
vn 0.4670 0.4641 -0.7527
vn 0.5956 0.5936 -0.5412
vn 0.1391 -0.0000 -0.9903
vn -0.5483 0.5507 -0.6293
vn 0.4912 0.4885 -0.7211
vn 0.0027 0.6909 -0.7230
vn 0.0038 0.1354 -0.9908
vn 0.5531 -0.5507 -0.6252
vn 0.6936 -0.0000 -0.7204
vn 0.0995 0.0957 -0.9904
vn -0.7764 -0.0000 -0.6302
vn -0.4858 0.4885 -0.7248
vn 0.0024 -0.7788 -0.6272
vn 0.4912 -0.4885 -0.7211
vn 0.0027 -0.6909 -0.7230
vn -0.5483 -0.5507 -0.6293
vn -0.6881 -0.0000 -0.7256
vn -0.4858 -0.4885 -0.7248
vt 0.721101 0.233223
vt 0.779144 0.050024
vt 0.794018 0.050024
vt 0.732222 0.244797
vt 0.680094 0.362706
vt 0.668083 0.355852
vt 0.694252 0.205281
vt 0.743236 0.050024
vt 0.707327 0.050024
vt 0.692453 0.050024
vt 0.639085 0.339305
vt 0.667403 0.177340
vt 0.656282 0.165766
vt 0.651566 0.548229
vt 0.640488 0.551158
vt 0.613744 0.558229
vt 0.610087 0.322757
vt 0.586999 0.565299
vt 0.598076 0.315903
vt 0.689612 0.772723
vt 0.679340 0.781739
vt 0.654542 0.803504
vt 0.629743 0.825269
vt 0.575921 0.568228
vt 0.619471 0.834285
vt 0.586999 0.565299
vt 0.769784 0.810226
vt 0.758898 0.833969
vt 0.752229 0.884735
vt 0.753684 0.932786
vt 0.762411 0.949976
vt 0.751406 0.815643
vt 0.778511 0.827416
vt 0.760753 0.833969
vt 0.769771 0.810226
vt 0.866462 0.759544
vt 0.862979 0.775863
vt 0.878768 0.770588
vt 0.870359 0.809986
vt 0.884279 0.841924
vt 0.761720 0.949976
vt 0.755060 0.932786
vt 0.773298 0.926234
vt 0.752925 0.913478
vt 0.896585 0.852968
vt 0.776430 0.827416
vt 0.776831 0.875467
vt 0.892688 0.802526
vt 0.754659 0.884735
vt 0.770738 0.926234
vt 0.867544 0.775863
vt 0.869332 0.759544
vt 0.896232 0.641609
vt 0.896078 0.641926
vt 0.888788 0.656909
vt 0.894229 0.645726
vt 0.923427 0.604692
vt 0.907614 0.605815
vt 0.901346 0.631099
vt 0.902238 0.624258
vt 0.913664 0.629739
vt 0.929477 0.628617
vt 0.900211 0.852968
vt 0.889379 0.841924
vt 0.875847 0.809986
vt 0.900068 0.836649
vt 0.938886 0.620815
vt 0.880164 0.770588
vt 0.393417 0.759645
vt 0.372062 0.794456
vt 0.318833 0.768547
vt 0.306721 0.817075
vt 0.261156 0.866127
vt 0.248868 0.852872
vt 0.248868 0.906151
vt 0.410647 0.906151
vt 0.410647 0.734491
vt 0.401269 0.734491
vt 0.397048 0.758909
vt 0.371434 0.768475
vt 0.365663 0.734491
vt 0.327333 0.734491
vt 0.904282 0.608577
vt 0.893695 0.802526
vt 0.936380 0.610905
vt 0.901999 0.836649
vt 0.907429 0.623526
vt 0.903625 0.613617
vt 0.897806 0.638373
vt 0.900863 0.632091
vt 0.906663 0.590312
vt 0.913551 0.537477
vt 0.917929 0.398887
vt 0.907425 0.405600
vt 0.904850 0.428930
vt 0.916108 0.415384
vt 0.944945 0.620815
vt 0.936647 0.628617
vt 0.921107 0.629739
vt 0.921525 0.402940
vt 0.155466 0.736796
vt 0.154749 0.751392
vt 0.197511 0.743713
vt 0.195227 0.734491
vt 0.155984 0.734491
vt 0.903625 0.613615
vt 0.911922 0.605815
vt 0.927462 0.604692
vt 0.340105 0.683179
vt 0.941141 0.610905
vt 0.373393 0.682166
vt 0.370734 0.645354
vt 0.369975 0.639730
vt 0.374132 0.516978
vt 0.374425 0.500000
vt 0.352377 0.500000
vt 0.340134 0.683063
vt 0.906348 0.592733
vt 0.896336 0.418942
vt 0.901346 0.429239
vt 0.914504 0.530169
vt 0.248868 0.968983
vt 0.410647 0.968983
vt 0.421506 0.793875
vt 0.421506 0.669669
vt 0.147191 0.734491
vt 0.087089 0.734491
vt 0.087089 0.906151
vt 0.215683 0.817075
vt 0.857423 0.299804
vt 0.857672 0.303940
vt 0.855822 0.323278
vt 0.410647 0.628898
vt 0.402022 0.718598
vt 0.907271 0.585649
vt 0.904743 0.530169
vt 0.902989 0.516435
vt 0.852353 0.336505
vt 0.855219 0.313292
vt 0.928897 0.402940
vt 0.924407 0.415384
vt 0.913381 0.428930
vt 0.911086 0.503953
vt 0.908991 0.572458
vt 0.177855 0.613798
vt 0.159930 0.583333
vt 0.157766 0.596174
vt 0.149136 0.693871
vt 0.182452 0.683063
vt 0.909828 0.566037
vt 0.903493 0.445707
vt 0.902094 0.419146
vt 0.913120 0.405600
vt 0.924222 0.398887
vt 0.087089 0.968983
vt 0.248868 0.906151
vt 0.421506 0.839337
vt 0.437745 0.756998
vt 0.437745 0.648378
vt 0.387182 0.265509
vt 0.327333 0.265509
vt 0.340134 0.316937
vt 0.352377 0.500000
vt 0.894346 0.435643
vt 0.850503 0.355843
vt 0.895232 0.461818
vt 0.414551 0.500000
vt 0.421506 0.500000
vt 0.906544 0.591229
vt 0.149132 0.693876
vt 0.128677 0.641862
vt 0.125152 0.598250
vt 0.116792 0.500000
vt 0.087089 0.500000
vt 0.174902 0.569304
vt 0.909107 0.571564
vt 0.087089 0.906151
vt 0.076231 0.793875
vt 0.076231 0.839337
vt 0.326471 0.734492
vt 0.410647 0.734492
vt 0.248868 0.853535
vt 0.260567 0.866127
vt 0.306030 0.817075
vt 0.421506 0.793875
vt 0.437745 0.796755
vt 0.437745 0.500000
vt 0.437745 0.500000
vt 0.437745 0.327248
vt 0.437745 0.255691
vt 0.437745 0.203245
vt 0.437745 0.243003
vt 0.437745 0.351622
vt 0.437745 0.756997
vt 0.437745 0.744309
vt 0.437745 0.672752
vt 0.794561 0.345242
vt 0.792311 0.325478
vt 0.790491 0.304412
vt 0.414790 0.341199
vt 0.414536 0.468090
vt 0.421506 0.330332
vt 0.414109 0.286179
vt 0.414386 0.312740
vt 0.894648 0.449569
vt 0.865641 0.299804
vt 0.864276 0.313292
vt 0.861585 0.336505
vt 0.076231 0.669669
vt 0.170302 0.500000
vt 0.157544 0.500000
vt 0.862438 0.323278
vt 0.864879 0.303940
vt 0.087089 0.734492
vt 0.194364 0.734492
vt 0.214993 0.817075
vt 0.059991 0.756997
vt 0.059991 0.796755
vt 0.351384 0.500000
vt 0.410647 0.500000
vt 0.339243 0.683064
vt 0.351384 0.500000
vt 0.446941 0.663483
vt 0.446941 0.500000
vt 0.446941 0.336517
vt 0.446941 0.268800
vt 0.437745 0.327248
vt 0.421506 0.160663
vt 0.421506 0.206126
vt 0.446941 0.731200
vt 0.396248 0.093849
vt 0.248868 0.093849
vt 0.248868 0.147128
vt 0.261156 0.133873
vt 0.306721 0.182925
vt 0.389696 0.241586
vt 0.395463 0.116671
vt 0.129981 0.093849
vt 0.130784 0.105489
vt 0.132424 0.189926
vt 0.135181 0.257575
vt 0.139746 0.265508
vt 0.195227 0.265509
vt 0.215683 0.182925
vt 0.870175 0.365177
vt 0.790168 0.294384
vt 0.791530 0.301269
vt 0.793780 0.321033
vt 0.852956 0.346490
vt 0.856722 0.350577
vt 0.865396 0.355354
vt 0.868212 0.389174
vt 0.893540 0.434735
vt 0.832805 0.355272
vt 0.850711 0.359284
vt 0.893848 0.438136
vt 0.890505 0.406959
vt 0.902135 0.435292
vt 0.902279 0.435643
vt 0.902305 0.436598
vt 0.116533 0.439091
vt 0.114784 0.282605
vt 0.114854 0.282246
vt 0.115043 0.280162
vt 0.114663 0.279829
vt 0.114628 0.279569
vt 0.112650 0.265508
vt 0.087089 0.265508
vt 0.076231 0.500000
vt 0.059991 0.648378
vt 0.170302 0.500000
vt 0.172922 0.460513
vt 0.087090 0.500000
vt 0.169308 0.500000
vt 0.181561 0.683064
vt 0.059991 0.500000
vt 0.059991 0.672752
vt 0.059991 0.744309
vt 0.059991 0.500000
vt 0.059991 0.351622
vt 0.059991 0.243003
vt 0.059991 0.203245
vt 0.059991 0.255691
vt 0.059991 0.327248
vt 0.326471 0.265508
vt 0.410647 0.265508
vt 0.339243 0.316937
vt 0.421506 0.500000
vt 0.451121 0.638925
vt 0.451121 0.500000
vt 0.451121 0.361075
vt 0.451121 0.303531
vt 0.446941 0.336517
vt 0.446941 0.500000
vt 0.446941 0.663483
vt 0.414124 0.093660
vt 0.412985 0.102980
vt 0.415005 0.138913
vt 0.415266 0.086161
vt 0.414640 0.172424
vt 0.413715 0.278277
vt 0.451121 0.696469
vt 0.145330 0.303767
vt 0.189806 0.287333
vt 0.739741 0.338587
vt 0.739417 0.328559
vt 0.741561 0.359653
vt 0.740779 0.335444
vt 0.795402 0.339811
vt 0.816287 0.328309
vt 0.824772 0.332982
vt 0.743029 0.355208
vt 0.859947 0.374750
vt 0.743811 0.379418
vt 0.795535 0.350166
vt 0.816287 0.352045
vt 0.798076 0.294384
vt 0.799254 0.304412
vt 0.801374 0.325478
vt 0.859608 0.352166
vt 0.902285 0.436444
vt 0.076231 0.330332
vt 0.182452 0.316937
vt 0.800352 0.321033
vt 0.798531 0.301269
vt 0.867834 0.360364
vt 0.864685 0.354962
vt 0.859747 0.346490
vt 0.087090 0.265508
vt 0.194364 0.265508
vt 0.181561 0.316937
vt 0.050796 0.336517
vt 0.050796 0.500000
vt 0.050796 0.663483
vt 0.050796 0.731200
vt 0.059991 0.351622
vt 0.059991 0.672752
vt 0.076231 0.206126
vt 0.076231 0.160663
vt 0.050796 0.268800
vt 0.394154 0.093849
vt 0.394891 0.114182
vt 0.405975 0.149586
vt 0.410647 0.139811
vt 0.306030 0.182925
vt 0.260567 0.133873
vt 0.248868 0.146465
vt 0.446941 0.614366
vt 0.446941 0.385634
vt 0.446941 0.338262
vt 0.451121 0.500000
vt 0.412999 0.118168
vt 0.412676 0.081797
vt 0.446941 0.661738
vt 0.899684 0.425824
vt 0.698776 0.383109
vt 0.698568 0.376694
vt 0.699940 0.396586
vt 0.699440 0.381098
vt 0.700879 0.393743
vt 0.744849 0.376274
vt 0.762920 0.364105
vt 0.767179 0.355354
vt 0.770119 0.365821
vt 0.757553 0.375136
vt 0.755506 0.379344
vt 0.745173 0.386302
vt 0.701379 0.409231
vt 0.811635 0.330871
vt 0.816287 0.328309
vt 0.100160 0.093849
vt 0.087090 0.093849
vt 0.108953 0.213744
vt 0.902168 0.435547
vt 0.046616 0.361075
vt 0.046616 0.500000
vt 0.046616 0.638924
vt 0.050796 0.663483
vt 0.046616 0.696469
vt 0.076231 0.206125
vt 0.087090 0.031017
vt 0.046616 0.303531
vt 0.205916 0.219264
vt 0.122985 0.129977
vt 0.125058 0.093848
vt 0.214993 0.182925
vt 0.248868 0.031017
vt 0.395901 0.031017
vt 0.397012 0.057738
vt 0.437745 0.605097
vt 0.437745 0.394904
vt 0.437745 0.351371
vt 0.446941 0.614366
vt 0.437745 0.648629
vt 0.885517 0.396707
vt 0.848711 0.346165
vt 0.702044 0.407220
vt 0.854736 0.349483
vt 0.747224 0.328559
vt 0.748402 0.338587
vt 0.750523 0.359653
vt 0.094277 0.031017
vt 0.101282 0.086444
vt 0.902149 0.435403
vt 0.827222 0.334331
vt 0.801883 0.336242
vt 0.749500 0.355208
vt 0.747679 0.335444
vt 0.087090 0.093848
vt 0.050796 0.385634
vt 0.050796 0.614365
vt 0.046616 0.638925
vt 0.050796 0.661738
vt 0.050796 0.338262
vt 0.849857 0.346797
vt 0.852655 0.348337
vt 0.802343 0.335988
vt 0.847612 0.345560
vt 0.059991 0.394903
vt 0.059991 0.605097
vt 0.050796 0.614366
vt 0.059991 0.648629
vt 0.059991 0.351371
vt 0.125147 0.049446
vt 0.127401 0.031017
vt 0.702251 0.413636
vt 0.399847 0.073968
vt 0.399175 0.072502
vt 0.397273 0.041873
vt 0.398470 0.082751
vt 0.398917 0.080210
vt 0.400866 0.077547
vt 0.712563 0.377242
vt 0.713326 0.383742
vt 0.714701 0.397397
vt 0.752344 0.379418
vt 0.756989 0.376296
vt 0.767179 0.355353
vt 0.715882 0.410209
vt 0.759612 0.370904
vt 0.751621 0.376274
vt 0.714038 0.394516
vt 0.712858 0.381704
vt 0.129744 0.092940
vt 0.126763 0.045008
vt 0.127248 0.071095
vt 0.125640 0.075319
vt 0.123451 0.085917
vt 0.859196 0.351939
vt 0.850913 0.347378
vt 0.108955 0.162899
vt 0.111058 0.167244
vt 0.111339 0.167714
vt 0.112474 0.163141
vt 0.095142 0.093848
vt 0.098861 0.142505
vt 0.751709 0.387146
vt 0.751808 0.386944
vt 0.716177 0.414672
vt 0.752667 0.385178
vt 0.059991 0.394904
vt 0.095593 0.036969
vt 0.097203 0.048857
vt 0.715413 0.408172
vt 0.752718 0.385074
vt 0.260329 0.133873
vt 0.214811 0.182925
vt 0.305847 0.182925
vt 0.260285 0.235086
vt 0.227350 0.270577
vt 0.181490 0.316937
vt 0.339169 0.316937
vt 0.293221 0.270577
vt 0.203240 0.367543
vt 0.260220 0.268329
vt 0.231418 0.299367
vt 0.169293 0.500000
vt 0.351366 0.500000
vt 0.317331 0.367543
vt 0.289022 0.299367
vt 0.194415 0.500000
vt 0.210333 0.384165
vt 0.212796 0.500000
vt 0.226686 0.634865
vt 0.260220 0.690727
vt 0.231418 0.700634
vt 0.210333 0.615836
vt 0.202615 0.500000
vt 0.260220 0.309272
vt 0.226686 0.365135
vt 0.181490 0.683064
vt 0.339169 0.683064
vt 0.326156 0.500000
vt 0.310107 0.384165
vt 0.203240 0.632457
vt 0.214811 0.817075
vt 0.305847 0.817075
vt 0.317331 0.632457
vt 0.317824 0.500000
vt 0.227350 0.729423
vt 0.260183 0.319506
vt 0.228448 0.372371
vt 0.260329 0.866127
vt 0.293221 0.729423
vt 0.310107 0.615836
vt 0.307644 0.500000
vt 0.293754 0.365135
vt 0.289022 0.700634
vt 0.260220 0.731672
vt 0.293754 0.634865
vt 0.291917 0.372371
vt 0.260285 0.764915
vt 0.215303 0.500000
vt 0.260166 0.346620
vt 0.233199 0.391544
vt 0.305062 0.500000
vt 0.287133 0.391544
vt 0.222028 0.500000
vt 0.228448 0.627629
vt 0.260183 0.373734
vt 0.237983 0.410716
vt 0.291917 0.627629
vt 0.298303 0.500000
vt 0.282383 0.410717
vt 0.233199 0.608456
vt 0.228787 0.500000
vt 0.260183 0.680494
vt 0.239819 0.417953
vt 0.260220 0.383968
vt 0.287133 0.608456
vt 0.291578 0.500000
vt 0.280621 0.417953
vt 0.260166 0.653380
vt 0.237983 0.589284
vt 0.231369 0.500000
vt 0.289071 0.500000
vt 0.280621 0.582047
vt 0.260220 0.616032
vt 0.239819 0.582047
vt 0.282383 0.589284
vt 0.260183 0.626266
vt 0.216117 0.182925
vt 0.261635 0.133873
vt 0.182796 0.316936
vt 0.228744 0.270577
vt 0.261679 0.235085
vt 0.307154 0.182925
vt 0.170599 0.500000
vt 0.204634 0.367542
vt 0.232943 0.299366
vt 0.261745 0.268328
vt 0.294614 0.270577
vt 0.340475 0.316937
vt 0.182796 0.683063
vt 0.195809 0.500000
vt 0.211858 0.384164
vt 0.290547 0.299366
vt 0.318725 0.367542
vt 0.352672 0.500000
vt 0.216117 0.817075
vt 0.204634 0.632457
vt 0.204140 0.500000
vt 0.211858 0.615836
vt 0.232943 0.700633
vt 0.261745 0.690727
vt 0.228211 0.634865
vt 0.214321 0.500000
vt 0.228211 0.365135
vt 0.261745 0.309272
vt 0.309169 0.500000
vt 0.295278 0.634864
vt 0.261745 0.731672
vt 0.290547 0.700633
vt 0.311632 0.615836
vt 0.319349 0.500000
vt 0.311632 0.384164
vt 0.295278 0.365135
vt 0.327549 0.500000
vt 0.340475 0.683063
vt 0.261635 0.866127
vt 0.228744 0.729423
vt 0.230047 0.372371
vt 0.261782 0.319506
vt 0.318724 0.632457
vt 0.307154 0.817075
vt 0.261679 0.764914
vt 0.216903 0.500000
vt 0.293516 0.372371
vt 0.234832 0.391544
vt 0.261799 0.346620
vt 0.294614 0.729423
vt 0.230048 0.627628
vt 0.223661 0.500000
vt 0.306661 0.500000
vt 0.288766 0.391544
vt 0.239582 0.410716
vt 0.261782 0.373734
vt 0.261782 0.680494
vt 0.234832 0.608456
vt 0.230386 0.500000
vt 0.293516 0.627628
vt 0.299936 0.500000
vt 0.283982 0.410716
vt 0.241344 0.417953
vt 0.261745 0.383968
vt 0.261799 0.653380
vt 0.239582 0.589283
vt 0.232894 0.500000
vt 0.288766 0.608456
vt 0.293177 0.500000
vt 0.282146 0.417953
vt 0.241344 0.582047
vt 0.261745 0.616032
vt 0.282146 0.582047
vt 0.290596 0.500000
vt 0.261782 0.626266
vt 0.283982 0.589283
s 1
usemtl Texture
f 2/1/2 3/2/3 4/3/4 1/4/1
f 2/1/2 1/4/1 13/5/13 5/6/5
f 3/2/3 2/1/2 15/7/15 6/8/6
f 1/4/1 4/3/4 12/2/12 7/1/7
f 4/3/4 3/2/3 6/8/6 8/9/8 9/10/9 10/9/10 11/8/11 12/2/12
f 5/6/5 14/11/14 15/7/15 2/1/2
f 1/4/1 7/1/7 22/6/22 13/5/13
f 6/8/6 15/7/15 16/12/16 8/9/8
f 8/9/8 16/12/16 17/13/17 9/10/9
f 9/10/9 17/13/17 18/12/18 10/9/10
f 10/9/10 18/12/18 19/7/19 11/8/11
f 11/8/11 19/7/19 7/1/7 12/2/12
f 5/6/5 13/5/13 23/14/23 20/15/20
f 14/11/14 5/6/5 20/15/20 21/16/21
f 14/11/14 24/17/24 16/12/16 15/7/15
f 21/16/21 25/18/25 24/17/24 14/11/14
f 7/1/7 19/7/19 28/11/28 22/6/22
f 13/5/13 22/6/22 32/15/32 23/14/23
f 17/13/17 16/12/16 24/17/24 26/19/26
f 18/12/18 17/13/17 26/19/26 27/17/27
f 19/7/19 18/12/18 27/17/27 28/11/28
f 20/15/20 23/14/23 33/20/33 29/21/29
f 21/16/21 20/15/20 29/21/29 30/22/30
f 25/18/25 21/16/21 30/22/30 31/23/31
f 25/18/25 34/24/34 26/19/26 24/17/24
f 31/23/31 35/25/35 34/24/34 25/18/25
f 22/6/22 28/11/28 37/16/37 32/15/32
f 23/14/23 32/15/32 42/21/42 33/20/33
f 27/17/27 26/19/26 34/24/34 36/26/36
f 28/11/28 27/17/27 36/26/36 37/16/37
f 33/20/33 38/27/38 39/28/39 29/21/29
f 29/21/29 39/28/39 40/29/40 30/22/30
f 30/22/30 40/29/40 41/30/41 31/23/31
f 31/23/31 41/30/41 45/31/45 35/25/35
f 38/27/38 33/20/33 49/32/49 43/33/43
f 35/25/35 44/23/44 36/26/36 34/24/34
f 32/15/32 37/16/37 47/22/47 42/21/42
f 33/20/33 42/21/42 56/34/56 46/35/46
f 37/16/37 36/26/36 44/23/44 47/22/47
f 38/27/38 48/36/48 51/37/51 39/28/39
f 43/33/43 50/38/50 48/36/48 38/27/38
f 39/28/39 51/37/51 52/39/52 40/29/40
f 40/29/40 52/39/52 55/40/55 41/30/41
f 44/23/44 35/25/35 59/41/59 53/42/53
f 35/25/35 45/31/45 61/43/61 54/44/54
f 41/30/41 55/40/55 62/45/62 45/31/45
f 33/20/33 46/35/46 64/46/64 49/32/49
f 57/47/57 43/33/43 49/32/49
f 50/38/50 43/33/43 57/47/57 58/48/58
f 53/42/53 60/49/60 47/22/47 44/23/44
f 35/25/35 54/44/54 73/50/73 59/41/59
f 42/21/42 47/22/47 60/49/60 56/34/56
f 46/35/46 56/34/56 75/51/75 63/52/63
f 65/53/65 51/37/51 48/36/48 66/54/66
f 67/55/67 48/36/48 50/38/50 68/56/68
f 57/47/57 49/32/49 64/46/64
f 58/48/58 69/57/69 80/58/80 50/38/50
f 51/37/51 65/53/65 93/59/93 113/60/113 70/61/70 52/39/52
f 52/39/52 70/61/70 74/62/74 55/40/55
f 53/42/53 59/41/59 82/63/82 71/64/71
f 60/49/60 53/42/53 71/64/71 72/65/72
f 45/31/45 62/45/62 79/66/79 61/43/61
f 54/44/54 61/43/61 57/47/57
f 55/40/55 74/62/74 83/67/83 62/45/62
f 63/52/63 76/68/76 64/46/64 46/35/46
f 66/69/66 67/70/67 87/71/87 103/72/103 104/73/104 105/74/105 101/75/101 86/76/86 102/77/102 93/78/93 65/79/65
f 66/54/66 48/36/48 67/55/67
f 68/80/68 77/81/77 88/82/88 87/71/87 67/70/67
f 68/56/68 50/38/50 80/58/80 107/83/107 77/59/77
f 57/47/57 64/46/64 76/68/76 78/84/78
f 58/48/58 57/47/57 61/43/61 79/66/79
f 69/57/69 58/48/58 79/66/79 81/85/81
f 72/65/72 75/51/75 56/34/56 60/49/60
f 57/47/57 73/50/73 54/44/54
f 59/41/59 73/50/73 89/86/89 82/63/82
f 75/51/75 97/87/97 136/88/136 116/59/116 84/89/84 63/52/63
f 85/90/85 76/68/76 63/52/63 84/89/84
f 78/84/78 89/86/89 73/50/73 57/47/57
f 90/91/90 80/58/80 69/57/69 91/92/91
f 81/85/81 92/93/92 112/94/112 69/57/69
f 70/61/70 94/95/94 98/96/98 74/62/74
f 71/64/71 82/63/82 115/97/115 95/98/95
f 72/65/72 71/64/71 95/98/95 96/99/96
f 75/51/75 72/65/72 96/99/96 97/87/97
f 62/45/62 83/67/83 81/85/81 79/66/79
f 74/62/74 98/96/98 111/100/111 83/67/83
f 85/101/85 84/102/84 118/103/118 117/104/117 99/105/99
f 85/90/85 99/59/99 141/106/141 119/107/119 76/68/76
f 78/84/78 76/68/76 119/107/119 100/108/100
f 88/82/88 77/81/77 106/109/106
f 89/86/89 78/84/78 100/108/100 108/110/108
f 77/81/77 107/111/107 110/112/110 90/113/90 91/114/91 109/115/109 125/116/125 126/117/126 106/109/106
f 110/118/110 80/58/80 90/91/90
f 69/57/69 112/94/112 190/119/189 150/120/150 109/121/109 91/92/91
f 92/93/92 81/85/81 83/67/83 111/100/111
f 82/63/82 89/86/89 108/110/108 115/97/115
f 120/122/120 121/123/121 86/76/86 101/75/101
f 102/77/102 86/76/86 122/124/122 123/125/123
f 118/103/118 84/102/84 116/126/116 137/127/137 143/128/143 101/75/101 105/74/105 124/129/124
f 107/83/107 80/58/80 110/118/110
f 111/100/111 127/130/127 128/131/128 92/93/92
f 92/93/92 128/131/128 155/132/155 112/94/112
f 93/78/93 102/77/102 129/133/129 113/134/113
f 113/60/113 129/135/129 114/136/114 131/137/131 94/95/94 70/61/70
f 94/95/94 130/138/130 135/139/135 98/96/98
f 95/98/95 115/97/115 154/140/154 132/141/132
f 96/99/96 95/98/95 132/141/132 133/142/133
f 97/87/97 96/99/96 133/142/133 200/143/199 160/121/160 134/144/134
f 98/96/98 135/139/135 127/130/127 111/100/111
f 139/145/139 140/146/140 163/147/162 141/148/141 99/105/99 117/104/117 138/149/138
f 119/107/119 140/150/140 164/121/163 249/151/248 302/152/301 165/153/164 100/108/100
f 108/110/108 100/108/100 165/153/164 142/154/142
f 120/122/120 101/75/101 143/128/143 144/155/144
f 145/156/145 146/76/146 121/123/121 120/122/120
f 86/76/86 121/123/121 147/157/147 122/124/122
f 123/125/123 122/124/122 148/158/148 149/159/149
f 150/160/150 151/161/151 152/162/152 153/163/153 125/116/125 109/115/109
f 115/97/115 108/110/108 142/154/142 154/140/154
f 130/138/130 94/95/94 159/164/159 156/165/156
f 158/166/158 159/164/159 94/95/94 131/137/131
f 114/167/114 129/133/129 102/77/102 123/125/123 157/168/157
f 97/87/97 134/144/134 161/169/161
f 136/88/136 97/87/97 161/169/161
f 136/170/136 161/171/161 134/172/134 160/173/160 201/174/200 137/127/137 116/126/116
f 162/175/139 140/146/140 139/145/139
f 163/176/162 119/107/119 141/106/141
f 119/107/119 163/176/162 140/150/140
f 145/156/145 120/122/120 144/155/144 166/177/165
f 143/128/143 167/178/166 168/179/167 144/155/144
f 169/180/168 170/181/169 146/76/146 145/156/145 171/182/170 172/183/171 173/184/172
f 121/123/121 146/76/146 174/185/173 147/157/147
f 122/124/122 147/157/147 175/186/174 148/158/148
f 157/168/157 123/125/123 149/159/149 176/187/175
f 177/188/176 178/189/177 179/190/178 180/191/179 181/192/180 182/193/181 176/187/175 149/159/149 148/158/148 175/186/174 183/194/182 184/195/183 185/196/184
f 156/165/156 195/197/194 196/198/195 130/138/130
f 130/138/130 196/198/195 191/199/190 135/139/135
f 158/200/158 131/201/131 114/167/114 157/168/157 217/202/216 241/203/240 197/204/196
f 197/205/196 159/164/159 158/166/158
f 132/141/132 154/140/154 205/206/204 198/207/197
f 133/142/133 132/141/132 198/207/197 199/208/198
f 137/127/137 202/209/201 167/178/166 143/128/143
f 203/210/202 164/211/163 140/146/140 162/175/139
f 142/154/142 165/153/164 250/212/249 204/213/203
f 154/140/154 142/154/142 204/213/203 205/206/204
f 171/182/170 145/156/145 166/177/165 206/214/205 207/215/206 208/216/207
f 144/155/144 168/179/167 209/178/208 166/177/165
f 167/178/166 210/217/209 211/218/210 168/179/167
f 212/219/211 213/220/212 170/181/169 169/180/168 214/221/213 215/222/214
f 146/76/146 170/181/169 216/125/215 174/185/173
f 147/157/147 174/185/173 183/194/182 175/186/174
f 217/202/216 157/168/157 176/187/175 182/193/181
f 185/196/184 218/223/217 219/224/218 177/188/176
f 177/188/176 219/224/218 220/225/219 178/189/177
f 178/189/177 220/225/219 221/226/220 179/190/178
f 179/190/178 222/227/221 223/187/222 224/196/223 184/195/183 183/194/182 225/159/224 226/187/225 227/193/226 228/192/227 180/191/179
f 229/228/228 230/229/229 181/192/180 180/191/179
f 230/229/229 217/202/216 182/193/181 181/192/180
f 184/195/183 231/230/230 218/223/217 185/196/184
f 232/231/231 186/232/185 187/233/186 188/234/187 189/235/188 151/161/151 150/160/150 190/236/189 194/237/193
f 187/233/186 186/232/185 342/238/341 281/239/280 341/240/340 343/241/342 233/242/232 234/243/233 235/244/234
f 112/94/112 194/245/193 190/119/189
f 192/246/191 127/130/127 135/139/135 191/199/190
f 193/247/192 128/131/128 127/130/127 192/246/191
f 236/248/235 155/132/155 128/131/128 193/247/192
f 112/94/112 155/132/155 350/249/349 288/250/287 232/251/231 194/245/193
f 237/252/236 156/165/156 159/164/159 238/253/237
f 239/254/238 195/197/194 156/165/156 240/255/239
f 238/253/237 159/164/159 197/205/196 241/256/240
f 199/208/198 242/257/241 295/120/294 355/258/354 243/259/242 133/142/133
f 200/143/199 133/142/133 243/259/242 244/260/243
f 200/261/199 244/262/243 299/263/298 356/264/355 389/265/388 355/266/354 295/267/294 298/268/297 201/174/200 160/173/160
f 201/174/200 245/269/244 202/209/201 137/127/137
f 202/209/201 246/270/245 210/217/209 167/178/166
f 164/211/163 203/210/202 247/271/246 248/272/247
f 166/177/165 209/178/208 251/209/250 206/214/205
f 207/215/206 206/214/205 252/273/251 253/274/252 254/274/253 255/275/254
f 168/179/167 211/218/210 256/217/255 209/178/208
f 257/276/256 258/277/257 259/278/258 256/217/255 211/218/210 210/217/209 246/270/245 260/279/259 261/280/260 262/281/261 263/282/262 264/283/263 265/284/264
f 266/285/265 267/286/266 213/220/212 212/219/211 268/287/267
f 170/181/169 213/220/212 269/288/268 216/125/215
f 174/185/173 216/125/215 225/159/224 183/194/182
f 219/224/218 218/223/217 270/289/269 271/290/270
f 220/225/219 219/224/218 271/290/270 272/291/271
f 221/226/220 220/225/219 272/291/271 273/292/272
f 179/190/178 221/226/220 274/293/273 222/227/221
f 222/227/221 274/293/273 275/294/274 223/187/222
f 223/187/222 275/294/274 276/295/275 224/196/223
f 224/196/223 276/295/275 231/230/230 184/195/183
f 216/125/215 269/288/268 226/187/225 225/159/224
f 269/288/268 277/202/276 227/193/226 226/187/225
f 277/202/276 278/229/277 228/192/227 227/193/226
f 278/229/277 229/228/228 180/191/179 228/192/227
f 239/296/238 240/297/239 289/298/288 230/229/229 229/228/228 292/299/291
f 237/300/236 238/301/237 241/203/240 217/202/216 230/229/229 289/298/288
f 218/223/217 231/230/230 279/302/278 270/289/269
f 234/243/233 233/242/232 249/303/248 282/304/281
f 191/199/190 283/305/282 284/306/283 192/246/191
f 196/198/195 285/307/284 283/305/282 191/199/190
f 192/246/191 284/306/283 286/308/285 193/247/192
f 155/132/155 236/248/235 348/309/347 280/310/279 347/311/346
f 193/247/192 286/308/285 287/312/286 236/248/235
f 240/255/239 156/165/156 237/252/236 289/313/288
f 195/197/194 290/314/289 285/307/284 196/198/195
f 291/315/290 195/197/194 239/254/238 292/316/291
f 198/207/197 205/206/204 304/317/303 293/318/292
f 199/208/198 198/207/197 293/318/292 294/319/293
f 242/257/241 199/208/198 296/320/295 297/251/296
f 244/260/243 243/259/242 299/321/298
f 298/268/297 300/322/299 245/269/244 201/174/200
f 245/269/244 260/279/259 246/270/245 202/209/201
f 249/303/248 164/211/163 248/272/247 301/323/300 282/304/281
f 204/213/203 250/212/249 357/324/356 303/325/302
f 250/212/249 165/153/164 302/152/301 281/326/280 342/251/341 419/327/418 393/328/392
f 205/206/204 204/213/203 303/325/302 304/317/303
f 209/178/208 256/217/255 305/270/304 251/209/250
f 206/214/205 251/209/250 306/269/305 252/273/251
f 253/274/252 252/273/251 307/329/306 308/330/307 309/331/308
f 257/276/256 265/284/264 310/332/309 311/333/310
f 258/277/257 257/276/256 311/333/310 312/334/311
f 259/278/258 258/277/257 312/334/311 313/335/312
f 264/283/263 263/282/262 314/281/313 315/336/314 316/279/315 305/270/304 256/217/255 259/278/258 317/337/316 318/276/317 319/284/318
f 300/322/299 261/280/260 260/279/259 245/269/244
f 320/338/319 262/281/261 261/280/260 300/322/299
f 321/339/320 263/282/262 262/281/261 320/338/319
f 265/284/264 264/283/263 322/340/321 310/332/309
f 323/232/322 324/341/323 325/342/324 326/343/325 327/344/326 267/286/266 266/285/265 328/345/327 329/346/328 330/347/329
f 213/220/212 267/286/266 277/202/276 269/288/268
f 271/290/270 270/289/269 331/348/330 332/224/331
f 272/291/271 271/290/270 332/224/331 333/349/332
f 274/293/273 221/226/220 273/292/272 334/291/333
f 273/292/272 272/291/271 333/349/332 335/350/334
f 275/294/274 274/293/273 334/291/333 336/351/335
f 276/295/275 275/294/274 336/351/335 337/289/336
f 231/230/230 276/295/275 337/289/336 279/302/278
f 278/229/277 277/202/276 267/286/266 327/344/326 351/352/350
f 351/352/350 291/353/290 292/299/291 229/228/228 278/229/277
f 270/289/269 279/302/278 338/354/337 331/348/330
f 343/355/342 302/152/301 249/151/248 233/120/232
f 284/306/283 283/305/282 345/356/344 344/357/343
f 283/305/282 285/307/284 352/358/351 345/356/344
f 286/308/285 284/306/283 344/357/343 346/359/345
f 287/312/286 286/308/285 346/359/345 349/360/348
f 236/248/235 287/312/286 372/361/371 325/362/324 324/363/323 348/309/347
f 351/364/350 327/365/326 326/366/325 373/367/372 290/314/289 195/197/194 291/315/290
f 285/307/284 290/314/289 384/368/383 352/358/351
f 388/369/387 353/370/352 296/320/295 199/208/198 294/319/293
f 297/371/296 354/372/353 298/268/297 295/267/294 242/373/241
f 299/321/298 243/259/242 356/374/355
f 354/372/353 320/338/319 300/322/299 298/268/297
f 251/209/250 305/270/304 316/279/315 306/269/305
f 252/273/251 306/269/305 358/322/357 307/329/306
f 310/332/309 361/375/360 362/376/361 311/333/310
f 311/333/310 362/376/361 363/377/362 312/334/311
f 317/337/316 259/278/258 313/335/312 364/378/363
f 312/334/311 363/377/362 365/379/364 313/335/312
f 264/283/263 319/284/318 366/332/365 322/340/321
f 367/380/366 314/281/313 263/282/262 321/339/320
f 358/322/357 315/336/314 314/281/313 367/380/366
f 306/269/305 316/279/315 315/336/314 358/322/357
f 318/276/317 317/337/316 364/378/363 368/333/367
f 319/284/318 318/276/317 368/333/367 366/332/365
f 369/381/368 321/339/320 320/338/319 354/372/353
f 322/340/321 370/382/369 361/375/360 310/332/309
f 360/383/359 359/384/358 404/385/403 323/232/322 330/347/329 371/386/370
f 340/387/339 280/388/279 348/389/347 324/341/323 323/232/322
f 325/362/324 372/361/371 373/367/372 326/366/325
f 374/188/373 332/224/331 331/348/330 375/390/374
f 376/391/375 333/349/332 332/224/331 374/188/373
f 334/291/333 273/292/272 335/350/334 377/349/376
f 378/392/377 335/350/334 333/349/332 376/391/375
f 336/351/335 334/291/333 377/349/376 379/294/378
f 337/289/336 336/351/335 379/294/378 380/393/379
f 279/302/278 337/289/336 380/393/379 338/354/337
f 375/390/374 331/348/330 338/354/337 381/394/380
f 302/152/301 341/395/340 281/326/280
f 341/395/340 302/152/301 343/355/342
f 339/396/338 350/249/349 155/132/155 347/311/346
f 349/360/348 382/397/381 372/361/371 287/312/286
f 288/250/287 350/249/349 383/398/382
f 293/318/292 304/317/303 385/399/384 386/400/385
f 294/319/293 293/318/292 386/400/385 387/401/386
f 353/402/352 369/381/368 354/372/353 297/371/296 296/403/295
f 243/259/242 355/258/354 389/404/388
f 356/374/355 243/259/242 389/404/388
f 415/405/414 390/310/389 416/406/415 357/324/356 250/212/249
f 303/325/302 357/324/356 391/407/390 392/408/391
f 304/317/303 303/325/302 392/408/391 385/399/384
f 307/329/306 358/322/357 367/380/366 394/409/393
f 361/375/360 396/410/395 397/333/396 362/376/361
f 362/376/361 397/333/396 398/411/397 363/377/362
f 313/335/312 365/379/364 399/412/398 364/378/363
f 363/377/362 398/411/397 400/413/399 365/379/364
f 366/332/365 401/375/400 370/382/369 322/340/321
f 394/409/393 367/380/366 321/339/320 369/381/368
f 364/378/363 399/412/398 402/376/401 368/333/367
f 368/333/367 402/376/401 401/375/400 366/332/365
f 370/382/369 403/414/402 396/410/395 361/375/360
f 375/390/374 381/394/380 406/390/405 407/187/406 408/391/407 378/392/377 376/391/375 374/188/373
f 408/391/407 377/349/376 335/350/334 378/392/377
f 407/187/406 379/294/378 377/349/376 408/391/407
f 406/390/405 380/393/379 379/294/378 407/187/406
f 381/394/380 338/354/337 380/393/379 406/390/405
f 409/415/408 350/249/349 339/396/338
f 383/398/382 350/249/349 410/416/409
f 388/369/387 294/319/293 414/417/413
f 415/405/414 250/212/249 393/328/392 420/418/419
f 424/419/423 425/276/424 397/333/396 396/410/395
f 425/276/424 426/420/425 398/411/397 397/333/396
f 365/379/364 400/413/399 427/421/426 399/412/398
f 426/420/425 428/422/427 400/413/399 398/411/397
f 401/375/400 429/410/428 403/414/402 370/382/369
f 399/412/398 427/421/426 430/333/429 402/376/401
f 402/376/401 430/333/429 429/410/428 401/375/400
f 431/423/430 424/419/423 396/410/395 403/414/402
f 323/232/322 404/385/403 416/424/415 390/425/389 340/387/339
f 382/397/381 405/426/404 373/367/372 372/361/371
f 405/426/404 384/368/383 290/314/289 373/367/372
f 349/360/348 346/359/345 344/357/343 345/356/344 352/358/351 384/368/383 405/426/404 382/397/381
f 409/427/408 339/428/338 347/429/346 280/388/279 340/387/339 186/232/185 232/231/231 288/430/287 383/431/382 410/432/409
f 410/416/409 350/249/349 409/415/408
f 418/433/417 411/434/410 386/400/385 385/399/384
f 411/434/410 413/435/412 387/401/386 386/400/385
f 414/417/413 294/319/293 387/401/386 441/436/440 421/437/420 412/438/411
f 413/435/412 432/439/431 441/436/440 387/401/386
f 416/406/415 404/438/403 359/440/358 437/441/436 391/407/390 357/324/356
f 433/442/432 417/443/416 392/408/391 391/407/390
f 417/443/416 418/433/417 385/399/384 392/408/391
f 419/444/418 342/238/341 186/232/185 340/387/339 390/425/389 415/445/414 420/446/419 434/447/433 435/448/434
f 435/449/434 393/328/392 419/327/418
f 420/418/419 393/328/392 434/450/433
f 443/451/442 422/452/421 395/453/394 423/454/422 359/384/358 360/383/359 308/330/307 307/329/306 394/409/393 412/455/411 421/456/420
f 395/457/394 422/458/421 432/439/431 436/459/435
f 423/460/422 437/441/436 359/440/358
f 426/420/425 425/276/424 424/419/423 431/423/430 438/461/437 439/276/438 440/420/439 428/422/427
f 428/422/427 440/420/439 427/421/426 400/413/399
f 438/461/437 431/423/430 403/414/402 429/410/428
f 412/455/411 394/409/393 369/381/368 353/402/352 388/462/387 414/463/413
f 440/420/439 439/276/438 430/333/429 427/421/426
f 439/276/438 438/461/437 429/410/428 430/333/429
f 391/407/390 437/441/436 442/464/441 433/442/432
f 436/459/435 432/439/431 413/435/412 411/434/410 418/433/417 417/443/416 433/442/432 442/464/441
f 434/450/433 393/328/392 435/449/434
f 436/459/435 442/464/441 437/441/436 423/460/422 395/457/394
f 421/437/420 441/436/440 443/465/442
f 441/436/440 432/439/431 422/458/421 443/465/442
f 329/346/328 444/466/443 445/467/444 371/386/370 330/347/329
f 328/345/327 446/468/445 444/466/443 329/346/328
f 445/467/444 444/466/443 447/469/446 448/470/447
f 371/386/370 445/467/444 449/471/448 309/331/308 308/330/307 360/383/359
f 268/287/267 450/472/449 446/468/445 328/345/327 266/285/265
f 444/466/443 446/468/445 451/473/450 447/469/446
f 449/471/448 445/467/444 448/470/447 452/474/451
f 448/470/447 447/469/446 453/475/452 454/476/453
f 309/331/308 449/471/448 455/477/454 254/274/253 253/274/252
f 215/222/214 456/478/455 450/472/449 268/287/267 212/219/211
f 446/468/445 450/472/449 457/479/456 451/473/450
f 447/469/446 451/473/450 458/480/457 453/475/452
f 455/477/454 449/471/448 452/474/451 459/481/458
f 452/474/451 448/470/447 454/476/453 460/482/459
f 476/483/475 493/484/492 502/485/501 485/486/484 475/487/474 467/488/466 460/482/459 454/476/453 453/475/452 461/489/460 468/490/467
f 254/274/253 455/477/454 462/491/461 255/275/254
f 214/221/213 463/492/462 456/478/455 215/222/214
f 450/472/449 456/478/455 464/493/463 457/479/456
f 451/473/450 457/479/456 465/494/464 458/480/457
f 462/491/461 455/477/454 459/481/458 466/495/465
f 459/481/458 452/474/451 460/482/459 467/488/466
f 255/275/254 462/491/461 469/496/468 208/216/207 207/215/206
f 173/184/172 470/497/469 463/492/462 214/221/213 169/180/168
f 456/478/455 463/492/462 471/498/470 464/493/463
f 457/479/456 464/493/463 472/499/471 465/494/464
f 469/496/468 462/491/461 466/495/465 474/500/473
f 466/495/465 459/481/458 467/488/466 475/487/474
f 461/489/460 477/501/476 478/502/477 468/490/467
f 208/216/207 469/496/468 479/503/478 172/183/171 171/182/170
f 172/183/171 479/503/478 470/497/469 173/184/172
f 463/492/462 470/497/469 480/504/479 471/498/470
f 464/493/463 471/498/470 481/505/480 472/499/471
f 482/506/481 473/507/472 461/489/460 453/475/452 458/480/457 465/494/464 472/499/471 481/505/480 489/508/488 492/509/491 485/486/484 502/485/501 498/510/497
f 473/507/472 483/511/482 477/501/476 461/489/460
f 479/503/478 469/496/468 474/500/473 484/512/483
f 474/500/473 466/495/465 475/487/474 485/486/484
f 468/490/467 478/502/477 486/513/485 476/483/475
f 478/502/477 477/501/476 487/514/486 488/515/487
f 470/497/469 479/503/478 484/512/483 480/504/479
f 471/498/470 480/504/479 489/508/488 481/505/480
f 482/506/481 490/516/489 483/511/482 473/507/472
f 477/501/476 483/511/482 491/517/490 487/514/486
f 484/512/483 474/500/473 485/486/484 492/509/491
f 486/513/485 478/502/477 488/515/487 494/518/493
f 476/483/475 486/513/485 495/519/494 493/484/492
f 488/515/487 487/514/486 496/520/495 497/521/496
f 480/504/479 484/512/483 492/509/491 489/508/488
f 498/510/497 499/522/498 490/516/489 482/506/481
f 483/511/482 490/516/489 500/523/499 491/517/490
f 487/514/486 491/517/490 501/524/500 496/520/495
f 495/519/494 486/513/485 494/518/493 503/525/502
f 494/518/493 488/515/487 497/521/496 504/526/503
f 493/484/492 495/519/494 505/527/504 502/485/501
f 506/528/505 497/521/496 496/520/495 507/529/506
f 502/485/501 505/527/504 499/522/498 498/510/497
f 490/516/489 499/522/498 508/530/507 500/523/499
f 491/517/490 500/523/499 509/531/508 501/524/500
f 507/529/506 496/520/495 501/524/500 510/532/509
f 505/527/504 495/519/494 503/525/502 511/533/510
f 503/525/502 494/518/493 504/526/503 512/534/511
f 513/535/512 504/526/503 497/521/496 506/528/505
f 510/532/509 514/536/513 518/537/517 519/538/518 517/539/516 513/535/512 506/528/505 507/529/506
f 499/522/498 505/527/504 511/533/510 508/530/507
f 500/523/499 508/530/507 515/540/514 509/531/508
f 510/532/509 501/524/500 509/531/508 514/536/513
f 511/533/510 503/525/502 512/534/511 516/541/515
f 517/539/516 512/534/511 504/526/503 513/535/512
f 508/530/507 511/533/510 516/541/515 515/540/514
f 514/536/513 509/531/508 515/540/514 518/537/517
f 519/538/518 516/541/515 512/534/511 517/539/516
f 518/537/517 515/540/514 516/541/515 519/538/518
f 235/244/234 520/542/519 521/543/520 188/234/187 187/233/186
f 301/323/300 522/544/521 520/542/519 235/244/234 234/243/233 282/304/281
f 520/542/519 523/545/522 524/546/523 521/543/520
f 188/234/187 521/543/520 525/547/524 189/235/188
f 247/271/246 526/548/525 522/544/521 301/323/300 248/272/247
f 522/544/521 527/549/526 523/545/522 520/542/519
f 523/545/522 528/550/527 529/551/528 524/546/523
f 521/543/520 524/546/523 530/552/529 525/547/524
f 189/235/188 525/547/524 531/553/530 152/162/152 151/161/151
f 138/149/138 532/554/531 526/548/525 247/271/246 203/210/202 162/175/139 139/145/139
f 526/548/525 533/555/532 527/549/526 522/544/521
f 527/549/526 534/556/533 528/550/527 523/545/522
f 524/546/523 529/551/528 536/557/535 530/552/529
f 525/547/524 530/552/529 537/558/536 531/553/530
f 152/162/152 531/553/530 538/559/537 153/163/153
f 124/129/124 539/560/538 532/554/531 138/149/138 117/104/117 118/103/118
f 532/554/531 540/561/539 533/555/532 526/548/525
f 533/555/532 541/562/540 534/556/533 527/549/526
f 548/563/547 557/564/556 574/565/573 566/566/565 549/567/548 542/568/541 535/569/534 529/551/528 528/550/527 534/556/533 541/562/540
f 562/570/561 578/571/577 574/565/573 557/564/556 565/572/564 573/573/572 563/574/562 553/575/552 543/576/542 536/557/535 529/551/528 535/569/534 552/577/551
f 530/552/529 536/557/535 543/576/542 537/558/536
f 531/553/530 537/558/536 544/578/543 538/559/537
f 153/163/153 538/559/537 545/579/544 126/117/126 125/116/125
f 104/73/104 546/580/545 539/560/538 124/129/124 105/74/105
f 539/560/538 547/581/546 540/561/539 532/554/531
f 540/561/539 548/563/547 541/562/540 533/555/532
f 535/569/534 542/568/541 550/582/549 551/583/550
f 537/558/536 543/576/542 553/575/552 544/578/543
f 538/559/537 544/578/543 554/584/553 545/579/544
f 126/117/126 545/579/544 555/585/554 103/72/103 87/71/87 88/82/88 106/109/106
f 103/72/103 555/585/554 546/580/545 104/73/104
f 546/580/545 556/586/555 547/581/546 539/560/538
f 547/581/546 557/564/556 548/563/547 540/561/539
f 542/568/541 549/567/548 558/587/557 550/582/549
f 552/577/551 535/569/534 551/583/550 559/588/558
f 550/582/549 560/589/559 561/590/560 551/583/550
f 544/578/543 553/575/552 563/574/562 554/584/553
f 545/579/544 554/584/553 564/591/563 555/585/554
f 555/585/554 564/591/563 556/586/555 546/580/545
f 556/586/555 565/572/564 557/564/556 547/581/546
f 549/567/548 566/566/565 567/592/566 558/587/557
f 558/587/557 568/593/567 560/589/559 550/582/549
f 562/570/561 552/577/551 559/588/558 569/594/568
f 551/583/550 561/590/560 570/595/569 559/588/558
f 560/589/559 571/596/570 572/597/571 561/590/560
f 554/584/553 563/574/562 573/573/572 564/591/563
f 564/591/563 573/573/572 565/572/564 556/586/555
f 566/566/565 574/565/573 575/598/574 567/592/566
f 567/592/566 576/599/575 568/593/567 558/587/557
f 568/593/567 577/600/576 571/596/570 560/589/559
f 578/571/577 562/570/561 569/594/568 579/601/578
f 559/588/558 570/595/569 580/602/579 569/594/568
f 561/590/560 572/597/571 581/603/580 570/595/569
f 582/604/581 583/605/582 572/597/571 571/596/570
f 574/565/573 578/571/577 579/601/578 575/598/574
f 575/598/574 584/606/583 576/599/575 567/592/566
f 576/599/575 585/607/584 577/600/576 568/593/567
f 586/608/585 582/604/581 571/596/570 577/600/576
f 569/594/568 580/602/579 587/609/586 579/601/578
f 570/595/569 581/603/580 588/610/587 580/602/579
f 583/605/582 589/611/588 581/603/580 572/597/571
f 583/605/582 582/604/581 586/608/585 591/612/590 592/613/591 595/614/594 594/615/593 589/611/588
f 579/601/578 587/609/586 584/606/583 575/598/574
f 584/606/583 590/616/589 585/607/584 576/599/575
f 591/612/590 586/608/585 577/600/576 585/607/584
f 580/602/579 588/610/587 593/617/592 587/609/586
f 589/611/588 594/615/593 588/610/587 581/603/580
f 587/609/586 593/617/592 590/616/589 584/606/583
f 592/613/591 591/612/590 585/607/584 590/616/589
f 594/615/593 595/614/594 593/617/592 588/610/587
f 595/614/594 592/613/591 590/616/589 593/617/592
