# Blender 5.0.0
# www.blender.org
mtllib BiggerBush.mtl
o Bush
v 0.000000 0.666038 -0.000000
v -0.000000 0.666038 -0.968512
v 0.407907 0.775336 -0.968511
v 0.407907 0.775336 -0.000000
v 0.407907 0.775336 0.968512
v 0.000000 0.666038 0.968512
v -0.407907 0.775336 -0.221039
v -0.407907 0.775336 -0.968511
v -0.018869 0.671094 -0.000000
v -0.025023 0.672743 -0.012545
v -0.068412 0.684369 -0.088026
v -0.160442 0.709028 -0.182988
v -0.225080 0.726348 -0.193618
v -0.000000 0.891562 -1.033520
v 0.295145 0.970646 -1.033520
v 0.706515 1.073945 -0.342228
v -0.407907 0.775336 0.968512
v -0.407907 0.775336 0.218174
v -0.391566 0.770958 0.215303
v -0.160442 0.709028 0.182988
v -0.145932 0.705140 0.166401
v -0.068412 0.684369 0.088026
v -0.018869 0.671094 0.000000
v 0.609585 0.977015 0.528363
v 0.596581 0.964011 0.494296
v 0.596541 0.963971 0.494682
v 0.597003 0.964432 0.495399
v 0.295145 0.970646 1.033520
v -0.000000 0.891562 1.033520
v -0.706515 1.073945 -0.199820
v -0.706515 1.073945 -0.968512
v -0.515509 0.882938 -0.208827
v -0.645649 1.013079 -0.190856
v -0.295145 0.970646 -1.033520
v 0.706515 1.073945 -0.968512
v 0.511205 1.186707 -1.033520
v -0.000000 0.965635 -1.130738
v 0.258108 1.034795 -1.130738
v 0.690836 1.058266 -0.313507
v -0.295145 0.970646 1.033520
v -0.706515 1.073945 0.968511
v -0.706515 1.073945 0.198587
v -0.645650 1.013079 0.190856
v 0.603600 0.971030 0.505658
v 0.706515 1.073944 0.968511
v 0.531487 0.898916 0.232062
v 0.597712 0.965142 0.483318
v 0.511205 1.186706 1.033520
v 0.258108 1.034795 1.130738
v -0.000000 0.965635 1.130738
v -0.815813 1.481851 -0.148370
v -0.815813 1.481852 -0.968512
v -0.779776 1.347357 -0.168055
v -0.511205 1.186707 -1.033520
v -0.258108 1.034795 -1.130738
v 0.815813 1.481851 -0.968512
v 0.590289 1.481851 -1.033520
v 0.447057 1.223743 -1.130738
v 0.000000 1.056867 -1.130738
v 0.300509 1.181342 -1.130738
v 0.424984 1.481851 -1.130738
v 0.300509 1.782360 -1.130738
v 0.000000 1.906835 -1.130738
v 0.258108 1.928908 -1.130738
v 0.447057 1.739959 -1.130738
v 0.516216 1.481851 -1.130738
v 0.609585 0.977015 -0.164669
v 0.734779 0.977015 -0.245164
v 0.815813 1.481851 -0.643782
v 0.737715 1.190384 -0.500719
v -0.258108 1.034795 1.130738
v -0.511205 1.186707 1.033520
v -0.815813 1.481851 0.968512
v -0.815813 1.481851 0.147328
v -0.737562 1.189813 0.183288
v 0.614905 0.977015 0.524943
v 0.613484 0.976303 0.522699
v 0.622867 0.990297 0.535614
v 0.633672 1.001101 0.552413
v 0.686667 1.054097 0.632204
v 0.706515 1.073945 0.653439
v 0.577169 0.944599 -0.000000
v 0.892411 0.898916 -0.000000
v 1.050043 0.977015 0.245164
v 0.705741 0.977015 0.466539
v 0.702023 0.975400 0.461763
v 0.689200 0.971784 0.453966
v 0.639342 0.957201 0.421319
v 0.633377 0.954711 0.414108
v 0.596808 0.952610 0.428298
v 0.590681 0.952276 0.430755
v 0.590663 0.952369 0.431178
v 0.815813 1.481851 0.968512
v 0.590289 1.481851 1.033520
v 0.447057 1.223743 1.130738
v 0.000000 1.056867 1.130738
v 0.516216 1.481851 1.130738
v 0.447057 1.739959 1.130738
v 0.258108 1.928907 1.130738
v 0.000000 1.906835 1.130738
v 0.300509 1.782360 1.130738
v 0.424984 1.481851 1.130738
v 0.300509 1.181342 1.130738
v -0.706515 1.889758 -0.166806
v -0.706515 1.889758 -0.968512
v -0.804119 1.525496 -0.131980
v -0.590289 1.481851 -1.033520
v -0.447057 1.223743 -1.130738
v -0.424984 1.481851 -1.130738
v -0.300509 1.181342 -1.130738
v -0.516216 1.481851 -1.130738
v -0.447056 1.739959 -1.130738
v -0.258108 1.928908 -1.130738
v 0.000000 1.998068 -1.130738
v -0.300509 1.782360 -1.130738
v 0.706515 1.889758 -0.968512
v 0.511205 1.776996 -1.033520
v 0.000000 1.079670 -1.185789
v 0.284385 1.197466 -1.185789
v 0.402181 1.481851 -1.185789
v 0.284385 1.766236 -1.185789
v 0.000000 1.884032 -1.185789
v 0.295145 1.993057 -1.033520
v 0.815813 1.481851 -0.643782
v 1.201488 1.190384 -0.798910
v -0.424984 1.481851 1.130738
v -0.300509 1.782360 1.130738
v 0.000000 1.998067 1.130738
v -0.258108 1.928908 1.130738
v -0.447056 1.739959 1.130738
v -0.516216 1.481851 1.130738
v -0.447057 1.223743 1.130738
v -0.300509 1.181342 1.130738
v -0.590289 1.481851 1.033520
v -0.706515 1.889758 0.968512
v -0.706515 1.889758 0.167142
v -0.738319 1.771063 0.156079
v -0.804119 1.525496 0.131980
v 0.617016 0.980641 0.527897
v 0.712053 1.094612 0.668190
v 0.713160 1.098744 0.669410
v 0.715881 1.108900 0.670942
v 0.725957 1.146502 0.688798
v 0.737631 1.190070 0.700372
v 1.474515 0.898916 -0.374273
v 1.632147 0.977015 -0.129109
v 0.758520 1.059271 0.530395
v 0.721950 1.000020 0.483467
v 0.738044 1.191613 0.700781
v 0.706515 1.889758 0.968512
v 0.511205 1.776995 1.033520
v 0.284385 1.197466 1.185789
v 0.000000 1.079670 1.185789
v 0.295145 1.993057 1.033520
v 0.000000 1.884032 1.185789
v 0.284385 1.766236 1.185789
v 0.402181 1.481851 1.185789
v -0.407906 2.188366 -0.110034
v -0.407906 2.188366 -0.968512
v -0.667006 1.929267 -0.158880
v -0.507249 2.089024 -0.128276
v -0.505144 2.091129 -0.125778
v -0.497034 2.099238 -0.116432
v -0.488279 2.107994 -0.124257
v -0.480403 2.115870 -0.123281
v -0.511205 1.776996 -1.033520
v -0.284385 1.766236 -1.185789
v -0.402181 1.481851 -1.185789
v -0.284385 1.197466 -1.185789
v -0.295144 1.993057 -1.033520
v 0.000000 2.072140 -1.033520
v 0.407907 2.188366 -0.968512
v 0.000000 1.140086 -1.210814
v 0.241664 1.240187 -1.210814
v 0.341765 1.481851 -1.210814
v 0.241664 1.723515 -1.210814
v 0.000000 1.823616 -1.210814
v 1.316883 0.977015 -0.619437
v 1.159251 1.481851 -0.864601
v -0.284385 1.197466 1.185789
v -0.402181 1.481851 1.185789
v -0.284385 1.766236 1.185789
v 0.000000 2.072140 1.033520
v -0.295144 1.993057 1.033520
v -0.511205 1.776996 1.033520
v -0.407906 2.188366 0.968512
v -0.407906 2.188366 0.176591
v -0.488279 2.107994 0.131258
v -0.489942 2.106330 0.128605
v -0.497034 2.099238 0.116431
v -0.507249 2.089023 0.128276
v -0.518128 2.078144 0.130430
v 1.513587 1.060063 -0.399395
v 1.627643 1.116572 -0.222004
v 1.747542 1.190384 0.050363
v 1.165438 1.190384 0.424636
v 0.778915 1.092314 0.556566
v 0.815813 1.481851 0.777884
v 0.750877 1.724195 0.744962
v 0.739966 1.764916 0.731461
v 0.735890 1.780129 0.715374
v 0.407907 2.188366 0.968512
v 0.241664 1.240187 1.210814
v 0.000000 1.140086 1.210814
v 0.000000 1.823616 1.210814
v 0.241664 1.723515 1.210814
v 0.341765 1.481851 1.210814
v 0.000000 2.297664 0.000000
v 0.000000 2.297664 -0.968512
v -0.341807 2.206077 -0.088060
v -0.119892 2.265539 0.000000
v -0.241664 1.723515 -1.210814
v -0.341765 1.481851 -1.210814
v -0.241664 1.240187 -1.210814
v 0.706515 1.889758 -0.342228
v 0.737715 1.773319 -0.500719
v 0.000000 1.200502 -1.185789
v 0.198944 1.282907 -1.185789
v 0.281349 1.481851 -1.185789
v 0.198944 1.680795 -1.185789
v 0.000000 1.763200 -1.185789
v 1.201488 1.773319 -0.798910
v 1.285475 1.481851 -0.754176
v 1.316036 1.270957 -0.706645
v 1.399531 1.116572 -0.576786
v -0.241664 1.240187 1.210814
v -0.341765 1.481851 1.210814
v -0.241664 1.723515 1.210814
v 0.000000 2.297664 0.968512
v 0.000000 2.297664 0.239801
v -0.015520 2.293505 0.208216
v -0.112096 2.267628 0.220825
v 1.711138 1.270957 -0.092145
v 1.572018 1.112992 -0.436964
v 1.671762 1.162409 -0.281833
v 1.789779 1.481851 0.116055
v 1.207675 1.481851 0.490328
v 0.846941 1.190384 0.629419
v 0.815595 1.134751 0.583434
v 0.811243 1.131324 0.582157
v 0.791450 1.112624 0.572652
v 0.798845 1.545177 0.789437
v 0.787812 1.586352 0.782454
v 0.766663 1.665283 0.764493
v 0.706515 1.889758 0.704880
v 0.727686 1.810748 0.682995
v 0.712259 1.868320 0.712017
v 0.708239 1.883322 0.707285
v 0.580271 2.016001 0.592339
v 0.634320 1.961953 0.640682
v 0.198944 1.282907 1.185789
v 0.000000 1.200502 1.185789
v 0.000000 1.763200 1.185789
v 0.198944 1.680795 1.185789
v 0.281349 1.481851 1.185789
v -0.112096 2.267628 0.003094
v -0.070484 2.278778 0.031114
v -0.015520 2.293505 0.070662
v 0.000000 2.297664 0.056195
v 0.407907 2.188366 0.000000
v -0.198944 1.680795 -1.185789
v -0.281349 1.481851 -1.185789
v -0.198944 1.282907 -1.185789
v 0.182820 1.299032 -1.130738
v 0.000000 1.223305 -1.130738
v 0.258546 1.481851 -1.130738
v 0.182819 1.664671 -1.130738
v 0.000000 1.740397 -1.130738
v 1.316883 1.986687 -0.619437
v 1.316036 1.692745 -0.706645
v 1.372530 1.481851 -0.747226
v 1.399257 1.297422 -0.705659
v 1.472274 1.162409 -0.592095
v -0.198944 1.282907 1.185789
v -0.281349 1.481851 1.185789
v -0.198944 1.680794 1.185789
v 0.407907 2.188366 0.444049
v 0.329373 2.209409 0.412249
v 0.068804 2.279228 0.283148
v 0.020853 2.292077 0.253845
v 1.741699 1.481851 -0.044614
v 1.744779 1.297421 -0.168270
v 1.572018 1.178181 -0.436964
v 0.912960 1.481851 0.679820
v 0.848595 1.197572 0.630646
v 1.747542 1.773319 0.050363
v 1.165438 1.773319 0.424637
v 0.696731 1.899541 0.696505
v 0.417486 2.178787 0.446737
v 0.182820 1.299031 1.130738
v 0.000000 1.223305 1.130738
v 0.000000 1.740397 1.130738
v 0.182819 1.664671 1.130738
v 0.258546 1.481851 1.130738
v 0.068804 2.279228 0.082292
v 0.407907 2.188366 0.250338
v -0.258546 1.481851 -1.130738
v -0.182820 1.664671 -1.130738
v -0.182820 1.299032 -1.130738
v 0.690836 1.905436 -0.313507
v 0.734779 1.986687 -0.245164
v 1.399531 1.847130 -0.576786
v 1.399257 1.666281 -0.705658
v 1.407787 1.481851 -0.692392
v 1.455889 1.267124 -0.617579
v -0.182820 1.299031 1.130738
v -0.258546 1.481851 1.130738
v -0.182820 1.664670 1.130738
v 1.711138 1.692745 -0.092145
v 1.771505 1.481851 -0.126703
v 1.688147 1.267124 -0.256349
v 0.879996 1.773319 0.608166
v 0.912920 1.522900 0.666769
v 1.632147 1.986687 -0.129109
v 1.050043 1.986687 0.245164
v 0.550096 2.046176 0.372513
v 0.417486 2.178787 0.260445
v 0.530585 2.065687 0.355253
v 0.609585 1.986687 -0.164669
v 0.892411 2.064786 0.000000
v 1.474515 2.064786 -0.374273
v 1.513587 1.903639 -0.399395
v 1.472274 1.801293 -0.592095
v 1.627643 1.847130 -0.222004
v 1.744779 1.666281 -0.168270
v 1.736250 1.481851 -0.181536
v 1.605106 1.194475 -0.458238
v 1.715003 1.278645 -0.287314
v 0.808685 1.863835 0.546404
v 0.822457 1.845203 0.559701
v 0.874057 1.785607 0.597375
v 0.775199 1.909137 0.514076
v 0.574104 2.022168 0.393751
v 0.531487 2.064786 0.232062
v 0.577169 2.019103 0.000000
v 1.572018 1.850711 -0.436964
v 1.455889 1.696578 -0.617579
v 1.449686 1.481851 -0.699961
v 1.495207 1.278646 -0.629162
v 1.671762 1.801293 -0.281833
v 1.760525 1.481851 -0.216516
v 1.620146 1.237645 -0.467909
v 1.713535 1.309171 -0.322662
v 0.717878 1.986687 0.458735
v 0.587648 2.019780 0.395637
v 0.666504 2.002762 0.420446
v 1.572018 1.785521 -0.436964
v 1.495207 1.685057 -0.629162
v 1.488074 1.481851 -0.673320
v 1.526757 1.309171 -0.613156
v 1.688147 1.696578 -0.256349
v 1.752218 1.481851 -0.262498
v 1.715003 1.685057 -0.287315
v 1.605105 1.280815 -0.458238
v 1.681985 1.339697 -0.338667
v 1.605105 1.769227 -0.458238
v 1.526757 1.654531 -0.613156
v 1.496380 1.481851 -0.627337
v 1.528225 1.339697 -0.577809
v 1.713535 1.654531 -0.322662
v 1.713830 1.481851 -0.289139
v 1.642667 1.351218 -0.327084
v 1.572018 1.297108 -0.436964
v 1.620146 1.726057 -0.467909
v 1.528225 1.624005 -0.577809
v 1.501369 1.351218 -0.546844
v 1.472105 1.481851 -0.592358
v 1.681985 1.624005 -0.338667
v 1.671931 1.481851 -0.281570
v 1.605105 1.682887 -0.458238
v 1.501369 1.612484 -0.546844
v 1.642667 1.612484 -0.327084
v 1.572018 1.666594 -0.436964
v -0.000000 -0.010849 -0.377187
v -0.249829 0.545986 -0.264632
v -0.101049 0.659474 -0.187123
v 0.266711 -0.010849 -0.266711
v -0.266711 -0.010849 -0.266711
v -0.708049 0.986750 -0.218910
v 0.377187 -0.010849 0.000000
v 0.266711 -0.010849 0.266711
v -0.000000 -0.010849 0.377187
v -0.266711 -0.010849 0.266711
v -0.377187 -0.010849 -0.000000
v -0.398609 0.432498 -0.187123
v -0.850666 0.926573 -0.154793
v -0.101049 0.659474 0.187123
v -0.249829 0.545986 0.264632
v -0.398609 0.432498 0.187123
v -0.460235 0.385489 -0.000000
v -1.035031 1.536911 -0.124557
v -0.910626 1.530761 -0.176151
v -0.909740 0.901648 -0.000000
v -1.086561 1.539459 -0.000000
v -0.708049 0.986750 0.218910
v -0.850666 0.926573 0.154793
v -0.676190 2.289971 -0.128367
v -0.588304 2.196407 -0.181539
v -0.712593 2.328727 -0.000000
v -1.035031 1.536911 0.124557
v -0.034793 2.515452 0.035360
v -0.676190 2.289971 0.128367
v -0.500419 2.102842 -0.128367
v -0.910626 1.530761 0.176150
v -0.038523 2.558401 0.139439
v -0.025789 2.411762 -0.007751
v -0.034793 2.515452 0.243519
v -0.588304 2.196407 0.181539
v 0.514344 2.299532 0.267581
v 0.536636 2.327322 0.353591
v -0.025789 2.411762 0.286630
v -0.016785 2.308074 0.035360
v -0.500419 2.102842 0.128367
v 0.514344 2.299532 0.439601
v 0.460525 2.232440 0.231954
v 0.460525 2.232440 0.475228
v -0.016785 2.308074 0.243519
v 0.861101 1.899642 0.574419
v 0.868879 1.947946 0.637480
v 0.834760 1.952700 0.709479
v 0.778731 1.911120 0.748239
v 0.733613 1.847562 0.731055
v 0.934461 1.544798 0.706360
v 0.912821 1.565202 0.768523
v 0.852594 1.563943 0.801988
v 0.830424 1.095121 0.623775
v 0.812902 1.089433 0.671857
v 0.766995 1.094208 0.694682
v 0.719594 1.106648 0.678881
v 0.809297 1.107940 0.578601
v 0.664993 0.874847 0.483703
v 0.686955 0.905702 0.457815
v 0.621057 0.866384 0.493824
v 0.580884 0.885268 0.482250
v 0.674078 0.940872 0.431326
v 0.568007 0.920438 0.455761
v 0.638397 0.728087 0.274779
v 0.654177 0.750256 0.256178
v 0.606827 0.722005 0.282052
v 0.644924 0.775527 0.237145
v 0.577961 0.735574 0.273735
v 0.568709 0.760845 0.254702
v 0.616058 0.789097 0.228829
v 0.584489 0.783015 0.236101
v 0.589969 0.951293 0.429874
vn -0.0000 -1.0000 -0.0000
vn -0.0000 -0.8300 -0.5577
vn 0.4150 -0.7188 -0.5577
vn 0.5000 -0.8660 -0.0000
vn 0.4150 -0.7188 0.5577
vn -0.0000 -0.8300 0.5577
vn -0.3175 -0.6087 -0.7271
vn -0.4150 -0.7188 -0.5577
vn 0.6604 -0.6311 -0.4069
vn 0.6896 -0.5691 -0.4479
vn 0.7315 -0.4339 -0.5260
vn 0.1867 -0.2689 -0.9449
vn -0.0268 -0.5650 -0.8246
vn -0.0000 -0.5271 -0.8498
vn 0.2636 -0.4565 -0.8498
vn 0.2923 -0.8791 -0.3766
vn -0.4150 -0.7188 0.5577
vn -0.3064 -0.6117 0.7294
vn -0.0115 -0.5580 0.8297
vn 0.1780 -0.2555 0.9503
vn 0.6081 -0.4339 0.6648
vn 0.7544 -0.4260 0.4995
vn 0.9958 -0.0873 0.0267
vn 0.5216 -0.8268 0.2105
vn -0.6307 -0.7627 -0.1435
vn -0.7946 -0.2238 0.5643
vn -0.2301 -0.7445 0.6268
vn 0.2636 -0.4565 0.8498
vn -0.0000 -0.5271 0.8498
vn -0.5970 -0.3405 -0.7264
vn -0.7188 -0.4150 -0.5577
vn -0.4332 -0.3362 -0.8363
vn -0.3777 -0.3550 -0.8551
vn -0.2636 -0.4565 -0.8498
vn 0.7188 -0.4150 -0.5577
vn 0.4565 -0.2636 -0.8498
vn -0.0000 -0.4993 -0.8665
vn 0.2496 -0.4324 -0.8665
vn 0.2070 -0.9018 -0.3793
vn -0.2636 -0.4565 0.8498
vn -0.7188 -0.4150 0.5577
vn -0.6036 -0.3287 0.7264
vn -0.3779 -0.3604 0.8528
vn -0.2422 -0.7570 0.6069
vn 0.7188 -0.4150 0.5577
vn 0.4016 -0.9146 0.0478
vn -0.6357 -0.7676 -0.0814
vn 0.4565 -0.2636 0.8498
vn 0.2496 -0.4324 0.8665
vn -0.0000 -0.4993 0.8665
vn -0.6780 0.2211 -0.7010
vn -0.8300 -0.0000 -0.5577
vn -0.5556 -0.0494 -0.8300
vn -0.4565 -0.2636 -0.8498
vn -0.2496 -0.4324 -0.8665
vn 0.8300 -0.0000 -0.5577
vn 0.5271 -0.0000 -0.8498
vn 0.4324 -0.2496 -0.8665
vn -0.0000 -0.4450 -0.8955
vn 0.4163 -0.4163 -0.8084
vn 0.5887 -0.0000 -0.8084
vn 0.4163 0.4163 -0.8084
vn -0.0000 0.4935 -0.8697
vn 0.2496 0.4324 -0.8665
vn 0.4324 0.2496 -0.8665
vn 0.4993 -0.0000 -0.8665
vn 0.2782 -0.9432 -0.1816
vn -0.2704 -0.8660 -0.4206
vn 0.7091 -0.2478 -0.6601
vn 0.3263 -0.7106 -0.6234
vn -0.2496 -0.4324 0.8665
vn -0.4565 -0.2636 0.8498
vn -0.8300 -0.0000 0.5577
vn -0.6795 0.2024 0.7052
vn -0.5436 -0.0421 0.8383
vn -0.3606 -0.6347 0.6834
vn -0.5362 -0.6478 0.5412
vn -0.2104 -0.7255 0.6553
vn -0.1863 -0.7572 0.6260
vn 0.1610 -0.7974 0.5816
vn 0.3503 -0.7622 0.5443
vn 0.3186 -0.9400 -0.1223
vn 0.2704 -0.8660 0.4206
vn 0.6880 -0.7248 -0.0357
vn 0.6590 -0.6955 -0.2865
vn 0.5444 -0.5637 -0.6212
vn 0.7201 -0.4267 -0.5472
vn 0.3639 0.3860 -0.8477
vn -0.2962 -0.4706 -0.8311
vn -0.7837 0.4281 -0.4500
vn -0.9029 -0.3865 0.1883
vn 0.8300 -0.0000 0.5577
vn 0.5271 -0.0000 0.8498
vn 0.4324 -0.2496 0.8665
vn -0.0000 -0.4450 0.8955
vn 0.4993 -0.0000 0.8665
vn 0.4324 0.2496 0.8665
vn 0.2496 0.4324 0.8665
vn -0.0000 0.4935 0.8697
vn 0.4163 0.4163 0.8084
vn 0.5887 -0.0000 0.8084
vn 0.4163 -0.4163 0.8084
vn -0.5818 0.3620 -0.7284
vn -0.7188 0.4150 -0.5577
vn -0.4736 0.2124 -0.8548
vn -0.5271 -0.0000 -0.8498
vn -0.4324 -0.2496 -0.8665
vn -0.5887 -0.0000 -0.8084
vn -0.4163 -0.4163 -0.8084
vn -0.4993 -0.0000 -0.8665
vn -0.4324 0.2496 -0.8665
vn -0.2496 0.4324 -0.8665
vn -0.0000 0.4993 -0.8665
vn -0.4163 0.4163 -0.8084
vn 0.7188 0.4150 -0.5577
vn 0.4565 0.2636 -0.8498
vn -0.0000 -0.7486 -0.6630
vn 0.5294 -0.5294 -0.6630
vn 0.7486 -0.0000 -0.6630
vn 0.5294 0.5294 -0.6630
vn -0.0000 0.7486 -0.6630
vn 0.2636 0.4565 -0.8498
vn 0.2806 0.2888 -0.9153
vn 0.0803 -0.4150 -0.9063
vn -0.5887 -0.0000 0.8084
vn -0.4163 0.4163 0.8084
vn -0.0000 0.4993 0.8665
vn -0.2496 0.4324 0.8665
vn -0.4324 0.2496 0.8665
vn -0.4993 -0.0000 0.8665
vn -0.4324 -0.2496 0.8665
vn -0.4163 -0.4163 0.8084
vn -0.5271 -0.0000 0.8498
vn -0.7188 0.4150 0.5577
vn -0.5829 0.3616 0.7277
vn -0.5490 0.0690 0.8329
vn -0.4766 0.2045 0.8550
vn -0.3512 -0.4591 0.8160
vn 0.3360 -0.5800 0.7421
vn 0.0656 -0.2736 0.9596
vn 0.1439 -0.3153 0.9380
vn 0.4871 -0.3461 0.8018
vn 0.5482 -0.3465 0.7612
vn 0.4691 -0.8300 -0.3016
vn 0.6936 -0.7188 0.0475
vn 0.9002 -0.3420 -0.2697
vn 0.8106 -0.5848 0.0304
vn 0.7188 0.4150 0.5577
vn 0.4565 0.2636 0.8498
vn 0.5294 -0.5294 0.6630
vn -0.0000 -0.7486 0.6630
vn 0.2636 0.4565 0.8498
vn -0.0000 0.7486 0.6630
vn 0.5294 0.5294 0.6630
vn 0.7486 -0.0000 0.6630
vn -0.1721 0.6919 -0.7012
vn -0.4150 0.7188 -0.5577
vn -0.3076 0.4720 -0.8262
vn -0.0612 0.3316 -0.9414
vn 0.2707 0.6075 -0.7468
vn -0.0709 0.1398 -0.9876
vn -0.0672 0.0562 -0.9962
vn -0.3064 0.4556 -0.8358
vn -0.4565 0.2636 -0.8498
vn -0.5294 0.5294 -0.6630
vn -0.7486 -0.0000 -0.6630
vn -0.5294 -0.5294 -0.6630
vn -0.2636 0.4565 -0.8498
vn -0.0000 0.5271 -0.8498
vn 0.4150 0.7188 -0.5577
vn -0.0000 -0.0949 -0.9955
vn 0.0671 -0.0671 -0.9955
vn 0.0949 -0.0000 -0.9955
vn 0.0671 0.0671 -0.9955
vn -0.0000 0.0949 -0.9955
vn 0.2447 -0.7188 -0.6507
vn 0.0202 -0.0000 -0.9998
vn -0.5294 -0.5294 0.6630
vn -0.7486 -0.0000 0.6630
vn -0.5294 0.5294 0.6630
vn -0.0000 0.5271 0.8498
vn -0.2636 0.4565 0.8498
vn -0.4565 0.2636 0.8498
vn -0.4150 0.7188 0.5577
vn -0.5307 0.4871 0.6936
vn -0.5338 0.0245 0.8452
vn -0.6995 -0.3317 0.6329
vn -0.1493 0.0531 0.9874
vn -0.0598 0.3340 0.9407
vn -0.3117 0.4725 0.8244
vn 0.7148 -0.5271 -0.4596
vn 0.8573 -0.4565 -0.2379
vn 0.8579 -0.4150 0.3030
vn 0.4684 -0.5000 0.7284
vn 0.6805 -0.1609 0.7148
vn 0.1899 0.3544 0.9156
vn -0.3629 0.2598 0.8949
vn -0.0594 0.7177 0.6938
vn 0.4150 0.7188 0.5577
vn 0.0671 -0.0671 0.9955
vn -0.0000 -0.0949 0.9955
vn -0.0000 0.0949 0.9955
vn 0.0671 0.0671 0.9955
vn 0.0949 -0.0000 0.9955
vn -0.0000 1.0000 -0.0000
vn -0.0000 0.8300 -0.5577
vn 0.0927 0.6297 -0.7713
vn 0.1508 0.6004 -0.7854
vn -0.0671 0.0671 -0.9955
vn -0.0949 -0.0000 -0.9955
vn -0.0671 -0.0671 -0.9955
vn 0.2923 0.8791 -0.3766
vn 0.3263 0.7106 -0.6234
vn -0.0000 0.6530 -0.7574
vn -0.4617 0.4617 -0.7574
vn -0.6530 -0.0000 -0.7574
vn -0.4617 -0.4617 -0.7574
vn -0.0000 -0.6530 -0.7574
vn 0.0803 0.4150 -0.9063
vn 0.4297 -0.0000 -0.9030
vn 0.4679 -0.2636 -0.8436
vn 0.5722 -0.4565 -0.6813
vn -0.0671 -0.0671 0.9955
vn -0.0949 -0.0000 0.9955
vn -0.0671 0.0671 0.9955
vn -0.0000 0.8300 0.5577
vn -0.6842 0.6318 0.3642
vn -0.3765 0.0638 0.9242
vn -0.2164 0.3686 0.9041
vn 0.9617 -0.2636 -0.0756
vn 0.7288 -0.4993 -0.4686
vn 0.8638 -0.4324 -0.2586
vn 0.9180 -0.0000 0.3966
vn 0.5408 -0.0000 0.8411
vn 0.8714 -0.4339 0.2287
vn 0.8525 -0.5184 -0.0671
vn 0.6570 -0.6245 -0.4224
vn 0.8467 -0.4092 -0.3400
vn 0.5071 0.1617 0.8466
vn 0.5508 0.2841 0.7848
vn 0.4340 0.3111 0.8455
vn 0.3721 0.6670 0.6455
vn 0.0272 0.2893 0.9569
vn -0.0779 0.1334 0.9880
vn 0.3929 0.4078 0.8242
vn 0.0797 0.7077 0.7020
vn -0.4617 0.4617 0.7574
vn -0.0000 0.6530 0.7574
vn -0.0000 -0.6530 0.7574
vn -0.4617 -0.4617 0.7574
vn -0.6530 -0.0000 0.7574
vn 0.2026 0.5145 -0.8332
vn 0.4727 0.3220 -0.8203
vn -0.0668 0.1325 -0.9889
vn -0.1250 0.9444 -0.3042
vn 0.5000 0.8660 -0.0000
vn 0.4617 -0.4617 -0.7574
vn 0.6530 -0.0000 -0.7574
vn 0.4617 0.4617 -0.7574
vn -0.4507 0.4507 -0.7706
vn -0.0000 0.6373 -0.7706
vn -0.6373 -0.0000 -0.7706
vn -0.4507 -0.4507 -0.7706
vn -0.0000 -0.6373 -0.7706
vn 0.2447 0.7188 -0.6507
vn 0.4679 0.2636 -0.8436
vn 0.4588 -0.0000 -0.8885
vn 0.4950 -0.2496 -0.8323
vn 0.5938 -0.4324 -0.6786
vn 0.4617 0.4617 0.7574
vn 0.6530 -0.0000 0.7574
vn 0.4617 -0.4617 0.7574
vn 0.1216 0.7161 0.6873
vn -0.1374 0.6442 0.7524
vn -0.2500 0.5488 0.7977
vn -0.4449 0.2909 0.8470
vn 0.9999 -0.0000 -0.0162
vn 0.9626 -0.2496 -0.1049
vn 0.7533 -0.4450 -0.4843
vn 0.9380 -0.0974 0.3328
vn 0.9316 -0.2557 0.2582
vn 0.8579 0.4150 0.3030
vn 0.4684 0.5000 0.7284
vn 0.1289 0.7168 0.6853
vn 0.1382 0.5833 0.8004
vn -0.4507 0.4507 0.7706
vn -0.0000 0.6373 0.7706
vn -0.0000 -0.6373 0.7706
vn -0.4507 -0.4507 0.7706
vn -0.6373 -0.0000 0.7706
vn 0.4742 0.4189 -0.7744
vn 0.6942 0.3922 -0.6036
vn 0.6373 -0.0000 -0.7706
vn 0.4507 -0.4507 -0.7706
vn 0.4507 0.4507 -0.7706
vn 0.2070 0.9018 -0.3793
vn -0.2704 0.8660 -0.4206
vn 0.5722 0.4565 -0.6813
vn 0.4950 0.2496 -0.8323
vn 0.3616 -0.0000 -0.9324
vn 0.4548 -0.4163 -0.7873
vn 0.4507 0.4507 0.7706
vn 0.6373 -0.0000 0.7706
vn 0.4507 -0.4507 0.7706
vn 0.9617 0.2636 -0.0756
vn 0.9988 -0.0000 -0.0487
vn 0.9051 -0.4163 -0.0870
vn 0.8736 0.3794 0.3048
vn 0.9526 0.1393 0.2704
vn 0.6936 0.7188 0.0475
vn 0.2704 0.8660 0.4206
vn 0.6819 0.0357 -0.7305
vn 0.7201 0.1479 -0.6779
vn 0.7077 0.1235 -0.6957
vn 0.2782 0.9432 -0.1816
vn 0.4691 0.8300 -0.3016
vn 0.7148 0.5271 -0.4596
vn 0.5938 0.4324 -0.6786
vn 0.8573 0.4565 -0.2379
vn 0.9626 0.2496 -0.1049
vn 0.9983 -0.0000 0.0580
vn 0.5577 -0.7486 -0.3586
vn 0.8440 -0.5294 0.0867
vn 0.8400 0.5127 -0.1775
vn 0.8231 0.5210 -0.2260
vn 0.8721 0.4839 0.0728
vn 0.4110 0.4404 -0.7982
vn 0.4016 0.9146 0.0478
vn 0.3186 0.9400 -0.1223
vn 0.7288 0.4993 -0.4686
vn 0.4548 0.4163 -0.7873
vn 0.1528 -0.0000 -0.9883
vn 0.2714 -0.5294 -0.8038
vn 0.8638 0.4324 -0.2586
vn 0.9625 -0.0000 0.2711
vn 0.8373 -0.0949 -0.5384
vn 0.8736 -0.0671 -0.4820
vn 0.6576 0.7164 -0.2332
vn 0.3306 0.4247 -0.8428
vn 0.5785 0.5791 -0.5745
vn 0.7316 0.4935 -0.4704
vn 0.2714 0.5294 -0.8038
vn 0.7860 -0.0000 -0.6182
vn 0.8011 -0.0671 -0.5948
vn 0.9051 0.4163 -0.0870
vn 0.8887 -0.0000 -0.4586
vn 0.8440 0.5294 0.0867
vn 0.6371 0.6530 -0.4096
vn 0.3873 0.4617 -0.7980
vn 0.5577 0.7486 -0.3586
vn 0.8011 0.0671 -0.5948
vn 0.9902 -0.0000 0.1396
vn 0.8868 0.4617 -0.0212
vn 0.8736 0.0671 -0.4820
vn 0.2839 -0.0000 -0.9589
vn 0.4044 0.4507 -0.7958
vn 0.6482 0.6373 -0.4167
vn 0.8373 0.0949 -0.5384
vn 0.8868 -0.4617 -0.0212
vn 0.8919 0.4507 -0.0377
vn 0.9929 -0.0000 0.1193
vn 0.3873 -0.4617 -0.7980
vn 0.3035 -0.0000 -0.9528
vn 0.6371 -0.6530 -0.4096
vn 0.8919 -0.4507 -0.0377
vn 0.4044 -0.4507 -0.7958
vn 0.6482 -0.6373 -0.4167
vn 0.0444 -0.5480 -0.8353
vn -0.0096 0.1401 -0.9901
vn 0.5422 0.5099 -0.6678
vn 0.6483 -0.4604 -0.6064
vn -0.5028 -0.6575 -0.5611
vn -0.0742 0.0306 -0.9968
vn 0.9047 -0.4259 0.0096
vn 0.6440 -0.4587 0.6123
vn 0.0444 -0.5480 0.8353
vn -0.5028 -0.6575 0.5611
vn -0.7060 -0.7083 -0.0000
vn -0.6322 -0.2643 -0.7284
vn -0.6502 -0.3349 -0.6820
vn 0.5457 0.5139 0.6620
vn -0.0100 0.1434 0.9896
vn -0.6322 -0.2643 0.7284
vn -0.8981 -0.4398 -0.0000
vn -0.7444 0.0707 -0.6640
vn -0.0992 0.0423 -0.9942
vn -0.8822 -0.4708 -0.0000
vn -0.9966 0.0828 -0.0000
vn -0.0710 0.0334 0.9969
vn -0.6502 -0.3349 0.6820
vn -0.4337 0.5787 -0.6907
vn 0.0489 0.1329 -0.9899
vn -0.6638 0.7475 -0.0250
vn -0.7444 0.0707 0.6640
vn 0.1829 0.7326 -0.6556
vn -0.5440 0.5351 0.6464
vn 0.5277 -0.3819 -0.7587
vn -0.0970 0.0397 0.9945
vn 0.0264 0.9996 -0.0134
vn 0.3330 0.0849 -0.9391
vn -0.1196 0.7523 0.6479
vn -0.1413 0.0265 0.9896
vn 0.6383 0.4250 -0.6419
vn 0.6034 0.7965 -0.0376
vn -0.2521 0.0812 0.9643
vn 0.3366 -0.6270 -0.7026
vn 0.3913 -0.5344 0.7492
vn 0.2210 0.7585 0.6130
vn 0.4212 -0.1697 -0.8909
vn -0.3118 0.3110 0.8978
vn -0.2211 -0.6808 0.6983
vn 0.8086 0.0972 -0.5802
vn 0.8921 0.4512 0.0244
vn 0.5271 0.5366 0.6590
vn -0.0762 0.3110 0.9474
vn -0.7025 -0.0473 0.7101
vn 0.9986 -0.0348 0.0409
vn 0.7475 0.0043 0.6642
vn 0.1386 -0.0160 0.9902
vn 0.9267 -0.3651 -0.0887
vn 0.6522 -0.5133 0.5579
vn 0.0414 -0.4479 0.8931
vn -0.6371 -0.1677 0.7523
vn 0.6989 0.0021 -0.7152
vn 0.5524 -0.7138 0.4306
vn 0.9351 -0.3334 -0.1205
vn -0.1371 -0.7177 0.6827
vn -0.7601 -0.3576 0.5426
vn 0.7254 0.2783 -0.6296
vn -0.9738 0.1989 0.1107
vn 0.4320 -0.8847 -0.1753
vn 0.7090 -0.4956 -0.5018
vn -0.1220 -0.9914 -0.0477
vn 0.5466 -0.0521 -0.8358
vn -0.6286 -0.7533 -0.1936
vn -0.7910 -0.3098 -0.5277
vn 0.0400 0.1860 -0.9817
vn -0.5140 0.0793 -0.8541
vn -0.6554 0.6480 -0.3880
vt 0.250000 0.041776
vt 0.399862 0.041776
vt 0.399862 0.102777
vt 0.250000 0.102777
vt 0.100138 0.102777
vt 0.100138 0.041776
vt 0.284202 0.102778
vt 0.399862 0.102778
vt 0.250000 0.044598
vt 0.251941 0.045518
vt 0.263621 0.052007
vt 0.278315 0.065770
vt 0.279960 0.075436
vt 0.409921 0.167645
vt 0.409921 0.211783
vt 0.399862 0.269436
vt 0.302955 0.269436
vt 0.298510 0.260685
vt 0.275480 0.215338
vt 0.250000 0.197246
vt 0.100138 0.102778
vt 0.216241 0.102778
vt 0.216685 0.100334
vt 0.221685 0.065770
vt 0.224252 0.063600
vt 0.236379 0.052007
vt 0.173345 0.208315
vt 0.168244 0.215338
vt 0.167122 0.222751
vt 0.164523 0.228781
vt 0.152176 0.258358
vt 0.148891 0.269436
vt 0.100138 0.269436
vt 0.173515 0.208080
vt 0.173456 0.208058
vt 0.090079 0.211783
vt 0.090079 0.167645
vt 0.280919 0.269436
vt 0.399862 0.269436
vt 0.282313 0.162832
vt 0.279532 0.235466
vt 0.409921 0.211783
vt 0.409921 0.332370
vt 0.424964 0.208986
vt 0.424964 0.247586
vt 0.090079 0.211783
vt 0.100138 0.269436
vt 0.219272 0.269436
vt 0.220468 0.235466
vt 0.171757 0.211997
vt 0.214092 0.171750
vt 0.175214 0.208711
vt 0.090079 0.332370
vt 0.075036 0.247585
vt 0.075036 0.208986
vt 0.272958 0.497095
vt 0.399862 0.497095
vt 0.276004 0.422032
vt 0.409921 0.332370
vt 0.424964 0.247586
vt 0.399862 0.497095
vt 0.409921 0.497095
vt 0.424964 0.353041
vt 0.424964 0.259905
vt 0.424964 0.329376
vt 0.424964 0.497095
vt 0.424964 0.664814
vt 0.424964 0.734286
vt 0.424964 0.746605
vt 0.424964 0.641150
vt 0.327479 0.334423
vt 0.373619 0.334423
vt 0.345848 0.215338
vt 0.287935 0.215338
vt 0.349615 0.497095
vt 0.075036 0.247586
vt 0.090079 0.332370
vt 0.100138 0.497095
vt 0.227203 0.497095
vt 0.221639 0.334104
vt 0.168773 0.215338
vt 0.169121 0.214940
vt 0.250000 0.171750
vt 0.212065 0.215338
vt 0.177810 0.215338
vt 0.178549 0.214436
vt 0.179756 0.212418
vt 0.184807 0.204279
vt 0.185923 0.202890
vt 0.183728 0.201717
vt 0.183347 0.201531
vt 0.183282 0.201582
vt 0.100138 0.497095
vt 0.090079 0.497095
vt 0.075036 0.353041
vt 0.075036 0.259905
vt 0.075036 0.497095
vt 0.075036 0.641150
vt 0.075036 0.746605
vt 0.075036 0.734286
vt 0.075036 0.664814
vt 0.075036 0.497095
vt 0.075036 0.329376
vt 0.275811 0.724755
vt 0.399862 0.724755
vt 0.270422 0.521454
vt 0.409921 0.497095
vt 0.424964 0.353041
vt 0.424964 0.497095
vt 0.424964 0.785204
vt 0.424964 0.664814
vt 0.399862 0.724755
vt 0.409921 0.661820
vt 0.433482 0.272631
vt 0.433482 0.338375
vt 0.433482 0.497095
vt 0.433482 0.655815
vt 0.433482 0.721559
vt 0.409921 0.782408
vt 0.075036 0.664814
vt 0.075036 0.785204
vt 0.075036 0.497095
vt 0.075036 0.353041
vt 0.075036 0.329376
vt 0.090079 0.497095
vt 0.100138 0.724755
vt 0.224137 0.724755
vt 0.225849 0.658509
vt 0.229578 0.521454
vt 0.168316 0.217362
vt 0.146608 0.280971
vt 0.146419 0.283277
vt 0.146182 0.288945
vt 0.143419 0.309931
vt 0.141628 0.334247
vt 0.307913 0.171750
vt 0.269978 0.215338
vt 0.167930 0.261246
vt 0.175191 0.228177
vt 0.141565 0.335108
vt 0.090079 0.661820
vt 0.066518 0.338375
vt 0.066518 0.272631
vt 0.090079 0.782408
vt 0.066518 0.721559
vt 0.066518 0.655815
vt 0.066518 0.497095
vt 0.267026 0.891413
vt 0.399862 0.891413
vt 0.274584 0.746805
vt 0.269849 0.835968
vt 0.269462 0.837143
vt 0.268016 0.841669
vt 0.269227 0.846556
vt 0.269076 0.850952
vt 0.409921 0.661820
vt 0.433482 0.655815
vt 0.409921 0.826545
vt 0.302955 0.724755
vt 0.327479 0.659768
vt 0.349615 0.497095
vt 0.437355 0.306351
vt 0.437355 0.362218
vt 0.437355 0.497095
vt 0.437355 0.631972
vt 0.437355 0.687840
vt 0.383784 0.497095
vt 0.066518 0.655815
vt 0.090079 0.826545
vt 0.100138 0.891413
vt 0.222675 0.891413
vt 0.229690 0.846556
vt 0.230100 0.845628
vt 0.231984 0.841669
vt 0.230151 0.835968
vt 0.229818 0.829896
vt 0.311800 0.261688
vt 0.284352 0.293227
vt 0.242207 0.334422
vt 0.184294 0.334422
vt 0.163880 0.279688
vt 0.129635 0.497095
vt 0.134729 0.632352
vt 0.136818 0.655078
vt 0.139307 0.663569
vt 0.062645 0.362218
vt 0.062645 0.306350
vt 0.062645 0.687840
vt 0.062645 0.631972
vt 0.062645 0.497095
vt 0.250000 0.952414
vt 0.399862 0.952414
vt 0.263626 0.901298
vt 0.250000 0.934484
vt 0.437355 0.631972
vt 0.250000 0.891413
vt 0.250000 0.796945
vt 0.275480 0.778853
vt 0.298510 0.733505
vt 0.433482 0.340070
vt 0.433482 0.386061
vt 0.433482 0.608129
vt 0.433482 0.654121
vt 0.373619 0.659768
vt 0.366697 0.497095
vt 0.359342 0.379392
vt 0.339249 0.293227
vt 0.100138 0.952414
vt 0.212894 0.952414
vt 0.217782 0.950093
vt 0.215831 0.935650
vt 0.264258 0.379392
vt 0.317614 0.291229
vt 0.293609 0.318810
vt 0.232042 0.497095
vt 0.174129 0.497095
vt 0.152607 0.334422
vt 0.159723 0.303373
vt 0.159920 0.301460
vt 0.161391 0.291023
vt 0.127847 0.532438
vt 0.128927 0.555419
vt 0.131707 0.599471
vt 0.140931 0.724755
vt 0.144317 0.680658
vt 0.139826 0.712790
vt 0.140559 0.721163
vt 0.158345 0.795213
vt 0.150865 0.765048
vt 0.066518 0.386061
vt 0.066518 0.340070
vt 0.066518 0.654121
vt 0.066518 0.608129
vt 0.249521 0.935650
vt 0.245186 0.941873
vt 0.239066 0.950093
vt 0.241305 0.952414
vt 0.433482 0.608129
vt 0.433482 0.386062
vt 0.424964 0.395060
vt 0.424964 0.352796
vt 0.424964 0.599130
vt 0.424964 0.641394
vt 0.287935 0.778853
vt 0.345848 0.778853
vt 0.359342 0.614799
vt 0.365622 0.497095
vt 0.359190 0.394162
vt 0.341618 0.318810
vt 0.181290 0.891413
vt 0.186211 0.903157
vt 0.206187 0.942125
vt 0.210721 0.949296
vt 0.256903 0.497095
vt 0.276037 0.394162
vt 0.317614 0.327612
vt 0.289666 0.377252
vt 0.278090 0.497095
vt 0.289666 0.616938
vt 0.317614 0.666578
vt 0.293609 0.675381
vt 0.276037 0.600028
vt 0.269605 0.497095
vt 0.144808 0.497095
vt 0.152417 0.338435
vt 0.242207 0.659768
vt 0.184294 0.659768
vt 0.142227 0.730215
vt 0.180874 0.886067
vt 0.075036 0.395060
vt 0.075036 0.352796
vt 0.075036 0.641394
vt 0.075036 0.599130
vt 0.237267 0.942125
vt 0.211264 0.891413
vt 0.424964 0.395061
vt 0.339249 0.700964
vt 0.359190 0.600029
vt 0.341617 0.675381
vt 0.317614 0.702962
vt 0.345561 0.616938
vt 0.357137 0.497095
vt 0.345561 0.377252
vt 0.075036 0.599130
vt 0.264258 0.614799
vt 0.155896 0.659768
vt 0.146828 0.520006
vt 0.269978 0.778853
vt 0.212065 0.778853
vt 0.192359 0.812054
vt 0.209700 0.886067
vt 0.195030 0.822944
vt 0.250000 0.822441
vt 0.307913 0.822441
vt 0.311800 0.732502
vt 0.284352 0.700964
vt 0.320905 0.336706
vt 0.294458 0.383683
vt 0.165452 0.710287
vt 0.163395 0.699888
vt 0.157566 0.666626
vt 0.170455 0.735571
vt 0.189073 0.798655
vt 0.214092 0.822441
vt 0.358308 0.497095
vt 0.347353 0.383683
vt 0.283502 0.497095
vt 0.322402 0.360800
vt 0.299927 0.400720
vt 0.179018 0.778853
vt 0.188781 0.797323
vt 0.184943 0.787824
vt 0.347353 0.610508
vt 0.354186 0.497095
vt 0.344876 0.400720
vt 0.290618 0.497095
vt 0.294458 0.610508
vt 0.320905 0.384894
vt 0.302404 0.417757
vt 0.320905 0.657485
vt 0.344876 0.593471
vt 0.347071 0.497095
vt 0.339407 0.417757
vt 0.299927 0.593471
vt 0.294740 0.497095
vt 0.300611 0.424187
vt 0.317614 0.393987
vt 0.322402 0.633391
vt 0.339407 0.576434
vt 0.334616 0.424187
vt 0.341658 0.497095
vt 0.302404 0.576434
vt 0.293569 0.497095
vt 0.334616 0.570003
vt 0.317614 0.600203
vt 0.300611 0.570004
vt 0.320905 0.609297
vt 0.721803 0.249042
vt 0.749288 0.288175
vt 0.817227 0.057034
vt 0.767955 0.057033
vt 0.718684 0.057034
vt 0.694318 0.209909
vt 0.637153 0.401027
vt 0.672722 0.365231
vt 0.692600 0.328127
vt 0.726375 0.311235
vt 0.837636 0.057034
vt 0.767955 0.057034
vt 0.698275 0.057034
vt 0.763333 0.292751
vt 0.755317 0.296760
vt 0.738316 0.305263
vt 0.610806 0.380277
vt 0.648680 0.410106
vt 0.764470 0.292182
vt 0.749288 0.288175
vt 0.682933 0.193700
vt 0.576747 0.590735
vt 0.599730 0.588614
vt 0.623902 0.525372
vt 0.637436 0.431094
vt 0.599893 0.371682
vt 0.567228 0.591613
vt 0.619405 0.586799
vt 0.617245 0.571749
vt 0.740997 0.303922
vt 0.695619 0.326617
vt 0.643039 0.850406
vt 0.659274 0.818143
vt 0.636313 0.863770
vt 0.644735 0.726027
vt 0.637436 0.712404
vt 0.692600 0.328127
vt 0.648680 0.410106
vt 0.761528 0.928157
vt 0.763191 0.892402
vt 0.675510 0.785880
vt 0.674248 0.781115
vt 0.637436 0.431094
vt 0.631701 0.471048
vt 0.760839 0.942967
vt 0.704811 0.821478
vt 0.692600 0.815370
vt 0.679208 0.790372
vt 0.269863 0.843681
vt 0.599730 0.588614
vt 0.659274 0.818143
vt 0.862974 0.853703
vt 0.853031 0.830568
vt 0.867092 0.863286
vt 0.764855 0.856648
vt 0.747247 0.842702
vt 0.745807 0.841981
vt 0.631561 0.671475
vt 0.672238 0.777364
vt 0.845080 0.812067
vt 0.843311 0.815370
vt 0.780666 0.846702
vt 0.244529 0.958224
vt 0.677752 0.787656
vt 0.927032 0.715812
vt 0.919893 0.697040
vt 0.917349 0.703465
vt 0.911163 0.719086
vt 0.900574 0.745827
vt 0.891083 0.751370
vt 0.928469 0.732468
vt 0.922166 0.734108
vt 0.828803 0.822626
vt 0.676135 0.784637
vt 0.230137 0.843681
vt 0.765088 0.851625
vt 0.911816 0.719770
vt 0.875153 0.755935
vt 0.885138 0.737298
vt 0.896667 0.715778
vt 0.876515 0.757239
vt 0.865974 0.773068
vt 0.767956 0.853059
vt 0.771808 0.851132
vt 0.212319 0.958224
vt 0.898475 0.712404
vt 0.898793 0.710185
vt 0.903481 0.697854
vt 0.929426 0.676491
vt 0.940585 0.593454
vt 0.936605 0.585904
vt 0.930523 0.672253
vt 0.936587 0.600490
vt 0.925461 0.600056
vt 0.136881 0.701204
vt 0.913493 0.607783
vt 0.909586 0.635000
vt 0.915531 0.593585
vt 0.921365 0.438396
vt 0.924722 0.473723
vt 0.936613 0.571749
vt 0.918128 0.436435
vt 0.909648 0.438081
vt 0.902066 0.456113
vt 0.900891 0.442371
vt 0.918666 0.571749
vt 0.904299 0.471668
vt 0.904223 0.471137
vt 0.917462 0.442816
vt 0.918626 0.452061
vt 0.924416 0.471245
vt 0.144954 0.287688
vt 0.890804 0.362441
vt 0.894861 0.373080
vt 0.892482 0.385208
vt 0.897645 0.397113
vt 0.898332 0.397670
vt 0.901326 0.405603
vt 0.160470 0.288409
vt 0.882687 0.359522
vt 0.894808 0.424250
vt 0.875266 0.366034
vt 0.899498 0.438221
vt 0.898475 0.431094
vt 0.917822 0.450879
vt 0.914165 0.444431
vt 0.885018 0.405976
vt 0.881941 0.398921
vt 0.881551 0.397670
vt 0.881288 0.397425
vt 0.872887 0.378162
vt 0.885891 0.311835
vt 0.888806 0.319479
vt 0.880059 0.309738
vt 0.908082 0.426034
vt 0.911849 0.437428
vt 0.887097 0.328193
vt 0.895276 0.395867
vt 0.874726 0.314416
vt 0.179478 0.183761
vt 0.873017 0.323130
vt 0.886065 0.390838
vt 0.881764 0.332872
vt 0.884963 0.389980
vt 0.875932 0.330775
vt 0.183484 0.200982
vt 0.876944 0.388801
vt 0.878208 0.389255
s 1
usemtl Texture
f 1/1/1 2/2/2 3/3/3 4/4/4
f 1/1/1 4/4/4 5/5/5 6/6/6
f 7/7/7 8/8/8 2/2/2 1/1/1 9/9/9 10/10/10 11/11/11 12/12/12 13/13/13
f 3/3/3 2/2/2 14/14/14 15/15/15
f 4/4/4 3/3/3 35/16/35 16/17/16 39/18/39 67/19/67 82/20/82
f 9/9/9 1/1/1 6/6/6 17/21/17 18/22/18 19/23/19 20/24/20 21/25/21 22/26/22 23/9/23
f 27/27/27 24/28/24 78/29/78 79/30/79 80/31/80 81/32/81 45/33/45 5/5/5 4/4/4 25/34/25 26/35/26
f 5/5/5 28/36/28 29/37/29 6/6/6
f 30/38/30 31/39/31 8/8/8 7/7/7 32/40/32 33/41/33
f 2/2/2 8/8/8 34/42/34 14/14/14
f 35/16/35 3/3/3 15/15/15 36/43/36
f 15/15/15 14/14/14 37/44/37 38/45/38
f 6/6/6 29/37/29 40/46/40 17/21/17
f 18/22/18 17/21/17 41/47/41 42/48/42 43/49/43
f 24/28/24 27/27/27 44/50/44
f 25/34/25 4/4/4 82/20/82 46/51/46 47/52/47
f 45/33/45 48/53/48 28/36/28 5/5/5
f 28/36/28 49/54/49 50/55/50 29/37/29
f 51/56/51 52/57/52 31/39/31 30/38/30 53/58/53
f 8/8/8 31/39/31 54/59/54 34/42/34
f 14/14/14 34/42/34 55/60/55 37/44/37
f 56/61/56 35/16/35 36/43/36 57/62/57
f 36/43/36 15/15/15 38/45/38 58/63/58
f 59/64/59 60/65/60 61/66/61 62/67/62 63/68/63 64/69/64 65/70/65 66/66/66 58/63/58 38/45/38 37/44/37
f 39/18/39 16/17/16 70/71/70 125/72/124 178/73/176 68/74/68
f 16/17/16 35/16/35 56/61/56 69/75/69 70/71/70
f 29/37/29 50/55/50 71/76/71 40/46/40
f 17/21/17 40/46/40 72/77/72 41/47/41
f 42/48/42 41/47/41 73/78/73 74/79/74 75/80/75
f 76/81/76 24/28/24 44/50/44 77/82/77
f 46/51/46 83/83/1 84/84/83 85/85/84 86/86/85 87/87/86 88/88/87 89/89/88 90/90/89 91/91/90 92/92/91 47/52/47
f 93/93/92 94/94/93 48/53/48 45/33/45
f 48/53/48 95/95/94 49/54/49 28/36/28
f 96/96/95 50/55/50 49/54/49 95/95/94 97/97/96 98/98/97 99/99/98 100/100/99 101/101/100 102/102/101 103/103/102
f 104/104/103 105/105/104 52/57/52 51/56/51 106/106/105
f 31/39/31 52/57/52 107/107/106 54/59/54
f 34/42/34 54/59/54 108/108/107 55/60/55
f 109/66/108 110/65/109 59/64/59 37/44/37 55/60/55 108/108/107 111/109/110 112/70/111 113/69/112 114/110/113 64/69/64 63/68/63 115/111/114
f 116/112/115 56/61/56 57/62/57 117/113/116
f 57/62/57 36/43/36 58/63/58 66/66/66
f 59/64/59 118/114/117 119/115/118 60/65/60
f 60/65/60 119/115/118 120/116/119 61/66/61
f 61/66/61 120/116/119 121/117/120 62/67/62
f 62/67/62 121/117/120 122/118/121 63/68/63
f 123/119/122 117/113/116 65/70/65 64/69/64
f 117/113/116 57/62/57 66/66/66 65/70/65
f 39/18/39 68/74/68 67/19/67
f 126/102/125 127/120/126 100/100/99 99/99/98 128/121/127 129/99/128 130/98/129 131/122/130 132/123/131 71/76/71 50/55/50 96/96/95 133/124/132
f 40/46/40 71/76/71 132/123/131 72/77/72
f 41/47/41 72/77/72 134/125/133 73/78/73
f 74/79/74 73/78/73 135/126/134 136/127/135 137/128/136 138/129/137
f 78/29/78 24/28/24 76/81/76 139/130/138
f 45/33/45 81/32/81 140/131/139 141/132/140 142/133/141 143/134/142 144/135/143
f 83/83/1 145/136/144 146/137/145 84/84/83
f 84/84/83 147/138/146 148/139/147 85/85/84
f 149/140/143 93/93/92 45/33/45 144/135/143
f 150/126/148 151/141/149 94/94/93 93/93/92
f 94/94/93 97/97/96 95/95/94 48/53/48
f 96/96/95 103/103/102 152/142/150 153/143/151
f 151/141/149 98/98/97 97/97/96 94/94/93
f 154/144/152 99/99/98 98/98/97 151/141/149
f 101/101/100 100/100/99 155/145/153 156/146/154
f 102/102/101 101/101/100 156/146/154 157/147/155
f 103/103/102 102/102/101 157/147/155 152/142/150
f 158/148/156 159/149/157 105/105/104 104/104/103 160/150/158 161/151/159 162/152/160 163/153/161 164/154/162 165/155/163
f 52/57/52 105/105/104 166/156/164 107/107/106
f 54/59/54 107/107/106 111/109/110 108/108/107
f 115/111/114 167/157/165 168/116/166 109/66/108
f 109/66/108 168/116/166 169/115/167 110/65/109
f 110/65/109 169/115/167 118/114/117 59/64/59
f 107/107/106 166/156/164 112/70/111 111/109/110
f 166/156/164 170/119/168 113/69/112 112/70/111
f 170/119/168 171/158/169 114/110/113 113/69/112
f 171/158/169 123/119/122 64/69/64 114/110/113
f 63/68/63 122/118/121 167/157/165 115/111/114
f 172/149/170 116/112/115 117/113/116 123/119/122
f 56/61/56 116/112/115 215/159/212 216/160/213 124/161/123 69/75/69
f 119/115/118 118/114/117 173/162/171 174/163/172
f 120/116/119 119/115/118 174/163/172 175/164/173
f 121/117/120 120/116/119 175/164/173 176/165/174
f 122/118/121 121/117/120 176/165/174 177/166/175
f 68/74/68 83/83/1 46/51/46 82/20/82 67/19/67
f 179/167/177 125/72/124 70/71/70 69/75/69 124/161/123
f 126/102/125 133/124/132 180/142/178 181/147/179
f 127/120/126 126/102/125 181/147/179 182/168/180
f 100/100/99 127/120/126 182/168/180 155/145/153
f 183/169/181 128/121/127 99/99/98 154/144/152
f 184/144/182 129/99/128 128/121/127 183/169/181
f 185/141/183 130/98/129 129/99/128 184/144/182
f 134/125/133 131/122/130 130/98/129 185/141/183
f 72/77/72 132/123/131 131/122/130 134/125/133
f 133/124/132 96/96/95 153/143/151 180/142/178
f 73/78/73 134/125/133 185/141/183 135/126/134
f 136/127/135 135/126/134 186/170/184 187/171/185 188/172/186 189/173/187 190/174/188 191/175/189 192/176/190
f 68/74/68 178/73/176 145/136/144 83/83/1
f 146/137/145 145/136/144 193/177/191 194/178/192
f 84/84/83 146/137/145 195/179/193 196/180/194
f 147/138/146 84/84/83 196/180/194 197/181/146
f 198/182/195 93/93/92 149/140/143
f 150/126/148 93/93/92 199/183/196 200/184/197 201/185/198
f 202/170/199 154/144/152 151/141/149 150/126/148
f 152/142/150 203/186/200 204/187/201 153/143/151
f 155/145/153 205/188/202 206/189/203 156/146/154
f 156/146/154 206/189/203 207/190/204 157/147/155
f 157/147/155 207/190/204 203/186/200 152/142/150
f 208/191/205 209/192/206 159/149/157 158/148/156 210/193/207 211/194/208
f 105/105/104 159/149/157 170/119/168 166/156/164
f 168/116/166 167/157/165 212/195/209 213/164/210
f 169/115/167 168/116/166 213/164/210 214/163/211
f 118/114/117 169/115/167 214/163/211 173/162/171
f 159/149/157 209/192/206 171/158/169 170/119/168
f 209/192/206 172/149/170 123/119/122 171/158/169
f 167/157/165 122/118/121 177/166/175 212/195/209
f 172/149/170 260/196/256 335/197/329 319/198/315 300/199/296 215/159/212 116/112/115
f 174/163/172 173/162/171 217/200/214 218/201/215
f 175/164/173 174/163/172 218/201/215 219/116/216
f 176/165/174 175/164/173 219/116/216 220/202/217
f 177/166/175 176/165/174 220/202/217 221/203/218
f 216/160/213 222/204/219 179/167/177 124/161/123
f 125/72/124 179/167/177 223/205/220 224/206/221
f 178/73/176 125/72/124 224/206/221 225/207/222
f 180/142/178 226/186/223 227/190/224 181/147/179
f 181/147/179 227/190/224 228/189/225 182/168/180
f 182/168/180 228/189/225 205/188/202 155/145/153
f 229/208/226 183/169/181 154/144/152 202/170/199
f 186/170/184 184/144/182 183/169/181 229/208/226
f 135/126/134 185/141/183 184/144/182 186/170/184
f 153/143/151 204/187/201 226/186/223 180/142/178
f 187/171/185 186/170/184 229/208/226 230/209/227 231/210/228 232/211/229
f 145/136/144 178/73/176 225/207/222 193/177/191
f 195/179/193 146/137/145 194/178/192 233/212/230
f 194/178/192 193/177/191 234/213/231 235/214/232
f 196/180/194 195/179/193 236/215/233 237/216/234
f 197/181/146 196/180/194 238/217/235 239/218/236 240/219/237 241/220/238
f 199/183/196 93/93/92 198/182/195 242/221/239 243/222/240 244/223/241
f 245/224/242 150/126/148 201/185/198 246/225/243 247/226/244 248/227/245
f 249/228/246 202/170/199 150/126/148 250/229/246
f 203/186/200 251/230/247 252/231/248 204/187/201
f 205/188/202 253/232/249 254/233/250 206/189/203
f 206/189/203 254/233/250 255/147/251 207/190/204
f 207/190/204 255/147/251 251/230/247 203/186/200
f 208/191/205 211/194/208 256/234/252 257/235/253 258/236/254 259/237/255
f 260/196/256 172/149/170 209/192/206 208/191/205
f 213/164/210 212/195/209 261/238/257 262/116/258
f 214/163/211 213/164/210 262/116/258 263/239/259
f 173/162/171 214/163/211 263/239/259 217/200/214
f 212/195/209 177/166/175 221/203/218 261/238/257
f 264/240/260 218/201/215 217/200/214 265/241/261
f 266/66/262 219/116/216 218/201/215 264/240/260
f 267/242/263 220/202/217 219/116/216 266/66/262
f 268/243/264 221/203/218 220/202/217 267/242/263
f 222/204/219 216/160/213 215/159/212 300/199/296 301/244/297 269/245/265
f 179/167/177 222/204/219 270/246/266 223/205/220
f 224/206/221 223/205/220 271/247/267 272/248/268
f 225/207/222 224/206/221 272/248/268 273/249/269
f 226/186/223 274/230/270 275/147/271 227/190/224
f 227/190/224 275/147/271 276/233/272 228/189/225
f 228/189/225 276/233/272 253/232/249 205/188/202
f 230/209/227 229/208/226 202/170/199 277/250/273 278/251/274 279/252/275 280/253/276
f 204/187/201 252/231/248 274/230/270 226/186/223
f 193/177/191 225/207/222 273/249/269 234/213/231
f 236/215/233 195/179/193 233/212/230 281/254/277
f 233/212/230 194/178/192 235/214/232 282/255/278
f 234/213/231 283/256/279 311/257/307 326/258/321 351/259/345 347/260/341 340/261/334 325/262/320 310/263/306 282/255/278 235/214/232
f 238/217/235 196/180/194 237/216/234 284/264/280 285/265/281
f 237/216/234 236/215/233 286/266/282 287/267/283
f 150/126/148 245/224/242 288/268/284 250/229/246
f 277/250/273 202/170/199 249/228/246 289/269/285
f 290/270/286 291/271/287 252/231/248 251/230/247
f 292/272/288 293/273/289 254/233/250 253/232/249
f 293/273/289 294/102/290 255/147/251 254/233/250
f 294/102/290 290/270/286 251/230/247 255/147/251
f 260/196/256 208/191/205 259/237/255 295/274/291 296/275/292
f 297/66/293 262/116/258 261/238/257 298/242/294
f 299/276/295 263/239/259 262/116/258 297/66/293
f 265/241/261 217/200/214 263/239/259 299/276/295
f 298/242/294 261/238/257 221/203/218 268/243/264
f 298/242/294 268/243/264 267/242/263 266/66/262 264/240/260 265/241/261 299/276/295 297/66/293
f 222/204/219 269/245/265 302/277/298 270/246/266
f 223/205/220 270/246/266 303/278/299 271/247/267
f 323/279/318 336/280/330 340/261/334 347/260/341 337/281/331 304/282/300 305/283/301 283/256/279 234/213/231 273/249/269 272/248/268 271/247/267 303/278/299
f 306/270/302 307/102/303 275/147/271 274/230/270
f 307/102/303 308/284/304 276/233/272 275/147/271
f 308/284/304 292/272/288 253/232/249 276/233/272
f 291/271/287 306/270/302 274/230/270 252/231/248
f 286/266/282 236/215/233 281/254/277 309/285/305
f 281/254/277 233/212/230 282/255/278 310/263/306
f 284/264/280 237/216/234 287/267/283 312/286/308 313/287/309
f 287/267/283 286/266/282 314/288/310 315/289/311
f 308/284/304 307/102/303 306/270/302 291/271/287 290/270/286 294/102/290 293/273/289 292/272/288
f 316/290/312 260/196/256 296/275/292 317/291/313 318/292/314
f 320/293/205 321/294/316 269/245/265 301/244/297
f 269/245/265 321/294/316 322/295/317 302/277/298
f 270/246/266 302/277/298 323/279/318 303/278/299
f 314/288/310 286/266/282 309/285/305 324/296/319
f 309/285/305 281/254/277 310/263/306 325/262/320
f 283/256/279 327/297/322 328/298/323 311/257/307
f 312/286/308 287/267/283 329/299/324 330/300/325 331/301/326
f 329/299/324 287/267/283 315/289/311 332/302/324
f 315/289/311 314/288/310 321/294/316 320/293/205
f 333/303/327 334/304/328 335/197/329 260/196/256 316/290/312
f 319/198/315 301/244/297 300/199/296
f 320/293/205 301/244/297 319/198/315 335/197/329 334/304/328
f 321/294/316 314/288/310 324/296/319 322/295/317
f 302/277/298 322/295/317 336/280/330 323/279/318
f 304/282/300 338/305/332 339/306/333 305/283/301
f 305/283/301 339/306/333 327/297/322 283/256/279
f 324/296/319 309/285/305 325/262/320 340/261/334
f 311/257/307 328/298/323 341/307/335 326/258/321
f 328/298/323 327/297/322 342/308/336 343/309/337
f 332/302/324 315/289/311 344/310/338
f 344/310/338 315/289/311 320/293/205 334/304/328 333/303/327 345/311/339 346/312/340
f 322/295/317 324/296/319 340/261/334 336/280/330
f 337/281/331 348/313/342 338/305/332 304/282/300
f 339/306/333 338/305/332 349/314/343 350/315/344
f 327/297/322 339/306/333 350/315/344 342/308/336
f 341/307/335 328/298/323 343/309/337 352/316/346
f 326/258/321 341/307/335 353/317/347 351/259/345
f 343/309/337 342/308/336 354/318/348 355/319/349
f 347/260/341 356/320/350 348/313/342 337/281/331
f 338/305/332 348/313/342 357/321/351 349/314/343
f 350/315/344 349/314/343 358/322/352 359/323/353
f 342/308/336 350/315/344 359/323/353 354/318/348
f 353/317/347 341/307/335 352/316/346 360/324/354
f 352/316/346 343/309/337 355/319/349 361/325/355
f 351/259/345 353/317/347 356/320/350 347/260/341
f 362/326/356 355/319/349 354/318/348 363/327/357
f 348/313/342 356/320/350 364/328/358 357/321/351
f 349/314/343 357/321/351 365/329/359 358/322/352
f 366/330/360 359/323/353 358/322/352 367/331/361
f 363/327/357 354/318/348 359/323/353 366/330/360
f 356/320/350 353/317/347 360/324/354 364/328/358
f 360/324/354 352/316/346 361/325/355 368/332/362
f 369/333/363 361/325/355 355/319/349 362/326/356
f 367/331/361 371/334/365 373/335/367 372/336/366 369/333/363 362/326/356 363/327/357 366/330/360
f 357/321/351 364/328/358 370/337/364 365/329/359
f 367/331/361 358/322/352 365/329/359 371/334/365
f 364/328/358 360/324/354 368/332/362 370/337/364
f 372/336/366 368/332/362 361/325/355 369/333/363
f 371/334/365 365/329/359 370/337/364 373/335/367
f 373/335/367 370/337/364 368/332/362 372/336/366
f 375/338/369 376/339/370 377/340/371 374/341/368
f 374/341/368 378/342/372 385/343/379 375/338/369
f 376/339/370 375/338/369 379/344/373 32/345/32 7/346/7 13/347/13
f 374/341/368 377/340/371 380/348/374 381/340/375 382/349/376 383/342/377 384/350/378 378/342/372
f 10/351/10 377/340/371 376/339/370 11/352/11
f 376/339/370 13/347/13 12/353/12
f 379/344/373 375/338/369 385/343/379 386/354/380
f 32/345/32 379/344/373 33/355/33
f 377/340/371 10/351/10 9/356/9 23/356/23 380/348/374
f 381/340/375 380/348/374 23/356/23 22/352/22 387/357/381
f 382/349/376 381/340/375 387/357/381 388/338/382
f 383/342/377 382/349/376 388/338/382 389/343/383
f 384/350/378 383/342/377 389/343/383 390/358/384
f 378/342/372 384/350/378 390/358/384 385/343/379
f 11/352/11 376/339/370 12/353/12
f 386/354/380 391/359/385 392/360/386 379/344/373
f 33/355/33 379/344/373 392/360/386 53/361/53 30/362/30
f 386/354/380 385/343/379 390/358/384 393/363/387
f 391/359/385 386/354/380 393/363/387 394/364/388
f 53/361/53 392/360/386 106/365/105 51/366/51
f 21/367/21 387/357/381 22/352/22
f 19/368/19 388/338/382 387/357/381 20/353/20
f 388/338/382 395/344/389 396/354/390 389/343/383
f 389/343/383 396/354/390 393/363/387 390/358/384
f 392/360/386 391/359/385 397/369/391 398/370/392
f 394/364/388 399/371/393 397/369/391 391/359/385
f 106/365/105 392/360/386 398/370/392 160/372/158 104/373/103
f 20/353/20 387/357/381 21/367/21
f 388/338/382 19/368/19 18/374/18 43/375/43 395/344/389
f 394/364/388 393/363/387 396/354/390 400/359/394
f 397/369/391 401/376/395 406/377/400 398/370/392
f 399/371/393 394/364/388 400/359/394 402/369/396
f 160/372/158 398/370/392 403/378/397 161/379/159
f 395/344/389 43/375/43 42/380/42 75/381/75
f 399/371/393 405/382/399 401/376/395 397/369/391
f 403/378/397 398/370/392 406/377/400 210/383/207 158/384/156 165/385/163
f 161/151/159 403/386/397 162/152/160
f 395/344/389 75/381/75 74/366/74 138/365/137 404/387/398
f 400/359/394 396/354/390 395/344/389 404/387/398
f 400/359/394 404/387/398 408/388/402 402/369/396
f 405/382/399 399/371/393 402/369/396 407/376/401
f 401/376/395 409/389/403 415/390/409 406/377/400
f 405/382/399 410/391/404 409/389/403 401/376/395
f 407/376/401 402/369/396 408/388/402 411/377/405
f 403/386/397 165/155/163 164/154/162
f 210/383/207 406/377/400 412/392/406 256/393/252 211/394/208
f 162/152/160 403/386/397 163/153/161
f 404/387/398 138/365/137 137/395/136
f 404/387/398 137/395/136 136/373/135 192/396/190 413/378/407 408/388/402
f 407/376/401 414/389/408 410/391/404 405/382/399
f 411/377/405 416/390/410 414/389/408 407/376/401
f 163/153/161 403/386/397 164/154/162
f 406/377/400 415/390/409 317/397/313 296/398/292 295/399/291 412/392/406
f 256/234/252 412/400/406 257/235/253
f 191/379/189 413/378/407 192/396/190
f 232/393/229 417/392/411 411/377/405 408/388/402 413/378/407 188/401/186 187/384/185
f 409/389/403 418/402/412 330/403/325 329/404/324 332/405/324 344/406/338 346/407/340 415/390/409
f 410/391/404 419/408/413 418/402/412 409/389/403
f 414/389/408 420/409/414 419/408/413 410/391/404
f 411/377/405 278/410/274 277/398/273 289/397/285 416/390/410
f 257/235/253 412/400/406 258/236/254
f 190/411/188 413/378/407 191/379/189
f 413/412/407 189/173/187 188/172/186
f 231/413/228 417/392/411 232/393/229
f 278/410/274 411/377/405 417/392/411 279/399/275
f 416/390/410 421/414/415 420/409/414 414/389/408
f 416/390/410 289/397/285 249/415/246 250/416/246 288/417/284
f 258/236/254 412/400/406 295/274/291 259/237/255
f 317/397/313 415/390/409 346/407/340 345/418/339 318/419/314
f 189/173/187 413/412/407 190/174/188
f 417/392/411 231/413/228 230/420/227 280/421/276
f 279/252/275 417/422/411 280/253/276
f 416/390/410 288/417/284 245/423/242 248/424/245 422/425/416 421/414/415
f 330/403/325 418/402/412 331/426/326
f 419/408/413 423/427/417 313/428/309 312/429/308 331/426/326 418/402/412
f 420/409/414 424/430/418 423/427/417 419/408/413
f 421/414/415 425/431/419 424/430/418 420/409/414
f 318/292/314 345/311/339 333/303/327 316/290/312
f 247/226/244 422/432/416 248/227/245
f 243/433/240 421/414/415 422/425/416 244/434/241
f 242/435/239 425/431/419 421/414/415 243/433/240
f 246/225/243 422/432/416 247/226/244
f 422/432/416 200/184/197 199/183/196 244/223/241
f 313/428/309 423/427/417 426/436/420 285/437/281 284/438/280
f 424/430/418 427/439/421 426/436/420 423/427/417
f 425/431/419 428/440/422 427/439/421 424/430/418
f 143/441/142 429/442/423 428/440/422 425/431/419 242/435/239 198/443/195 149/444/143 144/445/143
f 422/432/416 246/225/243 201/185/198 200/184/197
f 285/437/281 426/436/420 430/446/424 239/447/236 238/448/235
f 142/133/141 429/449/423 143/134/142
f 427/439/421 431/450/425 432/451/426 426/436/420
f 426/436/420 432/451/426 435/452/429 86/453/85 85/454/84 148/455/147 430/446/424
f 239/218/236 430/456/424 240/219/237
f 428/440/422 433/457/427 431/450/425 427/439/421
f 80/458/80 434/459/428 433/457/427 428/440/422 429/442/423 140/460/139 81/461/81
f 429/449/423 142/133/141 141/132/140
f 240/462/237 430/446/424 241/463/238
f 429/449/423 141/132/140 140/131/139
f 79/464/79 139/465/138 76/466/76 77/467/77 436/468/430 434/459/428 80/458/80
f 432/451/426 431/450/425 437/469/431 438/470/432
f 431/450/425 433/457/427 439/471/433 437/469/431
f 241/463/238 430/446/424 148/455/147 147/472/146 197/473/146
f 435/452/429 432/451/426 438/470/432 440/474/434
f 86/453/85 435/452/429 87/475/86
f 433/457/427 434/459/428 441/476/435 439/471/433
f 139/130/138 79/30/79 78/29/78
f 26/35/26 436/477/430 77/82/77 44/50/44 27/27/27
f 434/459/428 436/468/430 442/478/436 441/476/435
f 88/479/87 435/452/429 440/474/434 443/480/437 89/481/88
f 440/474/434 438/470/432 437/469/431 439/471/433 441/476/435 442/478/436 444/482/438 443/480/437
f 87/475/86 435/452/429 88/479/87
f 92/92/91 445/483/439 436/477/430 26/35/26 25/34/25 47/52/47
f 436/468/430 445/484/439 444/482/438 442/478/436
f 89/481/88 443/480/437 444/482/438 445/484/439 90/485/89
f 91/91/90 445/483/439 92/92/91
f 90/90/89 445/483/439 91/91/90
