# Blender 5.0.0
# www.blender.org
mtllib Bush.mtl
o Bush
v 0.000000 0.680511 -0.000000
v -0.000000 0.680511 -0.700780
v 0.295146 0.759596 -0.700780
v 0.295146 0.759595 -0.000000
v 0.295146 0.759595 0.700780
v 0.000000 0.680511 0.700780
v -0.295147 0.759596 -0.157246
v -0.295147 0.759596 -0.700780
v -0.147408 0.720009 -0.000000
v -0.155522 0.722183 -0.011919
v -0.249700 0.747418 -0.145684
v -0.000000 0.843692 -0.747817
v 0.213556 0.900914 -0.747817
v 0.511209 0.975658 -0.700780
v 0.511209 0.975658 -0.000000
v -0.295147 0.759596 0.700780
v -0.295147 0.759596 0.156759
v -0.249700 0.747418 0.145684
v -0.223349 0.740358 0.106612
v -0.147408 0.720009 0.000000
v 0.511209 0.975658 0.700780
v 0.213556 0.900914 0.747817
v -0.000000 0.843692 0.747817
v -0.511209 0.975658 -0.172950
v -0.511209 0.975658 -0.700780
v -0.435719 0.900168 -0.164179
v -0.213556 0.900914 -0.747817
v 0.369890 1.057248 -0.747817
v -0.000000 0.897289 -0.818161
v 0.186758 0.947330 -0.818161
v 0.590293 1.270804 -0.700780
v 0.590293 1.270804 -0.044247
v 0.586931 1.258258 -0.024673
v 0.582250 1.240788 -0.000000
v 0.582250 1.240789 -0.000000
v -0.213556 0.900914 0.747817
v -0.511209 0.975658 0.700780
v -0.511209 0.975658 0.171543
v -0.435719 0.900168 0.164179
v -0.370194 0.834643 0.160304
v 0.585967 1.254658 0.021583
v 0.590293 1.270804 0.044561
v 0.590293 1.270804 0.700780
v 0.369890 1.057248 0.747817
v 0.186758 0.947330 0.818161
v -0.000000 0.897289 0.818161
v -0.590293 1.270804 -0.128550
v -0.590293 1.270804 -0.700780
v -0.557632 1.148913 -0.148710
v -0.369890 1.057248 -0.747817
v -0.186758 0.947330 -0.818161
v 0.427112 1.270804 -0.747817
v 0.323474 1.084046 -0.818161
v 0.000000 0.963301 -0.818161
v 0.217437 1.053367 -0.818161
v 0.307503 1.270804 -0.818161
v 0.217437 1.488242 -0.818161
v 0.000000 1.578307 -0.818161
v 0.186758 1.594278 -0.818161
v 0.323474 1.457562 -0.818161
v 0.373516 1.270804 -0.818161
v 0.511209 1.565951 -0.700780
v 0.511209 1.565951 -0.074361
v 0.536529 1.471454 -0.065541
v 0.584103 1.293904 -0.049274
v -0.186758 0.947330 0.818161
v -0.369890 1.057248 0.747817
v -0.590293 1.270804 0.700780
v -0.590293 1.270804 0.127343
v -0.556544 1.144852 0.145420
v 0.511209 1.565951 0.074412
v 0.511209 1.565951 0.700780
v 0.584103 1.293904 0.049273
v 0.427112 1.270804 0.747817
v 0.323474 1.084046 0.818161
v 0.000000 0.963301 0.818161
v 0.373516 1.270804 0.818161
v 0.323474 1.457562 0.818161
v 0.186758 1.594278 0.818161
v 0.000000 1.578307 0.818161
v 0.217437 1.488241 0.818161
v 0.307503 1.270804 0.818161
v 0.217437 1.053366 0.818161
v -0.511209 1.565951 -0.137300
v -0.511209 1.565951 -0.700780
v -0.575318 1.326692 -0.107085
v -0.427112 1.270804 -0.747817
v -0.323474 1.084047 -0.818161
v -0.307503 1.270804 -0.818161
v -0.217437 1.053367 -0.818161
v -0.373516 1.270804 -0.818161
v -0.323474 1.457562 -0.818161
v -0.186758 1.594278 -0.818161
v 0.000000 1.644320 -0.818161
v -0.217437 1.488241 -0.818161
v 0.369890 1.484360 -0.747817
v 0.000000 0.979801 -0.857994
v 0.205771 1.065034 -0.857994
v 0.291004 1.270804 -0.857994
v 0.205770 1.476575 -0.857994
v 0.000000 1.561808 -0.857994
v 0.213556 1.640694 -0.747817
v 0.295146 1.782013 -0.700780
v 0.295146 1.782013 -0.114042
v 0.338610 1.738550 -0.103315
v 0.452485 1.624674 -0.073802
v 0.459500 1.617659 -0.066855
v 0.476052 1.601107 -0.051641
v 0.487314 1.589845 -0.069846
v 0.489513 1.587647 -0.070247
v -0.307503 1.270804 0.818161
v -0.217437 1.488241 0.818161
v 0.000000 1.644319 0.818161
v -0.186758 1.594278 0.818161
v -0.323474 1.457562 0.818161
v -0.373516 1.270804 0.818161
v -0.323474 1.084046 0.818161
v -0.217437 1.053367 0.818161
v -0.427112 1.270804 0.747817
v -0.511209 1.565951 0.700780
v -0.511209 1.565951 0.138650
v -0.529460 1.497834 0.130895
v -0.575318 1.326692 0.107085
v 0.295146 1.782013 0.113365
v 0.295146 1.782013 0.700780
v 0.487314 1.589844 0.069846
v 0.486568 1.590591 0.068755
v 0.476052 1.601107 0.051641
v 0.452485 1.624674 0.073802
v 0.345222 1.731937 0.100723
v 0.369890 1.484360 0.747817
v 0.205771 1.065033 0.857994
v 0.000000 0.979800 0.857994
v 0.213556 1.640694 0.747817
v 0.000000 1.561807 0.857994
v 0.205770 1.476575 0.857994
v 0.291004 1.270804 0.857994
v -0.295146 1.782013 -0.133462
v -0.295146 1.782013 -0.700780
v -0.484486 1.592673 -0.132464
v -0.358769 1.718390 -0.113779
v -0.369890 1.484360 -0.747817
v -0.205771 1.476575 -0.857994
v -0.291004 1.270804 -0.857994
v -0.205771 1.065034 -0.857994
v -0.213556 1.640694 -0.747817
v 0.000000 1.697916 -0.747817
v 0.000000 1.023515 -0.876101
v 0.174859 1.095945 -0.876101
v 0.247289 1.270804 -0.876101
v 0.174859 1.445664 -0.876101
v 0.000000 1.518093 -0.876101
v 0.000000 1.861097 -0.700780
v 0.000000 1.861097 -0.129852
v 0.096941 1.835122 -0.106779
v 0.098164 1.834794 -0.105012
v 0.104785 1.833020 -0.095897
v 0.118477 1.829351 -0.105515
v 0.134605 1.825030 -0.106342
v -0.205771 1.065033 0.857994
v -0.291004 1.270804 0.857994
v -0.205771 1.476574 0.857994
v 0.000000 1.697916 0.747817
v -0.213556 1.640694 0.747817
v -0.369890 1.484360 0.747817
v -0.295146 1.782013 0.700780
v -0.295146 1.782013 0.133787
v -0.358769 1.718390 0.113779
v 0.000000 1.861097 0.130210
v 0.000000 1.861097 0.700780
v 0.288734 1.783731 0.113009
v 0.118477 1.829351 0.105515
v 0.115623 1.830116 0.103637
v 0.104786 1.833020 0.095897
v 0.096941 1.835122 0.106779
v 0.092701 1.836258 0.107830
v 0.174859 1.095944 0.876101
v 0.000000 1.023515 0.876101
v 0.000000 1.518093 0.876101
v 0.174859 1.445663 0.876101
v 0.247289 1.270804 0.876101
v -0.096850 1.835146 -0.130794
v -0.174860 1.445664 -0.876101
v -0.247289 1.270804 -0.876101
v -0.174860 1.095945 -0.876101
v 0.000000 1.067230 -0.857994
v 0.143948 1.126856 -0.857994
v 0.203574 1.270804 -0.857994
v 0.143948 1.414753 -0.857994
v 0.000000 1.474378 -0.857994
v -0.174860 1.095944 0.876101
v -0.247289 1.270804 0.876101
v -0.174860 1.445663 0.876101
v -0.204251 1.806368 0.132866
v 0.143948 1.126855 0.857994
v 0.000000 1.067230 0.857994
v 0.000000 1.474378 0.857994
v 0.143948 1.414752 0.857994
v 0.203574 1.270804 0.857994
v -0.143948 1.414752 -0.857994
v -0.203574 1.270804 -0.857994
v -0.143948 1.126856 -0.857994
v 0.132282 1.138523 -0.818161
v 0.000000 1.083730 -0.818161
v 0.187074 1.270804 -0.818161
v 0.132282 1.403086 -0.818161
v 0.000000 1.457879 -0.818161
v -0.143948 1.126855 0.857994
v -0.203574 1.270804 0.857994
v -0.143948 1.414752 0.857994
v 0.132282 1.138522 0.818161
v 0.000000 1.083729 0.818161
v 0.000000 1.457878 0.818161
v 0.132282 1.403086 0.818161
v 0.187074 1.270804 0.818161
v -0.187074 1.270804 -0.818161
v -0.132282 1.403086 -0.818161
v -0.132282 1.138523 -0.818161
v -0.132282 1.138522 0.818161
v -0.187074 1.270804 0.818161
v -0.132282 1.403085 0.818161
v 0.013914 -0.004904 -0.376230
v -0.071956 0.343224 -0.241303
v 0.078328 0.424022 -0.170627
v 0.279949 -0.004904 -0.266035
v -0.252121 -0.004904 -0.266035
v -0.293177 0.573680 -0.206028
v 0.390145 -0.004904 0.000000
v 0.279949 -0.004904 0.266035
v 0.013914 -0.004904 0.376230
v -0.252121 -0.004904 0.266035
v -0.362316 -0.004904 -0.000000
v 0.140577 0.457489 0.000000
v -0.222240 0.262426 -0.170627
v -0.180762 0.666344 -0.145684
v -0.405592 0.481016 -0.145684
v 0.078328 0.424022 0.170627
v -0.071956 0.343224 0.241303
v -0.222240 0.262426 0.170627
v -0.284490 0.228959 -0.000000
v -0.528254 0.859614 -0.206028
v -0.661687 0.801138 -0.145684
v -0.134199 0.704727 0.000000
v -0.452156 0.442633 -0.000000
v -0.716956 0.776916 -0.000000
v -0.180762 0.666344 0.145684
v -0.293177 0.573680 0.206028
v -0.405592 0.481016 0.145684
v -0.681332 1.324287 -0.151009
v -0.788084 1.321865 -0.106779
v -0.832302 1.320863 -0.000000
v -0.661687 0.801138 0.145684
v -0.788084 1.321865 0.106779
v -0.528254 0.859614 0.206028
v -0.491506 1.863496 -0.106779
v -0.419434 1.784709 -0.151009
v -0.521359 1.896131 0.000000
v -0.491506 1.863496 0.106779
v -0.681332 1.324287 0.151009
v -0.419434 1.784709 0.151009
v 0.122885 2.050334 -0.106779
v 0.126556 2.094410 -0.000000
v 0.114022 1.943923 -0.151009
v 0.122885 2.050334 0.106779
v 0.114022 1.943923 0.151009
v 0.105160 1.837512 -0.106779
v 0.105160 1.837512 0.106779
v 0.583480 1.705885 -0.071019
v 0.604539 1.726425 -0.000000
v 0.583480 1.705885 0.071018
v 0.532639 1.656298 -0.100436
v 0.532639 1.656298 0.100435
v 0.481798 1.606711 -0.071019
v 0.481798 1.606711 0.071018
v 0.714781 1.127052 -0.036172
v 0.729079 1.131530 -0.000000
v 0.714781 1.127052 0.036171
v 0.680263 1.116242 0.051154
v 0.680263 1.116242 -0.051155
v 0.645744 1.105431 0.036171
v 0.645744 1.105432 -0.036172
v 0.631446 1.100954 -0.000000
v 0.731130 0.838205 -0.036172
v 0.696612 0.827395 -0.051155
v 0.745428 0.842683 -0.000001
v 0.731130 0.838205 0.036171
v 0.696612 0.827395 0.051154
v 0.662093 0.816584 0.036171
v 0.662093 0.816584 -0.036172
v 0.647795 0.812106 -0.000001
vn -0.0000 -1.0000 -0.0000
vn -0.0000 -0.8300 -0.5577
vn 0.4150 -0.7188 -0.5577
vn 0.5000 -0.8660 -0.0000
vn 0.4150 -0.7188 0.5577
vn -0.0000 -0.8300 0.5577
vn -0.2354 -0.6585 -0.7148
vn -0.4150 -0.7188 -0.5577
vn 0.6048 -0.6018 -0.5215
vn 0.6513 -0.5197 -0.5529
vn 0.2827 -0.3613 -0.8886
vn -0.0000 -0.5271 -0.8498
vn 0.2636 -0.4565 -0.8498
vn 0.7188 -0.4150 -0.5577
vn 0.8660 -0.5000 -0.0000
vn -0.4150 -0.7188 0.5577
vn -0.2395 -0.6553 0.7164
vn 0.2866 -0.3490 0.8922
vn 0.6499 -0.5267 0.5480
vn 0.9709 0.2367 0.0354
vn 0.7188 -0.4150 0.5577
vn 0.2636 -0.4565 0.8498
vn -0.0000 -0.5271 0.8498
vn -0.6070 -0.3227 -0.7262
vn -0.7188 -0.4150 -0.5577
vn -0.3559 -0.4209 -0.8344
vn -0.2636 -0.4565 -0.8498
vn 0.4565 -0.2636 -0.8498
vn -0.0000 -0.4993 -0.8665
vn 0.2496 -0.4324 -0.8665
vn 0.8300 -0.0000 -0.5577
vn 0.8103 -0.4612 -0.3615
vn 0.1240 -0.8362 -0.5342
vn -0.6093 -0.7908 -0.0580
vn 0.3461 -0.8153 0.4643
vn -0.2636 -0.4565 0.8498
vn -0.7188 -0.4150 0.5577
vn -0.6130 -0.3119 0.7259
vn -0.3573 -0.4190 0.8347
vn -0.3655 -0.4131 0.8341
vn 0.1022 -0.8295 0.5491
vn 0.7984 -0.4543 0.3951
vn 0.8300 -0.0000 0.5577
vn 0.4565 -0.2636 0.8498
vn 0.2496 -0.4324 0.8665
vn -0.0000 -0.4993 0.8665
vn -0.6790 0.2312 -0.6968
vn -0.8300 -0.0000 -0.5577
vn -0.5639 -0.0331 -0.8252
vn -0.4565 -0.2636 -0.8498
vn -0.2496 -0.4324 -0.8665
vn 0.5271 -0.0000 -0.8498
vn 0.4324 -0.2496 -0.8665
vn -0.0000 -0.4450 -0.8955
vn 0.4163 -0.4163 -0.8084
vn 0.5887 -0.0000 -0.8084
vn 0.4163 0.4163 -0.8084
vn -0.0000 0.4935 -0.8697
vn 0.2496 0.4324 -0.8665
vn 0.4324 0.2496 -0.8665
vn 0.4993 -0.0000 -0.8665
vn 0.7188 0.4150 -0.5577
vn 0.5842 0.3604 -0.7272
vn 0.5531 0.0708 -0.8301
vn 0.5107 0.0563 -0.8579
vn -0.2496 -0.4324 0.8665
vn -0.4565 -0.2636 0.8498
vn -0.8300 -0.0000 0.5577
vn -0.6802 0.2142 0.7010
vn -0.5525 -0.0280 0.8330
vn 0.5853 0.3605 0.7263
vn 0.7188 0.4150 0.5577
vn 0.5133 0.0563 0.8564
vn 0.5271 -0.0000 0.8498
vn 0.4324 -0.2496 0.8665
vn -0.0000 -0.4450 0.8955
vn 0.4993 -0.0000 0.8665
vn 0.4324 0.2496 0.8665
vn 0.2496 0.4324 0.8665
vn -0.0000 0.4935 0.8697
vn 0.4163 0.4163 0.8084
vn 0.5887 -0.0000 0.8084
vn 0.4163 -0.4163 0.8084
vn -0.5904 0.3440 -0.7301
vn -0.7188 0.4150 -0.5577
vn -0.4724 0.1928 -0.8600
vn -0.5271 -0.0000 -0.8498
vn -0.4324 -0.2496 -0.8665
vn -0.5887 -0.0000 -0.8084
vn -0.4163 -0.4163 -0.8084
vn -0.4993 -0.0000 -0.8665
vn -0.4324 0.2496 -0.8665
vn -0.2496 0.4324 -0.8665
vn -0.0000 0.4993 -0.8665
vn -0.4163 0.4163 -0.8084
vn 0.4565 0.2636 -0.8498
vn -0.0000 -0.7486 -0.6630
vn 0.5294 -0.5294 -0.6630
vn 0.7486 -0.0000 -0.6630
vn 0.5294 0.5294 -0.6630
vn -0.0000 0.7486 -0.6630
vn 0.2636 0.4565 -0.8498
vn 0.4150 0.7188 -0.5577
vn 0.3934 0.5650 -0.7252
vn 0.4982 0.2957 -0.8151
vn 0.3930 0.1088 -0.9131
vn 0.5457 -0.2354 -0.8043
vn 0.0316 0.1747 -0.9841
vn -0.0290 0.3166 -0.9481
vn 0.3165 0.4718 -0.8229
vn -0.5887 -0.0000 0.8084
vn -0.4163 0.4163 0.8084
vn -0.0000 0.4993 0.8665
vn -0.2496 0.4324 0.8665
vn -0.4324 0.2496 0.8665
vn -0.4993 -0.0000 0.8665
vn -0.4324 -0.2496 0.8665
vn -0.4163 -0.4163 0.8084
vn -0.5271 -0.0000 0.8498
vn -0.7188 0.4150 0.5577
vn -0.5929 0.3451 0.7276
vn -0.5506 0.0493 0.8333
vn -0.4746 0.1810 0.8614
vn 0.3915 0.5644 0.7267
vn 0.4150 0.7188 0.5577
vn -0.0038 0.3311 0.9436
vn -0.3375 0.6676 0.6636
vn 0.0334 0.1725 0.9844
vn 0.4036 0.1318 0.9054
vn 0.4971 0.2907 0.8175
vn 0.4565 0.2636 0.8498
vn 0.5294 -0.5294 0.6630
vn -0.0000 -0.7486 0.6630
vn 0.2636 0.4565 0.8498
vn -0.0000 0.7486 0.6630
vn 0.5294 0.5294 0.6630
vn 0.7486 -0.0000 0.6630
vn -0.4226 0.5454 -0.7238
vn -0.4150 0.7188 -0.5577
vn -0.3074 0.4543 -0.8361
vn -0.3979 0.3383 -0.8528
vn -0.4565 0.2636 -0.8498
vn -0.5294 0.5294 -0.6630
vn -0.7486 -0.0000 -0.6630
vn -0.5294 -0.5294 -0.6630
vn -0.2636 0.4565 -0.8498
vn -0.0000 0.5271 -0.8498
vn -0.0000 -0.0949 -0.9955
vn 0.0671 -0.0671 -0.9955
vn 0.0949 -0.0000 -0.9955
vn 0.0671 0.0671 -0.9955
vn -0.0000 0.0949 -0.9955
vn -0.0000 0.8300 -0.5577
vn 0.1079 0.6847 -0.7208
vn 0.3995 0.1332 -0.9070
vn 0.8216 0.1045 -0.5604
vn 0.1360 0.1116 -0.9844
vn -0.0311 0.2792 -0.9597
vn 0.1046 0.5404 -0.8349
vn -0.5294 -0.5294 0.6630
vn -0.7486 -0.0000 0.6630
vn -0.5294 0.5294 0.6630
vn -0.0000 0.5271 0.8498
vn -0.2636 0.4565 0.8498
vn -0.4565 0.2636 0.8498
vn -0.4150 0.7188 0.5577
vn -0.4252 0.5437 0.7236
vn -0.3948 0.3393 0.8538
vn 0.1108 0.6845 0.7205
vn -0.0000 0.8300 0.5577
vn 0.0986 0.5358 0.8385
vn -0.0134 0.3048 0.9523
vn -0.4735 0.3072 0.8255
vn 0.1343 0.1118 0.9846
vn 0.4038 0.1377 0.9044
vn 0.3283 0.5018 0.8003
vn 0.0671 -0.0671 0.9955
vn -0.0000 -0.0949 0.9955
vn -0.0000 0.0949 0.9955
vn 0.0671 0.0671 0.9955
vn 0.0949 -0.0000 0.9955
vn -0.1293 0.5239 -0.8419
vn -0.0671 0.0671 -0.9955
vn -0.0949 -0.0000 -0.9955
vn -0.0671 -0.0671 -0.9955
vn -0.0000 0.6530 -0.7574
vn -0.4617 0.4617 -0.7574
vn -0.6530 -0.0000 -0.7574
vn -0.4617 -0.4617 -0.7574
vn -0.0000 -0.6530 -0.7574
vn -0.0671 -0.0671 0.9955
vn -0.0949 -0.0000 0.9955
vn -0.0671 0.0671 0.9955
vn -0.1307 0.5279 0.8392
vn -0.4617 0.4617 0.7574
vn -0.0000 0.6530 0.7574
vn -0.0000 -0.6530 0.7574
vn -0.4617 -0.4617 0.7574
vn -0.6530 -0.0000 0.7574
vn 0.4617 -0.4617 -0.7574
vn 0.6530 -0.0000 -0.7574
vn 0.4617 0.4617 -0.7574
vn -0.4507 0.4507 -0.7706
vn -0.0000 0.6373 -0.7706
vn -0.6373 -0.0000 -0.7706
vn -0.4507 -0.4507 -0.7706
vn -0.0000 -0.6373 -0.7706
vn 0.4617 0.4617 0.7574
vn 0.6530 -0.0000 0.7574
vn 0.4617 -0.4617 0.7574
vn -0.4507 0.4507 0.7706
vn -0.0000 0.6373 0.7706
vn -0.0000 -0.6373 0.7706
vn -0.4507 -0.4507 0.7706
vn -0.6373 -0.0000 0.7706
vn 0.6373 -0.0000 -0.7706
vn 0.4507 -0.4507 -0.7706
vn 0.4507 0.4507 -0.7706
vn 0.4507 0.4507 0.7706
vn 0.6373 -0.0000 0.7706
vn 0.4507 -0.4507 0.7706
vn -0.0060 -0.4899 -0.8718
vn -0.0129 0.2552 -0.9668
vn 0.5621 0.5135 -0.6483
vn 0.6302 -0.4532 -0.6304
vn -0.6131 -0.5166 -0.5977
vn -0.0391 0.0395 -0.9985
vn 0.8996 -0.4367 -0.0000
vn 0.6302 -0.4532 0.6304
vn -0.0060 -0.4899 0.8718
vn -0.6131 -0.5166 0.5977
vn -0.8529 -0.5220 -0.0000
vn 0.7863 0.6178 -0.0000
vn -0.6689 -0.0249 -0.7429
vn 0.4971 0.5096 -0.7022
vn -0.5723 -0.4307 -0.6978
vn 0.5621 0.5135 0.6483
vn -0.0129 0.2552 0.9668
vn -0.6689 -0.0249 0.7429
vn -0.9878 -0.1559 -0.0000
vn -0.0576 0.0266 -0.9980
vn -0.6597 -0.2976 -0.6901
vn 0.7126 0.7016 0.0011
vn -0.7851 -0.6194 -0.0000
vn -0.9052 -0.4250 -0.0000
vn 0.4952 0.5114 0.7023
vn -0.0399 0.0397 0.9984
vn -0.5723 -0.4307 0.6978
vn -0.1041 0.0792 -0.9914
vn -0.7422 0.1220 -0.6590
vn -0.9914 0.1309 -0.0000
vn -0.6597 -0.2976 0.6901
vn -0.7422 0.1220 0.6590
vn -0.0553 0.0303 0.9980
vn -0.4751 0.5829 -0.6592
vn -0.0572 0.0752 -0.9955
vn -0.6367 0.7711 -0.0000
vn -0.4751 0.5829 0.6592
vn -0.1026 0.0757 0.9918
vn -0.0576 0.0772 0.9954
vn 0.1435 0.7313 -0.6668
vn 0.1696 0.9855 -0.0000
vn 0.0671 0.0881 -0.9939
vn 0.1435 0.7313 0.6668
vn 0.0678 0.0881 0.9938
vn -0.0534 -0.6426 -0.7643
vn -0.0509 -0.6419 0.7651
vn 0.6544 0.3880 -0.6490
vn 0.8384 0.5451 -0.0000
vn 0.6544 0.3880 0.6490
vn 0.1450 -0.0191 -0.9892
vn 0.1447 -0.0187 0.9893
vn -0.4807 -0.4531 -0.7508
vn -0.4790 -0.4513 0.7529
vn 0.7365 0.0846 -0.6711
vn 0.9911 0.1333 -0.0000
vn 0.7365 0.0846 0.6711
vn 0.0501 -0.0375 0.9980
vn 0.0516 -0.0369 -0.9980
vn -0.6799 -0.1521 0.7174
vn -0.6796 -0.1505 -0.7180
vn -0.9811 -0.1936 -0.0007
vn 0.6714 -0.5151 -0.5328
vn 0.1418 -0.6097 -0.7799
vn 0.8772 -0.4802 -0.0000
vn 0.6714 -0.5151 0.5328
vn 0.1418 -0.6097 0.7799
vn -0.4133 -0.7165 0.5620
vn -0.4133 -0.7165 -0.5620
vn -0.6458 -0.7635 -0.0000
vt 0.251969 0.089106
vt 0.401516 0.089106
vt 0.401516 0.144155
vt 0.251969 0.144155
vt 0.102421 0.144155
vt 0.102421 0.089106
vt 0.285525 0.144155
vt 0.251969 0.116600
vt 0.254512 0.118113
vt 0.283058 0.135679
vt 0.411554 0.202694
vt 0.411554 0.242525
vt 0.401516 0.294553
vt 0.251969 0.294553
vt 0.218516 0.144155
vt 0.220879 0.135679
vt 0.229217 0.130764
vt 0.102421 0.294553
vt 0.092383 0.242525
vt 0.092383 0.202694
vt 0.288877 0.294553
vt 0.287005 0.242006
vt 0.411554 0.351347
vt 0.426566 0.240001
vt 0.426566 0.274835
vt 0.401516 0.500000
vt 0.261411 0.500000
vt 0.257234 0.491267
vt 0.251969 0.479107
vt 0.251969 0.479107
vt 0.215361 0.294553
vt 0.216933 0.242006
vt 0.217759 0.196395
vt 0.247363 0.488761
vt 0.242459 0.500000
vt 0.102421 0.500000
vt 0.092383 0.351347
vt 0.077372 0.274835
vt 0.077372 0.240001
vt 0.279401 0.500000
vt 0.283703 0.415153
vt 0.411554 0.351347
vt 0.411554 0.500000
vt 0.426566 0.370001
vt 0.426566 0.285952
vt 0.426566 0.348645
vt 0.426566 0.500000
vt 0.426566 0.651355
vt 0.426566 0.714048
vt 0.426566 0.725165
vt 0.426566 0.629999
vt 0.401516 0.705447
vt 0.267837 0.705447
vt 0.265955 0.639669
vt 0.262484 0.516080
vt 0.077372 0.274835
vt 0.092383 0.351347
vt 0.224793 0.500000
vt 0.220936 0.412327
vt 0.236089 0.705447
vt 0.102421 0.705447
vt 0.241454 0.516080
vt 0.092383 0.500000
vt 0.077372 0.370001
vt 0.077372 0.285952
vt 0.077372 0.500000
vt 0.077372 0.629999
vt 0.077372 0.725165
vt 0.077372 0.714048
vt 0.077372 0.651355
vt 0.077372 0.500000
vt 0.077372 0.348645
vt 0.281269 0.705447
vt 0.401516 0.705447
vt 0.274821 0.538902
vt 0.426566 0.370001
vt 0.426566 0.500000
vt 0.426566 0.759999
vt 0.426566 0.651355
vt 0.411554 0.648653
vt 0.435066 0.297437
vt 0.435066 0.356766
vt 0.435066 0.500000
vt 0.435066 0.643234
vt 0.435066 0.702563
vt 0.411554 0.757475
vt 0.401516 0.855844
vt 0.276305 0.855844
vt 0.274016 0.825591
vt 0.267718 0.746324
vt 0.266236 0.741441
vt 0.262989 0.729919
vt 0.266874 0.722079
vt 0.266959 0.720549
vt 0.077372 0.759999
vt 0.077372 0.370001
vt 0.102421 0.705447
vt 0.222380 0.705447
vt 0.224035 0.658032
vt 0.229116 0.538902
vt 0.227776 0.855844
vt 0.102421 0.855844
vt 0.237063 0.722079
vt 0.237296 0.722599
vt 0.240948 0.729919
vt 0.236219 0.746324
vt 0.230474 0.820988
vt 0.092383 0.648653
vt 0.068871 0.356766
vt 0.068871 0.297437
vt 0.092383 0.757475
vt 0.068871 0.702563
vt 0.068871 0.643234
vt 0.068871 0.500000
vt 0.280450 0.855844
vt 0.280237 0.724049
vt 0.276249 0.811558
vt 0.411554 0.797306
vt 0.438930 0.327866
vt 0.438930 0.378283
vt 0.438930 0.500000
vt 0.438930 0.621717
vt 0.438930 0.672134
vt 0.401516 0.910894
vt 0.279679 0.910894
vt 0.274755 0.892813
vt 0.274378 0.892585
vt 0.272433 0.891350
vt 0.274486 0.888797
vt 0.274662 0.885788
vt 0.092383 0.797306
vt 0.223418 0.855844
vt 0.227688 0.811558
vt 0.224182 0.910894
vt 0.102421 0.910894
vt 0.227852 0.857041
vt 0.229452 0.888796
vt 0.229852 0.889328
vt 0.231504 0.891350
vt 0.229182 0.892813
vt 0.228958 0.893604
vt 0.065007 0.378283
vt 0.065007 0.327866
vt 0.065007 0.672134
vt 0.065007 0.621717
vt 0.065007 0.500000
vt 0.279880 0.892830
vt 0.438930 0.621717
vt 0.435066 0.358296
vt 0.435066 0.399800
vt 0.435066 0.600201
vt 0.435066 0.641705
vt 0.223615 0.872798
vt 0.068871 0.399800
vt 0.068871 0.358296
vt 0.068871 0.641705
vt 0.068871 0.600201
vt 0.426566 0.407921
vt 0.426566 0.369780
vt 0.426566 0.592079
vt 0.426566 0.630220
vt 0.077372 0.407921
vt 0.077372 0.369780
vt 0.077372 0.630220
vt 0.077372 0.592079
vt 0.426566 0.592079
vt 0.845612 0.026646
vt 0.772989 0.026646
vt 0.749547 0.183638
vt 0.790573 0.220074
vt 0.700365 0.026646
vt 0.708522 0.147201
vt 0.689157 0.287564
vt 0.719845 0.329352
vt 0.875694 0.026646
vt 0.772989 0.026646
vt 0.670283 0.026646
vt 0.807566 0.235167
vt 0.658470 0.245776
vt 0.749547 0.183638
vt 0.691529 0.132108
vt 0.732556 0.346661
vt 0.624985 0.416509
vt 0.650245 0.434798
vt 0.688620 0.371405
vt 0.701026 0.365913
vt 0.588560 0.390139
vt 0.645758 0.228467
vt 0.573472 0.379216
vt 0.719845 0.329352
vt 0.689157 0.287564
vt 0.726735 0.354533
vt 0.583197 0.626059
vt 0.616965 0.546972
vt 0.629638 0.468841
vt 0.554055 0.624967
vt 0.541984 0.624515
vt 0.251969 0.105962
vt 0.612137 0.627143
vt 0.608049 0.601940
vt 0.708219 0.362729
vt 0.728950 0.353553
vt 0.701026 0.365913
vt 0.668133 0.405249
vt 0.624985 0.416510
vt 0.635016 0.869221
vt 0.654691 0.833691
vt 0.636933 0.747091
vt 0.629638 0.735040
vt 0.626867 0.883938
vt 0.671252 0.803784
vt 0.617262 0.545141
vt 0.802736 0.953478
vt 0.800317 0.905490
vt 0.803738 0.973354
vt 0.742752 0.856436
vt 0.688620 0.832475
vt 0.624655 0.704322
vt 0.797897 0.857503
vt 0.795654 0.856425
vt 0.769190 0.868139
vt 0.713433 0.843459
vt 0.794496 0.856938
vt 0.797897 0.857503
vt 0.928472 0.798145
vt 0.914593 0.775783
vt 0.934220 0.807407
vt 0.861626 0.812875
vt 0.849761 0.832475
vt 0.805935 0.851874
vt 0.274755 0.894477
vt 0.229182 0.894477
vt 0.801533 0.853823
vt 0.848010 0.833250
vt 0.900714 0.753421
vt 0.892712 0.761522
vt 0.863431 0.809893
vt 0.900714 0.753421
vt 0.964315 0.537114
vt 0.954892 0.532239
vt 0.968218 0.539133
vt 0.915655 0.692425
vt 0.908743 0.735040
vt 0.902820 0.744824
vt 0.267124 0.733820
vt 0.236813 0.733820
vt 0.928642 0.612357
vt 0.945469 0.527363
vt 0.902220 0.745815
vt 0.928642 0.612357
vt 0.929150 0.594659
vt 0.941566 0.525344
vt 0.930331 0.601940
vt 0.968778 0.406855
vt 0.959355 0.401980
vt 0.972681 0.408874
vt 0.959355 0.401980
vt 0.949932 0.397105
vt 0.929414 0.596282
vt 0.928136 0.588404
vt 0.928136 0.588404
vt 0.946029 0.395085
s 1
usemtl Material
f 1/1/1 2/2/2 3/3/3 4/4/4
f 1/1/1 4/4/4 5/5/5 6/6/6
f 7/7/7 8/3/8 2/2/2 1/1/1 9/8/9 10/9/10 11/10/11
f 3/3/3 2/2/2 12/11/12 13/12/13
f 4/4/4 3/3/3 14/13/14 15/14/15
f 9/8/9 1/1/1 6/6/6 16/5/16 17/15/17 18/16/18 19/17/19 20/8/20
f 4/4/4 15/14/15 21/18/21 5/5/5
f 5/5/5 22/19/22 23/20/23 6/6/6
f 24/21/24 25/13/25 8/3/8 7/7/7 26/22/26
f 2/2/2 8/3/8 27/12/27 12/11/12
f 14/13/14 3/3/3 13/12/13 28/23/28
f 13/12/13 12/11/12 29/24/29 30/25/30
f 15/14/15 14/13/14 31/26/31 32/27/32 33/28/33 34/29/34 35/30/35
f 6/6/6 23/20/23 36/19/36 16/5/16
f 17/15/17 16/5/16 37/18/37 38/31/38 39/32/39 40/33/40
f 15/14/15 35/30/35 41/34/41 42/35/42 43/36/43 21/18/21
f 21/18/21 44/37/44 22/19/22 5/5/5
f 22/19/22 45/38/45 46/39/46 23/20/23
f 47/40/47 48/26/48 25/13/25 24/21/24 49/41/49
f 8/3/8 25/13/25 50/42/50 27/12/27
f 12/11/12 27/12/27 51/25/51 29/24/29
f 31/26/31 14/13/14 28/23/28 52/43/52
f 28/23/28 13/12/13 30/25/30 53/44/53
f 54/45/54 55/46/55 56/47/56 57/48/57 58/49/58 59/50/59 60/51/60 61/47/61 53/44/53 30/25/30 29/24/29
f 32/27/32 31/26/31 62/52/62 63/53/63 64/54/64 65/55/65
f 23/20/23 46/39/46 66/56/66 36/19/36
f 16/5/16 36/19/36 67/57/67 37/18/37
f 38/31/38 37/18/37 68/36/68 69/58/69 70/59/70
f 71/60/71 72/61/72 43/36/43 42/35/42 73/62/73
f 43/36/43 74/63/74 44/37/44 21/18/21
f 44/37/44 75/64/75 45/38/45 22/19/22
f 76/65/76 46/39/46 45/38/45 75/64/75 77/66/77 78/67/78 79/68/79 80/69/80 81/70/81 82/71/82 83/72/83
f 84/73/84 85/74/85 48/26/48 47/40/47 86/75/86
f 25/13/25 48/26/48 87/43/87 50/42/50
f 27/12/27 50/42/50 88/76/88 51/25/51
f 89/77/89 90/46/90 54/45/54 29/24/29 51/25/51 88/76/88 91/47/91 92/51/92 93/50/93 94/78/94 59/50/59 58/49/58 95/79/95
f 62/52/62 31/26/31 52/43/52 96/80/96
f 52/43/52 28/23/28 53/44/53 61/47/61
f 54/45/54 97/81/97 98/82/98 55/46/55
f 55/46/55 98/82/98 99/83/99 56/47/56
f 56/47/56 99/83/99 100/84/100 57/48/57
f 57/48/57 100/84/100 101/85/101 58/49/58
f 102/86/102 96/80/96 60/51/60 59/50/59
f 96/80/96 52/43/52 61/47/61 60/51/60
f 63/53/63 62/52/62 103/87/103 104/88/104 105/89/105 106/90/106 107/91/107 108/92/108 109/93/109 110/94/110
f 111/71/111 112/70/112 80/69/80 79/68/79 113/95/113 114/68/114 115/67/115 116/66/116 117/96/117 66/56/66 46/39/46 76/65/76 118/72/118
f 36/19/36 66/56/66 117/96/117 67/57/67
f 37/18/37 67/57/67 119/63/119 68/36/68
f 69/58/69 68/36/68 120/97/120 121/98/121 122/99/122 123/100/123
f 124/101/124 125/102/125 72/61/72 71/60/71 126/103/126 127/104/127 128/105/128 129/106/129 130/107/130
f 72/61/72 131/108/131 74/63/74 43/36/43
f 74/63/74 77/66/77 75/64/75 44/37/44
f 76/65/76 83/72/83 132/109/132 133/110/133
f 131/108/131 78/67/78 77/66/77 74/63/74
f 134/111/134 79/68/79 78/67/78 131/108/131
f 81/70/81 80/69/80 135/112/135 136/113/136
f 82/71/82 81/70/81 136/113/136 137/114/137
f 83/72/83 82/71/82 137/114/137 132/109/132
f 138/115/138 139/87/139 85/74/85 84/73/84 140/116/140 141/117/141
f 48/26/48 85/74/85 142/80/142 87/43/87
f 50/42/50 87/43/87 91/47/91 88/76/88
f 95/79/95 143/84/143 144/83/144 89/77/89
f 89/77/89 144/83/144 145/82/145 90/46/90
f 90/46/90 145/82/145 97/81/97 54/45/54
f 87/43/87 142/80/142 92/51/92 91/47/91
f 142/80/142 146/86/146 93/50/93 92/51/92
f 146/86/146 147/118/147 94/78/94 93/50/93
f 147/118/147 102/86/102 59/50/59 94/78/94
f 58/49/58 101/85/101 143/84/143 95/79/95
f 103/87/103 62/52/62 96/80/96 102/86/102
f 98/82/98 97/81/97 148/119/148 149/120/149
f 99/83/99 98/82/98 149/120/149 150/121/150
f 100/84/100 99/83/99 150/121/150 151/122/151
f 101/85/101 100/84/100 151/122/151 152/123/152
f 104/88/104 103/87/103 153/124/153 154/125/154 155/126/155 156/127/156 157/128/157 158/129/158 159/130/159
f 111/71/111 118/72/118 160/109/160 161/114/161
f 112/70/112 111/71/111 161/114/161 162/113/162
f 80/69/80 112/70/112 162/113/162 135/112/135
f 163/131/163 113/95/113 79/68/79 134/111/134
f 164/111/164 114/68/114 113/95/113 163/131/163
f 165/108/165 115/67/115 114/68/114 164/111/164
f 119/63/119 116/66/116 115/67/115 165/108/165
f 67/57/67 117/96/117 116/66/116 119/63/119
f 118/72/118 76/65/76 133/110/133 160/109/160
f 68/36/68 119/63/119 165/108/165 120/97/120
f 121/98/121 120/97/120 166/102/166 167/132/167 168/133/168
f 169/134/169 170/135/170 125/102/125 124/101/124 171/136/171 172/137/172 173/138/173 174/139/174 175/140/175 176/141/176
f 125/102/125 134/111/134 131/108/131 72/61/72
f 132/109/132 177/142/177 178/143/178 133/110/133
f 135/112/135 179/144/179 180/145/180 136/113/136
f 136/113/136 180/145/180 181/146/181 137/114/137
f 137/114/137 181/146/181 177/142/177 132/109/132
f 154/125/154 153/124/153 139/87/139 138/115/138 182/147/182
f 85/74/85 139/87/139 146/86/146 142/80/142
f 144/83/144 143/84/143 183/148/183 184/121/184
f 145/82/145 144/83/144 184/121/184 185/120/185
f 97/81/97 145/82/145 185/120/185 148/119/148
f 139/87/139 153/124/153 147/118/147 146/86/146
f 153/124/153 103/87/103 102/86/102 147/118/147
f 143/84/143 101/85/101 152/123/152 183/148/183
f 149/120/149 148/119/148 186/149/186 187/150/187
f 150/121/150 149/120/149 187/150/187 188/83/188
f 151/122/151 150/121/150 188/83/188 189/151/189
f 152/123/152 151/122/151 189/151/189 190/152/190
f 160/109/160 191/142/191 192/146/192 161/114/161
f 161/114/161 192/146/192 193/145/193 162/113/162
f 162/113/162 193/145/193 179/144/179 135/112/135
f 170/135/170 163/131/163 134/111/134 125/102/125
f 166/102/166 164/111/164 163/131/163 170/135/170
f 120/97/120 165/108/165 164/111/164 166/102/166
f 133/110/133 178/143/178 191/142/191 160/109/160
f 167/132/167 166/102/166 170/135/170 169/134/169 194/153/194
f 177/142/177 195/154/195 196/155/196 178/143/178
f 179/144/179 197/156/197 198/157/198 180/145/180
f 180/145/180 198/157/198 199/114/199 181/146/181
f 181/146/181 199/114/199 195/154/195 177/142/177
f 184/121/184 183/148/183 200/151/200 201/83/201
f 185/120/185 184/121/184 201/83/201 202/150/202
f 148/119/148 185/120/185 202/150/202 186/149/186
f 183/148/183 152/123/152 190/152/190 200/151/200
f 203/158/203 187/150/187 186/149/186 204/159/204
f 205/47/205 188/83/188 187/150/187 203/158/203
f 206/160/206 189/151/189 188/83/188 205/47/205
f 207/161/207 190/152/190 189/151/189 206/160/206
f 191/142/191 208/154/208 209/114/209 192/146/192
f 192/146/192 209/114/209 210/157/210 193/145/193
f 193/145/193 210/157/210 197/156/197 179/144/179
f 178/143/178 196/155/196 208/154/208 191/142/191
f 211/162/211 212/163/212 196/155/196 195/154/195
f 213/164/213 214/165/214 198/157/198 197/156/197
f 214/165/214 215/71/215 199/114/199 198/157/198
f 215/71/215 211/162/211 195/154/195 199/114/199
f 216/47/216 201/83/201 200/151/200 217/166/217
f 218/158/218 202/150/202 201/83/201 216/47/216
f 204/159/204 186/149/186 202/150/202 218/158/218
f 217/166/217 200/151/200 190/152/190 207/161/207
f 217/166/217 207/161/207 206/160/206 205/47/205 203/158/203 204/159/204 218/158/218 216/47/216
f 219/162/219 220/71/220 209/114/209 208/154/208
f 220/71/220 221/165/221 210/157/210 209/114/209
f 221/165/221 213/164/213 197/156/197 210/157/210
f 212/163/212 219/162/219 208/154/208 196/155/196
f 221/165/221 220/71/220 219/162/219 212/163/212 211/162/211 215/71/215 214/165/214 213/164/213
f 225/167/225 222/168/222 223/169/223 224/170/224
f 222/168/222 226/171/226 234/172/234 223/169/223
f 223/169/223 227/173/227 235/174/235 224/170/224
f 222/168/222 225/167/225 228/175/228 229/167/229 230/176/230 231/171/231 232/177/232 226/171/226
f 224/170/224 233/178/233 228/175/228 225/167/225
f 227/173/227 223/169/223 234/172/234 236/179/236
f 229/167/229 228/175/228 233/178/233 237/170/237
f 230/176/230 229/167/229 237/170/237 238/180/238
f 231/171/231 230/176/230 238/180/238 239/172/239
f 232/177/232 231/171/231 239/172/239 240/181/240
f 226/171/226 232/177/232 240/181/240 234/172/234
f 224/170/224 235/174/235 243/182/243 233/178/233
f 227/173/227 241/183/241 26/184/26 7/185/7 11/186/11 235/174/235
f 236/179/236 242/187/242 241/183/241 227/173/227
f 236/179/236 234/172/234 240/181/240 244/188/244
f 242/187/242 236/179/236 244/188/244 245/189/245
f 233/178/233 243/182/243 246/190/246 237/170/237
f 237/170/237 246/190/246 247/191/247 238/180/238
f 238/180/238 247/191/247 248/179/248 239/172/239
f 239/172/239 248/179/248 244/188/244 240/181/240
f 10/192/10 243/182/243 235/174/235 11/186/11
f 26/184/26 241/183/241 249/193/249 49/194/49 24/195/24
f 242/187/242 250/196/250 249/193/249 241/183/241
f 245/189/245 251/197/251 250/196/250 242/187/242
f 243/198/243 10/9/10 9/8/9 20/8/20
f 245/189/245 244/188/244 248/179/248 252/187/252
f 49/194/49 249/193/249 86/199/86 47/200/47
f 251/197/251 245/189/245 252/187/252 253/196/253
f 19/201/19 246/190/246 243/182/243 20/202/20
f 247/191/247 246/190/246 18/203/18 17/185/17 40/204/40
f 247/191/247 254/205/254 252/187/252 248/179/248
f 250/196/250 255/206/255 256/207/256 249/193/249
f 86/199/86 249/193/249 256/207/256 140/208/140 84/209/84
f 251/197/251 257/210/257 255/206/255 250/196/250
f 253/196/253 258/206/258 257/210/257 251/197/251
f 18/203/18 246/190/246 19/201/19
f 39/184/39 254/205/254 247/191/247 40/204/40
f 253/196/253 252/187/252 254/205/254 259/193/259
f 140/208/140 256/207/256 141/211/141
f 258/206/258 253/196/253 259/193/259 260/207/260
f 254/205/254 39/184/39 38/195/38 70/212/70
f 255/206/255 261/213/261 263/214/263 256/207/256
f 257/210/257 262/215/262 261/213/261 255/206/255
f 141/211/141 256/207/256 263/214/263 182/216/182 138/217/138
f 258/206/258 264/213/264 262/215/262 257/210/257
f 260/207/260 265/214/265 264/213/264 258/206/258
f 254/205/254 70/212/70 69/200/69 123/199/123 259/193/259
f 259/193/259 122/218/122 121/209/121 168/211/168 260/207/260
f 182/216/182 263/214/263 266/219/266 155/220/155 154/221/154
f 260/207/260 194/222/194 169/221/169 176/223/176 267/224/267 265/214/265
f 122/218/122 259/193/259 123/199/123
f 260/207/260 168/211/168 167/217/167 194/222/194
f 261/213/261 268/225/268 271/226/271 263/214/263
f 262/215/262 269/227/269 268/225/268 261/213/261
f 264/213/264 270/225/270 269/227/269 262/215/262
f 266/219/266 263/214/263 271/226/271 105/228/105 104/229/104 159/230/159
f 155/126/155 266/231/266 156/127/156
f 265/214/265 272/226/272 270/225/270 264/213/264
f 175/140/175 267/232/267 176/141/176
f 265/214/265 267/224/267 172/233/172 171/234/171
f 266/231/266 159/130/159 158/129/158
f 105/228/105 271/226/271 273/235/273 106/236/106
f 156/127/156 266/231/266 157/128/157
f 265/214/265 171/234/171 124/229/124 130/237/130 274/238/274 272/226/272
f 174/139/174 267/232/267 175/140/175
f 267/232/267 173/138/173 172/137/172
f 268/225/268 275/239/275 279/240/279 271/226/271
f 269/227/269 276/241/276 275/239/275 268/225/268
f 270/225/270 277/239/277 276/241/276 269/227/269
f 272/226/272 278/240/278 277/239/277 270/225/270
f 157/128/157 266/231/266 158/129/158
f 273/235/273 271/226/271 279/240/279 64/242/64 63/243/63 110/244/110
f 106/90/106 273/245/273 107/91/107
f 129/106/129 274/246/274 130/107/130
f 73/247/73 280/248/280 278/240/278 272/226/272 274/238/274 126/249/126 71/243/71
f 173/138/173 267/232/267 174/139/174
f 273/245/273 110/94/110 109/93/109
f 64/242/64 279/240/279 281/248/281 65/250/65
f 107/91/107 273/245/273 108/92/108
f 128/105/128 274/246/274 129/106/129
f 274/246/274 127/104/127 126/103/126
f 41/251/41 282/252/282 280/248/280 73/247/73 42/253/42
f 279/240/279 275/239/275 283/254/283 284/255/284
f 275/239/275 276/241/276 285/256/285 283/254/283
f 276/241/276 277/239/277 286/254/286 285/256/285
f 277/239/277 278/240/278 287/257/287 286/254/286
f 278/240/278 280/248/280 288/258/288 287/257/287
f 108/92/108 273/245/273 109/93/109
f 281/248/281 279/240/279 284/255/284 289/258/289
f 65/250/65 281/248/281 33/259/33 32/253/32
f 274/246/274 128/105/128 127/104/127
f 34/260/34 282/252/282 41/251/41 35/261/35
f 280/248/280 282/252/282 290/262/290 288/258/288
f 282/252/282 281/248/281 289/258/289 290/262/290
f 289/258/289 284/255/284 283/254/283 285/256/285 286/254/286 287/257/287 288/258/288 290/262/290
f 33/259/33 281/248/281 282/252/282 34/260/34
