# Blender 5.0.0
# www.blender.org
mtllib SmallTree.mtl
o Tree
v 0.130607 1.992747 0.090619
v 0.130607 1.992747 -0.749064
v 0.488067 2.088528 -0.749064
v 0.488067 2.088528 0.099668
v 0.134424 1.993769 0.099668
v -0.226853 2.088528 0.099668
v -0.226853 2.088528 -0.749064
v 0.118784 1.995915 0.062070
v 0.011126 2.024761 0.011917
v -0.093869 2.052895 0.051093
v -0.114355 2.058384 0.099668
v 0.130607 2.190379 -0.806033
v 0.389250 2.259683 -0.806033
v 0.749745 2.350206 -0.749064
v 0.749745 2.350206 0.099669
v 0.488067 2.088527 0.948401
v 0.130607 1.992746 0.948401
v 0.130607 1.992747 0.263017
v 0.164662 2.001871 0.171369
v -0.138207 2.064775 0.156227
v -0.096186 2.053516 0.269315
v 0.011126 2.024761 0.324689
v 0.121221 1.995262 0.286199
v -0.226853 2.088527 0.948401
v -0.488531 2.350206 -0.038811
v -0.128036 2.259683 -0.806033
v 0.578590 2.449023 -0.806033
v 0.130607 2.255291 -0.891228
v 0.356794 2.315898 -0.891228
v 0.749745 2.350206 0.948402
v 0.845526 2.707666 -0.749064
v 0.845526 2.707666 0.099669
v 0.389250 2.259682 1.005370
v 0.130607 2.190379 1.005370
v -0.412731 2.274406 0.482890
v -0.128036 2.259682 1.005370
v -0.412731 2.274405 0.024296
v -0.488531 2.350207 -0.749064
v -0.317376 2.449023 -0.806033
v -0.095580 2.315898 -0.891228
v 0.647894 2.707666 -0.806033
v 0.522375 2.481478 -0.891228
v 0.130607 2.335241 -0.891228
v 0.845526 2.707665 0.948401
v 0.578590 2.449022 1.005370
v 0.749745 3.065125 -0.749064
v 0.749745 3.065125 0.099669
v 0.356794 2.315898 1.090565
v 0.130607 2.255291 1.090565
v -0.488531 2.350206 0.948402
v -0.397497 2.259172 0.422274
v -0.095580 2.315898 1.090565
v -0.317376 2.449023 1.005370
v -0.481375 2.343050 -0.032853
v -0.391855 2.253530 0.099669
v -0.512453 2.439483 -0.125182
v -0.584312 2.707666 -0.749064
v -0.386679 2.707666 -0.806033
v -0.261161 2.481479 -0.891228
v 0.578590 2.966310 -0.806032
v 0.582982 2.707666 -0.891228
v 0.393951 2.444322 -0.891228
v 0.749745 3.065125 0.948401
v 0.647894 2.707665 1.005370
v 0.522375 2.481478 1.090565
v 0.488067 3.326804 -0.749064
v 0.488067 3.326804 0.099669
v 0.130607 2.335240 1.090565
v -0.488531 2.350206 0.573937
v -0.352308 2.213983 0.242458
v -0.428064 2.213983 0.256419
v -0.261161 2.481478 1.090565
v -0.386679 2.707666 1.005370
v -0.584312 2.707666 0.948401
v -0.468934 2.274405 0.034654
v -0.572875 2.664982 -0.175487
v -0.488531 3.065125 -0.749064
v -0.317376 2.966310 -0.806032
v -0.321767 2.707666 -0.891228
v -0.132737 2.444322 -0.891228
v 0.389250 3.155649 -0.806032
v 0.522375 2.933853 -0.891227
v 0.503032 2.707666 -0.891228
v 0.130607 2.355224 -0.939470
v 0.379821 2.458452 -0.939470
v 0.488067 3.326804 0.948401
v 0.578590 2.966309 1.005370
v 0.582982 2.707665 1.090565
v 0.393951 2.444321 1.090565
v 0.130607 3.422585 -0.749064
v 0.130607 3.422584 0.099669
v -0.512453 2.439483 0.669125
v -0.913740 2.274406 0.575224
v -0.954610 2.213983 0.353459
v -0.132737 2.444321 1.090565
v -0.321767 2.707666 1.090565
v -0.572875 2.664982 0.741701
v -0.317376 2.966309 1.005370
v -0.488531 3.065125 0.948401
v -1.025399 2.439483 -0.030649
v -1.036350 2.664982 -0.090071
v -0.995480 2.274405 0.131694
v -0.584312 2.707666 -0.161749
v -0.535326 2.890481 -0.120967
v -0.226852 3.326804 -0.749064
v -0.128036 3.155649 -0.806032
v -0.261160 2.933853 -0.891227
v -0.241817 2.707666 -0.891228
v -0.118607 2.458452 -0.939470
v 0.130607 3.224952 -0.806032
v 0.356794 3.099433 -0.891227
v 0.483049 2.707666 -0.939470
v 0.130607 2.408168 -0.961401
v 0.342384 2.495889 -0.961401
v 0.130607 3.422584 0.948401
v 0.389250 3.155649 1.005370
v 0.522375 2.933853 1.090565
v 0.503032 2.707665 1.090565
v -0.226852 3.326804 0.099669
v 0.379821 2.458451 1.138807
v 0.130607 2.355223 1.138807
v -0.883821 2.439483 0.737567
v -0.118607 2.458451 1.138807
v -0.241817 2.707665 1.090565
v -0.261160 2.933853 1.090565
v -0.584312 2.707666 0.732179
v -0.535326 2.890481 0.673341
v -0.128036 3.155649 1.005370
v -0.226852 3.326804 0.948401
v -1.041173 2.501820 0.082047
v -1.049096 2.664982 0.039052
v -0.491094 3.055558 0.038738
v -0.488531 3.065125 0.074572
v -0.095580 3.099433 -0.891227
v -0.221835 2.707666 -0.939470
v -0.081170 2.495889 -0.961401
v 0.130607 3.160040 -0.891227
v 0.393951 2.971010 -0.891227
v 0.430105 2.707666 -0.961401
v 0.379821 2.956880 -0.939470
v 0.130607 2.461112 -0.939470
v 0.304947 2.533326 -0.939470
v 0.130607 3.224952 1.005370
v 0.356794 3.099433 1.090565
v 0.483049 2.707665 1.138807
v 0.342384 2.495888 1.160738
v 0.130607 2.408168 1.160738
v -0.872870 2.664982 0.796988
v -0.938732 2.501820 0.637897
v -0.960380 2.382377 0.520432
v -0.989953 2.338658 0.359972
v -1.019524 2.382377 0.199512
v -0.221835 2.707665 1.138807
v -0.081170 2.495888 1.160738
v -0.095580 3.099433 1.090565
v -0.491094 3.055558 0.497332
v -0.488531 3.065125 0.460554
v -1.025399 2.890481 -0.030649
v -1.041172 2.828144 0.082047
v -1.087599 2.522295 0.126664
v -1.094529 2.664982 0.089064
v -0.995480 3.055558 0.131694
v -0.132737 2.971010 -0.891227
v -0.118607 2.956879 -0.939470
v -0.168891 2.707666 -0.961401
v -0.043733 2.533326 -0.939470
v 0.130607 3.080090 -0.891227
v 0.342384 2.919442 -0.961400
v 0.377161 2.707666 -0.939470
v 0.130607 3.060108 -0.939470
v 0.290817 2.547456 -0.891228
v 0.130607 2.481095 -0.891228
v 0.130607 3.160039 1.090565
v 0.393951 2.971010 1.090565
v 0.379821 2.956879 1.138807
v 0.430105 2.707665 1.160738
v -0.481580 3.072076 0.099669
v 0.304947 2.533326 1.138807
v 0.130607 2.461112 1.138807
v -0.930809 2.664982 0.680892
v -0.998014 2.522294 0.612762
v -1.016945 2.417840 0.510038
v -1.042807 2.379607 0.369713
v -1.068668 2.417840 0.229388
v -0.132737 2.971009 1.090565
v -0.118607 2.956879 1.138807
v -0.168891 2.707665 1.160738
v -0.043733 2.533326 1.138807
v -0.883821 2.890481 0.737566
v -0.913740 3.055558 0.575223
v -1.019524 2.947587 0.199512
v -1.087599 2.807670 0.126664
v -1.085388 2.664982 0.138664
v -0.081170 2.919442 -0.961400
v -0.115946 2.707666 -0.939470
v -0.029603 2.547456 -0.891228
v 0.130607 3.007164 -0.961400
v 0.304947 2.882005 -0.939470
v 0.357178 2.707666 -0.891228
v -0.029603 2.867875 -0.891227
v 0.130607 2.934237 -0.891227
v 0.290817 2.867876 -0.891227
v -0.095964 2.707666 -0.891228
v -0.437675 3.115980 0.258190
v 0.130607 3.080090 1.090565
v 0.130607 3.060107 1.138807
v 0.342384 2.919442 1.160737
v 0.377161 2.707665 1.138807
v 0.290817 2.547456 1.090565
v 0.130607 2.481095 1.090565
v -0.938732 2.828144 0.637897
v -0.991084 2.664982 0.650362
v -1.012697 2.498854 0.533089
v -1.042807 2.430042 0.369713
v -0.081170 2.919442 1.160737
v -0.115946 2.707665 1.138807
v -0.029603 2.547456 1.090565
v -0.960380 2.947587 0.520432
v -1.072916 2.498854 0.206337
v -0.954610 3.115980 0.353459
v -0.989953 2.991306 0.359972
v -1.068668 2.912125 0.229389
v -0.043733 2.882005 -0.939470
v 0.130607 2.954219 -0.939470
v 0.130607 3.007163 1.160737
v 0.304947 2.882005 1.138807
v 0.357178 2.707665 1.090565
v -0.998014 2.807670 0.612762
v -1.000225 2.664982 0.600762
v -0.043733 2.882005 1.138807
v -0.095964 2.707665 1.090565
v -1.016945 2.912125 0.510037
v -1.042807 2.950357 0.369713
v -1.072916 2.831110 0.206337
v -1.101230 2.507768 0.220619
v -1.113032 2.664982 0.156577
v 0.130607 2.954219 1.138807
v 0.290817 2.867875 1.090565
v 0.130607 2.934236 1.090565
v -1.032440 2.664982 0.593881
v -1.044242 2.507768 0.529839
v -1.072736 2.442648 0.375229
v -0.029603 2.867875 1.090565
v -1.012697 2.831110 0.533089
v -1.042807 2.899922 0.369713
v -1.101230 2.822196 0.220619
v -1.110555 2.531385 0.246352
v -1.120584 2.664982 0.191930
v -1.044242 2.822196 0.529839
v -1.052098 2.664982 0.563542
v -1.062128 2.531385 0.509121
v -1.086341 2.476047 0.377736
v -1.072736 2.887316 0.375229
v -1.110555 2.798579 0.246352
v -1.092669 2.555001 0.267070
v -1.100926 2.664982 0.222269
v -1.062128 2.798579 0.509121
v -1.044546 2.664982 0.528188
v -1.052803 2.555002 0.483388
v -1.072736 2.509447 0.375229
v -1.086341 2.853917 0.377736
v -1.092669 2.774962 0.267070
v -1.068712 2.664982 0.229150
v -1.061124 2.563915 0.270320
v -1.052803 2.774962 0.483388
v -1.024489 2.563915 0.469106
v -1.016902 2.664982 0.510275
v -1.042807 2.522052 0.369713
v -1.072736 2.820518 0.375229
v -1.061124 2.766048 0.270320
v -1.024489 2.766048 0.469106
v -1.042807 2.807911 0.369713
v 0.011126 -0.020947 -0.352671
v 0.011126 0.737307 -0.386366
v 0.228168 0.727103 -0.297045
v 0.259062 -0.020947 -0.249973
v -0.236810 -0.020947 -0.249973
v 0.011126 1.249536 -0.123092
v 0.361761 -0.020947 -0.002037
v 0.259062 -0.020947 0.245899
v 0.011126 -0.020947 0.348598
v -0.236810 -0.020947 0.245899
v -0.339508 -0.020947 -0.002037
v 0.318069 0.702470 -0.081406
v -0.205915 0.727103 -0.297045
v 0.176334 1.227188 -0.058413
v -0.154082 1.227188 -0.058413
v 0.228168 0.677837 0.134233
v 0.011126 0.667633 0.223553
v -0.205915 0.677837 0.134233
v -0.295817 0.702470 -0.081406
v 0.011126 1.597474 0.085865
v -0.114574 1.609659 0.136486
v 0.244766 1.173234 0.097737
v -0.222513 1.173234 0.097737
v 0.136827 1.609659 0.136486
v -0.166641 1.639075 0.258696
v 0.176334 1.119281 0.253887
v 0.011126 1.096933 0.318566
v -0.154082 1.119281 0.253887
v 0.136827 1.668492 0.380906
v 0.011126 1.680677 0.431527
v 0.188894 1.639075 0.258696
v -0.114574 1.668492 0.380906
vn 0.7061 -0.6657 -0.2414
vn -0.0000 -0.8300 -0.5577
vn 0.4150 -0.7188 -0.5577
vn 0.5000 -0.8660 -0.0000
vn 0.7414 -0.6259 -0.2419
vn -0.5000 -0.8660 -0.0000
vn -0.4150 -0.7188 -0.5577
vn 0.3478 -0.7163 -0.6050
vn -0.2013 -0.6951 -0.6901
vn -0.6249 -0.6259 -0.4666
vn -0.7414 -0.6259 -0.2419
vn -0.0000 -0.5271 -0.8498
vn 0.2636 -0.4565 -0.8498
vn 0.7188 -0.4150 -0.5577
vn 0.8660 -0.5000 -0.0000
vn 0.4150 -0.7188 0.5577
vn -0.0000 -0.8300 0.5577
vn 0.7621 -0.6011 0.2408
vn 0.8424 -0.5365 -0.0503
vn -0.8424 -0.5365 -0.0503
vn -0.7578 -0.4476 0.4747
vn -0.2384 -0.4025 0.8839
vn 0.5347 -0.4766 0.6978
vn -0.4150 -0.7188 0.5577
vn -0.5442 -0.7450 -0.3858
vn -0.2636 -0.4565 -0.8498
vn 0.4565 -0.2636 -0.8498
vn -0.0000 -0.4993 -0.8665
vn 0.2496 -0.4324 -0.8665
vn 0.7188 -0.4150 0.5577
vn 0.8300 -0.0000 -0.5577
vn 1.0000 -0.0000 -0.0000
vn 0.2636 -0.4565 0.8498
vn -0.0000 -0.5271 0.8498
vn -0.3422 -0.9109 0.2304
vn -0.2636 -0.4565 0.8498
vn -0.4198 -0.8740 -0.2447
vn -0.7188 -0.4150 -0.5577
vn -0.4565 -0.2636 -0.8498
vn -0.2496 -0.4324 -0.8665
vn 0.5271 -0.0000 -0.8498
vn 0.4324 -0.2496 -0.8665
vn -0.0000 -0.4450 -0.8955
vn 0.8300 -0.0000 0.5577
vn 0.4565 -0.2636 0.8498
vn 0.7188 0.4150 -0.5577
vn 0.8660 0.5000 -0.0000
vn 0.2496 -0.4324 0.8665
vn -0.0000 -0.4993 0.8665
vn -0.7188 -0.4150 0.5577
vn -0.3634 -0.9210 0.1401
vn -0.2496 -0.4324 0.8665
vn -0.4565 -0.2636 0.8498
vn -0.4683 -0.7929 -0.3899
vn -0.4070 -0.9030 -0.1374
vn -0.6721 -0.4949 -0.5508
vn -0.8300 -0.0000 -0.5577
vn -0.5271 -0.0000 -0.8498
vn -0.4324 -0.2496 -0.8665
vn 0.4565 0.2636 -0.8498
vn 0.4993 -0.0000 -0.8665
vn 0.4163 -0.4163 -0.8084
vn 0.7188 0.4150 0.5577
vn 0.5271 -0.0000 0.8498
vn 0.4324 -0.2496 0.8665
vn 0.4150 0.7188 -0.5577
vn 0.5000 0.8660 -0.0000
vn -0.0000 -0.4450 0.8955
vn -0.4291 -0.8048 0.4101
vn -0.3759 -0.9265 -0.0183
vn -0.0000 -1.0000 -0.0000
vn -0.4324 -0.2496 0.8665
vn -0.5271 -0.0000 0.8498
vn -0.8300 -0.0000 0.5577
vn -0.0906 -0.8660 -0.4917
vn -0.7142 -0.1890 -0.6739
vn -0.7188 0.4150 -0.5577
vn -0.4565 0.2636 -0.8498
vn -0.4993 -0.0000 -0.8665
vn -0.4163 -0.4163 -0.8084
vn 0.2636 0.4565 -0.8498
vn 0.4324 0.2496 -0.8665
vn 0.5887 -0.0000 -0.8084
vn -0.0000 -0.7486 -0.6630
vn 0.5294 -0.5294 -0.6630
vn 0.4150 0.7188 0.5577
vn 0.4565 0.2636 0.8498
vn 0.4993 -0.0000 0.8665
vn 0.4163 -0.4163 0.8084
vn -0.0000 0.8300 -0.5577
vn -0.0000 1.0000 -0.0000
vn -0.5193 -0.5826 0.6252
vn -0.4733 -0.7188 0.5092
vn -0.5485 -0.8300 0.1011
vn -0.4163 -0.4163 0.8084
vn -0.4993 -0.0000 0.8665
vn -0.5278 -0.2175 0.8211
vn -0.4565 0.2636 0.8498
vn -0.7188 0.4150 0.5577
vn -0.6788 -0.4150 -0.6058
vn -0.6989 -0.0000 -0.7152
vn -0.6237 -0.7188 -0.3071
vn -0.7922 0.1890 -0.5802
vn -0.6721 0.4949 -0.5508
vn -0.4150 0.7188 -0.5577
vn -0.2636 0.4565 -0.8498
vn -0.4324 0.2496 -0.8665
vn -0.5887 -0.0000 -0.8084
vn -0.5294 -0.5294 -0.6630
vn -0.0000 0.5271 -0.8498
vn 0.2496 0.4324 -0.8665
vn 0.7486 -0.0000 -0.6630
vn -0.0000 -0.0949 -0.9955
vn 0.0671 -0.0671 -0.9955
vn -0.0000 0.8300 0.5577
vn 0.2636 0.4565 0.8498
vn 0.4324 0.2496 0.8665
vn 0.5887 -0.0000 0.8084
vn -0.5000 0.8660 -0.0000
vn 0.5294 -0.5294 0.6630
vn -0.0000 -0.7486 0.6630
vn -0.4182 -0.4150 0.8080
vn -0.5294 -0.5294 0.6630
vn -0.5887 -0.0000 0.8084
vn -0.4324 0.2496 0.8665
vn -0.7118 0.2175 0.6679
vn -0.5193 0.5826 0.6252
vn -0.2636 0.4565 0.8498
vn -0.4150 0.7188 0.5577
vn -0.9184 -0.2636 -0.2949
vn -0.9312 -0.0000 -0.3644
vn -0.6247 0.7118 -0.3211
vn -0.4310 0.8919 -0.1373
vn -0.2496 0.4324 -0.8665
vn -0.7486 -0.0000 -0.6630
vn -0.0671 -0.0671 -0.9955
vn -0.0000 0.4993 -0.8665
vn 0.4163 0.4163 -0.8084
vn 0.0949 -0.0000 -0.9955
vn 0.5294 0.5294 -0.6630
vn -0.0000 0.6530 -0.7574
vn -0.4617 0.4617 -0.7574
vn -0.0000 0.5271 0.8498
vn 0.2496 0.4324 0.8665
vn 0.7486 -0.0000 0.6630
vn 0.0671 -0.0671 0.9955
vn -0.0000 -0.0949 0.9955
vn -0.3980 -0.0000 0.9174
vn -0.7530 -0.2636 0.6030
vn -0.7879 -0.4565 0.4132
vn -0.8357 -0.5271 0.1540
vn -0.8835 -0.4565 -0.1052
vn -0.7486 -0.0000 0.6630
vn -0.0671 -0.0671 0.9955
vn -0.2496 0.4324 0.8665
vn -0.5399 0.7810 0.3141
vn -0.3881 0.9109 0.1400
vn -0.6788 0.4150 -0.6058
vn -0.9184 0.2636 -0.2949
vn -0.9305 -0.2496 -0.2682
vn -0.9426 -0.0000 -0.3339
vn -0.6237 0.7188 -0.3071
vn -0.4163 0.4163 -0.8084
vn -0.5294 0.5294 -0.6630
vn -0.0949 -0.0000 -0.9955
vn 0.4617 0.4617 -0.7574
vn -0.0000 0.4935 -0.8697
vn 0.0671 0.0671 -0.9955
vn -0.6530 -0.0000 -0.7574
vn -0.0000 0.7486 -0.6630
vn -0.4507 0.4507 -0.7706
vn -0.0000 0.6373 -0.7706
vn -0.0000 0.4993 0.8665
vn 0.4163 0.4163 0.8084
vn 0.5294 0.5294 0.6630
vn 0.0949 -0.0000 0.9955
vn -0.4070 0.9030 -0.1374
vn -0.4617 0.4617 0.7574
vn -0.0000 0.6530 0.7574
vn -0.7402 -0.0000 0.6724
vn -0.7737 -0.2496 0.5822
vn -0.8069 -0.4324 0.4025
vn -0.8521 -0.4993 0.1570
vn -0.8973 -0.4324 -0.0885
vn -0.4163 0.4163 0.8083
vn -0.5294 0.5294 0.6630
vn -0.0949 -0.0000 0.9955
vn 0.4617 0.4617 0.7574
vn -0.4182 0.4150 0.8080
vn -0.4733 0.7188 0.5092
vn -0.8835 0.4565 -0.1052
vn -0.9305 0.2496 -0.2682
vn -0.9017 -0.0000 -0.4324
vn -0.0671 0.0671 -0.9955
vn 0.6530 -0.0000 -0.7574
vn 0.4507 0.4507 -0.7706
vn -0.0000 0.0949 -0.9955
vn -0.4617 -0.4617 -0.7574
vn -0.6373 -0.0000 -0.7706
vn 0.4507 -0.4507 -0.7706
vn -0.0000 -0.6373 -0.7706
vn -0.4507 -0.4507 -0.7706
vn 0.6373 -0.0000 -0.7706
vn -0.3759 0.9265 -0.0183
vn -0.0000 0.4935 0.8697
vn -0.0000 0.7486 0.6630
vn 0.0671 0.0671 0.9955
vn -0.6530 -0.0000 0.7574
vn -0.4507 0.4507 0.7706
vn -0.0000 0.6373 0.7706
vn -0.7530 0.2636 0.6030
vn -0.7616 -0.0000 0.6480
vn -0.7195 -0.4163 0.5559
vn -0.8807 -0.4450 0.1623
vn -0.0671 0.0671 0.9955
vn 0.6530 -0.0000 0.7574
vn 0.4507 0.4507 0.7706
vn -0.7879 0.4565 0.4132
vn -0.8704 -0.4163 -0.2629
vn -0.5485 0.8300 0.1011
vn -0.8357 0.5271 0.1540
vn -0.8973 0.4324 -0.0885
vn 0.4617 -0.4617 -0.7574
vn -0.0000 -0.6530 -0.7574
vn -0.0000 0.0949 0.9955
vn -0.4617 -0.4617 0.7574
vn -0.6373 -0.0000 0.7706
vn -0.7737 0.2496 0.5822
vn -0.6883 -0.0000 0.7255
vn 0.4617 -0.4617 0.7574
vn 0.6373 -0.0000 0.7706
vn -0.8069 0.4324 0.4025
vn -0.8521 0.4993 0.1570
vn -0.8704 0.4163 -0.2629
vn -0.7480 -0.5294 -0.4004
vn -0.7877 -0.0000 -0.6161
vn -0.0000 -0.6530 0.7574
vn -0.4507 -0.4507 0.7706
vn -0.0000 -0.6373 0.7706
vn -0.5163 -0.0000 0.8564
vn -0.5561 -0.5294 0.6407
vn -0.6520 -0.7486 0.1202
vn 0.4507 -0.4507 0.7706
vn -0.7195 0.4163 0.5559
vn -0.8553 0.4935 0.1576
vn -0.7480 0.5294 -0.4004
vn -0.9912 -0.0671 0.1145
vn -0.9962 -0.0000 0.0871
vn -0.5561 0.5294 0.6408
vn -0.9618 -0.0000 0.2737
vn -0.9668 -0.0671 0.2464
vn -0.9790 -0.0949 0.1804
vn -0.6520 0.7486 0.1202
vn -0.9912 0.0671 0.1145
vn -0.6611 0.4617 0.5914
vn -0.6265 -0.0000 0.7794
vn -0.9668 0.0671 0.2464
vn -0.8632 -0.0000 -0.5049
vn -0.8285 0.4617 -0.3168
vn -0.7448 0.6530 0.1373
vn -0.9790 0.0949 0.1804
vn -0.6611 -0.4617 0.5914
vn -0.6423 -0.0000 0.7664
vn -0.6761 0.4507 0.5829
vn -0.8285 -0.4617 -0.3168
vn -0.8395 0.4507 -0.3035
vn -0.8733 -0.0000 -0.4871
vn -0.7578 0.6373 0.1397
vn -0.7448 -0.6530 0.1373
vn -0.6761 -0.4507 0.5829
vn -0.8395 -0.4507 -0.3035
vn -0.7578 -0.6373 0.1397
vn -0.0000 -0.6469 -0.7626
vn -0.0000 0.2090 -0.9779
vn 0.6824 0.1801 -0.7085
vn 0.5551 -0.6355 -0.5367
vn -0.5551 -0.6355 -0.5367
vn -0.0000 0.4790 -0.8778
vn 0.7951 -0.6061 0.0230
vn 0.5646 -0.5750 0.5921
vn -0.0000 -0.5618 0.8273
vn -0.5646 -0.5750 0.5921
vn -0.7951 -0.6061 0.0230
vn 0.9935 0.1070 -0.0396
vn -0.6824 0.1801 -0.7085
vn 0.6757 0.3807 -0.6312
vn -0.6757 0.3807 -0.6312
vn 0.7345 0.0240 0.6782
vn -0.0000 -0.0154 0.9999
vn -0.7345 0.0240 0.6782
vn -0.9935 0.1070 -0.0396
vn -0.0000 0.2086 -0.9780
vn -0.7386 0.1530 -0.6565
vn 0.9910 0.1311 0.0283
vn -0.9910 0.1311 0.0283
vn 0.7386 0.1530 -0.6565
vn -0.9952 0.0694 0.0685
vn 0.6960 -0.1121 0.7093
vn -0.0000 -0.2054 0.9787
vn -0.6960 -0.1121 0.7093
vn 0.6780 0.0543 0.7331
vn -0.0000 0.0636 0.9980
vn 0.9952 0.0694 0.0685
vn -0.6780 0.0543 0.7331
vt 0.250405 0.010842
vt 0.380788 0.010842
vt 0.380788 0.076377
vt 0.249000 0.076377
vt 0.249000 0.011541
vt 0.254838 0.013009
vt 0.262626 0.032746
vt 0.256543 0.051996
vt 0.249000 0.055752
vt 0.389634 0.146065
vt 0.389634 0.193483
vt 0.380788 0.255421
vt 0.249000 0.255421
vt 0.117212 0.076376
vt 0.117212 0.010842
vt 0.223636 0.010842
vt 0.237867 0.017085
vt 0.240218 0.060125
vt 0.222658 0.052421
vt 0.214060 0.032746
vt 0.220036 0.012562
vt 0.249000 0.189274
vt 0.260704 0.203557
vt 0.269578 0.250525
vt 0.270503 0.255421
vt 0.380788 0.255422
vt 0.389634 0.323033
vt 0.402863 0.190479
vt 0.402863 0.231947
vt 0.117212 0.255421
vt 0.380788 0.500000
vt 0.249000 0.500000
vt 0.108366 0.193483
vt 0.108366 0.146065
vt 0.198907 0.193134
vt 0.226828 0.162215
vt 0.175358 0.255421
vt 0.189495 0.203557
vt 0.402863 0.231947
vt 0.389634 0.500000
vt 0.402863 0.345239
vt 0.117212 0.500000
vt 0.108366 0.323032
vt 0.380788 0.744579
vt 0.249000 0.744579
vt 0.095138 0.231946
vt 0.095138 0.190478
vt 0.108366 0.323033
vt 0.283914 0.316505
vt 0.291725 0.470795
vt 0.289592 0.500000
vt 0.380788 0.500000
vt 0.389634 0.500000
vt 0.402863 0.500000
vt 0.402863 0.654761
vt 0.402863 0.768053
vt 0.402863 0.809521
vt 0.402863 0.754818
vt 0.402863 0.680184
vt 0.402863 0.500000
vt 0.402863 0.319816
vt 0.402863 0.245181
vt 0.389634 0.676968
vt 0.117212 0.744579
vt 0.108366 0.500000
vt 0.095138 0.345239
vt 0.380788 0.923623
vt 0.249000 0.923623
vt 0.095138 0.500000
vt 0.095138 0.654761
vt 0.095138 0.768053
vt 0.095138 0.754818
vt 0.095138 0.680184
vt 0.095138 0.499999
vt 0.095138 0.319816
vt 0.095138 0.245181
vt 0.175158 0.203557
vt 0.209592 0.162215
vt 0.224661 0.162215
vt 0.095138 0.680183
vt 0.095138 0.809521
vt 0.095138 0.345239
vt 0.259095 0.203557
vt 0.244027 0.203557
vt 0.269235 0.316505
vt 0.380788 0.744579
vt 0.389634 0.806517
vt 0.402863 0.680184
vt 0.410354 0.258854
vt 0.410354 0.329484
vt 0.117212 0.923623
vt 0.108366 0.676967
vt 0.380788 0.989158
vt 0.249000 0.989158
vt 0.278462 0.470795
vt 0.389634 0.853935
vt 0.410354 0.500000
vt 0.413759 0.295079
vt 0.413759 0.355099
vt 0.117212 0.989158
vt 0.108366 0.806516
vt 0.087647 0.329483
vt 0.087647 0.258854
vt 0.149950 0.316505
vt 0.160577 0.316505
vt 0.087647 0.329484
vt 0.149308 0.470795
vt 0.150786 0.500000
vt 0.192963 0.744579
vt 0.187252 0.738034
vt 0.159922 0.625085
vt 0.251736 0.359157
vt 0.258412 0.470795
vt 0.269235 0.625085
vt 0.283260 0.625085
vt 0.258461 0.738034
vt 0.252897 0.744579
vt 0.249000 0.749335
vt 0.413759 0.500000
vt 0.410353 0.670516
vt 0.410354 0.331304
vt 0.410354 0.380714
vt 0.108366 0.853935
vt 0.087647 0.499999
vt 0.084241 0.355099
vt 0.084241 0.295079
vt 0.140723 0.470795
vt 0.165426 0.359157
vt 0.183665 0.277433
vt 0.208581 0.247519
vt 0.233497 0.277432
vt 0.149950 0.625085
vt 0.224385 0.779374
vt 0.251736 0.582433
vt 0.244808 0.373166
vt 0.250647 0.470795
vt 0.244027 0.738034
vt 0.410353 0.670515
vt 0.410354 0.380714
vt 0.413759 0.644901
vt 0.410353 0.741146
vt 0.402863 0.390382
vt 0.402863 0.344977
vt 0.087647 0.670516
vt 0.084241 0.499999
vt 0.087647 0.380714
vt 0.087647 0.331304
vt 0.158750 0.470795
vt 0.169329 0.373166
vt 0.185280 0.301697
vt 0.207069 0.275537
vt 0.228858 0.301697
vt 0.087647 0.670515
vt 0.175158 0.738034
vt 0.233497 0.664158
vt 0.244808 0.568424
vt 0.207069 0.310046
vt 0.232437 0.357128
vt 0.242945 0.470795
vt 0.232437 0.584462
vt 0.207069 0.631544
vt 0.228858 0.639894
vt 0.209592 0.779374
vt 0.413759 0.704921
vt 0.410353 0.619286
vt 0.402863 0.609618
vt 0.402863 0.655023
vt 0.402863 0.609618
vt 0.087647 0.741145
vt 0.084241 0.644901
vt 0.095138 0.390382
vt 0.095138 0.344976
vt 0.165426 0.582433
vt 0.163491 0.470795
vt 0.169329 0.568424
vt 0.185280 0.639894
vt 0.207069 0.666053
vt 0.181700 0.584462
vt 0.171192 0.470795
vt 0.181700 0.357128
vt 0.183666 0.664158
vt 0.208581 0.694071
vt 0.410353 0.668696
vt 0.084241 0.704921
vt 0.087647 0.619285
vt 0.095138 0.609618
vt 0.095138 0.655023
vt 0.230219 0.363227
vt 0.240164 0.470795
vt 0.087647 0.668695
vt 0.172261 0.470795
vt 0.182205 0.363227
vt 0.206212 0.318671
vt 0.230219 0.578363
vt 0.226224 0.379386
vt 0.234674 0.470795
vt 0.182205 0.578363
vt 0.176972 0.470795
vt 0.185422 0.379386
vt 0.205823 0.341523
vt 0.206212 0.622919
vt 0.226224 0.562204
vt 0.223007 0.395545
vt 0.229963 0.470795
vt 0.185422 0.562204
vt 0.182461 0.470795
vt 0.189418 0.395545
vt 0.206212 0.364375
vt 0.205823 0.600067
vt 0.223007 0.546045
vt 0.228895 0.470795
vt 0.222502 0.401644
vt 0.189418 0.546045
vt 0.191635 0.401644
vt 0.185243 0.470795
vt 0.207069 0.373001
vt 0.206212 0.577215
vt 0.222502 0.539946
vt 0.191635 0.539946
vt 0.207069 0.568589
vt 0.888866 0.381408
vt 0.862801 0.376877
vt 0.849065 0.044641
vt 0.879034 0.044641
vt 0.812040 0.608907
vt 0.793166 0.598982
vt 0.776715 0.044641
vt 0.704364 0.044641
vt 0.674396 0.044641
vt 0.799876 0.365936
vt 0.736950 0.354996
vt 0.710885 0.350464
vt 0.747600 0.575019
vt 0.751064 0.763439
vt 0.736292 0.768851
vt 0.702034 0.551057
vt 0.700630 0.781915
vt 0.683159 0.541131
vt 0.758008 0.940401
vt 0.772643 0.953212
vt 0.761211 0.965708
vt 0.730532 0.970984
vt 0.747036 0.968145
vt 0.664968 0.794981
vt 0.650196 0.800392
vt 0.749677 0.938994
vt 0.747036 0.939448
vt 0.726113 0.943046
vt 0.697531 0.965984
vt 0.699369 0.938994
vt 0.692604 0.940111
vt 0.681373 0.953212
s 1
usemtl Texture
f 1/1/1 2/2/2 3/3/3 4/4/4 5/5/5
f 6/4/6 7/3/7 2/2/2 1/1/1 8/6/8 9/7/9 10/8/10 11/9/11
f 3/3/3 2/2/2 12/10/12 13/11/13
f 4/4/4 3/3/3 14/12/14 15/13/15
f 5/5/5 4/4/4 16/14/16 17/15/17 18/16/18 19/17/19
f 6/4/6 11/9/11 20/18/20 21/19/21 22/20/22 23/21/23 18/16/18 17/15/17 24/14/24
f 7/3/7 6/4/6 55/22/55 37/23/37 54/24/54 25/25/25 38/26/38
f 2/2/2 7/3/7 26/11/26 12/10/12
f 14/12/14 3/3/3 13/11/13 27/27/27
f 13/11/13 12/10/12 28/28/28 29/29/29
f 4/4/4 15/13/15 30/30/30 16/14/16
f 15/13/15 14/12/14 31/31/31 32/32/32
f 16/14/16 33/33/33 34/34/34 17/15/17
f 51/35/51 70/36/70 55/22/55 6/4/6 24/14/24 50/30/50 69/37/69 35/38/35
f 17/15/17 34/34/34 36/33/36 24/14/24
f 7/3/7 38/26/38 39/27/39 26/11/26
f 12/10/12 26/11/26 40/39/40 28/28/28
f 31/31/31 14/12/14 27/27/27 41/40/41
f 27/27/27 13/11/13 29/29/29 42/41/42
f 15/13/15 32/32/32 44/42/44 30/30/30
f 30/30/30 45/43/45 33/33/33 16/14/16
f 32/32/32 31/31/31 46/44/46 47/45/47
f 33/33/33 48/46/48 49/47/49 34/34/34
f 34/34/34 49/47/49 52/46/52 36/33/36
f 24/14/24 36/33/36 53/48/53 50/30/50
f 25/25/25 56/49/56 76/50/76 103/51/103 57/52/57 38/26/38
f 38/26/38 57/52/57 58/53/58 39/27/39
f 26/11/26 39/27/39 59/41/59 40/39/40
f 28/28/28 40/39/40 59/41/59 79/54/79 107/55/107 134/56/134 137/57/137 111/56/111 167/58/167 163/59/163 108/60/108 80/61/80 43/62/43
f 46/44/46 31/31/31 41/40/41 60/63/60
f 41/40/41 27/27/27 42/41/42 61/60/61
f 32/32/32 47/45/47 63/64/63 44/42/44
f 44/42/44 64/65/64 45/43/45 30/30/30
f 45/43/45 65/66/65 48/46/48 33/33/33
f 47/45/47 46/44/46 66/67/66 67/68/67
f 49/47/49 48/46/48 65/66/65 88/69/88 117/70/117 144/71/144 205/72/205 174/73/174 118/74/118 89/75/89 68/76/68
f 51/35/51 35/38/35 93/77/93 94/78/94 71/79/71
f 49/47/49 68/76/68 95/75/95 124/74/124 185/80/185 205/72/205 144/71/144 173/81/173 155/71/155 125/70/125 96/69/96 72/82/72 52/46/52
f 36/33/36 52/46/52 72/82/72 53/48/53
f 50/30/50 53/48/53 73/65/73 74/42/74
f 54/24/54 75/83/75 102/84/102 100/85/100 56/49/56 25/25/25
f 37/23/37 75/83/75 54/24/54
f 37/23/37 55/22/55 70/36/70 71/79/71 75/83/75
f 57/52/57 77/86/77 78/63/78 58/53/58
f 39/27/39 58/53/58 79/54/79 59/41/59
f 66/67/66 46/44/46 60/63/60 81/87/81
f 60/63/60 41/40/41 61/60/61 82/55/82
f 61/60/61 42/41/42 29/29/29 28/28/28 43/62/43 62/61/62 83/60/83 138/88/138 167/58/167 111/56/111 82/55/82
f 43/62/43 84/89/84 85/90/85 62/61/62
f 47/45/47 67/68/67 86/91/86 63/64/63
f 63/64/63 87/92/87 64/65/64 44/42/44
f 64/65/64 88/69/88 65/66/65 45/43/45
f 67/68/67 66/67/66 90/93/90 91/94/91
f 51/35/51 71/79/71 70/36/70
f 53/48/53 72/82/72 96/69/96 73/65/73
f 74/42/74 73/65/73 98/92/98 99/64/99
f 56/49/56 100/85/100 101/95/101 76/50/76
f 77/86/77 105/67/105 106/87/106 78/63/78
f 58/53/58 78/63/78 107/55/107 79/54/79
f 80/61/80 109/90/109 84/89/84 43/62/43
f 90/93/90 66/67/66 81/87/81 110/96/110
f 81/87/81 60/63/60 82/55/82 111/56/111
f 62/61/62 85/90/85 112/97/112 83/60/83
f 85/90/85 84/89/84 113/98/113 114/99/114
f 67/68/67 91/94/91 115/100/115 86/91/86
f 86/91/86 116/101/116 87/92/87 63/64/63
f 87/92/87 117/70/117 88/69/88 64/65/64
f 91/94/91 90/93/90 105/67/105 119/68/119
f 68/76/68 89/75/89 120/102/120 121/103/121
f 122/104/122 93/77/93 35/38/35 69/37/69 92/105/92
f 71/79/71 94/78/94 102/84/102 75/83/75
f 95/75/95 68/76/68 121/103/121 123/106/123
f 73/65/73 96/69/96 125/70/125 98/92/98
f 97/107/97 92/105/92 69/37/69 50/30/50 74/42/74 126/108/126
f 74/42/74 99/64/99 157/109/157 156/110/156 127/111/127 126/108/126
f 99/64/99 98/92/98 128/101/128 129/91/129
f 101/95/101 100/85/100 130/112/130 131/113/131
f 101/95/101 158/114/158 104/115/104 103/51/103 76/50/76
f 103/51/103 104/115/104 132/116/132 133/117/133 77/86/77 57/52/57
f 77/86/77 133/117/133 177/118/177 119/68/119 105/67/105
f 105/67/105 90/93/90 110/96/110 106/87/106
f 78/63/78 106/87/106 134/56/134 107/55/107
f 108/60/108 135/97/135 109/90/109 80/61/80
f 84/89/84 109/90/109 136/99/136 113/98/113
f 110/96/110 81/87/81 111/56/111 137/57/137
f 112/97/112 85/90/85 114/99/114 139/119/139
f 83/60/83 112/97/112 140/120/140 138/88/138
f 114/99/114 113/98/113 141/121/141 142/122/142
f 91/94/91 119/68/119 129/91/129 115/100/115
f 115/100/115 143/123/143 116/101/116 86/91/86
f 116/101/116 144/71/144 117/70/117 87/92/87
f 89/75/89 118/74/118 145/124/145 120/102/120
f 120/102/120 146/125/146 147/126/147 121/103/121
f 97/107/97 148/127/148 122/104/122 92/105/92
f 93/77/93 122/104/122 149/128/149 150/129/150
f 94/78/94 93/77/93 150/129/150 151/130/151
f 102/84/102 94/78/94 151/130/151 152/131/152
f 124/74/124 95/75/95 123/106/123 153/124/153
f 121/103/121 147/126/147 154/125/154 123/106/123
f 98/92/98 125/70/125 155/71/155 128/101/128
f 97/107/97 126/108/126 127/111/127 189/132/189 148/127/148
f 129/91/129 119/68/119 177/118/177 204/133/204 157/109/157 99/64/99
f 129/91/129 128/101/128 143/123/143 115/100/115
f 100/85/100 102/84/102 152/131/152 130/112/130
f 158/114/158 101/95/101 131/113/131 159/134/159
f 131/113/131 130/112/130 160/135/160 161/136/161
f 104/115/104 158/114/158 162/137/162 132/116/132
f 106/87/106 110/96/110 137/57/137 134/56/134
f 163/59/163 164/138/164 135/97/135 108/60/108
f 109/90/109 135/97/135 165/119/165 136/99/136
f 113/98/113 136/99/136 166/139/166 141/121/141
f 140/120/140 112/97/112 139/119/139 168/140/168
f 139/119/139 114/99/114 142/122/142 169/97/169
f 138/88/138 140/120/140 170/141/170 167/58/167
f 171/142/171 142/122/142 141/121/141 172/143/172
f 143/123/143 173/81/173 144/71/144 116/101/116
f 118/74/118 174/73/174 175/144/175 145/124/145
f 145/124/145 176/145/176 146/125/146 120/102/120
f 146/125/146 178/146/178 179/147/179 147/126/147
f 122/104/122 148/127/148 180/148/180 149/128/149
f 150/129/150 149/128/149 181/149/181 182/150/182
f 151/130/151 150/129/150 182/150/182 183/151/183
f 152/131/152 151/130/151 183/151/183 184/152/184
f 185/80/185 124/74/124 153/124/153 186/153/186
f 123/106/123 154/125/154 187/145/187 153/124/153
f 147/126/147 179/147/179 188/146/188 154/125/154
f 128/101/128 155/71/155 173/81/173 143/123/143
f 156/110/156 190/154/190 189/132/189 127/111/127
f 130/112/130 152/131/152 184/152/184 160/135/160
f 162/137/162 158/114/158 159/134/159 191/155/191
f 159/134/159 131/113/131 161/136/161 192/156/192
f 161/136/161 160/135/160 184/152/184 183/151/183 214/157/214 219/158/219 193/159/193 234/160/234 245/161/245 222/162/222 192/156/192
f 132/116/132 162/137/162 220/163/220 204/133/204 177/118/177 133/117/133
f 167/58/167 170/141/170 164/138/164 163/59/163
f 135/97/135 164/138/164 194/140/194 165/119/165
f 136/99/136 165/119/165 195/97/195 166/139/166
f 172/143/172 141/121/141 166/139/166 196/142/196
f 170/141/170 140/120/140 168/140/168 197/164/197
f 168/140/168 139/119/139 169/97/169 198/165/198
f 199/60/199 169/97/169 142/122/142 171/142/171
f 200/166/200 201/167/201 202/168/202 199/60/199 171/142/171 172/143/172 196/142/196 203/60/203
f 174/73/174 205/72/205 206/169/206 175/144/175
f 175/144/175 207/170/207 176/145/176 145/124/145
f 176/145/176 208/124/208 178/146/178 146/125/146
f 209/171/209 210/172/210 179/147/179 178/146/178
f 148/127/148 189/132/189 211/173/211 180/148/180
f 149/128/149 180/148/180 212/174/212 181/149/181
f 228/175/228 232/176/232 233/177/233 222/162/222 245/161/245 244/178/244 229/179/229 213/180/213 214/157/214 183/151/183 182/150/182 181/149/181 212/174/212
f 205/72/205 185/80/185 186/153/186 206/169/206
f 153/124/153 187/145/187 215/170/215 186/153/186
f 154/125/154 188/146/188 216/124/216 187/145/187
f 210/172/210 217/171/217 188/146/188 179/147/179
f 156/110/156 157/109/157 204/133/204 220/163/220 190/154/190
f 189/132/189 190/154/190 218/181/218 211/173/211
f 220/163/220 162/137/162 191/155/191 221/182/221
f 191/155/191 159/134/159 192/156/192 222/162/222
f 164/138/164 170/141/170 197/164/197 194/140/194
f 165/119/165 194/140/194 223/165/223 195/97/195
f 196/142/196 166/139/166 195/97/195 203/60/203
f 197/164/197 168/140/168 198/165/198 224/183/224
f 202/168/202 198/165/198 169/97/169 199/60/199
f 203/60/203 195/97/195 223/165/223 200/166/200
f 200/166/200 223/165/223 224/183/224 201/167/201
f 201/167/201 224/183/224 198/165/198 202/168/202
f 206/169/206 225/184/225 207/170/207 175/144/175
f 207/170/207 226/185/226 208/124/208 176/145/176
f 227/74/227 209/171/209 178/146/178 208/124/208
f 238/186/238 239/187/239 243/186/243 231/74/231 217/171/217 210/172/210 209/171/209 227/74/227
f 180/148/180 211/173/211 228/175/228 212/174/212
f 186/153/186 215/170/215 225/184/225 206/169/206
f 187/145/187 216/124/216 230/185/230 215/170/215
f 217/171/217 231/74/231 216/124/216 188/146/188
f 190/154/190 220/163/220 221/182/221 218/181/218
f 211/173/211 218/181/218 232/176/232 228/175/228
f 221/182/221 191/155/191 222/162/222 233/177/233
f 219/158/219 235/188/235 236/189/236 193/159/193
f 194/140/194 197/164/197 224/183/224 223/165/223
f 225/184/225 237/190/237 226/185/226 207/170/207
f 238/186/238 227/74/227 208/124/208 226/185/226
f 229/179/229 240/191/240 241/192/241 213/180/213
f 213/180/213 241/192/241 242/193/242 214/157/214
f 214/157/214 242/193/242 235/188/235 219/158/219
f 215/170/215 230/185/230 237/190/237 225/184/225
f 231/74/231 243/186/243 230/185/230 216/124/216
f 218/181/218 221/182/221 233/177/233 232/176/232
f 193/159/193 236/189/236 246/194/246 234/160/234
f 236/189/236 235/188/235 247/195/247 248/196/248
f 239/187/239 238/186/238 226/185/226 237/190/237
f 244/178/244 249/197/249 240/191/240 229/179/229
f 241/192/241 240/191/240 250/198/250 251/199/251
f 242/193/242 241/192/241 251/199/251 252/200/252
f 235/188/235 242/193/242 252/200/252 247/195/247
f 243/186/243 239/187/239 237/190/237 230/185/230
f 234/160/234 246/194/246 253/201/253 245/161/245
f 246/194/246 236/189/236 248/196/248 254/202/254
f 248/196/248 247/195/247 255/203/255 256/204/256
f 245/161/245 253/201/253 249/197/249 244/178/244
f 240/191/240 249/197/249 257/205/257 250/198/250
f 251/199/251 250/198/250 258/206/258 259/207/259
f 252/200/252 251/199/251 259/207/259 260/208/260
f 247/195/247 252/200/252 260/208/260 255/203/255
f 253/201/253 246/194/246 254/202/254 261/209/261
f 254/202/254 248/196/248 256/204/256 262/210/262
f 263/211/263 256/204/256 255/203/255 264/212/264
f 249/197/249 253/201/253 261/209/261 257/205/257
f 250/198/250 257/205/257 265/213/265 258/206/258
f 266/214/266 259/207/259 258/206/258 267/215/267
f 268/216/268 260/208/260 259/207/259 266/214/266
f 264/212/264 255/203/255 260/208/260 268/216/268
f 261/209/261 254/202/254 262/210/262 269/217/269
f 270/218/270 262/210/262 256/204/256 263/211/263
f 257/205/257 261/209/261 269/217/269 265/213/265
f 267/215/267 258/206/258 265/213/265 271/219/271
f 267/215/267 271/219/271 272/220/272 270/218/270 263/211/263 264/212/264 268/216/268 266/214/266
f 272/220/272 269/217/269 262/210/262 270/218/270
f 271/219/271 265/213/265 269/217/269 272/220/272
f 274/221/274 275/222/275 276/223/276 273/224/273
f 273/224/273 277/223/277 285/222/285 274/221/274
f 274/221/274 278/225/278 286/226/286 275/222/275
f 273/224/273 276/223/276 279/227/279 280/228/280 281/229/281 282/228/282 283/227/283 277/223/277
f 276/223/276 275/222/275 284/230/284 279/227/279
f 278/225/278 274/221/274 285/222/285 287/226/287
f 280/228/280 279/227/279 284/230/284 288/231/288
f 281/229/281 280/228/280 288/231/288 289/232/289
f 282/228/282 281/229/281 289/232/289 290/231/290
f 283/227/283 282/228/282 290/231/290 291/230/291
f 277/223/277 283/227/283 291/230/291 285/222/285
f 275/222/275 286/226/286 294/233/294 284/230/284
f 278/225/278 292/234/292 296/235/296 286/226/286
f 287/226/287 293/235/293 292/234/292 278/225/278
f 284/230/284 294/233/294 298/236/298 288/231/288
f 287/226/287 285/222/285 291/230/291 295/233/295
f 293/235/293 287/226/287 295/233/295 297/237/297
f 289/232/289 288/231/288 298/236/298 299/238/299
f 290/231/290 289/232/289 299/238/299 300/236/300
f 290/231/290 300/236/300 295/233/295 291/230/291
f 286/226/286 296/235/296 303/237/303 294/233/294
f 8/239/8 296/235/296 292/234/292 9/240/9
f 9/240/9 292/234/292 293/235/293 10/241/10
f 293/235/293 297/237/297 20/242/20 11/243/11 10/241/10
f 298/236/298 301/244/301 302/245/302 299/238/299
f 299/238/299 302/245/302 304/244/304 300/236/300
f 294/233/294 303/237/303 301/244/301 298/236/298
f 297/237/297 295/233/295 300/236/300 304/244/304
f 303/237/303 296/235/296 8/239/8 1/246/1 5/247/5 19/248/19
f 20/242/20 297/237/297 304/244/304 21/249/21
f 301/244/301 303/237/303 19/248/19 18/250/18 23/251/23
f 21/249/21 304/244/304 302/245/302 22/252/22
f 22/252/22 302/245/302 301/244/301 23/251/23
