# Blender 5.0.0
# www.blender.org
mtllib Tree.mtl
o Tree
v 0.000000 -0.017191 -0.335664
v 0.000000 0.734558 -0.257643
v 0.167832 0.723784 -0.213982
v 0.167832 -0.017191 -0.290693
v 0.290693 -0.017191 -0.167832
v 0.335664 -0.017191 0.000000
v 0.290693 -0.017191 0.167832
v 0.167832 -0.017191 0.290693
v 0.000000 -0.017191 0.335664
v -0.167832 -0.017191 0.290693
v -0.290693 -0.017191 0.167832
v -0.335664 -0.017191 0.000000
v -0.290693 -0.017191 -0.167832
v -0.167832 -0.017191 -0.290693
v -0.167832 0.723784 -0.213982
v 0.000000 1.139754 -0.104446
v 0.142005 1.130637 -0.067504
v 0.290693 0.694347 -0.094699
v 0.335664 0.654136 0.068244
v 0.290693 0.613926 0.231188
v 0.167832 0.584489 0.350471
v 0.000000 0.573715 0.394131
v -0.167832 0.584489 0.350471
v -0.290693 0.613926 0.231188
v -0.335664 0.654136 0.068244
v -0.290693 0.694347 -0.094699
v -0.142005 1.130637 -0.067504
v 0.245960 1.105731 0.033423
v 0.000000 1.355966 -0.064847
v 0.284010 1.071707 0.171292
v -0.245960 1.105730 0.033423
v -0.124126 1.363846 -0.032535
v 0.124126 1.363846 -0.032535
v 0.245960 1.037684 0.309161
v 0.214993 1.385375 0.055745
v 0.142005 1.012778 0.410088
v 0.000000 1.003661 0.447029
v -0.142005 1.012778 0.410088
v -0.245960 1.037684 0.309161
v -0.284010 1.071707 0.171292
v -0.214993 1.385375 0.055745
v -0.000000 1.864715 -0.147152
v 0.104534 1.868175 -0.119357
v -0.104534 1.868175 -0.119356
v 0.248253 1.414783 0.176337
v 0.214993 1.444192 0.296930
v 0.124126 1.465720 0.385209
v 0.000000 1.473600 0.417522
v -0.124126 1.465720 0.385209
v -0.214993 1.444192 0.296930
v -0.248253 1.414783 0.176337
v -0.181058 1.877628 -0.043418
v 0.092760 2.105285 -0.128322
v 0.000000 2.080570 -0.152455
v -0.092760 2.105285 -0.128322
v 0.181058 1.877628 -0.043418
v -0.209068 1.890541 0.060315
v 0.159846 2.123159 -0.061641
v -0.159846 2.123160 -0.061641
v 0.209068 1.890541 0.060315
v 0.181058 1.903454 0.164049
v 0.104534 1.912906 0.239987
v -0.000000 1.916366 0.267782
v -0.104534 1.912906 0.239987
v -0.181058 1.903454 0.164049
v -0.185045 2.129874 0.030523
v -0.176699 2.127650 -0.000000
v 0.176699 2.127650 -0.000000
v 0.185045 2.129874 0.030523
v -0.161795 2.123679 0.125428
v 0.161795 2.123679 0.125427
v 0.094747 2.105815 0.198891
v 0.000000 2.080570 0.230524
v -0.094747 2.105815 0.198891
v -0.000000 2.080570 -1.097756
v 0.312099 2.163726 -1.097755
v 0.312099 2.163726 -0.000000
v -0.312100 2.163726 -0.000000
v -0.312100 2.163726 -1.097755
v 0.250641 2.267127 -1.144003
v 0.540572 2.390909 -1.097755
v 0.540572 2.390910 -0.285584
v 0.512868 2.363363 -0.234304
v 0.487467 2.338105 -0.187288
v 0.450870 2.301713 -0.000000
v 0.312099 2.163726 1.097755
v -0.000000 2.080570 1.097755
v -0.312100 2.163726 1.097755
v -0.540572 2.390910 -0.280070
v -0.540572 2.390910 -1.097755
v -0.352142 2.203542 -0.000000
v -0.369743 2.221044 -0.090323
v -0.479414 2.330097 -0.250738
v -0.000000 2.199968 -1.144003
v 0.434123 2.450608 -1.144003
v 0.430970 2.281926 0.101837
v 0.487467 2.338104 0.316908
v 0.540572 2.390910 0.345598
v 0.540572 2.390910 1.097756
v 0.567702 2.491588 -0.424419
v 0.526792 2.338105 -0.213059
v 0.642368 2.281926 -0.036707
v 0.250641 2.267127 1.144003
v -0.329600 2.181128 0.115674
v -0.000000 2.199967 1.144003
v -0.781246 2.203686 -0.323552
v -0.624199 2.701250 -0.240602
v -0.624199 2.701250 -1.097755
v -0.570909 2.503491 -0.308520
v -0.622174 2.693734 -0.248781
v -0.250641 2.267127 -1.144003
v -0.754824 2.059767 -0.183219
v -0.000000 2.262872 -1.251614
v 0.219189 2.321603 -1.251614
v 0.379647 2.482060 -1.251614
v 0.757944 2.338104 0.139646
v 0.624199 2.701249 0.479396
v 0.624199 2.701249 1.097755
v 0.567702 2.491588 0.448873
v 0.434123 2.450608 1.144003
v 0.501282 2.701249 -1.144003
v 0.624199 2.701249 -0.528995
v -0.369743 2.221044 0.312055
v -0.250641 2.267127 1.144003
v -0.846141 2.388220 -0.374917
v -0.932119 2.563925 -0.323551
v -0.540572 3.011589 0.000000
v -0.540572 3.011589 -1.097755
v -0.579663 2.866523 -0.077923
v -0.573276 2.890225 0.000000
v -0.434123 2.450608 -1.144003
v -0.773955 1.995026 0.008479
v -0.853013 2.214355 -0.268743
v -0.219189 2.321603 -1.251614
v 0.000000 2.340347 -1.251614
v 0.255196 2.446053 -1.251614
v 0.360902 2.701249 -1.251614
v 0.255196 2.956446 -1.251614
v 0.000000 3.062151 -1.251614
v 0.219189 3.080896 -1.251614
v 0.379647 2.920438 -1.251614
v 0.438378 2.701249 -1.251614
v 1.118254 2.281926 -0.348588
v 1.233830 2.338105 -0.172236
v 0.842551 2.491588 0.268745
v 0.873520 2.701249 0.315998
v 0.540572 3.011589 0.550988
v 0.540572 3.011589 1.097755
v 0.567702 2.910911 0.448873
v 0.563498 2.926510 0.432872
v 0.558225 2.946079 0.451788
v 0.556948 2.950816 0.475207
v 0.549566 2.978211 0.534887
v 0.501282 2.701249 1.144003
v 0.624199 2.701249 -1.097755
v 1.002677 2.338105 -0.524941
v 0.918070 2.491588 -0.654040
v 0.219189 2.321603 1.251614
v -0.000000 2.262871 1.251614
v 0.379647 2.482060 1.251614
v -0.479414 2.330097 0.446201
v -0.833512 2.026811 0.200176
v -0.540572 2.390910 1.097756
v -0.219189 2.321603 1.251614
v -0.905472 2.363372 -0.309994
v -1.016144 2.683718 -0.183219
v -0.562432 2.930468 0.132299
v -0.579663 2.866523 0.324455
v -0.624199 2.701250 0.440441
v -0.624199 2.701250 1.097755
v -0.540572 3.011589 1.097755
v -0.312099 3.238773 0.000000
v -0.312099 3.238773 -1.097756
v -0.501282 2.701250 -1.144003
v -0.974863 2.505296 -0.268743
v -0.379647 2.482060 -1.251614
v -0.831542 2.098176 -0.156045
v -0.360902 2.701249 -1.251614
v -0.255196 2.446053 -1.251614
v -0.438378 2.701250 -1.251614
v -0.379646 2.920439 -1.251614
v -0.219189 3.080896 -1.251614
v 0.000000 3.139628 -1.251614
v -0.255196 2.956445 -1.251614
v 0.000000 2.359712 -1.312550
v 0.241504 2.459746 -1.312550
v 0.341538 2.701249 -1.312550
v 0.241503 2.942753 -1.312550
v 0.000000 3.042787 -1.312550
v 0.250641 3.135372 -1.144003
v 0.434123 2.951890 -1.144003
v 1.231119 2.407961 -0.220102
v 1.318437 2.491588 -0.043137
v 1.349406 2.701249 0.004117
v 0.842551 2.910911 0.268745
v 0.586764 3.019390 0.525497
v 0.505584 3.046380 0.583287
v 0.537783 3.014362 0.553563
v 0.434123 2.951890 1.144003
v 0.609476 2.928463 0.400390
v 0.697408 2.987469 0.380688
v 0.579927 2.968897 0.513523
v 0.438378 2.701249 1.251614
v 0.540572 3.011589 -1.097755
v 0.540572 3.011589 -0.285583
v 0.567702 2.910911 -0.424419
v 0.624199 2.701250 -0.528995
v 0.887101 2.701250 -0.701293
v 1.138302 2.362589 -0.361727
v 0.000000 2.340347 1.251614
v 0.255196 2.446053 1.251614
v -0.917537 2.146605 0.340509
v -0.846814 2.045964 -0.002096
v -0.434123 2.450608 1.144003
v -0.379647 2.482060 1.251614
v -1.042593 2.602101 -0.156045
v -0.312099 3.238773 1.097756
v -1.075701 2.715503 0.008479
v -1.094832 2.650763 0.200176
v -0.540572 2.390910 0.460883
v -0.622174 2.693734 0.448158
v -0.570909 2.503491 0.496235
v -0.501282 2.701250 1.144003
v -0.243497 3.257051 -0.371505
v -0.434123 2.951890 -1.144003
v -0.950749 2.085414 -0.161333
v -0.969525 2.187014 -0.259889
v -1.015402 2.317332 -0.295963
v -0.241504 2.942753 -1.312550
v -0.341538 2.701249 -1.312550
v -0.241504 2.459746 -1.312550
v -0.250641 3.135372 -1.144003
v 0.000000 3.202531 -1.144003
v 0.000000 2.411017 -1.340250
v 0.205225 2.496024 -1.340250
v 0.290231 2.701249 -1.340250
v 0.205224 2.906474 -1.340250
v 0.000000 2.991481 -1.340250
v 1.299066 2.531919 -0.116425
v 1.323936 2.701249 -0.078477
v 1.318437 2.910911 -0.043137
v 0.710421 2.932692 0.329150
v 0.480228 3.071593 0.606694
v 0.464159 3.087571 0.645624
v 0.250641 3.135372 1.144003
v 0.711901 3.008144 0.446106
v 0.379647 2.920438 1.251614
v 0.360902 2.701249 1.251614
v 1.045485 2.407961 -0.503353
v 0.312099 3.238773 -1.097756
v 0.312099 3.238773 -0.467402
v 0.451554 3.100105 -0.153057
v 0.471842 3.079931 -0.107324
v 0.487468 3.064394 -0.187287
v 0.512868 3.039136 -0.234304
v 0.526792 3.064394 -0.213059
v 0.918070 2.910911 -0.654040
v 0.977539 2.531920 -0.607029
v -0.894735 2.071710 0.151852
v -0.255196 2.446053 1.251614
v -0.438378 2.701249 1.251614
v -1.076085 2.441447 -0.259889
v -1.090515 2.627847 -0.002096
v -0.158199 3.279778 0.000000
v 0.000000 3.321928 1.097756
v 0.000000 3.321928 0.335510
v -0.054711 3.307351 0.219764
v -0.157831 3.279876 0.001604
v -0.434123 2.951890 1.144003
v -1.105786 2.575635 0.151852
v -1.068410 2.506844 0.340509
v -1.003515 2.322309 0.391874
v -0.066053 3.304329 -0.552943
v -1.135316 2.526104 -0.161333
v -0.964104 2.039754 -0.026703
v -0.976461 2.159545 -0.183449
v -1.025168 2.313241 -0.248376
v -0.205225 2.906474 -1.340250
v -0.290231 2.701249 -1.340250
v -0.205225 2.496025 -1.340250
v 0.000000 3.321928 -1.097755
v 0.000000 2.462324 -1.312550
v 0.168946 2.532304 -1.312550
v 0.238925 2.701249 -1.312550
v 0.168946 2.870195 -1.312550
v 0.000000 2.940175 -1.312550
v 1.184952 2.405086 -0.392301
v 1.266122 2.444765 -0.268447
v 1.325542 2.553168 -0.177780
v 1.299066 2.870579 -0.116425
v 1.233830 3.064394 -0.172236
v 0.757944 3.064394 0.139646
v 0.719630 2.934283 0.321200
v 0.604260 3.023693 0.554550
v 0.407257 3.144152 0.674056
v 0.312099 3.238773 1.097756
v 0.219189 3.080896 1.251614
v 0.716019 2.933664 0.324312
v 0.819737 3.107861 0.345013
v 0.818879 3.113429 0.414907
v 0.189189 3.271521 -0.628988
v 0.579676 3.225586 -0.190617
v 0.601092 3.116307 -0.028795
v 1.002677 3.064394 -0.524940
v 0.952668 2.701250 -0.644978
v 1.103783 2.444765 -0.516154
v 0.241504 2.459745 1.312550
v 0.000000 2.359712 1.312550
v 0.341538 2.701249 1.312550
v -0.962465 2.168515 0.264551
v -1.006012 2.062269 0.107928
v -0.241504 2.459746 1.312550
v -0.360902 2.701249 1.251614
v -0.379646 2.920438 1.251614
v -1.177224 2.548619 -0.026703
v -0.250641 3.135372 1.144003
v 0.218641 3.263674 0.729812
v -0.066699 3.422685 0.263838
v -1.084316 2.459456 0.264551
v -1.031857 2.310440 0.305801
v -0.197827 3.269220 -0.413202
v -1.100526 2.455775 -0.183449
v -0.982937 2.084721 -0.026703
v -0.168946 2.870195 -1.312550
v -0.238925 2.701249 -1.312550
v -0.168946 2.532304 -1.312550
v 0.155253 2.545996 -1.251614
v 0.000000 2.481688 -1.251614
v 0.219561 2.701249 -1.251614
v 0.155253 2.856502 -1.251614
v 0.000000 2.920810 -1.251614
v 1.184952 2.457428 -0.392301
v 1.347292 2.701249 -0.144594
v 1.279456 2.528841 -0.248101
v 1.325542 2.849331 -0.177780
v 1.231119 2.994538 -0.220102
v 0.720568 2.951579 0.299789
v 0.726268 3.056699 0.169657
v 1.118253 3.120573 -0.348588
v 0.642368 3.120573 -0.036707
v 0.743713 3.089411 0.452774
v 0.473390 3.087818 0.654293
v 0.752787 3.089956 0.485729
v 0.443621 3.107993 0.640487
v 0.000000 3.202531 1.144003
v 0.000000 3.139627 1.251614
v 0.255196 2.956446 1.251614
v 0.864063 3.075738 0.278858
v 0.880707 3.271507 0.360313
v 0.872198 3.256539 0.428288
v 1.044362 2.553168 -0.606821
v 0.295289 3.375433 -0.660092
v 0.977539 2.870579 -0.607029
v 1.022613 2.701250 -0.640007
v 0.205225 2.496024 1.340250
v 0.000000 2.411018 1.340250
v 0.241503 2.942753 1.312550
v 0.290231 2.701249 1.340250
v -1.065243 2.146926 0.206484
v -0.341538 2.701249 1.312550
v -0.205225 2.496024 1.340250
v -0.219189 3.080896 1.251614
v -1.158391 2.503652 -0.026703
v -1.190579 2.502959 0.107928
v -0.330102 3.370647 -0.282786
v 0.217688 3.272838 0.733314
v -0.351086 3.572532 -0.205637
v -1.171803 2.401359 0.206484
v -0.141660 3.284184 -0.453584
v -0.185296 3.297571 -0.422878
v 0.000000 3.321928 -0.585120
v -1.039274 2.142580 -0.188973
v -1.085368 2.288028 -0.250416
v -1.045403 2.071769 -0.040636
v -0.219561 2.701249 -1.251614
v -0.155253 2.856502 -1.251614
v -0.155253 2.545996 -1.251614
v 1.318601 2.701249 -0.188372
v 1.266122 2.957734 -0.268447
v 0.726685 3.064394 0.160132
v 1.138302 3.039909 -0.361727
v 0.616246 3.120573 -0.019587
v 0.615964 3.053349 0.574327
v 0.504754 3.107841 0.659086
v 0.827381 3.256196 0.455326
v 0.831966 3.247792 0.488144
v 0.742179 3.109658 0.515844
v 0.409852 3.253001 0.707227
v 0.390402 3.160911 0.689615
v 0.000000 3.062151 1.251614
v 0.939827 3.278364 0.297638
v 0.863979 3.434558 0.422489
v 0.857569 3.399130 0.482661
v 1.090448 2.528842 -0.536500
v 0.165379 3.277865 -0.620260
v 0.227001 3.420182 -0.633494
v 0.655440 3.428211 -0.171837
v 0.371053 3.578058 -0.641312
v 1.045485 2.994538 -0.503352
v 1.044362 2.849331 -0.606821
v 1.051304 2.701249 -0.596229
v 0.168946 2.532303 1.312550
v 0.000000 2.462324 1.312550
v 0.000000 3.042787 1.312550
v 0.205224 2.906474 1.340250
v 0.238925 2.701249 1.312550
v -1.125927 2.271041 0.242558
v -1.040802 2.132599 0.130044
v -0.255196 2.956445 1.251614
v -0.241504 2.942753 1.312550
v -0.290231 2.701249 1.340250
v -0.168946 2.532303 1.312550
v -1.156683 2.422915 -0.188973
v -0.275238 3.416338 -0.330487
v 0.312099 3.238773 0.703373
v 0.223942 3.262261 0.727970
v 0.293452 3.475463 0.752093
v 0.009065 3.625310 0.282618
v -0.275322 3.775158 -0.186857
v -1.164867 2.428828 0.130044
v -0.068566 3.310596 -0.557028
v -1.211443 2.468223 -0.040636
v -1.078922 2.150724 -0.173023
v -1.118092 2.274323 -0.225236
v -1.100163 2.117078 0.107700
v -1.084130 2.090551 -0.046970
v 1.211369 2.470510 -0.409613
v 1.300802 2.538092 -0.273151
v 1.337846 2.701249 -0.216626
v 1.184952 2.997412 -0.392300
v 1.279456 2.873657 -0.248101
v 0.436840 3.244769 0.726529
v 0.473694 3.241215 0.720470
v 0.613316 3.090567 0.570410
v 0.521765 3.135427 0.640185
v 0.788759 3.422046 0.531658
v 0.795416 3.404743 0.560380
v 0.809464 3.243784 0.517896
v 0.717219 3.136923 0.522265
v 0.372636 3.178578 0.706016
v 0.918843 3.480249 0.374787
v 0.774037 3.553325 0.514879
v 0.778914 3.502994 0.563458
v 0.108167 3.293108 -0.599426
v 0.104672 3.299790 -0.597820
v 0.634456 3.630096 -0.094688
v 0.350069 3.779943 -0.564163
v 1.103783 2.957734 -0.516154
v 1.121935 2.538092 -0.546075
v 0.155253 2.545997 1.251614
v 0.000000 2.481688 1.251614
v 0.000000 2.991481 1.340250
v 0.168946 2.870195 1.312550
v 0.219561 2.701249 1.251614
v -1.116160 2.275132 0.194971
v -0.205225 2.906474 1.340250
v -0.238925 2.701249 1.312550
v -0.155253 2.545997 1.251614
v -1.178693 2.388947 -0.173023
v -0.291965 3.579389 -0.268312
v 0.303437 3.241081 0.700285
v 0.300771 3.267069 0.710196
v 0.361740 3.430715 0.725496
v 0.445664 3.624536 0.707472
v 0.161277 3.774383 0.237996
v -0.123111 3.924230 -0.231479
v -0.230996 3.743035 -0.253012
v -0.190172 3.347903 -0.471457
v -0.268828 3.451766 -0.390660
v 0.063409 3.349844 -0.624445
v -1.217571 2.397413 0.107700
v -1.225227 2.427449 -0.046970
v -1.066058 2.180861 -0.144406
v -1.098303 2.282611 -0.187389
v -1.171478 2.251964 0.169143
v -1.130664 2.129054 0.079083
v -1.070345 2.131325 -0.040636
v 1.223377 2.505172 -0.417483
v 1.299375 2.562602 -0.301520
v 1.330855 2.701249 -0.253487
v 1.300802 2.864407 -0.273151
v 1.184952 2.945071 -0.392300
v 0.516019 3.402605 0.728944
v 0.540979 3.375340 0.722522
v 0.496196 3.245223 0.690719
v 0.515108 3.152730 0.611462
v 0.599239 3.111506 0.547342
v 0.650469 3.489807 0.637055
v 0.664546 3.468869 0.660123
v 0.778404 3.377157 0.579281
v 0.772610 3.247338 0.523955
v 0.694721 3.154104 0.503100
v 0.493521 3.419787 0.709778
v 0.365036 3.252658 0.734265
v 0.806733 3.627298 0.489634
v 0.634981 3.595985 0.612730
v 0.657307 3.540300 0.649030
v 1.084891 2.701249 -0.602599
v 0.094472 3.296757 -0.592609
v 0.099581 3.295396 -0.595149
v 0.170387 3.455128 -0.655644
v 0.287970 3.583828 -0.618195
v 0.522346 3.777146 0.020158
v 0.237959 3.926993 -0.449317
v 1.090448 2.873657 -0.536500
v 1.147378 2.562602 -0.533445
v -0.155253 2.856502 1.251614
v -0.219561 2.701249 1.251614
v 0.155253 2.856502 1.251614
v 0.000000 2.920810 1.251614
v 0.000000 2.940175 1.312550
v -0.168946 2.870195 1.312550
v -1.148192 2.376971 -0.144406
v -0.283456 3.594357 -0.336286
v 0.484070 3.551106 0.689821
v 0.633537 3.680111 0.611405
v 0.349150 3.829959 0.141929
v 0.064763 3.979806 -0.327546
v -0.108667 3.863426 -0.288687
v -0.061728 3.361089 -0.545054
v -0.200017 3.428850 -0.439656
v -1.230435 2.367276 0.079083
v -1.186500 2.408667 -0.040636
v -1.013354 2.212275 -0.122062
v -1.042986 2.305778 -0.161561
v -1.191266 2.243677 0.131296
v -1.108654 2.163021 0.063134
v -1.017294 2.166755 -0.026703
v 1.211369 2.539834 -0.409613
v 1.273932 2.587111 -0.314150
v 1.299375 2.839897 -0.301520
v 1.299847 2.701249 -0.274608
v 1.211369 2.931988 -0.409613
v 0.667194 3.431650 0.664040
v 0.551587 3.355639 0.692408
v 0.491611 3.253627 0.657900
v 0.747041 3.357134 0.574488
v 0.745622 3.255570 0.504652
v 0.418354 3.395769 0.747645
v 0.525333 3.501053 0.716447
v 1.121935 2.864406 -0.546075
v 1.115899 2.701249 -0.581479
v 0.095221 3.431110 -0.617777
v 0.223706 3.598238 -0.642264
v 0.271243 3.746879 -0.556019
v 1.148805 2.587111 -0.505076
v -1.088831 2.392491 -0.122062
v -0.230138 3.737468 -0.322906
v -0.238640 3.594700 -0.363325
v 0.042245 3.908305 -0.365778
v -0.123159 3.842752 -0.354104
v -1.190787 2.359132 0.063133
v -1.124034 2.421618 -0.026703
v -1.158542 2.257382 0.106116
v -1.052497 2.195882 0.068657
v 1.242445 2.596362 -0.304575
v 1.184952 2.552917 -0.392301
v 1.223377 2.897326 -0.417483
v 1.273932 2.815387 -0.314150
v 1.266260 2.701249 -0.268237
v 0.655490 3.401994 0.644264
v 0.542513 3.355093 0.659453
v 0.722125 3.356468 0.551090
v 1.147378 2.839896 -0.533446
v 1.122890 2.701249 -0.544618
v 0.178889 3.597895 -0.615226
v 0.209077 3.740829 -0.587890
v 0.181301 3.865646 -0.463628
v 1.127459 2.596362 -0.480027
v 0.008815 3.881999 -0.421522
v -0.154971 3.761485 -0.360773
v -0.206674 3.446153 -0.468379
v -0.075805 3.382028 -0.568122
v -0.243225 3.603104 -0.396143
v 0.072722 3.448291 -0.636943
v -1.127974 2.376098 0.068657
v -1.098342 2.282594 0.108156
v 1.211369 2.862664 -0.409613
v 1.242445 2.806137 -0.304575
v 0.637995 3.397692 0.615210
v 1.148805 2.815387 -0.505076
v 1.103645 2.701249 -0.516364
v 0.151902 3.606128 -0.634528
v 0.130422 3.844692 -0.507093
v 0.001977 3.831506 -0.433496
v -0.189663 3.473739 -0.487279
v -0.078453 3.419246 -0.572038
v -0.164045 3.760940 -0.393728
v -0.220723 3.607112 -0.425895
v 0.047762 3.475556 -0.630521
v 1.127459 2.806136 -0.480026
v 1.184952 2.849582 -0.392300
v 0.140267 3.763744 -0.538894
v 0.115351 3.763078 -0.562292
v 0.115047 3.609681 -0.628469
v -0.015518 3.827203 -0.462549
v -0.158299 3.493762 -0.482487
v -0.066749 3.448902 -0.552262
v -0.153438 3.741238 -0.423843
v -0.183868 3.603558 -0.431953
v 0.037155 3.495258 -0.600407
v 0.083988 3.743054 -0.567084
v 0.092545 3.605673 -0.598718
v -0.027222 3.797547 -0.482325
v -0.133384 3.494428 -0.459089
v -0.049253 3.453205 -0.523209
v -0.128478 3.713973 -0.430264
v -0.156881 3.595325 -0.412651
v 0.046229 3.495803 -0.567451
v 0.066976 3.715469 -0.548184
v 0.097130 3.597269 -0.565899
v -0.024575 3.760329 -0.478408
v -0.105979 3.696792 -0.411099
v 0.073633 3.698167 -0.519461
v -0.010497 3.739390 -0.455341
vn -0.0000 -0.6142 -0.7892
vn -0.0000 0.2305 -0.9731
vn 0.4955 0.2073 -0.8435
vn 0.3864 -0.6193 -0.6835
vn 0.6641 -0.6334 -0.3971
vn 0.7576 -0.6526 -0.0127
vn 0.6468 -0.6713 0.3619
vn 0.3690 -0.6847 0.6285
vn -0.0000 -0.6895 0.7243
vn -0.3690 -0.6847 0.6285
vn -0.6468 -0.6713 0.3619
vn -0.7576 -0.6526 -0.0127
vn -0.6641 -0.6334 -0.3971
vn -0.3864 -0.6193 -0.6835
vn -0.4955 0.2073 -0.8435
vn -0.0000 0.2651 -0.9642
vn 0.5005 0.2427 -0.8310
vn 0.8611 0.1443 -0.4876
vn 0.9983 0.0587 0.0024
vn 0.8676 -0.0261 0.4965
vn 0.5021 -0.0877 0.8604
vn -0.0000 -0.1101 0.9939
vn -0.5021 -0.0877 0.8604
vn -0.8676 -0.0261 0.4965
vn -0.9983 0.0587 0.0024
vn -0.8611 0.1443 -0.4876
vn -0.5005 0.2427 -0.8310
vn 0.8661 0.1843 -0.4646
vn -0.0000 0.0139 -0.9999
vn 0.9934 0.1094 0.0346
vn -0.8661 0.1843 -0.4646
vn -0.5058 0.0220 -0.8624
vn 0.5058 0.0220 -0.8624
vn 0.8507 0.0377 0.5243
vn 0.8712 0.0480 -0.4886
vn 0.4862 -0.0137 0.8737
vn -0.0000 -0.0325 0.9995
vn -0.4862 -0.0137 0.8737
vn -0.8507 0.0377 0.5243
vn -0.9934 0.1094 0.0346
vn -0.8712 0.0480 -0.4886
vn -0.0000 -0.0927 -0.9957
vn 0.4952 -0.0691 -0.8660
vn -0.4952 -0.0691 -0.8660
vn 0.9958 0.0909 0.0148
vn 0.8512 0.1401 0.5058
vn 0.4861 0.1794 0.8553
vn -0.0000 0.1944 0.9809
vn -0.4861 0.1794 0.8553
vn -0.8512 0.1401 0.5058
vn -0.9958 0.0909 0.0148
vn -0.8597 -0.0042 -0.5108
vn 0.5258 -0.6038 -0.5992
vn -0.0000 -0.7158 -0.6983
vn -0.5258 -0.6038 -0.5992
vn 0.8597 -0.0042 -0.5108
vn -0.9960 0.0861 -0.0229
vn 0.7505 -0.5637 -0.3450
vn -0.7505 -0.5637 -0.3450
vn 0.9960 0.0861 -0.0229
vn 0.8656 0.1782 0.4680
vn 0.5010 0.2468 0.8295
vn -0.0000 0.2721 0.9623
vn -0.5010 0.2468 0.8295
vn -0.8656 0.1782 0.4680
vn -0.8491 -0.5277 -0.0225
vn -0.7913 -0.5863 -0.1736
vn 0.7913 -0.5863 -0.1736
vn 0.8491 -0.5277 -0.0225
vn -0.8021 -0.5012 0.3246
vn 0.8021 -0.5012 0.3246
vn 0.5922 -0.4906 0.6392
vn -0.0000 -0.6241 0.7814
vn -0.5922 -0.4906 0.6392
vn -0.0000 -0.8506 -0.5259
vn 0.4239 -0.7369 -0.5266
vn 0.4982 -0.8671 -0.0000
vn -0.4982 -0.8671 -0.0000
vn -0.4239 -0.7369 -0.5266
vn 0.3058 -0.5316 -0.7899
vn 0.7348 -0.4258 -0.5279
vn 0.2878 -0.8819 -0.3734
vn 0.2031 -0.9041 -0.3760
vn 0.2763 -0.9442 -0.1791
vn 0.3167 -0.9408 -0.1209
vn 0.4239 -0.7369 0.5266
vn -0.0000 -0.8506 0.5259
vn -0.4239 -0.7369 0.5266
vn -0.4942 -0.5636 -0.6619
vn -0.7348 -0.4258 -0.5279
vn -0.1727 -0.9727 -0.1548
vn -0.1332 -0.9491 -0.2853
vn -0.1732 -0.7879 -0.5909
vn -0.0000 -0.6143 -0.7891
vn 0.5289 -0.3065 -0.7914
vn 0.4011 -0.9148 0.0479
vn 0.5087 -0.8321 0.2210
vn 0.6437 -0.6996 0.3102
vn 0.7348 -0.4258 0.5279
vn 0.3219 -0.7157 -0.6198
vn -0.2731 -0.8671 -0.4167
vn -0.0000 -1.0000 -0.0000
vn 0.3058 -0.5316 0.7899
vn -0.1667 -0.9857 0.0233
vn -0.0000 -0.6143 0.7891
vn -0.0785 -0.5179 -0.8518
vn -0.7396 0.5257 -0.4203
vn -0.8489 -0.0000 -0.5286
vn -0.5270 -0.0968 -0.8444
vn -0.6915 0.2765 -0.6673
vn -0.3058 -0.5316 -0.7899
vn -0.0156 -0.8462 -0.5326
vn -0.0000 -0.5549 -0.8319
vn 0.2775 -0.4806 -0.8319
vn 0.4806 -0.2775 -0.8319
vn 0.2731 -0.8671 0.4167
vn 0.8798 -0.0000 0.4753
vn 0.8489 -0.0000 0.5286
vn 0.7997 -0.4274 0.4216
vn 0.5289 -0.3065 0.7914
vn 0.6103 -0.0000 -0.7921
vn 0.6914 -0.2559 -0.6757
vn -0.2529 -0.9204 0.2981
vn -0.3058 -0.5316 0.7899
vn -0.2282 -0.0956 -0.9689
vn -0.4241 0.3074 -0.8518
vn -0.8650 0.5018 -0.0000
vn -0.7348 0.4258 -0.5279
vn -0.7011 0.6702 -0.2434
vn -0.7316 0.6667 -0.1428
vn -0.5289 -0.3065 -0.7914
vn -0.0577 -0.9936 -0.0973
vn -0.3055 -0.5414 -0.7833
vn -0.2775 -0.4806 -0.8319
vn -0.0000 -0.4774 -0.8787
vn 0.4458 -0.4458 -0.7763
vn 0.6304 -0.0000 -0.7763
vn 0.4458 0.4458 -0.7763
vn -0.0000 0.5295 -0.8483
vn 0.2775 0.4806 -0.8319
vn 0.4806 0.2775 -0.8319
vn 0.5549 -0.0000 -0.8319
vn 0.4643 -0.8317 -0.3043
vn 0.6920 -0.7207 0.0421
vn 0.4741 -0.5018 0.7234
vn 0.5481 -0.0000 0.8364
vn 0.8690 0.1147 0.4813
vn 0.7348 0.4258 0.5279
vn 0.7997 0.4274 0.4216
vn 0.7873 0.1455 0.5992
vn 0.8635 -0.4129 0.2895
vn 0.8595 -0.4797 0.1765
vn 0.8356 -0.1638 0.5243
vn 0.6103 -0.0000 0.7921
vn 0.8489 -0.0000 -0.5286
vn 0.2376 -0.7207 -0.6513
vn 0.0717 -0.4166 -0.9063
vn 0.2775 -0.4806 0.8319
vn -0.0000 -0.5549 0.8319
vn 0.4806 -0.2775 0.8319
vn -0.3806 -0.7658 0.5184
vn -0.1942 -0.9210 0.3376
vn -0.7348 -0.4258 0.5279
vn -0.2775 -0.4806 0.8319
vn -0.4336 -0.1816 -0.8826
vn -0.6140 0.5825 -0.5326
vn -0.7455 0.6661 0.0220
vn -0.7685 0.5844 0.2605
vn -0.8269 0.4085 0.3864
vn -0.8489 -0.0000 0.5286
vn -0.7348 0.4258 0.5279
vn -0.4982 0.8671 -0.0000
vn -0.4239 0.7369 -0.5266
vn -0.6103 -0.0000 -0.7921
vn -0.6001 0.1621 -0.7833
vn -0.4806 -0.2775 -0.8319
vn -0.2508 -0.8218 -0.5117
vn -0.6304 -0.0000 -0.7763
vn -0.4458 -0.4458 -0.7763
vn -0.5549 -0.0000 -0.8319
vn -0.4806 0.2775 -0.8319
vn -0.2775 0.4806 -0.8319
vn -0.0000 0.5549 -0.8319
vn -0.4458 0.4458 -0.7763
vn -0.0000 -0.8029 -0.5961
vn 0.5678 -0.5678 -0.5961
vn 0.8029 -0.0000 -0.5961
vn 0.5678 0.5678 -0.5961
vn -0.0000 0.8029 -0.5961
vn 0.3058 0.5316 -0.7899
vn 0.5289 0.3065 -0.7914
vn 0.8541 -0.4595 -0.2436
vn 0.8596 -0.4166 0.2960
vn 0.9212 -0.0000 0.3891
vn 0.4741 0.5018 0.7234
vn 0.3895 -0.6651 0.6371
vn 0.7891 0.2919 0.5404
vn 0.5289 0.3065 0.7914
vn 0.5696 0.1174 0.8135
vn 0.5903 -0.6648 0.4577
vn 0.3678 -0.7098 0.6007
vn 0.5549 -0.0000 0.8319
vn 0.7348 0.4258 -0.5279
vn 0.2878 0.8819 -0.3734
vn 0.3219 0.7157 -0.6198
vn 0.2429 0.2771 -0.9296
vn 0.0109 -0.0000 -0.9999
vn 0.7087 -0.5310 -0.4645
vn -0.0000 -0.4774 0.8787
vn 0.4458 -0.4458 0.7763
vn -0.3879 -0.6475 0.6560
vn -0.2862 -0.9479 -0.1402
vn -0.5289 -0.3065 0.7914
vn -0.4806 -0.2775 0.8319
vn -0.7615 0.3978 -0.5117
vn -0.4239 0.7369 0.5266
vn -0.7485 0.6559 -0.0973
vn -0.7926 0.5078 0.3376
vn -0.6172 -0.5494 0.5632
vn -0.8205 0.1055 0.5619
vn -0.7242 -0.1991 0.6602
vn -0.6103 -0.0000 0.7921
vn -0.8247 0.3928 -0.4068
vn -0.5289 0.3065 -0.7914
vn -0.4182 -0.7724 -0.4781
vn -0.4615 -0.5381 -0.7053
vn -0.5673 -0.2376 -0.7885
vn -0.5678 0.5678 -0.5961
vn -0.8029 -0.0000 -0.5961
vn -0.5678 -0.5678 -0.5961
vn -0.3058 0.5316 -0.7899
vn -0.0000 0.6143 -0.7891
vn -0.0000 -0.1173 -0.9931
vn 0.0829 -0.0829 -0.9931
vn 0.1172 -0.0000 -0.9931
vn 0.0829 0.0829 -0.9931
vn -0.0000 0.1172 -0.9931
vn 0.9607 -0.2649 -0.0829
vn 0.9997 -0.0000 -0.0244
vn 0.8596 0.4166 0.2960
vn 0.6120 0.1348 0.7793
vn 0.7672 -0.3504 0.5373
vn -0.1839 -0.5639 0.8051
vn 0.3058 0.5316 0.7899
vn 0.5903 -0.6436 0.4871
vn 0.4806 0.2775 0.8319
vn 0.6304 -0.0000 0.7763
vn 0.5643 -0.4595 -0.6859
vn 0.4239 0.7369 -0.5266
vn 0.9078 0.1468 -0.3929
vn 0.9175 0.0224 -0.3972
vn 0.6197 0.3886 -0.6818
vn 0.2763 0.9442 -0.1791
vn 0.2031 0.9041 -0.3760
vn -0.2731 0.8671 -0.4167
vn 0.0717 0.4166 -0.9063
vn 0.4595 -0.2649 -0.8478
vn -0.4031 -0.8856 0.2307
vn -0.4458 -0.4458 0.7763
vn -0.5549 -0.0000 0.8319
vn -0.7072 0.0486 -0.7053
vn -0.8762 0.4610 -0.1402
vn -0.9409 0.2740 0.1993
vn -0.0000 0.8506 0.5259
vn -0.7513 0.5809 0.3132
vn -0.8016 0.5082 0.3149
vn -0.8396 0.4406 0.3176
vn -0.5289 0.3065 0.7914
vn -0.9139 0.3340 0.2307
vn -0.7336 0.1778 0.6560
vn -0.5857 -0.2453 0.7726
vn -0.6814 0.1894 -0.7070
vn -0.8438 0.2439 -0.4781
vn -0.4490 -0.8777 -0.1676
vn -0.3674 -0.6817 -0.6327
vn -0.5150 -0.2157 -0.8296
vn -0.0829 0.0829 -0.9931
vn -0.1172 -0.0000 -0.9931
vn -0.0829 -0.0829 -0.9931
vn -0.0000 0.8506 -0.5259
vn -0.0000 0.7267 -0.6870
vn -0.5139 0.5138 -0.6870
vn -0.7267 -0.0000 -0.6870
vn -0.5139 -0.5138 -0.6870
vn -0.0000 -0.7267 -0.6870
vn 0.7247 -0.4993 -0.4749
vn 0.8615 -0.4324 -0.2662
vn 0.9617 -0.2496 -0.1133
vn 0.9607 0.2649 -0.0829
vn 0.6920 0.7207 0.0421
vn 0.2731 0.8671 0.4167
vn 0.7668 -0.0331 0.6411
vn 0.2336 -0.8968 0.3758
vn 0.4239 0.7369 0.5266
vn 0.2775 0.4806 0.8319
vn 0.6288 0.1610 0.7607
vn 0.7812 -0.4761 0.4039
vn 0.7707 -0.4662 0.4345
vn 0.1705 0.3308 -0.9282
vn 0.6750 -0.4784 -0.5616
vn 0.4217 0.3271 -0.8457
vn 0.2376 0.7207 -0.6513
vn 0.4214 -0.0000 -0.9069
vn 0.5879 -0.4324 -0.6837
vn 0.5678 -0.5678 0.5961
vn -0.0000 -0.8029 0.5961
vn 0.8029 -0.0000 0.5961
vn -0.5692 -0.6518 0.5012
vn -0.5456 -0.8258 0.1429
vn -0.5678 -0.5678 0.5961
vn -0.6304 -0.0000 0.7763
vn -0.4806 0.2775 0.8319
vn -0.9404 0.2958 -0.1676
vn -0.3058 0.5316 0.7899
vn -0.2031 0.2239 0.9532
vn -0.8562 -0.0066 0.5166
vn -0.8638 0.0516 0.5012
vn -0.7379 -0.3091 0.6000
vn -0.5924 0.6360 -0.4945
vn -0.7435 0.2164 -0.6327
vn -0.5652 -0.8039 -0.1851
vn 0.5139 -0.5139 -0.6870
vn 0.7267 -0.0000 -0.6870
vn 0.5139 0.5138 -0.6870
vn -0.4743 0.4743 -0.7416
vn -0.0000 0.6708 -0.7416
vn -0.6708 -0.0000 -0.7416
vn -0.4743 -0.4743 -0.7416
vn -0.0000 -0.6708 -0.7416
vn 0.7490 -0.4450 -0.4909
vn 0.9984 -0.0000 -0.0574
vn 0.9043 -0.4163 -0.0949
vn 0.9617 0.2496 -0.1133
vn 0.8541 0.4595 -0.2436
vn 0.9970 0.0330 0.0703
vn 0.4643 0.8317 -0.3043
vn -0.0000 1.0000 -0.0000
vn 0.7061 -0.6117 0.3567
vn -0.1910 -0.6887 0.6994
vn 0.7155 -0.6818 0.1525
vn 0.2501 0.2483 0.9358
vn -0.0000 0.6143 0.7891
vn -0.0000 0.5549 0.8319
vn 0.4458 0.4458 0.7763
vn 0.8392 -0.5438 -0.0070
vn 0.8763 -0.2203 0.4284
vn 0.8605 -0.2249 0.4570
vn 0.4877 -0.2496 -0.8366
vn 0.2825 -0.2505 -0.9260
vn 0.4595 0.2649 -0.8478
vn 0.4510 -0.0000 -0.8925
vn 0.0829 -0.0829 0.9931
vn -0.0000 -0.1172 0.9931
vn 0.5678 0.5678 0.5961
vn 0.1172 -0.0000 0.9931
vn -0.6822 -0.6305 0.3702
vn -0.8029 -0.0000 0.5961
vn -0.0829 -0.0829 0.9931
vn -0.2775 0.4806 0.8319
vn -0.9574 0.2280 -0.1769
vn -0.9712 0.1905 0.1429
vn -0.9481 -0.2599 -0.1834
vn -0.4324 -0.1522 0.8887
vn -0.9895 0.1413 -0.0308
vn -0.9279 -0.0438 0.3702
vn -0.7549 0.3509 -0.5541
vn -0.7103 -0.2215 -0.6682
vn -0.2448 0.6740 -0.6970
vn -0.0451 -0.6998 -0.7129
vn -0.2356 -0.0987 -0.9668
vn -0.0704 -0.9925 -0.0998
vn 0.6708 -0.0000 -0.7416
vn 0.4743 -0.4743 -0.7416
vn 0.4743 0.4743 -0.7416
vn 0.9988 -0.0000 0.0493
vn 0.8615 0.4324 -0.2662
vn 0.8710 0.4830 0.0902
vn 0.7087 0.5310 -0.4645
vn 0.4663 0.7031 -0.5368
vn 0.4852 -0.3537 0.7997
vn 0.4314 -0.3273 0.8407
vn 0.9081 -0.2090 0.3629
vn 0.9724 -0.1697 0.1603
vn 0.5462 -0.3264 0.7714
vn 0.0121 -0.2323 0.9726
vn -0.0000 0.5295 0.8483
vn 0.9895 -0.1413 0.0308
vn 0.8504 0.0349 0.5249
vn 0.8359 0.0155 0.5487
vn 0.4479 -0.4163 -0.7913
vn -0.0520 0.7337 -0.6775
vn -0.0676 -0.0289 -0.9973
vn 0.8562 0.0066 -0.5166
vn 0.4325 0.1522 -0.8887
vn 0.5643 0.4595 -0.6859
vn 0.4877 0.2496 -0.8366
vn 0.3534 -0.0000 -0.9355
vn -0.5138 0.5138 0.6870
vn -0.0000 0.7267 0.6870
vn -0.0000 0.8029 0.5961
vn 0.0829 0.0829 0.9931
vn -0.7267 -0.0000 0.6870
vn -0.8221 -0.3443 0.4533
vn -0.5624 -0.7634 0.3177
vn -0.4458 0.4458 0.7763
vn -0.5678 0.5678 0.5961
vn -0.1172 -0.0000 0.9931
vn 0.5138 0.5139 0.6870
vn -0.5303 0.4589 -0.7129
vn -0.8504 -0.0349 -0.5249
vn 0.1883 0.6704 0.7178
vn 0.4011 0.5246 0.7509
vn -0.2827 0.2505 0.9259
vn -0.6750 0.4784 0.5616
vn -0.8392 0.5438 0.0072
vn -0.9386 0.1347 0.3177
vn -0.4983 -0.2534 -0.8291
vn -0.7567 0.6461 -0.0998
vn -0.8205 -0.4689 -0.3270
vn -0.8555 -0.3583 -0.3738
vn -0.2967 -0.8052 0.5134
vn -0.8251 -0.5227 -0.2143
vn 0.5545 -0.7486 -0.3634
vn 0.8447 -0.5294 0.0793
vn 0.9649 -0.0000 0.2627
vn 0.7247 0.4993 -0.4749
vn 0.9043 0.4163 -0.0949
vn -0.3096 -0.1795 0.9338
vn 0.4163 -0.2628 0.8704
vn 0.4639 0.4305 0.7743
vn 0.8342 0.2490 0.4920
vn 0.8148 0.1914 0.5472
vn 0.8538 0.3395 0.3947
vn 0.5788 -0.2616 0.7724
vn 0.0435 0.2429 0.9691
vn 0.6911 0.2170 0.6894
vn 0.9481 0.2599 0.1834
vn 0.7102 0.2217 0.6682
vn 0.7033 0.1905 0.6849
vn -0.0837 0.7175 -0.6915
vn -0.2572 -0.2183 -0.9414
vn 0.8062 0.4898 -0.3320
vn 0.3916 0.5532 -0.7353
vn 0.5879 0.4324 -0.6837
vn 0.2644 -0.5294 -0.8062
vn -0.4743 0.4743 0.7416
vn -0.0000 0.6708 0.7416
vn -0.0000 0.1172 0.9931
vn -0.5139 -0.5138 0.6870
vn -0.6708 -0.0000 0.7416
vn -0.7909 -0.3312 0.5145
vn -0.0829 0.0829 0.9931
vn 0.7267 -0.0000 0.6870
vn 0.4743 0.4743 0.7416
vn -0.9097 -0.2558 -0.3270
vn -0.8763 0.2203 -0.4284
vn 0.0689 0.4814 0.8738
vn -0.0269 -0.2271 0.9735
vn 0.0674 0.0289 0.9973
vn 0.0170 0.5462 0.8375
vn -0.3133 0.8332 0.4557
vn -0.5385 0.8389 -0.0795
vn -0.7812 0.4761 -0.4037
vn -0.7033 -0.1905 -0.6849
vn -0.8359 -0.0155 -0.5487
vn -0.2758 -0.1873 -0.9428
vn -0.7820 0.3535 0.5134
vn -0.9514 -0.2213 -0.2143
vn -0.8267 0.3056 0.4725
vn -0.6443 -0.2699 0.7156
vn -0.5915 -0.2477 0.7673
vn -0.8668 -0.4883 -0.1015
vn -0.8024 0.5857 -0.1143
vn 0.8326 -0.0949 -0.5457
vn 0.8694 -0.0671 -0.4896
vn 0.8846 -0.0000 -0.4663
vn 0.8447 0.5294 0.0793
vn 0.7274 0.4935 -0.4767
vn -0.0527 0.3326 0.9416
vn 0.4489 -0.1979 0.8714
vn 0.9376 -0.1952 0.2876
vn 0.8299 0.2348 0.5061
vn 0.4684 0.4119 0.7816
vn 0.4992 0.2471 0.8305
vn 0.4292 0.5476 0.7183
vn 0.5638 -0.1970 0.8021
vn -0.1806 -0.2037 0.9622
vn 0.0582 0.2289 0.9717
vn 0.1020 0.1860 0.9773
vn 0.0056 -0.2315 0.9728
vn 0.7268 0.5516 0.4093
vn 0.4929 0.2891 0.8207
vn 0.4983 0.2534 0.8291
vn 0.1442 -0.0000 -0.9896
vn -0.0210 0.4476 -0.8940
vn -0.1465 0.7189 -0.6795
vn -0.0955 -0.0098 -0.9954
vn 0.0271 0.2272 -0.9735
vn 0.5398 0.8397 -0.0590
vn 0.1713 0.8443 -0.5077
vn 0.4479 0.4163 -0.7913
vn 0.7958 -0.0671 -0.6018
vn 0.4743 -0.4743 0.7416
vn 0.6708 -0.0000 0.7416
vn -0.4743 -0.4743 0.7416
vn -0.0000 -0.6708 0.7416
vn -0.0000 -0.7267 0.6870
vn 0.5139 -0.5139 0.6870
vn -0.3622 -0.8035 0.4725
vn -0.8605 0.2249 -0.4570
vn 0.2574 0.2182 0.9413
vn 0.3861 0.6562 0.6483
vn 0.1306 0.9647 0.2288
vn -0.1688 0.9486 -0.2678
vn -0.5902 0.6648 -0.4579
vn -0.5057 -0.1934 -0.8407
vn -0.8148 -0.1914 -0.5472
vn -0.9560 -0.2752 -0.1015
vn -0.1456 -0.9827 -0.1143
vn -0.9261 0.1601 0.3415
vn -0.7728 -0.3237 0.5459
vn -0.9210 -0.3857 -0.0548
vn -0.5858 0.4064 -0.7012
vn -0.9058 0.3956 -0.1519
vn 0.6335 0.6530 -0.4151
vn 0.3804 0.4617 -0.8013
vn 0.8694 0.0671 -0.4896
vn 0.2755 -0.0000 -0.9613
vn 0.5545 0.7486 -0.3634
vn 0.5100 -0.1707 0.8431
vn 0.7136 -0.6419 0.2808
vn 0.9309 -0.1988 0.3066
vn -0.0771 -0.6479 0.7578
vn -0.1606 -0.2071 0.9651
vn 0.0955 0.0098 0.9954
vn 0.2758 0.1873 0.9428
vn 0.2644 0.5294 -0.8062
vn 0.7806 -0.0000 -0.6250
vn -0.1020 -0.1860 -0.9773
vn -0.0056 0.2315 -0.9728
vn 0.0018 0.4821 -0.8761
vn 0.8865 0.4617 -0.0290
vn -0.5356 -0.7723 0.3415
vn -0.7707 0.4662 -0.4345
vn -0.9081 0.2090 -0.3629
vn -0.3542 0.7354 -0.5777
vn -0.5903 0.6437 -0.4871
vn -0.1213 -0.7026 -0.7012
vn -0.3535 -0.9230 -0.1519
vn -0.3037 -0.1272 -0.9443
vn -0.7236 0.2449 -0.6453
vn 0.3975 0.4507 -0.7993
vn 0.6445 0.6373 -0.4224
vn 0.8326 0.0949 -0.5457
vn 0.3804 -0.4617 -0.8013
vn 0.2951 -0.0000 -0.9555
vn 0.2932 -0.8294 0.4755
vn 0.7121 -0.6347 0.2999
vn -0.0596 -0.6406 0.7655
vn 0.7958 0.0671 -0.6018
vn 0.9914 -0.0000 0.1310
vn 0.1000 0.2167 -0.9711
vn -0.0303 0.4718 -0.8812
vn -0.1374 0.6683 -0.7311
vn 0.8915 0.4507 -0.0455
vn -0.3679 0.7098 -0.6007
vn -0.7061 0.6117 -0.3567
vn -0.8538 -0.3395 -0.3947
vn -0.4292 -0.5476 -0.7183
vn -0.9724 0.1697 -0.1603
vn 0.0527 -0.3326 -0.9416
vn -0.3331 -0.6875 -0.6453
vn -0.4864 -0.2037 -0.8497
vn 0.6335 -0.6530 -0.4151
vn 0.3975 -0.4507 -0.7993
vn 0.3019 -0.8178 0.4900
vn 0.8865 -0.4617 -0.0290
vn 0.9939 -0.0000 0.1107
vn 0.3096 0.1795 -0.9338
vn -0.1629 0.6469 -0.7450
vn -0.3702 0.7052 -0.6047
vn -0.5638 0.1970 -0.8021
vn -0.5100 0.1707 -0.8431
vn -0.7155 0.6818 -0.1525
vn -0.5788 0.2616 -0.7724
vn -0.4489 0.1979 -0.8714
vn 0.8915 -0.4507 -0.0455
vn 0.6445 -0.6373 -0.4224
vn 0.0068 0.6172 -0.7868
vn 0.1910 0.6887 -0.6994
vn -0.4163 0.2628 -0.8704
vn -0.2336 0.8968 -0.3758
vn 0.0771 0.6479 -0.7578
vn -0.2932 0.8294 -0.4755
vn -0.5462 0.3265 -0.7714
vn 0.1806 0.2037 -0.9622
vn -0.7136 0.6419 -0.2808
vn -0.4314 0.3273 -0.8407
vn -0.9376 0.1952 -0.2876
vn -0.4852 0.3537 -0.7997
vn 0.0596 0.6406 -0.7655
vn -0.3019 0.8178 -0.4900
vn -0.0435 -0.2429 -0.9691
vn 0.1606 0.2071 -0.9651
vn -0.7121 0.6347 -0.2999
vn -0.8342 -0.2490 -0.4920
vn -0.9309 0.1988 -0.3066
vn -0.4639 -0.4305 -0.7743
vn -0.0582 -0.2289 -0.9717
vn -0.8299 -0.2348 -0.5061
vn -0.4684 -0.4119 -0.7816
vt 0.938473 0.093267
vt 0.943151 0.349900
vt 0.924775 0.348247
vt 0.920786 0.093267
vt 0.872465 0.093267
vt 0.806456 0.093267
vt 0.740448 0.093267
vt 0.692126 0.093267
vt 0.674439 0.093267
vt 0.806456 0.093267
vt 0.906576 0.421371
vt 0.891027 0.419972
vt 0.874570 0.343730
vt 0.805989 0.337561
vt 0.737408 0.331391
vt 0.687204 0.326875
vt 0.668828 0.325222
vt 0.874570 0.343730
vt 0.848549 0.416150
vt 0.889909 0.454544
vt 0.876309 0.455753
vt 0.790522 0.410930
vt 0.848548 0.416150
vt 0.839154 0.459056
vt 0.732494 0.405710
vt 0.788398 0.463568
vt 0.690015 0.401889
vt 0.674467 0.400490
vt 0.732494 0.405710
vt 0.790521 0.410930
vt 0.839153 0.459056
vt 0.905717 0.763839
vt 0.890482 0.764530
vt 0.737642 0.468081
vt 0.700486 0.471384
vt 0.686886 0.472593
vt 0.737642 0.468081
vt 0.788398 0.463568
vt 0.848857 0.766419
vt 0.882994 0.939025
vt 0.896222 0.934086
vt 0.791998 0.768999
vt 0.846444 0.942596
vt 0.735139 0.771580
vt 0.693515 0.773468
vt 0.678279 0.774160
vt 0.735138 0.771580
vt 0.795927 0.943938
vt 0.812657 0.943494
vt 0.743906 0.942700
vt 0.703639 0.939131
vt 0.686300 0.934086
vt 0.242764 0.095553
vt 0.358707 0.095553
vt 0.358707 0.109328
vt 0.224065 0.109328
vt 0.224065 0.103352
vt 0.231625 0.102608
vt 0.239804 0.099647
vt 0.364379 0.171138
vt 0.364379 0.182262
vt 0.355607 0.301979
vt 0.255992 0.301979
vt 0.249703 0.297416
vt 0.243936 0.293232
vt 0.224065 0.187992
vt 0.089423 0.165135
vt 0.089423 0.095553
vt 0.195791 0.095553
vt 0.199671 0.099735
vt 0.208681 0.102694
vt 0.220321 0.103720
vt 0.220321 0.103720
vt 0.255316 0.301979
vt 0.355607 0.301979
vt 0.224065 0.171730
vt 0.235143 0.174629
vt 0.251718 0.291906
vt 0.364379 0.182263
vt 0.361279 0.311868
vt 0.211575 0.184714
vt 0.182095 0.293232
vt 0.178576 0.301979
vt 0.086323 0.301979
vt 0.352506 0.452598
vt 0.282747 0.452598
vt 0.273021 0.318656
vt 0.301184 0.318656
vt 0.285350 0.293232
vt 0.247097 0.293232
vt 0.247375 0.452598
vt 0.352506 0.452598
vt 0.258805 0.320628
vt 0.248378 0.451353
vt 0.246537 0.092107
vt 0.263749 0.171754
vt 0.377578 0.181558
vt 0.374478 0.290499
vt 0.374478 0.317078
vt 0.228567 0.184714
vt 0.203837 0.293232
vt 0.159065 0.452598
vt 0.083222 0.452598
vt 0.165909 0.318656
vt 0.083751 0.171138
vt 0.083751 0.182262
vt 0.080650 0.311868
vt 0.185791 0.174629
vt 0.209877 0.168017
vt 0.086323 0.301979
vt 0.164436 0.301979
vt 0.166237 0.291906
vt 0.266949 0.301534
vt 0.260649 0.330638
vt 0.240336 0.449694
vt 0.227422 0.479975
vt 0.220965 0.541209
vt 0.355607 0.541209
vt 0.217864 0.483901
vt 0.358179 0.452598
vt 0.223025 0.081383
vt 0.243204 0.098470
vt 0.257027 0.173521
vt 0.374478 0.293604
vt 0.374478 0.311113
vt 0.371377 0.452598
vt 0.371377 0.494870
vt 0.374478 0.549584
vt 0.374478 0.552689
vt 0.371377 0.488906
vt 0.358179 0.452598
vt 0.266820 0.184714
vt 0.242090 0.293232
vt 0.188003 0.318656
vt 0.179106 0.452598
vt 0.153385 0.541209
vt 0.086323 0.541209
vt 0.162809 0.487327
vt 0.164772 0.489911
vt 0.162452 0.493153
vt 0.159579 0.493937
vt 0.155360 0.535680
vt 0.077550 0.452598
vt 0.282747 0.452598
vt 0.303879 0.452598
vt 0.067452 0.290499
vt 0.070552 0.181558
vt 0.067452 0.317078
vt 0.199513 0.086648
vt 0.258986 0.297418
vt 0.201637 0.490567
vt 0.178069 0.479975
vt 0.163843 0.452598
vt 0.083222 0.452598
vt 0.224065 0.622246
vt 0.358707 0.622246
vt 0.358179 0.494115
vt 0.253927 0.320927
vt 0.224322 0.089821
vt 0.371377 0.452598
vt 0.374478 0.552689
vt 0.374478 0.562418
vt 0.381952 0.296811
vt 0.381952 0.313382
vt 0.378851 0.452598
vt 0.378851 0.492602
vt 0.381952 0.546377
vt 0.361279 0.561713
vt 0.265331 0.297288
vt 0.247961 0.304804
vt 0.226255 0.318656
vt 0.217359 0.452598
vt 0.184902 0.487327
vt 0.154880 0.496933
vt 0.156511 0.542501
vt 0.153069 0.541668
vt 0.149423 0.546972
vt 0.077550 0.494115
vt 0.181094 0.494064
vt 0.178468 0.491199
vt 0.178087 0.491096
vt 0.177493 0.490935
vt 0.168756 0.490235
vt 0.174272 0.537213
vt 0.166249 0.540638
vt 0.064351 0.452598
vt 0.255992 0.541209
vt 0.269920 0.487327
vt 0.282702 0.304804
vt 0.064351 0.488906
vt 0.067452 0.552689
vt 0.067452 0.549584
vt 0.064351 0.494870
vt 0.067452 0.311113
vt 0.067452 0.293604
vt 0.182301 0.106492
vt 0.205440 0.094086
vt 0.067452 0.562418
vt 0.240104 0.336962
vt 0.089423 0.622246
vt 0.216824 0.454959
vt 0.193312 0.444235
vt 0.179201 0.321183
vt 0.162897 0.451353
vt 0.160100 0.320628
vt 0.077550 0.452598
vt 0.224065 0.629038
vt 0.269631 0.625274
vt 0.274745 0.627290
vt 0.279698 0.629768
vt 0.291885 0.633105
vt 0.295831 0.636020
vt 0.358707 0.636020
vt 0.243853 0.096356
vt 0.255941 0.168992
vt 0.257265 0.289791
vt 0.364379 0.616243
vt 0.385349 0.305310
vt 0.385349 0.319391
vt 0.382249 0.452598
vt 0.382249 0.486592
vt 0.385349 0.537878
vt 0.235244 0.325337
vt 0.227490 0.452598
vt 0.223155 0.487327
vt 0.146552 0.551148
vt 0.141778 0.553795
vt 0.142408 0.557178
vt 0.138290 0.563167
vt 0.080650 0.561713
vt 0.295418 0.325337
vt 0.281393 0.622246
vt 0.239737 0.555871
vt 0.234128 0.552529
vt 0.243936 0.549956
vt 0.249703 0.545772
vt 0.247097 0.549956
vt 0.285350 0.549956
vt 0.298084 0.487327
vt 0.296972 0.452598
vt 0.191617 0.110121
vt 0.252841 0.310350
vt 0.218121 0.440439
vt 0.089423 0.636020
vt 0.182914 0.636020
vt 0.197111 0.633606
vt 0.223868 0.629055
vt 0.202340 0.332578
vt 0.172900 0.290616
vt 0.240752 0.324373
vt 0.227340 0.088792
vt 0.227340 0.096241
vt 0.246566 0.108635
vt 0.251429 0.289114
vt 0.243465 0.312724
vt 0.224240 0.320654
vt 0.207727 0.320540
vt 0.224240 0.328103
vt 0.385349 0.319391
vt 0.381952 0.313809
vt 0.381952 0.325400
vt 0.378851 0.480583
vt 0.378851 0.492175
vt 0.269081 0.304327
vt 0.253890 0.310900
vt 0.242770 0.328856
vt 0.232144 0.480647
vt 0.242090 0.549956
vt 0.203837 0.549956
vt 0.170075 0.558078
vt 0.171535 0.625189
vt 0.158665 0.673612
vt 0.158056 0.749724
vt 0.144460 0.774506
vt 0.139292 0.715298
vt 0.149029 0.713435
vt 0.152655 0.677408
vt 0.168218 0.625132
vt 0.165431 0.554100
vt 0.152948 0.543214
vt 0.140714 0.553836
vt 0.178648 0.557156
vt 0.296750 0.631851
vt 0.297061 0.631626
vt 0.297586 0.631247
vt 0.300141 0.628722
vt 0.301212 0.627671
vt 0.298826 0.669686
vt 0.247445 0.620062
vt 0.186762 0.551835
vt 0.200156 0.548681
vt 0.201324 0.549956
vt 0.223367 0.559261
vt 0.224496 0.558555
vt 0.292318 0.480647
vt 0.284272 0.310900
vt 0.059978 0.313381
vt 0.059978 0.296811
vt 0.056877 0.452598
vt 0.210828 0.092522
vt 0.059978 0.313382
vt 0.252549 0.668894
vt 0.083751 0.616243
vt 0.137795 0.622246
vt 0.138174 0.622629
vt 0.134778 0.626137
vt 0.134552 0.626371
vt 0.185504 0.677513
vt 0.249287 0.779845
vt 0.188517 0.313333
vt 0.183458 0.288650
vt 0.381952 0.325400
vt 0.374478 0.327668
vt 0.374478 0.317016
vt 0.371377 0.478315
vt 0.371377 0.488967
vt 0.251395 0.324827
vt 0.240968 0.452598
vt 0.248295 0.481156
vt 0.265981 0.492986
vt 0.250790 0.495083
vt 0.239669 0.477127
vt 0.235599 0.452598
vt 0.269081 0.312998
vt 0.247961 0.538384
vt 0.263720 0.559261
vt 0.225467 0.559261
vt 0.161389 0.554190
vt 0.179872 0.627668
vt 0.295392 0.328856
vt 0.282702 0.538384
vt 0.296362 0.452598
vt 0.292292 0.477127
vt 0.281172 0.495083
vt 0.269081 0.538860
vt 0.283667 0.481156
vt 0.290993 0.452598
vt 0.286768 0.324827
vt 0.056580 0.319391
vt 0.056580 0.305310
vt 0.056877 0.492602
vt 0.053480 0.452598
vt 0.198739 0.106545
vt 0.134123 0.627889
vt 0.195639 0.303710
vt 0.258399 0.676462
vt 0.275932 0.631986
vt 0.247243 0.105825
vt 0.254779 0.185725
vt 0.229049 0.094096
vt 0.265331 0.545900
vt 0.150522 0.548126
vt 0.140126 0.557153
vt 0.164193 0.623740
vt 0.157695 0.557453
vt 0.134955 0.623239
vt 0.137322 0.624603
vt 0.139482 0.609349
vt 0.137471 0.612275
vt 0.187559 0.628804
vt 0.175346 0.704283
vt 0.295564 0.677099
vt 0.248242 0.703232
vt 0.305824 0.808664
vt 0.059978 0.325400
vt 0.059978 0.313808
vt 0.059978 0.546377
vt 0.053480 0.486592
vt 0.194315 0.182911
vt 0.244143 0.307281
vt 0.134920 0.711059
vt 0.192502 0.816491
vt 0.222180 0.909521
vt 0.205015 0.308260
vt 0.200152 0.183589
vt 0.208115 0.104172
vt 0.292386 0.634143
vt 0.300655 0.640645
vt 0.297389 0.632353
vt 0.225949 0.314786
vt 0.245287 0.107174
vt 0.251691 0.183455
vt 0.210855 0.101601
vt 0.229826 0.097207
vt 0.271205 0.315165
vt 0.254467 0.326359
vt 0.244434 0.452598
vt 0.135698 0.622651
vt 0.151003 0.554291
vt 0.142445 0.561722
vt 0.149132 0.674541
vt 0.160544 0.623076
vt 0.156908 0.561970
vt 0.130808 0.677033
vt 0.126164 0.673055
vt 0.134006 0.624546
vt 0.181197 0.711852
vt 0.160914 0.776663
vt 0.302988 0.809619
vt 0.238779 0.817284
vt 0.268458 0.910314
vt 0.287942 0.326359
vt 0.067452 0.327668
vt 0.067452 0.317016
vt 0.056580 0.537878
vt 0.056877 0.480583
vt 0.242186 0.301654
vt 0.260075 0.808884
vt 0.136958 0.626933
vt 0.138182 0.703647
vt 0.140393 0.816362
vt 0.170071 0.909393
vt 0.227653 0.934214
vt 0.230294 0.904200
vt 0.281890 0.640323
vt 0.275081 0.707134
vt 0.207755 0.303056
vt 0.226726 0.308032
vt 0.241777 0.167973
vt 0.247049 0.184827
vt 0.203319 0.179751
vt 0.214365 0.103584
vt 0.229049 0.103961
vt 0.272170 0.320906
vt 0.257947 0.330419
vt 0.248955 0.452598
vt 0.251367 0.479624
vt 0.128458 0.674187
vt 0.129245 0.669671
vt 0.139347 0.623315
vt 0.149068 0.607993
vt 0.153832 0.557760
vt 0.146200 0.709967
vt 0.146814 0.669972
vt 0.159801 0.623665
vt 0.162359 0.608221
vt 0.167111 0.816820
vt 0.152013 0.811633
vt 0.291774 0.452598
vt 0.307582 0.707691
vt 0.196789 0.909850
vt 0.254372 0.934672
vt 0.267459 0.904837
vt 0.286393 0.330419
vt 0.064351 0.478315
vt 0.064351 0.488967
vt 0.056877 0.492175
vt 0.238676 0.299670
vt 0.268412 0.811364
vt 0.139457 0.776296
vt 0.152175 0.825568
vt 0.181854 0.918598
vt 0.239436 0.943420
vt 0.234670 0.924142
vt 0.211265 0.298064
vt 0.225949 0.304921
vt 0.239036 0.173177
vt 0.240780 0.287878
vt 0.207961 0.178378
vt 0.216322 0.109211
vt 0.227340 0.109829
vt 0.271205 0.326648
vt 0.259496 0.334479
vt 0.254846 0.475564
vt 0.251546 0.452598
vt 0.268104 0.490819
vt 0.145720 0.703802
vt 0.132939 0.666408
vt 0.143372 0.624707
vt 0.162168 0.625029
vt 0.150272 0.666545
vt 0.142407 0.673373
vt 0.136981 0.666317
vt 0.147402 0.666655
vt 0.284842 0.479624
vt 0.289184 0.452598
vt 0.302937 0.703712
vt 0.302624 0.811949
vt 0.265358 0.907630
vt 0.252431 0.918855
vt 0.242694 0.920718
vt 0.250962 0.927218
vt 0.261458 0.921039
vt 0.271368 0.903835
vt 0.305940 0.812006
vt 0.284716 0.667310
vt 0.256127 0.924510
vt 0.282913 0.334479
vt 0.235936 0.302241
vt 0.238867 0.903278
vt 0.271728 0.811420
vt 0.281090 0.703338
vt 0.243511 0.907256
vt 0.244125 0.931576
vt 0.213221 0.296715
vt 0.224240 0.307066
vt 0.215644 0.170461
vt 0.210800 0.184825
vt 0.212544 0.299526
vt 0.211050 0.180648
vt 0.258321 0.336011
vt 0.269081 0.328815
vt 0.269069 0.485077
vt 0.256395 0.471504
vt 0.250764 0.452598
vt 0.138844 0.674086
vt 0.283293 0.475564
vt 0.284663 0.452598
vt 0.279841 0.336011
vt 0.284613 0.706204
vt 0.287546 0.670779
vt 0.275753 0.812812
vt 0.305288 0.706558
vt 0.281197 0.452598
vt 0.276741 0.469972
vt 0.265981 0.477168
vt 0.255221 0.469972
vt 0.268104 0.479336
vt 0.279813 0.471504
vt 0.304992 0.813313
vt 0.286931 0.710773
vt 0.288026 0.676944
vt 0.247553 0.907166
vt 0.279402 0.813476
vt 0.304500 0.711074
vt 0.268228 0.907520
vt 0.304249 0.813902
vt 0.255994 0.918142
vt 0.286343 0.714090
vt 0.294902 0.706659
vt 0.251247 0.903902
vt 0.280145 0.812888
vt 0.300807 0.714338
vt 0.268816 0.904203
vt 0.300599 0.813238
vt 0.258420 0.913230
vt 0.283474 0.714201
vt 0.291338 0.707372
vt 0.252035 0.899386
vt 0.277778 0.811524
vt 0.296765 0.714428
vt 0.266498 0.899634
vt 0.296574 0.811846
vt 0.257940 0.907065
vt 0.249684 0.896540
vt 0.255110 0.903596
vt 0.262975 0.896768
s 1
usemtl Texture
f 1/1/1 2/2/2 3/3/3 4/4/4
f 1/1/1 4/4/4 5/5/5 6/6/6 7/7/7 8/8/8 9/9/9 10/8/10 11/7/11 12/10/12 13/5/13 14/4/14
f 14/4/14 15/3/15 2/2/2 1/1/1
f 3/3/3 2/2/2 16/11/16 17/12/17
f 3/3/3 18/13/18 5/5/5 4/4/4
f 5/5/5 18/13/18 19/14/19 6/6/6
f 7/7/7 6/6/6 19/14/19 20/15/20
f 8/8/8 7/7/7 20/15/20 21/16/21
f 9/9/9 8/8/8 21/16/21 22/17/22
f 10/8/10 9/9/9 22/17/22 23/16/23
f 11/7/11 10/8/10 23/16/23 24/15/24
f 12/10/12 11/7/11 24/15/24 25/14/25
f 13/5/13 12/10/12 25/14/25 26/18/26
f 14/4/14 13/5/13 26/18/26 15/3/15
f 2/2/2 15/3/15 27/12/27 16/11/16
f 18/13/18 3/3/3 17/12/17 28/19/28
f 16/11/16 29/20/29 33/21/33 17/12/17
f 19/14/19 18/13/18 28/19/28 30/22/30
f 15/3/15 26/18/26 31/23/31 27/12/27
f 27/12/27 32/21/32 29/20/29 16/11/16
f 17/12/17 33/21/33 35/24/35 28/19/28
f 20/15/20 19/14/19 30/22/30 34/25/34
f 28/19/28 35/24/35 45/26/45 30/22/30
f 21/16/21 20/15/20 34/25/34 36/27/36
f 22/17/22 21/16/21 36/27/36 37/28/37
f 23/16/23 22/17/22 37/28/37 38/27/38
f 24/15/24 23/16/23 38/27/38 39/29/39
f 25/14/25 24/15/24 39/29/39 40/30/40
f 26/18/26 25/14/25 40/30/40 31/23/31
f 31/23/31 41/31/41 32/21/32 27/12/27
f 33/21/33 29/20/29 42/32/42 43/33/43
f 29/20/29 32/21/32 44/33/44 42/32/42
f 30/22/30 45/26/45 46/34/46 34/25/34
f 34/25/34 46/34/46 47/35/47 36/27/36
f 36/27/36 47/35/47 48/36/48 37/28/37
f 37/28/37 48/36/48 49/35/49 38/27/38
f 38/27/38 49/35/49 50/37/50 39/29/39
f 39/29/39 50/37/50 51/38/51 40/30/40
f 40/30/40 51/38/51 41/31/41 31/23/31
f 41/31/41 52/39/52 44/33/44 32/21/32
f 33/21/33 43/33/43 56/39/56 35/24/35
f 53/40/53 43/33/43 42/32/42 54/41/54
f 54/41/54 42/32/42 44/33/44 55/40/55
f 35/24/35 56/39/56 60/42/60 45/26/45
f 51/38/51 57/42/57 52/39/52 41/31/41
f 58/43/58 56/39/56 43/33/43 53/40/53
f 55/40/55 44/33/44 52/39/52 59/43/59
f 45/26/45 60/42/60 61/44/61 46/34/46
f 46/34/46 61/44/61 62/45/62 47/35/47
f 47/35/47 62/45/62 63/46/63 48/36/48
f 48/36/48 63/46/63 64/45/64 49/35/49
f 49/35/49 64/45/64 65/47/65 50/37/50
f 50/37/50 65/47/65 57/42/57 51/38/51
f 52/39/52 57/42/57 66/48/66 67/49/67 59/43/59
f 60/42/60 56/39/56 58/43/58 68/49/68 69/48/69
f 66/48/66 57/42/57 65/47/65 70/50/70
f 71/50/71 61/44/61 60/42/60 69/48/69
f 72/51/72 62/45/62 61/44/61 71/50/71
f 73/52/73 63/46/63 62/45/62 72/51/72
f 74/51/74 64/45/64 63/46/63 73/52/73
f 70/50/70 65/47/65 64/45/64 74/51/74
f 54/53/54 75/54/75 76/55/76 77/56/77 68/57/68 58/58/58 53/59/53
f 78/56/78 79/55/79 75/54/75 54/53/54 55/59/55 59/58/59 67/57/67
f 76/55/76 75/54/75 94/60/94 80/61/80
f 77/56/77 76/55/76 81/62/81 82/63/82 83/64/83 84/65/84 85/66/85
f 68/57/68 77/56/77 86/67/86 87/68/87 73/69/73 72/70/72 71/71/71 69/72/69
f 78/56/78 67/57/67 66/73/66 70/71/70 74/70/74 73/69/73 87/68/87 88/67/88
f 89/74/89 90/75/90 79/55/79 78/56/78 91/76/91 92/77/92 93/78/93
f 75/54/75 79/55/79 111/79/111 94/60/94
f 80/61/80 95/80/95 81/62/81 76/55/76
f 77/56/77 85/66/85 96/81/96 97/82/97 98/83/98 99/84/99 86/67/86
f 82/63/82 81/62/81 155/85/155 122/86/122 100/87/100
f 83/64/83 82/63/82 100/87/100 157/88/157 156/89/156 101/90/101
f 83/64/83 101/90/101 84/65/84
f 107/91/107 108/92/108 90/75/90 89/74/89 109/93/109 110/94/110
f 92/77/92 112/95/112 106/96/106 93/78/93
f 80/61/80 94/60/94 113/97/113 114/98/114
f 95/80/95 80/61/80 114/98/114 115/99/115
f 96/81/96 102/100/102 116/101/116 97/82/97
f 117/102/117 118/103/118 99/84/99 98/83/98 119/104/119
f 101/90/101 102/100/102 96/81/96 85/66/85 84/65/84
f 105/105/105 87/68/87 86/67/86 103/106/103
f 103/106/103 86/67/86 99/84/99 120/107/120
f 123/108/123 104/109/104 91/76/91 78/56/78 88/67/88 163/110/163 220/111/219 161/112/161
f 124/106/124 88/67/88 87/68/87 105/105/105
f 106/96/106 125/113/125 109/93/109 89/74/89 93/78/93
f 126/114/126 166/115/166 129/116/129 107/91/107 110/94/110
f 127/117/127 128/118/128 108/92/108 107/91/107 129/116/129 130/119/130
f 90/75/90 108/92/108 174/120/174 131/80/131
f 109/93/109 125/113/125 126/114/126 110/94/110
f 131/80/131 111/79/111 79/55/79 90/75/90
f 112/95/112 92/77/92 91/76/91 104/109/104 132/121/132
f 106/96/106 112/95/112 177/122/177 133/123/133
f 94/60/94 111/79/111 134/98/134 113/97/113
f 135/124/135 136/125/136 137/126/137 138/127/138 139/128/139 140/129/140 141/130/141 142/126/142 115/99/115 114/98/114 113/97/113
f 121/131/121 95/80/95 115/99/115 142/126/142
f 102/100/102 143/132/143 144/133/144 116/101/116
f 116/101/116 145/134/145 119/104/119 98/83/98 97/82/97
f 119/104/119 145/134/145 146/135/146 117/102/117
f 147/136/147 148/137/148 118/103/118 117/102/117 149/138/149 150/139/150 151/140/151 152/141/152 153/142/153
f 118/103/118 154/143/154 120/107/120 99/84/99
f 155/85/155 81/62/81 95/80/95 121/131/121
f 100/87/100 122/86/122 207/144/206 208/145/207 157/88/157
f 101/90/101 156/89/156 143/132/143 102/100/102
f 103/106/103 158/146/158 159/147/159 105/105/105
f 120/107/120 160/148/160 158/146/158 103/106/103
f 123/108/123 162/149/162 132/121/132 104/109/104
f 88/67/88 124/106/124 214/107/213 163/110/163
f 105/105/105 159/147/159 164/146/164 124/106/124
f 125/113/125 106/96/106 133/123/133 165/150/165
f 127/117/127 130/119/130 167/151/167 168/152/168 169/153/169 170/154/170 171/137/171
f 172/155/172 173/156/173 128/118/128 127/117/127
f 108/92/108 128/118/128 225/157/224 174/120/174
f 126/114/126 125/113/125 165/150/165 175/158/175
f 111/79/111 131/80/131 176/99/176 134/98/134
f 112/95/112 132/121/132 213/159/212 177/122/177
f 178/126/178 179/125/179 135/124/135 113/97/113 134/98/134 176/99/176 180/160/180 181/130/181 182/161/182 183/162/183 140/129/140 139/128/139 184/127/184
f 135/124/135 185/163/185 186/164/186 136/125/136
f 136/125/136 186/164/186 187/165/187 137/126/137
f 137/126/137 187/165/187 188/166/188 138/127/138
f 138/127/138 188/166/188 189/167/189 139/128/139
f 190/168/190 191/157/191 141/130/141 140/129/140
f 191/157/191 121/131/121 142/126/142 141/130/141
f 144/133/144 143/132/143 209/169/208 192/170/192
f 116/101/116 144/133/144 193/171/193 145/134/145
f 145/134/145 193/171/193 194/172/194 146/135/146
f 117/102/117 146/135/146 195/173/195 149/138/149
f 147/136/147 153/142/153 202/174/201 196/175/196 198/176/197
f 197/177/197 148/137/148 147/136/147 198/176/197
f 148/137/148 199/178/198 154/143/154 118/103/118
f 150/139/150 149/138/149 195/173/195 337/179/335 293/180/292 298/181/296 242/182/241 200/183/199
f 200/183/199 201/184/200 151/140/151 150/139/150
f 152/141/152 151/140/151 201/184/200 246/185/245 202/174/201
f 152/141/152 202/174/201 153/142/153
f 154/143/154 203/186/202 160/148/160 120/107/120
f 121/131/121 191/157/191 204/118/203 155/85/155
f 122/86/122 155/85/155 204/118/203 205/187/204 206/188/205 207/144/206
f 143/132/143 156/89/156 249/189/248 209/169/208
f 158/146/158 160/148/160 203/186/202 247/190/246 297/191/295 390/192/386 347/193/344 248/186/247 211/194/210 210/195/209 159/147/159
f 161/112/161 212/196/211 162/149/162 123/108/123
f 132/121/132 162/149/162 259/197/258 213/159/212
f 210/195/209 260/194/259 313/186/311 409/193/405 390/192/386 297/191/295 346/198/343 362/191/359 314/190/312 261/186/260 215/148/214 164/146/164 159/147/159
f 124/106/124 164/146/164 215/148/214 214/107/213
f 166/115/166 126/114/126 175/158/175 216/199/215
f 172/155/172 127/117/127 171/137/171 217/200/216
f 167/151/167 130/119/130 129/116/129 166/115/166 218/201/217
f 167/151/167 218/201/217 219/202/218 168/152/168
f 219/202/218 271/203/270 221/204/220 169/153/169 168/152/168
f 220/111/219 163/110/163 170/154/170 169/153/169 221/204/220 222/205/221
f 170/154/170 223/206/222 269/178/268 171/137/171
f 173/156/173 172/155/172 264/207/263 224/208/223 321/209/319 369/210/366 273/211/272 371/212/368 281/213/280
f 128/118/128 173/156/173 232/168/231 225/157/224
f 131/80/131 174/120/174 180/160/180 176/99/176
f 177/122/177 226/214/225 227/215/226 133/123/133
f 133/123/133 227/215/226 228/216/227 165/150/165
f 184/127/184 229/166/228 230/165/229 178/126/178
f 178/126/178 230/165/229 231/164/230 179/125/179
f 179/125/179 231/164/230 185/163/185 135/124/135
f 174/120/174 225/157/224 181/130/181 180/160/180
f 225/157/224 232/168/231 182/161/182 181/130/181
f 232/168/231 233/217/232 183/162/183 182/161/182
f 233/217/232 190/168/190 140/129/140 183/162/183
f 139/128/139 189/167/189 229/166/228 184/127/184
f 186/164/186 185/163/185 234/218/233 235/219/234
f 187/165/187 186/164/186 235/219/234 236/220/235
f 188/166/188 187/165/187 236/220/235 237/221/236
f 189/167/189 188/166/188 237/221/236 238/222/237
f 191/157/191 190/168/190 250/156/249 204/118/203
f 192/170/192 239/223/238 193/171/193 144/133/144
f 194/172/194 193/171/193 239/223/238 240/224/239
f 146/135/146 194/172/194 241/225/240 195/173/195
f 198/176/197 196/175/196 243/226/242 197/177/197
f 148/137/148 197/177/197 243/226/242 244/227/243 344/228/341 295/229/197 296/200/294
f 199/178/198 148/137/148 296/200/294 245/230/244
f 242/182/241 201/184/200 200/183/199
f 199/178/198 247/190/246 203/186/202 154/143/154
f 156/89/156 157/88/157 258/231/257 249/189/248
f 205/187/204 204/118/203 250/156/249 251/232/250 252/233/251 253/234/252 254/235/253 255/236/254
f 206/188/205 205/187/204 255/236/254 256/237/255 304/238/302 257/239/256
f 206/188/205 257/239/256 208/145/207 207/144/206
f 157/88/157 208/145/207 305/240/303 258/231/257
f 162/149/162 212/196/211 310/241/308 259/197/258
f 163/110/163 214/107/213 223/206/222 170/154/170
f 214/107/213 215/148/214 261/186/260 223/206/222
f 165/150/165 228/216/227 262/242/261 175/158/175
f 216/199/215 263/243/262 218/201/217 166/115/166
f 264/207/263 172/155/172 217/200/216 265/244/264 266/245/265 267/246/266 268/247/267
f 171/137/171 269/178/268 316/230/314 217/200/216
f 219/202/218 218/201/217 263/243/262 270/248/269
f 222/205/221 272/249/271 212/196/211 161/112/161 220/111/219
f 221/204/220 271/203/270 272/249/271 222/205/221
f 175/158/175 262/242/261 274/250/273 216/199/215
f 213/159/212 275/251/274 226/214/225 177/122/177
f 227/215/226 226/214/225 275/251/274 323/252/321 276/253/275 277/254/276 322/255/320 363/256/360 364/257/361 315/258/313 274/250/273 262/242/261 228/216/227
f 230/165/229 229/166/228 278/221/277 279/220/278
f 231/164/230 230/165/229 279/220/278 280/259/279
f 185/163/185 231/164/230 280/259/279 234/218/233
f 233/217/232 232/168/231 173/156/173 281/213/280
f 190/168/190 233/217/232 281/213/280 250/156/249
f 229/166/228 189/167/189 238/222/237 278/221/277
f 235/219/234 234/218/233 282/260/281 283/261/282
f 236/220/235 235/219/234 283/261/282 284/165/283
f 237/221/236 236/220/235 284/165/283 285/262/284
f 238/222/237 237/221/236 285/262/284 286/263/285
f 192/170/192 209/169/208 287/264/286 288/265/287
f 239/223/238 192/170/192 288/265/287 289/266/288
f 240/224/239 290/267/289 241/225/240 194/172/194
f 195/173/195 241/225/240 291/268/290 292/269/291
f 202/174/201 246/185/245 300/270/298 350/271/347 393/272/389 443/273/439 497/274/493 540/275/536 488/276/484 436/277/432 385/278/382 341/279/338 196/175/196
f 196/175/196 294/280/293 342/281/339 244/227/243 243/226/242
f 245/230/244 297/191/295 247/190/246 199/178/198
f 298/181/296 299/282/297 201/184/200 242/182/241
f 201/184/200 299/282/297 300/270/298 246/185/245
f 251/232/250 250/156/249 281/213/280 371/212/368 499/283/495 500/284/496 444/285/440 395/286/391 301/287/299
f 252/233/251 251/232/250 301/287/299 352/288/349 302/289/300
f 252/233/251 302/289/300 348/290/345 293/180/292 337/179/335 338/291/335 380/292/377 382/293/379 303/294/301 253/234/252
f 254/235/253 256/237/255 255/236/254
f 208/145/207 257/239/256 353/295/350 305/240/303
f 209/169/208 249/189/248 306/296/304 287/264/286
f 210/195/209 211/194/210 307/297/305 308/298/306
f 211/194/210 248/186/247 309/299/307 307/297/305
f 259/197/258 311/300/309 275/251/274 213/159/212
f 260/194/259 210/195/209 308/298/306 312/301/310
f 223/206/222 261/186/260 314/190/312 269/178/268
f 216/199/215 274/250/273 315/258/313 263/243/262
f 264/207/263 268/247/267 365/302/362 224/208/223
f 217/200/216 316/230/314 345/303/342 265/244/264
f 266/245/265 265/244/264 296/200/294 415/304/411 461/305/457 416/306/412 317/307/315
f 318/308/316 367/309/364 365/302/362 268/247/267 267/246/266
f 270/248/269 319/310/317 271/203/270 219/202/218
f 272/249/271 271/203/270 319/310/317 320/311/318
f 279/220/278 278/221/277 324/262/322 325/165/323
f 280/259/279 279/220/278 325/165/323 326/312/324
f 234/218/233 280/259/279 326/312/324 282/260/281
f 278/221/277 238/222/237 286/263/285 324/262/322
f 327/313/325 283/261/282 282/260/281 328/314/326
f 329/126/327 284/165/283 283/261/282 327/313/325
f 330/315/328 285/262/284 284/165/283 329/126/327
f 331/316/329 286/263/285 285/262/284 330/315/328
f 334/317/332 378/318/375 431/319/427 482/320/478 379/321/376 335/322/333 333/323/331 289/266/288 288/265/287 287/264/286 332/324/330
f 240/224/239 239/223/238 289/266/288 333/323/331
f 290/267/289 240/224/239 333/323/331 335/322/333
f 290/267/289 336/325/334 291/268/290 241/225/240
f 337/179/335 195/173/195 292/269/291 338/291/335
f 292/269/291 291/268/290 339/326/336 340/327/337
f 341/279/338 343/328/340 294/280/293 196/175/196
f 245/230/244 296/200/294 265/244/264 345/303/342
f 345/303/342 346/198/343 297/191/295 245/230/244
f 293/180/292 348/290/345 299/282/297 298/181/296
f 299/282/297 349/329/346 350/271/347 300/270/298
f 249/189/248 258/231/257 351/330/348 306/296/304
f 303/294/301 340/327/337 256/237/255 254/235/253 253/234/252
f 340/327/337 339/326/336 304/238/302 256/237/255
f 257/239/256 304/238/302 399/331/395 353/295/350
f 258/231/257 305/240/303 354/332/351 351/330/348
f 287/264/286 306/296/304 351/330/348 354/332/351 400/333/396 448/334/444 430/335/426 379/321/376 482/320/478 505/336/501 401/337/397 394/338/390 332/324/330
f 307/297/305 355/339/352 356/340/353 308/298/306
f 248/186/247 347/193/344 357/341/354 309/299/307
f 309/299/307 358/342/355 355/339/352 307/297/305
f 212/196/211 272/249/271 320/311/318 310/241/308
f 310/241/308 359/343/356 311/300/309 259/197/258
f 313/186/311 260/194/259 312/301/310 360/299/357
f 308/298/306 356/340/353 361/339/358 312/301/310
f 269/178/268 314/190/312 362/191/359 316/230/314
f 263/243/262 315/258/313 364/257/361 270/248/269
f 317/307/315 366/344/363 318/308/316 267/246/266 266/245/265
f 270/248/269 364/257/361 368/345/365 319/310/317
f 321/209/319 224/208/223 365/302/362 414/346/410 370/347/367
f 277/254/276 276/253/275 372/348/369 373/349/370
f 276/253/275 323/252/321 374/350/371 372/348/369
f 375/126/372 325/165/323 324/262/322 376/315/373
f 377/313/374 326/312/324 325/165/323 375/126/372
f 328/314/326 282/260/281 326/312/324 377/313/374
f 376/315/373 324/262/322 286/263/285 331/316/329
f 376/315/373 331/316/329 330/315/328 329/126/327 327/313/325 328/314/326 377/313/374 375/126/372
f 336/325/334 290/267/289 335/322/333 379/321/376
f 338/291/335 292/269/291 380/292/377
f 336/325/334 381/351/378 339/326/336 291/268/290
f 380/292/377 292/269/291 340/327/337 382/293/379
f 342/281/339 294/280/293 383/352/380 384/353/381
f 385/278/382 386/354/383 343/328/340 341/279/338
f 294/280/293 343/328/340 387/355/384 383/352/380
f 342/281/339 432/356/428 388/357/385 344/228/341 244/227/243
f 388/357/385 389/358/197 295/229/197 344/228/341
f 389/358/197 440/359/436 415/304/411 296/200/294 295/229/197
f 316/230/314 362/191/359 346/198/343 345/303/342
f 348/290/345 391/360/387 349/329/346 299/282/297
f 349/329/346 392/361/388 393/272/389 350/271/347
f 395/286/391 396/362/392 352/288/349 301/287/299
f 397/363/393 302/289/300 352/288/349 398/364/394
f 382/293/379 340/327/337 303/294/301
f 304/238/302 339/326/336 381/351/378 399/331/395
f 305/240/303 353/295/350 400/333/396 354/332/351
f 355/339/352 402/365/398 403/366/399 356/340/353
f 347/193/344 390/192/386 404/367/400 357/341/354
f 357/341/354 405/368/401 358/342/355 309/299/307
f 358/342/355 406/299/402 402/365/398 355/339/352
f 320/311/318 407/369/403 359/343/356 310/241/308
f 409/193/405 313/186/311 360/299/357 410/341/406
f 312/301/310 361/339/358 411/342/407 360/299/357
f 356/340/353 403/366/399 412/365/408 361/339/358
f 322/255/320 277/254/276 373/349/370 413/370/409
f 416/306/412 366/344/363 317/307/315
f 318/308/316 366/344/363 417/371/413 418/372/414
f 318/308/316 418/372/414 419/373/415 367/309/364
f 420/374/416 455/375/451 408/376/404 323/252/321 275/251/274 311/300/309 359/343/356 407/369/403 368/345/365 364/257/361 363/256/360
f 319/310/317 368/345/365 407/369/403 320/311/318
f 321/209/319 370/347/367 369/210/366
f 421/377/417 470/378/466 445/379/441 499/283/495 371/212/368 273/211/272
f 363/256/360 322/255/320 413/370/409 422/380/418
f 372/348/369 423/381/419 424/382/420 373/349/370
f 323/252/321 408/376/404 425/383/421 374/350/371
f 374/350/371 426/384/422 423/381/419 372/348/369
f 332/324/330 427/385/423 428/386/424 334/317/332
f 334/317/332 428/386/424 429/387/425 378/318/375
f 381/351/378 336/325/334 379/321/376 430/335/426
f 432/356/428 342/281/339 384/353/381 433/388/429
f 384/353/381 383/352/380 434/389/430 435/390/431
f 436/277/432 437/391/433 386/354/383 385/278/382
f 343/328/340 386/354/383 438/392/434 387/355/384
f 383/352/380 387/355/384 439/393/435 434/389/430
f 389/358/197 388/357/385 493/394/489 488/276/484 540/275/536 539/395/535 494/396/490 440/359/436
f 397/363/393 391/360/387 348/290/345 302/289/300
f 391/360/387 441/397/437 392/361/388 349/329/346
f 392/361/388 442/398/438 443/273/439 393/272/389
f 444/285/440 445/379/441 396/362/392 395/286/391
f 352/288/349 396/362/392 502/399/498 398/364/394
f 446/400/442 397/363/393 398/364/394 447/401/443
f 353/295/350 399/331/395 448/334/444 400/333/396
f 394/338/390 449/402/445 427/385/423 332/324/330
f 450/403/446 451/404/447 403/366/399 402/365/398
f 390/192/386 409/193/405 410/341/406 404/367/400
f 404/367/400 452/405/448 405/368/401 357/341/354
f 405/368/401 453/406/449 406/299/402 358/342/355
f 454/186/450 450/403/446 402/365/398 406/299/402
f 360/299/357 411/342/407 456/368/452 410/341/406
f 361/339/358 412/365/408 457/299/453 411/342/407
f 451/404/447 458/403/454 412/365/408 403/366/399
f 373/349/370 424/382/420 459/407/455 413/370/409
f 367/309/364 460/408/456 414/346/410 365/302/362
f 461/305/457 462/409/458 366/344/363 416/306/412
f 417/371/413 366/344/363 462/409/458 463/410/459
f 418/372/414 417/371/413 464/411/460 465/412/461
f 418/372/414 465/412/461 466/413/462 419/373/415
f 419/373/415 467/414/463 460/408/456 367/309/364
f 370/347/367 468/415/464 421/377/417 273/211/272 369/210/366
f 414/346/410 469/416/465 468/415/464 370/347/367
f 420/374/416 363/256/360 422/380/418 471/417/467
f 413/370/409 459/407/455 472/418/468 422/380/418
f 423/381/419 473/419/469 474/420/470 424/382/420
f 408/376/404 455/375/451 475/421/471 425/383/421
f 425/383/421 476/422/472 426/384/422 374/350/371
f 426/384/422 477/423/473 473/419/469 423/381/419
f 428/386/424 427/385/423 478/424/474 479/425/475
f 429/387/425 428/386/424 479/425/475 480/426/476
f 378/318/375 429/387/425 481/427/477 431/319/427
f 399/331/395 381/351/378 430/335/426 448/334/444
f 483/428/479 432/356/428 433/388/429 484/429/480
f 433/388/429 384/353/381 435/390/431 485/430/481
f 486/431/482 435/390/431 434/389/430 487/432/483
f 488/276/484 489/433/485 437/391/433 436/277/432
f 386/354/383 437/391/433 490/434/486 438/392/434
f 387/355/384 438/392/434 491/435/487 439/393/435
f 487/432/483 434/389/430 439/393/435 492/436/488
f 388/357/385 432/356/428 483/428/479 493/394/489
f 446/400/442 441/397/437 391/360/387 397/363/393
f 441/397/437 495/437/491 442/398/438 392/361/388
f 442/398/438 496/438/492 497/274/493 443/273/439
f 401/337/397 498/439/494 449/402/445 394/338/390
f 500/284/496 445/379/441 444/285/440
f 445/379/441 470/378/466 501/440/497 396/362/392
f 503/441/499 446/400/442 447/401/443 504/442/500
f 398/364/394 502/399/498 545/443/541 447/401/443
f 427/385/423 449/402/445 506/444/502 478/424/474
f 507/445/503 508/186/504 458/403/454 451/404/447 450/403/446 454/186/450 509/445/505 510/446/506
f 410/341/406 456/368/452 452/405/448 404/367/400
f 452/405/448 511/447/507 453/406/449 405/368/401
f 509/445/505 454/186/450 406/299/402 453/406/449
f 411/342/407 457/299/453 512/406/508 456/368/452
f 458/403/454 508/186/504 457/299/453 412/365/408
f 424/382/420 474/420/470 513/448/509 459/407/455
f 460/408/456 514/449/510 469/416/465 414/346/410
f 440/359/436 494/396/490 462/409/458 461/305/457 415/304/411
f 463/410/459 515/450/511 464/411/460 417/371/413
f 465/412/461 464/411/460 516/451/512 517/452/513
f 465/412/461 517/452/513 518/453/514 466/413/462
f 467/414/463 419/373/415 466/413/462 519/454/515
f 455/375/451 420/374/416 471/417/467 475/421/471
f 422/380/418 472/418/468 522/455/518 471/417/467
f 459/407/455 513/448/509 523/456/519 472/418/468
f 524/457/520 525/458/521 474/420/470 473/419/469
f 475/421/471 526/459/522 476/422/472 425/383/421
f 476/422/472 527/460/523 477/423/473 426/384/422
f 528/461/524 524/457/520 473/419/469 477/423/473
f 479/425/475 478/424/474 529/462/525 530/463/526
f 481/427/477 429/387/425 480/426/476 531/464/527
f 480/426/476 479/425/475 530/463/526 532/465/528
f 431/319/427 481/427/477 533/466/529 482/320/478
f 489/433/485 483/428/479 484/429/480 534/467/530
f 484/429/480 433/388/429 485/430/481 535/468/531
f 536/469/532 485/430/481 435/390/431 486/431/482
f 538/470/534 563/471/559 580/472/576 562/473/558 536/469/532 486/431/482 487/432/483 492/436/488
f 493/394/489 483/428/479 489/433/485 488/276/484
f 437/391/433 489/433/485 534/467/530 490/434/486
f 438/392/434 490/434/486 537/474/533 491/435/487
f 492/436/488 439/393/435 491/435/487 538/470/534
f 503/441/499 495/437/491 441/397/437 446/400/442
f 496/438/492 442/398/438 495/437/491 516/451/512
f 496/438/492 515/450/511 540/275/536 497/274/493
f 505/336/501 541/475/537 498/439/494 401/337/397
f 449/402/445 498/439/494 542/476/538 506/444/502
f 499/283/495 445/379/441 500/284/496
f 543/477/539 566/478/562 593/479/589 585/480/581 551/481/547 570/482/566 584/483/580 567/484/563 544/485/540 501/440/497 470/378/466 421/377/417 520/486/516
f 396/362/392 501/440/497 544/485/540 502/399/498
f 517/452/513 503/441/499 504/442/500 518/453/514
f 447/401/443 545/443/541 568/487/564 504/442/500
f 478/424/474 506/444/502 546/488/542 529/462/525
f 507/445/503 510/446/506 511/447/507 512/406/508
f 508/186/504 507/445/503 512/406/508 457/299/453
f 510/446/506 509/445/505 453/406/449 511/447/507
f 456/368/452 512/406/508 511/447/507 452/405/448
f 525/458/521 547/489/543 513/448/509 474/420/470
f 467/414/463 548/490/544 514/449/510 460/408/456
f 549/491/545 521/492/517 520/486/516 421/377/417 468/415/464 469/416/465 514/449/510 548/490/544 551/481/547 585/480/581 571/493/567
f 463/410/459 462/409/458 494/396/490 539/395/535
f 515/450/511 463/410/459 539/395/535 540/275/536
f 515/450/511 496/438/492 516/451/512 464/411/460
f 517/452/513 516/451/512 495/437/491 503/441/499
f 519/454/515 466/413/462 518/453/514 550/494/546
f 519/454/515 551/481/547 548/490/544 467/414/463
f 471/417/467 522/455/518 526/459/522 475/421/471
f 472/418/468 523/456/519 552/495/548 522/455/518
f 547/489/543 553/496/549 523/456/519 513/448/509
f 524/457/520 528/461/524 555/497/551 577/498/573 576/499/572 553/496/549 547/489/543 525/458/521
f 526/459/522 554/500/550 527/460/523 476/422/472
f 555/497/551 528/461/524 477/423/473 527/460/523
f 556/501/552 530/463/526 529/462/525 557/502/553
f 533/466/529 481/427/477 531/464/527 558/503/554
f 531/464/527 480/426/476 532/465/528 559/504/555
f 560/505/556 532/465/528 530/463/526 556/501/552
f 482/320/478 533/466/529 541/475/537 505/336/501
f 534/467/530 484/429/480 535/468/531 561/506/557
f 562/473/558 535/468/531 485/430/481 536/469/532
f 490/434/486 534/467/530 561/506/557 537/474/533
f 538/470/534 491/435/487 537/474/533 563/471/559
f 498/439/494 541/475/537 564/507/560 542/476/538
f 506/444/502 542/476/538 565/508/561 546/488/542
f 502/399/498 544/485/540 567/484/563 545/443/541
f 504/442/500 568/487/564 550/494/546 518/453/514
f 557/502/553 529/462/525 546/488/542 569/509/565
f 550/494/546 570/482/566 551/481/547 519/454/515
f 522/455/518 552/495/548 554/500/550 526/459/522
f 520/486/516 521/492/517 572/510/568 573/511/569
f 521/492/517 549/491/545 574/512/570 572/510/568
f 543/477/539 520/486/516 573/511/569 575/513/571
f 553/496/549 576/499/572 552/495/548 523/456/519
f 577/498/573 555/497/551 527/460/523 554/500/550
f 557/502/553 569/509/565 582/514/578 591/515/587 592/516/588 579/517/575 560/505/556 556/501/552
f 541/475/537 533/466/529 558/503/554 564/507/560
f 558/503/554 531/464/527 559/504/555 578/518/574
f 579/517/575 559/504/555 532/465/528 560/505/556
f 580/472/576 561/506/557 535/468/531 562/473/558
f 563/471/559 537/474/533 561/506/557 580/472/576
f 542/476/538 564/507/560 581/519/577 565/508/561
f 569/509/565 546/488/542 565/508/561 582/514/578
f 566/478/562 543/477/539 575/513/571 583/520/579
f 545/443/541 567/484/563 584/483/580 568/487/564
f 568/487/564 584/483/580 570/482/566 550/494/546
f 576/499/572 577/498/573 554/500/550 552/495/548
f 572/510/568 586/521/582 587/522/583 573/511/569
f 549/491/545 571/493/567 588/523/584 574/512/570
f 574/512/570 589/524/585 586/521/582 572/510/568
f 573/511/569 587/522/583 590/525/586 575/513/571
f 564/507/560 558/503/554 578/518/574 581/519/577
f 592/516/588 578/518/574 559/504/555 579/517/575
f 582/514/578 565/508/561 581/519/577 591/515/587
f 593/479/589 566/478/562 583/520/579 594/526/590
f 575/513/571 590/525/586 595/527/591 583/520/579
f 571/493/567 585/480/581 596/528/592 588/523/584
f 586/521/582 597/529/593 598/530/594 587/522/583
f 588/523/584 599/531/595 589/524/585 574/512/570
f 589/524/585 600/532/596 597/529/593 586/521/582
f 587/522/583 598/530/594 601/533/597 590/525/586
f 591/515/587 581/519/577 578/518/574 592/516/588
f 585/480/581 593/479/589 594/526/590 596/528/592
f 583/520/579 595/527/591 602/534/598 594/526/590
f 590/525/586 601/533/597 603/535/599 595/527/591
f 596/528/592 604/536/600 599/531/595 588/523/584
f 605/537/601 606/538/602 598/530/594 597/529/593
f 599/531/595 607/539/603 600/532/596 589/524/585
f 608/540/604 605/537/601 597/529/593 600/532/596
f 606/538/602 609/541/605 601/533/597 598/530/594
f 594/526/590 602/534/598 604/536/600 596/528/592
f 595/527/591 603/535/599 610/542/606 602/534/598
f 609/541/605 611/543/607 603/535/599 601/533/597
f 604/536/600 612/544/608 607/539/603 599/531/595
f 606/538/602 605/537/601 608/540/604 613/545/609 615/546/611 614/547/610 611/543/607 609/541/605
f 613/545/609 608/540/604 600/532/596 607/539/603
f 602/534/598 610/542/606 612/544/608 604/536/600
f 611/543/607 614/547/610 610/542/606 603/535/599
f 615/546/611 613/545/609 607/539/603 612/544/608
f 614/547/610 615/546/611 612/544/608 610/542/606
