# Blender 5.0.0
# www.blender.org
mtllib fungus wall big flat.mtl
o fungo.012
v -0.648462 0.482423 -0.811084
v -0.648462 0.671258 -0.700886
v -0.414464 0.514483 -1.052639
v -0.414464 0.733119 -1.052639
v -0.067776 0.505858 -0.851241
v -0.067776 0.694692 -0.741043
v -0.195827 0.514483 -1.052639
v -0.195827 0.733119 -1.052639
v -0.693998 0.385375 -0.562439
v -0.693998 0.525451 -0.518536
v 0.006514 0.385375 -0.566961
v 0.006514 0.525451 -0.523057
v -1.139253 0.175771 -0.333485
v -1.139253 0.394408 -0.333485
v 0.524110 0.207739 -0.397968
v 0.524110 0.362441 -0.397967
v -1.091221 0.207739 -0.038536
v -1.091221 0.392530 -0.038536
v 0.456592 0.207739 -0.069024
v 0.456592 0.392530 -0.069025
v -0.778226 0.207739 0.312361
v -0.778226 0.417100 0.312362
v 0.163995 0.207739 0.295593
v 0.163995 0.417100 0.295593
v -0.305766 0.514483 -1.052639
v -0.305766 0.733119 -1.052639
v -0.359768 0.378240 -0.914621
v -0.359768 0.663584 -0.748103
v -0.355135 0.100440 -0.468430
v -0.355135 0.459032 -0.468430
v -0.350929 -0.067007 -0.264823
v -0.350929 0.363982 -0.264823
v -0.342485 0.033604 -0.021681
v -0.342485 0.363982 -0.021681
v -0.300853 0.205607 0.379523
v -0.300853 0.419232 0.379523
v -0.688969 0.577951 -0.757887
v -0.439611 0.623801 -1.070715
v -0.199481 0.623801 -1.070715
v -0.051199 0.602329 -0.799662
v -0.719802 0.446559 -0.555287
v 0.038401 0.446559 -0.560858
v -1.197347 0.285090 -0.306096
v 0.605437 0.285090 -0.380694
v -1.164464 0.285090 0.010115
v 0.542251 0.285090 -0.023370
v -0.821150 0.285090 0.402252
v 0.220890 0.285090 0.382487
v -0.294151 0.285090 0.482760
v -0.320228 0.623801 -1.070715
vn -0.9287 0.1279 -0.3479
vn -0.5415 0.8246 0.1640
vn -0.2675 0.8013 -0.5351
vn -0.4687 0.1065 -0.8769
vn -0.0000 -0.0000 -1.0000
vn -0.0173 0.8220 -0.5692
vn 0.3848 0.7483 -0.5404
vn 0.4869 0.0683 -0.8708
vn 0.5524 0.8177 0.1617
vn 0.9313 0.1216 -0.3433
vn -0.0020 0.9131 0.4078
vn -0.4307 0.8635 0.2625
vn 0.0210 0.8192 0.5732
vn 0.0302 -0.5426 -0.8394
vn 0.4997 -0.4454 -0.7429
vn 0.7605 -0.4121 -0.5017
vn -0.0371 -0.8434 -0.5361
vn -0.0217 -0.7142 -0.6996
vn 0.4762 -0.5007 -0.7228
vn 0.4891 -0.7073 -0.5104
vn -0.0129 -0.9639 -0.2661
vn 0.4287 0.8668 0.2546
vn 0.6941 0.1296 -0.7081
vn -0.7085 -0.4574 -0.5374
vn -0.5395 -0.5089 -0.6708
vn -0.7963 0.0589 -0.6020
vn 0.4372 -0.8657 0.2437
vn 0.0003 -0.9663 0.2575
vn -0.5937 -0.6870 -0.4190
vn -0.9380 0.0072 -0.3465
vn -0.5375 0.7589 -0.3675
vn 0.0199 0.9683 0.2491
vn 0.4501 0.7926 -0.4113
vn 0.9321 0.0019 -0.3621
vn 0.0039 0.9973 -0.0736
vn -0.4670 0.8643 0.1867
vn -0.2381 0.8863 0.3973
vn 0.0065 0.9009 0.4339
vn -0.4977 -0.8197 0.2835
vn -0.9024 -0.0669 0.4257
vn 0.4077 0.9011 0.1475
vn 0.9092 -0.0707 0.4104
vn 0.0229 -0.1216 0.9923
vn -0.4733 -0.1026 0.8749
vn 0.2444 0.8909 0.3829
vn 0.5219 -0.1013 0.8470
vn 0.2504 -0.8727 0.4191
vn 0.0105 -0.8816 0.4719
vn -0.2464 -0.8622 0.4426
vn -0.3885 -0.4271 -0.8165
vt 0.000000 0.000000
s 1
usemtl Material.029
f 25/1/14 7/1/15 5/1/16 27/1/17
f 29/1/18 11/1/19 15/1/20 31/1/21
f 37/1/1 1/1/24 9/1/25 41/1/26
f 27/1/17 5/1/16 11/1/19 29/1/18
f 31/1/21 15/1/20 19/1/27 33/1/28
f 41/1/26 9/1/25 13/1/29 43/1/30
f 43/1/30 13/1/29 17/1/39 45/1/40
f 33/1/28 19/1/27 23/1/47 35/1/48
f 45/1/40 17/1/39 21/1/49 47/1/44
f 17/1/39 33/1/28 35/1/48 21/1/49
f 13/1/29 31/1/21 33/1/28 17/1/39
f 1/1/24 27/1/17 29/1/18 9/1/25
f 9/1/25 29/1/18 31/1/21 13/1/29
f 3/1/50 25/1/14 27/1/17 1/1/24
f 3/1/50 38/1/4 50/1/5 25/1/14
f 23/1/47 48/1/46 49/1/43 35/1/48
f 19/1/27 46/1/42 48/1/46 23/1/47
f 35/1/48 49/1/43 47/1/44 21/1/49
f 15/1/20 44/1/34 46/1/42 19/1/27
f 11/1/19 42/1/23 44/1/34 15/1/20
f 5/1/16 40/1/10 42/1/23 11/1/19
f 7/1/15 39/1/8 40/1/10 5/1/16
f 25/1/14 50/1/5 39/1/8 7/1/15
f 1/1/24 37/1/1 38/1/4 3/1/50
usemtl Material.024
f 37/1/1 2/1/2 4/1/3 38/1/4
f 50/1/5 26/1/6 8/1/7 39/1/8
f 39/1/8 8/1/7 6/1/9 40/1/10
f 28/1/11 2/1/2 10/1/12 30/1/13
f 26/1/6 4/1/3 2/1/2 28/1/11
f 40/1/10 6/1/9 12/1/22 42/1/23
f 30/1/13 10/1/12 14/1/31 32/1/32
f 42/1/23 12/1/22 16/1/33 44/1/34
f 34/1/35 18/1/36 22/1/37 36/1/38
f 32/1/32 14/1/31 18/1/36 34/1/35
f 44/1/34 16/1/33 20/1/41 46/1/42
f 49/1/43 36/1/38 22/1/37 47/1/44
f 46/1/42 20/1/41 24/1/45 48/1/46
f 48/1/46 24/1/45 36/1/38 49/1/43
f 16/1/33 32/1/32 34/1/35 20/1/41
f 20/1/41 34/1/35 36/1/38 24/1/45
f 12/1/22 30/1/13 32/1/32 16/1/33
f 8/1/7 26/1/6 28/1/11 6/1/9
f 6/1/9 28/1/11 30/1/13 12/1/22
f 38/1/4 4/1/3 26/1/6 50/1/5
f 18/1/36 45/1/40 47/1/44 22/1/37
f 14/1/31 43/1/30 45/1/40 18/1/36
f 10/1/12 41/1/26 43/1/30 14/1/31
f 2/1/2 37/1/1 41/1/26 10/1/12
