# Blender 5.0.0
# www.blender.org
mtllib fungus pink small.mtl
o fungo.043
v 1.613776 -0.017456 -4.205711
v 1.486463 -0.021201 -4.153072
v 1.486463 -0.021201 -4.047793
v 1.613776 -0.017456 -3.995156
v 1.741089 -0.013710 -4.047793
v 1.741089 -0.013710 -4.153072
v 1.563441 0.144618 -4.167335
v 1.482535 0.142238 -4.133885
v 1.482535 0.142238 -4.066982
v 1.563441 0.144618 -4.033530
v 1.644346 0.146998 -4.066982
v 1.644346 0.146998 -4.133885
v 1.535477 0.326701 -4.165377
v 1.456940 0.324390 -4.132905
v 1.456940 0.324390 -4.067961
v 1.535477 0.326701 -4.035489
v 1.614014 0.329011 -4.067961
v 1.614014 0.329011 -4.132905
v 1.527200 0.519124 -4.164651
v 1.464932 0.509956 -4.132543
v 1.464932 0.509956 -4.068325
v 1.527200 0.519124 -4.036215
v 1.608706 0.517279 -4.068325
v 1.608706 0.517279 -4.132542
v 1.546906 0.687900 -4.169359
v 1.488332 0.675106 -4.134896
v 1.488333 0.675106 -4.065970
v 1.546906 0.687901 -4.031506
v 1.607545 0.675578 -4.065970
v 1.607545 0.675578 -4.134896
v 1.473140 1.174778 -4.155875
v 1.431008 1.170272 -4.128153
v 1.431008 1.170272 -4.072712
v 1.473140 1.174778 -4.044992
v 1.515271 1.186058 -4.072712
v 1.515271 1.186058 -4.128153
v 1.471195 1.187747 -4.178243
v 1.412066 1.181424 -4.139338
v 1.412066 1.181424 -4.061529
v 1.471195 1.187747 -4.022624
v 1.530325 1.203578 -4.061529
v 1.530325 1.203578 -4.139338
v 1.480917 1.116063 -4.234231
v 1.379241 1.105191 -4.167333
v 1.379241 1.105191 -4.033535
v 1.480917 1.116063 -3.966635
v 1.582593 1.143286 -4.033535
v 1.582593 1.143286 -4.167333
v 1.502307 0.979037 -4.336559
v 1.322869 0.959849 -4.218496
v 1.322869 0.959849 -3.982370
v 1.502307 0.979037 -3.864307
v 1.681745 1.027080 -3.982370
v 1.681745 1.027080 -4.218496
v 1.513973 0.924340 -4.413646
v 1.275955 0.898888 -4.257039
v 1.275955 0.898888 -3.943827
v 1.513973 0.924340 -3.787220
v 1.751992 0.988068 -3.943827
v 1.751992 0.988068 -4.257039
v 1.512029 0.955666 -4.423490
v 1.266530 0.929415 -4.261961
v 1.266530 0.929415 -3.938905
v 1.512029 0.955666 -3.777377
v 1.757528 1.021397 -3.938905
v 1.757528 1.021397 -4.261961
v 1.500362 1.037839 -4.353407
v 1.308121 1.017283 -4.226920
v 1.308121 1.017283 -3.973947
v 1.500362 1.037839 -3.847460
v 1.692603 1.089311 -3.973947
v 1.692603 1.089310 -4.226920
v 1.486751 1.191766 -4.225620
v 1.391619 1.181593 -4.163026
v 1.391619 1.181593 -4.037841
v 1.486751 1.191766 -3.975247
v 1.581883 1.217237 -4.037841
v 1.581883 1.217237 -4.163026
v 1.473140 1.248799 -4.139869
v 1.443171 1.245594 -4.120151
v 1.443171 1.245594 -4.080715
v 1.473140 1.248799 -4.060997
v 1.503108 1.256823 -4.080715
v 1.503108 1.256823 -4.120151
vn 0.7955 -0.3878 -0.4656
vn 0.7615 0.3334 -0.5559
vn 0.7615 0.3334 0.5559
vn 0.7955 -0.3878 0.4656
vn 0.0659 -0.5341 0.8429
vn -0.0242 0.1150 0.9931
vn -0.8333 -0.0352 0.5517
vn -0.6489 -0.5927 0.4771
vn -0.6489 -0.5927 -0.4771
vn -0.8333 -0.0352 -0.5517
vn -0.0242 0.1150 -0.9931
vn 0.0659 -0.5341 -0.8429
vn -0.0251 0.0081 0.9997
vn -0.8449 -0.0430 0.5332
vn -0.8449 -0.0430 -0.5332
vn -0.0251 0.0081 -0.9997
vn 0.8187 0.0835 -0.5681
vn 0.8187 0.0835 0.5681
vn -0.8541 0.0668 0.5159
vn -0.8541 0.0668 -0.5159
vn 0.8360 0.0029 -0.5487
vn 0.8360 0.0029 0.5486
vn -0.0547 0.0077 0.9985
vn -0.0547 0.0077 -0.9985
vn -0.8537 0.0083 -0.5206
vn 0.0235 0.0186 -0.9996
vn 0.8579 0.0654 -0.5096
vn 0.8579 0.0654 0.5096
vn 0.0235 0.0186 0.9996
vn -0.8537 0.0083 0.5206
vn 0.8355 -0.3996 -0.3772
vn 0.8355 -0.3996 0.3772
vn 0.1015 -0.5474 0.8307
vn -0.6666 -0.6357 0.3893
vn -0.6666 -0.6357 -0.3893
vn 0.1015 -0.5474 -0.8307
vn 0.1610 -0.9001 0.4049
vn -0.1390 -0.9737 0.1808
vn -0.1390 -0.9737 -0.1808
vn 0.1610 -0.9001 -0.4049
vn 0.4491 -0.8775 -0.1681
vn 0.4491 -0.8775 0.1681
vn -0.5953 -0.6930 0.4066
vn -0.5940 -0.6951 -0.4050
vn 0.1130 -0.5903 -0.7992
vn 0.7953 -0.4627 -0.3917
vn 0.7953 -0.4627 0.3917
vn 0.1130 -0.5903 0.7992
vn 0.1457 -0.7271 0.6709
vn -0.4436 -0.8265 0.3467
vn -0.4436 -0.8265 -0.3467
vn 0.1457 -0.7271 -0.6709
vn 0.7220 -0.6031 -0.3389
vn 0.7220 -0.6031 0.3389
vn 0.5883 -0.7781 -0.2202
vn 0.5883 -0.7781 0.2202
vn 0.1097 -0.8526 0.5110
vn -0.3630 -0.9063 0.2165
vn -0.3630 -0.9063 -0.2165
vn 0.1097 -0.8526 -0.5110
vn -0.0147 0.1530 -0.9881
vn 0.8265 0.2926 -0.4809
vn 0.8265 0.2926 0.4809
vn -0.0147 0.1530 0.9881
vn -0.8734 0.0827 0.4800
vn -0.8734 0.0827 -0.4800
vn 0.5678 0.7223 -0.3947
vn 0.5678 0.7223 0.3947
vn -0.1231 0.6324 0.7648
vn -0.7691 0.5189 0.3731
vn -0.7665 0.5220 -0.3742
vn -0.1203 0.6300 -0.7673
vn -0.1168 0.7025 -0.7020
vn 0.4860 0.8014 -0.3486
vn 0.4860 0.8014 0.3486
vn -0.1168 0.7025 0.7020
vn -0.7147 0.6075 0.3466
vn -0.7147 0.6075 -0.3466
vn 0.1075 0.9773 -0.1826
vn 0.1075 0.9773 0.1826
vn -0.1781 0.9028 0.3915
vn -0.4765 0.8600 0.1824
vn -0.4765 0.8600 -0.1824
vn -0.1781 0.9028 -0.3915
vt 0.220060 0.042054
vt 0.243285 0.048194
vt 0.245638 0.052523
vt 0.232402 0.064180
vt 0.258710 0.067117
vt 0.248096 0.052850
vt 0.249663 0.049137
vt 0.279394 0.042382
vt 0.279394 0.000375
vt 0.252190 0.046298
vt 0.247776 0.045482
vt 0.235458 0.013967
vt 0.233650 0.072195
vt 0.232928 0.071578
vt 0.234660 0.072227
vt 0.233596 0.071175
vt 0.232621 0.070790
vt 0.234120 0.072195
vt 0.216702 0.096788
vt 0.217908 0.097437
vt 0.215756 0.097811
vt 0.217116 0.098801
vt 0.215887 0.098590
vt 0.216571 0.098867
vt 0.201502 0.121609
vt 0.198958 0.123016
vt 0.203393 0.117290
vt 0.204752 0.117922
vt 0.201336 0.124485
vt 0.201496 0.121706
vt 0.035564 0.379946
vt 0.035300 0.380257
vt 0.036157 0.379681
vt 0.036903 0.379041
vt 0.035655 0.378828
vt 0.035656 0.379309
vt 0.032347 0.384620
vt 0.032851 0.383654
vt 0.032659 0.384809
vt 0.032603 0.384968
vt 0.033631 0.383209
vt 0.033184 0.383624
vt 0.028932 0.389411
vt 0.029394 0.390220
vt 0.028770 0.390677
vt 0.029067 0.389658
vt 0.029919 0.389211
vt 0.028683 0.390552
vt 0.025017 0.396685
vt 0.024233 0.396396
vt 0.025519 0.396026
vt 0.025169 0.395977
vt 0.025409 0.395152
vt 0.025995 0.396239
vt 0.021026 0.401252
vt 0.022435 0.400981
vt 0.022561 0.400149
vt 0.022492 0.399377
vt 0.023520 0.400436
vt 0.022126 0.401055
vt 0.019580 0.404543
vt 0.018296 0.405597
vt 0.019852 0.405176
vt 0.020488 0.403713
vt 0.020091 0.403177
vt 0.021052 0.404078
vt 0.015480 0.410407
vt 0.016515 0.409765
vt 0.017759 0.407840
vt 0.017543 0.407468
vt 0.018166 0.408403
vt 0.016844 0.409019
vt 0.012945 0.416204
vt 0.011054 0.420404
vt 0.011194 0.415630
vt 0.013763 0.413225
vt 0.013873 0.413279
vt 0.013676 0.415867
vt 0.000375 0.434746
vt 0.007134 0.424403
vt 0.010634 0.418117
vt 0.011073 0.417864
vt 0.011389 0.419060
vt 0.008957 0.422971
vt 0.000000 0.000000
s 1
usemtl Material.005
f 6/1/1 12/2/2 11/3/3 5/4/4
f 4/5/5 10/6/6 9/7/7 3/8/8
f 2/9/9 8/10/10 7/11/11 1/12/12
f 1/12/12 7/11/11 12/2/2 6/1/1
f 5/4/4 11/3/3 10/6/6 4/5/5
f 3/8/8 9/7/7 8/10/10 2/9/9
f 10/6/6 16/13/13 15/14/14 9/7/7
f 8/10/10 14/15/15 13/16/16 7/11/11
f 7/11/11 13/16/16 18/17/17 12/2/2
f 11/3/3 17/18/18 16/13/13 10/6/6
f 9/7/7 15/14/14 14/15/15 8/10/10
f 12/2/2 18/17/17 17/18/18 11/3/3
f 15/14/14 21/19/19 20/20/20 14/15/15
f 18/17/17 24/21/21 23/22/22 17/18/18
f 16/13/13 22/23/23 21/19/19 15/14/14
f 14/15/15 20/20/20 19/24/24 13/16/16
f 13/16/16 19/24/24 24/21/21 18/17/17
f 17/18/18 23/22/22 22/23/23 16/13/13
f 20/20/20 26/25/25 25/26/26 19/24/24
f 19/24/24 25/26/26 30/27/27 24/21/21
f 23/22/22 29/28/28 28/29/29 22/23/23
f 21/19/19 27/30/30 26/25/25 20/20/20
f 24/21/21 30/27/27 29/28/28 23/22/22
f 22/23/23 28/29/29 27/30/30 21/19/19
f 30/27/27 36/31/31 35/32/32 29/28/28
f 28/29/29 34/33/33 33/34/34 27/30/30
f 26/25/25 32/35/35 31/36/36 25/26/26
f 25/26/26 31/36/36 36/31/31 30/27/27
f 29/28/28 35/32/32 34/33/33 28/29/29
f 27/30/30 33/34/34 32/35/35 26/25/25
f 31/36/36 37/37/37 42/38/38 36/31/31
f 35/32/32 41/39/39 40/40/40 34/33/33
f 33/34/34 39/41/41 38/42/42 32/35/35
f 36/31/31 42/38/38 41/39/39 35/32/32
f 34/33/33 40/40/40 39/41/41 33/34/34
f 32/35/35 38/42/42 37/37/37 31/36/36
f 42/38/38 48/43/43 47/44/44 41/39/39
f 40/40/40 46/45/45 45/46/46 39/41/41
f 38/42/42 44/47/47 43/48/48 37/37/37
f 37/37/37 43/48/48 48/43/43 42/38/38
f 41/39/39 47/44/44 46/45/45 40/40/40
f 39/41/41 45/46/46 44/47/47 38/42/42
f 43/48/48 49/49/49 54/50/50 48/43/43
f 47/44/44 53/51/51 52/52/52 46/45/45
f 45/46/46 51/53/53 50/54/54 44/47/47
f 48/43/43 54/50/50 53/51/51 47/44/44
f 46/45/45 52/52/52 51/53/53 45/46/46
f 44/47/47 50/54/54 49/49/49 43/48/48
f 54/50/50 60/55/55 59/56/56 53/51/51
f 52/52/52 58/57/57 57/58/58 51/53/53
f 50/54/54 56/59/59 55/60/60 49/49/49
f 49/49/49 55/60/60 60/55/55 54/50/50
f 53/51/51 59/56/56 58/57/57 52/52/52
f 51/53/53 57/58/58 56/59/59 50/54/54
f 4/85/5 3/85/8 2/85/9 1/85/12
f 5/85/4 4/85/5 1/85/12 6/85/1
usemtl Material.006
f 55/60/60 61/61/61 66/62/62 60/55/55
f 59/56/56 65/63/63 64/64/64 58/57/57
f 57/58/58 63/65/65 62/66/66 56/59/59
f 60/55/55 66/62/62 65/63/63 59/56/56
f 58/57/57 64/64/64 63/65/65 57/58/58
f 56/59/59 62/66/66 61/61/61 55/60/60
f 66/62/62 72/67/67 71/68/68 65/63/63
f 64/64/64 70/69/69 69/70/70 63/65/65
f 62/66/66 68/71/71 67/72/72 61/61/61
f 61/61/61 67/72/72 72/67/67 66/62/62
f 65/63/63 71/68/68 70/69/69 64/64/64
f 63/65/65 69/70/70 68/71/71 62/66/66
f 67/72/72 73/73/73 78/74/74 72/67/67
f 71/68/68 77/75/75 76/76/76 70/69/69
f 69/70/70 75/77/77 74/78/78 68/71/71
f 72/67/67 78/74/74 77/75/75 71/68/68
f 70/69/69 76/76/76 75/77/77 69/70/70
f 68/71/71 74/78/78 73/73/73 67/72/72
f 78/74/74 84/79/79 83/80/80 77/75/75
f 76/76/76 82/81/81 81/82/82 75/77/77
f 74/78/78 80/83/83 79/84/84 73/73/73
f 73/73/73 79/84/84 84/79/79 78/74/74
f 77/75/75 83/80/80 82/81/81 76/76/76
f 75/77/77 81/82/82 80/83/83 74/78/78
f 80/83/83 81/82/82 82/81/81 79/84/84
f 83/80/80 84/79/79 79/84/84 82/81/81
