# Blender 5.0.0
# www.blender.org
mtllib fungus pink fat small.mtl
o fungo.045
v 4.079852 0.517452 -3.906683
v 4.079852 0.517452 -4.367840
v 4.541009 0.517452 -3.906683
v 4.541009 0.517452 -4.367840
v 4.028031 0.286874 -3.854862
v 4.028031 0.569273 -4.137261
v 4.028031 0.286873 -4.419661
v 4.310431 0.569273 -4.419661
v 4.592830 0.286873 -4.419661
v 4.592830 0.569273 -4.137261
v 4.592830 0.286874 -3.854862
v 4.310431 0.569273 -3.854862
v 4.310431 0.686247 -4.137261
v 4.310431 0.286874 -3.737888
v 4.709804 0.286873 -4.137261
v 4.310431 0.286873 -4.536634
v 3.911057 0.286874 -4.137261
v 4.112138 0.286874 -3.938969
v 4.112138 0.286873 -4.335554
v 4.508723 0.286873 -4.335554
v 4.508723 0.286874 -3.938969
v 4.310431 0.286874 -3.856833
v 4.590858 0.286873 -4.137261
v 4.310431 0.286873 -4.417689
v 4.030003 0.286873 -4.137261
v 4.208716 0.344067 -4.035547
v 4.208716 0.344067 -4.238976
v 4.412145 0.344067 -4.238976
v 4.412145 0.344067 -4.035547
v 4.310431 0.344067 -3.993415
v 4.454276 0.344067 -4.137261
v 4.310431 0.344067 -4.281107
v 4.166584 0.344067 -4.137261
v 4.010752 0.339440 -3.837583
v 4.610109 0.339440 -4.436940
v 4.610109 0.339440 -3.837583
v 4.723068 0.352693 -4.137261
v 4.010752 0.339440 -4.436940
v 4.310431 0.352693 -3.724624
v 4.310431 0.352693 -4.549898
v 3.897793 0.352693 -4.137261
v 4.174391 -0.036260 -4.001222
v 4.174391 -0.036261 -4.273301
v 4.446470 -0.036260 -4.001222
v 4.446470 -0.036261 -4.273300
v 4.143817 -0.036788 -4.137261
v 4.143816 0.153341 -3.970648
v 4.143817 0.153341 -4.303875
v 4.310431 -0.039400 -4.303875
v 4.477044 0.153341 -4.303875
v 4.477044 -0.036788 -4.137261
v 4.477044 0.153341 -3.970648
v 4.310431 -0.039400 -3.970648
v 4.310431 -0.039175 -4.137261
v 4.310431 0.153341 -3.901634
v 4.546057 0.153341 -4.137261
v 4.310431 0.153341 -4.372888
v 4.074804 0.153341 -4.137261
vn -0.9945 0.1043 -0.0000
vn -0.6497 0.7602 -0.0000
vn -0.5321 0.6585 -0.5322
vn -0.7038 0.0961 -0.7038
vn -0.0000 0.1043 -0.9945
vn -0.0000 0.7602 -0.6497
vn 0.5321 0.6585 -0.5322
vn 0.7038 0.0961 -0.7038
vn 0.9945 0.1043 -0.0000
vn 0.6497 0.7602 -0.0000
vn 0.5322 0.6585 0.5322
vn 0.7038 0.0961 0.7038
vn -0.0000 0.1043 0.9945
vn -0.0000 0.7602 0.6497
vn -0.5321 0.6585 0.5322
vn -0.7038 0.0961 0.7038
vn -0.0000 1.0000 -0.0000
vn -0.0000 -0.7443 0.6679
vn -0.4769 -0.7384 0.4769
vn 0.1053 -0.9889 -0.1053
vn -0.0000 -0.9889 -0.1489
vn -0.6679 -0.7443 -0.0000
vn -0.4769 -0.7384 -0.4769
vn 0.1053 -0.9889 0.1053
vn 0.1489 -0.9889 -0.0000
vn -0.0000 -0.7443 -0.6679
vn -0.0000 -0.9889 0.1489
vn 0.6679 -0.7443 -0.0000
vn 0.4769 -0.7384 0.4769
vn -0.1053 -0.9889 -0.1053
vn -0.1489 -0.9889 -0.0000
vn 0.4769 -0.7384 -0.4769
vn -0.1053 -0.9889 0.1053
vn -0.0000 -0.8219 0.5696
vn 0.4028 -0.8219 0.4028
vn -0.4028 -0.8219 -0.4028
vn -0.5696 -0.8219 -0.0000
vn 0.4028 -0.8219 -0.4028
vn -0.0000 -0.8219 -0.5696
vn 0.5696 -0.8219 -0.0000
vn -0.4028 -0.8219 0.4028
vn -0.9971 0.0755 -0.0000
vn -0.7056 0.0723 -0.7049
vn -0.0000 0.0762 -0.9971
vn 0.7056 0.0723 -0.7049
vn 0.9971 0.0755 -0.0000
vn 0.7056 0.0723 0.7049
vn -0.0000 0.0762 0.9971
vn -0.7056 0.0723 0.7049
vn -0.0000 -1.0000 -0.0000
vn 0.6508 -0.7593 -0.0000
vn 0.5076 -0.7004 0.5017
vn -0.0000 -0.7660 0.6428
vn -0.6508 -0.7593 -0.0000
vn -0.5076 -0.7004 0.5017
vn -0.5076 -0.7004 -0.5017
vn -0.0000 -0.7660 -0.6428
vn 0.5076 -0.7004 -0.5017
vt 0.000000 0.000000
s 1
usemtl Material.022
f 41/1/1 6/1/2 2/1/3 38/1/4
f 40/1/5 8/1/6 4/1/7 35/1/8
f 37/1/9 10/1/10 3/1/11 36/1/12
f 39/1/13 12/1/14 1/1/15 34/1/16
f 13/1/17 6/1/2 1/1/15 12/1/14
f 10/1/10 13/1/17 12/1/14 3/1/11
f 4/1/7 8/1/6 13/1/17 10/1/10
f 8/1/6 2/1/3 6/1/2 13/1/17
f 36/1/12 3/1/11 12/1/14 39/1/13
f 35/1/8 4/1/7 10/1/10 37/1/9
f 38/1/4 2/1/3 8/1/6 40/1/5
f 34/1/16 1/1/15 6/1/2 41/1/1
f 5/1/19 34/1/16 41/1/1 17/1/22
f 7/1/23 38/1/4 40/1/5 16/1/26
f 9/1/32 35/1/8 37/1/9 15/1/28
f 11/1/29 36/1/12 39/1/13 14/1/18
f 14/1/18 39/1/13 34/1/16 5/1/19
f 15/1/28 37/1/9 36/1/12 11/1/29
f 16/1/26 40/1/5 35/1/8 9/1/32
f 17/1/22 41/1/1 38/1/4 7/1/23
usemtl Material.015
f 14/1/18 5/1/19 18/1/20 22/1/21
f 17/1/22 7/1/23 19/1/24 25/1/25
f 7/1/23 16/1/26 24/1/27 19/1/24
f 15/1/28 11/1/29 21/1/30 23/1/31
f 11/1/29 14/1/18 22/1/21 21/1/30
f 5/1/19 17/1/22 25/1/25 18/1/20
f 16/1/26 9/1/32 20/1/33 24/1/27
f 9/1/32 15/1/28 23/1/31 20/1/33
f 21/1/30 22/1/21 30/1/34 29/1/35
f 25/1/25 19/1/24 27/1/36 33/1/37
f 24/1/27 20/1/33 28/1/38 32/1/39
f 23/1/31 21/1/30 29/1/35 31/1/40
f 22/1/21 18/1/20 26/1/41 30/1/34
f 18/1/20 25/1/25 33/1/37 26/1/41
f 19/1/24 24/1/27 32/1/39 27/1/36
f 20/1/33 23/1/31 31/1/40 28/1/38
f 58/1/42 33/1/37 27/1/36 48/1/43
f 57/1/44 32/1/39 28/1/38 50/1/45
f 56/1/46 31/1/40 29/1/35 52/1/47
f 55/1/48 30/1/34 26/1/41 47/1/49
f 54/1/50 51/1/51 44/1/52 53/1/53
f 46/1/54 54/1/50 53/1/53 42/1/55
f 43/1/56 49/1/57 54/1/50 46/1/54
f 49/1/57 45/1/58 51/1/51 54/1/50
f 53/1/53 55/1/48 47/1/49 42/1/55
f 44/1/52 52/1/47 55/1/48 53/1/53
f 52/1/47 29/1/35 30/1/34 55/1/48
f 51/1/51 56/1/46 52/1/47 44/1/52
f 45/1/58 50/1/45 56/1/46 51/1/51
f 50/1/45 28/1/38 31/1/40 56/1/46
f 49/1/57 57/1/44 50/1/45 45/1/58
f 43/1/56 48/1/43 57/1/44 49/1/57
f 48/1/43 27/1/36 32/1/39 57/1/44
f 46/1/54 58/1/42 48/1/43 43/1/56
f 42/1/55 47/1/49 58/1/42 46/1/54
f 47/1/49 26/1/41 33/1/37 58/1/42
