# Blender 5.0.0
# www.blender.org
mtllib fungus pinkpink tiny.mtl
o fungo.040
v 2.129058 -0.039893 -4.201380
v 2.079209 -0.038829 -4.172593
v 2.079209 -0.038829 -4.115019
v 2.129058 -0.039893 -4.086232
v 2.178907 -0.040957 -4.115019
v 2.178907 -0.040957 -4.172592
v 2.123757 0.067885 -4.184885
v 2.088398 0.071798 -4.164345
v 2.088398 0.071798 -4.123267
v 2.123757 0.067885 -4.102727
v 2.159117 0.063972 -4.123267
v 2.159117 0.063972 -4.164345
v 2.136126 0.180964 -4.178451
v 2.107153 0.188761 -4.161129
v 2.107153 0.188761 -4.126484
v 2.136126 0.180964 -4.109161
v 2.165098 0.173167 -4.126484
v 2.165098 0.173167 -4.161129
v 2.141917 0.252325 -4.172363
v 2.120010 0.263803 -4.158084
v 2.120010 0.263803 -4.129527
v 2.141917 0.252325 -4.115249
v 2.163824 0.240848 -4.129527
v 2.163824 0.240848 -4.158084
v 2.162629 0.304644 -4.178451
v 2.137077 0.320370 -4.161129
v 2.137077 0.320370 -4.126484
v 2.162629 0.304644 -4.109161
v 2.188180 0.288918 -4.126484
v 2.188180 0.288918 -4.161129
v 2.165639 0.324814 -4.226346
v 2.104763 0.362281 -4.185076
v 2.104763 0.362281 -4.102536
v 2.165639 0.324814 -4.061266
v 2.226515 0.287347 -4.102536
v 2.226515 0.287347 -4.185076
v 2.156535 0.308883 -4.295731
v 2.044486 0.377845 -4.219769
v 2.044486 0.377845 -4.067844
v 2.156535 0.308883 -3.991881
v 2.268585 0.239921 -4.067843
v 2.268585 0.239921 -4.219769
v 2.156535 0.308883 -4.313879
v 2.032888 0.388914 -4.228843
v 2.032888 0.388915 -4.058769
v 2.156535 0.308883 -3.973732
v 2.280183 0.228851 -4.058769
v 2.280183 0.228851 -4.228843
v 2.195224 0.365779 -4.275498
v 2.100914 0.429910 -4.209653
v 2.100914 0.429910 -4.077960
v 2.195224 0.365779 -4.012113
v 2.289535 0.301648 -4.077959
v 2.289535 0.301648 -4.209653
v 2.204059 0.387864 -4.229819
v 2.142461 0.429751 -4.186813
v 2.142461 0.429751 -4.100799
v 2.204059 0.387864 -4.057792
v 2.265656 0.345978 -4.100799
v 2.265656 0.345978 -4.186813
v 2.194955 0.371934 -4.188249
v 2.163128 0.393576 -4.166027
v 2.163128 0.393576 -4.121585
v 2.194955 0.371934 -4.099364
v 2.226782 0.350291 -4.121585
v 2.226782 0.350291 -4.166027
vn -0.7156 -0.5605 -0.4169
vn -0.8631 0.1295 -0.4881
vn -0.0175 0.1037 -0.9945
vn 0.0090 -0.5519 -0.8339
vn 0.8584 0.0882 -0.5053
vn 0.7302 -0.5426 -0.4151
vn 0.7302 -0.5426 0.4151
vn 0.8584 0.0882 0.5053
vn -0.0175 0.1037 0.9945
vn 0.0090 -0.5519 0.8339
vn -0.7156 -0.5605 0.4169
vn -0.8631 0.1295 0.4881
vn 0.0190 0.0735 -0.9971
vn 0.8736 -0.0028 -0.4867
vn 0.8736 -0.0028 0.4867
vn 0.0235 0.0693 0.9973
vn -0.8557 0.1566 0.4932
vn -0.8532 0.1506 -0.4994
vn 0.8335 -0.1817 -0.5217
vn 0.8335 -0.1817 0.5217
vn -0.0604 -0.0042 0.9982
vn -0.8579 0.1976 0.4742
vn -0.8579 0.1976 -0.4742
vn -0.0604 -0.0042 -0.9982
vn 0.2532 -0.8846 0.3916
vn -0.3682 -0.5984 0.7116
vn -0.8758 -0.3598 0.3216
vn -0.8758 -0.3598 -0.3216
vn 0.2532 -0.8846 -0.3916
vn -0.3682 -0.5984 -0.7116
vn -0.5266 -0.8488 -0.0467
vn -0.4779 -0.8778 -0.0322
vn -0.4779 -0.8778 0.0322
vn -0.5266 -0.8488 0.0467
vn -0.5443 -0.8388 0.0108
vn -0.5443 -0.8388 -0.0108
vn -0.5371 -0.8434 -0.0149
vn -0.5371 -0.8434 0.0149
vn -0.6557 -0.7516 0.0716
vn -0.6557 -0.7516 -0.0716
vn -0.5573 -0.8258 -0.0865
vn -0.5573 -0.8258 0.0865
vn -0.8841 0.1294 -0.4491
vn -0.2561 -0.3238 -0.9108
vn 0.3871 -0.7977 -0.4624
vn 0.3871 -0.7977 0.4624
vn -0.2561 -0.3238 0.9108
vn -0.8841 0.1294 0.4491
vn 0.9058 0.2218 -0.3609
vn 0.9058 0.2218 0.3609
vn 0.3802 0.5595 0.7365
vn -0.1695 0.9106 0.3769
vn -0.1695 0.9106 -0.3769
vn 0.3802 0.5595 -0.7365
vn 0.5404 0.8244 -0.1683
vn 0.6545 0.7521 -0.0766
vn 0.6545 0.7521 0.0766
vn 0.5404 0.8244 0.1683
vn 0.4063 0.9093 0.0900
vn 0.4063 0.9093 -0.0900
vn 0.3416 0.9300 0.1359
vn 0.3416 0.9300 -0.1359
vn 0.5376 0.7990 -0.2694
vn 0.7297 0.6706 -0.1333
vn 0.7297 0.6706 0.1333
vn 0.5376 0.7990 0.2694
vt 0.783653 0.360752
vt 0.772798 0.367355
vt 0.773027 0.364805
vt 0.788124 0.344723
vt 0.771798 0.362491
vt 0.778044 0.322451
vt 0.762533 0.341610
vt 0.771291 0.364034
vt 0.770667 0.366528
vt 0.762533 0.358238
vt 0.772083 0.365652
vt 0.771334 0.367814
vt 0.768113 0.394428
vt 0.767770 0.392941
vt 0.767834 0.393064
vt 0.767166 0.394388
vt 0.767022 0.395485
vt 0.767956 0.395743
vt 0.765394 0.409247
vt 0.765551 0.409406
vt 0.764885 0.411256
vt 0.764592 0.412988
vt 0.765349 0.412903
vt 0.765536 0.411090
vt 0.764012 0.421587
vt 0.763549 0.423339
vt 0.763091 0.425156
vt 0.763480 0.423982
vt 0.763649 0.420707
vt 0.763522 0.422193
vt 0.763097 0.428789
vt 0.762406 0.431128
vt 0.762255 0.429270
vt 0.762555 0.426595
vt 0.762946 0.425472
vt 0.763376 0.425940
vt 0.761029 0.440454
vt 0.761446 0.433173
vt 0.762567 0.427988
vt 0.763032 0.428941
vt 0.762745 0.432951
vt 0.762097 0.429400
vt 0.762530 0.436235
vt 0.762553 0.431589
vt 0.762332 0.430129
vt 0.762007 0.431067
vt 0.760740 0.435697
vt 0.760027 0.447014
vt 0.762049 0.432627
vt 0.761631 0.433881
vt 0.760914 0.438574
vt 0.758939 0.454548
vt 0.761396 0.438847
vt 0.762079 0.434017
vt 0.761872 0.436073
vt 0.761782 0.434640
vt 0.761356 0.436017
vt 0.760662 0.439949
vt 0.760238 0.446730
vt 0.761474 0.439915
vt 0.761528 0.436475
vt 0.761297 0.437392
vt 0.761037 0.439689
vt 0.760738 0.442496
vt 0.761182 0.439651
vt 0.761533 0.437400
vt 0.000000 0.000000
s 1
usemtl Material.004
f 2/1/1 8/2/2 7/3/3 1/4/4
f 1/4/4 7/3/3 12/5/5 6/6/6
f 5/7/7 11/8/8 10/9/9 4/10/10
f 3/11/11 9/12/12 8/2/2 2/1/1
f 6/6/6 12/5/5 11/8/8 5/7/7
f 4/10/10 10/9/9 9/12/12 3/11/11
f 7/3/3 13/13/13 18/14/14 12/5/5
f 11/8/8 17/15/15 16/16/16 10/9/9
f 9/12/12 15/17/17 14/18/18 8/2/2
f 12/5/5 18/14/14 17/15/15 11/8/8
f 10/9/9 16/16/16 15/17/17 9/12/12
f 8/2/2 14/18/18 13/13/13 7/3/3
f 18/14/14 24/19/19 23/20/20 17/15/15
f 16/16/16 22/21/21 21/22/22 15/17/17
f 14/18/18 20/23/23 19/24/24 13/13/13
f 13/13/13 19/24/24 24/19/19 18/14/14
f 17/15/15 23/20/20 22/21/21 16/16/16
f 15/17/17 21/22/22 20/23/23 14/18/18
f 23/20/20 29/25/25 28/26/26 22/21/21
f 21/22/22 27/27/27 26/28/28 20/23/23
f 24/19/19 30/29/29 29/25/25 23/20/20
f 22/21/21 28/26/26 27/27/27 21/22/22
f 20/23/23 26/28/28 25/30/30 19/24/24
f 19/24/24 25/30/30 30/29/29 24/19/19
f 28/26/26 34/31/31 33/32/32 27/27/27
f 26/28/28 32/33/33 31/34/34 25/30/30
f 25/30/30 31/34/34 36/35/35 30/29/29
f 29/25/25 35/36/36 34/31/31 28/26/26
f 27/27/27 33/32/32 32/33/33 26/28/28
f 30/29/29 36/35/35 35/36/36 29/25/25
f 33/32/32 39/37/37 38/38/38 32/33/33
f 36/35/35 42/39/39 41/40/40 35/36/36
f 34/31/31 40/41/41 39/37/37 33/32/32
f 32/33/33 38/38/38 37/42/42 31/34/34
f 31/34/34 37/42/42 42/39/39 36/35/35
f 35/36/36 41/40/40 40/41/41 34/31/31
f 38/38/38 44/43/43 43/44/44 37/42/42
f 37/42/42 43/44/44 48/45/45 42/39/39
f 41/40/40 47/46/46 46/47/47 40/41/41
f 39/37/37 45/48/48 44/43/43 38/38/38
f 42/39/39 48/45/45 47/46/46 41/40/40
f 40/41/41 46/47/47 45/48/48 39/37/37
f 48/45/45 54/49/49 53/50/50 47/46/46
f 46/47/47 52/51/51 51/52/52 45/48/48
f 44/43/43 50/53/53 49/54/54 43/44/44
f 43/44/44 49/54/54 54/49/49 48/45/45
f 47/46/46 53/50/50 52/51/51 46/47/47
f 45/48/48 51/52/52 50/53/53 44/43/43
f 49/54/54 55/55/55 60/56/56 54/49/49
f 53/50/50 59/57/57 58/58/58 52/51/51
f 51/52/52 57/59/59 56/60/60 50/53/53
f 54/49/49 60/56/56 59/57/57 53/50/50
f 52/51/51 58/58/58 57/59/59 51/52/52
f 50/53/53 56/60/60 55/55/55 49/54/54
f 60/56/56 66/61/61 65/62/62 59/57/57
f 58/58/58 64/63/63 63/64/64 57/59/59
f 56/60/60 62/65/65 61/66/66 55/55/55
f 55/55/55 61/66/66 66/61/61 60/56/56
f 59/57/57 65/62/62 64/63/63 58/58/58
f 57/59/59 63/64/64 62/65/65 56/60/60
f 62/65/65 65/62/62 66/61/61 61/66/66
f 63/64/64 64/63/63 65/62/62 62/65/65
f 4/67/10 3/67/11 2/67/1 1/67/4
f 5/67/7 4/67/10 1/67/4 6/67/6
