# Blender 5.0.0
# www.blender.org
mtllib fungus orange.mtl
o fungo
v -2.104041 0.807201 3.769591
v -1.481676 0.807201 3.511798
v -1.223883 0.807201 2.889432
v -1.481676 0.807201 2.267067
v -2.104042 0.807201 2.009274
v -2.726408 0.807201 2.267067
v -2.984200 0.807201 2.889432
v -2.726407 0.807201 3.511798
v -2.104041 0.653631 3.193310
v -1.889168 0.653631 3.104306
v -1.800164 0.653631 2.889432
v -1.889168 0.653631 2.674559
v -2.407919 0.653631 2.889432
v -2.318915 0.653631 3.104306
v -2.104042 0.085485 2.889432
v -2.104042 0.653631 2.585555
v -2.318915 0.653631 2.674559
v -2.104041 0.309385 3.272106
v -1.833450 0.309385 3.160023
v -1.721368 0.309385 2.889432
v -1.833450 0.309385 2.618841
v -2.104042 0.309385 2.506759
v -2.374633 0.309385 2.618841
v -2.486715 0.309385 2.889432
v -2.374633 0.309385 3.160023
v -2.104041 0.085485 3.432088
v -1.720326 0.085485 3.273148
v -1.561386 0.085486 2.889432
v -1.720326 0.085486 2.505717
v -2.104042 0.085486 2.346776
v -2.487757 0.085486 2.505717
v -2.646697 0.085485 2.889432
v -2.487757 0.085485 3.273148
v -2.954991 0.901915 3.740382
v -3.307466 0.901915 2.889433
v -2.954991 0.901915 2.038483
v -2.104042 0.901915 1.686008
v -1.253092 0.901915 2.038483
v -0.900618 0.901915 2.889432
v -1.253092 0.901915 3.740381
v -2.104041 0.901915 4.092856
v -2.979015 1.069306 3.764406
v -3.341441 1.069306 2.889433
v -2.979015 1.069307 2.014459
v -2.104042 1.069307 1.652033
v -1.229068 1.069307 2.014459
v -0.866642 1.069307 2.889432
v -1.229068 1.069306 3.764406
v -2.104041 1.069306 4.126832
v -2.848814 1.393490 3.634205
v -3.157309 1.393490 2.889433
v -2.848814 1.393490 2.144660
v -2.104042 1.393491 1.836165
v -1.359269 1.393491 2.144660
v -1.050774 1.393490 2.889432
v -1.359269 1.393490 3.634205
v -2.104041 1.393490 3.942700
v -2.332703 1.693586 3.118094
v -2.427418 1.693586 2.889433
v -2.332703 1.693586 2.660771
v -2.104042 1.693586 2.566056
v -1.875380 1.693586 2.660771
v -1.780665 1.693586 2.889433
v -1.875380 1.693586 3.118094
v -2.104042 1.693586 3.212809
v -2.104042 1.693586 2.889433
v -2.104041 0.716434 3.412760
v -1.733993 0.716434 3.259481
v -1.580714 0.716435 2.889432
v -1.733993 0.716435 2.519384
v -2.627369 0.716434 2.889432
v -2.474090 0.716434 3.259481
v -2.474090 0.716435 2.519384
v -2.104042 0.716435 2.366105
vn -0.0000 -0.9634 0.2680
vn -0.0000 -0.6192 0.7852
vn -0.5553 -0.6192 0.5553
vn -0.1895 -0.9634 0.1895
vn 0.1895 -0.9634 0.1895
vn 0.5553 -0.6192 0.5553
vn 0.2680 -0.9634 -0.0000
vn 0.7852 -0.6192 -0.0000
vn 0.1895 -0.9634 -0.1895
vn 0.5553 -0.6192 -0.5553
vn -0.0000 -0.9634 -0.2680
vn -0.0000 -0.6192 -0.7852
vn -0.1895 -0.9634 -0.1895
vn -0.5553 -0.6192 -0.5553
vn -0.2680 -0.9634 -0.0000
vn -0.7852 -0.6192 -0.0000
vn -0.0000 -1.0000 -0.0000
vn 0.9219 -0.3874 -0.0000
vn 0.6519 -0.3874 0.6519
vn -0.0000 -0.3874 0.9219
vn -0.0000 -0.3874 -0.9219
vn 0.6519 -0.3874 -0.6519
vn -0.9219 -0.3874 -0.0000
vn -0.6519 -0.3874 -0.6519
vn -0.0000 0.4294 0.9031
vn -0.0000 -0.5989 0.8008
vn -0.5663 -0.5989 0.5663
vn -0.6386 0.4294 0.6386
vn 0.6386 0.4294 0.6386
vn 0.5663 -0.5989 0.5663
vn 0.9031 0.4294 -0.0000
vn 0.8008 -0.5989 -0.0000
vn 0.6386 0.4294 -0.6386
vn 0.5663 -0.5989 -0.5663
vn -0.0000 0.4294 -0.9031
vn -0.0000 -0.5989 -0.8008
vn -0.6386 0.4294 -0.6386
vn -0.5663 -0.5989 -0.5663
vn -0.9031 0.4294 -0.0000
vn -0.8008 -0.5989 -0.0000
vn -0.6519 -0.3874 0.6519
vn -0.6996 0.1456 0.6996
vn -0.9893 0.1456 -0.0000
vn -0.6996 0.1456 -0.6996
vn -0.0000 0.1456 -0.9893
vn 0.6996 0.1456 -0.6996
vn 0.9893 0.1456 -0.0000
vn 0.6996 0.1456 0.6996
vn -0.0000 0.1456 0.9893
vn -0.4963 0.7123 0.4963
vn -0.7019 0.7123 -0.0000
vn -0.4963 0.7123 -0.4963
vn -0.0000 0.7123 -0.7019
vn 0.4963 0.7123 -0.4963
vn 0.7019 0.7123 -0.0000
vn 0.4963 0.7123 0.4963
vn -0.0000 0.7123 0.7019
vn -0.1693 0.9709 0.1693
vn -0.2394 0.9709 -0.0000
vn -0.1693 0.9709 -0.1693
vn -0.0000 0.9709 -0.2394
vn 0.1693 0.9709 -0.1693
vn 0.2394 0.9709 -0.0000
vn 0.1693 0.9709 0.1693
vn -0.0000 0.9709 0.2394
vn -0.0000 1.0000 -0.0000
vn -0.0000 -0.9663 0.2574
vn -0.1820 -0.9663 0.1820
vn 0.1820 -0.9663 0.1820
vn 0.2574 -0.9663 -0.0000
vn 0.1820 -0.9663 -0.1820
vn -0.0000 -0.9663 -0.2574
vn -0.1820 -0.9663 -0.1820
vn -0.2574 -0.9663 -0.0000
vt 0.330177 0.590954
vt 0.380845 0.508927
vt 0.488581 0.617755
vt 0.387864 0.649225
vt 0.248182 0.590540
vt 0.227712 0.508155
vt 0.189911 0.648227
vt 0.118884 0.615891
vt 0.189498 0.730222
vt 0.118112 0.769025
vt 0.247184 0.788493
vt 0.225848 0.877853
vt 0.329179 0.788906
vt 0.378982 0.878625
vt 0.387450 0.731220
vt 0.487809 0.770889
vt 0.296014 0.689723
vt 0.260134 0.674649
vt 0.281302 0.653693
vt 0.311088 0.653843
vt 0.280939 0.725603
vt 0.259983 0.704435
vt 0.331894 0.704798
vt 0.310725 0.725753
vt 0.322900 0.625728
vt 0.317364 0.638905
vt 0.347044 0.668886
vt 0.360277 0.663483
vt 0.269774 0.625460
vt 0.275177 0.638692
vt 0.232018 0.662837
vt 0.245195 0.668373
vt 0.231750 0.715963
vt 0.244983 0.710560
vt 0.269127 0.753719
vt 0.274663 0.740542
vt 0.322253 0.753987
vt 0.316850 0.740754
vt 0.360009 0.716610
vt 0.346832 0.711074
vt 0.332044 0.675012
vt 0.496480 0.774532
vt 0.497289 0.614200
vt 0.559160 0.588937
vt 0.558093 0.800417
vt 0.382537 0.887332
vt 0.407800 0.949203
vt 0.196319 0.948137
vt 0.222205 0.886524
vt 0.109404 0.772580
vt 0.047534 0.797843
vt 0.110213 0.612248
vt 0.048600 0.586362
vt 0.224156 0.499448
vt 0.198893 0.437577
vt 0.384488 0.500256
vt 0.410374 0.438643
vt 0.959840 0.199731
vt 0.955617 0.409189
vt 0.890659 0.380735
vt 0.893788 0.225543
vt 0.814717 0.048636
vt 0.786263 0.113594
vt 0.631072 0.110465
vt 0.605259 0.044413
vt 0.454164 0.189536
vt 0.519123 0.217990
vt 0.449941 0.398994
vt 0.515994 0.373181
vt 0.595064 0.550089
vt 0.623518 0.485130
vt 0.804522 0.554312
vt 0.778709 0.488259
vt 0.772020 0.328767
vt 0.773150 0.272687
vt 0.734295 0.232233
vt 0.678216 0.231103
vt 0.637762 0.269958
vt 0.636631 0.326037
vt 0.675486 0.366491
vt 0.731566 0.367622
vt 0.704891 0.299362
vt 0.322436 0.626135
vt 0.326307 0.608544
vt 0.374790 0.657519
vt 0.361717 0.665813
vt 0.266604 0.625853
vt 0.257393 0.608197
vt 0.226925 0.665134
vt 0.208418 0.656680
vt 0.226643 0.720966
vt 0.208070 0.725594
vt 0.208418 0.656680
vt 0.265924 0.760645
vt 0.256554 0.774569
vt 0.208070 0.725594
vt 0.321757 0.760927
vt 0.325468 0.774916
vt 0.361436 0.721646
vt 0.374443 0.726433
vt 0.325468 0.774917
vt 0.374790 0.657519
s 1
usemtl Material.026
f 1/1/1 41/2/2 34/3/3 8/4/4
f 1/1/1 2/5/5 40/6/6 41/2/2
f 2/5/5 3/7/7 39/8/8 40/6/6
f 3/7/7 4/9/9 38/10/10 39/8/8
f 4/9/9 5/11/11 37/12/12 38/10/10
f 6/13/13 36/14/14 37/12/12 5/11/11
f 6/13/13 7/15/15 35/16/16 36/14/14
f 7/15/15 8/4/4 34/3/3 35/16/16
f 15/17/17 28/18/18 27/19/19 26/20/20
f 15/17/17 30/21/21 29/22/22 28/18/18
f 15/17/17 32/23/23 31/24/24 30/21/21
f 18/25/25 9/26/26 14/27/27 25/28/28
f 18/25/25 19/29/29 10/30/30 9/26/26
f 19/29/29 20/31/31 11/32/32 10/30/30
f 20/31/31 21/33/33 12/34/34 11/32/32
f 21/33/33 22/35/35 16/36/36 12/34/34
f 23/37/37 17/38/38 16/36/36 22/35/35
f 23/37/37 24/39/39 13/40/40 17/38/38
f 24/39/39 25/28/28 14/27/27 13/40/40
f 25/28/28 33/41/41 26/20/20 18/25/25
f 26/20/20 27/19/19 19/29/29 18/25/25
f 27/19/19 28/18/18 20/31/31 19/29/29
f 28/18/18 29/22/22 21/33/33 20/31/31
f 29/22/22 30/21/21 22/35/35 21/33/33
f 31/24/24 23/37/37 22/35/35 30/21/21
f 31/24/24 32/23/23 24/39/39 23/37/37
f 32/23/23 33/41/41 25/28/28 24/39/39
f 9/83/26 67/84/67 72/85/68 14/86/27
f 67/84/67 1/1/1 8/4/4 72/85/68
f 10/87/30 68/88/69 67/84/67 9/83/26
f 1/1/1 67/84/67 68/88/69 2/5/5
f 11/89/32 69/90/70 68/88/69 10/87/30
f 69/90/70 3/7/7 2/5/5 68/88/69
f 12/91/34 70/92/71 69/93/70 11/89/32
f 70/92/71 4/9/9 3/7/7 69/93/70
f 16/94/36 74/95/72 70/96/71 12/91/34
f 74/95/72 5/11/11 4/9/9 70/96/71
f 17/97/38 73/98/73 74/95/72 16/94/36
f 73/98/73 6/13/13 5/11/11 74/95/72
f 13/99/40 71/100/74 73/101/73 17/97/38
f 71/100/74 7/15/15 6/13/13 73/101/73
f 14/86/27 72/102/68 71/100/74 13/99/40
f 72/102/68 8/4/4 7/15/15 71/100/74
f 32/23/23 15/17/17 26/20/20 33/41/41
usemtl Material.028
f 35/42/16 34/43/3 42/44/42 43/45/43
f 36/46/14 35/42/16 43/45/43 44/47/44
f 36/46/14 44/47/44 45/48/45 37/49/12
f 38/50/10 37/49/12 45/48/45 46/51/46
f 39/52/8 38/50/10 46/51/46 47/53/47
f 40/54/6 39/52/8 47/53/47 48/55/48
f 41/56/2 40/54/6 48/55/48 49/57/49
f 42/44/42 34/43/3 41/56/2 49/57/49
f 43/58/43 42/59/42 50/60/50 51/61/51
f 44/62/44 43/58/43 51/61/51 52/63/52
f 44/62/44 52/63/52 53/64/53 45/65/45
f 46/66/46 45/65/45 53/64/53 54/67/54
f 47/68/47 46/66/46 54/67/54 55/69/55
f 48/70/48 47/68/47 55/69/55 56/71/56
f 49/72/49 48/70/48 56/71/56 57/73/57
f 49/72/49 57/73/57 50/60/50 42/59/42
f 51/61/51 50/60/50 58/74/58 59/75/59
f 52/63/52 51/61/51 59/75/59 60/76/60
f 52/63/52 60/76/60 61/77/61 53/64/53
f 54/67/54 53/64/53 61/77/61 62/78/62
f 55/69/55 54/67/54 62/78/62 63/79/63
f 56/71/56 55/69/55 63/79/63 64/80/64
f 57/73/57 56/71/56 64/80/64 65/81/65
f 57/73/57 65/81/65 58/74/58 50/60/50
f 62/78/62 61/77/61 60/76/60 66/82/66
f 64/80/64 63/79/63 62/78/62 66/82/66
f 66/82/66 58/74/58 65/81/65 64/80/64
f 60/76/60 59/75/59 58/74/58 66/82/66
