# Blender 5.0.0
# www.blender.org
mtllib fungus wall flat.mtl
o fungo.013
v 6.403826 0.331912 2.393484
v 6.403826 0.550549 2.393484
v 6.637825 0.126117 2.131401
v 6.637825 0.344754 2.131401
v 6.984513 0.331912 2.346989
v 6.984513 0.550549 2.346989
v 6.856461 0.126117 2.131401
v 6.856461 0.344754 2.131401
v 6.084380 0.495345 2.340988
v 6.084380 0.657374 2.340988
v 7.335997 0.495345 2.332909
v 7.335997 0.657374 2.332909
v 5.913035 0.495345 2.588401
v 5.913035 0.713982 2.588401
v 7.576398 0.527312 2.523919
v 7.576398 0.682015 2.523919
v 5.961067 0.527312 2.883350
v 5.961067 0.712104 2.883350
v 7.508879 0.527312 2.852862
v 7.508879 0.712104 2.852862
v 6.274062 0.527312 3.234248
v 6.274062 0.736674 3.234248
v 7.216283 0.527312 3.217479
v 7.216283 0.736674 3.217479
v 6.746521 0.126117 2.131401
v 6.746521 0.344754 2.131401
v 6.692520 0.189745 2.356571
v 6.692520 0.520123 2.356571
v 6.689832 0.225127 2.508957
v 6.689832 0.626948 2.508957
v 6.701358 0.252567 2.657063
v 6.701358 0.683556 2.657063
v 6.709803 0.353178 2.900205
v 6.709803 0.683556 2.900205
v 6.751436 0.525180 3.301409
v 6.751436 0.738806 3.301409
v 6.363319 0.441230 2.391281
v 6.612678 0.235435 2.113325
v 6.852808 0.235435 2.113325
v 7.001089 0.441230 2.342913
v 6.038273 0.604663 2.353766
v 7.392972 0.604663 2.343814
v 5.854941 0.604663 2.615790
v 7.657725 0.604663 2.541193
v 5.887824 0.604664 2.932002
v 7.594539 0.604664 2.898517
v 6.231138 0.604664 3.324139
v 7.273179 0.604664 3.304373
v 6.758137 0.604664 3.404646
v 6.732061 0.235435 2.113325
vn -0.2150 0.0610 -0.9747
vn -0.0373 0.4301 -0.9020
vn -0.2312 0.4664 -0.8538
vn -0.4631 -0.0626 -0.8841
vn -0.0000 -0.0000 -1.0000
vn -0.0211 0.5005 -0.8655
vn 0.3555 0.4019 -0.8439
vn 0.4705 -0.0232 -0.8821
vn 0.0231 0.5191 -0.8544
vn 0.4269 0.0317 -0.9037
vn -0.0254 0.7330 -0.6797
vn -0.1299 0.5560 -0.8209
vn 0.0049 0.8861 -0.4635
vn 0.0426 -0.8677 -0.4952
vn 0.5564 -0.7302 -0.3965
vn 0.6844 -0.7034 -0.1917
vn -0.0133 -0.9395 0.3422
vn -0.0159 -0.9970 0.0761
vn 0.3013 -0.5673 -0.7664
vn 0.5904 -0.7602 -0.2712
vn 0.0036 -0.9965 0.0839
vn 0.0713 0.6192 -0.7820
vn 0.4315 0.0519 -0.9006
vn -0.6492 -0.7404 -0.1740
vn -0.3096 -0.4957 -0.8115
vn -0.5498 0.0295 -0.8348
vn 0.4372 -0.8657 0.2437
vn 0.0003 -0.9663 0.2575
vn -0.6725 -0.7285 -0.1307
vn -0.9844 -0.0070 -0.1760
vn -0.5279 0.8129 -0.2459
vn 0.0097 0.9932 -0.1163
vn 0.4627 0.8202 -0.3364
vn 0.9635 -0.0076 -0.2677
vn 0.0039 0.9973 -0.0736
vn -0.4670 0.8643 0.1867
vn -0.2381 0.8863 0.3973
vn 0.0065 0.9009 0.4339
vn -0.4977 -0.8197 0.2835
vn -0.9024 -0.0669 0.4257
vn 0.4077 0.9011 0.1475
vn 0.9092 -0.0707 0.4104
vn 0.0229 -0.1216 0.9923
vn -0.4733 -0.1026 0.8749
vn 0.2444 0.8909 0.3829
vn 0.5219 -0.1013 0.8470
vn 0.2504 -0.8727 0.4191
vn 0.0105 -0.8816 0.4719
vn -0.2464 -0.8622 0.4426
vn -0.4408 -0.7632 -0.4725
vt 0.000000 0.000000
s 1
usemtl Material.029
f 25/1/14 7/1/15 5/1/16 27/1/17
f 29/1/18 11/1/19 15/1/20 31/1/21
f 37/1/1 1/1/24 9/1/25 41/1/26
f 27/1/17 5/1/16 11/1/19 29/1/18
f 31/1/21 15/1/20 19/1/27 33/1/28
f 41/1/26 9/1/25 13/1/29 43/1/30
f 43/1/30 13/1/29 17/1/39 45/1/40
f 33/1/28 19/1/27 23/1/47 35/1/48
f 45/1/40 17/1/39 21/1/49 47/1/44
f 17/1/39 33/1/28 35/1/48 21/1/49
f 13/1/29 31/1/21 33/1/28 17/1/39
f 1/1/24 27/1/17 29/1/18 9/1/25
f 9/1/25 29/1/18 31/1/21 13/1/29
f 3/1/50 25/1/14 27/1/17 1/1/24
f 3/1/50 38/1/4 50/1/5 25/1/14
f 23/1/47 48/1/46 49/1/43 35/1/48
f 19/1/27 46/1/42 48/1/46 23/1/47
f 35/1/48 49/1/43 47/1/44 21/1/49
f 15/1/20 44/1/34 46/1/42 19/1/27
f 11/1/19 42/1/23 44/1/34 15/1/20
f 5/1/16 40/1/10 42/1/23 11/1/19
f 7/1/15 39/1/8 40/1/10 5/1/16
f 25/1/14 50/1/5 39/1/8 7/1/15
f 1/1/24 37/1/1 38/1/4 3/1/50
usemtl Material.024
f 37/1/1 2/1/2 4/1/3 38/1/4
f 50/1/5 26/1/6 8/1/7 39/1/8
f 39/1/8 8/1/7 6/1/9 40/1/10
f 28/1/11 2/1/2 10/1/12 30/1/13
f 26/1/6 4/1/3 2/1/2 28/1/11
f 40/1/10 6/1/9 12/1/22 42/1/23
f 30/1/13 10/1/12 14/1/31 32/1/32
f 42/1/23 12/1/22 16/1/33 44/1/34
f 34/1/35 18/1/36 22/1/37 36/1/38
f 32/1/32 14/1/31 18/1/36 34/1/35
f 44/1/34 16/1/33 20/1/41 46/1/42
f 49/1/43 36/1/38 22/1/37 47/1/44
f 46/1/42 20/1/41 24/1/45 48/1/46
f 48/1/46 24/1/45 36/1/38 49/1/43
f 16/1/33 32/1/32 34/1/35 20/1/41
f 20/1/41 34/1/35 36/1/38 24/1/45
f 12/1/22 30/1/13 32/1/32 16/1/33
f 8/1/7 26/1/6 28/1/11 6/1/9
f 6/1/9 28/1/11 30/1/13 12/1/22
f 38/1/4 4/1/3 26/1/6 50/1/5
f 18/1/36 45/1/40 47/1/44 22/1/37
f 14/1/31 43/1/30 45/1/40 18/1/36
f 10/1/12 41/1/26 43/1/30 14/1/31
f 2/1/2 37/1/1 41/1/26 10/1/12
