# Blender 5.0.0
# www.blender.org
mtllib fungus blue 3.mtl
o fungo.020
v -5.390863 0.691322 -4.006566
v -5.264025 0.677795 -4.005974
v -5.336003 0.691322 -3.901534
v -5.317172 0.612709 -3.802860
v -5.486242 0.641702 -3.956747
v -5.514239 0.547624 -3.875280
v -5.431382 0.641702 -3.851717
v -5.461091 0.612709 -4.078394
v -5.347134 0.664141 -4.101130
v -5.357658 0.708990 -3.957067
v -5.233407 0.664141 -3.883399
v -5.528479 0.566687 -3.991837
v -5.382470 0.678604 -3.862242
v -5.431130 0.561278 -3.780123
v -5.426713 0.566687 -3.797004
v -5.474472 0.648218 -3.896052
v -5.544857 0.561278 -3.997855
v -5.249785 0.658732 -3.889418
v -5.449660 0.678604 -3.990877
v -5.421111 0.690949 -3.923923
v -5.351551 0.658732 -4.084250
v -5.469549 0.612709 -4.094586
v -5.528943 0.539974 -3.867600
v -5.308715 0.612709 -3.786667
v -5.249321 0.685444 -4.013654
v -5.407113 0.689465 -3.931236
v -5.411804 0.683720 -3.913306
v -5.429199 0.677975 -3.919698
v -5.424508 0.683720 -3.937628
v -5.430456 0.679658 -3.929987
v -5.421473 0.679658 -3.912789
v -5.405856 0.687782 -3.920946
v -5.414839 0.687782 -3.938145
v -5.333998 0.523802 -3.969425
v -5.342668 0.514825 -3.937697
v -5.373661 0.505847 -3.948707
v -5.364991 0.514825 -3.980435
v -5.375745 0.508476 -3.966851
v -5.359961 0.508476 -3.936631
v -5.331914 0.521173 -3.951281
v -5.347699 0.521173 -3.981501
v -5.298587 0.360494 -3.987921
v -5.308381 0.365211 -3.955606
v -5.340498 0.369928 -3.966029
v -5.330704 0.365211 -3.998344
v -5.342253 0.368546 -3.984346
v -5.326468 0.368546 -3.954125
v -5.296832 0.361875 -3.969604
v -5.312617 0.361875 -3.999825
v -5.282269 0.195695 -3.996444
v -5.290837 0.204955 -3.964770
v -5.321729 0.214215 -3.975833
v -5.313160 0.204955 -4.007508
v -5.323842 0.211503 -3.993962
v -5.308057 0.211503 -3.963742
v -5.280155 0.198407 -3.978315
v -5.295940 0.198407 -4.008535
v -5.333240 0.029612 -3.969820
v -5.345641 0.043071 -3.923929
v -5.390391 0.056531 -3.939969
v -5.377990 0.043071 -3.985860
v -5.393458 0.052589 -3.966237
v -5.370584 0.052589 -3.922445
v -5.330173 0.033554 -3.943553
v -5.353046 0.033554 -3.987345
v -5.304681 -0.064278 -3.984738
v -5.335502 -0.061727 -3.886408
v -5.433812 -0.059175 -3.917289
v -5.402991 -0.061727 -4.015618
v -5.438763 -0.059922 -3.972849
v -5.391040 -0.059922 -3.881484
v -5.299730 -0.063531 -3.929177
v -5.347453 -0.063531 -4.020543
vn 0.8715 0.1822 -0.4552
vn -0.0079 1.0000 0.0041
vn 0.1208 0.9357 0.3314
vn 0.9609 0.0596 0.2705
vn 0.5401 -0.2236 0.8113
vn -0.1483 0.8280 0.5407
vn -0.4422 0.6428 0.6255
vn -0.1413 -0.5138 0.8462
vn -0.6887 -0.6295 0.3597
vn -0.6689 0.6561 0.3494
vn -0.7660 0.6428 0.0055
vn -0.7752 -0.5138 -0.3675
vn -0.3573 -0.2236 -0.9068
vn -0.5285 0.8280 -0.1872
vn -0.2030 0.9357 -0.2885
vn 0.3269 0.0596 -0.9432
vn 0.2768 -0.8917 -0.3582
vn 0.1947 -0.9477 -0.2528
vn -0.3712 0.9081 0.1939
vn 0.4521 -0.8917 -0.0225
vn 0.5342 -0.8356 -0.1280
vn 0.5169 -0.8124 -0.2700
vn 0.4102 -0.8356 -0.3654
vn 0.2120 -0.9710 -0.1107
vn 0.3187 -0.9477 -0.0154
vn 0.2686 -0.9528 0.1413
vn 0.5121 -0.8511 0.1157
vn 0.0649 -0.9973 -0.0339
vn 0.6487 -0.7570 -0.0782
vn 0.0375 -0.9528 -0.3011
vn 0.4347 -0.7571 -0.4877
vn 0.1976 -0.8511 -0.4864
vn 0.6149 -0.7202 -0.3212
vn -0.9268 -0.2046 -0.3148
vn -0.8450 -0.3020 0.4414
vn -0.2712 -0.2046 0.9405
vn 0.4698 0.0301 0.8823
vn 0.9187 0.2559 0.3009
vn 0.2778 0.2559 -0.9259
vn -0.4557 0.0301 -0.8896
vn 0.8319 0.3451 -0.4345
vn -0.4509 0.0072 -0.8926
vn -0.9461 -0.1407 -0.2916
vn 0.9541 0.1299 0.2700
vn 0.8734 0.1705 -0.4562
vn -0.8677 -0.2043 0.4532
vn -0.3012 -0.1407 0.9431
vn 0.4750 0.0072 0.8800
vn 0.3235 0.1299 -0.9373
vn -0.2454 0.1149 0.9626
vn 0.5311 0.0361 0.8465
vn 0.3436 -0.0712 -0.9364
vn -0.3913 0.0361 -0.9196
vn 0.8795 -0.1245 -0.4594
vn -0.9302 0.1149 -0.3485
vn 0.9648 -0.0712 0.2530
vn -0.8772 0.1437 0.4582
vn 0.4544 0.2094 0.8658
vn 0.9479 0.0757 0.3095
vn -0.2643 0.3539 0.8972
vn 0.2875 0.0757 -0.9548
vn -0.4510 0.2094 -0.8676
vn 0.8861 0.0231 -0.4628
vn -0.8873 0.3539 -0.2957
vn -0.8056 0.4170 0.4208
vn 0.8203 -0.5162 0.2464
vn 0.7564 -0.5212 -0.3951
vn -0.8428 -0.4709 -0.2607
vn -0.7879 -0.4581 0.4115
vn -0.2675 -0.4709 0.8406
vn 0.4054 -0.4974 0.7670
vn 0.2664 -0.5162 -0.8140
vn -0.3979 -0.4974 -0.7709
vt 0.706804 0.679870
vt 0.706791 0.679682
vt 0.706892 0.679659
vt 0.707028 0.679776
vt 0.707101 0.679532
vt 0.706894 0.679554
vt 0.706868 0.679449
vt 0.706981 0.679297
vt 0.706725 0.679248
vt 0.706760 0.679452
vt 0.706659 0.679483
vt 0.706510 0.679384
vt 0.706482 0.679621
vt 0.706664 0.679586
vt 0.706691 0.679681
vt 0.706591 0.679811
vt 0.707148 0.679529
vt 0.707060 0.679807
vt 0.706777 0.679568
vt 0.706443 0.679630
vt 0.706471 0.679362
vt 0.706715 0.679195
vt 0.707012 0.679260
vt 0.706805 0.679911
vt 0.706572 0.679836
vt 0.706825 0.679549
vt 0.706804 0.679538
vt 0.706849 0.679557
vt 0.706800 0.679514
vt 0.706872 0.679550
vt 0.706851 0.679491
vt 0.706859 0.679518
vt 0.706819 0.679493
vt 0.706686 0.679456
vt 0.706793 0.679382
vt 0.706912 0.679381
vt 0.706995 0.679478
vt 0.706993 0.679612
vt 0.706749 0.679696
vt 0.706661 0.679584
vt 0.706892 0.679713
vt 0.707126 0.679353
vt 0.707082 0.679593
vt 0.706479 0.679295
vt 0.706684 0.679067
vt 0.706900 0.679735
vt 0.706669 0.679722
vt 0.706505 0.679558
vt 0.706984 0.679125
vt 0.707070 0.679078
vt 0.707410 0.679334
vt 0.706484 0.680138
vt 0.706243 0.679702
vt 0.707067 0.680256
vt 0.706350 0.679285
vt 0.707475 0.679826
vt 0.706676 0.679036
vt 0.704018 0.680727
vt 0.703595 0.678163
vt 0.705824 0.682031
vt 0.708281 0.676297
vt 0.709714 0.678472
vt 0.705436 0.675990
vt 0.709246 0.680645
vt 0.707700 0.681777
vt 0.688417 0.671477
vt 0.699551 0.661091
vt 0.725944 0.687964
vt 0.714618 0.699265
vt 0.698616 0.698731
vt 0.687843 0.687154
vt 0.714793 0.661042
vt 0.725944 0.672128
vt 0.000000 0.000000
s 1
usemtl Material.021
f 25/1/1 10/2/2 3/3/3 11/4/4
f 24/5/5 13/6/6 7/7/7 14/8/8
f 23/9/9 16/10/10 5/11/11 17/12/12
f 22/13/13 19/14/14 1/15/15 9/16/16
f 11/4/4 24/5/5 4/17/17 18/18/18
f 20/19/19 10/2/2 1/15/15 19/14/14
f 16/10/10 20/19/19 19/14/14 5/11/11
f 7/7/7 13/6/6 20/19/19 16/10/10
f 13/6/6 3/3/3 10/2/2 20/19/19
f 17/12/12 22/13/13 8/20/20 12/21/21
f 23/9/9 17/12/12 12/21/21 6/22/22
f 14/8/8 23/9/9 6/22/22 15/23/23
f 17/12/12 5/11/11 19/14/14 22/13/13
f 25/1/1 11/4/4 18/18/18 2/24/24
f 9/16/16 25/1/1 2/24/24 21/25/25
f 14/8/8 7/7/7 16/10/10 23/9/9
f 22/13/13 9/16/16 21/25/25 8/20/20
f 24/5/5 14/8/8 15/23/23 4/17/17
f 11/4/4 3/3/3 13/6/6 24/5/5
f 9/16/16 1/15/15 10/2/2 25/1/1
f 4/17/17 15/23/23 31/26/26 27/27/27
f 15/23/23 6/22/22 28/28/28 31/26/26
f 18/18/18 4/17/17 27/27/27 32/29/29
f 6/22/22 12/21/21 30/30/30 28/28/28
f 8/20/20 21/25/25 33/31/31 29/32/32
f 21/25/25 2/24/24 26/33/33 33/31/31
f 12/21/21 8/20/20 29/32/32 30/30/30
f 2/24/24 18/18/18 32/29/29 26/33/33
f 28/28/28 30/30/30 38/34/34 36/35/35
f 31/26/26 28/28/28 36/35/35 39/36/36
f 32/29/29 27/27/27 35/37/37 40/38/38
f 27/27/27 31/26/26 39/36/36 35/37/37
f 29/32/32 33/31/31 41/39/39 37/40/40
f 33/31/31 26/33/33 34/41/41 41/39/39
f 30/30/30 29/32/32 37/40/40 38/34/34
f 26/33/33 32/29/29 40/38/38 34/41/41
f 38/34/34 37/40/40 45/42/42 46/43/43
f 34/41/41 40/38/38 48/44/44 42/45/45
f 36/35/35 38/34/34 46/43/43 44/46/46
f 39/36/36 36/35/35 44/46/46 47/47/47
f 40/38/38 35/37/37 43/48/48 48/44/44
f 35/37/37 39/36/36 47/47/47 43/48/48
f 37/40/40 41/39/39 49/49/49 45/42/42
f 41/39/39 34/41/41 42/45/45 49/49/49
f 43/48/48 47/47/47 55/50/50 51/51/51
f 45/42/42 49/49/49 57/52/52 53/53/53
f 49/49/49 42/45/45 50/54/54 57/52/52
f 46/43/43 45/42/42 53/53/53 54/55/55
f 42/45/45 48/44/44 56/56/56 50/54/54
f 44/46/46 46/43/43 54/55/55 52/57/57
f 47/47/47 44/46/46 52/57/57 55/50/50
f 48/44/44 43/48/48 51/51/51 56/56/56
f 56/56/56 51/51/51 59/58/58 64/59/59
f 51/51/51 55/50/50 63/60/60 59/58/58
f 53/53/53 57/52/52 65/61/61 61/62/62
f 57/52/52 50/54/54 58/63/63 65/61/61
f 54/55/55 53/53/53 61/62/62 62/64/64
f 50/54/54 56/56/56 64/59/59 58/63/63
f 52/57/57 54/55/55 62/64/64 60/65/65
f 55/50/50 52/57/57 60/65/65 63/60/60
f 58/63/63 64/59/59 72/66/66 66/67/67
f 60/65/65 62/64/64 70/68/68 68/69/69
f 63/60/60 60/65/65 68/69/69 71/70/70
f 64/59/59 59/58/58 67/71/71 72/66/66
f 59/58/58 63/60/60 71/70/70 67/71/71
f 61/62/62 65/61/61 73/72/72 69/73/73
f 65/61/61 58/63/63 66/67/67 73/72/72
f 62/64/64 61/62/62 69/73/73 70/68/68
f 73/74/72 66/74/67 72/74/66 67/74/71
f 69/74/73 73/74/72 67/74/71 71/74/70
f 70/74/68 69/74/73 71/74/70 68/74/69
o fungo.019
v -5.266610 2.373132 -3.817695
v -5.456849 2.082959 -3.726718
v -5.452523 2.373132 -3.937547
v -5.543501 2.082959 -4.127788
v -5.146758 2.373132 -4.003609
v -5.142431 2.082959 -4.214439
v -5.332671 2.373132 -4.123462
v -5.055779 2.082959 -3.813370
v -5.231167 2.082959 -3.653647
v -5.373034 2.438346 -3.856730
v -5.616572 2.082959 -3.902105
v -5.016041 2.082959 -4.031850
v -5.413488 2.438346 -4.043973
v -5.368114 2.082959 -4.287510
v -5.360912 2.082959 -4.254177
v -5.226246 2.438346 -4.084427
v -4.982708 2.082959 -4.039052
v -5.583239 2.082959 -3.909306
v -5.185791 2.438346 -3.897184
v -5.299640 2.504925 -3.970579
v -5.238368 2.082959 -3.686980
v -5.027118 2.082959 -3.794892
v -5.123954 2.082959 -4.243101
v -5.572163 2.082959 -4.146266
v -5.475327 2.082959 -3.698056
v -5.313517 2.465939 -3.949052
v -5.321166 2.465939 -3.984455
v -5.285763 2.465939 -3.992105
v -5.278114 2.465939 -3.956701
v -5.274606 2.465939 -3.975987
v -5.305049 2.465939 -3.995612
v -5.324674 2.465939 -3.965170
v -5.294231 2.465939 -3.945544
v -5.310725 1.864563 -3.953385
v -5.318391 1.867953 -3.988760
v -5.283005 1.871343 -3.996382
v -5.275339 1.867953 -3.961006
v -5.271844 1.870350 -3.980272
v -5.302286 1.870350 -3.999898
v -5.321886 1.865556 -3.969494
v -5.291444 1.865556 -3.949869
v -5.297431 1.231288 -3.974006
v -5.305348 1.244435 -4.008993
v -5.270213 1.257583 -4.016226
v -5.262296 1.244435 -3.981239
v -5.258977 1.253732 -4.000230
v -5.289420 1.253732 -4.019855
v -5.308666 1.235139 -3.990001
v -5.278223 1.235139 -3.970376
v -5.264997 0.710674 -4.024316
v -5.273711 0.736484 -4.058068
v -5.239372 0.762293 -4.064065
v -5.230659 0.736484 -4.030314
v -5.227903 0.754734 -4.048432
v -5.258346 0.754734 -4.068057
v -5.276466 0.718234 -4.039949
v -5.246023 0.718234 -4.020325
v -5.198386 0.113954 -4.127643
v -5.207106 0.139841 -4.161384
v -5.172774 0.165730 -4.167371
v -5.164054 0.139841 -4.133630
v -5.161304 0.158147 -4.151741
v -5.191746 0.158147 -4.171366
v -5.209857 0.121536 -4.143274
v -5.179414 0.121536 -4.123648
v -5.211185 -0.066634 -4.107790
v -5.227160 -0.061727 -4.181625
v -5.153316 -0.056819 -4.197556
v -5.137340 -0.061727 -4.123721
v -5.130034 -0.058256 -4.163937
v -5.193547 -0.058256 -4.204883
v -5.234467 -0.065197 -4.141408
v -5.170954 -0.065197 -4.100464
vn -0.4873 -0.4371 0.7559
vn -0.3754 0.7211 0.5823
vn -0.8074 0.5637 0.1744
vn -0.8813 -0.4325 0.1904
vn -0.7559 -0.4371 -0.4873
vn -0.5823 0.7211 -0.3754
vn -0.1744 0.5637 -0.8074
vn -0.1904 -0.4325 -0.8813
vn 0.4873 -0.4371 -0.7559
vn 0.3754 0.7211 -0.5823
vn 0.8074 0.5637 -0.1744
vn 0.8813 -0.4325 -0.1904
vn 0.7559 -0.4371 0.4873
vn 0.5823 0.7211 0.3754
vn 0.1744 0.5637 0.8074
vn 0.1904 -0.4325 0.8813
vn 0.3062 -0.9313 0.1974
vn 0.3561 -0.9313 -0.0769
vn -0.0000 1.0000 -0.0000
vn -0.3062 -0.9313 -0.1974
vn -0.3561 -0.9313 0.0769
vn -0.1974 -0.9313 0.3062
vn 0.0769 -0.9313 0.3561
vn 0.1974 -0.9313 -0.3062
vn -0.0769 -0.9313 -0.3561
vn -0.0153 -0.9981 -0.0601
vn -0.0515 -0.9982 -0.0294
vn 0.0342 -0.9980 -0.0530
vn -0.0547 -0.9984 0.0141
vn 0.0610 -0.9981 -0.0109
vn 0.0097 -0.9984 0.0557
vn 0.0480 -0.9982 0.0347
vn -0.0300 -0.9985 0.0465
vn 0.9779 0.0166 -0.2082
vn 0.5417 0.0231 -0.8403
vn -0.2141 0.0166 -0.9767
vn -0.8425 0.0003 -0.5387
vn -0.9768 -0.0167 0.2133
vn 0.2090 -0.0167 0.9778
vn 0.8385 0.0003 0.5449
vn -0.5417 -0.0240 0.8402
vn 0.8347 0.0029 0.5507
vn 0.9789 0.0533 -0.1973
vn -0.9763 -0.0538 0.2094
vn -0.5401 -0.0804 0.8378
vn 0.5404 0.0723 -0.8383
vn -0.2244 0.0533 -0.9730
vn -0.8462 0.0029 -0.5329
vn 0.2123 -0.0538 0.9757
vn -0.2460 0.1087 -0.9632
vn -0.8490 0.0045 -0.5284
vn 0.2329 -0.1087 0.9664
vn 0.8318 0.0045 0.5551
vn -0.5343 -0.1667 0.8287
vn 0.9788 0.1087 -0.1736
vn -0.9764 -0.1087 0.1869
vn 0.5358 0.1493 -0.8311
vn -0.8366 0.0565 -0.5449
vn -0.9794 0.0034 0.2019
vn -0.2294 0.1373 -0.9636
vn 0.2205 0.0034 0.9754
vn 0.8417 0.0565 0.5370
vn -0.5418 -0.0010 0.8405
vn 0.9723 0.1373 -0.1889
vn 0.5325 0.1852 -0.8259
vn -0.7769 -0.6078 0.1646
vn -0.4259 -0.6181 0.6607
vn 0.8168 -0.5447 -0.1903
vn 0.4596 -0.5295 -0.7130
vn -0.1639 -0.5447 -0.8225
vn -0.6787 -0.5787 -0.4522
vn 0.1708 -0.6078 0.7755
vn 0.6920 -0.5787 0.4315
vt 0.442261 0.653558
vt 0.441544 0.655767
vt 0.440955 0.655526
vt 0.439969 0.653725
vt 0.438628 0.655518
vt 0.440833 0.656149
vt 0.440609 0.656735
vt 0.438896 0.657726
vt 0.440677 0.658926
vt 0.441219 0.656847
vt 0.441785 0.657070
vt 0.442654 0.658699
vt 0.443938 0.657156
vt 0.441912 0.656475
vt 0.442156 0.655905
vt 0.443913 0.655040
vt 0.438259 0.655408
vt 0.439794 0.653374
vt 0.441378 0.656311
vt 0.444262 0.657280
vt 0.442788 0.658946
vt 0.440601 0.659268
vt 0.438515 0.657955
vt 0.442400 0.653188
vt 0.444256 0.654894
vt 0.441433 0.656139
vt 0.441545 0.656250
vt 0.441284 0.656147
vt 0.441557 0.656417
vt 0.441167 0.656240
vt 0.441253 0.656532
vt 0.441155 0.656397
vt 0.441442 0.656574
vt 0.441571 0.656423
vt 0.441430 0.656541
vt 0.441245 0.656541
vt 0.441100 0.656410
vt 0.441059 0.656184
vt 0.441478 0.656033
vt 0.441596 0.656229
vt 0.441195 0.655907
vt 0.441007 0.656465
vt 0.441078 0.656204
vt 0.441822 0.656561
vt 0.441636 0.657106
vt 0.441254 0.656062
vt 0.441480 0.656055
vt 0.441703 0.656208
vt 0.441140 0.656815
vt 0.441172 0.656710
vt 0.440763 0.656505
vt 0.441731 0.655318
vt 0.441916 0.656084
vt 0.440739 0.654655
vt 0.441735 0.656505
vt 0.440407 0.655800
vt 0.441476 0.656669
vt 0.442464 0.655881
vt 0.443202 0.657331
vt 0.441585 0.655637
vt 0.440581 0.658292
vt 0.440210 0.656705
vt 0.442344 0.659048
vt 0.440727 0.655950
vt 0.441149 0.655775
vt 0.401225 0.641352
vt 0.427200 0.617596
vt 0.477207 0.677258
vt 0.455636 0.695439
vt 0.427427 0.695439
vt 0.403495 0.675574
vt 0.462370 0.619014
vt 0.482700 0.646642
vt 0.000000 0.000000
s 1
usemtl Material.021
f 98/75/74 83/76/75 76/77/76 84/78/77
f 97/79/78 86/80/79 80/81/80 87/82/81
f 96/83/82 89/84/83 78/85/84 90/86/85
f 95/87/86 92/88/87 74/89/88 82/90/89
f 84/78/77 97/79/78 77/91/90 91/92/91
f 93/93/92 83/76/75 74/89/88 92/88/87
f 89/84/83 93/93/92 92/88/87 78/85/84
f 80/81/80 86/80/79 93/93/92 89/84/83
f 86/80/79 76/77/76 83/76/75 93/93/92
f 90/86/85 95/87/86 81/94/93 85/95/94
f 96/83/82 90/86/85 85/95/94 79/96/95
f 87/82/81 96/83/82 79/96/95 88/97/96
f 90/86/85 78/85/84 92/88/87 95/87/86
f 98/75/74 84/78/77 91/92/91 75/98/97
f 82/90/89 98/75/74 75/98/97 94/99/98
f 87/82/81 80/81/80 89/84/83 96/83/82
f 95/87/86 82/90/89 94/99/98 81/94/93
f 97/79/78 87/82/81 88/97/96 77/91/90
f 84/78/77 76/77/76 86/80/79 97/79/78
f 82/90/89 74/89/88 83/76/75 98/75/74
f 77/91/90 88/97/96 104/100/99 100/101/100
f 88/97/96 79/96/95 101/102/101 104/100/99
f 91/92/91 77/91/90 100/101/100 105/103/102
f 79/96/95 85/95/94 103/104/103 101/102/101
f 81/94/93 94/99/98 106/105/104 102/106/105
f 94/99/98 75/98/97 99/107/106 106/105/104
f 85/95/94 81/94/93 102/106/105 103/104/103
f 75/98/97 91/92/91 105/103/102 99/107/106
f 101/102/101 103/104/103 111/108/107 109/109/108
f 104/100/99 101/102/101 109/109/108 112/110/109
f 105/103/102 100/101/100 108/111/110 113/112/111
f 100/101/100 104/100/99 112/110/109 108/111/110
f 102/106/105 106/105/104 114/113/112 110/114/113
f 106/105/104 99/107/106 107/115/114 114/113/112
f 103/104/103 102/106/105 110/114/113 111/108/107
f 99/107/106 105/103/102 113/112/111 107/115/114
f 111/108/107 110/114/113 118/116/115 119/117/116
f 107/115/114 113/112/111 121/118/117 115/119/118
f 109/109/108 111/108/107 119/117/116 117/120/119
f 112/110/109 109/109/108 117/120/119 120/121/120
f 113/112/111 108/111/110 116/122/121 121/118/117
f 108/111/110 112/110/109 120/121/120 116/122/121
f 110/114/113 114/113/112 122/123/122 118/116/115
f 114/113/112 107/115/114 115/119/118 122/123/122
f 116/122/121 120/121/120 128/124/123 124/125/124
f 118/116/115 122/123/122 130/126/125 126/127/126
f 122/123/122 115/119/118 123/128/127 130/126/125
f 119/117/116 118/116/115 126/127/126 127/129/128
f 115/119/118 121/118/117 129/130/129 123/128/127
f 117/120/119 119/117/116 127/129/128 125/131/130
f 120/121/120 117/120/119 125/131/130 128/124/123
f 121/118/117 116/122/121 124/125/124 129/130/129
f 129/130/129 124/125/124 132/132/131 137/133/132
f 124/125/124 128/124/123 136/134/133 132/132/131
f 126/127/126 130/126/125 138/135/134 134/136/135
f 130/126/125 123/128/127 131/137/136 138/135/134
f 127/129/128 126/127/126 134/136/135 135/138/137
f 123/128/127 129/130/129 137/133/132 131/137/136
f 125/131/130 127/129/128 135/138/137 133/139/138
f 128/124/123 125/131/130 133/139/138 136/134/133
f 131/137/136 137/133/132 145/140/139 139/141/140
f 133/139/138 135/138/137 143/142/141 141/143/142
f 136/134/133 133/139/138 141/143/142 144/144/143
f 137/133/132 132/132/131 140/145/144 145/140/139
f 132/132/131 136/134/133 144/144/143 140/145/144
f 134/136/135 138/135/134 146/146/145 142/147/146
f 138/135/134 131/137/136 139/141/140 146/146/145
f 135/138/137 134/136/135 142/147/146 143/142/141
f 141/148/142 143/148/141 142/148/146 146/148/145
f 144/148/143 141/148/142 146/148/145 139/148/140
f 140/148/144 144/148/143 139/148/140 145/148/139
o fungo.018
v -5.767775 1.204185 -4.179320
v -6.012684 1.053321 -4.330185
v -5.767775 1.204185 -4.481049
v -5.616911 1.053321 -4.725958
v -5.466047 1.204185 -4.179320
v -5.221137 1.053321 -4.330184
v -5.466047 1.204185 -4.481048
v -5.616911 1.053321 -3.934412
v -5.929657 1.053321 -4.017438
v -5.801681 1.238091 -4.330185
v -5.929657 1.053321 -4.642931
v -5.337057 1.053321 -4.050331
v -5.616911 1.238091 -4.514955
v -5.304164 1.053321 -4.642931
v -5.337057 1.053321 -4.610039
v -5.432141 1.238091 -4.330184
v -5.304164 1.053321 -4.017438
v -5.896765 1.053321 -4.610039
v -5.616911 1.238091 -4.145414
v -5.616911 1.272706 -4.330184
v -5.896765 1.053321 -4.050331
v -5.616911 1.053321 -3.887894
v -5.174620 1.053321 -4.330184
v -5.616911 1.053321 -4.772475
v -6.059201 1.053321 -4.330185
v -5.651846 1.252437 -4.330185
v -5.616911 1.252437 -4.365121
v -5.581975 1.252437 -4.330184
v -5.616911 1.252437 -4.295249
v -5.592208 1.252437 -4.305482
v -5.592208 1.252437 -4.354888
v -5.641614 1.252437 -4.354888
v -5.641614 1.252437 -4.305482
v -5.644815 0.939774 -4.330184
v -5.609924 0.941537 -4.365119
v -5.575033 0.943299 -4.330184
v -5.609924 0.941537 -4.295249
v -5.585252 0.942783 -4.305481
v -5.585252 0.942783 -4.354888
v -5.634596 0.940291 -4.354888
v -5.634596 0.940291 -4.305481
v -5.611348 0.610527 -4.330184
v -5.577087 0.617363 -4.365119
v -5.542827 0.624198 -4.330184
v -5.577087 0.617363 -4.295249
v -5.552862 0.622196 -4.305481
v -5.552862 0.622196 -4.354888
v -5.601314 0.612529 -4.354888
v -5.601313 0.612529 -4.305481
v -5.529697 0.339854 -4.330184
v -5.497441 0.353272 -4.365119
v -5.465186 0.366691 -4.330184
v -5.497441 0.353272 -4.295249
v -5.474633 0.362761 -4.305481
v -5.474633 0.362761 -4.354888
v -5.520249 0.343784 -4.354888
v -5.520249 0.343784 -4.305481
v -5.362004 0.029612 -4.330184
v -5.329765 0.043071 -4.365119
v -5.297526 0.056531 -4.330184
v -5.329765 0.043071 -4.295249
v -5.306969 0.052589 -4.305481
v -5.306969 0.052589 -4.354888
v -5.352561 0.033554 -4.354888
v -5.352561 0.033554 -4.305481
v -5.394224 -0.064278 -4.330184
v -5.321381 -0.061727 -4.403071
v -5.248538 -0.059175 -4.330184
v -5.321381 -0.061727 -4.257297
v -5.269874 -0.059922 -4.278645
v -5.269874 -0.059922 -4.381724
v -5.372889 -0.063531 -4.381724
v -5.372889 -0.063531 -4.278645
vn -0.9692 -0.2462 -0.0000
vn -0.4106 0.9118 -0.0000
vn -0.3497 0.8691 -0.3497
vn -0.6846 -0.2500 -0.6846
vn -0.0000 -0.2462 -0.9692
vn -0.0000 0.9118 -0.4106
vn 0.3497 0.8691 -0.3497
vn 0.6846 -0.2500 -0.6846
vn 0.9692 -0.2462 -0.0000
vn 0.4106 0.9118 -0.0000
vn 0.3497 0.8691 0.3497
vn 0.6846 -0.2500 0.6846
vn -0.0000 -0.2462 0.9692
vn -0.0000 0.9118 0.4106
vn -0.3497 0.8691 0.3497
vn -0.6846 -0.2500 0.6846
vn -0.0000 -0.9819 0.1894
vn 0.1339 -0.9819 0.1339
vn -0.0000 1.0000 -0.0000
vn -0.0000 -0.9819 -0.1894
vn -0.1339 -0.9819 -0.1339
vn -0.1894 -0.9819 -0.0000
vn -0.1339 -0.9819 0.1339
vn 0.1894 -0.9819 -0.0000
vn 0.1339 -0.9819 -0.1339
vn 0.2254 -0.9467 -0.2300
vn -0.0046 -0.9491 -0.3150
vn 0.3249 -0.9457 -0.0000
vn -0.2202 -0.9513 -0.2157
vn 0.2254 -0.9467 0.2300
vn -0.2202 -0.9513 0.2157
vn -0.0046 -0.9491 0.3150
vn -0.3054 -0.9522 -0.0000
vn 0.7012 0.0432 0.7117
vn 0.9981 0.0616 -0.0000
vn 0.7012 0.0432 -0.7117
vn -0.0095 -0.0007 -1.0000
vn -0.7107 -0.0440 -0.7021
vn -0.7107 -0.0440 0.7021
vn -0.0095 -0.0007 1.0000
vn -0.9981 -0.0617 -0.0000
vn -0.0229 -0.0046 0.9997
vn 0.6814 0.1359 0.7192
vn -0.7043 -0.1407 -0.6958
vn -0.9806 -0.1958 -0.0000
vn 0.9807 0.1955 -0.0000
vn 0.6814 0.1359 -0.7192
vn -0.0229 -0.0046 -0.9997
vn -0.7043 -0.1407 0.6958
vn 0.6410 0.2667 -0.7197
vn -0.0228 -0.0095 -0.9997
vn -0.6638 -0.2762 0.6950
vn -0.0228 -0.0095 0.9997
vn -0.9233 -0.3841 -0.0000
vn 0.6410 0.2667 0.7197
vn -0.6638 -0.2762 -0.6950
vn 0.9233 0.3841 -0.0000
vn 0.0199 0.1872 -0.9821
vn -0.6796 0.0151 -0.7334
vn 0.6525 0.3607 -0.6665
vn -0.6796 0.0151 0.7334
vn 0.0199 0.1872 0.9821
vn -0.9983 -0.0579 -0.0000
vn 0.6525 0.3607 0.6665
vn 0.9008 0.4342 -0.0000
vn -0.6130 -0.5162 -0.5982
vn -0.8534 -0.5212 -0.0000
vn 0.6263 -0.4709 0.6213
vn 0.8889 -0.4581 -0.0000
vn 0.6263 -0.4709 -0.6213
vn -0.0042 -0.4974 -0.8675
vn -0.6130 -0.5162 0.5982
vn -0.0042 -0.4974 0.8675
vt 0.748364 0.555245
vt 0.751110 0.549853
vt 0.754100 0.550939
vt 0.755807 0.556085
vt 0.761257 0.550992
vt 0.755857 0.548291
vt 0.756925 0.545309
vt 0.762024 0.543601
vt 0.756950 0.538235
vt 0.754291 0.543561
vt 0.751333 0.542488
vt 0.749704 0.537386
vt 0.744229 0.542359
vt 0.749568 0.545106
vt 0.748473 0.548083
vt 0.743326 0.549743
vt 0.762468 0.551535
vt 0.756292 0.557339
vt 0.752706 0.546704
vt 0.743034 0.541801
vt 0.749241 0.536156
vt 0.757487 0.537051
vt 0.763262 0.543113
vt 0.747809 0.556455
vt 0.742074 0.550215
vt 0.752269 0.547783
vt 0.751644 0.547125
vt 0.753142 0.547759
vt 0.751675 0.546213
vt 0.753823 0.547214
vt 0.753246 0.545637
vt 0.753870 0.546310
vt 0.752336 0.545576
vt 0.751131 0.545995
vt 0.752160 0.545097
vt 0.753525 0.545110
vt 0.754458 0.546119
vt 0.754395 0.547487
vt 0.752009 0.548363
vt 0.751072 0.547369
vt 0.753368 0.548380
vt 0.755245 0.545691
vt 0.755185 0.547757
vt 0.750292 0.545490
vt 0.751792 0.544102
vt 0.753654 0.549152
vt 0.751583 0.549082
vt 0.750191 0.547553
vt 0.753834 0.544185
vt 0.754650 0.542938
vt 0.757117 0.545367
vt 0.750953 0.550966
vt 0.748562 0.548518
vt 0.754133 0.550457
vt 0.748865 0.545071
vt 0.756884 0.548782
vt 0.751329 0.542844
vt 0.746839 0.549229
vt 0.746942 0.544245
vt 0.750309 0.552383
vt 0.755592 0.541072
vt 0.758892 0.544808
vt 0.750577 0.540778
vt 0.758288 0.549458
vt 0.754505 0.551487
vt 0.718898 0.530258
vt 0.740121 0.512270
vt 0.791551 0.564231
vt 0.767950 0.588142
vt 0.734487 0.585165
vt 0.715035 0.559854
vt 0.767940 0.512270
vt 0.790022 0.532348
vt 0.000000 0.000000
s 1
usemtl Material.021
f 171/149/147 156/150/148 149/151/149 157/152/150
f 170/153/151 159/154/152 153/155/153 160/156/154
f 169/157/155 162/158/156 151/159/157 163/160/158
f 168/161/159 165/162/160 147/163/161 155/164/162
f 157/152/150 170/153/151 150/165/163 164/166/164
f 166/167/165 156/150/148 147/163/161 165/162/160
f 162/158/156 166/167/165 165/162/160 151/159/157
f 153/155/153 159/154/152 166/167/165 162/158/156
f 159/154/152 149/151/149 156/150/148 166/167/165
f 163/160/158 168/161/159 154/168/166 158/169/167
f 169/157/155 163/160/158 158/169/167 152/170/168
f 160/156/154 169/157/155 152/170/168 161/171/169
f 163/160/158 151/159/157 165/162/160 168/161/159
f 171/149/147 157/152/150 164/166/164 148/172/170
f 155/164/162 171/149/147 148/172/170 167/173/171
f 160/156/154 153/155/153 162/158/156 169/157/155
f 168/161/159 155/164/162 167/173/171 154/168/166
f 170/153/151 160/156/154 161/171/169 150/165/163
f 157/152/150 149/151/149 159/154/152 170/153/151
f 155/164/162 147/163/161 156/150/148 171/149/147
f 150/165/163 161/171/169 177/174/172 173/175/173
f 161/171/169 152/170/168 174/176/174 177/174/172
f 164/166/164 150/165/163 173/175/173 178/177/175
f 152/170/168 158/169/167 176/178/176 174/176/174
f 154/168/166 167/173/171 179/179/177 175/180/178
f 167/173/171 148/172/170 172/181/179 179/179/177
f 158/169/167 154/168/166 175/180/178 176/178/176
f 148/172/170 164/166/164 178/177/175 172/181/179
f 174/176/174 176/178/176 184/182/180 182/183/181
f 177/174/172 174/176/174 182/183/181 185/184/182
f 178/177/175 173/175/173 181/185/183 186/186/184
f 173/175/173 177/174/172 185/184/182 181/185/183
f 175/180/178 179/179/177 187/187/185 183/188/186
f 179/179/177 172/181/179 180/189/187 187/187/185
f 176/178/176 175/180/178 183/188/186 184/182/180
f 172/181/179 178/177/175 186/186/184 180/189/187
f 184/182/180 183/188/186 191/190/188 192/191/189
f 180/189/187 186/186/184 194/192/190 188/193/191
f 182/183/181 184/182/180 192/191/189 190/194/192
f 185/184/182 182/183/181 190/194/192 193/195/193
f 186/186/184 181/185/183 189/196/194 194/192/190
f 181/185/183 185/184/182 193/195/193 189/196/194
f 183/188/186 187/187/185 195/197/195 191/190/188
f 187/187/185 180/189/187 188/193/191 195/197/195
f 189/196/194 193/195/193 201/198/196 197/199/197
f 191/190/188 195/197/195 203/200/198 199/201/199
f 195/197/195 188/193/191 196/202/200 203/200/198
f 192/191/189 191/190/188 199/201/199 200/203/201
f 188/193/191 194/192/190 202/204/202 196/202/200
f 190/194/192 192/191/189 200/203/201 198/205/203
f 193/195/193 190/194/192 198/205/203 201/198/196
f 194/192/190 189/196/194 197/199/197 202/204/202
f 202/204/202 197/199/197 205/206/204 210/207/205
f 197/199/197 201/198/196 209/208/206 205/206/204
f 199/201/199 203/200/198 211/209/207 207/210/208
f 203/200/198 196/202/200 204/211/209 211/209/207
f 200/203/201 199/201/199 207/210/208 208/212/210
f 196/202/200 202/204/202 210/207/205 204/211/209
f 198/205/203 200/203/201 208/212/210 206/213/211
f 201/198/196 198/205/203 206/213/211 209/208/206
f 204/211/209 210/207/205 218/214/212 212/215/213
f 206/213/211 208/212/210 216/216/214 214/217/215
f 209/208/206 206/213/211 214/217/215 217/218/216
f 210/207/205 205/206/204 213/219/217 218/214/212
f 205/206/204 209/208/206 217/218/216 213/219/217
f 207/210/208 211/209/207 219/220/218 215/221/219
f 211/209/207 204/211/209 212/215/213 219/220/218
f 208/212/210 207/210/208 215/221/219 216/216/214
f 217/222/216 214/222/215 216/222/214 215/222/219
f 213/222/217 217/222/216 215/222/219 219/222/218
f 218/222/212 213/222/217 219/222/218 212/222/213
