# Blender 5.0.0
# www.blender.org
mtllib fungus orange flatidsh.mtl
o fungo.041
v -2.893470 -0.010639 -4.432904
v -2.977293 -0.010639 -4.384510
v -2.977293 -0.010639 -4.287718
v -2.893470 -0.010639 -4.239323
v -2.809646 -0.010639 -4.287718
v -2.809646 -0.010639 -4.384510
v -2.897922 0.154076 -4.442135
v -2.989739 0.154076 -4.389125
v -2.989739 0.154076 -4.283103
v -2.897922 0.154076 -4.230093
v -2.806104 0.154076 -4.283103
v -2.806104 0.154076 -4.389125
v -2.911277 0.512442 -4.415226
v -2.979791 0.512442 -4.375670
v -2.979791 0.512442 -4.296557
v -2.911277 0.512442 -4.257000
v -2.842763 0.512442 -4.296557
v -2.842763 0.512442 -4.375670
v -2.913503 0.641543 -4.411569
v -2.978849 0.641543 -4.373842
v -2.978849 0.641543 -4.298387
v -2.913503 0.641543 -4.260658
v -2.848156 0.641543 -4.298387
v -2.848156 0.641543 -4.373842
v -2.920583 1.044370 -4.394235
v -2.952779 1.036641 -4.377330
v -2.952779 1.021184 -4.343520
v -2.920583 1.013456 -4.326615
v -2.888388 1.021184 -4.343520
v -2.888388 1.036641 -4.377330
v -2.821577 1.070528 -4.384812
v -2.821577 1.022995 -4.280838
v -2.920583 0.999228 -4.228852
v -3.019591 1.022995 -4.280838
v -3.019591 1.070528 -4.384812
v -2.920583 1.094295 -4.436800
v -2.653588 1.147866 -4.420697
v -2.653588 1.017052 -4.134556
v -2.926062 0.951644 -3.991486
v -3.198535 1.017051 -4.134556
v -3.198535 1.147866 -4.420697
v -2.926062 1.213273 -4.563767
v -2.442674 1.255461 -4.480576
v -2.442674 1.024657 -3.975720
v -2.923415 0.909255 -3.723293
v -3.404157 1.024657 -3.975721
v -3.404157 1.255461 -4.480577
v -2.923415 1.370864 -4.733004
v -2.442717 1.307141 -4.452115
v -2.442717 1.076338 -3.947258
v -2.923458 0.960935 -3.694830
v -3.404199 1.076338 -3.947258
v -3.404200 1.307141 -4.452115
v -2.923458 1.422544 -4.704541
v -2.494151 1.325462 -4.409908
v -2.494151 1.120644 -3.961892
v -2.920768 1.018234 -3.737885
v -3.347384 1.120644 -3.961893
v -3.347385 1.325462 -4.409908
v -2.920768 1.427873 -4.633917
v -2.614509 1.266656 -4.366820
v -2.614509 1.119622 -4.045200
v -2.920768 1.046104 -3.884389
v -3.227026 1.119622 -4.045200
v -3.227026 1.266656 -4.366820
v -2.920768 1.340174 -4.527630
v -2.794681 1.162411 -4.322954
v -2.794681 1.101877 -4.190542
v -2.920768 1.071610 -4.124338
v -3.046855 1.101877 -4.190542
v -3.046855 1.162411 -4.322954
v -2.920768 1.192679 -4.389160
v -2.913224 0.565817 -4.208129
v -2.913207 0.564775 -4.198190
v -2.913207 0.564775 -4.474036
v -2.913224 0.565817 -4.464097
v -2.802387 0.565817 -4.400106
v -2.793762 0.564775 -4.405076
v -2.842375 0.624998 -4.377015
v -2.984060 0.624998 -4.295213
v -2.913218 0.624998 -4.417915
v -2.844881 0.642161 -4.296489
v -2.842375 0.624998 -4.295213
v -2.844881 0.642161 -4.375740
v -2.913513 0.642161 -4.415363
v -2.982146 0.642161 -4.375740
v -2.984059 0.624998 -4.377015
v -2.982146 0.642161 -4.296489
v -2.913513 0.642162 -4.256865
v -2.913218 0.624998 -4.254312
v -2.847491 0.625617 -4.298161
v -2.847491 0.625617 -4.374068
v -2.913228 0.625617 -4.412021
v -2.978965 0.625617 -4.374068
v -2.978965 0.625617 -4.298161
v -2.913228 0.625617 -4.260207
v -3.032651 0.564775 -4.267152
v -3.024062 0.565817 -4.272122
v -3.032651 0.564775 -4.405076
v -3.024062 0.565817 -4.400106
v -2.793762 0.564775 -4.267152
v -2.802387 0.565817 -4.272122
v -2.743397 0.478451 -4.434153
v -2.755659 0.479934 -4.427087
v -3.083008 0.478451 -4.434153
v -3.070797 0.479934 -4.427087
v -2.913203 0.478451 -4.532188
v -2.913203 0.478452 -4.140038
v -2.913228 0.479934 -4.154167
v -2.913228 0.479934 -4.518058
v -3.083008 0.478451 -4.238075
v -3.070797 0.479934 -4.245142
v -2.743397 0.478451 -4.238075
v -2.755659 0.479934 -4.245142
vn 0.0068 -0.6309 -0.7759
vn 0.0015 0.0094 -1.0000
vn 0.8658 0.0364 -0.4991
vn 0.6797 -0.6222 -0.3885
vn 0.6797 -0.6222 0.3885
vn 0.8658 0.0364 0.4991
vn 0.0015 0.0094 1.0000
vn 0.0068 -0.6308 0.7759
vn -0.6640 -0.6396 0.3873
vn -0.8655 -0.0179 0.5007
vn -0.8655 -0.0179 -0.5007
vn -0.6640 -0.6396 -0.3873
vn 0.8626 0.0757 0.5002
vn -0.0035 0.0518 0.9987
vn -0.8665 0.0282 0.4983
vn -0.8665 0.0282 -0.4983
vn 0.8626 0.0757 -0.5002
vn -0.0035 0.0518 -0.9987
vn -0.3356 0.9168 0.2165
vn -0.3705 0.9057 -0.2059
vn -0.6172 0.7028 -0.3537
vn -0.6172 0.7028 0.3537
vn -0.7638 0.4701 -0.4423
vn 0.0022 0.4761 -0.8794
vn -0.0000 0.6100 -0.7924
vn -0.6862 0.6100 -0.3962
vn 0.0032 0.9009 -0.4341
vn 0.3612 0.9118 -0.1955
vn 0.6060 0.7131 -0.3525
vn -0.0046 0.7079 -0.7063
vn -0.0389 -0.9991 0.0186
vn -0.0068 -0.9988 0.0493
vn -0.0000 -0.5845 -0.8114
vn 0.7027 -0.5845 -0.4057
vn 0.7593 0.4820 -0.4371
vn 0.7593 0.4820 0.4371
vn 0.6862 0.6101 0.3962
vn 0.6862 0.6101 -0.3962
vn 0.3265 0.9217 0.2093
vn 0.0022 0.9222 0.3867
vn -0.0046 0.7079 0.7063
vn 0.6060 0.7131 0.3525
vn -0.7558 -0.6547 0.0157
vn -0.5570 -0.4842 -0.6748
vn 0.5608 -0.4726 -0.6798
vn 0.7661 -0.6423 0.0232
vn -0.0047 -0.7981 0.6025
vn -0.0024 -0.4152 -0.9097
vn -0.2329 -0.9293 -0.2867
vn -0.2684 -0.7917 -0.5488
vn 0.0038 -0.7027 -0.7115
vn 0.2410 -0.9277 -0.2851
vn 0.0020 -0.9839 -0.1788
vn 0.2766 -0.7880 -0.5501
vn -0.2353 -0.9297 -0.2833
vn -0.2542 -0.8052 -0.5358
vn 0.2343 -0.9304 -0.2818
vn -0.0014 -0.9855 -0.1699
vn -0.0021 -0.7344 -0.6787
vn 0.2541 -0.8023 -0.5401
vn 0.0006 -0.0708 -0.9975
vn 0.7446 -0.2701 -0.6104
vn -0.7365 -0.6593 0.1510
vn -0.7451 -0.2685 -0.6105
vn 0.7363 -0.6599 0.1498
vn 0.0005 -0.8515 0.5243
vn -0.7720 0.6050 -0.1946
vn -0.0022 0.8017 -0.5977
vn -0.0023 0.0026 1.0000
vn -0.7722 0.2071 0.6007
vn 0.7756 0.5976 -0.2032
vn 0.7754 0.1958 0.6003
vn -0.1996 0.8361 0.5109
vn -0.1967 0.9347 0.2961
vn 0.2196 0.8304 0.5121
vn 0.0068 0.7822 0.6230
vn 0.2166 0.9319 0.2908
vn 0.0070 0.9824 0.1867
vn -0.0000 0.9872 0.1594
vn 0.2372 0.9312 0.2768
vn -0.0000 0.7430 0.6693
vn -0.2507 0.8095 0.5308
vn 0.2507 0.8095 0.5308
vn -0.2372 0.9312 0.2768
vn -0.1969 0.9293 0.3125
vn -0.0000 0.9769 0.2137
vn -0.2039 0.8277 0.5228
vn 0.2039 0.8277 0.5228
vn -0.0000 0.7748 0.6323
vn 0.1969 0.9293 0.3125
vn 0.0464 -0.9984 0.0309
vn 0.0464 -0.9984 -0.0309
vn -0.7027 -0.5844 0.4057
vn -0.7027 -0.5844 -0.4057
vn -0.0068 -0.9988 -0.0493
vn -0.0000 -0.5844 0.8114
vn -0.7638 0.4701 0.4423
vn 0.0022 0.4761 0.8794
vn -0.0389 -0.9991 -0.0186
vn 0.7864 -0.4188 -0.4541
vn -0.0000 -0.4189 -0.9081
vn 0.7027 -0.5845 0.4057
vn 0.3540 -0.9127 0.2043
vn 0.0001 -0.9127 0.4086
vn 0.3540 -0.9127 -0.2043
vn 0.7864 -0.4188 0.4541
vn -0.3537 -0.9128 0.2043
vn -0.7864 -0.4189 -0.4540
vn -0.6862 0.6100 0.3962
vn -0.0000 0.6101 0.7924
vn -0.3538 -0.9128 -0.2043
vn 0.0001 -0.9127 -0.4086
vn -0.0000 -0.4189 0.9081
vn -0.7864 -0.4189 0.4540
vt 0.268923 0.567203
vt 0.263124 0.607024
vt 0.259463 0.610164
vt 0.250607 0.590127
vt 0.250607 0.609084
vt 0.259046 0.615337
vt 0.261230 0.618062
vt 0.260602 0.617788
vt 0.272782 0.613266
vt 0.263806 0.616539
vt 0.264936 0.611429
vt 0.278979 0.595396
vt 0.252137 0.675742
vt 0.251986 0.677979
vt 0.252347 0.676705
vt 0.252972 0.674855
vt 0.252508 0.673456
vt 0.252883 0.673307
vt 0.662460 0.735365
vt 0.662536 0.735395
vt 0.252089 0.680364
vt 0.252043 0.678521
vt 0.662573 0.735051
vt 0.662573 0.734701
vt 0.250769 0.684165
vt 0.250028 0.691007
vt 0.251565 0.679382
vt 0.251472 0.683568
vt 0.662478 0.734731
vt 0.662450 0.735047
vt 0.661673 0.734433
vt 0.657745 0.734379
vt 0.657772 0.735387
vt 0.661693 0.735615
vt 0.664403 0.735124
vt 0.656143 0.734808
vt 0.666549 0.738503
vt 0.655495 0.736981
vt 0.648061 0.734418
vt 0.666872 0.731967
vt 0.674070 0.735508
vt 0.655926 0.732693
vt 0.676256 0.746257
vt 0.654200 0.745151
vt 0.677015 0.725536
vt 0.698416 0.736738
vt 0.621405 0.733989
vt 0.654646 0.725101
vt 0.573381 0.731915
vt 0.658617 0.716737
vt 0.681087 0.750062
vt 0.657367 0.753347
vt 0.682257 0.721815
vt 0.736195 0.738078
vt 0.659914 0.745464
vt 0.592487 0.732650
vt 0.761729 0.739056
vt 0.681217 0.742148
vt 0.660566 0.724785
vt 0.681782 0.729704
vt 0.682271 0.734503
vt 0.661445 0.737260
vt 0.681956 0.737687
vt 0.735713 0.738160
vt 0.661722 0.733338
vt 0.614389 0.733549
vt 0.708143 0.737106
vt 0.682313 0.731609
vt 0.638390 0.734451
vt 0.662955 0.737494
vt 0.663062 0.733226
vt 0.681876 0.740582
vt 0.677112 0.735907
vt 0.686428 0.736263
vt 0.665446 0.735582
vt 0.665449 0.735343
vt 0.659414 0.735237
vt 0.677132 0.735917
vt 0.000000 0.000000
vt 0.250622 0.685309
vt 0.250806 0.691393
vt 0.249191 0.691624
vt 0.251205 0.685872
vt 0.251202 0.683735
vt 0.248071 0.704034
s 1
usemtl Material.002
f 1/1/1 7/2/2 12/3/3 6/4/4
f 5/5/5 11/6/6 10/7/7 4/8/8
f 3/9/9 9/10/10 8/11/11 2/12/12
f 6/4/4 12/3/3 11/6/6 5/5/5
f 4/8/8 10/7/7 9/10/10 3/9/9
f 2/12/12 8/11/11 7/2/2 1/1/1
f 11/6/6 17/13/13 16/14/14 10/7/7
f 9/10/10 15/15/15 14/16/16 8/11/11
f 12/3/3 18/17/17 17/13/13 11/6/6
f 10/7/7 16/14/14 15/15/15 9/10/10
f 8/11/11 14/16/16 13/18/18 7/2/2
f 7/2/2 13/18/18 18/17/17 12/3/3
f 21/19/19 20/20/20 86/20/21 88/19/22
f 87/21/23 81/22/24 75/22/25 99/21/26
f 19/23/27 24/24/28 84/24/29 85/23/30
f 95/25/31 96/26/32 73/26/33 98/25/34
f 79/27/35 83/28/36 101/28/37 78/27/38
f 23/29/39 22/30/40 89/30/41 82/29/42
f 20/20/20 21/19/19 27/31/43 26/32/44
f 23/29/39 24/24/28 30/33/45 29/34/46
f 21/19/19 22/30/40 28/35/47 27/31/43
f 19/23/27 20/20/20 26/32/44 25/36/48
f 24/24/28 19/23/27 25/36/48 30/33/45
f 22/30/40 23/29/39 29/34/46 28/35/47
f 26/32/44 27/31/43 34/37/49 35/38/50
f 25/36/48 26/32/44 35/38/50 36/39/51
f 28/35/47 29/34/46 32/40/52 33/41/53
f 30/33/45 25/36/48 36/39/51 31/42/54
f 29/34/46 30/33/45 31/42/54 32/40/52
f 27/31/43 28/35/47 33/41/53 34/37/49
f 35/38/50 34/37/49 40/43/55 41/44/56
f 33/41/53 32/40/52 38/45/57 39/46/58
f 36/39/51 35/38/50 41/44/56 42/47/59
f 34/37/49 33/41/53 39/46/58 40/43/55
f 32/40/52 31/42/54 37/48/60 38/45/57
f 31/42/54 36/39/51 42/47/59 37/48/60
f 37/48/60 42/47/59 48/49/61 43/50/62
f 41/44/56 40/43/55 46/51/63 47/52/64
f 39/46/58 38/45/57 44/53/65 45/54/66
f 38/45/57 37/48/60 43/50/62 44/53/65
f 42/47/59 41/44/56 47/52/64 48/49/61
f 40/43/55 39/46/58 45/54/66 46/51/63
f 48/49/61 47/52/64 53/55/67 54/56/68
f 46/51/63 45/54/66 51/57/69 52/58/70
f 43/50/62 48/49/61 54/56/68 49/59/71
f 47/52/64 46/51/63 52/58/70 53/55/67
f 45/54/66 44/53/65 50/60/72 51/57/69
f 44/53/65 43/50/62 49/59/71 50/60/72
f 53/55/67 52/58/70 58/61/73 59/62/74
f 51/57/69 50/60/72 56/63/75 57/64/76
f 50/60/72 49/59/71 55/65/77 56/63/75
f 54/56/68 53/55/67 59/62/74 60/66/78
f 52/58/70 51/57/69 57/64/76 58/61/73
f 49/59/71 54/56/68 60/66/78 55/65/77
f 4/79/8 3/79/9 2/79/12 1/79/1
f 5/79/5 4/79/8 1/79/1 6/79/4
f 22/30/40 21/19/19 88/19/22 89/30/41
f 91/28/91 92/27/92 77/27/93 102/28/94
f 24/24/28 23/29/39 82/29/42 84/24/29
f 92/27/92 93/22/95 76/22/96 77/27/93
f 96/26/32 91/28/91 102/28/94 73/26/33
f 20/20/20 19/23/27 85/23/30 86/20/21
f 79/27/35 84/80/29 82/81/42 83/28/36
f 80/25/97 88/82/22 86/83/21 87/21/23
f 87/21/23 86/83/21 85/84/30 81/22/24
f 83/28/36 82/81/42 89/85/41 90/26/98
f 90/26/98 89/85/41 88/82/22 80/25/97
f 81/22/24 85/84/30 84/80/29 79/27/35
f 18/17/17 92/27/92 91/28/91 17/13/13
f 17/13/13 91/28/91 96/26/32 16/14/14
f 16/14/14 96/26/32 95/25/31 15/15/15
f 14/16/16 94/21/99 93/22/95 13/18/18
f 15/15/15 95/25/31 94/21/99 14/16/16
f 13/18/18 93/22/95 92/27/92 18/17/17
f 75/22/25 78/27/38 103/27/100 107/22/101
f 76/22/96 100/21/102 106/21/103 110/22/104
f 100/21/102 98/25/34 112/25/105 106/21/103
f 78/27/38 101/28/37 113/28/106 103/27/100
f 77/27/93 76/22/96 110/22/104 104/27/107
f 99/21/26 75/22/25 107/22/101 105/21/108
f 94/21/99 95/25/31 98/25/34 100/21/102
f 90/26/98 80/25/97 97/25/109 74/26/110
f 80/25/97 87/21/23 99/21/26 97/25/109
f 83/28/36 90/26/98 74/26/110 101/28/37
f 81/22/24 79/27/35 78/27/38 75/22/25
f 93/22/95 94/21/99 100/21/102 76/22/96
f 114/28/111 104/27/107 103/27/100 113/28/106
f 104/27/107 110/22/104 107/22/101 103/27/100
f 109/26/112 114/28/111 113/28/106 108/26/113
f 112/25/105 109/26/112 108/26/113 111/25/114
f 110/22/104 106/21/103 105/21/108 107/22/101
f 106/21/103 112/25/105 111/25/114 105/21/108
f 101/28/37 74/26/110 108/26/113 113/28/106
f 102/28/94 77/27/93 104/27/107 114/28/111
f 97/25/109 99/21/26 105/21/108 111/25/114
f 74/26/110 97/25/109 111/25/114 108/26/113
f 98/25/34 73/26/33 109/26/112 112/25/105
f 73/26/33 102/28/94 114/28/111 109/26/112
usemtl Material.007
f 58/61/73 57/64/76 63/67/79 64/68/80
f 55/65/77 60/66/78 66/69/81 61/70/82
f 59/62/74 58/61/73 64/68/80 65/71/83
f 57/64/76 56/63/75 62/72/84 63/67/79
f 56/63/75 55/65/77 61/70/82 62/72/84
f 60/66/78 59/62/74 65/71/83 66/69/81
f 63/67/79 62/72/84 68/73/85 69/74/86
f 62/72/84 61/70/82 67/75/87 68/73/85
f 66/69/81 65/71/83 71/76/88 72/77/89
f 64/68/80 63/67/79 69/74/86 70/78/90
f 61/70/82 66/69/81 72/77/89 67/75/87
f 65/71/83 64/68/80 70/78/90 71/76/88
f 69/74/86 72/77/89 71/76/88 70/78/90
f 68/73/85 67/75/87 72/77/89 69/74/86
