# Blender 5.0.0
# www.blender.org
mtllib fungus yellow tinytiny.mtl
o fungo.022
v 5.735994 -0.022174 -4.202885
v 5.708721 -0.022174 -4.187139
v 5.708721 -0.022174 -4.155646
v 5.735994 -0.022174 -4.139900
v 5.763267 -0.022174 -4.155646
v 5.763267 -0.022174 -4.187139
v 5.746572 0.193085 -4.180350
v 5.762086 0.193085 -4.189307
v 5.746572 0.193085 -4.162435
v 5.762086 0.193085 -4.153478
v 5.777600 0.193085 -4.162435
v 5.777600 0.193085 -4.180350
v 5.720028 0.415610 -4.180350
v 5.735542 0.415610 -4.189307
v 5.720028 0.415610 -4.162435
v 5.735542 0.415610 -4.153478
v 5.751057 0.415610 -4.162435
v 5.751057 0.415610 -4.180350
v 5.710579 0.420878 -4.185805
v 5.735542 0.420878 -4.200218
v 5.710579 0.420878 -4.156980
v 5.735542 0.420878 -4.142568
v 5.760506 0.420878 -4.156980
v 5.760506 0.420878 -4.185805
v 5.680383 0.411775 -4.203239
v 5.735542 0.411775 -4.235086
v 5.680383 0.411775 -4.139546
v 5.735542 0.411775 -4.107699
v 5.790703 0.411775 -4.139546
v 5.790703 0.411775 -4.203239
v 5.689905 0.440599 -4.197742
v 5.735542 0.440599 -4.224091
v 5.689905 0.440599 -4.145043
v 5.735542 0.440599 -4.118694
v 5.781181 0.440599 -4.145043
v 5.781181 0.440599 -4.197742
v 5.706051 0.466449 -4.188420
v 5.735542 0.466449 -4.205448
v 5.706051 0.466449 -4.154365
v 5.735542 0.466449 -4.137338
v 5.765035 0.466449 -4.154365
v 5.765035 0.466449 -4.188420
v 5.725572 0.484290 -4.177149
v 5.735542 0.484290 -4.182906
v 5.725572 0.484290 -4.165636
v 5.735542 0.484290 -4.159880
v 5.745513 0.484290 -4.165636
v 5.745513 0.484290 -4.177149
vn -0.0302 -0.5844 -0.8109
vn 0.6681 -0.6252 -0.4034
vn 0.6681 -0.6252 0.4034
vn -0.0302 -0.5844 0.8109
vn -0.7326 -0.5465 -0.4059
vn -0.7326 -0.5465 0.4059
vn 0.0386 0.0316 0.9988
vn -0.0180 -0.6272 0.7786
vn -0.6530 -0.6621 0.3676
vn -0.8553 0.0332 0.5171
vn 0.8747 0.0298 -0.4837
vn 0.6961 -0.5869 -0.4134
vn 0.6961 -0.5870 0.4134
vn 0.8747 0.0298 0.4837
vn -0.8553 0.0332 -0.5171
vn 0.0386 0.0316 -0.9988
vn -0.0000 -0.9998 -0.0181
vn 0.0157 -0.9998 -0.0090
vn -0.0157 -0.9998 0.0090
vn -0.0157 -0.9998 -0.0090
vn -0.6530 -0.6621 -0.3676
vn -0.0180 -0.6272 -0.7786
vn 0.7211 -0.5538 0.4163
vn -0.0000 -0.5538 0.8327
vn -0.0000 -0.9998 0.0181
vn -0.0000 -0.5538 -0.8327
vn 0.7211 -0.5538 -0.4163
vn 0.0157 -0.9998 0.0090
vn -0.0000 0.4581 0.8889
vn -0.7698 0.4581 0.4445
vn -0.7211 -0.5538 0.4163
vn 0.7698 0.4581 -0.4445
vn 0.7698 0.4581 0.4445
vn -0.7211 -0.5538 -0.4163
vn 0.6433 0.6695 0.3714
vn -0.0000 0.6695 0.7428
vn -0.0000 0.4581 -0.8889
vn -0.0000 0.6695 -0.7428
vn 0.6433 0.6695 -0.3714
vn -0.7698 0.4581 -0.4444
vn -0.0000 0.9083 0.4183
vn -0.3622 0.9083 0.2091
vn -0.6433 0.6695 0.3714
vn 0.3622 0.9083 -0.2091
vn 0.3622 0.9083 0.2091
vn -0.6433 0.6695 -0.3714
vn -0.0000 0.9083 -0.4183
vn -0.3622 0.9083 -0.2091
vt 0.000000 0.000000
s 1
usemtl Material.025
f 1/1/1 6/1/2 5/1/3 4/1/4
f 2/1/5 1/1/1 4/1/4 3/1/6
f 10/1/7 16/1/8 15/1/9 9/1/10
f 12/1/11 18/1/12 17/1/13 11/1/14
f 6/1/2 12/1/11 11/1/14 5/1/3
f 4/1/4 10/1/7 9/1/10 3/1/6
f 2/1/5 7/1/15 8/1/16 1/1/1
f 1/1/1 8/1/16 12/1/11 6/1/2
f 5/1/3 11/1/14 10/1/7 4/1/4
f 3/1/6 9/1/10 7/1/15 2/1/5
f 16/1/8 22/1/17 21/1/18 15/1/9
f 18/1/12 24/1/19 23/1/20 17/1/13
f 7/1/15 13/1/21 14/1/22 8/1/16
f 8/1/16 14/1/22 18/1/12 12/1/11
f 11/1/14 17/1/13 16/1/8 10/1/7
f 9/1/10 15/1/9 13/1/21 7/1/15
f 23/1/20 29/1/23 28/1/24 22/1/17
f 20/1/25 26/1/26 30/1/27 24/1/19
f 13/1/21 19/1/28 20/1/25 14/1/22
f 14/1/22 20/1/25 24/1/19 18/1/12
f 17/1/13 23/1/20 22/1/17 16/1/8
f 15/1/9 21/1/18 19/1/28 13/1/21
f 28/1/24 34/1/29 33/1/30 27/1/31
f 30/1/27 36/1/32 35/1/33 29/1/23
f 21/1/18 27/1/31 25/1/34 19/1/28
f 24/1/19 30/1/27 29/1/23 23/1/20
f 22/1/17 28/1/24 27/1/31 21/1/18
f 19/1/28 25/1/34 26/1/26 20/1/25
f 35/1/33 41/1/35 40/1/36 34/1/29
f 32/1/37 38/1/38 42/1/39 36/1/32
f 25/1/34 31/1/40 32/1/37 26/1/26
f 26/1/26 32/1/37 36/1/32 30/1/27
f 29/1/23 35/1/33 34/1/29 28/1/24
f 27/1/31 33/1/30 31/1/40 25/1/34
f 40/1/36 46/1/41 45/1/42 39/1/43
f 42/1/39 48/1/44 47/1/45 41/1/35
f 33/1/30 39/1/43 37/1/46 31/1/40
f 36/1/32 42/1/39 41/1/35 35/1/33
f 34/1/29 40/1/36 39/1/43 33/1/30
f 31/1/40 37/1/46 38/1/38 32/1/37
f 44/1/47 46/1/41 47/1/45 48/1/44
f 43/1/48 45/1/42 46/1/41 44/1/47
f 37/1/46 43/1/48 44/1/47 38/1/38
f 38/1/38 44/1/47 48/1/44 42/1/39
f 41/1/35 47/1/45 46/1/41 40/1/36
f 39/1/43 45/1/42 43/1/48 37/1/46
