# Blender 5.0.0
# www.blender.org
mtllib fungus yellow flat.mtl
o fungo.001
v -5.382456 0.294693 2.694709
v -5.356819 0.294693 2.756601
v -5.651579 0.218483 2.549370
v -5.151279 0.218483 2.756601
v -5.237117 0.218483 2.963832
v -5.444348 0.218483 3.049670
v -5.651579 0.218483 2.963832
v -5.444348 0.024276 2.756601
v -5.496401 0.024276 2.704547
v -5.444348 0.024276 2.682986
v -5.392295 0.024276 2.704547
v -5.370733 0.024276 2.756601
v -5.392295 0.024276 2.808654
v -5.444348 0.024276 2.830215
v -5.496401 0.024276 2.808654
v -5.517962 0.024276 2.756601
v -5.513973 0.136861 2.686976
v -5.444348 0.136861 2.658136
v -5.374723 0.136861 2.686976
v -5.345883 0.136861 2.756601
v -5.374723 0.136861 2.826226
v -5.444348 0.136861 2.855066
v -5.513973 0.136861 2.826226
v -5.542813 0.136861 2.756601
v -5.506240 0.294693 2.694709
v -5.444348 0.294693 2.669072
v -5.382456 0.294693 2.818493
v -5.444348 0.294693 2.844130
v -5.506240 0.294693 2.818493
v -5.531877 0.294693 2.756601
v -5.565741 0.441426 2.756601
v -5.668654 0.404437 2.756601
v -5.737417 0.349080 2.756601
v -5.761564 0.283781 2.756601
v -5.737417 0.218483 2.756601
v -5.668653 0.283781 2.980906
v -5.651579 0.349080 2.963832
v -5.602956 0.404437 2.915209
v -5.530186 0.441426 2.842439
v -5.444348 0.454415 2.756601
v -5.444348 0.441426 2.877994
v -5.444348 0.404437 2.980906
v -5.444348 0.349080 3.049670
v -5.444348 0.283781 3.073817
v -5.220043 0.283782 2.980906
v -5.237117 0.349080 2.963832
v -5.285740 0.404437 2.915209
v -5.358510 0.441426 2.842439
v -5.322955 0.441426 2.756601
v -5.220043 0.404437 2.756601
v -5.151279 0.349080 2.756601
v -5.127132 0.283782 2.756601
v -5.237117 0.218483 2.549370
v -5.220043 0.283782 2.532295
v -5.237117 0.349080 2.549370
v -5.285740 0.404437 2.597993
v -5.358510 0.441426 2.670763
v -5.444348 0.441426 2.635208
v -5.444348 0.404437 2.532295
v -5.444348 0.349080 2.463532
v -5.444348 0.283782 2.439385
v -5.444348 0.218483 2.463532
v -5.668654 0.283782 2.532296
v -5.651579 0.349080 2.549370
v -5.602956 0.404437 2.597993
v -5.530186 0.441426 2.670763
vn -0.3034 -0.9033 -0.3034
vn -0.4291 -0.9033 -0.0000
vn -0.5419 -0.8405 -0.0000
vn -0.3832 -0.8405 -0.3832
vn -0.0000 -0.9033 -0.4291
vn -0.0000 -0.8405 -0.5419
vn 0.3034 -0.9033 -0.3034
vn 0.3832 -0.8405 -0.3832
vn 0.4291 -0.9033 -0.0000
vn 0.5419 -0.8405 -0.0000
vn 0.3832 -0.8405 0.3832
vn 0.3034 -0.9033 0.3034
vn -0.0000 -0.8405 0.5419
vn -0.0000 -0.9033 0.4291
vn -0.3832 -0.8405 0.3832
vn -0.3034 -0.9033 0.3034
vn 0.7043 -0.7099 -0.0000
vn -0.0000 -1.0000 -0.0000
vn -0.0000 -0.7099 -0.7043
vn 0.4980 -0.7099 -0.4980
vn -0.0000 -0.7099 0.7043
vn 0.4980 -0.7099 0.4980
vn -0.7043 -0.7099 -0.0000
vn -0.4980 -0.7099 0.4980
vn -0.9974 -0.0715 -0.0000
vn -0.7053 -0.0715 -0.7053
vn -0.4980 -0.7099 -0.4980
vn -0.0000 -0.0715 -0.9974
vn 0.7053 -0.0715 -0.7053
vn 0.9974 -0.0715 -0.0000
vn 0.7053 -0.0715 0.7053
vn -0.0000 -0.0715 0.9974
vn -0.7053 -0.0715 0.7053
vn -0.7071 -0.0000 0.7071
vn -1.0000 -0.0000 -0.0000
vn -0.5883 0.5549 0.5883
vn -0.8319 0.5549 -0.0000
vn -0.3673 0.8545 0.3673
vn -0.5195 0.8545 -0.0000
vn -0.1780 0.9678 0.1780
vn -0.2517 0.9678 -0.0000
vn -0.0000 1.0000 -0.0000
vn -0.0000 0.9678 0.2517
vn -0.0000 0.8545 0.5195
vn -0.0000 0.5549 0.8319
vn -0.0000 -0.0000 1.0000
vn 0.7071 -0.0000 0.7071
vn 0.5883 0.5549 0.5883
vn 0.3673 0.8545 0.3673
vn 0.1780 0.9678 0.1780
vn 0.2517 0.9678 -0.0000
vn 0.5195 0.8545 -0.0000
vn 0.8319 0.5549 -0.0000
vn 1.0000 -0.0000 -0.0000
vn 0.7071 -0.0000 -0.7071
vn 0.5883 0.5549 -0.5883
vn 0.3673 0.8545 -0.3673
vn 0.1780 0.9678 -0.1780
vn -0.0000 0.9678 -0.2517
vn -0.0000 0.8545 -0.5195
vn -0.0000 0.5549 -0.8319
vn -0.0000 -0.0000 -1.0000
vn -0.7071 -0.0000 -0.7071
vn -0.5883 0.5549 -0.5883
vn -0.3673 0.8545 -0.3673
vn -0.1780 0.9678 -0.1780
vt 0.878524 0.697556
vt 0.876385 0.624790
vt 0.986113 0.575514
vt 0.990956 0.740302
vt 0.828583 0.750522
vt 0.877859 0.860250
vt 0.755817 0.752661
vt 0.713071 0.865094
vt 0.702851 0.702720
vt 0.593124 0.751996
vt 0.588280 0.587208
vt 0.700712 0.629954
vt 0.701377 0.467261
vt 0.750653 0.576988
vt 0.866165 0.462417
vt 0.823419 0.574850
vt 0.207650 0.032976
vt 0.158984 0.150465
vt 0.041496 0.101799
vt 0.110319 0.032976
vt 0.276473 0.199130
vt 0.276473 0.101799
vt 0.110319 0.267953
vt 0.207650 0.267953
vt 0.794275 0.187435
vt 0.712658 0.193409
vt 0.705534 0.057556
vt 0.777909 0.052323
vt 0.632126 0.195399
vt 0.632459 0.058458
vt 0.551579 0.194036
vt 0.558815 0.055573
vt 0.470001 0.189733
vt 0.484596 0.048878
vt 0.385343 0.180582
vt 0.410352 0.040458
vt 0.294179 0.168359
vt 0.338053 0.023234
vt 0.970499 0.161730
vt 0.878658 0.178157
vt 0.849863 0.039350
vt 0.920554 0.020711
vt 0.802600 0.377945
vt 0.715942 0.380195
vt 0.630014 0.380195
vt 0.544620 0.377877
vt 0.459646 0.373572
vt 0.374874 0.368363
vt 0.291632 0.365081
vt 0.979474 0.369470
vt 0.890321 0.374015
vt 0.527728 0.791152
vt 0.392783 0.929818
vt 0.411066 0.972312
vt 0.570703 0.808272
vt 0.391964 0.927914
vt 0.525803 0.790385
vt 0.376447 0.891848
vt 0.489328 0.775855
vt 0.338102 0.802723
vt 0.399193 0.739948
vt 0.292871 0.697592
vt 0.250516 0.803914
vt 0.214609 0.894049
vt 0.200078 0.930524
vt 0.182191 0.975424
vt 0.199311 0.932449
vt 0.060645 0.797504
vt 0.018152 0.815787
vt 0.062549 0.796685
vt 0.098615 0.781168
vt 0.187740 0.742823
vt 0.186549 0.655237
vt 0.096414 0.619330
vt 0.059939 0.604799
vt 0.015039 0.586912
vt 0.058014 0.604032
vt 0.192959 0.465367
vt 0.174677 0.422873
vt 0.193778 0.467270
vt 0.209295 0.503336
vt 0.247640 0.592462
vt 0.335227 0.591270
vt 0.371134 0.501135
vt 0.385664 0.464661
vt 0.403551 0.419760
vt 0.386431 0.462735
vt 0.525097 0.597680
vt 0.567591 0.579398
vt 0.523193 0.598499
vt 0.487127 0.614016
vt 0.398002 0.652361
vt 0.041496 0.199130
s 1
usemtl Material.025
f 25/1/1 30/2/2 35/3/3 3/4/4
f 26/5/5 25/1/1 3/4/4 62/6/6
f 1/7/7 26/5/5 62/6/6 53/8/8
f 2/9/9 1/7/7 53/8/8 4/10/10
f 4/10/10 5/11/11 27/12/12 2/9/9
f 5/11/11 6/13/13 28/14/14 27/12/12
f 6/13/13 7/15/15 29/16/16 28/14/14
f 7/15/15 35/3/3 30/2/2 29/16/16
f 35/52/3 7/53/15 36/54/34 34/55/35
f 34/55/35 36/54/34 37/56/36 33/57/37
f 33/57/37 37/56/36 38/58/38 32/59/39
f 39/60/40 31/61/41 32/59/39 38/58/38
f 31/61/41 39/60/40 40/62/42
f 39/60/40 41/63/43 40/62/42
f 38/58/38 42/64/44 41/63/43 39/60/40
f 37/56/36 43/65/45 42/64/44 38/58/38
f 36/54/34 44/66/46 43/65/45 37/56/36
f 7/53/15 6/67/13 44/66/46 36/54/34
f 6/67/13 5/68/11 45/69/47 44/66/46
f 44/66/46 45/69/47 46/70/48 43/65/45
f 43/65/45 46/70/48 47/71/49 42/64/44
f 42/64/44 47/71/49 48/72/50 41/63/43
f 41/63/43 48/72/50 40/62/42
f 48/72/50 49/73/51 40/62/42
f 47/71/49 50/74/52 49/73/51 48/72/50
f 46/70/48 51/75/53 50/74/52 47/71/49
f 45/69/47 52/76/54 51/75/53 46/70/48
f 5/68/11 4/77/10 52/76/54 45/69/47
f 4/77/10 53/78/8 54/79/55 52/76/54
f 52/76/54 54/79/55 55/80/56 51/75/53
f 51/75/53 55/80/56 56/81/57 50/74/52
f 50/74/52 56/81/57 57/82/58 49/73/51
f 49/73/51 57/82/58 40/62/42
f 57/82/58 58/83/59 40/62/42
f 56/81/57 59/84/60 58/83/59 57/82/58
f 55/80/56 60/85/61 59/84/60 56/81/57
f 54/79/55 61/86/62 60/85/61 55/80/56
f 53/78/8 62/87/6 61/86/62 54/79/55
f 62/87/6 3/88/4 63/89/63 61/86/62
f 61/86/62 63/89/63 64/90/64 60/85/61
f 60/85/61 64/90/64 65/91/65 59/84/60
f 59/84/60 65/91/65 66/92/66 58/83/59
f 58/83/59 66/92/66 40/62/42
f 66/92/66 31/61/41 40/62/42
f 31/61/41 66/92/66 65/91/65 32/59/39
f 64/90/64 33/57/37 32/59/39 65/91/65
f 63/89/63 34/55/35 33/57/37 64/90/64
f 3/88/4 35/52/3 34/55/35 63/89/63
usemtl Material.024
f 12/17/17 8/18/18 10/19/19 11/20/20
f 14/21/21 8/18/18 12/17/17 13/22/22
f 16/23/23 8/18/18 14/21/21 15/24/24
f 24/25/25 17/26/26 9/27/27 16/28/23
f 17/26/26 18/29/28 10/30/19 9/27/27
f 18/29/28 19/31/29 11/32/20 10/30/19
f 19/31/29 20/33/30 12/34/17 11/32/20
f 20/33/30 21/35/31 13/36/22 12/34/17
f 21/35/31 22/37/32 14/38/21 13/36/22
f 22/39/32 23/40/33 15/41/24 14/42/21
f 23/40/33 24/25/25 16/28/23 15/41/24
f 30/43/2 25/44/1 17/26/26 24/25/25
f 25/44/1 26/45/5 18/29/28 17/26/26
f 26/45/5 1/46/7 19/31/29 18/29/28
f 1/46/7 2/47/9 20/33/30 19/31/29
f 2/47/9 27/48/12 21/35/31 20/33/30
f 27/48/12 28/49/14 22/37/32 21/35/31
f 28/50/14 29/51/16 23/40/33 22/39/32
f 29/51/16 30/43/2 24/25/25 23/40/33
f 10/19/19 8/18/18 16/23/23 9/93/27
