# Blender 5.0.0
# www.blender.org
mtllib fungus blue 1.mtl
o fungo.027
v 3.213301 0.913852 -0.359388
v 3.213301 0.913852 -0.713334
v 3.567247 0.913852 -0.359387
v 3.567247 0.913852 -0.713335
v 3.209190 0.772542 -0.319614
v 3.173527 0.953626 -0.536361
v 3.209190 0.772542 -0.753108
v 3.390274 0.953626 -0.753108
v 3.604279 0.753338 -0.753108
v 3.607021 0.953626 -0.536361
v 3.604279 0.753338 -0.319614
v 3.390274 0.953626 -0.319614
v 3.390274 1.043406 -0.536361
v 3.393018 0.739622 -0.229834
v 3.669368 0.799975 -0.536361
v 3.393018 0.739622 -0.842888
v 3.108437 0.794488 -0.536361
v 3.398971 0.673397 -0.505150
v 3.398971 0.673397 -0.567571
v 3.455862 0.670632 -0.567571
v 3.455862 0.670632 -0.505150
v 3.425441 0.668657 -0.492223
v 3.465234 0.677348 -0.536361
v 3.425441 0.668657 -0.580499
v 3.384463 0.676558 -0.536361
v 3.269038 0.778025 -0.536361
v 3.316782 0.767625 -0.433651
v 3.504003 0.758525 -0.639071
v 3.403893 0.752025 -0.681615
v 3.534847 0.780625 -0.536361
v 3.403893 0.752025 -0.391107
v 3.316782 0.767625 -0.639071
v 3.504003 0.758525 -0.433650
v 3.421545 0.573746 -0.511179
v 3.421545 0.573746 -0.561543
v 3.466055 0.585185 -0.561543
v 3.466055 0.585185 -0.511178
v 3.443079 0.576406 -0.500748
v 3.471677 0.592598 -0.536361
v 3.443079 0.576406 -0.571974
v 3.409608 0.572721 -0.536361
v 3.520155 0.444286 -0.519724
v 3.520155 0.444286 -0.552998
v 3.544166 0.462868 -0.552998
v 3.544166 0.462868 -0.519724
v 3.532523 0.451532 -0.512833
v 3.545639 0.468835 -0.536361
v 3.532523 0.451532 -0.559889
v 3.513182 0.440542 -0.536361
v 3.618087 0.353762 -0.519724
v 3.618087 0.353762 -0.552998
v 3.640020 0.374756 -0.552998
v 3.640020 0.374756 -0.519724
v 3.629628 0.362264 -0.512833
v 3.640859 0.380845 -0.536361
v 3.629628 0.362264 -0.559889
v 3.611544 0.349308 -0.536361
v 3.741175 0.238810 -0.519724
v 3.741175 0.238810 -0.552998
v 3.763777 0.259083 -0.552998
v 3.763777 0.259083 -0.519724
v 3.752985 0.246934 -0.512833
v 3.764812 0.265141 -0.536361
v 3.752985 0.246934 -0.559889
v 3.734491 0.234571 -0.536361
v 3.835566 0.130137 -0.512743
v 3.835566 0.130136 -0.559979
v 3.872313 0.152662 -0.559979
v 3.872313 0.152662 -0.512743
v 3.854136 0.138458 -0.502960
v 3.875310 0.160856 -0.536361
v 3.854136 0.138458 -0.569762
v 3.825147 0.125927 -0.536361
v 3.862684 0.041388 -0.495463
v 3.862684 0.041388 -0.577258
v 3.935489 0.057821 -0.577258
v 3.935489 0.057821 -0.495463
v 3.897768 0.044673 -0.478523
v 3.944971 0.069583 -0.536361
v 3.897768 0.044673 -0.594199
v 3.843257 0.040297 -0.536361
vn -0.8914 -0.4533 -0.0000
vn -0.7305 0.6829 -0.0000
vn -0.5994 0.5554 -0.5764
vn -0.6350 -0.4862 -0.6003
vn -0.0348 -0.5442 -0.8382
vn -0.0035 0.7095 -0.7047
vn 0.5796 0.5821 -0.5702
vn 0.6638 -0.5060 -0.5507
vn 0.9219 -0.3874 -0.0000
vn 0.7097 0.7045 -0.0000
vn 0.5796 0.5821 0.5702
vn 0.6638 -0.5060 0.5507
vn -0.0348 -0.5442 0.8382
vn -0.0035 0.7095 0.7047
vn -0.5994 0.5554 0.5764
vn -0.6350 -0.4862 0.6003
vn -0.0000 1.0000 -0.0000
vn -0.3033 -0.9462 0.1126
vn -0.3199 -0.9475 -0.0000
vn -0.8197 -0.5728 -0.0000
vn -0.6481 -0.5450 0.5320
vn -0.0693 -0.9771 -0.2010
vn 0.3112 -0.9456 -0.0944
vn 0.7405 -0.3623 -0.5661
vn -0.0440 -0.4985 -0.8658
vn 0.4533 -0.8914 -0.0000
vn 0.9513 -0.3081 -0.0000
vn -0.0693 -0.9771 0.2010
vn -0.0440 -0.4985 0.8658
vn -0.3033 -0.9462 -0.1126
vn -0.6481 -0.5450 -0.5320
vn 0.3112 -0.9456 0.0944
vn 0.7405 -0.3623 0.5661
vn -0.9069 -0.4213 -0.0000
vn -0.6634 -0.3484 0.6622
vn -0.0563 -0.1229 -0.9908
vn -0.6634 -0.3484 -0.6622
vn 0.9590 0.2833 -0.0000
vn 0.6835 0.2047 -0.7006
vn -0.0563 -0.1229 0.9908
vn 0.6835 0.2047 0.7006
vn -0.5369 -0.5113 -0.6711
vn -0.7381 -0.6747 -0.0000
vn 0.5665 0.4556 -0.6867
vn -0.0274 -0.0732 -0.9969
vn 0.5665 0.4556 0.6867
vn 0.7858 0.6185 -0.0000
vn -0.5369 -0.5113 0.6711
vn -0.0274 -0.0732 0.9969
vn -0.0200 -0.0193 -0.9996
vn -0.4857 -0.5240 -0.6996
vn 0.6807 0.7326 -0.0053
vn 0.5032 0.5463 -0.6696
vn -0.0201 -0.0196 0.9996
vn 0.5032 0.5463 0.6696
vn -0.6784 -0.7347 -0.0000
vn -0.4864 -0.5275 0.6966
vn -0.5230 -0.4816 0.7033
vn -0.0359 0.0150 0.9992
vn -0.7247 -0.6890 -0.0000
vn -0.0359 0.0150 -0.9992
vn -0.5230 -0.4816 -0.7033
vn 0.6849 0.7286 -0.0000
vn 0.5037 0.5489 -0.6671
vn 0.5037 0.5489 0.6671
vn -0.6373 -0.2553 -0.7271
vn -0.8978 -0.4404 -0.0000
vn 0.5446 0.5293 -0.6505
vn -0.0541 0.1514 -0.9870
vn 0.5446 0.5293 0.6505
vn 0.7399 0.6727 -0.0000
vn -0.6373 -0.2553 0.7271
vn -0.0541 0.1514 0.9870
vn 0.0932 -0.5589 0.8240
vn 0.7276 -0.3320 0.6004
vn -0.4134 -0.6978 -0.5849
vn -0.6888 -0.7250 -0.0000
vn 0.7944 -0.2489 -0.5540
vn 0.1951 -0.5298 -0.8253
vn 0.9973 -0.0738 -0.0000
vn -0.4606 -0.6840 0.5657
vt 0.600118 0.783992
vt 0.600122 0.783994
vt 0.600121 0.783997
vt 0.600117 0.783999
vt 0.600121 0.784004
vt 0.600123 0.783999
vt 0.600127 0.784001
vt 0.600128 0.784006
vt 0.600135 0.784000
vt 0.600130 0.783997
vt 0.600131 0.783993
vt 0.600135 0.783990
vt 0.600129 0.783986
vt 0.600127 0.783991
vt 0.600123 0.783991
vt 0.600123 0.783987
vt 0.600125 0.783995
vt 0.600106 0.783952
vt 0.600077 0.783973
vt 0.600169 0.784015
vt 0.600146 0.784036
vt 0.600091 0.784047
vt 0.600141 0.784050
vt 0.600112 0.783956
vt 0.600150 0.783956
vt 0.600169 0.784015
vt 0.600080 0.783975
vt 0.600142 0.783936
vt 0.600113 0.784040
vt 0.600081 0.784009
vt 0.600169 0.783984
vt 0.600177 0.783971
vt 0.600087 0.784011
vt 0.600005 0.783941
vt 0.600074 0.783861
vt 0.600036 0.784121
vt 0.599990 0.784045
vt 0.600259 0.784056
vt 0.600161 0.784173
vt 0.600160 0.783845
vt 0.600282 0.783905
vt 0.600280 0.783941
vt 0.600259 0.784055
vt 0.600092 0.783843
vt 0.600223 0.783859
vt 0.599989 0.784071
vt 0.599991 0.783935
vt 0.600187 0.784147
vt 0.600088 0.784158
vt 0.599978 0.784331
vt 0.599842 0.784148
vt 0.600412 0.784124
vt 0.600240 0.784304
vt 0.600280 0.783662
vt 0.600432 0.783877
vt 0.599883 0.783886
vt 0.600053 0.783681
vt 0.600298 0.784590
vt 0.599896 0.784578
vt 0.600626 0.784221
vt 0.600411 0.783438
vt 0.600685 0.783731
vt 0.599647 0.783779
vt 0.599925 0.783421
vt 0.599563 0.784225
vt 0.597570 0.785528
vt 0.597953 0.783015
vt 0.601267 0.786881
vt 0.598863 0.787253
vt 0.603045 0.782942
vt 0.602609 0.785116
vt 0.599584 0.781064
vt 0.601733 0.780893
vt 0.617181 0.754096
vt 0.634905 0.771959
vt 0.574634 0.800295
vt 0.573381 0.771924
vt 0.614107 0.818039
vt 0.588987 0.816565
vt 0.631845 0.798312
vt 0.595486 0.754096
vt 0.000000 0.000000
s 1
usemtl Material.018
f 17/1/1 6/2/2 2/3/3 7/4/4
f 16/5/5 8/6/6 4/7/7 9/8/8
f 15/9/9 10/10/10 3/11/11 11/12/12
f 14/13/13 12/14/14 1/15/15 5/16/16
f 13/17/17 6/2/2 1/15/15 12/14/14
f 10/10/10 13/17/17 12/14/14 3/11/11
f 4/7/7 8/6/6 13/17/17 10/10/10
f 8/6/6 2/3/3 6/2/2 13/17/17
f 11/12/12 3/11/11 12/14/14 14/13/13
f 9/8/8 4/7/7 10/10/10 15/9/9
f 7/4/4 2/3/3 8/6/6 16/5/5
f 5/16/16 1/15/15 6/2/2 17/1/1
f 27/18/18 26/19/19 25/20/20 18/21/21
f 29/22/22 28/23/23 20/24/24 24/25/25
f 28/23/23 30/26/26 23/27/27 20/24/24
f 31/28/28 27/18/18 18/21/21 22/29/29
f 26/19/19 32/30/30 19/31/31 25/20/20
f 32/30/30 29/22/22 24/25/25 19/31/31
f 30/26/26 33/32/32 21/33/33 23/27/27
f 33/32/32 31/28/28 22/29/29 21/33/33
f 11/12/12 14/13/13 31/28/28 33/32/32
f 15/9/9 11/12/12 33/32/32 30/26/26
f 7/4/4 16/5/5 29/22/22 32/30/30
f 17/1/1 7/4/4 32/30/30 26/19/19
f 14/13/13 5/16/16 27/18/18 31/28/28
f 9/8/8 15/9/9 30/26/26 28/23/23
f 16/5/5 9/8/8 28/23/23 29/22/22
f 5/16/16 17/1/1 26/19/19 27/18/18
f 18/21/21 25/20/20 41/34/34 34/35/35
f 19/31/31 24/25/25 40/36/36 35/37/37
f 20/24/24 23/27/27 39/38/38 36/39/39
f 21/33/33 22/29/29 38/40/40 37/41/41
f 25/20/20 19/31/31 35/37/37 41/34/34
f 24/25/25 20/24/24 36/39/39 40/36/36
f 23/27/27 21/33/33 37/41/41 39/38/38
f 22/29/29 18/21/21 34/35/35 38/40/40
f 41/34/34 35/37/37 43/42/42 49/43/43
f 40/36/36 36/39/39 44/44/44 48/45/45
f 39/38/38 37/41/41 45/46/46 47/47/47
f 38/40/40 34/35/35 42/48/48 46/49/49
f 34/35/35 41/34/34 49/43/43 42/48/48
f 35/37/37 40/36/36 48/45/45 43/42/42
f 36/39/39 39/38/38 47/47/47 44/44/44
f 37/41/41 38/40/40 46/49/49 45/46/46
f 43/42/42 48/45/45 56/50/50 51/51/51
f 44/44/44 47/47/47 55/52/52 52/53/53
f 45/46/46 46/49/49 54/54/54 53/55/55
f 49/43/43 43/42/42 51/51/51 57/56/56
f 48/45/45 44/44/44 52/53/53 56/50/50
f 47/47/47 45/46/46 53/55/55 55/52/52
f 46/49/49 42/48/48 50/57/57 54/54/54
f 42/48/48 49/43/43 57/56/56 50/57/57
f 54/54/54 50/57/57 58/58/58 62/59/59
f 50/57/57 57/56/56 65/60/60 58/58/58
f 51/51/51 56/50/50 64/61/61 59/62/62
f 52/53/53 55/52/52 63/63/63 60/64/64
f 53/55/55 54/54/54 62/59/59 61/65/65
f 57/56/56 51/51/51 59/62/62 65/60/60
f 56/50/50 52/53/53 60/64/64 64/61/61
f 55/52/52 53/55/55 61/65/65 63/63/63
f 65/60/60 59/62/62 67/66/66 73/67/67
f 64/61/61 60/64/64 68/68/68 72/69/69
f 63/63/63 61/65/65 69/70/70 71/71/71
f 62/59/59 58/58/58 66/72/72 70/73/73
f 58/58/58 65/60/60 73/67/67 66/72/72
f 59/62/62 64/61/61 72/69/69 67/66/66
f 60/64/64 63/63/63 71/71/71 68/68/68
f 61/65/65 62/59/59 70/73/73 69/70/70
f 69/70/70 70/73/73 78/74/74 77/75/75
f 73/67/67 67/66/66 75/76/76 81/77/77
f 72/69/69 68/68/68 76/78/78 80/79/79
f 71/71/71 69/70/70 77/75/75 79/80/80
f 70/73/73 66/72/72 74/81/81 78/74/74
f 66/72/72 73/67/67 81/77/77 74/81/81
f 67/66/66 72/69/69 80/79/79 75/76/76
f 68/68/68 71/71/71 79/80/80 76/78/78
f 80/82/79 76/82/78 79/82/80 77/82/75
f 75/82/76 80/82/79 77/82/75 78/82/74
f 81/82/77 75/82/76 78/82/74 74/82/81
