# Blender 5.0.0
# www.blender.org
mtllib fungus redred 2.mtl
o fungo.036
v 6.988490 -0.042768 -4.131967
v 6.898888 -0.042768 -4.080235
v 6.898888 -0.042768 -3.976771
v 6.988490 -0.042768 -3.925040
v 7.078092 -0.042768 -3.976772
v 7.078092 -0.042768 -4.080235
v 6.950325 0.142964 -4.121390
v 6.871542 0.126717 -4.074946
v 6.871542 0.126717 -3.982061
v 6.950325 0.142964 -3.935617
v 7.029109 0.159211 -3.982061
v 7.029109 0.159211 -4.074946
v 6.929971 0.298165 -4.121390
v 6.850894 0.312915 -4.074946
v 6.850894 0.312915 -3.982061
v 6.929971 0.298165 -3.935617
v 7.009049 0.283415 -3.982061
v 7.009049 0.283415 -4.074946
v 6.937283 0.471921 -4.111246
v 6.866841 0.485061 -4.069875
v 6.866841 0.485061 -3.987133
v 6.937283 0.471921 -3.945762
v 7.007724 0.458781 -3.987133
v 7.007724 0.458781 -4.069875
v 6.930223 0.562630 -4.100616
v 6.867792 0.561036 -4.064560
v 6.867792 0.561036 -3.992448
v 6.930223 0.562630 -3.956391
v 6.992654 0.564224 -3.992448
v 6.992654 0.564224 -4.064560
v 6.875119 0.740546 -4.079320
v 6.833694 0.725690 -4.053913
v 6.833694 0.725690 -4.003096
v 6.875119 0.740546 -3.977687
v 6.916543 0.755403 -4.003096
v 6.916543 0.755403 -4.053913
v 6.864837 0.769215 -4.167100
v 6.751855 0.728695 -4.097802
v 6.751855 0.728695 -3.959206
v 6.864837 0.769215 -3.889908
v 6.977818 0.809735 -3.959206
v 6.977818 0.809735 -4.097802
v 6.906086 0.654198 -4.263786
v 6.714288 0.575233 -4.146145
v 6.714288 0.575233 -3.910862
v 6.906086 0.654198 -3.793221
v 7.100430 0.740795 -3.910862
v 7.100430 0.740795 -4.146145
v 6.849933 0.810772 -4.199396
v 6.723345 0.765899 -4.113950
v 6.723345 0.765899 -3.943058
v 6.849933 0.810772 -3.857612
v 7.009595 0.863279 -3.943058
v 7.009595 0.863279 -4.113950
v 6.843129 0.903769 -4.093853
v 6.789856 0.884663 -4.061179
v 6.789856 0.884663 -3.995829
v 6.843129 0.903769 -3.963154
v 6.896401 0.922875 -3.995829
v 6.896401 0.922875 -4.061179
v 6.908352 0.647926 -4.218181
v 7.064681 0.715328 -4.123342
v 7.064681 0.715328 -3.933665
v 6.908352 0.647926 -3.838827
v 6.753731 0.585644 -3.933665
v 6.753731 0.585644 -4.123342
vn 0.7468 -0.5256 0.4075
vn 0.0473 -0.5842 0.8103
vn 0.0473 -0.5842 -0.8103
vn 0.7468 -0.5256 -0.4075
vn -0.6408 -0.6544 -0.4014
vn -0.6408 -0.6544 0.4014
vn 0.8491 0.1764 -0.4979
vn -0.0150 0.0288 -0.9995
vn -0.0240 0.0246 -0.9994
vn 0.8572 0.0791 -0.5089
vn -0.8649 -0.1082 -0.4902
vn -0.8720 0.0015 -0.4895
vn 0.8491 0.1764 0.4979
vn -0.0150 0.0288 0.9995
vn -0.8660 -0.1115 0.4875
vn -0.0240 0.0246 0.9994
vn 0.8572 0.0791 0.5089
vn 0.8698 0.0829 0.4864
vn 0.0273 0.0890 0.9957
vn 0.0281 0.0858 -0.9959
vn 0.8698 0.0829 -0.4864
vn -0.8720 0.0015 0.4895
vn -0.8582 0.0714 0.5083
vn 0.0264 0.1220 0.9922
vn -0.8562 -0.0488 0.5144
vn 0.8444 0.2482 -0.4748
vn 0.8444 0.2482 0.4748
vn -0.8580 0.0682 -0.5092
vn 0.8381 -0.4064 0.3640
vn 0.2343 -0.6063 0.7599
vn 0.0264 0.1220 -0.9922
vn 0.2343 -0.6063 -0.7600
vn 0.8381 -0.4064 -0.3640
vn -0.8562 -0.0488 -0.5144
vn -0.4147 -0.8217 0.3909
vn 0.2882 -0.7717 -0.5670
vn 0.7424 -0.6057 -0.2864
vn -0.1555 -0.9452 0.2870
vn -0.1555 -0.9452 -0.2870
vn -0.4147 -0.8217 -0.3909
vn 0.3797 -0.8706 -0.3129
vn 0.1481 -0.9775 -0.1499
vn 0.8797 -0.0901 0.4670
vn 0.1502 -0.3917 0.9077
vn 0.1481 -0.9775 0.1499
vn 0.3797 -0.8706 0.3129
vn 0.1502 -0.3917 -0.9077
vn 0.8797 -0.0901 -0.4670
vn 0.7423 -0.6057 0.2864
vn 0.2882 -0.7717 0.5670
vn -0.5937 -0.6683 0.4482
vn -0.2211 0.5058 0.8339
vn -0.8605 0.3097 0.4044
vn 0.5158 0.7380 -0.4351
vn 0.5158 0.7380 0.4351
vn 0.6150 -0.7734 0.1539
vn 0.6150 -0.7734 -0.1539
vn -0.5937 -0.6683 -0.4482
vn -0.8605 0.3097 -0.4044
vn -0.6425 0.7383 0.2051
vn -0.6425 0.7383 -0.2051
vn 0.0770 0.9691 0.2344
vn -0.2806 0.8527 0.4407
vn -0.2211 0.5058 -0.8339
vn 0.0770 0.9691 -0.2344
vn -0.2806 0.8527 -0.4407
vt 0.000000 0.000000
s 1
usemtl Material.003
f 5/1/1 4/1/2 1/1/3 6/1/4
f 2/1/5 1/1/3 4/1/2 3/1/6
f 12/1/7 7/1/8 13/1/9 18/1/10
f 7/1/8 8/1/11 14/1/12 13/1/9
f 6/1/4 1/1/3 7/1/8 12/1/7
f 4/1/2 5/1/1 11/1/13 10/1/14
f 2/1/5 3/1/6 9/1/15 8/1/11
f 5/1/1 6/1/4 12/1/7 11/1/13
f 3/1/6 4/1/2 10/1/14 9/1/15
f 1/1/3 2/1/5 8/1/11 7/1/8
f 16/1/16 17/1/17 23/1/18 22/1/19
f 18/1/10 13/1/9 19/1/20 24/1/21
f 10/1/14 11/1/13 17/1/17 16/1/16
f 8/1/11 9/1/15 15/1/22 14/1/12
f 11/1/13 12/1/7 18/1/10 17/1/17
f 9/1/15 10/1/14 16/1/16 15/1/22
f 21/1/23 22/1/19 28/1/24 27/1/25
f 23/1/18 24/1/21 30/1/26 29/1/27
f 14/1/12 15/1/22 21/1/23 20/1/28
f 17/1/17 18/1/10 24/1/21 23/1/18
f 15/1/22 16/1/16 22/1/19 21/1/23
f 13/1/9 14/1/12 20/1/28 19/1/20
f 28/1/24 29/1/27 35/1/29 34/1/30
f 30/1/26 25/1/31 31/1/32 36/1/33
f 19/1/20 20/1/28 26/1/34 25/1/31
f 24/1/21 19/1/20 25/1/31 30/1/26
f 22/1/19 23/1/18 29/1/27 28/1/24
f 20/1/28 21/1/23 27/1/25 26/1/34
f 33/1/35 34/1/30 40/1/36 39/1/37
f 35/1/29 36/1/33 42/1/38 41/1/39
f 26/1/34 27/1/25 33/1/35 32/1/40
f 29/1/27 30/1/26 36/1/33 35/1/29
f 27/1/25 28/1/24 34/1/30 33/1/35
f 25/1/31 26/1/34 32/1/40 31/1/32
f 64/1/41 63/1/42 47/1/43 46/1/44
f 62/1/45 61/1/46 43/1/47 48/1/48
f 31/1/32 32/1/40 38/1/49 37/1/50
f 36/1/33 31/1/32 37/1/50 42/1/38
f 34/1/30 35/1/29 41/1/39 40/1/36
f 32/1/40 33/1/35 39/1/37 38/1/49
f 45/1/51 46/1/44 52/1/52 51/1/53
f 47/1/43 48/1/48 54/1/54 53/1/55
f 66/1/56 65/1/57 45/1/51 44/1/58
f 63/1/42 62/1/45 48/1/48 47/1/43
f 65/1/57 64/1/41 46/1/44 45/1/51
f 61/1/46 66/1/56 44/1/58 43/1/47
f 50/1/59 51/1/53 57/1/60 56/1/61
f 52/1/52 53/1/55 59/1/62 58/1/63
f 43/1/47 44/1/58 50/1/59 49/1/64
f 48/1/48 43/1/47 49/1/64 54/1/54
f 46/1/44 47/1/43 53/1/55 52/1/52
f 44/1/58 45/1/51 51/1/53 50/1/59
f 59/1/62 60/1/65 55/1/66 58/1/63
f 56/1/61 57/1/60 58/1/63 55/1/66
f 53/1/55 54/1/54 60/1/65 59/1/62
f 51/1/53 52/1/52 58/1/63 57/1/60
f 49/1/64 50/1/59 56/1/61 55/1/66
f 54/1/54 49/1/64 55/1/66 60/1/65
f 37/1/50 38/1/49 66/1/56 61/1/46
f 39/1/37 40/1/36 64/1/41 65/1/57
f 41/1/39 42/1/38 62/1/45 63/1/42
f 38/1/49 39/1/37 65/1/57 66/1/56
f 42/1/38 37/1/50 61/1/46 62/1/45
f 40/1/36 41/1/39 63/1/42 64/1/41
o fungo.035
v 6.988490 -0.042768 -4.144339
v 7.102120 -0.042768 -4.209943
v 7.102120 -0.042768 -4.341151
v 6.988490 -0.042768 -4.406755
v 6.874860 -0.042768 -4.341151
v 6.874860 -0.042768 -4.209943
v 7.036889 0.192769 -4.157754
v 7.136798 0.172166 -4.216650
v 7.136798 0.172165 -4.334444
v 7.036889 0.192769 -4.393341
v 6.936979 0.213373 -4.334444
v 6.936979 0.213373 -4.216650
v 7.062701 0.389588 -4.157754
v 7.162982 0.408294 -4.216650
v 7.162982 0.408294 -4.334444
v 7.062701 0.389588 -4.393341
v 6.962417 0.370882 -4.334444
v 6.962417 0.370882 -4.216650
v 7.053429 0.609938 -4.170618
v 7.142760 0.626601 -4.223082
v 7.142760 0.626601 -4.328012
v 7.053429 0.609938 -4.380477
v 6.964098 0.593275 -4.328012
v 6.964098 0.593275 -4.223082
v 7.062381 0.724971 -4.184097
v 7.141553 0.722949 -4.229823
v 7.141553 0.722949 -4.321272
v 7.062381 0.724971 -4.366997
v 6.983209 0.726993 -4.321272
v 6.983209 0.726993 -4.229823
v 7.132262 0.950597 -4.211104
v 7.184796 0.931756 -4.243326
v 7.184796 0.931756 -4.307769
v 7.132263 0.950597 -4.339991
v 7.079730 0.969437 -4.307769
v 7.079730 0.969437 -4.243326
v 7.145301 0.986953 -4.099785
v 7.288579 0.935567 -4.187666
v 7.288579 0.935567 -4.363428
v 7.145301 0.986953 -4.451309
v 7.002023 1.038339 -4.363428
v 7.002023 1.038339 -4.187666
v 7.092989 0.841093 -3.977171
v 7.336220 0.740954 -4.126359
v 7.336220 0.740954 -4.424735
v 7.092989 0.841093 -4.573923
v 6.846532 0.950912 -4.424735
v 6.846532 0.950912 -4.126359
v 7.164202 1.039654 -4.058830
v 7.324734 0.982748 -4.167189
v 7.324734 0.982748 -4.383906
v 7.164203 1.039654 -4.492265
v 6.961726 1.106240 -4.383906
v 6.961726 1.106240 -4.167189
v 7.172831 1.157589 -4.192674
v 7.240388 1.133360 -4.234111
v 7.240388 1.133360 -4.316984
v 7.172831 1.157589 -4.358421
v 7.105274 1.181818 -4.316984
v 7.105274 1.181818 -4.234111
v 7.090117 0.833139 -4.035007
v 6.891868 0.918617 -4.155277
v 6.891868 0.918617 -4.395818
v 7.090117 0.833139 -4.516087
v 7.286202 0.754156 -4.395817
v 7.286202 0.754156 -4.155277
vn -0.7468 -0.5256 -0.4075
vn -0.0473 -0.5842 -0.8103
vn -0.0473 -0.5842 0.8103
vn -0.7468 -0.5256 0.4075
vn 0.6408 -0.6544 0.4014
vn 0.6408 -0.6544 -0.4014
vn -0.8491 0.1764 0.4979
vn 0.0150 0.0288 0.9995
vn 0.0240 0.0246 0.9994
vn -0.8572 0.0791 0.5089
vn 0.8649 -0.1082 0.4902
vn 0.8720 0.0015 0.4895
vn -0.8491 0.1764 -0.4979
vn 0.0150 0.0288 -0.9995
vn 0.8660 -0.1115 -0.4875
vn 0.0240 0.0246 -0.9994
vn -0.8572 0.0791 -0.5089
vn -0.8698 0.0829 -0.4864
vn -0.0273 0.0890 -0.9957
vn -0.0281 0.0858 0.9959
vn -0.8698 0.0829 0.4864
vn 0.8720 0.0015 -0.4895
vn 0.8582 0.0714 -0.5083
vn -0.0264 0.1220 -0.9922
vn 0.8562 -0.0488 -0.5144
vn -0.8444 0.2482 0.4748
vn -0.8444 0.2482 -0.4748
vn 0.8580 0.0682 0.5092
vn -0.8381 -0.4064 -0.3640
vn -0.2343 -0.6063 -0.7599
vn -0.0264 0.1220 0.9922
vn -0.2343 -0.6063 0.7599
vn -0.8381 -0.4064 0.3640
vn 0.8562 -0.0488 0.5144
vn 0.4147 -0.8217 -0.3909
vn -0.2882 -0.7717 0.5670
vn -0.7423 -0.6057 0.2864
vn 0.1555 -0.9452 -0.2870
vn 0.1555 -0.9452 0.2870
vn 0.4147 -0.8217 0.3909
vn -0.3797 -0.8706 0.3129
vn -0.1481 -0.9775 0.1499
vn -0.8797 -0.0901 -0.4670
vn -0.1502 -0.3917 -0.9077
vn -0.1481 -0.9775 -0.1499
vn -0.3797 -0.8706 -0.3129
vn -0.1502 -0.3917 0.9077
vn -0.8797 -0.0901 0.4670
vn -0.7423 -0.6057 -0.2864
vn -0.2882 -0.7717 -0.5670
vn 0.5937 -0.6683 -0.4482
vn 0.2211 0.5058 -0.8339
vn 0.8605 0.3097 -0.4044
vn -0.5158 0.7380 0.4351
vn -0.5158 0.7380 -0.4351
vn -0.6150 -0.7734 -0.1539
vn -0.6150 -0.7734 0.1539
vn 0.5937 -0.6683 0.4482
vn 0.8605 0.3097 0.4044
vn 0.6425 0.7383 -0.2051
vn 0.6425 0.7383 0.2051
vn -0.0770 0.9691 -0.2344
vn 0.2806 0.8527 -0.4407
vn 0.2211 0.5058 0.8339
vn -0.0770 0.9691 0.2344
vn 0.2806 0.8527 0.4407
vt 0.000000 0.000000
s 1
usemtl Material.003
f 71/2/67 70/2/68 67/2/69 72/2/70
f 68/2/71 67/2/69 70/2/68 69/2/72
f 78/2/73 73/2/74 79/2/75 84/2/76
f 73/2/74 74/2/77 80/2/78 79/2/75
f 72/2/70 67/2/69 73/2/74 78/2/73
f 70/2/68 71/2/67 77/2/79 76/2/80
f 68/2/71 69/2/72 75/2/81 74/2/77
f 71/2/67 72/2/70 78/2/73 77/2/79
f 69/2/72 70/2/68 76/2/80 75/2/81
f 67/2/69 68/2/71 74/2/77 73/2/74
f 82/2/82 83/2/83 89/2/84 88/2/85
f 84/2/76 79/2/75 85/2/86 90/2/87
f 76/2/80 77/2/79 83/2/83 82/2/82
f 74/2/77 75/2/81 81/2/88 80/2/78
f 77/2/79 78/2/73 84/2/76 83/2/83
f 75/2/81 76/2/80 82/2/82 81/2/88
f 87/2/89 88/2/85 94/2/90 93/2/91
f 89/2/84 90/2/87 96/2/92 95/2/93
f 80/2/78 81/2/88 87/2/89 86/2/94
f 83/2/83 84/2/76 90/2/87 89/2/84
f 81/2/88 82/2/82 88/2/85 87/2/89
f 79/2/75 80/2/78 86/2/94 85/2/86
f 94/2/90 95/2/93 101/2/95 100/2/96
f 96/2/92 91/2/97 97/2/98 102/2/99
f 85/2/86 86/2/94 92/2/100 91/2/97
f 90/2/87 85/2/86 91/2/97 96/2/92
f 88/2/85 89/2/84 95/2/93 94/2/90
f 86/2/94 87/2/89 93/2/91 92/2/100
f 99/2/101 100/2/96 106/2/102 105/2/103
f 101/2/95 102/2/99 108/2/104 107/2/105
f 92/2/100 93/2/91 99/2/101 98/2/106
f 95/2/93 96/2/92 102/2/99 101/2/95
f 93/2/91 94/2/90 100/2/96 99/2/101
f 91/2/97 92/2/100 98/2/106 97/2/98
f 130/2/107 129/2/108 113/2/109 112/2/110
f 128/2/111 127/2/112 109/2/113 114/2/114
f 97/2/98 98/2/106 104/2/115 103/2/116
f 102/2/99 97/2/98 103/2/116 108/2/104
f 100/2/96 101/2/95 107/2/105 106/2/102
f 98/2/106 99/2/101 105/2/103 104/2/115
f 111/2/117 112/2/110 118/2/118 117/2/119
f 113/2/109 114/2/114 120/2/120 119/2/121
f 132/2/122 131/2/123 111/2/117 110/2/124
f 129/2/108 128/2/111 114/2/114 113/2/109
f 131/2/123 130/2/107 112/2/110 111/2/117
f 127/2/112 132/2/122 110/2/124 109/2/113
f 116/2/125 117/2/119 123/2/126 122/2/127
f 118/2/118 119/2/121 125/2/128 124/2/129
f 109/2/113 110/2/124 116/2/125 115/2/130
f 114/2/114 109/2/113 115/2/130 120/2/120
f 112/2/110 113/2/109 119/2/121 118/2/118
f 110/2/124 111/2/117 117/2/119 116/2/125
f 125/2/128 126/2/131 121/2/132 124/2/129
f 122/2/127 123/2/126 124/2/129 121/2/132
f 119/2/121 120/2/120 126/2/131 125/2/128
f 117/2/119 118/2/118 124/2/129 123/2/126
f 115/2/130 116/2/125 122/2/127 121/2/132
f 120/2/120 115/2/130 121/2/132 126/2/131
f 103/2/116 104/2/115 132/2/122 127/2/112
f 105/2/103 106/2/102 130/2/107 131/2/123
f 107/2/105 108/2/104 128/2/111 129/2/108
f 104/2/115 105/2/103 131/2/123 132/2/122
f 108/2/104 103/2/116 127/2/112 128/2/111
f 106/2/102 107/2/105 129/2/108 130/2/107
