# Blender 5.0.0
# www.blender.org
mtllib fungus yelloworange small.mtl
o fungo.016
v -1.618211 0.006732 -0.760959
v -1.691451 -0.024059 -0.694506
v -1.618211 -0.054849 -0.628053
v -1.544971 -0.024059 -0.694506
v -1.618211 0.105183 -0.652870
v -1.691451 0.040779 -0.617998
v -1.618211 -0.023626 -0.583126
v -1.544971 0.040779 -0.617998
v -1.618211 0.150022 -0.502788
v -1.691451 0.077087 -0.496104
v -1.618211 0.004153 -0.489420
v -1.544971 0.077087 -0.496104
v -1.618211 0.130857 -0.374478
v -1.691451 0.061527 -0.350869
v -1.618211 -0.007804 -0.327259
v -1.544971 0.061527 -0.350869
v -1.618211 0.211664 -0.295336
v -1.691451 0.175640 -0.231568
v -1.618211 0.139617 -0.167800
v -1.544971 0.175640 -0.231568
v -1.618211 0.308297 -0.248960
v -1.664469 0.302721 -0.203040
v -1.618211 0.297146 -0.157119
v -1.571953 0.302721 -0.203040
v -1.618211 0.427260 -0.239186
v -1.656951 0.427209 -0.200446
v -1.618211 0.427158 -0.161706
v -1.579471 0.427209 -0.200446
v -1.618211 0.569322 -0.232131
v -1.647308 0.569851 -0.203040
v -1.618211 0.570380 -0.173948
v -1.589114 0.569851 -0.203040
v -1.618211 0.612791 -0.255907
v -1.681463 0.613940 -0.192666
v -1.618211 0.615090 -0.129424
v -1.554959 0.613940 -0.192666
v -1.618211 0.652779 -0.348582
v -1.773865 0.613940 -0.197853
v -1.618211 0.575101 -0.047122
v -1.462557 0.613940 -0.197853
v -1.618211 0.803577 -0.424755
v -1.879307 0.738428 -0.171918
v -1.618211 0.673279 0.080920
v -1.357115 0.738428 -0.171918
v -1.618211 0.940745 -0.313975
v -1.815794 0.891444 -0.122642
v -1.618211 0.842143 0.068692
v -1.420628 0.891444 -0.122641
v -1.618211 0.990157 -0.119436
v -1.660430 0.979623 -0.078552
v -1.618211 0.969088 -0.037668
v -1.575992 0.979623 -0.078552
vn -0.0000 -0.9579 0.2872
vn -0.0000 -0.8883 0.4593
vn -0.9958 0.0729 -0.0555
vn -0.8203 -0.4307 -0.3762
vn 0.8203 -0.4307 -0.3762
vn 0.9958 0.0729 -0.0555
vn -0.0000 0.8742 -0.4856
vn -0.0000 -0.0091 -1.0000
vn 0.9959 0.0903 0.0015
vn -0.0000 -0.9950 0.0995
vn -0.9959 0.0903 0.0015
vn -0.0000 0.9967 -0.0816
vn -0.9822 -0.1765 0.0645
vn -0.0000 0.9476 -0.3194
vn 0.9822 -0.1765 0.0645
vn -0.0000 -0.9454 0.3260
vn -0.0000 0.5845 -0.8114
vn 0.9898 0.0179 0.1414
vn -0.0000 -0.4328 0.9015
vn -0.9898 0.0179 0.1414
vn 0.9897 0.1220 0.0749
vn -0.0000 -0.0087 1.0000
vn -0.9897 0.1220 0.0749
vn -0.0000 0.2666 -0.9638
vn -0.0000 0.0659 -0.9978
vn 0.9979 0.0633 0.0097
vn -0.0000 0.0606 0.9982
vn -0.9979 0.0633 0.0097
vn -0.0000 -0.4282 0.9037
vn -0.9400 -0.3344 -0.0677
vn 0.9400 -0.3344 -0.0677
vn -0.0000 -0.2535 -0.9673
vn 0.2200 -0.9498 -0.2225
vn -0.0000 -0.9993 -0.0376
vn -0.2200 -0.9498 -0.2225
vn -0.0000 -0.8733 -0.4872
vn -0.0000 -0.6634 -0.7483
vn 0.5649 -0.7985 -0.2082
vn -0.0000 -0.9426 0.3339
vn -0.5649 -0.7985 -0.2082
vn 0.9914 -0.1220 -0.0482
vn -0.0000 -0.3843 0.9232
vn -0.9914 -0.1220 -0.0481
vn -0.0000 0.1318 -0.9913
vn 0.8161 0.5562 0.1569
vn -0.0000 0.3076 0.9515
vn -0.8161 0.5562 0.1569
vn -0.0000 0.7924 -0.6101
vn -0.0000 0.9939 -0.1101
vn 0.3923 0.8779 0.2746
vn -0.0000 0.7685 0.6399
vn -0.3923 0.8779 0.2746
vt 0.401225 0.000375
vt 0.444000 0.017164
vt 0.456852 0.024555
vt 0.440426 0.036752
vt 0.454705 0.000375
vt 0.458449 0.020488
vt 0.460735 0.023733
vt 0.462334 0.024360
vt 0.487187 0.034463
vt 0.483017 0.032478
vt 0.487424 0.033860
vt 0.489347 0.034963
vt 0.518016 0.044128
vt 0.519581 0.046830
vt 0.516596 0.047746
vt 0.515465 0.045214
vt 0.561134 0.063139
vt 0.560815 0.065069
vt 0.562578 0.063707
vt 0.562212 0.061508
vt 0.600012 0.079160
vt 0.599449 0.078179
vt 0.600529 0.077842
vt 0.601616 0.079029
vt 0.668538 0.105296
vt 0.668542 0.105631
vt 0.668817 0.105406
vt 0.668769 0.105053
vt 0.797496 0.155913
vt 0.796805 0.155637
vt 0.796802 0.155646
vt 0.796109 0.155368
vt 0.817523 0.164007
vt 0.815277 0.162892
vt 0.817682 0.163602
vt 0.819723 0.164637
vt 0.841165 0.173053
vt 0.837900 0.173010
vt 0.835521 0.170838
vt 0.838742 0.170864
vt 0.855827 0.181024
vt 0.854276 0.178199
vt 0.857334 0.177184
vt 0.859614 0.180294
vt 0.871573 0.188324
vt 0.870567 0.184594
vt 0.873842 0.182543
vt 0.876900 0.187079
vt 0.909440 0.199851
vt 0.891128 0.191423
vt 0.887553 0.191261
vt 0.890285 0.193574
vt 0.000000 0.000000
s 1
usemtl Material.023
f 3/1/1 7/2/2 6/3/3 2/4/4
f 4/5/5 8/6/6 7/2/2 3/1/1
f 2/4/4 6/3/3 5/7/7 1/8/8
f 1/8/8 5/7/7 8/6/6 4/5/5
f 8/6/6 12/9/9 11/10/10 7/2/2
f 6/3/3 10/11/11 9/12/12 5/7/7
f 5/7/7 9/12/12 12/9/9 8/6/6
f 7/2/2 11/10/10 10/11/11 6/3/3
f 10/11/11 14/13/13 13/14/14 9/12/12
f 9/12/12 13/14/14 16/15/15 12/9/9
f 11/10/10 15/16/16 14/13/13 10/11/11
f 12/9/9 16/15/15 15/16/16 11/10/10
f 13/14/14 17/17/17 20/18/18 16/15/15
f 15/16/16 19/19/19 18/20/20 14/13/13
f 16/15/15 20/18/18 19/19/19 15/16/16
f 14/13/13 18/20/20 17/17/17 13/14/14
f 20/18/18 24/21/21 23/22/22 19/19/19
f 18/20/20 22/23/23 21/24/24 17/17/17
f 17/17/17 21/24/24 24/21/21 20/18/18
f 19/19/19 23/22/22 22/23/23 18/20/20
f 21/24/24 25/25/25 28/26/26 24/21/21
f 23/22/22 27/27/27 26/28/28 22/23/23
f 24/21/21 28/26/26 27/27/27 23/22/22
f 22/23/23 26/28/28 25/25/25 21/24/24
f 27/27/27 31/29/29 30/30/30 26/28/28
f 28/26/26 32/31/31 31/29/29 27/27/27
f 26/28/28 30/30/30 29/32/32 25/25/25
f 25/25/25 29/32/32 32/31/31 28/26/26
f 32/31/31 36/33/33 35/34/34 31/29/29
f 30/30/30 34/35/35 33/36/36 29/32/32
f 29/32/32 33/36/36 36/33/33 32/31/31
f 31/29/29 35/34/34 34/35/35 30/30/30
f 33/36/36 37/37/37 40/38/38 36/33/33
f 35/34/34 39/39/39 38/40/40 34/35/35
f 36/33/33 40/38/38 39/39/39 35/34/34
f 34/35/35 38/40/40 37/37/37 33/36/36
f 40/38/38 44/41/41 43/42/42 39/39/39
f 38/40/40 42/43/43 41/44/44 37/37/37
f 37/37/37 41/44/44 44/41/41 40/38/38
f 39/39/39 43/42/42 42/43/43 38/40/40
f 44/41/41 48/45/45 47/46/46 43/42/42
f 42/43/43 46/47/47 45/48/48 41/44/44
f 41/44/44 45/48/48 48/45/45 44/41/41
f 43/42/42 47/46/46 46/47/47 42/43/43
f 45/48/48 49/49/49 52/50/50 48/45/45
f 47/46/46 51/51/51 50/52/52 46/47/47
f 48/45/45 52/50/50 51/51/51 47/46/46
f 46/47/47 50/52/52 49/49/49 45/48/48
f 50/52/52 51/51/51 52/50/50 49/49/49
f 3/53/1 2/53/4 1/53/8 4/53/5
