# Blender 5.0.0
# www.blender.org
mtllib fungus yellow small.mtl
o fungo.009
v 4.128766 -0.004510 2.528485
v 4.079002 -0.045819 2.565825
v 4.079002 -0.045819 2.640505
v 4.128766 -0.004510 2.677845
v 4.178530 0.036799 2.640505
v 4.178530 0.036799 2.565825
v 4.064807 0.079298 2.538563
v 4.016390 0.051266 2.570864
v 4.016390 0.051266 2.635466
v 4.064807 0.079298 2.667767
v 4.113225 0.107329 2.635466
v 4.113225 0.107329 2.570864
v 4.011876 0.187365 2.551634
v 3.973255 0.165006 2.577399
v 3.973255 0.165006 2.628930
v 4.011876 0.187365 2.654695
v 4.050498 0.209725 2.628930
v 4.050498 0.209725 2.577399
v 3.987616 0.262351 2.551635
v 3.944968 0.249211 2.577399
v 3.944968 0.249211 2.628930
v 3.987616 0.262351 2.654695
v 4.030264 0.275491 2.628930
v 4.030265 0.275491 2.577399
v 3.976589 0.366008 2.548375
v 3.929264 0.362573 2.575770
v 3.929264 0.362573 2.630559
v 3.976589 0.366008 2.657954
v 4.023913 0.369442 2.630559
v 4.023913 0.369442 2.575770
v 3.969866 0.400196 2.538777
v 3.914250 0.396160 2.570971
v 3.914250 0.396160 2.635359
v 3.969866 0.400196 2.667553
v 4.025482 0.404232 2.635359
v 4.025482 0.404232 2.570971
v 3.966354 0.431808 2.514781
v 3.890012 0.426268 2.558973
v 3.890012 0.426268 2.647356
v 3.966354 0.431808 2.691548
v 4.042695 0.437348 2.647356
v 4.042695 0.437348 2.558973
v 3.915881 0.453468 2.447006
v 3.780998 0.443680 2.525085
v 3.780998 0.443680 2.681244
v 3.915881 0.453468 2.759324
v 4.050764 0.463256 2.681244
v 4.050764 0.463256 2.525085
v 3.915881 0.453468 2.421785
v 3.759213 0.442099 2.512475
v 3.759213 0.442099 2.693855
v 3.915881 0.453468 2.784545
v 4.072549 0.464837 2.693855
v 4.072549 0.464837 2.512475
v 3.905344 0.499130 2.487139
v 3.805126 0.491857 2.545152
v 3.805126 0.491857 2.661177
v 3.905344 0.499130 2.719190
v 4.005561 0.506402 2.661177
v 4.005561 0.506402 2.545152
v 3.908856 0.511423 2.558273
v 3.870080 0.508609 2.580719
v 3.870080 0.508609 2.625611
v 3.908856 0.511423 2.648057
v 3.947632 0.514237 2.625611
v 3.947632 0.514237 2.580719
v 3.909879 0.497320 2.574950
v 3.885509 0.495552 2.589057
v 3.885509 0.495552 2.617272
v 3.909879 0.497320 2.631379
v 3.934250 0.499089 2.617272
v 3.934250 0.499089 2.589057
v 3.918077 0.460679 2.744269
v 4.039956 0.469524 2.673717
v 3.796196 0.451835 2.532612
v 3.796196 0.451835 2.673717
v 4.039956 0.469524 2.532612
v 3.918077 0.460679 2.462060
vn 0.9132 -0.0000 0.4076
vn 0.6668 0.5414 0.5121
vn -0.0804 0.0689 0.9944
vn 0.3620 -0.4450 0.8191
vn -0.1936 -0.8913 0.4101
vn -0.7904 -0.3746 0.4848
vn -0.7904 -0.3746 -0.4848
vn -0.1936 -0.8912 -0.4101
vn 0.9132 -0.0000 -0.4076
vn 0.6668 0.5414 -0.5121
vn -0.0804 0.0689 -0.9944
vn 0.3620 -0.4450 -0.8191
vn 0.7773 0.3652 -0.5124
vn 0.7773 0.3652 0.5124
vn -0.0482 0.0410 0.9980
vn -0.8272 -0.2806 0.4869
vn -0.8272 -0.2806 -0.4869
vn -0.0482 0.0410 -0.9980
vn -0.0293 -0.0223 -0.9993
vn 0.8447 0.1515 -0.5134
vn 0.8447 0.1515 0.5134
vn -0.0293 -0.0223 0.9993
vn -0.8506 -0.2033 0.4849
vn -0.8506 -0.2033 -0.4849
vn 0.8718 -0.0288 -0.4889
vn 0.8718 -0.0288 0.4889
vn 0.0292 -0.1534 0.9877
vn -0.8219 -0.2835 0.4942
vn -0.8219 -0.2835 -0.4942
vn 0.0292 -0.1534 -0.9877
vn 0.0266 -0.4691 -0.8828
vn 0.8133 -0.3581 -0.4586
vn 0.8133 -0.3581 0.4586
vn 0.0266 -0.4691 0.8828
vn -0.7038 -0.5687 0.4256
vn -0.7038 -0.5687 -0.4256
vn 0.8749 -0.3317 -0.3529
vn 0.8749 -0.3317 0.3529
vn 0.1773 -0.6859 0.7058
vn -0.3719 -0.8837 0.2842
vn -0.3719 -0.8837 -0.2842
vn 0.1773 -0.6859 -0.7058
vn 0.0667 -0.9920 0.1075
vn -0.0728 -0.9935 -0.0876
vn 0.0769 -0.9864 -0.1453
vn 0.0165 -0.9924 -0.1221
vn 0.1854 -0.9790 -0.0853
vn 0.1835 -0.9810 -0.0623
vn 0.1835 -0.9810 0.0623
vn 0.1854 -0.9790 0.0853
vn 0.0667 -0.9920 -0.1075
vn -0.0728 -0.9935 0.0876
vn 0.0769 -0.9864 0.1453
vn 0.0165 -0.9924 0.1221
vn 0.0375 -0.2385 0.9704
vn -0.8099 -0.3191 0.4922
vn -0.8099 -0.3192 -0.4922
vn 0.0375 -0.2385 -0.9704
vn 0.8626 -0.1624 -0.4790
vn 0.8626 -0.1624 0.4790
vn -0.4710 0.8533 0.2237
vn -0.4710 0.8533 -0.2237
vn 0.2934 0.9309 -0.2176
vn 0.2934 0.9309 0.2176
vn -0.0834 0.8929 0.4424
vn -0.0834 0.8929 -0.4424
vn 0.0433 0.9970 0.0643
vn -0.0675 0.9897 0.1264
vn -0.1747 0.9827 0.0623
vn -0.1747 0.9827 -0.0623
vn -0.0675 0.9897 -0.1264
vn 0.0433 0.9970 -0.0643
vn -0.4423 0.8699 0.2183
vn -0.4423 0.8699 -0.2183
vn -0.0651 0.8973 0.4366
vn -0.0651 0.8973 -0.4366
vn 0.3120 0.9246 -0.2183
vn 0.3120 0.9246 0.2183
vt 0.676519 0.699265
vt 0.667469 0.685402
vt 0.668185 0.682338
vt 0.687094 0.680614
vt 0.675702 0.660967
vt 0.666406 0.680680
vt 0.664350 0.680900
vt 0.651117 0.660557
vt 0.657077 0.699265
vt 0.663962 0.685721
vt 0.662833 0.682754
vt 0.643526 0.683890
vt 0.665454 0.682818
vt 0.665528 0.682823
vt 0.665571 0.682769
vt 0.665546 0.682697
vt 0.665460 0.682683
vt 0.665414 0.682754
vt 0.665488 0.682767
vt 0.665492 0.682772
vt 0.665498 0.682774
vt 0.665502 0.682770
vt 0.665498 0.682765
vt 0.665492 0.682763
vt 0.665497 0.682771
vt 0.665497 0.682771
vt 0.665497 0.682771
vt 0.665496 0.682772
vt 0.665496 0.682771
vt 0.665497 0.682770
vt 0.665497 0.682772
vt 0.665497 0.682772
vt 0.665497 0.682772
vt 0.665497 0.682773
vt 0.665497 0.682773
vt 0.665497 0.682773
vt 0.665498 0.682773
vt 0.665498 0.682773
vt 0.665498 0.682774
vt 0.665498 0.682774
vt 0.665498 0.682774
vt 0.665498 0.682774
vt 0.665499 0.682774
vt 0.665499 0.682775
vt 0.665500 0.682776
vt 0.665499 0.682775
vt 0.665499 0.682775
vt 0.665500 0.682776
vt 0.665500 0.682776
vt 0.665499 0.682775
vt 0.665498 0.682774
vt 0.665499 0.682775
vt 0.665499 0.682776
vt 0.665499 0.682775
vt 0.665500 0.682777
vt 0.665500 0.682777
vt 0.665500 0.682777
vt 0.665500 0.682776
vt 0.665500 0.682776
vt 0.665500 0.682777
vt 0.665501 0.682778
vt 0.665501 0.682777
vt 0.665501 0.682778
vt 0.665501 0.682778
vt 0.665501 0.682778
vt 0.665500 0.682777
vt 0.665501 0.682778
vt 0.665501 0.682778
vt 0.665502 0.682779
vt 0.665504 0.682783
vt 0.665502 0.682779
vt 0.665501 0.682778
vt 0.665502 0.682780
vt 0.665503 0.682781
vt 0.665501 0.682779
vt 0.665502 0.682779
vt 0.665501 0.682779
vt 0.665501 0.682779
vt 0.000000 0.000000
s 1
usemtl Material.029
f 5/1/1 11/2/2 10/3/3 4/4/4
f 3/5/5 9/6/6 8/7/7 2/8/8
f 6/9/9 12/10/10 11/2/2 5/1/1
f 4/4/4 10/3/3 9/6/6 3/5/5
f 2/8/8 8/7/7 7/11/11 1/12/12
f 1/12/12 7/11/11 12/10/10 6/9/9
f 12/10/10 18/13/13 17/14/14 11/2/2
f 10/3/3 16/15/15 15/16/16 9/6/6
f 8/7/7 14/17/17 13/18/18 7/11/11
f 7/11/11 13/18/18 18/13/13 12/10/10
f 11/2/2 17/14/14 16/15/15 10/3/3
f 9/6/6 15/16/16 14/17/17 8/7/7
f 13/18/18 19/19/19 24/20/20 18/13/13
f 17/14/14 23/21/21 22/22/22 16/15/15
f 15/16/16 21/23/23 20/24/24 14/17/17
f 18/13/13 24/20/20 23/21/21 17/14/14
f 16/15/15 22/22/22 21/23/23 15/16/16
f 14/17/17 20/24/24 19/19/19 13/18/18
f 24/20/20 30/25/25 29/26/26 23/21/21
f 22/22/22 28/27/27 27/28/28 21/23/23
f 20/24/24 26/29/29 25/30/30 19/19/19
f 19/19/19 25/30/30 30/25/25 24/20/20
f 23/21/21 29/26/26 28/27/27 22/22/22
f 21/23/23 27/28/28 26/29/29 20/24/24
f 25/30/30 31/31/31 36/32/32 30/25/25
f 29/26/26 35/33/33 34/34/34 28/27/27
f 27/28/28 33/35/35 32/36/36 26/29/29
f 30/25/25 36/32/32 35/33/33 29/26/26
f 28/27/27 34/34/34 33/35/35 27/28/28
f 26/29/29 32/36/36 31/31/31 25/30/30
f 36/32/32 42/37/37 41/38/38 35/33/33
f 34/34/34 40/39/39 39/40/40 33/35/35
f 32/36/36 38/41/41 37/42/42 31/31/31
f 31/31/31 37/42/42 42/37/37 36/32/32
f 35/33/33 41/38/38 40/39/39 34/34/34
f 33/35/35 39/40/40 38/41/41 32/36/36
f 37/42/42 78/54/54 77/51/51 42/37/37
f 38/41/41 75/50/50 78/54/54 37/42/42
f 40/39/39 73/46/46 76/47/47 39/40/40
f 42/37/37 77/51/51 74/43/43 41/38/38
f 39/40/40 76/47/47 75/50/50 38/41/41
f 41/38/38 74/43/43 73/46/46 40/39/39
f 2/79/8 1/79/12 6/79/9 5/79/1
f 3/79/5 2/79/8 5/79/1 4/79/4
usemtl Material.025
f 74/43/43 47/44/44 46/45/45 73/46/46
f 76/47/47 45/48/48 44/49/49 75/50/50
f 77/51/51 48/52/52 47/44/44 74/43/43
f 73/46/46 46/45/45 45/48/48 76/47/47
f 75/50/50 44/49/49 43/53/53 78/54/54
f 78/54/54 43/53/53 48/52/52 77/51/51
f 46/45/45 52/55/55 51/56/56 45/48/48
f 44/49/49 50/57/57 49/58/58 43/53/53
f 43/53/53 49/58/58 54/59/59 48/52/52
f 47/44/44 53/60/60 52/55/55 46/45/45
f 45/48/48 51/56/56 50/57/57 44/49/49
f 48/52/52 54/59/59 53/60/60 47/44/44
f 51/56/56 57/61/61 56/62/62 50/57/57
f 54/59/59 60/63/63 59/64/64 53/60/60
f 52/55/55 58/65/65 57/61/61 51/56/56
f 50/57/57 56/62/62 55/66/66 49/58/58
f 49/58/58 55/66/66 60/63/63 54/59/59
f 53/60/60 59/64/64 58/65/65 52/55/55
f 56/62/62 62/67/67 61/68/68 55/66/66
f 55/66/66 61/68/68 66/69/69 60/63/63
f 59/64/64 65/70/70 64/71/71 58/65/65
f 57/61/61 63/72/72 62/67/67 56/62/62
f 60/63/63 66/69/69 65/70/70 59/64/64
f 58/65/65 64/71/71 63/72/72 57/61/61
f 66/69/69 72/73/73 71/74/74 65/70/70
f 71/74/74 72/73/73 67/75/75 70/76/76
f 64/71/71 70/76/76 69/77/77 63/72/72
f 62/67/67 68/78/78 67/75/75 61/68/68
f 61/68/68 67/75/75 72/73/73 66/69/69
f 65/70/70 71/74/74 70/76/76 64/71/71
f 63/72/72 69/77/77 68/78/78 62/67/67
f 68/78/78 69/77/77 70/76/76 67/75/75
