# Blender 5.0.0
# www.blender.org
mtllib fungus pink.mtl
o fungo.042
v -1.887545 -0.016188 -4.218034
v -1.948111 -0.021763 -4.182918
v -1.948111 -0.021763 -4.112687
v -1.887545 -0.016188 -4.077571
v -1.826980 -0.010612 -4.112687
v -1.826980 -0.010612 -4.182918
v -1.906006 0.084695 -4.212067
v -1.961396 0.090109 -4.179935
v -1.961396 0.090109 -4.115670
v -1.906006 0.084695 -4.083538
v -1.850615 0.079280 -4.115670
v -1.850615 0.079280 -4.179935
v -1.859205 0.227698 -4.212067
v -1.911245 0.247428 -4.179935
v -1.911245 0.247428 -4.115670
v -1.859205 0.227698 -4.083538
v -1.807164 0.207968 -4.115670
v -1.807164 0.207968 -4.179935
v -1.783803 0.401901 -4.233069
v -1.853315 0.426821 -4.190436
v -1.853315 0.426821 -4.105169
v -1.783803 0.401901 -4.062536
v -1.714291 0.376982 -4.105169
v -1.714291 0.376982 -4.190436
v -1.724002 0.609906 -4.264892
v -1.823658 0.628640 -4.206347
v -1.823658 0.628640 -4.089258
v -1.724002 0.609906 -4.030714
v -1.624345 0.591171 -4.089258
v -1.624345 0.591171 -4.206347
v -1.695401 0.825710 -4.304792
v -1.829871 0.805653 -4.226298
v -1.829871 0.805653 -4.069308
v -1.695401 0.825711 -3.990813
v -1.560931 0.845768 -4.069308
v -1.560931 0.845768 -4.226298
v -1.711002 0.919312 -4.380282
v -1.910132 0.889610 -4.264043
v -1.910132 0.889610 -4.031563
v -1.711001 0.919313 -3.915323
v -1.511871 0.949015 -4.031562
v -1.511871 0.949015 -4.264043
v -1.666801 0.955713 -4.582563
v -2.037349 0.888960 -4.365183
v -2.037349 0.888960 -3.930423
v -1.666800 0.955713 -3.713043
v -1.296252 1.022466 -3.930423
v -1.296252 1.022466 -4.365183
v -1.664201 0.927113 -4.649526
v -2.091822 0.850078 -4.398664
v -2.091822 0.850078 -3.896942
v -1.664200 0.927113 -3.646080
v -1.236579 1.004147 -3.896942
v -1.236579 1.004147 -4.398664
v -1.651200 1.070116 -4.450502
v -1.909193 1.023639 -4.299153
v -1.909193 1.023639 -3.996453
v -1.651200 1.070116 -3.845103
v -1.393207 1.116592 -3.996452
v -1.393207 1.116592 -4.299153
v -1.659000 0.999481 -4.283606
v -1.774746 0.978630 -4.215704
v -1.774746 0.978630 -4.079901
v -1.659000 0.999481 -4.012000
v -1.543254 1.020332 -4.079901
v -1.543254 1.020332 -4.215704
vn 0.7794 -0.4808 0.4018
vn 0.8390 -0.0171 0.5439
vn -0.0786 0.0338 0.9963
vn 0.0796 -0.5807 0.8102
vn -0.6207 -0.6734 0.4016
vn -0.8774 0.0892 0.4714
vn -0.8774 0.0892 -0.4714
vn -0.6207 -0.6734 -0.4016
vn 0.7794 -0.4808 -0.4018
vn 0.8390 -0.0171 -0.5439
vn -0.0786 0.0338 -0.9963
vn 0.0796 -0.5807 -0.8102
vn 0.7849 -0.3610 -0.5036
vn 0.7849 -0.3610 0.5036
vn -0.0339 -0.0485 0.9982
vn -0.8333 0.2533 0.4914
vn -0.8333 0.2533 -0.4914
vn -0.0339 -0.0485 -0.9982
vn -0.0192 -0.1291 -0.9914
vn 0.7740 -0.4065 -0.4855
vn 0.7740 -0.4065 0.4855
vn -0.0192 -0.1291 0.9914
vn -0.8470 0.1608 0.5067
vn -0.8470 0.1608 -0.5067
vn 0.8219 -0.3111 -0.4772
vn 0.8219 -0.3111 0.4772
vn 0.0030 -0.1646 0.9864
vn -0.8633 0.0003 0.5046
vn -0.8633 0.0003 -0.5046
vn 0.0030 -0.1646 -0.9864
vn 0.0959 -0.4438 -0.8910
vn 0.8124 -0.4074 -0.4172
vn 0.8124 -0.4074 0.4172
vn 0.0958 -0.4438 0.8910
vn -0.7384 -0.4673 0.4862
vn -0.7384 -0.4673 -0.4862
vn 0.4845 -0.8516 -0.2001
vn 0.4845 -0.8516 0.2001
vn 0.1416 -0.9086 0.3930
vn -0.1878 -0.9633 0.1917
vn -0.1878 -0.9633 -0.1917
vn 0.1416 -0.9086 -0.3930
vn -0.0221 -0.9935 -0.1120
vn 0.1706 -0.9612 -0.2169
vn 0.3493 -0.9313 -0.1034
vn 0.3493 -0.9313 0.1034
vn -0.0221 -0.9935 0.1120
vn 0.1706 -0.9612 0.2169
vn -0.0181 -0.3934 0.9192
vn -0.7555 -0.4978 0.4259
vn -0.7555 -0.4978 -0.4259
vn -0.0181 -0.3934 -0.9192
vn 0.8258 -0.2799 -0.4896
vn 0.8258 -0.2799 0.4896
vn -0.3419 0.9330 0.1123
vn -0.3419 0.9330 -0.1123
vn 0.1147 0.9829 -0.1440
vn 0.1147 0.9829 0.1440
vn -0.1415 0.9545 0.2626
vn -0.1415 0.9545 -0.2626
vn 0.0713 0.9889 0.1307
vn -0.1556 0.9546 0.2542
vn -0.3667 0.9223 0.1218
vn -0.3667 0.9223 -0.1218
vn -0.1556 0.9546 -0.2542
vn 0.0713 0.9889 -0.1307
vt 0.673872 0.437501
vt 0.675421 0.426155
vt 0.681562 0.419660
vt 0.704274 0.422459
vt 0.714286 0.379613
vt 0.681861 0.409443
vt 0.679891 0.401741
vt 0.687715 0.322451
vt 0.644598 0.417048
vt 0.667755 0.418825
vt 0.671803 0.406283
vt 0.644598 0.371340
vt 0.668694 0.462541
vt 0.669416 0.463003
vt 0.669806 0.462537
vt 0.670007 0.461533
vt 0.670150 0.461301
vt 0.669491 0.461401
vt 0.661951 0.515994
vt 0.662085 0.516009
vt 0.662714 0.517076
vt 0.663010 0.516700
vt 0.662739 0.516206
vt 0.662418 0.516144
vt 0.656235 0.557637
vt 0.657700 0.558322
vt 0.658154 0.557940
vt 0.657442 0.556639
vt 0.657128 0.556422
vt 0.656121 0.557035
vt 0.653844 0.580924
vt 0.652924 0.585369
vt 0.653535 0.587701
vt 0.653830 0.583311
vt 0.653734 0.578341
vt 0.654960 0.577437
vt 0.651689 0.596267
vt 0.651554 0.601543
vt 0.651822 0.593688
vt 0.652305 0.587297
vt 0.654126 0.585225
vt 0.653472 0.589735
vt 0.649152 0.620397
vt 0.650622 0.605389
vt 0.651767 0.595379
vt 0.653208 0.593377
vt 0.649993 0.608749
vt 0.652490 0.598693
vt 0.654099 0.613103
vt 0.652881 0.601956
vt 0.651882 0.599294
vt 0.649382 0.603780
vt 0.644585 0.615494
vt 0.647971 0.637000
vt 0.650972 0.610540
vt 0.650856 0.608299
vt 0.643526 0.624982
vt 0.643820 0.659808
vt 0.651433 0.624357
vt 0.648387 0.612574
vt 0.650045 0.614590
vt 0.649093 0.617780
vt 0.648768 0.626098
vt 0.644675 0.635046
vt 0.648257 0.624518
vt 0.649510 0.616919
vt 0.000000 0.000000
s 1
usemtl Material.002
f 5/1/1 11/2/2 10/3/3 4/4/4
f 3/5/5 9/6/6 8/7/7 2/8/8
f 6/9/9 12/10/10 11/2/2 5/1/1
f 4/4/4 10/3/3 9/6/6 3/5/5
f 2/8/8 8/7/7 7/11/11 1/12/12
f 1/12/12 7/11/11 12/10/10 6/9/9
f 12/10/10 18/13/13 17/14/14 11/2/2
f 10/3/3 16/15/15 15/16/16 9/6/6
f 8/7/7 14/17/17 13/18/18 7/11/11
f 7/11/11 13/18/18 18/13/13 12/10/10
f 11/2/2 17/14/14 16/15/15 10/3/3
f 9/6/6 15/16/16 14/17/17 8/7/7
f 13/18/18 19/19/19 24/20/20 18/13/13
f 17/14/14 23/21/21 22/22/22 16/15/15
f 15/16/16 21/23/23 20/24/24 14/17/17
f 18/13/13 24/20/20 23/21/21 17/14/14
f 16/15/15 22/22/22 21/23/23 15/16/16
f 14/17/17 20/24/24 19/19/19 13/18/18
f 24/20/20 30/25/25 29/26/26 23/21/21
f 22/22/22 28/27/27 27/28/28 21/23/23
f 20/24/24 26/29/29 25/30/30 19/19/19
f 19/19/19 25/30/30 30/25/25 24/20/20
f 23/21/21 29/26/26 28/27/27 22/22/22
f 21/23/23 27/28/28 26/29/29 20/24/24
f 25/30/30 31/31/31 36/32/32 30/25/25
f 29/26/26 35/33/33 34/34/34 28/27/27
f 27/28/28 33/35/35 32/36/36 26/29/29
f 30/25/25 36/32/32 35/33/33 29/26/26
f 28/27/27 34/34/34 33/35/35 27/28/28
f 26/29/29 32/36/36 31/31/31 25/30/30
f 36/32/32 42/37/37 41/38/38 35/33/33
f 34/34/34 40/39/39 39/40/40 33/35/35
f 32/36/36 38/41/41 37/42/42 31/31/31
f 31/31/31 37/42/42 42/37/37 36/32/32
f 35/33/33 41/38/38 40/39/39 34/34/34
f 33/35/35 39/40/40 38/41/41 32/36/36
f 41/38/38 47/43/43 46/44/44 40/39/39
f 39/40/40 45/45/45 44/46/46 38/41/41
f 42/37/37 48/47/47 47/43/43 41/38/38
f 40/39/39 46/44/44 45/45/45 39/40/40
f 38/41/41 44/46/46 43/48/48 37/42/42
f 37/42/42 43/48/48 48/47/47 42/37/37
f 46/44/44 52/49/49 51/50/50 45/45/45
f 44/46/46 50/51/51 49/52/52 43/48/48
f 43/48/48 49/52/52 54/53/53 48/47/47
f 47/43/43 53/54/54 52/49/49 46/44/44
f 45/45/45 51/50/50 50/51/51 44/46/46
f 48/47/47 54/53/53 53/54/54 47/43/43
f 4/67/4 3/67/5 2/67/8 1/67/12
f 5/67/1 4/67/4 1/67/12 6/67/9
usemtl Material.006
f 51/50/50 57/55/55 56/56/56 50/51/51
f 54/53/53 60/57/57 59/58/58 53/54/54
f 52/49/49 58/59/59 57/55/55 51/50/50
f 50/51/51 56/56/56 55/60/60 49/52/52
f 49/52/52 55/60/60 60/57/57 54/53/53
f 53/54/54 59/58/58 58/59/59 52/49/49
f 56/56/56 62/61/61 61/62/62 55/60/60
f 55/60/60 61/62/62 66/63/63 60/57/57
f 59/58/58 65/64/64 64/65/65 58/59/59
f 57/55/55 63/66/66 62/61/61 56/56/56
f 60/57/57 66/63/63 65/64/64 59/58/58
f 58/59/59 64/65/65 63/66/66 57/55/55
f 62/61/61 63/66/66 64/65/65 61/62/62
f 65/64/64 66/63/63 61/62/62 64/65/65
