# Blender 5.0.0
# www.blender.org
mtllib fungus red 3.mtl
o fungo.031
v -4.168878 0.584875 -3.700848
v -4.349266 0.584875 -3.846236
v -4.023490 0.584875 -3.881236
v -4.203878 0.584875 -4.026623
v -4.164945 0.431019 -3.664240
v -4.275410 0.619453 -3.753271
v -4.385874 0.431019 -3.842303
v -4.296843 0.619453 -3.952767
v -4.207811 0.431019 -4.063231
v -4.097347 0.619453 -3.974200
v -3.986882 0.431019 -3.885168
v -4.075914 0.619453 -3.774705
v -4.186378 0.697505 -3.863736
v -4.030158 0.431019 -3.737827
v -4.060469 0.431019 -4.019956
v -4.342598 0.431019 -3.989646
v -4.312287 0.431019 -3.707516
v -4.172060 0.405909 -3.730459
v -4.319654 0.405909 -3.849417
v -4.200696 0.405909 -3.997012
v -4.053102 0.405909 -3.878054
v -4.082013 0.405909 -3.779620
v -4.102262 0.405909 -3.968101
v -4.290743 0.405909 -3.947851
v -4.270494 0.405909 -3.759371
v -4.192079 0.373624 -3.774320
v -4.272543 0.373624 -3.839172
v -4.207691 0.373624 -3.919636
v -4.127226 0.373624 -3.854784
v -4.142988 0.373624 -3.801121
v -4.154027 0.373624 -3.903875
v -4.256781 0.373624 -3.892835
v -4.245742 0.373624 -3.790081
v -4.207836 0.240897 -3.754769
v -4.288300 0.240898 -3.819621
v -4.223448 0.240898 -3.900085
v -4.142983 0.240898 -3.835233
v -4.158745 0.240898 -3.781570
v -4.169785 0.240897 -3.884324
v -4.272539 0.240898 -3.873285
v -4.261499 0.240898 -3.770530
v -4.225844 0.075886 -3.732425
v -4.306309 0.075886 -3.797277
v -4.241457 0.075886 -3.877742
v -4.160992 0.075886 -3.812889
v -4.176754 0.075886 -3.759226
v -4.187793 0.075886 -3.861980
v -4.290547 0.075886 -3.850941
v -4.279508 0.075886 -3.748187
v -4.230148 -0.013794 -3.701246
v -4.335863 -0.013794 -3.786448
v -4.250659 -0.013794 -3.892163
v -4.144945 -0.013794 -3.806960
v -4.165652 -0.013794 -3.736456
v -4.180156 -0.013794 -3.871456
v -4.315155 -0.013794 -3.856952
v -4.300652 -0.013794 -3.721953
vn -0.5765 -0.3951 0.7153
vn -0.4753 0.6530 0.5897
vn -0.8669 0.4897 0.0931
vn -0.9127 -0.3967 0.0981
vn -0.7153 -0.3951 -0.5765
vn -0.5897 0.6530 -0.4753
vn -0.0931 0.4897 -0.8669
vn -0.0981 -0.3967 -0.9127
vn 0.5765 -0.3951 -0.7153
vn 0.4753 0.6530 -0.5897
vn 0.8669 0.4897 -0.0931
vn 0.9127 -0.3967 -0.0981
vn 0.7153 -0.3951 0.5765
vn 0.5897 0.6530 0.4753
vn 0.0931 0.4897 0.8669
vn 0.0981 -0.3967 0.9127
vn -0.0000 1.0000 -0.0000
vn 0.2308 -0.9331 -0.2759
vn -0.0333 -0.9292 -0.3679
vn 0.0582 -0.8977 0.4367
vn 0.3139 -0.9186 0.2401
vn -0.4391 -0.8977 0.0359
vn -0.2939 -0.8836 0.3646
vn -0.3013 -0.9186 -0.2557
vn 0.3661 -0.9296 -0.0417
vn 0.4461 -0.7033 -0.5535
vn -0.0817 -0.6715 -0.7365
vn 0.6298 -0.5754 0.5217
vn 0.7371 -0.6715 -0.0767
vn -0.8865 -0.4490 0.1122
vn -0.5779 -0.3899 0.7170
vn -0.6436 -0.5754 -0.5047
vn 0.0787 -0.4490 0.8901
vn -0.6114 0.1789 0.7708
vn 0.1077 0.1325 0.9853
vn -0.7778 0.0017 -0.6285
vn -0.9857 0.1325 0.1041
vn 0.6234 -0.1784 -0.7613
vn -0.1102 -0.1214 -0.9865
vn 0.7795 0.0007 0.6264
vn 0.9874 -0.1215 -0.1019
vn -0.1113 0.0253 -0.9935
vn -0.7750 0.1306 -0.6184
vn 0.9944 0.0253 -0.1022
vn 0.6274 -0.0194 -0.7784
vn 0.1017 0.2298 0.9679
vn 0.7689 0.1306 0.6259
vn -0.6045 0.2686 0.7500
vn -0.9674 0.2298 0.1062
vn -0.8574 -0.5032 0.1073
vn -0.5465 -0.4915 0.6781
vn -0.1038 -0.5651 -0.8184
vn -0.6723 -0.5331 -0.5137
vn 0.8218 -0.5652 -0.0724
vn 0.5116 -0.5790 -0.6348
vn 0.0772 -0.5032 0.8607
vn 0.6448 -0.5331 0.5478
vt 0.026318 0.664199
vt 0.026318 0.664199
vt 0.026318 0.664199
vt 0.026318 0.664199
vt 0.026318 0.664200
vt 0.026318 0.664199
vt 0.026318 0.664200
vt 0.026318 0.664200
vt 0.026319 0.664200
vt 0.026318 0.664200
vt 0.026319 0.664199
vt 0.026319 0.664200
vt 0.026319 0.664199
vt 0.026319 0.664199
vt 0.026319 0.664199
vt 0.026319 0.664199
vt 0.026318 0.664199
vt 0.026319 0.664200
vt 0.026318 0.664200
vt 0.026319 0.664198
vt 0.026320 0.664199
vt 0.026317 0.664199
vt 0.026318 0.664198
vt 0.026317 0.664200
vt 0.026319 0.664200
vt 0.026320 0.664203
vt 0.026318 0.664203
vt 0.026322 0.664198
vt 0.026322 0.664201
vt 0.026315 0.664198
vt 0.026317 0.664197
vt 0.026315 0.664201
vt 0.026320 0.664196
vt 0.026624 0.665113
vt 0.025943 0.665040
vt 0.027095 0.663971
vt 0.027128 0.664645
vt 0.026111 0.663565
vt 0.026640 0.663572
vt 0.025560 0.664473
vt 0.025688 0.663882
vt 0.022706 0.671433
vt 0.018241 0.666762
vt 0.033548 0.667814
vt 0.028804 0.671660
vt 0.030100 0.656220
vt 0.034317 0.661394
vt 0.023510 0.655783
vt 0.018506 0.660092
vt 0.003918 0.650412
vt 0.018154 0.639725
vt 0.012574 0.687091
vt 0.000375 0.669747
vt 0.051049 0.674262
vt 0.035032 0.690345
vt 0.035955 0.639725
vt 0.050398 0.653062
vt 0.000000 0.000000
s 1
usemtl Material.020
f 20/19/19 23/18/18 31/26/26 28/27/27
f 21/25/25 22/21/21 30/28/28 29/29/29
f 25/23/23 19/22/22 27/30/30 33/31/31
f 24/24/24 20/19/19 28/27/27 32/32/32
f 23/18/18 21/25/25 29/29/29 31/26/26
f 22/21/21 18/20/20 26/33/33 30/28/28
f 18/20/20 25/23/23 33/31/31 26/33/33
f 19/22/22 24/24/24 32/32/32 27/30/30
f 26/33/33 33/31/31 41/34/34 34/35/35
f 27/30/30 32/32/32 40/36/36 35/37/37
f 28/27/27 31/26/26 39/38/38 36/39/39
f 29/29/29 30/28/28 38/40/40 37/41/41
f 33/31/31 27/30/30 35/37/37 41/34/34
f 32/32/32 28/27/27 36/39/39 40/36/36
f 31/26/26 29/29/29 37/41/41 39/38/38
f 30/28/28 26/33/33 34/35/35 38/40/40
f 40/36/36 36/39/39 44/42/42 48/43/43
f 39/38/38 37/41/41 45/44/44 47/45/45
f 38/40/40 34/35/35 42/46/46 46/47/47
f 34/35/35 41/34/34 49/48/48 42/46/46
f 35/37/37 40/36/36 48/43/43 43/49/49
f 36/39/39 39/38/38 47/45/45 44/42/42
f 37/41/41 38/40/40 46/47/47 45/44/44
f 41/34/34 35/37/37 43/49/49 49/48/48
f 49/48/48 43/49/49 51/50/50 57/51/51
f 48/43/43 44/42/42 52/52/52 56/53/53
f 47/45/45 45/44/44 53/54/54 55/55/55
f 46/47/47 42/46/46 50/56/56 54/57/57
f 42/46/46 49/48/48 57/51/51 50/56/56
f 43/49/49 48/43/43 56/53/53 51/50/50
f 44/42/42 47/45/45 55/55/55 52/52/52
f 45/44/44 46/47/47 54/57/57 53/54/54
f 51/58/50 56/58/53 52/58/52 55/58/55
f 57/58/51 51/58/50 55/58/55 53/58/54
f 50/58/56 57/58/51 53/58/54 54/58/57
usemtl Material.019
f 17/1/1 6/2/2 2/3/3 7/4/4
f 16/5/5 8/6/6 4/7/7 9/8/8
f 15/9/9 10/10/10 3/11/11 11/12/12
f 14/13/13 12/14/14 1/15/15 5/16/16
f 13/17/17 6/2/2 1/15/15 12/14/14
f 10/10/10 13/17/17 12/14/14 3/11/11
f 4/7/7 8/6/6 13/17/17 10/10/10
f 8/6/6 2/3/3 6/2/2 13/17/17
f 11/12/12 3/11/11 12/14/14 14/13/13
f 9/8/8 4/7/7 10/10/10 15/9/9
f 7/4/4 2/3/3 8/6/6 16/5/5
f 5/16/16 1/15/15 6/2/2 17/1/1
f 9/8/8 15/9/9 23/18/18 20/19/19
f 14/13/13 5/16/16 18/20/20 22/21/21
f 17/1/1 7/4/4 19/22/22 25/23/23
f 7/4/4 16/5/5 24/24/24 19/22/22
f 15/9/9 11/12/12 21/25/25 23/18/18
f 11/12/12 14/13/13 22/21/21 21/25/25
f 5/16/16 17/1/1 25/23/23 18/20/20
f 16/5/5 9/8/8 20/19/19 24/24/24
o fungo.030
v -4.008687 0.809138 -4.039371
v -4.008687 0.809138 -4.345541
v -3.702517 0.809138 -4.039370
v -3.702517 0.809138 -4.345540
v -4.043092 0.605818 -4.004966
v -4.043092 0.854834 -4.192456
v -4.043092 0.605818 -4.379945
v -3.855602 0.854834 -4.379945
v -3.668112 0.605818 -4.379945
v -3.668112 0.854834 -4.192456
v -3.668112 0.605818 -4.004966
v -3.855602 0.854834 -4.004966
v -3.855602 0.957979 -4.192456
v -3.855602 0.605818 -3.927304
v -3.590451 0.605818 -4.192456
v -3.855602 0.605818 -4.457606
v -4.120753 0.605818 -4.192456
v -3.980857 0.572635 -4.067200
v -3.980857 0.572635 -4.317711
v -3.730346 0.572635 -4.317711
v -3.730346 0.572635 -4.067200
v -3.855602 0.572635 -4.015317
v -3.678464 0.572635 -4.192456
v -3.855602 0.572635 -4.369593
v -4.032740 0.572635 -4.192456
v -3.952330 0.529970 -4.124169
v -3.952330 0.529970 -4.260741
v -3.815759 0.529970 -4.260741
v -3.815759 0.529970 -4.124169
v -3.884045 0.529970 -4.095885
v -3.787474 0.529970 -4.192456
v -3.884045 0.529970 -4.289026
v -3.980615 0.529970 -4.192456
v -3.985514 0.354572 -4.124169
v -3.985514 0.354572 -4.260741
v -3.848943 0.354572 -4.260741
v -3.848943 0.354572 -4.124169
v -3.917228 0.354572 -4.095885
v -3.820657 0.354572 -4.192456
v -3.917228 0.354572 -4.289026
v -4.013798 0.354572 -4.192456
v -4.023438 0.136509 -4.124169
v -4.023438 0.136509 -4.260741
v -3.886866 0.136509 -4.260741
v -3.886866 0.136509 -4.124169
v -3.955152 0.136509 -4.095885
v -3.858582 0.136509 -4.192456
v -3.955152 0.136509 -4.289026
v -4.051723 0.136509 -4.192456
v -4.059088 0.017997 -4.102741
v -4.059088 0.017997 -4.282170
v -3.879659 0.017997 -4.282170
v -3.879659 0.017997 -4.102741
v -3.969374 0.017997 -4.065579
v -3.842498 0.017997 -4.192456
v -3.969373 0.017997 -4.319331
v -4.096249 0.017997 -4.192456
vn -0.9187 -0.3951 -0.0000
vn -0.7573 0.6530 -0.0000
vn -0.6165 0.4897 -0.6165
vn -0.6491 -0.3967 -0.6491
vn -0.0000 -0.3951 -0.9187
vn -0.0000 0.6530 -0.7573
vn 0.6165 0.4897 -0.6165
vn 0.6491 -0.3967 -0.6491
vn 0.9187 -0.3951 -0.0000
vn 0.7573 0.6530 -0.0000
vn 0.6165 0.4897 0.6165
vn 0.6491 -0.3967 0.6491
vn -0.0000 -0.3950 0.9187
vn -0.0000 0.6530 0.7573
vn -0.6165 0.4897 0.6165
vn -0.6491 -0.3967 0.6491
vn -0.0000 1.0000 -0.0000
vn 0.3597 -0.9331 0.0066
vn 0.2656 -0.9292 -0.2568
vn -0.3035 -0.8977 0.3193
vn 0.0100 -0.9186 0.3951
vn -0.3035 -0.8977 -0.3193
vn -0.4683 -0.8836 -0.0000
vn 0.0100 -0.9186 -0.3951
vn 0.2622 -0.9296 0.2589
vn 0.7109 -0.7033 -0.0000
vn 0.5222 -0.6715 -0.5258
vn -0.0110 -0.5754 0.8178
vn 0.5222 -0.6715 0.5258
vn -0.6437 -0.4489 -0.6198
vn -0.9209 -0.3899 -0.0000
vn -0.0110 -0.5754 -0.8178
vn -0.6437 -0.4490 0.6198
vn -0.9838 0.1789 0.0077
vn -0.6996 0.1325 0.7022
vn 0.0013 0.0017 -1.0000
vn -0.6996 0.1325 -0.7022
vn 0.9839 -0.1784 0.0077
vn 0.6989 -0.1214 -0.7048
vn 0.0015 0.0007 1.0000
vn 0.6989 -0.1215 0.7048
vn 0.7036 0.0253 -0.7101
vn -0.0048 0.1306 -0.9914
vn 0.7036 0.0253 0.7101
vn 0.9998 -0.0194 -0.0000
vn -0.6898 0.2298 0.6866
vn -0.0048 0.1306 0.9914
vn -0.9632 0.2686 -0.0000
vn -0.6898 0.2298 -0.6866
vn -0.6217 -0.5032 -0.6003
vn -0.8709 -0.4915 -0.0000
vn 0.5721 -0.5652 -0.5944
vn -0.0219 -0.5331 -0.8458
vn 0.5721 -0.5651 0.5944
vn 0.8153 -0.5790 -0.0000
vn -0.6217 -0.5032 0.6002
vn -0.0219 -0.5331 0.8458
vt 0.540281 0.751020
vt 0.540280 0.751020
vt 0.540280 0.751020
vt 0.540280 0.751019
vt 0.540280 0.751019
vt 0.540280 0.751020
vt 0.540280 0.751020
vt 0.540280 0.751020
vt 0.540280 0.751020
vt 0.540280 0.751020
vt 0.540280 0.751020
vt 0.540280 0.751021
vt 0.540280 0.751021
vt 0.540280 0.751020
vt 0.540280 0.751020
vt 0.540281 0.751020
vt 0.540280 0.751020
vt 0.540279 0.751020
vt 0.540279 0.751020
vt 0.540281 0.751021
vt 0.540280 0.751021
vt 0.540281 0.751018
vt 0.540282 0.751019
vt 0.540280 0.751019
vt 0.540280 0.751021
vt 0.540276 0.751021
vt 0.540277 0.751019
vt 0.540281 0.751024
vt 0.540278 0.751023
vt 0.540282 0.751016
vt 0.540284 0.751019
vt 0.540278 0.751016
vt 0.540284 0.751022
vt 0.539078 0.751421
vt 0.539178 0.750513
vt 0.540595 0.752037
vt 0.539704 0.752087
vt 0.541116 0.750741
vt 0.541112 0.751438
vt 0.539921 0.750018
vt 0.540694 0.750186
vt 0.530722 0.746253
vt 0.536890 0.740347
vt 0.535501 0.760572
vt 0.530424 0.754310
vt 0.550824 0.756019
vt 0.543980 0.761590
vt 0.551404 0.747307
vt 0.545708 0.740690
vt 0.558494 0.721403
vt 0.572632 0.740222
vt 0.510025 0.732879
vt 0.532929 0.716737
vt 0.526986 0.783697
vt 0.505744 0.762547
vt 0.572632 0.763759
vt 0.554994 0.782846
vt 0.000000 0.000000
s 1
usemtl Material.020
f 77/77/76 80/76/75 88/84/83 85/85/84
f 78/83/82 79/79/78 87/86/85 86/87/86
f 82/81/80 76/80/79 84/88/87 90/89/88
f 81/82/81 77/77/76 85/85/84 89/90/89
f 80/76/75 78/83/82 86/87/86 88/84/83
f 79/79/78 75/78/77 83/91/90 87/86/85
f 75/78/77 82/81/80 90/89/88 83/91/90
f 76/80/79 81/82/81 89/90/89 84/88/87
f 83/91/90 90/89/88 98/92/91 91/93/92
f 84/88/87 89/90/89 97/94/93 92/95/94
f 85/85/84 88/84/83 96/96/95 93/97/96
f 86/87/86 87/86/85 95/98/97 94/99/98
f 90/89/88 84/88/87 92/95/94 98/92/91
f 89/90/89 85/85/84 93/97/96 97/94/93
f 88/84/83 86/87/86 94/99/98 96/96/95
f 87/86/85 83/91/90 91/93/92 95/98/97
f 97/94/93 93/97/96 101/100/99 105/101/100
f 96/96/95 94/99/98 102/102/101 104/103/102
f 95/98/97 91/93/92 99/104/103 103/105/104
f 91/93/92 98/92/91 106/106/105 99/104/103
f 92/95/94 97/94/93 105/101/100 100/107/106
f 93/97/96 96/96/95 104/103/102 101/100/99
f 94/99/98 95/98/97 103/105/104 102/102/101
f 98/92/91 92/95/94 100/107/106 106/106/105
f 106/106/105 100/107/106 108/108/107 114/109/108
f 105/101/100 101/100/99 109/110/109 113/111/110
f 104/103/102 102/102/101 110/112/111 112/113/112
f 103/105/104 99/104/103 107/114/113 111/115/114
f 99/104/103 106/106/105 114/109/108 107/114/113
f 100/107/106 105/101/100 113/111/110 108/108/107
f 101/100/99 104/103/102 112/113/112 109/110/109
f 102/102/101 103/105/104 111/115/114 110/112/111
f 114/116/108 108/116/107 113/116/110 109/116/109
f 107/116/113 114/116/108 109/116/109 112/116/112
f 111/116/114 107/116/113 112/116/112 110/116/111
usemtl Material.019
f 74/59/58 63/60/59 59/61/60 64/62/61
f 73/63/62 65/64/63 61/65/64 66/66/65
f 72/67/66 67/68/67 60/69/68 68/70/69
f 71/71/70 69/72/71 58/73/72 62/74/73
f 70/75/74 63/60/59 58/73/72 69/72/71
f 67/68/67 70/75/74 69/72/71 60/69/68
f 61/65/64 65/64/63 70/75/74 67/68/67
f 65/64/63 59/61/60 63/60/59 70/75/74
f 68/70/69 60/69/68 69/72/71 71/71/70
f 66/66/65 61/65/64 67/68/67 72/67/66
f 64/62/61 59/61/60 65/64/63 73/63/62
f 62/74/73 58/73/72 63/60/59 74/59/58
f 66/66/65 72/67/66 80/76/75 77/77/76
f 71/71/70 62/74/73 75/78/77 79/79/78
f 74/59/58 64/62/61 76/80/79 82/81/80
f 64/62/61 73/63/62 81/82/81 76/80/79
f 72/67/66 68/70/69 78/83/82 80/76/75
f 68/70/69 71/71/70 79/79/78 78/83/82
f 62/74/73 74/59/58 82/81/80 75/78/77
f 73/63/62 66/66/65 77/77/76 81/82/81
o fungo.029
v -4.586045 1.417377 -3.848829
v -4.586045 1.417377 -4.536084
v -3.898790 1.417377 -3.848829
v -3.898790 1.417377 -4.536084
v -4.663273 1.198478 -3.771601
v -4.663273 1.466573 -4.192457
v -4.663273 1.198478 -4.613312
v -4.242417 1.466573 -4.613312
v -3.821561 1.198478 -4.613312
v -3.821562 1.466573 -4.192456
v -3.821561 1.198478 -3.771600
v -4.242417 1.466573 -3.771601
v -4.242417 1.577622 -4.192456
v -4.242417 1.198478 -3.597276
v -3.647237 1.198478 -4.192456
v -4.242417 1.198478 -4.787636
v -4.837597 1.198478 -4.192457
v -4.563315 1.198478 -3.871558
v -4.563315 1.198478 -4.513355
v -3.921519 1.198478 -4.513355
v -3.921519 1.198478 -3.871558
v -4.242417 1.198478 -3.738638
v -3.788599 1.198478 -4.192456
v -4.242417 1.198478 -4.646275
v -4.696236 1.198478 -4.192456
v -4.417259 1.302768 -4.017614
v -4.417259 1.302768 -4.367297
v -4.067576 1.302768 -4.367297
v -4.067576 1.302768 -4.017614
v -4.242417 1.302768 -3.945193
v -3.995154 1.302768 -4.192456
v -4.242417 1.302768 -4.439720
v -4.489681 1.302768 -4.192456
v -4.368317 1.108408 -4.076037
v -4.108876 1.042041 -4.192456
v -4.413883 1.042041 -4.192456
v -4.383437 0.695985 -4.084620
v -4.383437 0.695985 -4.300292
v -4.167765 0.695985 -4.300292
v -4.167765 0.695985 -4.084620
v -4.275601 0.695985 -4.039953
v -4.123097 0.695985 -4.192456
v -4.275601 0.695985 -4.344960
v -4.428104 0.695985 -4.192456
v -4.408514 0.354670 -4.073765
v -4.408514 0.354670 -4.311148
v -4.171131 0.354670 -4.311147
v -4.171131 0.354670 -4.073764
v -4.289822 0.354670 -4.024601
v -4.121968 0.354670 -4.192456
v -4.289822 0.354670 -4.360311
v -4.457677 0.354670 -4.192456
v -4.471673 -0.005608 -4.015346
v -4.471673 -0.005608 -4.369566
v -4.117453 -0.005608 -4.369566
v -4.117453 -0.005608 -4.015345
v -4.294563 -0.005608 -3.941985
v -4.044091 -0.005608 -4.192456
v -4.294563 -0.005608 -4.442928
v -4.545035 -0.005608 -4.192456
v -4.368317 1.108408 -4.308875
v -4.135480 1.108408 -4.308875
v -4.135480 1.108408 -4.076037
v -4.251898 1.108408 -4.027816
v -4.087258 1.108408 -4.192456
v -4.251898 1.108408 -4.357097
v -4.416539 1.108408 -4.192456
v -4.454199 0.985155 -4.009118
v -4.454200 0.985155 -4.375796
v -4.087522 0.985155 -4.375796
v -4.087521 0.985155 -4.009117
v -4.270860 0.985155 -3.933176
v -4.011580 0.985155 -4.192456
v -4.270861 0.985155 -4.451737
v -4.530141 0.985155 -4.192456
v -4.476264 0.880865 -3.982311
v -4.476264 0.880864 -4.402600
v -4.055975 0.880864 -4.402600
v -4.055976 0.880865 -3.982311
v -4.266120 0.880865 -3.895267
v -3.968931 0.880864 -4.192456
v -4.266120 0.880864 -4.489645
v -4.563309 0.880864 -4.192456
v -4.453017 0.880865 -4.005559
v -4.453017 0.880864 -4.379353
v -4.079223 0.880864 -4.379353
v -4.079223 0.880865 -4.005559
v -4.266120 0.880865 -3.928144
v -4.001808 0.880864 -4.192456
v -4.266120 0.880864 -4.456768
v -4.530432 0.880864 -4.192456
v -4.369215 1.042041 -4.084620
v -4.369216 1.042041 -4.300292
v -4.153543 1.042041 -4.300292
v -4.153543 1.042041 -4.084620
v -4.261379 1.042041 -4.039953
v -4.261379 1.042041 -4.344960
vn -0.9040 -0.4276 -0.0000
vn -0.6133 0.7898 -0.0000
vn -0.4995 0.7078 -0.4995
vn -0.6424 -0.4178 -0.6424
vn -0.0000 -0.4276 -0.9040
vn -0.0000 0.7898 -0.6133
vn 0.4995 0.7078 -0.4995
vn 0.6424 -0.4178 -0.6424
vn 0.9040 -0.4276 -0.0000
vn 0.6133 0.7898 -0.0000
vn 0.4995 0.7078 0.4995
vn 0.6424 -0.4178 0.6424
vn -0.0000 -0.4276 0.9040
vn -0.0000 0.7898 0.6133
vn -0.4995 0.7078 0.4995
vn -0.6424 -0.4178 0.6424
vn -0.0000 1.0000 -0.0000
vn -0.1756 -0.9845 -0.0000
vn -0.1242 -0.9845 0.1242
vn 0.1242 -0.9845 -0.1242
vn -0.0000 -0.9845 -0.1756
vn 0.1242 -0.9845 0.1242
vn 0.1756 -0.9845 -0.0000
vn -0.0000 -0.9845 0.1756
vn -0.1242 -0.9845 -0.1242
vn 0.1494 -0.9888 -0.0000
vn 0.1115 -0.9880 -0.1065
vn 0.0052 -0.9861 0.1659
vn 0.1115 -0.9880 0.1065
vn -0.1233 -0.9840 -0.1288
vn -0.1835 -0.9830 -0.0000
vn 0.0052 -0.9861 -0.1659
vn -0.1233 -0.9840 0.1288
vn -0.9754 0.2206 -0.0000
vn -0.6879 0.1983 0.6982
vn 0.0114 0.1429 -0.9897
vn -0.6879 0.1983 -0.6982
vn 0.9981 0.0616 -0.0000
vn 0.7107 0.0856 -0.6982
vn 0.0114 0.1429 0.9897
vn 0.7107 0.0856 0.6982
vn -0.0894 -0.9960 -0.0000
vn -0.0547 -0.9967 -0.0595
vn -0.7060 0.0519 -0.7063
vn -0.9979 0.0641 -0.0000
vn 0.0043 -0.9982 -0.0600
vn 0.0298 -0.9992 -0.0260
vn 0.7071 -0.0068 -0.7071
vn 0.0002 0.0226 -0.9997
vn 0.0310 -0.9995 -0.0000
vn 0.0298 -0.9992 0.0260
vn 0.7071 -0.0068 0.7071
vn 0.9998 -0.0190 -0.0000
vn 0.0043 -0.9982 0.0600
vn -0.0547 -0.9967 0.0595
vn -0.7060 0.0519 0.7063
vn 0.0002 0.0226 0.9997
vn -0.0031 0.1380 0.9904
vn 0.7005 0.1188 0.7037
vn -0.6999 0.1568 -0.6969
vn -0.9864 0.1645 -0.0000
vn 0.7005 0.1188 -0.7037
vn -0.0031 0.1380 -0.9904
vn 0.9939 0.1107 -0.0000
vn -0.6999 0.1568 0.6969
vn -0.8422 -0.5391 -0.0000
vn -0.5961 -0.5406 0.5937
vn -0.0024 -0.5440 -0.8391
vn -0.5961 -0.5405 -0.5937
vn 0.8359 -0.5489 -0.0000
vn 0.5905 -0.5474 -0.5930
vn -0.0024 -0.5440 0.8391
vn 0.5905 -0.5474 0.5930
vn 0.6228 0.4519 -0.6387
vn -0.0149 0.4665 -0.8844
vn 0.6228 0.4519 0.6387
vn 0.8958 0.4445 -0.0000
vn -0.6285 0.4771 0.6143
vn -0.0149 0.4665 0.8844
vn -0.8769 0.4806 -0.0000
vn -0.6285 0.4771 -0.6143
vn -0.6054 -0.5069 -0.6136
vn -0.8591 -0.5117 -0.0000
vn 0.6225 -0.4846 -0.6146
vn 0.0081 -0.4956 -0.8685
vn 0.6225 -0.4846 0.6146
vn 0.8772 -0.4801 -0.0000
vn -0.6054 -0.5069 0.6136
vn 0.0081 -0.4956 0.8685
vn 0.0018 -0.9316 0.3635
vn 0.2542 -0.9336 0.2525
vn -0.3712 -0.9285 -0.0000
vn -0.2600 -0.9295 0.2618
vn 0.0018 -0.9316 -0.3635
vn -0.2600 -0.9295 -0.2618
vn 0.3561 -0.9344 -0.0000
vn 0.2542 -0.9336 -0.2525
vt 0.078935 0.508017
vt 0.078935 0.508017
vt 0.078968 0.508006
vt 0.078947 0.507994
vt 0.078846 0.508229
vt 0.078719 0.508089
vt 0.078929 0.507998
vt 0.078922 0.508010
vt 0.079147 0.508107
vt 0.079026 0.508229
vt 0.078924 0.508021
vt 0.078928 0.508031
vt 0.079050 0.507818
vt 0.079153 0.507945
vt 0.078941 0.508036
vt 0.078959 0.508028
vt 0.078737 0.507902
vt 0.078880 0.507793
vt 0.082796 0.519414
vt 0.073621 0.518604
vt 0.084518 0.497170
vt 0.090644 0.504146
vt 0.068357 0.502683
vt 0.075241 0.496563
vt 0.067933 0.511654
vt 0.089883 0.513396
vt 0.144457 0.486338
vt 0.144457 0.536926
vt 0.060109 0.435495
vt 0.114281 0.445733
vt 0.000375 0.534012
vt 0.010447 0.469283
vt 0.107083 0.577457
vt 0.047067 0.579959
vt 0.000000 0.000000
vt 0.078935 0.508017
s 1
usemtl Material.020
f 134/117/133 137/117/132 145/117/140 142/117/141
f 135/117/139 136/117/135 144/117/142 143/117/143
f 139/117/137 133/117/136 141/117/144 147/117/145
f 138/117/138 134/117/133 142/117/141 146/117/146
f 137/117/132 135/117/139 143/117/143 145/117/140
f 136/117/135 132/117/134 140/117/147 144/117/142
f 132/117/134 139/117/137 147/117/145 140/117/147
f 133/117/136 138/117/138 146/117/146 141/117/144
f 140/117/147 147/117/145 181/117/148 148/117/149
f 141/117/144 146/117/146 180/118/150 175/118/151
f 142/117/141 145/117/140 179/117/152 176/117/153
f 143/117/143 144/117/142 178/117/154 177/117/155
f 147/117/145 141/117/144 175/118/151 181/117/148
f 146/117/146 142/117/141 176/117/153 180/118/150
f 145/117/140 143/117/143 177/117/155 179/117/152
f 144/117/142 140/117/147 148/117/149 178/117/154
f 150/119/156 207/120/157 152/121/158 158/122/159
f 211/123/160 208/124/161 153/125/162 157/126/163
f 149/127/164 209/128/165 154/129/166 156/130/167
f 210/131/168 206/132/169 151/133/170 155/134/171
f 206/132/169 150/119/156 158/122/159 151/133/170
f 207/120/157 211/123/160 157/126/163 152/121/158
f 208/124/161 149/127/164 156/130/167 153/125/162
f 209/128/165 210/131/168 155/134/171 154/129/166
f 154/129/166 155/134/171 163/135/172 162/136/173
f 158/122/159 152/121/158 160/137/174 166/138/175
f 157/126/163 153/125/162 161/139/176 165/140/177
f 156/130/167 154/129/166 162/136/173 164/141/178
f 155/134/171 151/133/170 159/142/179 163/135/172
f 151/133/170 158/122/159 166/138/175 159/142/179
f 152/121/158 157/126/163 165/140/177 160/137/174
f 153/125/162 156/130/167 164/141/178 161/139/176
f 159/142/179 166/138/175 174/143/180 167/144/181
f 160/137/174 165/140/177 173/145/182 168/146/183
f 161/139/176 164/141/178 172/147/184 169/148/185
f 162/136/173 163/135/172 171/149/186 170/150/187
f 166/138/175 160/137/174 168/146/183 174/143/180
f 165/140/177 161/139/176 169/148/185 173/145/182
f 164/141/178 162/136/173 170/150/187 172/147/184
f 163/135/172 159/142/179 167/144/181 171/149/186
f 167/151/181 174/151/180 168/151/183 173/151/182
f 171/151/186 167/151/181 173/151/182 169/151/185
f 170/151/187 171/151/186 169/151/185 172/151/184
f 180/118/150 176/117/153 184/118/188 188/118/189
f 179/117/152 177/117/155 185/117/190 187/117/191
f 178/117/154 148/117/149 182/117/192 186/117/193
f 148/117/149 181/117/148 189/117/194 182/117/192
f 175/118/151 180/118/150 188/118/189 183/118/195
f 176/117/153 179/117/152 187/117/191 184/118/188
f 177/117/155 178/117/154 186/117/193 185/117/190
f 181/117/148 175/118/151 183/118/195 189/117/194
f 189/117/194 183/118/195 191/118/196 197/117/197
f 188/118/189 184/118/188 192/118/198 196/118/199
f 187/117/191 185/117/190 193/117/200 195/117/201
f 186/117/193 182/117/192 190/117/202 194/117/203
f 182/117/192 189/117/194 197/117/197 190/117/202
f 183/118/195 188/118/189 196/118/199 191/118/196
f 184/118/188 187/117/191 195/117/201 192/118/198
f 185/117/190 186/117/193 194/117/203 193/117/200
f 191/118/196 196/118/199 204/118/204 199/152/205
f 192/118/198 195/117/201 203/117/206 200/118/207
f 193/117/200 194/117/203 202/117/208 201/117/209
f 197/117/197 191/118/196 199/152/205 205/118/210
f 196/118/199 192/118/198 200/118/207 204/118/204
f 195/117/201 193/117/200 201/117/209 203/117/206
f 194/117/203 190/117/202 198/117/211 202/117/208
f 190/117/202 197/117/197 205/118/210 198/117/211
f 202/117/208 198/117/211 206/132/169 210/131/168
f 198/117/211 205/118/210 150/119/156 206/132/169
f 199/152/205 204/118/204 211/123/160 207/120/157
f 200/118/207 203/117/206 149/127/164 208/124/161
f 201/117/209 202/117/208 210/131/168 209/128/165
f 205/118/210 199/152/205 207/120/157 150/119/156
f 204/118/204 200/118/207 208/124/161 211/123/160
f 203/117/206 201/117/209 209/128/165 149/127/164
usemtl Material.019
f 131/117/115 120/117/116 116/117/117 121/117/118
f 130/117/119 122/117/120 118/117/121 123/117/122
f 129/117/123 124/117/124 117/117/125 125/117/126
f 128/117/127 126/117/128 115/117/129 119/117/130
f 127/117/131 120/117/116 115/117/129 126/117/128
f 124/117/124 127/117/131 126/117/128 117/117/125
f 118/117/121 122/117/120 127/117/131 124/117/124
f 122/117/120 116/117/117 120/117/116 127/117/131
f 125/117/126 117/117/125 126/117/128 128/117/127
f 123/117/122 118/117/121 124/117/124 129/117/123
f 121/117/118 116/117/117 122/117/120 130/117/119
f 119/117/130 115/117/129 120/117/116 131/117/115
f 123/117/122 129/117/123 137/117/132 134/117/133
f 128/117/127 119/117/130 132/117/134 136/117/135
f 131/117/115 121/117/118 133/117/136 139/117/137
f 121/117/118 130/117/119 138/117/138 133/117/136
f 129/117/123 125/117/126 135/117/139 137/117/132
f 125/117/126 128/117/127 136/117/135 135/117/139
f 119/117/130 131/117/115 139/117/137 132/117/134
f 130/117/119 123/117/122 134/117/133 138/117/138
