# Blender 5.0.0
# www.blender.org
mtllib fungus pinkpink small.mtl
o fungo.017
v -2.053361 0.016988 -0.572242
v -2.131768 -0.007008 -0.635524
v -2.190501 -0.031005 -0.553655
v -2.112095 -0.007008 -0.490372
v -2.160592 0.148041 -0.557709
v -2.211488 0.096115 -0.618388
v -2.244396 0.044189 -0.546350
v -2.193500 0.096115 -0.485671
v -2.344751 0.220766 -0.532749
v -2.372380 0.178630 -0.576728
v -2.387306 0.136494 -0.526981
v -2.359677 0.178630 -0.483002
v -2.460505 0.278292 -0.517060
v -2.501226 0.246142 -0.559265
v -2.529243 0.213993 -0.507744
v -2.488523 0.246142 -0.465539
v -2.520816 0.425641 -0.508886
v -2.573082 0.416173 -0.549527
v -2.612645 0.406705 -0.496440
v -2.560379 0.416173 -0.455800
v -2.529127 0.506189 -0.507759
v -2.571826 0.506189 -0.540266
v -2.604333 0.506189 -0.497567
v -2.561634 0.506189 -0.465060
v -2.459066 0.538695 -0.517255
v -2.584136 0.538695 -0.612469
v -2.679350 0.538695 -0.487399
v -2.554280 0.538695 -0.392185
v -2.377608 0.586204 -0.528296
v -2.592362 0.586204 -0.691785
v -2.755852 0.586204 -0.477030
v -2.541097 0.586204 -0.313541
v -2.265095 0.691223 -0.543545
v -2.621680 0.691223 -0.815009
v -2.893144 0.691223 -0.458423
v -2.536558 0.691223 -0.186960
v -2.349786 0.703725 -0.532067
v -2.610201 0.703725 -0.730317
v -2.808453 0.703725 -0.469901
v -2.548036 0.703725 -0.271651
v -2.455735 0.648715 -0.517707
v -2.587401 0.648715 -0.617942
v -2.687636 0.648715 -0.486276
v -2.555970 0.648715 -0.386041
vn 0.9829 -0.1273 -0.1332
vn 0.5812 0.8100 -0.0788
vn 0.1415 0.1183 0.9828
vn 0.3954 -0.4734 0.7871
vn -0.4606 -0.8854 0.0624
vn -0.6868 -0.7208 0.0931
vn -0.1252 0.1183 -0.9850
vn 0.1716 -0.4734 -0.8640
vn 0.4010 0.9145 -0.0543
vn 0.0833 0.0263 0.9962
vn -0.5006 -0.8630 0.0679
vn -0.1849 0.0263 -0.9824
vn 0.0222 -0.1002 0.9947
vn -0.7284 -0.6780 0.0987
vn -0.2434 -0.1002 -0.9647
vn 0.7252 0.6815 -0.0983
vn -0.2252 0.0272 -0.9739
vn 0.9589 0.2521 -0.1300
vn 0.0422 0.0272 0.9987
vn -0.9777 -0.1627 0.1325
vn 0.7454 -0.6589 -0.1010
vn 0.1090 -0.6693 0.7349
vn -0.7291 -0.6772 0.0988
vn -0.0906 -0.6693 -0.7374
vn 0.0532 -0.8760 0.4794
vn -0.4831 -0.8731 0.0655
vn -0.0763 -0.8760 -0.4763
vn 0.4727 -0.8789 -0.0641
vn 0.6199 -0.7801 -0.0840
vn 0.1135 -0.7968 0.5934
vn -0.5749 -0.8145 0.0779
vn -0.0485 -0.7968 -0.6022
vn -0.9738 0.1853 0.1320
vn -0.1498 0.2020 -0.9679
vn 0.1133 0.2020 0.9728
vn 0.9663 0.2218 -0.1310
vn 0.0013 1.0000 -0.0047
vn -0.0016 1.0000 0.0002
vn 0.0025 1.0000 0.0041
vn -0.0114 0.9999 0.0015
vn -0.3352 0.9411 0.0454
vn -0.0651 0.9466 -0.3159
vn 0.3020 0.9524 -0.0409
vn 0.0213 0.9466 0.3218
vt 0.401225 0.200601
vt 0.455305 0.221026
vt 0.457800 0.223188
vt 0.432058 0.227766
vt 0.455789 0.221209
vt 0.462972 0.223922
vt 0.458606 0.221053
vt 0.442318 0.200601
vt 0.504302 0.239532
vt 0.504542 0.239746
vt 0.505002 0.239796
vt 0.504624 0.239529
vt 0.546437 0.256802
vt 0.546185 0.255350
vt 0.547334 0.254428
vt 0.547554 0.255867
vt 0.615922 0.280740
vt 0.613849 0.280906
vt 0.615295 0.282402
vt 0.617326 0.282220
vt 0.636425 0.289433
vt 0.638925 0.289907
vt 0.642605 0.291767
vt 0.638614 0.290731
vt 0.651207 0.293056
vt 0.662659 0.299342
vt 0.649911 0.296487
vt 0.647274 0.293531
vt 0.652715 0.295586
vt 0.658347 0.294369
vt 0.687022 0.308543
vt 0.656136 0.300222
vt 0.721861 0.321702
vt 0.657739 0.303755
vt 0.661885 0.292778
vt 0.657577 0.297422
vt 0.667067 0.300221
vt 0.702732 0.314642
vt 0.666437 0.301408
vt 0.662825 0.299385
vt 0.668393 0.301493
vt 0.672021 0.303992
vt 0.685160 0.307895
vt 0.672716 0.301986
vt 0.000000 0.000000
s 1
usemtl Material.022
f 1/1/1 5/2/2 8/3/3 4/4/4
f 3/5/5 7/6/6 6/7/7 2/8/8
f 4/4/4 8/3/3 7/6/6 3/5/5
f 2/8/8 6/7/7 5/2/2 1/1/1
f 5/2/2 9/9/9 12/10/10 8/3/3
f 7/6/6 11/11/11 10/12/12 6/7/7
f 8/3/3 12/10/10 11/11/11 7/6/6
f 6/7/7 10/12/12 9/9/9 5/2/2
f 12/10/10 16/13/13 15/14/14 11/11/11
f 10/12/12 14/15/15 13/16/16 9/9/9
f 9/9/9 13/16/16 16/13/13 12/10/10
f 11/11/11 15/14/14 14/15/15 10/12/12
f 14/15/15 18/17/17 17/18/18 13/16/16
f 13/16/16 17/18/18 20/19/19 16/13/13
f 15/14/14 19/20/20 18/17/17 14/15/15
f 16/13/13 20/19/19 19/20/20 15/14/14
f 17/18/18 21/21/21 24/22/22 20/19/19
f 19/20/20 23/23/23 22/24/24 18/17/17
f 20/19/19 24/22/22 23/23/23 19/20/20
f 18/17/17 22/24/24 21/21/21 17/18/18
f 24/22/22 28/25/25 27/26/26 23/23/23
f 22/24/24 26/27/27 25/28/28 21/21/21
f 21/21/21 25/28/28 28/25/25 24/22/22
f 23/23/23 27/26/26 26/27/27 22/24/24
f 25/28/28 29/29/29 32/30/30 28/25/25
f 27/26/26 31/31/31 30/32/32 26/27/27
f 28/25/25 32/30/30 31/31/31 27/26/26
f 26/27/27 30/32/32 29/29/29 25/28/28
f 31/31/31 35/33/33 34/34/34 30/32/32
f 32/30/30 36/35/35 35/33/33 31/31/31
f 30/32/32 34/34/34 33/36/36 29/29/29
f 29/29/29 33/36/36 36/35/35 32/30/30
f 36/35/35 40/37/37 39/38/38 35/33/33
f 34/34/34 38/39/39 37/40/40 33/36/36
f 33/36/36 37/40/40 40/37/37 36/35/35
f 35/33/33 39/38/38 38/39/39 34/34/34
f 37/40/40 41/41/41 44/42/42 40/37/37
f 39/38/38 43/43/43 42/44/44 38/39/39
f 40/37/37 44/42/42 43/43/43 39/38/38
f 38/39/39 42/44/44 41/41/41 37/40/40
f 42/44/44 43/43/43 44/42/42 41/41/41
f 4/45/4 3/45/5 2/45/8 1/45/1
