# Blender 5.0.0
# www.blender.org
mtllib fungus pinkpink.mtl
o fungo.004
v -4.395258 1.347849 2.976825
v -4.395258 1.347849 2.547722
v -3.966154 1.347849 2.547722
v -3.966154 1.347849 2.976825
v -4.180706 1.347849 2.484576
v -4.438165 1.347849 2.762273
v -4.180706 1.347849 3.039971
v -3.923247 1.347849 2.762273
v -4.180706 1.432792 2.762273
v -4.506239 1.220436 2.436740
v -4.180706 1.220436 2.340930
v -3.855173 1.220436 2.436740
v -4.506239 1.220436 3.087807
v -4.571342 1.220436 2.762273
v -4.180706 1.220436 3.183617
v -3.855173 1.220436 3.087807
v -3.790071 1.220436 2.762274
v -4.651968 1.139355 2.291011
v -4.180706 1.139355 2.152310
v -3.709443 1.139355 2.291011
v -4.651968 1.139354 3.233536
v -4.746214 1.139355 2.762273
v -4.180706 1.139354 3.372236
v -3.709444 1.139355 3.233536
v -3.615198 1.139355 2.762274
v -4.695017 1.031246 2.247962
v -4.180706 1.031246 2.096591
v -3.666395 1.031246 2.247962
v -4.695017 1.031246 3.276584
v -4.797873 1.031246 2.762273
v -4.180706 1.031246 3.427955
v -3.666395 1.031246 3.276585
v -3.563540 1.031246 2.762274
v -4.619727 1.031246 2.323252
v -4.180706 1.031246 2.194041
v -3.741685 1.031246 2.323253
v -4.619727 1.031246 3.201294
v -4.707525 1.031246 2.762273
v -4.180706 1.031246 3.330505
v -3.741685 1.031246 3.201294
v -3.653887 1.031246 2.762273
v -4.410341 1.149565 2.532638
v -4.180706 1.149565 2.465053
v -3.951071 1.149565 2.532638
v -4.456265 1.149565 2.762273
v -4.410341 1.149565 2.991908
v -4.180706 1.149565 3.059494
v -3.951071 1.149565 2.991909
v -3.905147 1.149565 2.762273
v -4.293334 1.107093 2.649646
v -4.180706 1.107093 2.616498
v -4.068079 1.107093 2.649646
v -4.315857 1.107093 2.762273
v -4.293334 1.107093 2.874901
v -4.180706 1.107093 2.908049
v -4.068079 1.107093 2.874901
v -4.045555 1.107093 2.762273
v -4.180706 0.937209 2.657426
v -4.261712 0.937209 2.681267
v -4.099700 0.937209 2.681267
v -4.277912 0.937209 2.762273
v -4.261712 0.937209 2.843279
v -4.180706 0.937209 2.867121
v -4.099700 0.937209 2.843279
v -4.083500 0.937209 2.762273
v -4.331210 0.755741 2.681267
v -4.250205 0.755741 2.657426
v -4.169199 0.755741 2.681267
v -4.347410 0.755741 2.762273
v -4.331210 0.755741 2.843279
v -4.250204 0.755741 2.867121
v -4.169198 0.755741 2.843279
v -4.152998 0.755741 2.762273
v -4.318515 0.424968 2.668019
v -4.224261 0.424968 2.640279
v -4.130007 0.424968 2.668019
v -4.337365 0.424968 2.762273
v -4.318515 0.424968 2.856527
v -4.224261 0.424968 2.884268
v -4.130007 0.424968 2.856527
v -4.111157 0.424968 2.762273
v -4.375812 0.184996 2.591265
v -4.204804 0.184996 2.540934
v -4.033795 0.184996 2.591265
v -4.410012 0.184996 2.762273
v -4.375812 0.184996 2.933281
v -4.204804 0.184996 2.983612
v -4.033795 0.184996 2.933281
v -3.999596 0.184996 2.762273
v -4.464591 0.048795 2.502486
v -4.204804 0.048795 2.426027
v -3.945017 0.048795 2.502487
v -4.516544 0.048795 2.762273
v -4.464591 0.048795 3.022059
v -4.204804 0.048795 3.098519
v -3.945018 0.048795 3.022060
v -3.893064 0.048795 2.762273
v -4.204804 0.042310 2.762273
vn -0.9192 -0.3939 -0.0000
vn -0.6955 -0.3147 -0.6459
vn -0.0000 -0.3647 -0.9311
vn -0.0000 -1.0000 -0.0000
vn -0.0000 0.8773 0.4799
vn 0.3824 0.8590 0.3404
vn 0.4922 0.8705 -0.0000
vn -0.0000 1.0000 -0.0000
vn -0.3824 0.8590 0.3404
vn -0.4922 0.8705 -0.0000
vn 0.3824 0.8590 -0.3404
vn -0.0000 0.8773 -0.4799
vn -0.3824 0.8590 -0.3404
vn -0.0000 0.8573 -0.5149
vn -0.3449 0.8860 -0.3098
vn 0.3449 0.8860 -0.3098
vn -0.5492 0.8357 -0.0000
vn -0.3449 0.8860 0.3098
vn -0.0000 0.8573 0.5149
vn 0.3449 0.8860 0.3098
vn 0.5492 0.8357 -0.0000
vn -0.0000 0.7021 -0.7121
vn -0.5284 0.7015 -0.4782
vn 0.5284 0.7015 -0.4782
vn -0.7232 0.6906 -0.0000
vn -0.5284 0.7015 0.4782
vn -0.0000 0.7021 0.7121
vn 0.5284 0.7015 0.4782
vn 0.7232 0.6906 -0.0000
vn -0.0000 -0.4621 -0.8868
vn -0.6690 -0.4110 -0.6193
vn 0.6690 -0.4110 -0.6193
vn -0.8714 -0.4905 -0.0000
vn -0.6690 -0.4110 0.6193
vn -0.0000 -0.4621 0.8868
vn 0.6690 -0.4110 0.6193
vn 0.8714 -0.4905 -0.0000
vn -0.0000 -0.9858 0.1682
vn 0.0912 -0.9922 0.0850
vn -0.0912 -0.9922 0.0850
vn 0.1919 -0.9814 -0.0000
vn 0.0912 -0.9922 -0.0850
vn -0.0000 -0.9858 -0.1682
vn -0.0912 -0.9922 -0.0850
vn -0.1919 -0.9814 -0.0000
vn -0.0000 -0.9916 0.1293
vn 0.1297 -0.9856 0.1088
vn -0.1297 -0.9856 0.1088
vn 0.1176 -0.9931 -0.0000
vn 0.1297 -0.9856 -0.1088
vn -0.0000 -0.9916 -0.1293
vn -0.1297 -0.9856 -0.1088
vn -0.1176 -0.9931 -0.0000
vn -0.0000 -0.7427 -0.6697
vn -0.4410 -0.8040 -0.3988
vn 0.4410 -0.8040 -0.3988
vn -0.7007 -0.7135 -0.0000
vn -0.4410 -0.8040 0.3988
vn -0.0000 -0.7427 0.6697
vn 0.4410 -0.8040 0.3988
vn 0.7007 -0.7135 -0.0000
vn 0.0322 -0.1329 -0.9906
vn -0.7075 -0.0024 -0.7067
vn 0.7325 -0.2696 -0.6252
vn -0.9971 0.0757 -0.0000
vn -0.7075 -0.0024 0.7067
vn 0.0322 -0.1329 0.9906
vn 0.7325 -0.2696 0.6252
vn 0.9582 -0.2861 -0.0000
vn -0.0397 0.0380 -0.9985
vn -0.7587 0.1378 -0.6367
vn 0.6976 -0.0743 -0.7126
vn -0.9866 0.1630 -0.0000
vn -0.7587 0.1378 0.6367
vn -0.0397 0.0380 0.9985
vn 0.6976 -0.0743 0.7126
vn 0.9924 -0.1234 -0.0000
vn -0.0006 0.2272 -0.9739
vn -0.7270 0.1968 -0.6578
vn 0.7025 0.3072 -0.6420
vn -0.9910 0.1341 -0.0000
vn -0.7270 0.1968 0.6578
vn -0.0006 0.2272 0.9739
vn 0.7025 0.3072 0.6420
vn 0.9594 0.2821 -0.0000
vn 0.0052 0.5328 -0.8462
vn -0.6106 0.5602 -0.5598
vn 0.6001 0.5938 -0.5360
vn -0.8824 0.4704 -0.0000
vn -0.6106 0.5602 0.5598
vn 0.0052 0.5328 0.8462
vn 0.6001 0.5938 0.5360
vn 0.8488 0.5287 -0.0000
vn 0.6955 -0.3147 -0.6459
vn -0.6955 -0.3147 0.6459
vn -0.0000 -0.3647 0.9311
vn 0.6955 -0.3147 0.6459
vn 0.9192 -0.3939 -0.0000
vt 0.762726 0.929077
vt 0.597375 0.893189
vt 0.551249 0.726501
vt 0.765970 0.730000
vt 0.797358 0.247603
vt 0.780378 0.305035
vt 0.722704 0.316241
vt 0.723467 0.246790
vt 0.781645 0.189811
vt 0.724231 0.177340
vt 0.665289 0.303769
vt 0.649576 0.245978
vt 0.666556 0.188546
vt 0.592740 0.245353
vt 0.625534 0.146345
vt 0.623349 0.345058
vt 0.724831 0.122785
vt 0.823585 0.148523
vt 0.854194 0.248228
vt 0.821400 0.347236
vt 0.722104 0.370796
vt 0.528731 0.244649
vt 0.576360 0.096900
vt 0.573100 0.393410
vt 0.725503 0.061616
vt 0.873834 0.100171
vt 0.918203 0.248932
vt 0.870574 0.396681
vt 0.721431 0.431964
vt 0.482523 0.244141
vt 0.545884 0.064994
vt 0.541930 0.424638
vt 0.726002 0.016279
vt 0.905005 0.068943
vt 0.964411 0.249440
vt 0.901050 0.428587
vt 0.720933 0.477301
vt 0.075426 0.920754
vt 0.020365 0.721797
vt 0.057883 0.722406
vt 0.104884 0.892238
vt 0.081860 0.524733
vt 0.110376 0.554191
vt 0.471447 0.927188
vt 0.272793 0.963570
vt 0.273359 0.928787
vt 0.442931 0.897730
vt 0.532942 0.730124
vt 0.495424 0.729515
vt 0.477881 0.531167
vt 0.448424 0.559683
vt 0.280514 0.488350
vt 0.279949 0.523134
vt 0.120095 0.864929
vt 0.081126 0.716043
vt 0.178014 0.719838
vt 0.196777 0.793897
vt 0.131579 0.570910
vt 0.202495 0.647593
vt 0.413654 0.875845
vt 0.265785 0.902926
vt 0.269184 0.812002
vt 0.342636 0.799300
vt 0.463741 0.730754
vt 0.366965 0.727061
vt 0.424793 0.582258
vt 0.348221 0.653156
vt 0.279469 0.544180
vt 0.275965 0.635017
vt 0.224956 0.721697
vt 0.237015 0.756891
vt 0.239831 0.687647
vt 0.270775 0.768779
vt 0.305283 0.759296
vt 0.320002 0.725238
vt 0.308015 0.690117
vt 0.274345 0.678231
vt 0.260545 0.723317
vt 0.262727 0.732129
vt 0.263931 0.714731
vt 0.271830 0.733923
vt 0.281272 0.732297
vt 0.284171 0.723621
vt 0.282345 0.714822
vt 0.273391 0.713058
vt 0.461267 0.290009
vt 0.445939 0.313882
vt 0.402687 0.259316
vt 0.423056 0.236011
vt 0.433927 0.337675
vt 0.381761 0.286170
vt 0.359903 0.416977
vt 0.347079 0.443043
vt 0.286422 0.417696
vt 0.298387 0.391902
vt 0.338016 0.469823
vt 0.276672 0.444140
vt 0.379637 0.396670
vt 0.316120 0.366629
vt 0.400169 0.379756
vt 0.338104 0.339923
vt 0.417761 0.359290
vt 0.359670 0.312702
vt 0.310168 0.167355
vt 0.343173 0.150537
vt 0.276020 0.189028
vt 0.172628 0.372989
vt 0.181364 0.332444
vt 0.167334 0.408024
vt 0.197743 0.291992
vt 0.218253 0.252615
vt 0.246127 0.218606
vt 0.273322 0.076127
vt 0.330610 0.068540
vt 0.214493 0.097655
vt 0.077031 0.372771
vt 0.075157 0.309250
vt 0.086282 0.432678
vt 0.093983 0.244586
vt 0.122727 0.184989
vt 0.167018 0.139286
vt 0.261781 0.020515
vt 0.344421 0.013514
vt 0.184821 0.043651
vt 0.020090 0.380389
vt 0.011625 0.299926
vt 0.035574 0.464936
vt 0.039150 0.223303
vt 0.070774 0.149986
vt 0.128838 0.098583
vt 0.602783 0.561404
vt 0.769215 0.530923
vt 0.980692 0.733500
vt 0.929158 0.898596
vt 0.934565 0.566811
s 1
usemtl Material.022
f 7/5/5 4/6/6 8/7/7 9/8/8
f 1/9/9 7/5/5 9/8/8 6/10/10
f 9/8/8 8/7/7 3/11/11 5/12/12
f 6/10/10 9/8/8 5/12/12 2/13/13
f 2/13/13 5/12/12 11/14/14 10/15/15
f 5/12/12 3/11/11 12/16/16 11/14/14
f 1/9/9 6/10/10 14/17/17 13/18/18
f 6/10/10 2/13/13 10/15/15 14/17/17
f 7/5/5 1/9/9 13/18/18 15/19/19
f 4/6/6 7/5/5 15/19/19 16/20/20
f 3/11/11 8/7/7 17/21/21 12/16/16
f 8/7/7 4/6/6 16/20/20 17/21/21
f 10/15/15 11/14/14 19/22/22 18/23/23
f 11/14/14 12/16/16 20/24/24 19/22/22
f 13/18/18 14/17/17 22/25/25 21/26/26
f 14/17/17 10/15/15 18/23/23 22/25/25
f 15/19/19 13/18/18 21/26/26 23/27/27
f 16/20/20 15/19/19 23/27/27 24/28/28
f 12/16/16 17/21/21 25/29/29 20/24/24
f 17/21/21 16/20/20 24/28/28 25/29/29
f 18/23/23 19/22/22 27/30/30 26/31/31
f 19/22/22 20/24/24 28/32/32 27/30/30
f 21/26/26 22/25/25 30/33/33 29/34/34
f 22/25/25 18/23/23 26/31/31 30/33/33
f 23/27/27 21/26/26 29/34/34 31/35/35
f 24/28/28 23/27/27 31/35/35 32/36/36
f 20/24/24 25/29/29 33/37/37 28/32/32
f 25/29/29 24/28/28 32/36/36 33/37/37
usemtl Material.015
f 26/38/31 27/39/30 35/40/38 34/41/39
f 27/39/30 28/42/32 36/43/40 35/40/38
f 29/44/34 30/45/33 38/46/41 37/47/42
f 30/45/33 26/38/31 34/41/39 38/46/41
f 31/48/35 29/44/34 37/47/42 39/49/43
f 32/50/36 31/48/35 39/49/43 40/51/44
f 28/42/32 33/52/37 41/53/45 36/43/40
f 33/52/37 32/50/36 40/51/44 41/53/45
f 34/54/39 35/55/38 43/56/46 42/57/47
f 35/55/38 36/58/40 44/59/48 43/56/46
f 37/60/42 38/61/41 45/62/49 46/63/50
f 38/61/41 34/54/39 42/57/47 45/62/49
f 39/64/43 37/60/42 46/63/50 47/65/51
f 40/66/44 39/64/43 47/65/51 48/67/52
f 36/58/40 41/68/45 49/69/53 44/59/48
f 41/68/45 40/66/44 48/67/52 49/69/53
f 42/57/47 43/56/46 51/70/54 50/71/55
f 43/56/46 44/59/48 52/72/56 51/70/54
f 46/63/50 45/62/49 53/73/57 54/74/58
f 45/62/49 42/57/47 50/71/55 53/73/57
f 47/65/51 46/63/50 54/74/58 55/75/59
f 48/67/52 47/65/51 55/75/59 56/76/60
f 44/59/48 49/69/53 57/77/61 52/72/56
f 49/69/53 48/67/52 56/76/60 57/77/61
usemtl Material.020
f 93/1/1 90/2/2 91/3/3 98/4/4
f 50/71/55 51/70/54 58/78/62 59/79/63
f 51/70/54 52/72/56 60/80/64 58/78/62
f 54/74/58 53/73/57 61/81/65 62/82/66
f 53/73/57 50/71/55 59/79/63 61/81/65
f 55/75/59 54/74/58 62/82/66 63/83/67
f 56/76/60 55/75/59 63/83/67 64/84/68
f 52/72/56 57/77/61 65/85/69 60/80/64
f 57/77/61 56/76/60 64/84/68 65/85/69
f 59/86/63 58/87/62 67/88/70 66/89/71
f 58/87/62 60/90/64 68/91/72 67/88/70
f 62/92/66 61/93/65 69/94/73 70/95/74
f 61/93/65 59/96/63 66/97/71 69/94/73
f 63/98/67 62/92/66 70/95/74 71/99/75
f 64/100/68 63/98/67 71/99/75 72/101/76
f 60/90/64 65/102/69 73/103/77 68/91/72
f 65/102/69 64/100/68 72/101/76 73/103/77
f 66/89/71 67/88/70 75/104/78 74/105/79
f 67/88/70 68/91/72 76/106/80 75/104/78
f 70/95/74 69/94/73 77/107/81 78/108/82
f 69/94/73 66/97/71 74/109/79 77/107/81
f 71/99/75 70/95/74 78/108/82 79/110/83
f 72/101/76 71/99/75 79/110/83 80/111/84
f 68/91/72 73/103/77 81/112/85 76/106/80
f 73/103/77 72/101/76 80/111/84 81/112/85
f 74/105/79 75/104/78 83/113/86 82/114/87
f 75/104/78 76/106/80 84/115/88 83/113/86
f 78/108/82 77/107/81 85/116/89 86/117/90
f 77/107/81 74/109/79 82/118/87 85/116/89
f 79/110/83 78/108/82 86/117/90 87/119/91
f 80/111/84 79/110/83 87/119/91 88/120/92
f 76/106/80 81/112/85 89/121/93 84/115/88
f 81/112/85 80/111/84 88/120/92 89/121/93
f 82/114/87 83/113/86 91/122/3 90/123/2
f 83/113/86 84/115/88 92/124/94 91/122/3
f 86/117/90 85/116/89 93/125/1 94/126/95
f 85/116/89 82/118/87 90/127/2 93/125/1
f 87/119/91 86/117/90 94/126/95 95/128/96
f 88/120/92 87/119/91 95/128/96 96/129/97
f 84/115/88 89/121/93 97/130/98 92/124/94
f 89/121/93 88/120/92 96/129/97 97/130/98
f 92/131/94 97/132/98 98/4/4 91/3/3
f 95/133/96 94/134/95 93/1/1 98/4/4
f 97/132/98 96/135/97 95/133/96 98/4/4
