# Blender 5.0.0
# www.blender.org
mtllib fungus yellow.mtl
o fungo.003
v -7.194679 0.742621 3.325874
v -7.406031 0.742621 2.815624
v -7.194679 0.742621 2.305374
v -6.684429 0.742621 2.094022
v -6.174179 0.742622 2.305375
v -5.962827 0.742621 2.815624
v -6.174179 0.742621 3.325874
v -6.684429 0.742621 3.537226
v -6.820649 1.012739 2.951844
v -6.877073 1.012739 2.815624
v -6.820649 1.012739 2.679405
v -6.684429 1.012739 2.622981
v -6.548210 1.012739 2.679405
v -6.491785 1.012739 2.815624
v -6.548210 1.012739 2.951844
v -6.684429 1.012739 3.008268
v -6.684429 1.060009 2.815624
v -7.089826 0.668339 3.221021
v -7.257746 0.668339 2.815624
v -7.089826 0.668339 2.410228
v -6.684429 0.668339 2.242307
v -6.279032 0.668339 2.410228
v -6.111112 0.668339 2.815624
v -6.279032 0.668339 3.221021
v -6.684429 0.668339 3.388941
v -6.827071 0.938456 2.815624
v -6.785292 0.938456 2.916488
v -6.785292 0.938456 2.714761
v -6.684429 0.938456 2.672982
v -6.583566 0.938456 2.714761
v -6.541787 0.938456 2.815624
v -6.583566 0.938456 2.916488
v -6.684429 0.938456 2.958266
v -6.908494 0.531720 2.815624
v -6.870162 0.498454 2.938156
v -6.870162 0.498454 2.693093
v -6.777619 0.418143 2.642338
v -6.685077 0.337831 2.693093
v -6.646745 0.304565 2.815624
v -6.685077 0.337831 2.938156
v -6.777619 0.418143 2.988910
v -7.099796 -0.008985 2.815624
v -7.025904 -0.006709 2.994101
v -7.025904 -0.006709 2.637148
v -6.847512 -0.001214 2.563221
v -6.669121 0.004280 2.637148
v -6.595228 0.006556 2.815624
v -6.669121 0.004280 2.994100
v -6.847512 -0.001214 3.068028
v -6.847512 -0.001214 2.815624
vn 0.0183 -0.5591 0.8289
vn -0.6061 -0.5287 0.5942
vn -0.8580 -0.5136 -0.0000
vn 0.0308 -0.9995 -0.0000
vn -1.0000 -0.0032 -0.0000
vn -0.7071 -0.0032 0.7071
vn -0.2642 0.9276 0.2642
vn -0.3736 0.9276 -0.0000
vn -0.2642 0.9276 -0.2642
vn -0.7071 -0.0032 -0.7071
vn -0.0000 -0.0032 -1.0000
vn -0.0000 0.9276 -0.3736
vn 0.2642 0.9276 -0.2642
vn 0.7071 -0.0032 -0.7071
vn 1.0000 -0.0032 -0.0000
vn 0.3736 0.9276 -0.0000
vn 0.2642 0.9276 0.2642
vn 0.7071 -0.0032 0.7071
vn -0.0000 0.9276 0.3736
vn -0.0000 -0.0032 1.0000
vn -0.0000 1.0000 -0.0000
vn -0.0741 -0.9972 -0.0000
vn -0.0524 -0.9972 0.0524
vn -0.0524 -0.9972 -0.0524
vn -0.0000 -0.9972 -0.0741
vn 0.0524 -0.9972 -0.0524
vn 0.0741 -0.9972 -0.0000
vn 0.0524 -0.9972 0.0524
vn -0.0000 -0.9972 0.0741
vn -0.3808 -0.9247 -0.0000
vn -0.2423 -0.9349 0.2595
vn -0.2423 -0.9349 -0.2595
vn 0.0587 -0.9545 -0.2923
vn 0.2075 -0.9694 -0.1314
vn 0.2208 -0.9753 -0.0000
vn 0.2075 -0.9694 0.1314
vn 0.0587 -0.9545 0.2923
vn -0.9652 0.2615 -0.0000
vn -0.6863 0.2250 0.6916
vn -0.6863 0.2250 -0.6916
vn 0.0336 0.1174 -0.9925
vn 0.7377 0.0294 -0.6745
vn 0.9999 0.0130 -0.0000
vn 0.7377 0.0294 0.6745
vn 0.0336 0.1174 0.9925
vn -0.6061 -0.5287 -0.5942
vn 0.0183 -0.5591 -0.8289
vn 0.6116 -0.5669 -0.5519
vn 0.8286 -0.5598 -0.0000
vn 0.6116 -0.5669 0.5519
vt 0.786544 0.918324
vt 0.738803 0.966065
vt 0.671287 0.966065
vt 0.705045 0.884566
vt 0.329122 0.000568
vt 0.466303 0.135271
vt 0.289795 0.210034
vt 0.256143 0.177602
vt 0.209608 0.176592
vt 0.136349 0.000000
vt 0.000782 0.136890
vt 0.177351 0.210075
vt 0.176298 0.256467
vt 0.000000 0.329852
vt 0.137455 0.465372
vt 0.209714 0.288518
vt 0.255649 0.289469
vt 0.331846 0.465372
vt 0.289068 0.257054
vt 0.467727 0.327609
vt 0.232948 0.233228
vt 0.329261 0.930760
vt 0.137818 0.928974
vt 0.159871 0.876191
vt 0.308009 0.877044
vt 0.002041 0.794124
vt 0.054990 0.771214
vt 0.000000 0.602167
vt 0.053818 0.623363
vt 0.135435 0.465372
vt 0.158226 0.518796
vt 0.329043 0.465372
vt 0.306523 0.519715
vt 0.466254 0.602338
vt 0.412305 0.624157
vt 0.465969 0.795257
vt 0.412673 0.772450
vt 0.916492 0.128892
vt 0.914759 0.289516
vt 0.763256 0.223472
vt 0.762756 0.188888
vt 0.802097 0.401210
vt 0.739378 0.248668
vt 0.643354 0.401210
vt 0.704876 0.248748
vt 0.527743 0.289699
vt 0.679553 0.225002
vt 0.526675 0.128592
vt 0.680279 0.190522
vt 0.639602 0.012780
vt 0.703468 0.165126
vt 0.801340 0.013457
vt 0.738122 0.165532
vt 0.730574 0.765172
vt 0.695409 0.762155
vt 0.695408 0.618670
vt 0.742754 0.611082
vt 0.660243 0.765172
vt 0.648062 0.611082
vt 0.625827 0.773865
vt 0.604061 0.593203
vt 0.591831 0.784901
vt 0.559381 0.579782
vt 0.557492 0.793949
vt 0.514969 0.585030
vt 0.798987 0.784901
vt 0.831436 0.579780
vt 0.875848 0.585027
vt 0.833326 0.793949
vt 0.764990 0.773865
vt 0.786755 0.593202
vt 0.695406 0.422319
vt 0.756017 0.429589
vt 0.634796 0.429590
vt 0.577110 0.448449
vt 0.521830 0.472330
vt 0.466254 0.500512
vt 0.868984 0.472327
vt 0.924561 0.500508
vt 0.813703 0.448446
vt 0.623546 0.918324
vt 0.623546 0.850808
vt 0.671287 0.803068
vt 0.738803 0.803068
vt 0.786544 0.850808
s 1
usemtl Material.025
f 2/5/5 1/6/6 9/7/7 10/8/8
f 2/5/5 10/8/8 11/9/9 3/10/10
f 4/11/11 3/10/10 11/9/9 12/12/12
f 4/11/11 12/12/12 13/13/13 5/14/14
f 6/15/15 5/14/14 13/13/13 14/16/16
f 6/15/15 14/16/16 15/17/17 7/18/18
f 7/18/18 15/17/17 16/19/19 8/20/20
f 1/6/6 8/20/20 16/19/19 9/7/7
f 10/8/8 9/7/7 17/21/21
f 10/8/8 17/21/21 11/9/9
f 12/12/12 11/9/9 17/21/21
f 12/12/12 17/21/21 13/13/13
f 14/16/16 13/13/13 17/21/21
f 14/16/16 17/21/21 15/17/17
f 15/17/17 17/21/21 16/19/19
f 9/7/7 16/19/19 17/21/21
f 1/22/6 2/23/5 19/24/22 18/25/23
f 3/26/10 20/27/24 19/24/22 2/23/5
f 3/26/10 4/28/11 21/29/25 20/27/24
f 5/30/14 22/31/26 21/29/25 4/28/11
f 5/30/14 6/32/15 23/33/27 22/31/26
f 7/34/18 24/35/28 23/33/27 6/32/15
f 8/36/20 25/37/29 24/35/28 7/34/18
f 8/36/20 1/22/6 18/25/23 25/37/29
usemtl Material.026
f 49/1/1 43/2/2 42/3/3 50/4/4
f 18/38/23 19/39/22 26/40/30 27/41/31
f 20/42/24 28/43/32 26/40/30 19/39/22
f 20/42/24 21/44/25 29/45/33 28/43/32
f 22/46/26 30/47/34 29/45/33 21/44/25
f 22/46/26 23/48/27 31/49/35 30/47/34
f 24/50/28 32/51/36 31/49/35 23/48/27
f 25/52/29 33/53/37 32/51/36 24/50/28
f 25/52/29 18/38/23 27/41/31 33/53/37
f 27/54/31 26/55/30 34/56/38 35/57/39
f 28/58/32 36/59/40 34/56/38 26/55/30
f 28/58/32 29/60/33 37/61/41 36/59/40
f 30/62/34 38/63/42 37/61/41 29/60/33
f 30/62/34 31/64/35 39/65/43 38/63/42
f 32/66/36 40/67/44 39/68/43 31/69/35
f 33/70/37 41/71/45 40/67/44 32/66/36
f 33/70/37 27/54/31 35/57/39 41/71/45
f 35/57/39 34/56/38 42/72/3 43/73/2
f 36/59/40 44/74/46 42/72/3 34/56/38
f 36/59/40 37/61/41 45/75/47 44/74/46
f 38/63/42 46/76/48 45/75/47 37/61/41
f 38/63/42 39/65/43 47/77/49 46/76/48
f 40/67/44 48/78/50 47/79/49 39/68/43
f 41/71/45 49/80/1 48/78/50 40/67/44
f 41/71/45 35/57/39 43/73/2 49/80/1
f 44/81/46 45/82/47 50/4/4 42/3/3
f 46/83/48 47/84/49 50/4/4 45/82/47
f 49/1/1 50/4/4 47/84/49 48/85/50
