# Blender 5.0.0
# www.blender.org
mtllib fungus pink tiny.mtl
o fungo.047
v 6.259686 -0.044186 -4.187937
v 6.217161 -0.044186 -4.157040
v 6.233404 -0.044186 -4.107049
v 6.285967 -0.044186 -4.107049
v 6.302210 -0.044186 -4.157040
v 6.259686 0.232745 -4.152506
v 6.250856 0.232745 -4.146092
v 6.254229 0.232745 -4.135713
v 6.265143 0.232745 -4.135713
v 6.268515 0.232745 -4.146092
v 6.300368 0.090267 -4.148533
v 6.284854 0.085130 -4.160405
v 6.275267 0.081956 -4.129322
v 6.294443 0.088305 -4.129322
v 6.269342 0.079994 -4.148533
v 6.259686 0.222084 -4.217640
v 6.188910 0.222084 -4.166219
v 6.215945 0.222084 -4.083017
v 6.303426 0.222084 -4.083017
v 6.330461 0.222084 -4.166219
v 6.259686 0.234684 -4.259335
v 6.149257 0.234684 -4.179104
v 6.191437 0.234684 -4.049286
v 6.327935 0.234684 -4.049286
v 6.370115 0.234684 -4.179104
v 6.259686 0.232677 -4.305315
v 6.105526 0.232677 -4.193312
v 6.164410 0.232677 -4.012088
v 6.354962 0.232677 -4.012088
v 6.413846 0.232677 -4.193312
v 6.259686 0.252126 -4.292375
v 6.117835 0.252126 -4.189313
v 6.172017 0.252126 -4.022557
v 6.347354 0.252126 -4.022557
v 6.401537 0.252126 -4.189313
v 6.259686 0.288736 -4.189209
v 6.215950 0.288736 -4.157434
v 6.232656 0.288736 -4.106019
v 6.286716 0.288736 -4.106019
v 6.303421 0.288736 -4.157434
v 6.259686 0.300176 -4.143223
vn 0.0599 0.1150 -0.9916
vn -0.0404 -0.9118 -0.4087
vn 0.4443 -0.8813 -0.1609
vn 0.9487 0.1262 -0.2899
vn 0.6216 0.1126 0.7752
vn 0.2322 -0.8939 0.3835
vn -0.2432 -0.9269 0.2860
vn -0.5422 0.1467 0.8273
vn -0.9303 0.1786 -0.3205
vn -0.3405 -0.9349 -0.1000
vn -0.5636 -0.4684 0.6804
vn -0.8598 -0.4417 -0.2562
vn 0.7673 -0.5829 -0.2675
vn 0.4482 -0.5557 0.7002
vn -0.0657 -0.5119 -0.8565
vn 0.1462 -0.9881 -0.0475
vn 0.0903 -0.9881 0.1243
vn -0.0903 -0.9881 0.1244
vn -0.1462 -0.9881 -0.0475
vn -0.0000 -0.9881 -0.1537
vn 0.0549 -0.9983 -0.0178
vn 0.0339 -0.9983 0.0467
vn -0.0339 -0.9983 0.0467
vn -0.0549 -0.9983 -0.0178
vn -0.0000 -0.9983 -0.0577
vn -0.0000 -0.3882 -0.9216
vn 0.8765 -0.3882 -0.2848
vn 0.5417 -0.3882 0.7456
vn -0.5417 -0.3882 0.7456
vn -0.8765 -0.3882 -0.2848
vn 0.6474 0.7326 -0.2103
vn 0.4001 0.7326 0.5507
vn -0.4001 0.7326 0.5507
vn -0.6474 0.7326 -0.2103
vn -0.0000 0.7326 -0.6807
vn -0.0000 0.9521 -0.3058
vn 0.2908 0.9521 -0.0945
vn 0.1797 0.9521 0.2474
vn -0.1797 0.9521 0.2474
vn -0.2908 0.9521 -0.0945
vn -0.0000 1.0000 -0.0000
vt 0.742871 0.675896
vt 0.743052 0.675927
vt 0.743053 0.675929
vt 0.743039 0.675849
vt 0.743172 0.675887
vt 0.743053 0.675930
vt 0.743055 0.675929
vt 0.743234 0.676121
vt 0.742880 0.676262
vt 0.743052 0.675925
vt 0.756200 0.686741
vt 0.737908 0.692382
vt 0.738060 0.661042
vt 0.756200 0.667330
vt 0.726693 0.676840
vt 0.743053 0.675929
vt 0.743054 0.675930
vt 0.743055 0.675929
vt 0.743054 0.675930
vt 0.743052 0.675929
vt 0.743054 0.675930
vt 0.743054 0.675931
vt 0.743054 0.675930
vt 0.743054 0.675930
vt 0.743054 0.675930
vt 0.743054 0.675931
vt 0.743054 0.675931
vt 0.743054 0.675931
vt 0.743054 0.675931
vt 0.743054 0.675931
vt 0.743054 0.675931
vt 0.743054 0.675931
vt 0.743054 0.675931
vt 0.743054 0.675931
vt 0.743054 0.675931
vt 0.743054 0.675932
vt 0.743054 0.675932
vt 0.743055 0.675932
vt 0.743055 0.675932
vt 0.743055 0.675932
vt 0.000000 0.000000
s 1
usemtl Material.006
f 12/1/1 6/2/2 10/3/3 11/4/4
f 14/5/5 9/6/6 8/7/7 13/8/8
f 15/9/9 7/10/10 6/2/2 12/1/1
f 11/4/4 10/3/3 9/6/6 14/5/5
f 13/8/8 8/7/7 7/10/10 15/9/9
f 3/11/11 13/8/8 15/9/9 2/12/12
f 5/13/13 11/4/4 14/5/5 4/14/14
f 2/12/12 15/9/9 12/1/1 1/15/15
f 4/14/14 14/5/5 13/8/8 3/11/11
f 1/15/15 12/1/1 11/4/4 5/13/13
f 10/3/3 20/16/16 19/17/17 9/6/6
f 8/7/7 18/18/18 17/19/19 7/10/10
f 6/2/2 16/20/20 20/16/16 10/3/3
f 9/6/6 19/17/17 18/18/18 8/7/7
f 7/10/10 17/19/19 16/20/20 6/2/2
f 20/16/16 25/21/21 24/22/22 19/17/17
f 18/18/18 23/23/23 22/24/24 17/19/19
f 16/20/20 21/25/25 25/21/21 20/16/16
f 19/17/17 24/22/22 23/23/23 18/18/18
f 17/19/19 22/24/24 21/25/25 16/20/20
f 21/25/25 26/26/26 30/27/27 25/21/21
f 24/22/22 29/28/28 28/29/29 23/23/23
f 22/24/24 27/30/30 26/26/26 21/25/25
f 25/21/21 30/27/27 29/28/28 24/22/22
f 23/23/23 28/29/29 27/30/30 22/24/24
f 30/27/27 35/31/31 34/32/32 29/28/28
f 28/29/29 33/33/33 32/34/34 27/30/30
f 26/26/26 31/35/35 35/31/31 30/27/27
f 29/28/28 34/32/32 33/33/33 28/29/29
f 27/30/30 32/34/34 31/35/35 26/26/26
f 31/35/35 36/36/36 40/37/37 35/31/31
f 34/32/32 39/37/38 38/38/39 33/33/33
f 32/34/34 37/39/40 36/36/36 31/35/35
f 35/31/31 40/37/37 39/37/38 34/32/32
f 33/33/33 38/38/39 37/39/40 32/34/34
f 37/39/40 41/40/41 36/36/36
f 40/37/37 41/40/41 39/37/38
f 38/38/39 41/40/41 37/39/40
f 36/36/36 41/40/41 40/37/37
f 39/37/38 41/40/41 38/38/39
f 1/41/15 4/41/14 3/41/11 2/41/12
f 1/41/15 5/41/13 4/41/14
