# Blender 5.0.0
# www.blender.org
mtllib fungus yelloworange.mtl
o fungo.023
v -6.824941 -0.027055 -4.277184
v -6.904309 -0.027055 -4.231362
v -6.904309 -0.027055 -4.139716
v -6.824941 -0.027055 -4.093893
v -6.745573 -0.027055 -4.139716
v -6.745573 -0.027055 -4.231362
v -6.834946 0.062995 -4.253998
v -6.894234 0.062995 -4.219769
v -6.894234 0.062995 -4.151309
v -6.834946 0.062995 -4.117080
v -6.775659 0.062995 -4.151309
v -6.775659 0.062995 -4.219769
v -6.839949 0.218082 -4.253998
v -6.899237 0.218082 -4.219769
v -6.899237 0.218082 -4.151309
v -6.839949 0.218082 -4.117080
v -6.780661 0.218082 -4.151309
v -6.780661 0.218082 -4.219769
v -6.847453 0.480729 -4.264070
v -6.915462 0.480729 -4.224804
v -6.915462 0.480729 -4.146274
v -6.847453 0.480729 -4.107009
v -6.779444 0.480729 -4.146274
v -6.779444 0.480729 -4.224804
v -6.847453 0.645821 -4.277210
v -6.926842 0.645821 -4.231375
v -6.926842 0.645821 -4.139703
v -6.847453 0.645821 -4.093868
v -6.768064 0.645821 -4.139703
v -6.768064 0.645821 -4.231375
v -6.847453 0.635815 -4.372706
v -7.009544 0.635815 -4.279123
v -7.009545 0.635815 -4.091956
v -6.847453 0.635815 -3.998372
v -6.685362 0.635815 -4.091956
v -6.685362 0.635815 -4.279123
v -6.847453 0.613303 -4.701045
v -7.293894 0.613303 -4.443291
v -7.293894 0.613303 -3.927787
v -6.847453 0.613303 -3.670034
v -6.401012 0.613303 -3.927786
v -6.401012 0.613303 -4.443291
v -6.847453 0.618305 -4.760017
v -7.344965 0.618306 -4.472778
v -7.344965 0.618306 -3.898301
v -6.847453 0.618306 -3.611062
v -6.349941 0.618306 -3.898301
v -6.349941 0.618306 -4.472777
v -6.847453 0.720863 -4.716923
v -7.307645 0.720863 -4.451231
v -7.307645 0.720863 -3.919847
v -6.847453 0.720863 -3.654156
v -6.387261 0.720863 -3.919847
v -6.387261 0.720863 -4.451231
v -6.849955 0.898722 -4.382418
v -7.020457 0.898722 -4.283979
v -7.020457 0.898722 -4.087100
v -6.849955 0.898722 -3.988660
v -6.679452 0.898722 -4.087099
v -6.679452 0.898722 -4.283979
v -6.852456 0.931240 -4.239104
v -6.898844 0.931240 -4.212322
v -6.898845 0.931240 -4.158757
v -6.852456 0.931240 -4.131975
v -6.806067 0.931240 -4.158757
v -6.806067 0.931240 -4.212322
vn 0.7660 -0.4799 0.4276
vn 0.8461 0.1920 0.4973
vn -0.0147 0.1289 0.9915
vn 0.0262 -0.5128 0.8581
vn -0.7169 -0.5490 0.4296
vn -0.8675 0.0675 0.4928
vn -0.8675 0.0675 -0.4928
vn -0.7169 -0.5490 -0.4296
vn 0.7660 -0.4799 -0.4276
vn 0.8461 0.1920 -0.4973
vn -0.0147 0.1289 -0.9915
vn 0.0262 -0.5128 -0.8581
vn 0.8658 0.0072 -0.5003
vn 0.8658 0.0072 0.5003
vn -0.0004 -0.0193 0.9998
vn -0.8652 -0.0457 0.4994
vn -0.8652 -0.0457 -0.4994
vn -0.0004 -0.0193 -0.9998
vn -0.0044 -0.0594 -0.9982
vn 0.8640 -0.0470 -0.5014
vn 0.8640 -0.0470 0.5014
vn -0.0044 -0.0594 0.9982
vn -0.8649 -0.0714 0.4969
vn -0.8649 -0.0714 -0.4969
vn 0.3914 -0.8920 -0.2260
vn 0.3914 -0.8920 0.2260
vn -0.0000 -0.8920 0.4520
vn -0.3914 -0.8920 0.2260
vn -0.3914 -0.8920 -0.2260
vn -0.0000 -0.8920 -0.4520
vn -0.0000 -0.9968 0.0804
vn -0.0696 -0.9968 0.0402
vn -0.0696 -0.9968 -0.0402
vn -0.0000 -0.9968 -0.0804
vn 0.0696 -0.9968 -0.0402
vn 0.0696 -0.9968 0.0402
vn 0.0291 -0.9994 -0.0168
vn 0.0291 -0.9994 0.0168
vn -0.0000 -0.9994 0.0335
vn -0.0291 -0.9994 0.0168
vn -0.0291 -0.9994 -0.0168
vn -0.0000 -0.9994 -0.0335
vn 0.7823 -0.4289 0.4517
vn -0.0000 -0.4289 0.9033
vn -0.7823 -0.4289 0.4517
vn -0.7823 -0.4289 -0.4517
vn 0.7823 -0.4289 -0.4517
vn -0.0000 -0.4289 -0.9033
vn 0.0003 0.6246 0.7810
vn -0.6768 0.6238 0.3909
vn -0.6768 0.6238 -0.3909
vn 0.0003 0.6246 -0.7810
vn 0.6759 0.6254 -0.3900
vn 0.6759 0.6254 0.3900
vn -0.3366 0.9215 0.1938
vn -0.3366 0.9215 -0.1938
vn 0.3316 0.9237 -0.1919
vn 0.3316 0.9237 0.1919
vn -0.0008 0.9226 0.3858
vn -0.0008 0.9226 -0.3858
vn -0.1301 0.9887 -0.0742
vn -0.0015 0.9890 -0.1476
vn 0.1257 0.9894 -0.0734
vn 0.1257 0.9894 0.0734
vn -0.0015 0.9890 0.1476
vn -0.1301 0.9887 0.0742
vt 0.155502 0.692676
vt 0.155496 0.692659
vt 0.155508 0.692650
vt 0.155519 0.692650
vt 0.155504 0.692625
vt 0.155498 0.692639
vt 0.155473 0.692639
vt 0.155468 0.692624
vt 0.155467 0.692676
vt 0.155474 0.692659
vt 0.155463 0.692649
vt 0.155450 0.692649
vt 0.155430 0.692680
vt 0.155537 0.692684
vt 0.155597 0.692652
vt 0.155547 0.692611
vt 0.155425 0.692604
vt 0.155375 0.692656
vt 0.153868 0.692789
vt 0.154596 0.693198
vt 0.156185 0.692967
vt 0.157180 0.692496
vt 0.156347 0.692150
vt 0.154742 0.692243
vt 0.150962 0.694918
vt 0.158348 0.692355
vt 0.164305 0.691712
vt 0.160010 0.690630
vt 0.151825 0.692038
vt 0.147233 0.694141
vt 0.136600 0.697225
vt 0.146557 0.696788
vt 0.161650 0.691516
vt 0.177889 0.690046
vt 0.163651 0.687993
vt 0.146338 0.692222
vt 0.141632 0.691062
vt 0.166866 0.684181
vt 0.216896 0.675768
vt 0.170126 0.694405
vt 0.144525 0.700075
vt 0.092055 0.708429
vt 0.170208 0.695898
vt 0.247322 0.667878
vt 0.167095 0.682290
vt 0.141207 0.688571
vt 0.144360 0.703184
vt 0.061908 0.716098
vt 0.215063 0.676507
vt 0.166320 0.675488
vt 0.138513 0.683065
vt 0.094595 0.707281
vt 0.144825 0.710078
vt 0.172702 0.701537
vt 0.161551 0.687342
vt 0.147186 0.690044
vt 0.147861 0.695393
vt 0.163929 0.692157
vt 0.175572 0.690410
vt 0.136571 0.700192
vt 0.152569 0.692918
vt 0.149592 0.695340
vt 0.151271 0.693257
vt 0.158743 0.690035
vt 0.161568 0.692597
vt 0.157755 0.692811
vt 0.000000 0.000000
s 1
usemtl Material.016
f 5/1/1 11/2/2 10/3/3 4/4/4
f 3/5/5 9/6/6 8/7/7 2/8/8
f 6/9/9 12/10/10 11/2/2 5/1/1
f 4/4/4 10/3/3 9/6/6 3/5/5
f 2/8/8 8/7/7 7/11/11 1/12/12
f 1/12/12 7/11/11 12/10/10 6/9/9
f 12/10/10 18/13/13 17/14/14 11/2/2
f 10/3/3 16/15/15 15/16/16 9/6/6
f 8/7/7 14/17/17 13/18/18 7/11/11
f 7/11/11 13/18/18 18/13/13 12/10/10
f 11/2/2 17/14/14 16/15/15 10/3/3
f 9/6/6 15/16/16 14/17/17 8/7/7
f 13/18/18 19/19/19 24/20/20 18/13/13
f 17/14/14 23/21/21 22/22/22 16/15/15
f 15/16/16 21/23/23 20/24/24 14/17/17
f 18/13/13 24/20/20 23/21/21 17/14/14
f 16/15/15 22/22/22 21/23/23 15/16/16
f 14/17/17 20/24/24 19/19/19 13/18/18
f 24/20/20 30/25/25 29/26/26 23/21/21
f 22/22/22 28/27/27 27/28/28 21/23/23
f 20/24/24 26/29/29 25/30/30 19/19/19
f 19/19/19 25/30/30 30/25/25 24/20/20
f 23/21/21 29/26/26 28/27/27 22/22/22
f 21/23/23 27/28/28 26/29/29 20/24/24
f 25/30/30 31/31/31 36/32/32 30/25/25
f 29/26/26 35/33/33 34/34/34 28/27/27
f 27/28/28 33/35/35 32/36/36 26/29/29
f 30/25/25 36/32/32 35/33/33 29/26/26
f 28/27/27 34/34/34 33/35/35 27/28/28
f 26/29/29 32/36/36 31/31/31 25/30/30
f 36/32/32 42/37/37 41/38/38 35/33/33
f 34/34/34 40/39/39 39/40/40 33/35/35
f 32/36/36 38/41/41 37/42/42 31/31/31
f 31/31/31 37/42/42 42/37/37 36/32/32
f 35/33/33 41/38/38 40/39/39 34/34/34
f 33/35/35 39/40/40 38/41/41 32/36/36
f 41/38/38 47/43/43 46/44/44 40/39/39
f 39/40/40 45/45/45 44/46/46 38/41/41
f 42/37/37 48/47/47 47/43/43 41/38/38
f 40/39/39 46/44/44 45/45/45 39/40/40
f 38/41/41 44/46/46 43/48/48 37/42/42
f 37/42/42 43/48/48 48/47/47 42/37/37
f 46/44/44 52/49/49 51/50/50 45/45/45
f 44/46/46 50/51/51 49/52/52 43/48/48
f 43/48/48 49/52/52 54/53/53 48/47/47
f 47/43/43 53/54/54 52/49/49 46/44/44
f 45/45/45 51/50/50 50/51/51 44/46/46
f 48/47/47 54/53/53 53/54/54 47/43/43
f 51/50/50 57/55/55 56/56/56 50/51/51
f 54/53/53 60/57/57 59/58/58 53/54/54
f 52/49/49 58/59/59 57/55/55 51/50/50
f 50/51/51 56/56/56 55/60/60 49/52/52
f 49/52/52 55/60/60 60/57/57 54/53/53
f 53/54/54 59/58/58 58/59/59 52/49/49
f 56/56/56 62/61/61 61/62/62 55/60/60
f 55/60/60 61/62/62 66/63/63 60/57/57
f 59/58/58 65/64/64 64/65/65 58/59/59
f 57/55/55 63/66/66 62/61/61 56/56/56
f 60/57/57 66/63/63 65/64/64 59/58/58
f 58/59/59 64/65/65 63/66/66 57/55/55
f 65/64/64 66/63/63 61/62/62 64/65/65
f 62/61/61 63/66/66 64/65/65 61/62/62
f 3/67/5 2/67/8 1/67/12 6/67/9
f 4/67/4 3/67/5 6/67/9 5/67/1
