# Blender 5.0.0
# www.blender.org
mtllib fungus wall med flat.mtl
o fungo.011
v -6.098660 0.164853 -0.653538
v -6.098660 0.383489 -0.653538
v -5.942408 0.164853 -0.815009
v -5.942408 0.383489 -0.815009
v -5.517975 0.164853 -0.672593
v -5.517975 0.383489 -0.672593
v -5.723772 0.164853 -0.815009
v -5.723772 0.383489 -0.815009
v -6.155603 0.164853 -0.501152
v -6.155603 0.383489 -0.501152
v -5.107038 0.164853 -0.520207
v -5.107038 0.383489 -0.520207
v -6.277556 0.164853 -0.352522
v -6.277556 0.383489 -0.352522
v -4.905052 0.196820 -0.455419
v -4.905052 0.351522 -0.455419
v -6.399649 0.196820 -0.145379
v -6.399649 0.381611 -0.145379
v -4.851837 0.196820 -0.175867
v -4.851837 0.381611 -0.175867
v -6.086654 0.196820 0.205519
v -6.086654 0.406181 0.205519
v -5.144433 0.196820 0.188751
v -5.144433 0.406181 0.188751
v -5.833711 0.164853 -0.815009
v -5.833711 0.383489 -0.815009
v -5.809968 0.022686 -0.663012
v -5.809968 0.353064 -0.663011
v -5.734910 0.022686 -0.524345
v -5.734910 0.353064 -0.524345
v -5.691370 0.022686 -0.394531
v -5.691371 0.353064 -0.394532
v -5.650913 0.022686 -0.128524
v -5.650913 0.353064 -0.128524
v -5.609281 0.194688 0.272680
v -5.609281 0.408313 0.272680
v -6.139169 0.274171 -0.655741
v -5.967555 0.274171 -0.833085
v -5.727425 0.274171 -0.833085
v -5.501398 0.274171 -0.676669
v -6.201709 0.274171 -0.488374
v -5.050063 0.274171 -0.509302
v -6.335650 0.274171 -0.325132
v -4.823725 0.274171 -0.438145
v -6.472892 0.274171 -0.096727
v -4.766177 0.274171 -0.130212
v -6.129578 0.274171 0.295410
v -5.087538 0.274171 0.275644
v -5.602579 0.274171 0.375917
v -5.848172 0.274171 -0.833085
vn -0.8565 -0.0000 -0.5162
vn -0.4983 0.7956 -0.3447
vn -0.2182 0.7525 -0.6214
vn -0.4200 -0.0000 -0.9075
vn -0.0000 -0.0000 -1.0000
vn 0.0079 0.8059 -0.5920
vn 0.1969 0.7475 -0.6344
vn 0.2841 -0.0000 -0.9588
vn 0.2707 0.8145 -0.5132
vn 0.4537 -0.0000 -0.8912
vn 0.0154 0.9959 0.0897
vn -0.4475 0.8558 -0.2594
vn 0.0094 0.9971 0.0754
vn -0.0232 -0.5331 -0.8458
vn 0.3084 -0.4603 -0.8325
vn 0.4013 -0.5383 -0.7411
vn -0.0842 -0.9322 -0.3521
vn -0.0209 -0.9805 -0.1953
vn 0.3413 -0.6715 -0.6577
vn 0.4569 -0.6761 -0.5780
vn -0.0067 -0.9987 -0.0511
vn 0.2265 0.8055 -0.5476
vn 0.3220 -0.0000 -0.9467
vn -0.6565 -0.6469 -0.3879
vn -0.6287 -0.7315 -0.2640
vn -0.8504 -0.0000 -0.5261
vn 0.4759 -0.8740 0.0985
vn 0.0023 -0.9903 0.1388
vn -0.5928 -0.7340 -0.3314
vn -0.8349 -0.0203 -0.5501
vn -0.4786 0.7981 -0.3661
vn 0.0160 0.9988 0.0461
vn 0.3949 0.7026 -0.5919
vn 0.8453 -0.0372 -0.5330
vn 0.0045 0.9975 -0.0711
vn -0.6052 0.7940 -0.0566
vn -0.2381 0.8863 0.3973
vn 0.0065 0.9009 0.4339
vn -0.6175 -0.7863 -0.0194
vn -0.9805 -0.0732 0.1825
vn 0.4753 0.8778 0.0602
vn 0.9602 -0.0711 0.2703
vn 0.0229 -0.1216 0.9923
vn -0.4733 -0.1026 0.8749
vn 0.2444 0.8909 0.3829
vn 0.5219 -0.1013 0.8470
vn 0.2504 -0.8727 0.4191
vn 0.0105 -0.8816 0.4719
vn -0.2464 -0.8622 0.4426
vn -0.3495 -0.5157 -0.7823
vt 0.000000 0.000000
s 1
usemtl Material.026
f 25/1/14 7/1/15 5/1/16 27/1/17
f 29/1/18 11/1/19 15/1/20 31/1/21
f 37/1/1 1/1/24 9/1/25 41/1/26
f 27/1/17 5/1/16 11/1/19 29/1/18
f 31/1/21 15/1/20 19/1/27 33/1/28
f 41/1/26 9/1/25 13/1/29 43/1/30
f 43/1/30 13/1/29 17/1/39 45/1/40
f 33/1/28 19/1/27 23/1/47 35/1/48
f 45/1/40 17/1/39 21/1/49 47/1/44
f 17/1/39 33/1/28 35/1/48 21/1/49
f 13/1/29 31/1/21 33/1/28 17/1/39
f 1/1/24 27/1/17 29/1/18 9/1/25
f 9/1/25 29/1/18 31/1/21 13/1/29
f 3/1/50 25/1/14 27/1/17 1/1/24
f 3/1/50 38/1/4 50/1/5 25/1/14
f 23/1/47 48/1/46 49/1/43 35/1/48
f 19/1/27 46/1/42 48/1/46 23/1/47
f 35/1/48 49/1/43 47/1/44 21/1/49
f 15/1/20 44/1/34 46/1/42 19/1/27
f 11/1/19 42/1/23 44/1/34 15/1/20
f 5/1/16 40/1/10 42/1/23 11/1/19
f 7/1/15 39/1/8 40/1/10 5/1/16
f 25/1/14 50/1/5 39/1/8 7/1/15
f 1/1/24 37/1/1 38/1/4 3/1/50
usemtl Material.024
f 37/1/1 2/1/2 4/1/3 38/1/4
f 50/1/5 26/1/6 8/1/7 39/1/8
f 39/1/8 8/1/7 6/1/9 40/1/10
f 28/1/11 2/1/2 10/1/12 30/1/13
f 26/1/6 4/1/3 2/1/2 28/1/11
f 40/1/10 6/1/9 12/1/22 42/1/23
f 30/1/13 10/1/12 14/1/31 32/1/32
f 42/1/23 12/1/22 16/1/33 44/1/34
f 34/1/35 18/1/36 22/1/37 36/1/38
f 32/1/32 14/1/31 18/1/36 34/1/35
f 44/1/34 16/1/33 20/1/41 46/1/42
f 49/1/43 36/1/38 22/1/37 47/1/44
f 46/1/42 20/1/41 24/1/45 48/1/46
f 48/1/46 24/1/45 36/1/38 49/1/43
f 16/1/33 32/1/32 34/1/35 20/1/41
f 20/1/41 34/1/35 36/1/38 24/1/45
f 12/1/22 30/1/13 32/1/32 16/1/33
f 8/1/7 26/1/6 28/1/11 6/1/9
f 6/1/9 28/1/11 30/1/13 12/1/22
f 38/1/4 4/1/3 26/1/6 50/1/5
f 18/1/36 45/1/40 47/1/44 22/1/37
f 14/1/31 43/1/30 45/1/40 18/1/36
f 10/1/12 41/1/26 43/1/30 14/1/31
f 2/1/2 37/1/1 41/1/26 10/1/12
