# Blender 5.0.0
# www.blender.org
mtllib fungus yellow tiny.mtl
o fungo.010
v 3.335576 0.251464 2.603164
v 3.405645 0.259667 2.673713
v 3.475715 0.267869 2.603164
v 3.405645 0.259666 2.532616
v 3.647806 0.089398 2.553090
v 3.642697 0.139211 2.603164
v 3.647806 0.089398 2.653239
v 3.652915 0.039585 2.603164
v 3.585611 0.061175 2.549016
v 3.588276 0.115257 2.603164
v 3.585611 0.061175 2.657313
v 3.582945 0.007092 2.603164
v 3.490335 0.079701 2.552824
v 3.518480 0.121439 2.603164
v 3.490335 0.079701 2.653505
v 3.462190 0.037962 2.603164
v 3.416232 0.182916 2.549646
v 3.466346 0.201698 2.603164
v 3.416232 0.182916 2.656683
v 3.366117 0.164135 2.603164
v 3.308850 0.280714 2.603164
v 3.400352 0.291425 2.695291
v 3.491854 0.302137 2.603164
v 3.400352 0.291425 2.511038
v 3.252748 0.295419 2.603164
v 3.380442 0.310368 2.731730
v 3.508136 0.325316 2.603164
v 3.380442 0.310368 2.474598
v 3.224913 0.265695 2.603164
v 3.380441 0.283902 2.759756
v 3.535971 0.302109 2.603164
v 3.380442 0.283902 2.446573
v 3.245800 0.327294 2.603164
v 3.372502 0.342127 2.730732
v 3.499205 0.356959 2.603164
v 3.372502 0.342126 2.475597
v 3.308624 0.357356 2.603164
v 3.372502 0.364834 2.667479
v 3.436380 0.372312 2.603164
v 3.372502 0.364834 2.538850
v 3.341565 0.354074 2.603164
v 3.375149 0.358006 2.636977
v 3.408732 0.361937 2.603164
v 3.375149 0.358006 2.569351
vn -0.0652 -0.1694 -0.9834
vn -0.8832 -0.4691 -0.0000
vn -0.8337 -0.5522 -0.0000
vn 0.0654 -0.4261 -0.9023
vn 0.9753 0.2209 -0.0000
vn 0.9540 -0.2997 -0.0000
vn -0.0652 -0.1694 0.9834
vn 0.0654 -0.4261 0.9023
vn 0.7741 -0.6330 -0.0000
vn 0.5573 0.1791 0.8108
vn 0.0287 -0.1270 0.9915
vn 0.0858 -0.9963 -0.0000
vn 0.3763 0.9265 -0.0000
vn 0.5573 0.1791 -0.8108
vn 0.0287 -0.1270 -0.9915
vn -0.1548 0.9879 -0.0000
vn -0.1017 -0.1408 0.9848
vn -0.5512 -0.8344 -0.0000
vn -0.1017 -0.1408 -0.9848
vn 0.5189 0.8548 -0.0000
vn -0.4091 -0.9125 -0.0000
vn 0.2425 -0.7051 -0.6663
vn 0.8518 -0.5239 -0.0000
vn 0.2425 -0.7051 0.6663
vn 0.0474 -0.9255 -0.3759
vn 0.4846 -0.8747 -0.0000
vn -0.2019 -0.9794 -0.0000
vn 0.0474 -0.9255 0.3759
vn 0.8371 -0.5470 -0.0000
vn 0.1306 -0.6167 0.7763
vn 0.1306 -0.6167 -0.7763
vn -0.7074 -0.7068 -0.0000
vn -0.8189 0.5740 -0.0000
vn -0.0858 0.6630 -0.7437
vn -0.0858 0.6630 0.7437
vn 0.6579 0.7531 -0.0000
vn 0.0827 0.9966 -0.0000
vn -0.1006 0.9761 0.1927
vn -0.1006 0.9761 -0.1927
vn -0.2995 0.9541 -0.0000
vn -0.1278 0.9771 0.1698
vn -0.2924 0.9563 -0.0000
vn 0.0442 0.9990 -0.0000
vn -0.1278 0.9771 -0.1698
vt 0.065589 0.608819
vt 0.067492 0.609822
vt 0.083001 0.616549
vt 0.074471 0.614417
vt 0.063703 0.608178
vt 0.070837 0.611273
vt 0.065459 0.609118
vt 0.075616 0.611777
vt 0.000375 0.580709
vt 0.027700 0.580709
vt 0.027059 0.589390
vt 0.021843 0.590021
vt 0.034489 0.595506
vt 0.019045 0.600660
vt 0.024947 0.594260
vt 0.031592 0.594250
vt 0.041413 0.598825
vt 0.041032 0.598344
vt 0.041643 0.598294
vt 0.042633 0.599039
vt 0.096649 0.622469
vt 0.080015 0.616501
vt 0.075344 0.613228
vt 0.080926 0.614402
vt 0.085127 0.617284
vt 0.116465 0.631065
vt 0.079071 0.614844
vt 0.084990 0.617599
vt 0.082821 0.616471
vt 0.086960 0.621310
vt 0.089182 0.616186
vt 0.134703 0.638976
vt 0.121079 0.633066
vt 0.093232 0.619266
vt 0.091975 0.622163
vt 0.087297 0.618413
vt 0.092369 0.620613
vt 0.095599 0.623165
vt 0.096439 0.621227
vt 0.108528 0.627622
vt 0.097933 0.621795
vt 0.095099 0.621797
vt 0.102469 0.624994
vt 0.097034 0.623868
vt 0.000000 0.000000
s 1
usemtl Material.029
f 17/1/1 20/2/2 1/3/3 4/4/4
f 18/5/5 17/1/1 4/4/4 3/6/6
f 20/2/2 19/7/7 2/8/8 1/3/3
f 19/7/7 18/5/5 3/6/6 2/8/8
f 8/9/9 7/10/10 11/11/11 12/12/12
f 6/13/13 5/14/14 9/15/15 10/16/16
f 5/14/14 8/9/9 12/12/12 9/15/15
f 7/10/10 6/13/13 10/16/16 11/11/11
f 12/12/12 11/11/11 15/17/17 16/18/18
f 10/16/16 9/15/15 13/19/19 14/20/20
f 9/15/15 12/12/12 16/18/18 13/19/19
f 11/11/11 10/16/16 14/20/20 15/17/17
f 13/19/19 16/18/18 20/2/2 17/1/1
f 15/17/17 14/20/20 18/5/5 19/7/7
f 16/18/18 15/17/17 19/7/7 20/2/2
f 14/20/20 13/19/19 17/1/1 18/5/5
f 4/4/4 1/3/3 21/21/21 24/22/22
f 3/6/6 4/4/4 24/22/22 23/23/23
f 1/3/3 2/8/8 22/24/24 21/21/21
f 2/8/8 3/6/6 23/23/23 22/24/24
f 21/21/21 22/24/24 26/25/25 25/26/26
f 22/24/24 23/23/23 27/27/27 26/25/25
f 23/23/23 24/22/22 28/28/28 27/27/27
f 24/22/22 21/21/21 25/26/26 28/28/28
f 8/45/9 5/45/14 6/45/13 7/45/10
usemtl Material.025
f 26/25/25 27/27/27 31/29/29 30/30/30
f 27/27/27 28/28/28 32/31/31 31/29/29
f 28/28/28 25/26/26 29/32/32 32/31/31
f 25/26/26 26/25/25 30/30/30 29/32/32
f 32/31/31 29/32/32 33/33/33 36/34/34
f 29/32/32 30/30/30 34/35/35 33/33/33
f 30/30/30 31/29/29 35/36/36 34/35/35
f 31/29/29 32/31/31 36/34/34 35/36/36
f 34/35/35 35/36/36 39/37/37 38/38/38
f 35/36/36 36/34/34 40/39/39 39/37/37
f 36/34/34 33/33/33 37/40/40 40/39/39
f 33/33/33 34/35/35 38/38/38 37/40/40
f 39/37/37 40/39/39 44/41/41 43/42/42
f 40/39/39 37/40/40 41/43/43 44/41/41
f 37/40/40 38/38/38 42/44/44 41/43/43
f 38/38/38 39/37/37 43/42/42 42/44/44
f 41/43/43 42/44/44 43/42/42 44/41/41
