# Blender 5.0.0
# www.blender.org
mtllib fungus redred bigflat.mtl
o fungo.007
v -4.160921 -0.022322 -0.659516
v -4.235909 -0.022322 -0.616221
v -4.235909 -0.022322 -0.529633
v -4.160921 -0.022322 -0.486339
v -4.085933 -0.022322 -0.529633
v -4.085933 -0.022322 -0.616221
v -4.148907 0.235982 -0.659516
v -4.223894 0.235982 -0.616221
v -4.223894 0.235982 -0.529633
v -4.148907 0.235982 -0.486339
v -4.073919 0.235982 -0.529633
v -4.073919 0.235982 -0.616221
v -4.103854 0.563367 -0.659516
v -4.178841 0.563367 -0.616222
v -4.178841 0.563367 -0.529633
v -4.103854 0.563367 -0.486339
v -4.028866 0.563367 -0.529633
v -4.028866 0.563367 -0.616221
v -4.052794 0.749586 -0.680822
v -4.146234 0.749586 -0.626875
v -4.146234 0.749586 -0.518980
v -4.052794 0.749586 -0.465032
v -3.959354 0.749586 -0.518980
v -3.959354 0.749586 -0.626875
v -4.052794 0.884745 -0.749051
v -4.188984 0.816066 -0.660989
v -4.188984 0.816066 -0.484866
v -4.052794 0.884745 -0.396804
v -3.916603 0.953424 -0.484866
v -3.916603 0.953424 -0.660989
v -4.079825 0.956830 -0.879661
v -4.317012 0.837220 -0.726295
v -4.317012 0.837220 -0.419561
v -4.079825 0.956830 -0.266194
v -3.842638 1.076440 -0.419561
v -3.842638 1.076440 -0.726294
v -4.055797 0.914117 -0.987299
v -4.376217 0.752534 -0.780113
v -4.376217 0.752534 -0.365742
v -4.055797 0.914117 -0.158556
v -3.735377 1.075700 -0.365741
v -3.735377 1.075700 -0.780113
v -4.073818 0.935805 -1.047894
v -4.441094 0.750593 -0.810411
v -4.441094 0.750593 -0.335444
v -4.073818 0.935805 -0.097961
v -3.706542 1.121017 -0.335444
v -3.706542 1.121017 -0.810411
v -4.097847 1.043932 -1.004896
v -4.431873 0.875487 -0.788912
v -4.431873 0.875487 -0.356943
v -4.097847 1.043932 -0.140959
v -3.763820 1.212377 -0.356943
v -3.763820 1.212377 -0.788911
v -4.126680 1.141247 -0.685040
v -4.213373 1.097529 -0.628984
v -4.213373 1.097529 -0.516871
v -4.126680 1.141246 -0.460815
v -4.039988 1.184964 -0.516871
v -4.039988 1.184964 -0.628984
vn -0.0117 -0.6097 -0.7925
vn -0.0143 0.0026 -0.9999
vn 0.8592 -0.0796 -0.5055
vn 0.6731 -0.6250 -0.3954
vn 0.6731 -0.6250 0.3954
vn 0.8592 -0.0796 0.5055
vn -0.0143 0.0026 0.9999
vn -0.0117 -0.6097 0.7925
vn -0.6991 -0.5948 0.3969
vn -0.8664 0.0790 0.4931
vn -0.8664 0.0790 -0.4931
vn -0.6991 -0.5948 -0.3969
vn 0.8347 -0.2320 0.4995
vn -0.0236 -0.0485 0.9985
vn -0.8633 0.1220 0.4897
vn -0.8633 0.1220 -0.4897
vn 0.8347 -0.2320 -0.4995
vn -0.0236 -0.0485 -0.9985
vn 0.1033 -0.3085 0.9456
vn -0.8104 -0.2801 0.5145
vn -0.8104 -0.2801 -0.5145
vn 0.1033 -0.3085 -0.9456
vn 0.8499 -0.3060 -0.4291
vn 0.8499 -0.3060 0.4291
vn -0.2848 -0.8729 0.3961
vn -0.2848 -0.8729 -0.3961
vn 0.8224 -0.4837 -0.2994
vn 0.8224 -0.4837 0.2994
vn 0.3432 -0.6602 0.6681
vn 0.3432 -0.6602 -0.6681
vn 0.5240 -0.8505 0.0456
vn 0.4530 -0.8858 0.1007
vn 0.3683 -0.9281 0.0544
vn 0.3683 -0.9281 -0.0544
vn 0.4530 -0.8858 -0.1007
vn 0.5240 -0.8505 -0.0455
vn 0.5723 -0.8168 -0.0726
vn 0.5723 -0.8168 0.0726
vn 0.4594 -0.8777 0.1362
vn 0.3629 -0.9297 0.0621
vn 0.3629 -0.9297 -0.0621
vn 0.4594 -0.8777 -0.1362
vn 0.0953 -0.2968 -0.9502
vn 0.8743 0.0110 -0.4852
vn 0.8743 0.0110 0.4852
vn 0.0953 -0.2968 0.9502
vn -0.6446 -0.6068 0.4651
vn -0.6446 -0.6068 -0.4651
vn 0.3779 0.8432 -0.3823
vn 0.3779 0.8432 0.3823
vn -0.2511 0.6152 0.7473
vn -0.8421 0.4038 0.3574
vn -0.8421 0.4038 -0.3574
vn -0.2511 0.6152 -0.7473
vn -0.4356 0.8778 -0.1993
vn -0.2778 0.9553 -0.1012
vn -0.2778 0.9553 0.1012
vn -0.4356 0.8778 0.1993
vn -0.5880 0.8029 0.0977
vn -0.5880 0.8029 -0.0977
vt 0.642777 0.367371
vt 0.615474 0.450157
vt 0.613643 0.450165
vt 0.630851 0.322451
vt 0.608591 0.364891
vt 0.612827 0.452609
vt 0.612411 0.453238
vt 0.608591 0.393361
vt 0.620974 0.404045
vt 0.613455 0.452333
vt 0.615748 0.451074
vt 0.636207 0.395264
vt 0.598441 0.575918
vt 0.598515 0.572324
vt 0.597968 0.568143
vt 0.598877 0.568379
vt 0.596231 0.575606
vt 0.597221 0.571881
vt 0.593203 0.609083
vt 0.592343 0.604781
vt 0.594698 0.603484
vt 0.593098 0.606990
vt 0.591774 0.610067
vt 0.593465 0.612499
vt 0.590087 0.615479
vt 0.593956 0.615245
vt 0.590249 0.629891
vt 0.589604 0.634825
vt 0.589001 0.625587
vt 0.592941 0.621865
vt 0.592004 0.624312
vt 0.591246 0.630308
vt 0.588272 0.640638
vt 0.586939 0.653725
vt 0.588664 0.637241
vt 0.590040 0.626582
vt 0.583703 0.648326
vt 0.584564 0.675028
vt 0.591245 0.646180
vt 0.590867 0.633965
vt 0.590582 0.630885
vt 0.588706 0.636049
vt 0.585518 0.640372
vt 0.576684 0.654514
vt 0.582284 0.696255
vt 0.596506 0.653750
vt 0.592366 0.639906
vt 0.589306 0.636378
vt 0.573381 0.661646
vt 0.578844 0.715988
vt 0.597507 0.662911
vt 0.592787 0.646803
vt 0.587965 0.642699
vt 0.583075 0.646078
vt 0.586720 0.659413
vt 0.587567 0.667655
vt 0.584269 0.672395
vt 0.581110 0.666332
vt 0.585928 0.657378
vt 0.586438 0.655270
vt 0.000000 0.000000
s 1
usemtl Material.027
f 1/1/1 7/2/2 12/3/3 6/4/4
f 5/5/5 11/6/6 10/7/7 4/8/8
f 3/9/9 9/10/10 8/11/11 2/12/12
f 6/4/4 12/3/3 11/6/6 5/5/5
f 4/8/8 10/7/7 9/10/10 3/9/9
f 2/12/12 8/11/11 7/2/2 1/1/1
f 11/6/6 17/13/13 16/14/14 10/7/7
f 9/10/10 15/15/15 14/16/16 8/11/11
f 12/3/3 18/17/17 17/13/13 11/6/6
f 10/7/7 16/14/14 15/15/15 9/10/10
f 8/11/11 14/16/16 13/18/18 7/2/2
f 7/2/2 13/18/18 18/17/17 12/3/3
f 16/14/14 22/19/19 21/20/20 15/15/15
f 14/16/16 20/21/21 19/22/22 13/18/18
f 13/18/18 19/22/22 24/23/23 18/17/17
f 17/13/13 23/24/24 22/19/19 16/14/14
f 15/15/15 21/20/20 20/21/21 14/16/16
f 18/17/17 24/23/23 23/24/24 17/13/13
f 21/20/20 27/25/25 26/26/26 20/21/21
f 24/23/23 30/27/27 29/28/28 23/24/24
f 22/19/19 28/29/29 27/25/25 21/20/20
f 20/21/21 26/26/26 25/30/30 19/22/22
f 19/22/22 25/30/30 30/27/27 24/23/23
f 23/24/24 29/28/28 28/29/29 22/19/19
f 26/26/26 32/31/31 31/32/32 25/30/30
f 25/30/30 31/32/32 36/33/33 30/27/27
f 29/28/28 35/34/34 34/35/35 28/29/29
f 27/25/25 33/36/36 32/31/31 26/26/26
f 30/27/27 36/33/33 35/34/34 29/28/28
f 28/29/29 34/35/35 33/36/36 27/25/25
f 36/33/33 42/37/37 41/38/38 35/34/34
f 34/35/35 40/39/39 39/40/40 33/36/36
f 32/31/31 38/41/41 37/42/42 31/32/32
f 31/32/32 37/42/42 42/37/37 36/33/33
f 35/34/34 41/38/38 40/39/39 34/35/35
f 33/36/36 39/40/40 38/41/41 32/31/31
f 37/42/42 43/43/43 48/44/44 42/37/37
f 41/38/38 47/45/45 46/46/46 40/39/39
f 39/40/40 45/47/47 44/48/48 38/41/41
f 42/37/37 48/44/44 47/45/45 41/38/38
f 40/39/39 46/46/46 45/47/47 39/40/40
f 38/41/41 44/48/48 43/43/43 37/42/42
f 48/44/44 54/49/49 53/50/50 47/45/45
f 46/46/46 52/51/51 51/52/52 45/47/47
f 44/48/48 50/53/53 49/54/54 43/43/43
f 43/43/43 49/54/54 54/49/49 48/44/44
f 47/45/45 53/50/50 52/51/51 46/46/46
f 45/47/47 51/52/52 50/53/53 44/48/48
f 49/54/54 55/55/55 60/56/56 54/49/49
f 53/50/50 59/57/57 58/58/58 52/51/51
f 51/52/52 57/59/59 56/60/60 50/53/53
f 54/49/49 60/56/56 59/57/57 53/50/50
f 52/51/51 58/58/58 57/59/59 51/52/52
f 50/53/53 56/60/60 55/55/55 49/54/54
f 58/58/58 59/57/57 60/56/56 57/59/59
f 55/55/55 56/60/60 57/59/59 60/56/56
f 4/61/8 3/61/9 2/61/12 1/61/1
f 5/61/5 4/61/8 1/61/1 6/61/4
