# Blender 5.0.0
# www.blender.org
mtllib fungus red big.mtl
o fungo.049
v -0.405854 0.894831 -4.200684
v -0.495486 0.894831 -4.148934
v -0.495486 0.894831 -4.045436
v -0.405854 0.894831 -3.993686
v -0.316221 0.894831 -4.045436
v -0.316221 0.894831 -4.148934
v -0.402801 0.864300 -4.223969
v -0.512599 0.864300 -4.160577
v -0.512599 0.864300 -4.033792
v -0.402801 0.864300 -3.970401
v -0.293002 0.864300 -4.033792
v -0.293002 0.864300 -4.160577
v -0.402801 0.797131 -4.283875
v -0.564479 0.797131 -4.190531
v -0.564479 0.797131 -4.003839
v -0.402801 0.797131 -3.910495
v -0.241122 0.797131 -4.003839
v -0.241122 0.797131 -4.190530
v -0.396694 0.739122 -4.368906
v -0.632011 0.739122 -4.233045
v -0.632011 0.739122 -3.961325
v -0.396694 0.739122 -3.825465
v -0.161378 0.739122 -3.961325
v -0.161378 0.739122 -4.233045
vn -0.7251 0.5595 0.4015
vn -0.7251 0.5595 -0.4015
vn -0.6743 0.6250 -0.3933
vn -0.6743 0.6250 0.3933
vn 0.6537 0.6469 -0.3928
vn 0.6537 0.6469 0.3928
vn 0.6531 0.6596 0.3720
vn 0.6546 0.6570 -0.3738
vn -0.0282 0.6044 0.7962
vn 0.0062 0.6430 0.7658
vn -0.0282 0.6044 -0.7962
vn 0.0062 0.6430 -0.7658
vn -0.0111 0.7710 -0.6367
vn -0.5669 0.7589 -0.3205
vn 0.5364 0.7827 -0.3156
vn -0.0111 0.7710 0.6367
vn 0.5364 0.7827 0.3156
vn -0.5669 0.7589 0.3205
vn 0.4697 0.8414 0.2671
vn 0.4697 0.8414 -0.2671
vn -0.5073 0.8087 0.2977
vn 0.0077 0.8263 0.5632
vn 0.0077 0.8263 -0.5632
vn -0.5073 0.8087 -0.2977
vt 0.738834 0.282212
vt 0.735093 0.284471
vt 0.733293 0.283469
vt 0.739026 0.280276
vt 0.738860 0.291344
vt 0.742918 0.289156
vt 0.744691 0.290231
vt 0.738995 0.293403
vt 0.742687 0.284546
vt 0.744489 0.283727
vt 0.734893 0.289000
vt 0.733173 0.290222
vt 0.728522 0.292871
vt 0.728591 0.280984
vt 0.738994 0.299028
vt 0.749286 0.280934
vt 0.749344 0.292869
vt 0.738816 0.274897
vt 0.755567 0.296759
vt 0.739185 0.306419
vt 0.739124 0.268076
vt 0.755647 0.277806
vt 0.722610 0.296816
vt 0.722610 0.277745
s 1
usemtl Material.002
f 3/1/1 2/2/2 8/3/3 9/4/4
f 6/5/5 5/6/6 11/7/7 12/8/8
f 4/9/9 3/1/1 9/4/4 10/10/10
f 2/2/2 1/11/11 7/12/12 8/3/3
f 1/11/11 6/5/5 12/8/8 7/12/12
f 5/6/6 4/9/9 10/10/10 11/7/7
f 8/3/3 7/12/12 13/13/13 14/14/14
f 7/12/12 12/8/8 18/15/15 13/13/13
f 11/7/7 10/10/10 16/16/16 17/17/17
f 9/4/4 8/3/3 14/14/14 15/18/18
f 12/8/8 11/7/7 17/17/17 18/15/15
f 10/10/10 9/4/4 15/18/18 16/16/16
f 18/15/15 17/17/17 23/19/19 24/20/20
f 16/16/16 15/18/18 21/21/21 22/22/22
f 14/14/14 13/13/13 19/23/23 20/24/24
f 13/13/13 18/15/15 24/20/20 19/23/23
f 17/17/17 16/16/16 22/22/22 23/19/19
f 15/18/18 14/14/14 20/24/24 21/21/21
o fungo.039
v -0.378375 0.000264 -4.229948
v -0.493352 0.000264 -4.163567
v -0.493352 0.000264 -4.030803
v -0.378375 0.000264 -3.964422
v -0.263399 0.000264 -4.030803
v -0.263399 0.000264 -4.163567
v -0.384482 0.226196 -4.242610
v -0.510423 0.226196 -4.169897
v -0.510423 0.226196 -4.024473
v -0.384482 0.226196 -3.951761
v -0.258541 0.226196 -4.024473
v -0.258541 0.226196 -4.169897
v -0.402801 0.717750 -4.205700
v -0.496778 0.717750 -4.151443
v -0.496778 0.717750 -4.042928
v -0.402801 0.717750 -3.988669
v -0.308824 0.717750 -4.042928
v -0.308824 0.717750 -4.151443
v -0.405854 0.894832 -4.200684
v -0.495486 0.894832 -4.148934
v -0.495486 0.894832 -4.045436
v -0.405854 0.894832 -3.993686
v -0.316221 0.894832 -4.045436
v -0.316221 0.894832 -4.148934
v -0.415566 1.267118 -4.318377
v -0.459727 1.280832 -4.296884
v -0.459727 1.308261 -4.253897
v -0.415566 1.321975 -4.232403
v -0.371406 1.308261 -4.253897
v -0.371406 1.280832 -4.296884
v -0.410777 1.236525 -4.339611
v -0.484690 1.259480 -4.303637
v -0.484690 1.305389 -4.231687
v -0.410777 1.328343 -4.195713
v -0.336863 1.305389 -4.231687
v -0.336863 1.259480 -4.303637
v -0.422750 1.026943 -4.507802
v -0.717085 1.118351 -4.364546
v -0.717085 1.301168 -4.078033
v -0.422750 1.392576 -3.934778
v -0.128415 1.301168 -4.078033
v -0.128415 1.118351 -4.364545
v -0.408284 0.983588 -4.550522
v -0.812328 1.100084 -4.348419
v -0.812328 1.333075 -3.944211
v -0.408284 1.449570 -3.742107
v -0.004240 1.333074 -3.944210
v -0.004240 1.100084 -4.348419
v -0.426493 0.948253 -4.590987
v -0.903204 1.085700 -4.352535
v -0.903204 1.360595 -3.875630
v -0.426493 1.498042 -3.637178
v 0.050218 1.360594 -3.875630
v 0.050218 1.085701 -4.352535
v -0.426493 0.902867 -4.669726
v -0.981912 1.063007 -4.391905
v -0.981912 1.383288 -3.836261
v -0.426493 1.543428 -3.558438
v 0.128926 1.383288 -3.836260
v 0.128926 1.063007 -4.391904
v -0.418323 1.016143 -4.703351
v -0.949979 1.169432 -4.437415
v -0.949979 1.476011 -3.905542
v -0.418322 1.629300 -3.639606
v 0.113334 1.476011 -3.905541
v 0.113334 1.169433 -4.437415
v -0.421122 1.335871 -4.640535
v -0.767370 1.435703 -4.467341
v -0.767370 1.635366 -4.120952
v -0.421122 1.735198 -3.947757
v -0.074874 1.635366 -4.120952
v -0.074874 1.435703 -4.467340
v -0.417674 1.626791 -4.432747
v -0.482199 1.645395 -4.400471
v -0.482199 1.682604 -4.335919
v -0.417674 1.701208 -4.303644
v -0.353148 1.682604 -4.335919
v -0.353148 1.645395 -4.400471
v -0.405436 0.870614 -3.993000
v -0.495663 0.870614 -4.045093
v -0.495663 0.870614 -4.149277
v -0.405436 0.870614 -4.201369
v -0.315209 0.870614 -4.149277
v -0.315209 0.870614 -4.045093
v -0.405383 0.867520 -3.966374
v -0.405907 0.897926 -3.985086
v -0.502987 0.897926 -4.041136
v -0.518668 0.867520 -4.162590
v -0.502987 0.897926 -4.153234
v -0.405907 0.897926 -4.209283
v -0.308827 0.897926 -4.153234
v -0.292098 0.867520 -4.031780
v -0.308827 0.897926 -4.041136
v -0.518668 0.867520 -4.031780
v -0.405383 0.867520 -4.227995
v -0.292098 0.867520 -4.162590
v -0.187448 0.709932 -3.971375
v -0.231905 0.715885 -3.996983
v -0.187448 0.709932 -4.222995
v -0.231905 0.715885 -4.197388
v -0.405461 0.715885 -4.297589
v -0.405359 0.709932 -4.348805
v -0.579017 0.715885 -3.996983
v -0.579017 0.715885 -4.197388
v -0.405461 0.715885 -3.896780
v -0.623269 0.709932 -3.971375
v -0.623269 0.709932 -4.222995
v -0.405359 0.709932 -3.845564
vn 0.0068 -0.6308 -0.7759
vn 0.0015 0.0094 -1.0000
vn 0.8658 0.0364 -0.4991
vn 0.6797 -0.6222 -0.3885
vn 0.6797 -0.6222 0.3885
vn 0.8658 0.0364 0.4991
vn 0.0015 0.0094 1.0000
vn 0.0068 -0.6308 0.7759
vn -0.6640 -0.6396 0.3873
vn -0.8655 -0.0179 0.5007
vn -0.8655 -0.0179 -0.5007
vn -0.6640 -0.6396 -0.3873
vn 0.8626 0.0757 0.5002
vn -0.0035 0.0518 0.9987
vn -0.8665 0.0282 0.4983
vn -0.8665 0.0282 -0.4983
vn 0.8626 0.0757 -0.5002
vn -0.0035 0.0518 -0.9987
vn -0.1541 0.9788 0.1347
vn -0.3560 0.9276 -0.1130
vn -0.4294 0.8690 -0.2457
vn -0.4294 0.8690 0.2457
vn 0.0337 -0.9991 -0.0246
vn -0.0092 -0.9993 -0.0352
vn 0.0001 -0.9088 -0.4172
vn 0.3614 -0.9088 -0.2086
vn 0.0057 0.8876 -0.4607
vn 0.3370 0.9353 -0.1074
vn 0.4178 0.8753 -0.2434
vn -0.0039 0.8722 -0.4891
vn -0.7106 0.5711 -0.4110
vn 0.0013 0.5749 -0.8183
vn -0.0000 -0.3994 -0.9168
vn -0.7939 -0.3995 -0.4583
vn 0.1449 0.9819 0.1223
vn 0.0017 0.9910 0.1340
vn -0.0039 0.8722 0.4891
vn 0.4178 0.8753 0.2434
vn 0.0337 -0.9991 0.0246
vn 0.3614 -0.9088 0.2086
vn -0.2009 -0.7007 0.6845
vn -0.3047 -0.8698 0.3882
vn 0.3794 -0.8479 0.3703
vn 0.2709 -0.6741 0.6872
vn 0.0231 -0.6494 0.7601
vn 0.0293 -0.9894 0.1423
vn -0.2955 -0.7038 0.6460
vn -0.2960 -0.8822 0.3664
vn -0.0092 -0.9764 0.2160
vn 0.3019 -0.8860 0.3519
vn 0.3019 -0.6924 0.6553
vn -0.0092 -0.6072 0.7945
vn 0.0296 -0.6371 0.7702
vn -0.2278 -0.7262 0.6486
vn -0.2309 -0.8860 0.4022
vn 0.0076 -0.9595 0.2817
vn 0.2580 -0.8783 0.4025
vn 0.2585 -0.6999 0.6659
vn -0.1848 -0.7849 0.5914
vn -0.1490 -0.8884 0.4341
vn -0.0070 -0.9247 0.3806
vn 0.1221 -0.8950 0.4291
vn 0.1694 -0.7993 0.5765
vn -0.0323 -0.7147 0.6987
vn 0.0046 -0.8329 0.5534
vn -0.0574 -0.8507 0.5226
vn -0.0326 -0.8771 0.4791
vn 0.0010 -0.8809 0.4733
vn 0.0254 -0.8739 0.4855
vn 0.0360 -0.8573 0.5135
vn 0.7227 -0.6841 -0.0988
vn 0.7227 -0.2574 0.6415
vn -0.0169 -0.0244 0.9996
vn -0.7548 -0.2192 0.6183
vn -0.7548 -0.6449 -0.1202
vn -0.0169 -0.8772 -0.4798
vn 0.7961 0.5746 0.1896
vn 0.0147 0.8224 0.5687
vn -0.7678 0.6193 0.1645
vn -0.7678 0.1681 -0.6183
vn 0.7961 0.1240 -0.5923
vn 0.0147 -0.0799 -0.9967
vn -0.0022 0.9856 0.1692
vn -0.5552 0.8248 -0.1070
vn -0.5552 0.5060 -0.6601
vn -0.0022 0.3475 -0.9377
vn 0.5513 0.5081 -0.6617
vn 0.5513 0.8273 -0.1080
vn -0.2380 0.9020 -0.3603
vn -0.2380 0.7639 -0.5999
vn 0.2424 0.7624 -0.6000
vn 0.2424 0.9013 -0.3590
vn 0.0015 0.9709 -0.2395
vn 0.0015 0.6939 -0.7201
vn -0.0274 -0.9996 0.0103
vn -0.0274 -0.9996 -0.0103
vn -0.0092 -0.9993 0.0352
vn 0.0013 0.5749 0.8182
vn -0.7106 0.5711 0.4110
vn 0.7067 0.5785 -0.4073
vn 0.7067 0.5785 0.4073
vn 0.7940 -0.3993 0.4584
vn 0.7940 -0.3993 -0.4584
vn 0.0001 -0.9088 0.4172
vn -0.3612 -0.9089 -0.2086
vn -0.3612 -0.9089 0.2086
vn -0.7939 -0.3995 0.4583
vn -0.0000 -0.3994 0.9168
vt 0.744146 0.322451
vt 0.736092 0.377761
vt 0.730792 0.382208
vt 0.718666 0.353870
vt 0.718666 0.380409
vt 0.730437 0.389125
vt 0.733297 0.392666
vt 0.732545 0.392410
vt 0.749481 0.386128
vt 0.736875 0.390458
vt 0.738769 0.383770
vt 0.758190 0.361155
vt 0.720654 0.474491
vt 0.720974 0.472763
vt 0.721397 0.470594
vt 0.721823 0.469581
vt 0.721072 0.471294
vt 0.721508 0.469479
vt 0.202403 0.435495
vt 0.149509 0.467601
vt 0.719832 0.477759
vt 0.718851 0.483034
vt 0.145206 0.535129
vt 0.206243 0.566454
vt 0.720806 0.476267
vt 0.720584 0.477318
vt 0.261552 0.535885
vt 0.261552 0.467826
vt 0.193734 0.507231
vt 0.193735 0.507210
vt 0.193753 0.507186
vt 0.193771 0.507197
vt 0.193769 0.507212
vt 0.193741 0.507179
vt 0.193731 0.507174
vt 0.193793 0.507188
vt 0.193808 0.507216
vt 0.193713 0.507259
vt 0.193715 0.507217
vt 0.193735 0.507142
vt 0.193564 0.506976
vt 0.193663 0.507149
vt 0.193828 0.507343
vt 0.194000 0.507429
vt 0.193991 0.507239
vt 0.193776 0.507095
vt 0.193644 0.507201
vt 0.193904 0.507429
vt 0.194290 0.507753
vt 0.194071 0.507354
vt 0.193910 0.507055
vt 0.193339 0.506748
vt 0.193105 0.506430
vt 0.193526 0.507238
vt 0.193887 0.507546
vt 0.194624 0.508101
vt 0.194151 0.507353
vt 0.193935 0.506963
vt 0.193401 0.507229
vt 0.193850 0.507629
vt 0.194997 0.508533
vt 0.194223 0.507297
vt 0.193941 0.506833
vt 0.192885 0.506179
vt 0.193787 0.507659
vt 0.194576 0.508080
vt 0.194241 0.507255
vt 0.193919 0.506738
vt 0.193326 0.507247
vt 0.192604 0.505860
vt 0.194138 0.507603
vt 0.194073 0.507224
vt 0.193837 0.506893
vt 0.193317 0.506681
vt 0.193484 0.507121
vt 0.193814 0.507471
vt 0.193835 0.507239
vt 0.193716 0.507146
vt 0.193723 0.507141
vt 0.193826 0.507212
vt 0.193897 0.507270
vt 0.193691 0.507045
vt 0.000000 0.000000
vt 0.719962 0.482125
vt 0.717845 0.493006
vt 0.716728 0.493305
vt 0.718268 0.484925
vt 0.719789 0.482953
vt 0.719660 0.485156
vt 0.718852 0.492956
vt 0.715035 0.511521
s 1
usemtl Material.002
f 25/25/25 31/26/26 36/27/27 30/28/28
f 29/29/29 35/30/30 34/31/31 28/32/32
f 27/33/33 33/34/34 32/35/35 26/36/36
f 30/28/28 36/27/27 35/30/30 29/29/29
f 28/32/32 34/31/31 33/34/34 27/33/33
f 26/36/36 32/35/35 31/26/26 25/25/25
f 35/30/30 41/37/37 40/38/38 34/31/31
f 33/34/34 39/39/39 38/40/40 32/35/35
f 36/27/27 42/41/41 41/37/37 35/30/30
f 34/31/31 40/38/38 39/39/39 33/34/34
f 32/35/35 38/40/40 37/42/42 31/26/26
f 31/26/26 37/42/42 42/41/41 36/27/27
f 45/43/43 44/44/44 113/44/45 111/43/46
f 104/45/47 103/46/48 129/46/49 127/45/50
f 43/47/51 48/48/52 115/48/53 114/47/54
f 112/49/55 119/50/56 126/50/57 131/49/58
f 47/51/59 46/52/60 110/52/61 117/51/62
f 105/49/63 104/45/47 127/45/50 128/49/64
f 44/44/44 45/43/43 51/53/65 50/54/66
f 47/51/59 48/48/52 54/55/67 53/56/68
f 45/43/43 46/52/60 52/57/69 51/53/65
f 43/47/51 44/44/44 50/54/66 49/58/70
f 48/48/52 43/47/51 49/58/70 54/55/67
f 46/52/60 47/51/59 53/56/68 52/57/69
f 53/56/68 54/55/67 60/59/71 59/60/72
f 51/53/65 52/57/69 58/61/73 57/62/74
f 49/58/70 50/54/66 56/63/75 55/64/76
f 54/55/67 49/58/70 55/64/76 60/59/71
f 52/57/69 53/56/68 59/60/72 58/61/73
f 50/54/66 51/53/65 57/62/74 56/63/75
f 60/59/71 55/64/76 61/65/77 66/66/78
f 58/61/73 59/60/72 65/67/79 64/68/80
f 56/63/75 57/62/74 63/69/81 62/70/82
f 59/60/72 60/59/71 66/66/78 65/67/79
f 57/62/74 58/61/73 64/68/80 63/69/81
f 55/64/76 56/63/75 62/70/82 61/65/77
f 65/67/79 66/66/78 72/71/83 71/72/84
f 63/69/81 64/68/80 70/73/85 69/74/86
f 61/65/77 62/70/82 68/75/87 67/76/88
f 66/66/78 61/65/77 67/76/88 72/71/83
f 64/68/80 65/67/79 71/72/84 70/73/85
f 62/70/82 63/69/81 69/74/86 68/75/87
f 72/71/83 67/76/88 73/77/89 78/78/90
f 70/73/85 71/72/84 77/79/91 76/80/92
f 68/75/87 69/74/86 75/81/93 74/82/94
f 71/72/84 72/71/83 78/78/90 77/79/91
f 69/74/86 70/73/85 76/80/92 75/81/93
f 67/76/88 68/75/87 74/82/94 73/77/89
f 28/107/32 27/107/33 26/107/36 25/107/25
f 29/107/29 28/107/32 25/107/25 30/107/28
f 42/41/41 107/108/119 108/109/120 41/37/37
f 39/39/39 104/45/47 105/49/63 38/40/40
f 41/37/37 108/109/120 103/46/48 40/38/38
f 37/42/42 106/50/121 107/108/119 42/41/41
f 38/40/40 105/49/63 106/50/121 37/42/42
f 40/38/38 103/46/48 104/45/47 39/39/39
f 109/46/122 110/110/61 111/111/46 118/45/123
f 112/49/55 113/112/45 114/113/54 119/50/56
f 119/50/56 114/113/54 115/114/53 120/108/124
f 116/109/125 117/115/62 110/110/61 109/46/122
f 118/45/123 111/111/46 113/112/45 112/49/55
f 120/108/124 115/114/53 117/115/62 116/109/125
f 120/108/124 116/109/125 121/109/126 123/108/127
f 106/50/121 105/49/63 128/49/64 125/50/128
f 44/44/44 43/47/51 114/47/54 113/44/45
f 48/48/52 47/51/59 117/51/62 115/48/53
f 46/52/60 45/43/43 111/43/46 110/52/61
f 119/50/56 120/108/124 123/108/127 126/50/57
f 125/50/128 128/49/64 131/49/58 126/50/57
f 122/109/129 124/108/130 123/108/127 121/109/126
f 124/108/130 125/50/128 126/50/57 123/108/127
f 128/49/64 127/45/50 130/45/131 131/49/58
f 127/45/50 129/46/49 132/46/132 130/45/131
f 129/46/49 122/109/129 121/109/126 132/46/132
f 103/46/48 108/109/120 122/109/129 129/46/49
f 118/45/123 112/49/55 131/49/58 130/45/131
f 109/46/122 118/45/123 130/45/131 132/46/132
f 116/109/125 109/46/122 132/46/132 121/109/126
f 107/108/119 106/50/121 125/50/128 124/108/130
f 108/109/120 107/108/119 124/108/130 122/109/129
usemtl cima
f 77/79/91 78/78/90 84/83/95 83/84/96
f 75/81/93 76/80/92 82/85/97 81/86/98
f 73/77/89 74/82/94 80/87/99 79/88/100
f 78/78/90 73/77/89 79/88/100 84/83/95
f 76/80/92 77/79/91 83/84/96 82/85/97
f 74/82/94 75/81/93 81/86/98 80/87/99
f 82/85/97 83/84/96 89/89/101 88/90/102
f 80/87/99 81/86/98 87/91/103 86/92/104
f 83/84/96 84/83/95 90/93/105 89/89/101
f 81/86/98 82/85/97 88/90/102 87/91/103
f 79/88/100 80/87/99 86/92/104 85/94/106
f 84/83/95 79/88/100 85/94/106 90/93/105
f 87/91/103 88/90/102 94/95/107 93/96/108
f 85/94/106 86/92/104 92/97/109 91/98/110
f 90/93/105 85/94/106 91/98/110 96/99/111
f 88/90/102 89/89/101 95/100/112 94/95/107
f 86/92/104 87/91/103 93/96/108 92/97/109
f 89/89/101 90/93/105 96/99/111 95/100/112
f 92/97/109 93/96/108 99/101/113 98/102/114
f 95/100/112 96/99/111 102/103/115 101/104/116
f 93/96/108 94/95/107 100/105/117 99/101/113
f 91/98/110 92/97/109 98/102/114 97/106/118
f 96/99/111 91/98/110 97/106/118 102/103/115
f 94/95/107 95/100/112 101/104/116 100/105/117
f 101/104/116 102/103/115 97/106/118 100/105/117
f 98/102/114 99/101/113 100/105/117 97/106/118
