# Blender 5.0.0
# www.blender.org
mtllib fungus yellow ball.mtl
o fungo.048
v 5.148847 0.022471 2.603165
v 5.468398 0.266584 2.754439
v 5.026791 0.266584 2.847934
v 4.753860 0.266586 2.603165
v 5.026791 0.266584 2.358396
v 5.468398 0.266584 2.451891
v 5.270902 0.661577 2.847934
v 4.829295 0.661577 2.754439
v 4.829295 0.661577 2.451890
v 5.270902 0.661577 2.358396
v 5.543834 0.661575 2.603165
v 5.148847 0.905689 2.603165
v 5.077104 0.088424 2.747036
v 5.336673 0.088424 2.692081
v 5.264931 0.231910 2.835953
v 5.524500 0.231911 2.603165
v 5.336673 0.088424 2.514249
v 4.916679 0.088425 2.603165
v 4.844935 0.231911 2.747036
v 5.077104 0.088424 2.459294
v 4.844935 0.231910 2.459294
v 5.264932 0.231910 2.370377
v 5.568842 0.464080 2.692081
v 5.568842 0.464080 2.514249
v 5.408418 0.464080 2.835955
v 4.728851 0.464080 2.692081
v 4.889275 0.464080 2.835954
v 4.889275 0.464080 2.370375
v 4.728851 0.464080 2.514248
v 5.408418 0.464080 2.370375
v 5.148847 0.464080 2.315421
v 5.452757 0.696250 2.747036
v 5.032761 0.696251 2.835953
v 4.773192 0.696250 2.603165
v 5.032762 0.696251 2.370377
v 5.452757 0.696250 2.459294
v 5.220589 0.839737 2.747036
v 5.381014 0.839736 2.603165
v 4.961020 0.839737 2.692081
v 4.961020 0.839737 2.514249
v 5.220589 0.839737 2.459294
v 5.216887 0.327359 2.894016
v 5.076798 0.347778 2.902226
v 5.301376 0.464080 2.893320
v 5.220540 0.580383 2.901042
v 4.995688 0.464080 2.895840
v 5.080177 0.600802 2.895143
v 5.198008 0.378318 3.072129
v 5.110240 0.391127 3.078002
v 5.250994 0.464080 3.071255
v 5.200384 0.537034 3.076516
v 5.059288 0.464080 3.074416
v 5.112273 0.549843 3.073542
v 5.223262 0.329288 3.120249
v 5.085318 0.349419 3.129481
v 5.306540 0.464080 3.118877
v 5.226997 0.578742 3.127145
v 5.005235 0.464080 3.123844
v 5.088512 0.598873 3.122470
v 5.598579 1.004300 2.650205
v 5.570554 0.956986 2.566957
v 5.483944 0.932521 2.610018
v 5.511968 0.979835 2.693266
v 5.421884 0.697429 2.679697
v 5.421600 0.731292 2.617503
v 5.463468 0.681211 2.590045
v 5.463751 0.647349 2.652239
v 5.481559 0.713596 2.709002
v 5.474925 0.745439 2.639677
v 5.526526 0.696058 2.612057
v 5.533160 0.664215 2.681382
v 5.546206 0.784949 2.721828
v 5.524827 0.792394 2.654330
v 5.588012 0.768645 2.631698
v 5.609391 0.761201 2.699196
v 5.549450 0.910770 2.704121
v 5.524209 0.886517 2.637016
v 5.593894 0.893437 2.608303
v 5.619136 0.917690 2.675408
v 5.604219 1.043266 2.645772
v 5.567624 0.981480 2.537062
v 5.454522 0.949531 2.593294
v 5.491117 1.011317 2.702004
v 5.639454 1.088609 2.653913
v 5.588383 1.002385 2.502204
v 5.430546 0.957799 2.580678
v 5.481617 1.044024 2.732386
v 5.675481 1.082205 2.671782
v 5.613278 0.977185 2.487003
v 5.421036 0.922881 2.582583
v 5.483238 1.027901 2.767361
v 5.628762 1.117686 2.643693
v 5.578088 1.032132 2.493162
v 5.421476 0.987893 2.571027
v 5.472150 1.073448 2.721558
v 5.565996 1.103235 2.617194
v 5.540448 1.060102 2.541303
v 5.461490 1.037799 2.580559
v 5.487039 1.080932 2.656450
v 5.542625 1.080790 2.610415
v 5.529194 1.058113 2.570516
v 5.487683 1.046387 2.591154
v 5.501114 1.069064 2.631053
v 5.672383 0.672829 2.918212
v 5.658485 0.671720 2.819420
v 5.559695 0.670611 2.833329
v 5.573593 0.671720 2.932121
v 5.412110 0.471005 2.784849
v 5.441035 0.521057 2.743947
v 5.472366 0.471005 2.704856
v 5.443440 0.420954 2.745758
v 5.461874 0.451230 2.827435
v 5.486647 0.504489 2.778304
v 5.527032 0.451230 2.740934
v 5.502261 0.397971 2.790065
v 5.537651 0.482158 2.879748
v 5.541259 0.519820 2.819442
v 5.598228 0.482158 2.799329
v 5.594620 0.444495 2.859636
v 5.583541 0.594244 2.918293
v 5.574084 0.606253 2.844167
v 5.647941 0.594244 2.832798
v 5.657399 0.582235 2.906925
v 5.690463 0.705347 2.931830
v 5.672315 0.703899 2.802822
v 5.543308 0.702451 2.820985
v 5.561456 0.703899 2.949994
v 5.733334 0.727322 2.964124
v 5.708008 0.725302 2.784088
v 5.527975 0.723281 2.809435
v 5.553301 0.725302 2.989471
v 5.758504 0.701528 2.983083
v 5.727658 0.699068 2.763803
v 5.508381 0.696606 2.794676
v 5.539227 0.699067 3.013956
v 5.735478 0.759835 2.965739
v 5.710349 0.757830 2.787101
v 5.531714 0.755825 2.812252
v 5.556843 0.757830 2.990890
v 5.682569 0.781350 2.925885
v 5.669899 0.780340 2.835822
v 5.579839 0.779329 2.848503
v 5.592508 0.780340 2.938564
v 5.656833 0.773753 2.906499
v 5.650172 0.773222 2.859149
v 5.602823 0.772690 2.865815
v 5.609484 0.773222 2.913165
v 5.537058 0.674877 2.149049
v 5.441013 0.670413 2.175689
v 5.467769 0.668159 2.271778
v 5.563814 0.672623 2.245139
v 5.444916 0.464771 2.420390
v 5.399126 0.513959 2.398057
v 5.357754 0.463202 2.371095
v 5.403543 0.414015 2.393428
v 5.481178 0.447158 2.365109
v 5.427685 0.499223 2.348030
v 5.386925 0.445462 2.311803
v 5.440419 0.393397 2.328881
v 5.522185 0.480943 2.283793
v 5.460846 0.516727 2.288838
v 5.434558 0.479365 2.234235
v 5.495898 0.443581 2.229189
v 5.551082 0.594917 2.235526
v 5.478513 0.604416 2.254810
v 5.457925 0.593241 2.182841
v 5.530495 0.583742 2.163556
v 5.547232 0.708097 2.130004
v 5.421810 0.702268 2.164791
v 5.456749 0.699324 2.290271
v 5.582171 0.705154 2.255485
v 5.572972 0.731771 2.083737
v 5.397942 0.723636 2.132283
v 5.446701 0.719528 2.307395
v 5.621731 0.727664 2.258849
v 5.589220 0.706999 2.055797
v 5.376037 0.697091 2.114924
v 5.435424 0.692087 2.328207
v 5.648608 0.701996 2.269080
v 5.573338 0.764349 2.082054
v 5.399667 0.756277 2.130222
v 5.448047 0.752201 2.303975
v 5.621719 0.760273 2.255805
v 5.540143 0.783737 2.140130
v 5.452585 0.779667 2.164415
v 5.476977 0.777613 2.252013
v 5.564535 0.781682 2.227729
v 5.524527 0.775116 2.168017
v 5.478494 0.772977 2.180784
v 5.491317 0.771896 2.226839
v 5.537351 0.774036 2.214071
v 5.297204 0.988667 2.224945
v 5.212156 0.941353 2.246907
v 5.248875 0.916888 2.336391
v 5.333923 0.964202 2.314429
v 5.313908 0.681797 2.403304
v 5.251855 0.715659 2.399112
v 5.227480 0.665579 2.355378
v 5.289534 0.631716 2.359569
v 5.347431 0.697963 2.345891
v 5.277808 0.729806 2.347521
v 5.253972 0.680426 2.294066
v 5.323595 0.648582 2.292437
v 5.364874 0.769317 2.282334
v 5.296013 0.776761 2.298801
v 5.277986 0.753012 2.234152
v 5.346847 0.745568 2.217685
v 5.347446 0.895137 2.277824
v 5.278699 0.870884 2.298173
v 5.255074 0.877804 2.226602
v 5.323821 0.902057 2.206254
v 5.293189 1.027633 2.219000
v 5.182127 0.965847 2.247680
v 5.230077 0.933898 2.364534
v 5.341139 0.995685 2.335854
v 5.303843 1.072976 2.184442
v 5.148854 0.986752 2.224466
v 5.215769 0.942167 2.387540
v 5.370759 1.028391 2.347516
v 5.324258 1.066572 2.149794
v 5.135483 0.961552 2.198542
v 5.216985 0.907248 2.397163
v 5.405759 1.012268 2.348414
v 5.292881 1.102054 2.194371
v 5.139095 1.016499 2.234085
v 5.205490 0.972260 2.395892
v 5.359277 1.057815 2.356179
v 5.261935 1.087603 2.255069
v 5.184403 1.044470 2.275090
v 5.217876 1.022166 2.356668
v 5.295409 1.065299 2.336645
v 5.253492 1.065158 2.277890
v 5.212730 1.042480 2.288416
v 5.230329 1.030755 2.331305
v 5.271091 1.053432 2.320779
v 4.799352 0.979337 2.311013
v 4.753345 0.932022 2.385839
v 4.841874 0.907557 2.424802
v 4.887881 0.954871 2.349977
v 4.935133 0.672466 2.427865
v 4.887538 0.706329 2.467901
v 4.839641 0.656248 2.453319
v 4.887236 0.622386 2.413282
v 4.919439 0.688632 2.363261
v 4.870432 0.720476 2.412742
v 4.816178 0.671095 2.390787
v 4.865185 0.639252 2.341306
v 4.887901 0.759986 2.305389
v 4.849739 0.767430 2.365026
v 4.791900 0.743682 2.330979
v 4.830063 0.736237 2.271342
v 4.872222 0.885807 2.314234
v 4.836835 0.861554 2.376587
v 4.770163 0.868473 2.341439
v 4.805550 0.892726 2.279086
v 4.792335 1.018302 2.309518
v 4.732256 0.956516 2.407231
v 4.847864 0.924568 2.458112
v 4.907943 0.986354 2.360399
v 4.776030 1.063645 2.277240
v 4.692188 0.977421 2.413601
v 4.853523 0.932836 2.484606
v 4.937365 1.019060 2.348245
v 4.766691 1.057241 2.238124
v 4.664573 0.952222 2.404209
v 4.861075 0.897918 2.490692
v 4.963193 1.002938 2.324607
v 4.775025 1.092723 2.291996
v 4.691834 1.007168 2.427299
v 4.851916 0.962929 2.497753
v 4.935107 1.048484 2.362450
v 4.794855 1.078272 2.357177
v 4.752913 1.035139 2.425391
v 4.833620 1.012836 2.460912
v 4.875561 1.055969 2.392697
v 4.804609 1.055827 2.379470
v 4.782558 1.033150 2.415333
v 4.824990 1.021424 2.434008
v 4.847040 1.044101 2.398145
v 5.037397 0.672828 2.109931
v 4.950207 0.671720 2.158419
v 4.998704 0.670611 2.245602
v 5.085894 0.671720 2.197116
v 5.006527 0.471005 2.400749
v 4.957961 0.521057 2.388463
v 4.910219 0.471005 2.373283
v 4.958786 0.420954 2.385569
v 5.028374 0.451230 2.339001
v 4.973622 0.504489 2.333549
v 4.924231 0.451230 2.309300
v 4.978983 0.397971 2.314751
v 5.049945 0.482158 2.249484
v 4.992373 0.519820 2.267799
v 4.953124 0.482158 2.221871
v 5.010696 0.444495 2.203555
v 5.069414 0.594244 2.192804
v 5.003644 0.606253 2.228279
v 4.966482 0.594244 2.163448
v 5.032252 0.582235 2.127972
v 5.043604 0.705347 2.088165
v 4.929747 0.703899 2.151482
v 4.993077 0.702451 2.265332
v 5.106935 0.703899 2.202015
v 5.058325 0.727322 2.036550
v 4.899433 0.725302 2.124910
v 4.987813 0.723281 2.283792
v 5.146705 0.725302 2.195431
v 5.066967 0.701528 2.006246
v 4.873439 0.699068 2.113868
v 4.981084 0.696606 2.307383
v 5.174613 0.699067 2.199762
v 5.059061 0.759835 2.033968
v 4.901402 0.757830 2.121643
v 4.989096 0.755825 2.279291
v 5.146755 0.757830 2.191616
v 5.040894 0.781350 2.097668
v 4.961409 0.780340 2.141870
v 5.005620 0.779329 2.221350
v 5.085105 0.780340 2.177148
v 5.032057 0.773753 2.128653
v 4.990269 0.773222 2.151892
v 5.013513 0.772690 2.193679
v 5.055302 0.773222 2.170439
v 4.474347 0.672829 2.603164
v 4.544887 0.671720 2.673712
v 4.615427 0.670611 2.603164
v 4.544887 0.671720 2.532615
v 4.762479 0.471005 2.553090
v 4.763984 0.521057 2.603164
v 4.762479 0.471005 2.653238
v 4.760974 0.420954 2.603164
v 4.697107 0.451230 2.549016
v 4.706880 0.504489 2.603164
v 4.697107 0.451230 2.657312
v 4.687333 0.397971 2.603164
v 4.605106 0.482158 2.552823
v 4.638508 0.519820 2.603164
v 4.605106 0.482158 2.653505
v 4.571702 0.444495 2.603164
v 4.545260 0.594244 2.549646
v 4.597413 0.606253 2.603164
v 4.545260 0.594244 2.656682
v 4.493105 0.582235 2.603164
v 4.451712 0.705347 2.603164
v 4.543828 0.703899 2.695291
v 4.635943 0.702451 2.603164
v 4.543828 0.703899 2.511037
v 4.398038 0.727322 2.603164
v 4.526589 0.725302 2.731730
v 4.655139 0.723281 2.603164
v 4.526589 0.725302 2.474598
v 4.366527 0.701528 2.603164
v 4.523098 0.699068 2.759755
v 4.679671 0.696606 2.603164
v 4.523099 0.699067 2.446573
v 4.395355 0.759835 2.603164
v 4.522906 0.757830 2.730731
v 4.650459 0.755825 2.603164
v 4.522906 0.757830 2.475596
v 4.461594 0.781350 2.603164
v 4.525901 0.780340 2.667478
v 4.590208 0.779329 2.603164
v 4.525901 0.780340 2.538850
v 4.493815 0.773753 2.603164
v 4.527624 0.773222 2.636977
v 4.561432 0.772690 2.603164
v 4.527624 0.773222 2.569351
v 4.703718 1.004300 2.772829
v 4.776190 0.956986 2.822462
v 4.819461 0.932521 2.735956
v 4.746990 0.979835 2.686323
v 4.827109 0.697429 2.642961
v 4.864755 0.731292 2.692468
v 4.847834 0.681212 2.739590
v 4.810187 0.647349 2.690083
v 4.761811 0.713596 2.655457
v 4.808821 0.745439 2.706839
v 4.784223 0.696059 2.759948
v 4.737213 0.664215 2.708566
v 4.702457 0.784949 2.684110
v 4.760145 0.792394 2.725160
v 4.723293 0.768645 2.781253
v 4.665606 0.761201 2.740202
v 4.710520 0.910770 2.700205
v 4.771057 0.886517 2.738617
v 4.732671 0.893437 2.803479
v 4.672134 0.917690 2.765067
v 4.701880 1.043266 2.779763
v 4.796518 0.981480 2.844577
v 4.853025 0.949531 2.731612
v 4.758387 1.011317 2.666798
v 4.668838 1.088609 2.794460
v 4.800909 1.002385 2.884910
v 4.879766 0.957799 2.727264
v 4.747695 1.044024 2.636815
v 4.629310 1.082205 2.801864
v 4.790170 0.977185 2.912030
v 4.886216 0.922881 2.720020
v 4.725357 1.027901 2.609854
v 4.683527 1.117686 2.796190
v 4.814572 1.032132 2.885937
v 4.892817 0.987893 2.729516
v 4.761772 1.073448 2.639768
v 4.749605 1.103235 2.779592
v 4.815672 1.060102 2.824839
v 4.855121 1.037799 2.745977
v 4.789053 1.080932 2.700730
v 4.772351 1.080790 2.770946
v 4.807085 1.058113 2.794734
v 4.827825 1.046387 2.753273
v 4.793090 1.069065 2.729485
vn 0.0028 -1.0000 -0.0000
vn 0.4127 -0.8174 0.4020
vn -0.1499 -0.7648 0.6266
vn 0.6434 -0.3977 0.6541
vn 0.8506 -0.5257 -0.0000
vn -0.5257 -0.8507 -0.0000
vn -0.1499 -0.7648 -0.6266
vn 0.4127 -0.8174 -0.4020
vn 0.9156 -0.0036 0.4020
vn -0.5427 -0.0057 0.8399
vn -0.2683 -0.4348 0.8597
vn -0.3918 -0.6314 0.6692
vn -0.6964 -0.0013 0.7176
vn -0.8957 -0.4447 -0.0000
vn -0.6170 -0.4761 0.6266
vn -0.9156 0.0036 0.4020
vn -0.2083 -0.3370 -0.9182
vn -0.6170 -0.4761 -0.6266
vn -0.4571 -0.0033 -0.8894
vn 0.6434 -0.3977 -0.6541
vn 0.2015 -0.4103 -0.8894
vn 0.4571 0.0033 -0.8894
vn 0.5387 0.0055 0.8425
vn -0.2372 0.4871 0.8405
vn -0.3140 0.6253 0.7144
vn -0.0000 -0.0000 -1.0000
vn 0.9156 -0.0036 -0.4020
vn 0.2674 0.4320 0.8613
vn 0.6170 0.4761 0.6266
vn 0.1499 0.7648 0.6266
vn -0.6434 0.3977 0.6541
vn -0.4127 0.8174 0.4020
vn -0.6434 0.3977 -0.6541
vn -0.8506 0.5257 -0.0000
vn -0.4127 0.8174 -0.4020
vn 0.2083 0.3370 -0.9182
vn -0.2015 0.4103 -0.8894
vn 0.1499 0.7648 -0.6266
vn 0.8957 0.4447 -0.0000
vn 0.6170 0.4761 -0.6266
vn 0.5257 0.8507 -0.0000
vn -0.0028 1.0000 -0.0000
vn -0.9156 0.0036 -0.4020
vn 0.3932 0.6390 0.6611
vn 0.2364 -0.4851 0.8419
vn 0.7076 0.0009 0.7066
vn 0.3117 -0.6314 0.7101
vn 0.3817 -0.8631 -0.3308
vn -0.5064 -0.8157 -0.2796
vn 0.9376 0.0427 -0.3452
vn 0.4989 0.8110 -0.3056
vn -0.9542 -0.0434 -0.2961
vn -0.3874 0.8679 -0.3109
vn -0.4122 0.8735 0.2591
vn 0.4990 0.7976 0.3387
vn 0.4201 -0.8736 0.2455
vn -0.4870 -0.7979 0.3551
vn 0.9714 0.0181 0.2366
vn -0.9632 -0.0188 0.2681
vn -0.2739 0.0664 0.9595
vn 0.9056 0.1669 0.3899
vn 0.9097 0.0721 0.4089
vn -0.2109 -0.2260 0.9510
vn -0.8513 -0.4162 -0.3195
vn -0.5743 -0.8098 -0.1199
vn 0.5427 -0.2521 -0.8012
vn 0.5384 -0.5183 -0.6644
vn -0.2707 -0.9614 0.0484
vn -0.1763 -0.3278 -0.9282
vn 0.4536 -0.2770 -0.8471
vn 0.4339 -0.8296 0.3513
vn -0.7499 0.4961 -0.4376
vn -0.8496 -0.0652 0.5234
vn -0.3698 0.0441 0.9281
vn -0.3774 0.8647 -0.3315
vn 0.5566 -0.2080 -0.8043
vn 0.8366 -0.3186 0.4457
vn -0.2612 0.1109 0.9589
vn -0.8223 0.3541 -0.4455
vn 0.7678 -0.4654 0.4403
vn -0.1076 -0.5890 0.8010
vn -0.3843 -0.9231 -0.0113
vn 0.4457 -0.8048 -0.3920
vn 0.2716 -0.6902 0.6707
vn 0.0703 -0.9754 0.2090
vn 0.6440 -0.6427 0.4150
vn 0.5837 -0.8119 -0.0022
vn -0.3616 -0.9323 0.0009
vn 0.5321 -0.6860 -0.4962
vn -0.1125 -0.4346 0.8936
vn 0.8913 -0.1248 0.4360
vn 0.3343 0.9424 -0.0154
vn -0.5758 0.6898 0.4389
vn 0.0418 0.4490 -0.8926
vn -0.8769 0.1908 -0.4412
vn -0.5621 0.7281 -0.3924
vn -0.3326 0.7915 -0.5127
vn -0.4926 0.8539 -0.1677
vn -0.2505 0.9256 -0.2836
vn -0.3219 0.8125 -0.4860
vn -0.2570 0.9231 -0.2862
vn -0.5340 0.7533 -0.3840
vn -0.4630 0.8675 -0.1819
vn -0.5222 -0.1593 0.8378
vn 0.7487 -0.3485 0.5639
vn 0.7183 -0.4374 0.5410
vn -0.5498 -0.4310 0.7155
vn -0.7955 0.0904 -0.5992
vn -0.7238 -0.4229 -0.5452
vn 0.6612 -0.1593 -0.7331
vn 0.5359 -0.4310 -0.7259
vn -0.5463 -0.7296 -0.4115
vn 0.0277 0.1041 -0.9942
vn 0.5872 -0.1297 -0.7990
vn 0.0370 -0.9989 0.0278
vn -0.3956 0.8688 -0.2980
vn -0.9479 0.1041 0.3010
vn -0.6059 -0.1297 0.7849
vn 0.0185 0.9997 0.0140
vn 0.6878 -0.1261 -0.7148
vn 0.5243 -0.7544 0.3950
vn -0.4972 -0.1261 0.8584
vn -0.5009 0.7789 -0.3773
vn 0.4200 -0.8506 0.3164
vn -0.5187 -0.7310 0.4435
vn -0.6192 -0.6317 -0.4664
vn 0.2831 -0.7310 -0.6209
vn -0.1661 -0.9236 0.3454
vn -0.2915 -0.9310 -0.2196
vn 0.2630 -0.9442 0.1981
vn 0.2861 -0.9236 -0.2550
vn -0.6052 -0.6526 -0.4559
vn 0.4286 -0.6286 -0.6490
vn -0.5055 -0.6285 0.5911
vn 0.6346 -0.6073 0.4780
vn 0.5879 0.6770 0.4428
vn -0.4494 0.6685 0.5926
vn 0.4455 0.6685 -0.5954
vn -0.6002 0.6598 -0.4521
vn -0.1705 0.9770 -0.1284
vn 0.0927 0.9808 -0.1714
vn -0.1391 0.9808 0.1364
vn 0.1367 0.9853 0.1030
vn 0.1005 0.9855 -0.1369
vn 0.1308 0.9865 0.0985
vn -0.1402 0.9845 -0.1056
vn -0.1039 0.9855 0.1344
vn 0.9033 -0.1410 0.4052
vn 0.4710 -0.3184 -0.8227
vn 0.4549 -0.4085 -0.7913
vn 0.7937 -0.4169 0.4430
vn -0.4922 0.0585 0.8685
vn -0.4331 -0.4515 0.7801
vn -0.8084 -0.1718 -0.5629
vn -0.7769 -0.4452 -0.4452
vn -0.3148 -0.7509 0.5805
vn -0.9919 0.0729 0.1043
vn -0.8648 -0.1455 -0.4805
vn 0.0521 -0.9968 -0.0603
vn -0.2689 0.8524 0.4484
vn 0.4194 0.0983 0.9025
vn 0.8610 -0.1144 0.4956
vn -0.0179 0.9998 -0.0001
vn -0.7947 -0.1377 -0.5911
vn 0.3448 -0.7330 -0.5864
vn 0.9195 -0.1068 0.3784
vn -0.3311 0.7584 0.5614
vn 0.2835 -0.8333 -0.4747
vn 0.5289 -0.7248 0.4416
vn -0.3626 -0.6560 0.6620
vn -0.6309 -0.7456 -0.2143
vn 0.3911 -0.9148 0.1011
vn -0.1521 -0.9421 0.2989
vn 0.1896 -0.9331 -0.3055
vn -0.2631 -0.9265 -0.2689
vn -0.3533 -0.6764 0.6463
vn -0.6808 -0.6418 -0.3529
vn 0.6704 -0.6175 0.4113
vn 0.4084 -0.5816 -0.7036
vn 0.3420 0.7000 -0.6269
vn 0.6264 0.6797 0.3816
vn -0.6680 0.6564 -0.3505
vn -0.3888 0.6354 0.6672
vn -0.1336 0.9695 0.2053
vn -0.2107 0.9763 -0.0499
vn 0.1246 0.9823 0.1398
vn 0.0552 0.9901 -0.1291
vn -0.1778 0.9821 -0.0620
vn 0.0516 0.9911 -0.1227
vn -0.1152 0.9783 0.1725
vn 0.1179 0.9874 0.1052
vn 0.9373 0.0664 0.3423
vn 0.4540 0.1669 -0.8752
vn 0.4733 0.0721 -0.8779
vn 0.9334 -0.2260 0.2788
vn -0.3800 -0.4162 0.8261
vn -0.1609 -0.8098 0.5642
vn -0.7601 -0.2521 -0.5989
vn -0.6240 -0.5183 -0.5848
vn 0.0288 -0.9614 0.2735
vn -0.9384 -0.3278 0.1090
vn -0.8123 -0.2770 -0.5133
vn 0.3817 -0.8296 -0.4075
vn -0.4904 0.4961 0.7165
vn 0.4610 -0.0652 0.8850
vn 0.8990 0.0441 0.4356
vn -0.3578 0.8647 0.3525
vn -0.7622 -0.2080 -0.6131
vn 0.5047 -0.3186 -0.8023
vn 0.9376 0.1109 0.3295
vn -0.5035 0.3541 0.7881
vn 0.4944 -0.4654 -0.7341
vn 0.7911 -0.5890 0.1649
vn -0.0389 -0.9231 0.3825
vn -0.3589 -0.8048 -0.4728
vn 0.6885 -0.6902 -0.2227
vn 0.2135 -0.9754 -0.0550
vn 0.4602 -0.6427 -0.6125
vn 0.0398 -0.8119 -0.5824
vn -0.0251 -0.9323 0.3608
vn -0.4567 -0.6860 -0.5665
vn 0.8832 -0.4346 0.1765
vn 0.4990 -0.1248 -0.8576
vn 0.0087 0.9424 -0.3345
vn 0.3963 0.6898 0.6059
vn -0.8873 0.4490 -0.1059
vn -0.5032 0.1908 0.8429
vn -0.4318 0.7281 0.5324
vn -0.5353 0.7915 0.2949
vn -0.2027 0.8539 0.4793
vn -0.3009 0.9256 0.2295
vn -0.5079 0.8125 0.2861
vn -0.3039 0.9231 0.2358
vn -0.4214 0.7533 0.5050
vn -0.2148 0.8675 0.4487
vn 0.9124 0.0664 -0.4038
vn -0.2803 0.1669 -0.9453
vn -0.2683 0.0721 -0.9606
vn 0.8656 -0.2260 -0.4469
vn 0.2995 -0.4162 0.8585
vn 0.2756 -0.8098 0.5179
vn -0.9629 -0.2521 0.0961
vn -0.8551 -0.5183 0.0118
vn 0.2105 -0.9614 0.1770
vn -0.6001 -0.3278 0.7296
vn -0.9411 -0.2770 0.1939
vn -0.0079 -0.8296 -0.5583
vn 0.1440 0.4961 0.8562
vn 0.9460 -0.0652 0.3175
vn 0.9497 0.0441 -0.3101
vn -0.0130 0.8647 0.5021
vn -0.9742 -0.2080 0.0873
vn -0.1932 -0.3186 -0.9280
vn 0.9038 0.1109 -0.4133
vn 0.1843 0.3541 0.9169
vn -0.1533 -0.4655 -0.8717
vn 0.6842 -0.5890 -0.4302
vn 0.2374 -0.9231 0.3025
vn -0.5865 -0.8048 -0.0914
vn 0.3413 -0.6902 -0.6380
vn 0.1156 -0.9754 -0.1878
vn -0.0935 -0.6427 -0.7604
vn -0.3754 -0.8119 -0.4470
vn 0.2322 -0.9323 0.2772
vn -0.7219 -0.6860 -0.0911
vn 0.7585 -0.4346 -0.4857
vn -0.2357 -0.1248 -0.9638
vn -0.2259 0.9424 -0.2469
vn 0.7058 0.6898 0.1613
vn -0.7124 0.4490 0.5394
vn 0.2225 0.1908 0.9561
vn 0.0584 0.7281 0.6830
vn -0.1809 0.7915 0.5838
vn 0.1865 0.8539 0.4858
vn -0.0575 0.9256 0.3740
vn -0.1672 0.8125 0.5585
vn -0.0553 0.9231 0.3807
vn 0.0470 0.7533 0.6561
vn 0.1566 0.8675 0.4721
vn 0.9695 -0.1593 0.1861
vn 0.2571 -0.3485 -0.9014
vn 0.2466 -0.4374 -0.8648
vn 0.8653 -0.4310 0.2558
vn -0.2731 0.0904 0.9577
vn -0.2485 -0.4229 0.8714
vn -0.9218 -0.1593 -0.3534
vn -0.8701 -0.4310 -0.2391
vn -0.1876 -0.7296 0.6577
vn -0.9377 0.1041 0.3316
vn -0.9567 -0.1297 -0.2607
vn 0.0127 -0.9989 -0.0445
vn -0.1358 0.8688 0.4762
vn 0.6217 0.1041 0.7763
vn 0.9503 -0.1297 0.2831
vn 0.0064 0.9997 -0.0223
vn -0.9143 -0.1261 -0.3849
vn 0.1800 -0.7544 -0.6313
vn 0.9798 -0.1261 0.1553
vn -0.1720 0.7789 0.6031
vn 0.1442 -0.8506 -0.5057
vn 0.6003 -0.7310 0.3245
vn -0.2126 -0.6317 0.7455
vn -0.6812 -0.7310 -0.0410
vn 0.3820 -0.9236 0.0309
vn -0.1001 -0.9310 0.3510
vn 0.0903 -0.9442 -0.3167
vn -0.3409 -0.9236 -0.1753
vn -0.2078 -0.6526 0.7286
vn -0.7597 -0.6285 -0.1666
vn 0.7333 -0.6286 0.2592
vn 0.2179 -0.6073 -0.7640
vn 0.2019 0.6770 -0.7078
vn 0.7145 0.6685 0.2063
vn -0.7158 0.6685 -0.2017
vn -0.2061 0.6598 0.7227
vn -0.0585 0.9770 0.2052
vn -0.1932 0.9808 -0.0249
vn 0.1773 0.9808 0.0808
vn 0.0469 0.9853 -0.1646
vn -0.1639 0.9855 -0.0445
vn 0.0449 0.9865 -0.1575
vn -0.0481 0.9845 0.1688
vn 0.1627 0.9855 0.0486
vn -0.0870 -0.1593 -0.9834
vn -0.9373 -0.3485 -0.0000
vn -0.8992 -0.4374 -0.0000
vn 0.0087 -0.4310 -0.9023
vn 0.9959 0.0904 -0.0000
vn 0.9062 -0.4229 -0.0000
vn -0.0870 -0.1593 0.9834
vn 0.0087 -0.4310 0.9023
vn 0.6839 -0.7296 -0.0000
vn 0.5760 0.1041 0.8108
vn 0.0117 -0.1297 0.9915
vn -0.0463 -0.9989 -0.0000
vn 0.4952 0.8688 -0.0000
vn 0.5760 0.1041 -0.8108
vn 0.0117 -0.1297 -0.9915
vn -0.0232 0.9997 -0.0000
vn -0.1193 -0.1261 0.9848
vn -0.6564 -0.7544 -0.0000
vn -0.1193 -0.1261 -0.9848
vn 0.6271 0.7789 -0.0000
vn -0.5258 -0.8506 -0.0000
vn 0.1474 -0.7310 -0.6663
vn 0.7752 -0.6317 -0.0000
vn 0.1474 -0.7310 0.6663
vn -0.0751 -0.9236 -0.3759
vn 0.3650 -0.9310 -0.0000
vn -0.3293 -0.9442 -0.0000
vn -0.0751 -0.9236 0.3759
vn 0.7577 -0.6526 -0.0000
vn 0.0481 -0.6285 0.7763
vn 0.0481 -0.6285 -0.7763
vn -0.7944 -0.6073 -0.0000
vn -0.7360 0.6770 -0.0000
vn 0.0024 0.6685 -0.7437
vn 0.0024 0.6685 0.7437
vn 0.7515 0.6598 -0.0000
vn 0.2134 0.9770 -0.0000
vn 0.0290 0.9808 0.1927
vn 0.0290 0.9808 -0.1927
vn -0.1711 0.9853 -0.0000
vn 0.0021 0.9855 0.1698
vn -0.1637 0.9865 -0.0000
vn 0.1755 0.9845 -0.0000
vn 0.0021 0.9855 -0.1698
vn -0.3585 0.0664 -0.9312
vn -0.9579 0.1669 0.2335
vn -0.9727 0.0721 0.2207
vn -0.4038 -0.2260 -0.8865
vn 0.8722 -0.4162 -0.2569
vn 0.5309 -0.8098 -0.2498
vn 0.0486 -0.2521 0.9665
vn -0.0303 -0.5183 0.8547
vn 0.1871 -0.9614 -0.2015
vn 0.6992 -0.3278 0.6353
vn 0.1474 -0.2770 0.9495
vn -0.5580 -0.8296 -0.0196
vn 0.8623 0.4961 -0.1017
vn 0.3636 -0.0652 -0.9293
vn -0.2630 0.0441 -0.9638
vn 0.5009 0.8647 0.0377
vn 0.0393 -0.2080 0.9773
vn -0.9363 -0.3186 0.1474
vn -0.3683 0.1109 -0.9231
vn 0.9248 0.3541 -0.1389
vn -0.8782 -0.4654 0.1102
vn -0.3960 -0.5890 -0.7045
vn 0.3138 -0.9231 -0.2222
vn -0.1202 -0.8048 0.5813
vn -0.6205 -0.6902 -0.3723
vn -0.1819 -0.9754 -0.1247
vn -0.7640 -0.6427 0.0560
vn -0.4649 -0.8119 0.3530
vn 0.2883 -0.9323 -0.2183
vn -0.1265 -0.6860 0.7166
vn -0.4478 -0.4346 -0.7814
vn -0.9742 -0.1248 0.1880
vn -0.2577 0.9424 0.2134
vn 0.1959 0.6898 -0.6970
vn 0.5037 0.4490 0.7381
vn 0.9659 0.1908 -0.1751
vn 0.6851 0.7281 -0.0247
vn 0.5742 0.7915 0.2094
vn 0.4944 0.8539 -0.1624
vn 0.3708 0.9256 0.0758
vn 0.5496 0.8125 0.1945
vn 0.3775 0.9231 0.0740
vn 0.6576 0.7533 -0.0146
vn 0.4793 0.8675 -0.1332
vt 0.000000 0.000000
s 1
usemtl Material.029
f 1/1/1 14/1/2 13/1/3
f 2/1/4 14/1/2 16/1/5
f 1/1/1 13/1/3 18/1/6
f 1/1/1 18/1/6 20/1/7
f 1/1/1 20/1/7 17/1/8
f 2/1/4 16/1/5 23/1/9
f 27/1/10 3/1/11 43/1/12 46/1/13
f 4/1/14 19/1/15 26/1/16
f 5/1/17 21/1/18 28/1/19
f 6/1/20 22/1/21 30/1/22
f 2/1/4 23/1/9 25/1/23
f 33/1/24 27/1/10 46/1/13 47/1/25
f 5/1/17 28/1/19 31/1/26
f 6/1/20 30/1/22 24/1/27
f 7/1/28 32/1/29 37/1/30
f 8/1/31 33/1/24 39/1/32
f 9/1/33 34/1/34 40/1/35
f 10/1/36 35/1/37 41/1/38
f 11/1/39 36/1/40 38/1/41
f 38/1/41 41/1/38 12/1/42
f 38/1/41 36/1/40 41/1/38
f 36/1/40 10/1/36 41/1/38
f 41/1/38 40/1/35 12/1/42
f 41/1/38 35/1/37 40/1/35
f 35/1/37 9/1/33 40/1/35
f 40/1/35 39/1/32 12/1/42
f 40/1/35 34/1/34 39/1/32
f 39/1/32 37/1/30 12/1/42
f 39/1/32 33/1/24 37/1/30
f 33/1/24 7/1/28 37/1/30
f 37/1/30 38/1/41 12/1/42
f 37/1/30 32/1/29 38/1/41
f 32/1/29 11/1/39 38/1/41
f 24/1/27 36/1/40 11/1/39
f 24/1/27 30/1/22 36/1/40
f 30/1/22 10/1/36 36/1/40
f 31/1/26 35/1/37 10/1/36
f 31/1/26 28/1/19 35/1/37
f 28/1/19 9/1/33 35/1/37
f 29/1/43 34/1/34 9/1/33
f 27/1/10 33/1/24 8/1/31
f 7/1/28 33/1/24 47/1/25 45/1/44
f 15/1/45 25/1/23 44/1/46 42/1/47
f 25/1/23 32/1/29 7/1/28
f 25/1/23 23/1/9 32/1/29
f 23/1/9 11/1/39 32/1/29
f 30/1/22 31/1/26 10/1/36
f 30/1/22 22/1/21 31/1/26
f 22/1/21 5/1/17 31/1/26
f 28/1/19 29/1/43 9/1/33
f 28/1/19 21/1/18 29/1/43
f 21/1/18 4/1/14 29/1/43
f 26/1/16 27/1/10 8/1/31
f 26/1/16 19/1/15 27/1/10
f 19/1/15 3/1/11 27/1/10
f 25/1/23 7/1/28 45/1/44 44/1/46
f 3/1/11 15/1/45 42/1/47 43/1/12
f 15/1/45 2/1/4 25/1/23
f 23/1/9 24/1/27 11/1/39
f 23/1/9 16/1/5 24/1/27
f 16/1/5 6/1/20 24/1/27
f 17/1/8 22/1/21 6/1/20
f 17/1/8 20/1/7 22/1/21
f 20/1/7 5/1/17 22/1/21
f 20/1/7 21/1/18 5/1/17
f 20/1/7 18/1/6 21/1/18
f 18/1/6 4/1/14 21/1/18
f 18/1/6 19/1/15 4/1/14
f 18/1/6 13/1/3 19/1/15
f 13/1/3 3/1/11 19/1/15
f 16/1/5 17/1/8 6/1/20
f 16/1/5 14/1/2 17/1/8
f 14/1/2 1/1/1 17/1/8
f 13/1/3 15/1/45 3/1/11
f 13/1/3 14/1/2 15/1/45
f 14/1/2 2/1/4 15/1/45
f 29/1/43 26/1/16 34/1/34
f 26/1/16 8/1/31 34/1/34
f 39/1/32 34/1/34 8/1/31
f 43/1/12 42/1/47 48/1/48 49/1/49
f 42/1/47 44/1/46 50/1/50 48/1/48
f 44/1/46 45/1/44 51/1/51 50/1/50
f 46/1/13 43/1/12 49/1/49 52/1/52
f 47/1/25 46/1/13 52/1/52 53/1/53
f 45/1/44 47/1/25 53/1/53 51/1/51
f 51/1/51 53/1/53 59/1/54 57/1/55
f 49/1/49 48/1/48 54/1/56 55/1/57
f 48/1/48 50/1/50 56/1/58 54/1/56
f 50/1/50 51/1/51 57/1/55 56/1/58
f 52/1/52 49/1/49 55/1/57 58/1/59
f 53/1/53 52/1/52 58/1/59 59/1/54
f 59/1/54 58/1/59 55/1/57 57/1/55
f 54/1/56 56/1/58 57/1/55 55/1/57
f 26/1/16 29/1/43 4/1/14
f 76/1/60 79/1/61 60/1/62 63/1/63
f 77/1/64 76/1/60 63/1/63 62/1/65
f 79/1/61 78/1/66 61/1/67 60/1/62
f 78/1/66 77/1/64 62/1/65 61/1/67
f 67/1/68 66/1/69 70/1/70 71/1/71
f 65/1/72 64/1/73 68/1/74 69/1/75
f 64/1/73 67/1/68 71/1/71 68/1/74
f 66/1/69 65/1/72 69/1/75 70/1/70
f 71/1/71 70/1/70 74/1/76 75/1/77
f 69/1/75 68/1/74 72/1/78 73/1/79
f 68/1/74 71/1/71 75/1/77 72/1/78
f 70/1/70 69/1/75 73/1/79 74/1/76
f 72/1/78 75/1/77 79/1/61 76/1/60
f 74/1/76 73/1/79 77/1/64 78/1/66
f 75/1/77 74/1/76 78/1/66 79/1/61
f 73/1/79 72/1/78 76/1/60 77/1/64
f 63/1/63 60/1/62 80/1/80 83/1/81
f 62/1/65 63/1/63 83/1/81 82/1/82
f 60/1/62 61/1/67 81/1/83 80/1/80
f 61/1/67 62/1/65 82/1/82 81/1/83
f 80/1/80 81/1/83 85/1/84 84/1/85
f 81/1/83 82/1/82 86/1/86 85/1/84
f 82/1/82 83/1/81 87/1/87 86/1/86
f 83/1/81 80/1/80 84/1/85 87/1/87
f 64/1/73 65/1/72 66/1/69 67/1/68
f 120/1/104 123/1/105 104/1/106 107/1/107
f 121/1/108 120/1/104 107/1/107 106/1/109
f 123/1/105 122/1/110 105/1/111 104/1/106
f 122/1/110 121/1/108 106/1/109 105/1/111
f 111/1/112 110/1/113 114/1/114 115/1/115
f 109/1/116 108/1/117 112/1/118 113/1/119
f 108/1/117 111/1/112 115/1/115 112/1/118
f 110/1/113 109/1/116 113/1/119 114/1/114
f 115/1/115 114/1/114 118/1/120 119/1/121
f 113/1/119 112/1/118 116/1/122 117/1/123
f 112/1/118 115/1/115 119/1/121 116/1/122
f 114/1/114 113/1/119 117/1/123 118/1/120
f 116/1/122 119/1/121 123/1/105 120/1/104
f 118/1/120 117/1/123 121/1/108 122/1/110
f 119/1/121 118/1/120 122/1/110 123/1/105
f 117/1/123 116/1/122 120/1/104 121/1/108
f 107/1/107 104/1/106 124/1/124 127/1/125
f 106/1/109 107/1/107 127/1/125 126/1/126
f 104/1/106 105/1/111 125/1/127 124/1/124
f 105/1/111 106/1/109 126/1/126 125/1/127
f 124/1/124 125/1/127 129/1/128 128/1/129
f 125/1/127 126/1/126 130/1/130 129/1/128
f 126/1/126 127/1/125 131/1/131 130/1/130
f 127/1/125 124/1/124 128/1/129 131/1/131
f 111/1/112 108/1/117 109/1/116 110/1/113
f 164/1/148 167/1/149 148/1/150 151/1/151
f 165/1/152 164/1/148 151/1/151 150/1/153
f 167/1/149 166/1/154 149/1/155 148/1/150
f 166/1/154 165/1/152 150/1/153 149/1/155
f 155/1/156 154/1/157 158/1/158 159/1/159
f 153/1/160 152/1/161 156/1/162 157/1/163
f 152/1/161 155/1/156 159/1/159 156/1/162
f 154/1/157 153/1/160 157/1/163 158/1/158
f 159/1/159 158/1/158 162/1/164 163/1/165
f 157/1/163 156/1/162 160/1/166 161/1/167
f 156/1/162 159/1/159 163/1/165 160/1/166
f 158/1/158 157/1/163 161/1/167 162/1/164
f 160/1/166 163/1/165 167/1/149 164/1/148
f 162/1/164 161/1/167 165/1/152 166/1/154
f 163/1/165 162/1/164 166/1/154 167/1/149
f 161/1/167 160/1/166 164/1/148 165/1/152
f 151/1/151 148/1/150 168/1/168 171/1/169
f 150/1/153 151/1/151 171/1/169 170/1/170
f 148/1/150 149/1/155 169/1/171 168/1/168
f 149/1/155 150/1/153 170/1/170 169/1/171
f 168/1/168 169/1/171 173/1/172 172/1/173
f 169/1/171 170/1/170 174/1/174 173/1/172
f 170/1/170 171/1/169 175/1/175 174/1/174
f 171/1/169 168/1/168 172/1/173 175/1/175
f 155/1/156 152/1/161 153/1/160 154/1/157
f 208/1/192 211/1/193 192/1/194 195/1/195
f 209/1/196 208/1/192 195/1/195 194/1/197
f 211/1/193 210/1/198 193/1/199 192/1/194
f 210/1/198 209/1/196 194/1/197 193/1/199
f 199/1/200 198/1/201 202/1/202 203/1/203
f 197/1/204 196/1/205 200/1/206 201/1/207
f 196/1/205 199/1/200 203/1/203 200/1/206
f 198/1/201 197/1/204 201/1/207 202/1/202
f 203/1/203 202/1/202 206/1/208 207/1/209
f 201/1/207 200/1/206 204/1/210 205/1/211
f 200/1/206 203/1/203 207/1/209 204/1/210
f 202/1/202 201/1/207 205/1/211 206/1/208
f 204/1/210 207/1/209 211/1/193 208/1/192
f 206/1/208 205/1/211 209/1/196 210/1/198
f 207/1/209 206/1/208 210/1/198 211/1/193
f 205/1/211 204/1/210 208/1/192 209/1/196
f 195/1/195 192/1/194 212/1/212 215/1/213
f 194/1/197 195/1/195 215/1/213 214/1/214
f 192/1/194 193/1/199 213/1/215 212/1/212
f 193/1/199 194/1/197 214/1/214 213/1/215
f 212/1/212 213/1/215 217/1/216 216/1/217
f 213/1/215 214/1/214 218/1/218 217/1/216
f 214/1/214 215/1/213 219/1/219 218/1/218
f 215/1/213 212/1/212 216/1/217 219/1/219
f 196/1/205 197/1/204 198/1/201 199/1/200
f 252/1/236 255/1/237 236/1/238 239/1/239
f 253/1/240 252/1/236 239/1/239 238/1/241
f 255/1/237 254/1/242 237/1/243 236/1/238
f 254/1/242 253/1/240 238/1/241 237/1/243
f 243/1/244 242/1/245 246/1/246 247/1/247
f 241/1/248 240/1/249 244/1/250 245/1/251
f 240/1/249 243/1/244 247/1/247 244/1/250
f 242/1/245 241/1/248 245/1/251 246/1/246
f 247/1/247 246/1/246 250/1/252 251/1/253
f 245/1/251 244/1/250 248/1/254 249/1/255
f 244/1/250 247/1/247 251/1/253 248/1/254
f 246/1/246 245/1/251 249/1/255 250/1/252
f 248/1/254 251/1/253 255/1/237 252/1/236
f 250/1/252 249/1/255 253/1/240 254/1/242
f 251/1/253 250/1/252 254/1/242 255/1/237
f 249/1/255 248/1/254 252/1/236 253/1/240
f 239/1/239 236/1/238 256/1/256 259/1/257
f 238/1/241 239/1/239 259/1/257 258/1/258
f 236/1/238 237/1/243 257/1/259 256/1/256
f 237/1/243 238/1/241 258/1/258 257/1/259
f 256/1/256 257/1/259 261/1/260 260/1/261
f 257/1/259 258/1/258 262/1/262 261/1/260
f 258/1/258 259/1/257 263/1/263 262/1/262
f 259/1/257 256/1/256 260/1/261 263/1/263
f 240/1/249 241/1/248 242/1/245 243/1/244
f 296/1/280 299/1/281 280/1/282 283/1/283
f 297/1/284 296/1/280 283/1/283 282/1/285
f 299/1/281 298/1/286 281/1/287 280/1/282
f 298/1/286 297/1/284 282/1/285 281/1/287
f 287/1/288 286/1/289 290/1/290 291/1/291
f 285/1/292 284/1/293 288/1/294 289/1/295
f 284/1/293 287/1/288 291/1/291 288/1/294
f 286/1/289 285/1/292 289/1/295 290/1/290
f 291/1/291 290/1/290 294/1/296 295/1/297
f 289/1/295 288/1/294 292/1/298 293/1/299
f 288/1/294 291/1/291 295/1/297 292/1/298
f 290/1/290 289/1/295 293/1/299 294/1/296
f 292/1/298 295/1/297 299/1/281 296/1/280
f 294/1/296 293/1/299 297/1/284 298/1/286
f 295/1/297 294/1/296 298/1/286 299/1/281
f 293/1/299 292/1/298 296/1/280 297/1/284
f 283/1/283 280/1/282 300/1/300 303/1/301
f 282/1/285 283/1/283 303/1/301 302/1/302
f 280/1/282 281/1/287 301/1/303 300/1/300
f 281/1/287 282/1/285 302/1/302 301/1/303
f 300/1/300 301/1/303 305/1/304 304/1/305
f 301/1/303 302/1/302 306/1/306 305/1/304
f 302/1/302 303/1/301 307/1/307 306/1/306
f 303/1/301 300/1/300 304/1/305 307/1/307
f 287/1/288 284/1/293 285/1/292 286/1/289
f 340/1/324 343/1/325 324/1/326 327/1/327
f 341/1/328 340/1/324 327/1/327 326/1/329
f 343/1/325 342/1/330 325/1/331 324/1/326
f 342/1/330 341/1/328 326/1/329 325/1/331
f 331/1/332 330/1/333 334/1/334 335/1/335
f 329/1/336 328/1/337 332/1/338 333/1/339
f 328/1/337 331/1/332 335/1/335 332/1/338
f 330/1/333 329/1/336 333/1/339 334/1/334
f 335/1/335 334/1/334 338/1/340 339/1/341
f 333/1/339 332/1/338 336/1/342 337/1/343
f 332/1/338 335/1/335 339/1/341 336/1/342
f 334/1/334 333/1/339 337/1/343 338/1/340
f 336/1/342 339/1/341 343/1/325 340/1/324
f 338/1/340 337/1/343 341/1/328 342/1/330
f 339/1/341 338/1/340 342/1/330 343/1/325
f 337/1/343 336/1/342 340/1/324 341/1/328
f 327/1/327 324/1/326 344/1/344 347/1/345
f 326/1/329 327/1/327 347/1/345 346/1/346
f 324/1/326 325/1/331 345/1/347 344/1/344
f 325/1/331 326/1/329 346/1/346 345/1/347
f 344/1/344 345/1/347 349/1/348 348/1/349
f 345/1/347 346/1/346 350/1/350 349/1/348
f 346/1/346 347/1/345 351/1/351 350/1/350
f 347/1/345 344/1/344 348/1/349 351/1/351
f 331/1/332 328/1/337 329/1/336 330/1/333
f 384/1/368 387/1/369 368/1/370 371/1/371
f 385/1/372 384/1/368 371/1/371 370/1/373
f 387/1/369 386/1/374 369/1/375 368/1/370
f 386/1/374 385/1/372 370/1/373 369/1/375
f 375/1/376 374/1/377 378/1/378 379/1/379
f 373/1/380 372/1/381 376/1/382 377/1/383
f 372/1/381 375/1/376 379/1/379 376/1/382
f 374/1/377 373/1/380 377/1/383 378/1/378
f 379/1/379 378/1/378 382/1/384 383/1/385
f 377/1/383 376/1/382 380/1/386 381/1/387
f 376/1/382 379/1/379 383/1/385 380/1/386
f 378/1/378 377/1/383 381/1/387 382/1/384
f 380/1/386 383/1/385 387/1/369 384/1/368
f 382/1/384 381/1/387 385/1/372 386/1/374
f 383/1/385 382/1/384 386/1/374 387/1/369
f 381/1/387 380/1/386 384/1/368 385/1/372
f 371/1/371 368/1/370 388/1/388 391/1/389
f 370/1/373 371/1/371 391/1/389 390/1/390
f 368/1/370 369/1/375 389/1/391 388/1/388
f 369/1/375 370/1/373 390/1/390 389/1/391
f 388/1/388 389/1/391 393/1/392 392/1/393
f 389/1/391 390/1/390 394/1/394 393/1/392
f 390/1/390 391/1/389 395/1/395 394/1/394
f 391/1/389 388/1/388 392/1/393 395/1/395
f 372/1/381 373/1/380 374/1/377 375/1/376
usemtl Material.025
f 85/1/84 86/1/86 90/1/88 89/1/89
f 86/1/86 87/1/87 91/1/90 90/1/88
f 87/1/87 84/1/85 88/1/91 91/1/90
f 84/1/85 85/1/84 89/1/89 88/1/91
f 91/1/90 88/1/91 92/1/92 95/1/93
f 88/1/91 89/1/89 93/1/94 92/1/92
f 89/1/89 90/1/88 94/1/95 93/1/94
f 90/1/88 91/1/90 95/1/93 94/1/95
f 93/1/94 94/1/95 98/1/96 97/1/97
f 94/1/95 95/1/93 99/1/98 98/1/96
f 95/1/93 92/1/92 96/1/99 99/1/98
f 92/1/92 93/1/94 97/1/97 96/1/99
f 98/1/96 99/1/98 103/1/100 102/1/101
f 99/1/98 96/1/99 100/1/102 103/1/100
f 96/1/99 97/1/97 101/1/103 100/1/102
f 97/1/97 98/1/96 102/1/101 101/1/103
f 100/1/102 101/1/103 102/1/101 103/1/100
f 129/1/128 130/1/130 134/1/132 133/1/133
f 130/1/130 131/1/131 135/1/134 134/1/132
f 131/1/131 128/1/129 132/1/135 135/1/134
f 128/1/129 129/1/128 133/1/133 132/1/135
f 135/1/134 132/1/135 136/1/136 139/1/137
f 132/1/135 133/1/133 137/1/138 136/1/136
f 133/1/133 134/1/132 138/1/139 137/1/138
f 134/1/132 135/1/134 139/1/137 138/1/139
f 137/1/138 138/1/139 142/1/140 141/1/141
f 138/1/139 139/1/137 143/1/142 142/1/140
f 139/1/137 136/1/136 140/1/143 143/1/142
f 136/1/136 137/1/138 141/1/141 140/1/143
f 142/1/140 143/1/142 147/1/144 146/1/145
f 143/1/142 140/1/143 144/1/146 147/1/144
f 140/1/143 141/1/141 145/1/147 144/1/146
f 141/1/141 142/1/140 146/1/145 145/1/147
f 144/1/146 145/1/147 146/1/145 147/1/144
f 173/1/172 174/1/174 178/1/176 177/1/177
f 174/1/174 175/1/175 179/1/178 178/1/176
f 175/1/175 172/1/173 176/1/179 179/1/178
f 172/1/173 173/1/172 177/1/177 176/1/179
f 179/1/178 176/1/179 180/1/180 183/1/181
f 176/1/179 177/1/177 181/1/182 180/1/180
f 177/1/177 178/1/176 182/1/183 181/1/182
f 178/1/176 179/1/178 183/1/181 182/1/183
f 181/1/182 182/1/183 186/1/184 185/1/185
f 182/1/183 183/1/181 187/1/186 186/1/184
f 183/1/181 180/1/180 184/1/187 187/1/186
f 180/1/180 181/1/182 185/1/185 184/1/187
f 186/1/184 187/1/186 191/1/188 190/1/189
f 187/1/186 184/1/187 188/1/190 191/1/188
f 184/1/187 185/1/185 189/1/191 188/1/190
f 185/1/185 186/1/184 190/1/189 189/1/191
f 188/1/190 189/1/191 190/1/189 191/1/188
f 217/1/216 218/1/218 222/1/220 221/1/221
f 218/1/218 219/1/219 223/1/222 222/1/220
f 219/1/219 216/1/217 220/1/223 223/1/222
f 216/1/217 217/1/216 221/1/221 220/1/223
f 223/1/222 220/1/223 224/1/224 227/1/225
f 220/1/223 221/1/221 225/1/226 224/1/224
f 221/1/221 222/1/220 226/1/227 225/1/226
f 222/1/220 223/1/222 227/1/225 226/1/227
f 225/1/226 226/1/227 230/1/228 229/1/229
f 226/1/227 227/1/225 231/1/230 230/1/228
f 227/1/225 224/1/224 228/1/231 231/1/230
f 224/1/224 225/1/226 229/1/229 228/1/231
f 230/1/228 231/1/230 235/1/232 234/1/233
f 231/1/230 228/1/231 232/1/234 235/1/232
f 228/1/231 229/1/229 233/1/235 232/1/234
f 229/1/229 230/1/228 234/1/233 233/1/235
f 232/1/234 233/1/235 234/1/233 235/1/232
f 261/1/260 262/1/262 266/1/264 265/1/265
f 262/1/262 263/1/263 267/1/266 266/1/264
f 263/1/263 260/1/261 264/1/267 267/1/266
f 260/1/261 261/1/260 265/1/265 264/1/267
f 267/1/266 264/1/267 268/1/268 271/1/269
f 264/1/267 265/1/265 269/1/270 268/1/268
f 265/1/265 266/1/264 270/1/271 269/1/270
f 266/1/264 267/1/266 271/1/269 270/1/271
f 269/1/270 270/1/271 274/1/272 273/1/273
f 270/1/271 271/1/269 275/1/274 274/1/272
f 271/1/269 268/1/268 272/1/275 275/1/274
f 268/1/268 269/1/270 273/1/273 272/1/275
f 274/1/272 275/1/274 279/1/276 278/1/277
f 275/1/274 272/1/275 276/1/278 279/1/276
f 272/1/275 273/1/273 277/1/279 276/1/278
f 273/1/273 274/1/272 278/1/277 277/1/279
f 276/1/278 277/1/279 278/1/277 279/1/276
f 305/1/304 306/1/306 310/1/308 309/1/309
f 306/1/306 307/1/307 311/1/310 310/1/308
f 307/1/307 304/1/305 308/1/311 311/1/310
f 304/1/305 305/1/304 309/1/309 308/1/311
f 311/1/310 308/1/311 312/1/312 315/1/313
f 308/1/311 309/1/309 313/1/314 312/1/312
f 309/1/309 310/1/308 314/1/315 313/1/314
f 310/1/308 311/1/310 315/1/313 314/1/315
f 313/1/314 314/1/315 318/1/316 317/1/317
f 314/1/315 315/1/313 319/1/318 318/1/316
f 315/1/313 312/1/312 316/1/319 319/1/318
f 312/1/312 313/1/314 317/1/317 316/1/319
f 318/1/316 319/1/318 323/1/320 322/1/321
f 319/1/318 316/1/319 320/1/322 323/1/320
f 316/1/319 317/1/317 321/1/323 320/1/322
f 317/1/317 318/1/316 322/1/321 321/1/323
f 320/1/322 321/1/323 322/1/321 323/1/320
f 349/1/348 350/1/350 354/1/352 353/1/353
f 350/1/350 351/1/351 355/1/354 354/1/352
f 351/1/351 348/1/349 352/1/355 355/1/354
f 348/1/349 349/1/348 353/1/353 352/1/355
f 355/1/354 352/1/355 356/1/356 359/1/357
f 352/1/355 353/1/353 357/1/358 356/1/356
f 353/1/353 354/1/352 358/1/359 357/1/358
f 354/1/352 355/1/354 359/1/357 358/1/359
f 357/1/358 358/1/359 362/1/360 361/1/361
f 358/1/359 359/1/357 363/1/362 362/1/360
f 359/1/357 356/1/356 360/1/363 363/1/362
f 356/1/356 357/1/358 361/1/361 360/1/363
f 362/1/360 363/1/362 367/1/364 366/1/365
f 363/1/362 360/1/363 364/1/366 367/1/364
f 360/1/363 361/1/361 365/1/367 364/1/366
f 361/1/361 362/1/360 366/1/365 365/1/367
f 364/1/366 365/1/367 366/1/365 367/1/364
f 393/1/392 394/1/394 398/1/396 397/1/397
f 394/1/394 395/1/395 399/1/398 398/1/396
f 395/1/395 392/1/393 396/1/399 399/1/398
f 392/1/393 393/1/392 397/1/397 396/1/399
f 399/1/398 396/1/399 400/1/400 403/1/401
f 396/1/399 397/1/397 401/1/402 400/1/400
f 397/1/397 398/1/396 402/1/403 401/1/402
f 398/1/396 399/1/398 403/1/401 402/1/403
f 401/1/402 402/1/403 406/1/404 405/1/405
f 402/1/403 403/1/401 407/1/406 406/1/404
f 403/1/401 400/1/400 404/1/407 407/1/406
f 400/1/400 401/1/402 405/1/405 404/1/407
f 406/1/404 407/1/406 411/1/408 410/1/409
f 407/1/406 404/1/407 408/1/410 411/1/408
f 404/1/407 405/1/405 409/1/411 408/1/410
f 405/1/405 406/1/404 410/1/409 409/1/411
f 408/1/410 409/1/411 410/1/409 411/1/408
